<svg width="81" height="201" viewBox="0 0 81 201" fill="none" xmlns="http://www.w3.org/2000/svg">
<path d="M80.0074 0.25H0.00738525V200.25H80.0074V0.25Z" fill="white"/>
<path d="M61.0074 161.25V163.25H61.594V162.129H70.4115V163.25H71.0074V161.25H61.0074Z" fill="#2E2D2C"/>
<path d="M72.2892 169.438C72.2314 168.527 71.5043 167.806 70.6156 167.806H70.581C69.6807 167.806 68.9651 168.527 68.9074 169.438V171.307H72.3238V169.438H72.2892Z" fill="#2E2D2C"/>
<path d="M63.4892 169.438C63.4315 168.527 62.7043 167.806 61.8156 167.806H61.781C60.8807 167.806 60.1651 168.527 60.1074 169.438V171.307H63.5238V169.438H63.4892Z" fill="#BE1622"/>
<path d="M68.8114 165.57H69.5386V166.422C69.5386 166.575 69.5155 166.717 69.4578 166.824C69.4001 166.93 69.3193 167.025 69.2154 167.084C69.1115 167.143 68.9846 167.167 68.823 167.167C68.6614 167.167 68.5344 167.143 68.4306 167.084C68.3267 167.025 68.2343 166.942 68.1882 166.848C68.1305 166.741 68.1074 166.611 68.1074 166.469V164.943C68.1074 164.789 68.1305 164.648 68.1882 164.541C68.2459 164.435 68.3267 164.34 68.4306 164.281C68.5344 164.222 68.6614 164.198 68.823 164.198C68.9846 164.198 69.1 164.222 69.2039 164.281C69.3077 164.34 69.3885 164.423 69.4462 164.529C69.504 164.636 69.527 164.766 69.527 164.92V165.061H69.1577V164.92C69.1577 164.789 69.1231 164.695 69.0654 164.624C69.0076 164.553 68.9269 164.517 68.823 164.517C68.7076 164.517 68.6152 164.553 68.546 164.624C68.4767 164.695 68.4536 164.801 68.4536 164.943V166.469C68.4536 166.587 68.4883 166.682 68.5575 166.753C68.6268 166.824 68.7191 166.848 68.8461 166.848C68.973 166.848 69.0538 166.812 69.1231 166.741C69.1923 166.67 69.2154 166.564 69.2154 166.434V165.889H68.8345V165.57H68.8114Z" fill="#3C3C3B"/>
<path d="M69.9079 167.143V164.222H70.2195L71.0967 166.54L71.039 166.588V164.21H71.3737V167.132H71.0621L70.1849 164.849L70.2426 164.801V167.143H69.9079Z" fill="#3C3C3B"/>
<path d="M71.7777 167.143V164.222H72.124V167.143H71.7777ZM71.9855 167.143V166.824H72.6203C72.6895 166.824 72.7472 166.8 72.7818 166.765C72.8165 166.729 72.8396 166.67 72.8396 166.587V164.778C72.8396 164.707 72.8165 164.648 72.7818 164.6C72.7472 164.553 72.6895 164.541 72.6203 164.541H71.9855V164.222H72.6087C72.7934 164.222 72.9319 164.269 73.0358 164.364C73.1396 164.458 73.1858 164.6 73.1858 164.79V166.576C73.1858 166.694 73.1627 166.8 73.1166 166.883C73.0704 166.966 73.0011 167.037 72.9203 167.072C72.8396 167.12 72.7357 167.143 72.6087 167.143H71.9855Z" fill="#3C3C3B"/>
<path d="M61.1876 167.143L60.5874 164.222H60.9452L61.3838 166.635L61.8224 164.222H62.1802L61.58 167.143H61.176H61.1876Z" fill="#3C3C3B"/>
<path d="M62.3071 165.641H63.4728V165.961H62.3071V165.641ZM63.0573 164.991V166.623H62.7342V164.991H63.0573Z" fill="#3C3C3B"/>
<path d="M62.8384 156.996V159.918H62.5037V157.315L62.0074 157.623V157.268L62.4229 156.996H62.8384Z" fill="#3C3C3B"/>
<path d="M63.2193 159.917V159.633L63.9348 158.426C64.0156 158.284 64.0849 158.142 64.1311 158.012C64.1772 157.882 64.2003 157.764 64.2003 157.669C64.2003 157.539 64.1772 157.444 64.1195 157.385C64.0618 157.326 63.9926 157.291 63.9002 157.291C63.7848 157.291 63.704 157.338 63.6463 157.421C63.5886 157.504 63.554 157.634 63.554 157.799H63.1962C63.1962 157.527 63.2539 157.314 63.3693 157.172C63.4847 157.03 63.6463 156.96 63.8656 156.96C64.0849 156.96 64.258 157.019 64.3734 157.137C64.4889 157.255 64.5466 157.433 64.5466 157.657C64.5466 157.776 64.5235 157.906 64.4773 158.06C64.4311 158.213 64.3619 158.367 64.2696 158.533L63.6463 159.597H64.5466V159.917H63.2193Z" fill="#3C3C3B"/>
<path d="M65.343 159.916L64.7428 156.995H65.1006L65.5392 159.408L65.9778 156.995H66.3356L65.7354 159.916H65.3314H65.343Z" fill="#3C3C3B"/>
<path d="M66.5895 159.916V156.995H66.9357V159.916H66.5895ZM66.7857 159.916V159.597H67.4205C67.4897 159.597 67.5475 159.573 67.5821 159.538C67.6167 159.502 67.6398 159.443 67.6398 159.361V157.551C67.6398 157.48 67.6167 157.421 67.5821 157.373C67.5475 157.326 67.4897 157.314 67.4205 157.314H66.7857V156.995H67.409C67.5936 156.995 67.7321 157.042 67.836 157.137C67.9399 157.231 67.986 157.373 67.986 157.563V159.349C67.986 159.467 67.963 159.573 67.9168 159.656C67.8706 159.739 67.8014 159.81 67.7206 159.845C67.6398 159.881 67.5359 159.916 67.409 159.916H66.7857Z" fill="#3C3C3B"/>
<path d="M69.0018 159.94C68.8517 159.94 68.7363 159.917 68.6324 159.857C68.5285 159.798 68.4478 159.715 68.4016 159.597C68.3554 159.479 68.3208 159.349 68.3208 159.195V157.705C68.3208 157.551 68.3439 157.409 68.4016 157.303C68.4593 157.196 68.5401 157.101 68.6324 157.042C68.7248 156.983 68.8633 156.96 69.0018 156.96C69.1403 156.96 69.2788 156.983 69.3711 157.042C69.475 157.101 69.5558 157.184 69.6019 157.303C69.6596 157.409 69.6827 157.551 69.6827 157.705V157.823H69.3365V157.705C69.3365 157.61 69.3249 157.539 69.3019 157.48C69.2788 157.421 69.2326 157.373 69.1864 157.338C69.1403 157.303 69.071 157.291 69.0018 157.291C68.8863 157.291 68.8056 157.326 68.7478 157.397C68.6901 157.468 68.6555 157.575 68.6555 157.716V159.207C68.6555 159.337 68.6901 159.443 68.7478 159.514C68.8056 159.585 68.8979 159.621 69.0018 159.621C69.1056 159.621 69.198 159.585 69.2557 159.514C69.3134 159.443 69.348 159.337 69.348 159.207V159.089H69.6943V159.207C69.6943 159.361 69.6712 159.503 69.6135 159.609C69.5558 159.715 69.4865 159.81 69.3826 159.869C69.2788 159.928 69.1518 159.952 69.0133 159.952L69.0018 159.94Z" fill="#3C3C3B"/>
<path d="M8.70738 161.25V163.25H9.29398V162.129H18.1115V163.25H18.7074V161.25H8.70738Z" fill="#2E2D2C"/>
<path d="M19.9892 169.438C19.9314 168.527 19.2043 167.806 18.3156 167.806H18.281C17.3807 167.806 16.6651 168.527 16.6074 169.438V171.307H20.0238V169.438H19.9892Z" fill="#2E2D2C"/>
<path d="M11.1892 169.438C11.1315 168.527 10.4043 167.806 9.51559 167.806H9.48096C8.5807 167.806 7.8651 168.527 7.80739 169.438V171.307H11.2238V169.438H11.1892Z" fill="#BE1622"/>
<path d="M16.5114 165.57H17.2386V166.422C17.2386 166.575 17.2155 166.717 17.1578 166.824C17.1001 166.93 17.0193 167.025 16.9154 167.084C16.8115 167.143 16.6846 167.167 16.523 167.167C16.3614 167.167 16.2344 167.143 16.1305 167.084C16.0267 167.025 15.9343 166.942 15.8882 166.848C15.8305 166.741 15.8074 166.611 15.8074 166.469V164.943C15.8074 164.789 15.8305 164.648 15.8882 164.541C15.9459 164.435 16.0267 164.34 16.1305 164.281C16.2344 164.222 16.3614 164.198 16.523 164.198C16.6846 164.198 16.8 164.222 16.9039 164.281C17.0077 164.34 17.0885 164.423 17.1462 164.529C17.2039 164.636 17.227 164.766 17.227 164.92V165.061H16.8577V164.92C16.8577 164.789 16.8231 164.695 16.7653 164.624C16.7076 164.553 16.6268 164.517 16.523 164.517C16.4075 164.517 16.3152 164.553 16.246 164.624C16.1767 164.695 16.1536 164.801 16.1536 164.943V166.469C16.1536 166.587 16.1883 166.682 16.2575 166.753C16.3268 166.824 16.4191 166.848 16.5461 166.848C16.673 166.848 16.7538 166.812 16.8231 166.741C16.8923 166.67 16.9154 166.564 16.9154 166.434V165.889H16.5345V165.57H16.5114Z" fill="#3C3C3B"/>
<path d="M17.6079 167.143V164.222H17.9195L18.7967 166.54L18.739 166.588V164.21H19.0737V167.132H18.7621L17.8849 164.849L17.9426 164.801V167.143H17.6079Z" fill="#3C3C3B"/>
<path d="M19.4777 167.143V164.222H19.8239V167.143H19.4777ZM19.6854 167.143V166.824H20.3202C20.3895 166.824 20.4472 166.8 20.4818 166.765C20.5165 166.729 20.5395 166.67 20.5395 166.587V164.778C20.5395 164.707 20.5165 164.648 20.4818 164.6C20.4472 164.553 20.3895 164.541 20.3202 164.541H19.6854V164.222H20.3087C20.4934 164.222 20.6319 164.269 20.7358 164.364C20.8396 164.458 20.8858 164.6 20.8858 164.79V166.576C20.8858 166.694 20.8627 166.8 20.8165 166.883C20.7704 166.966 20.7011 167.037 20.6203 167.072C20.5395 167.12 20.4357 167.143 20.3087 167.143H19.6854Z" fill="#3C3C3B"/>
<path d="M8.88756 167.143L8.28738 164.222H8.64518L9.08378 166.635L9.52237 164.222H9.88017L9.27999 167.143H8.87602H8.88756Z" fill="#3C3C3B"/>
<path d="M10.0071 165.641H11.1728V165.961H10.0071V165.641ZM10.7573 164.991V166.623H10.4342V164.991H10.7573Z" fill="#3C3C3B"/>
<path d="M10.5384 156.996V159.918H10.2037V157.315L9.70738 157.623V157.268L10.1229 156.996H10.5384Z" fill="#3C3C3B"/>
<path d="M10.9192 159.917V159.633L11.6348 158.426C11.7156 158.284 11.7849 158.142 11.8311 158.012C11.8772 157.882 11.9003 157.764 11.9003 157.669C11.9003 157.539 11.8772 157.444 11.8195 157.385C11.7618 157.326 11.6926 157.291 11.6002 157.291C11.4848 157.291 11.404 157.338 11.3463 157.421C11.2886 157.504 11.254 157.634 11.254 157.799H10.8962C10.8962 157.527 10.9539 157.314 11.0693 157.172C11.1847 157.03 11.3463 156.96 11.5656 156.96C11.7849 156.96 11.958 157.019 12.0734 157.137C12.1889 157.255 12.2466 157.433 12.2466 157.657C12.2466 157.776 12.2235 157.906 12.1773 158.06C12.1311 158.213 12.0619 158.367 11.9696 158.533L11.3463 159.597H12.2466V159.917H10.9192Z" fill="#3C3C3B"/>
<path d="M13.043 159.916L12.4428 156.995H12.8006L13.2392 159.408L13.6778 156.995H14.0356L13.4354 159.916H13.0314H13.043Z" fill="#3C3C3B"/>
<path d="M14.2895 159.916V156.995H14.6357V159.916H14.2895ZM14.4857 159.916V159.597H15.1205C15.1897 159.597 15.2474 159.573 15.2821 159.538C15.3167 159.502 15.3398 159.443 15.3398 159.361V157.551C15.3398 157.48 15.3167 157.421 15.2821 157.373C15.2474 157.326 15.1897 157.314 15.1205 157.314H14.4857V156.995H15.1089C15.2936 156.995 15.4321 157.042 15.536 157.137C15.6399 157.231 15.686 157.373 15.686 157.563V159.349C15.686 159.467 15.663 159.573 15.6168 159.656C15.5706 159.739 15.5014 159.81 15.4206 159.845C15.3398 159.881 15.2359 159.916 15.1089 159.916H14.4857Z" fill="#3C3C3B"/>
<path d="M16.7018 159.94C16.5517 159.94 16.4363 159.917 16.3324 159.857C16.2286 159.798 16.1478 159.715 16.1016 159.597C16.0554 159.479 16.0208 159.349 16.0208 159.195V157.705C16.0208 157.551 16.0439 157.409 16.1016 157.303C16.1593 157.196 16.2401 157.101 16.3324 157.042C16.4248 156.983 16.5633 156.96 16.7018 156.96C16.8403 156.96 16.9788 156.983 17.0711 157.042C17.175 157.101 17.2558 157.184 17.3019 157.303C17.3597 157.409 17.3827 157.551 17.3827 157.705V157.823H17.0365V157.705C17.0365 157.61 17.0249 157.539 17.0019 157.48C16.9788 157.421 16.9326 157.373 16.8864 157.338C16.8403 157.303 16.771 157.291 16.7018 157.291C16.5864 157.291 16.5056 157.326 16.4478 157.397C16.3901 157.468 16.3555 157.575 16.3555 157.716V159.207C16.3555 159.337 16.3901 159.443 16.4478 159.514C16.5056 159.585 16.5979 159.621 16.7018 159.621C16.8056 159.621 16.898 159.585 16.9557 159.514C17.0134 159.443 17.048 159.337 17.048 159.207V159.089H17.3943V159.207C17.3943 159.361 17.3712 159.503 17.3135 159.609C17.2558 159.715 17.1865 159.81 17.0826 159.869C16.9788 159.928 16.8518 159.952 16.7133 159.952L16.7018 159.94Z" fill="#3C3C3B"/>
<path d="M35.0269 4.03503H52.1088" stroke="#212830" stroke-width="0.25" stroke-miterlimit="10" stroke-linecap="square"/>
<path d="M35.0269 0.25H52.1088" stroke="#212830" stroke-width="0.5" stroke-miterlimit="10" stroke-linecap="square"/>
<path d="M0.25 0.25V200.25" stroke="#212830" stroke-width="0.5" stroke-miterlimit="10" stroke-linecap="square"/>
<path d="M0.435883 200.25H80.0074" stroke="#212830" stroke-width="0.5" stroke-miterlimit="10" stroke-linecap="square"/>
<path d="M80.0074 200.25V0.25" stroke="#212830" stroke-width="0.5" stroke-miterlimit="10" stroke-linecap="square"/>
<path d="M80.0074 0.25H52.1089" stroke="#212830" stroke-width="0.5" stroke-miterlimit="10" stroke-linecap="square"/>
<path d="M35.0269 0.25H0.435883" stroke="#212830" stroke-width="0.5" stroke-miterlimit="10" stroke-linecap="square"/>
<path d="M0.435883 172.218H80.0074" stroke="#212830" stroke-width="0.25" stroke-miterlimit="10" stroke-linecap="square"/>
<path d="M0.435883 155.717L80.0074 155.717" stroke="#212830" stroke-width="0.25" stroke-miterlimit="10" stroke-linecap="square"/>
<path d="M0.435883 48.0827H80.0074" stroke="#212830" stroke-width="0.25" stroke-miterlimit="10" stroke-linecap="square"/>
<path d="M0.435883 31.5351H80.0074" stroke="#212830" stroke-width="0.25" stroke-miterlimit="10" stroke-linecap="square"/>
<path d="M4.60251 4.03503H35.0269" stroke="#212830" stroke-width="0.25" stroke-miterlimit="10" stroke-linecap="square"/>
<path d="M52.1089 4.03503H76.0074" stroke="#212830" stroke-width="0.25" stroke-miterlimit="10" stroke-linecap="square"/>
<path d="M76.0074 4.03503V31.5352" stroke="#212830" stroke-width="0.25" stroke-miterlimit="10" stroke-linecap="square"/>
<path d="M4.60251 4.03503V31.5352" stroke="#212830" stroke-width="0.25" stroke-miterlimit="10" stroke-linecap="square"/>
<path d="M1.959 172.218V195.554" stroke="#212830" stroke-width="0.25" stroke-miterlimit="10" stroke-linecap="square"/>
<path d="M1.959 195.554H78.0074" stroke="#212830" stroke-width="0.25" stroke-miterlimit="10" stroke-linecap="square"/>
<path d="M78.0074 195.554V172.218" stroke="#212830" stroke-width="0.25" stroke-miterlimit="10" stroke-linecap="square"/>
<path d="M40.1036 9.22534V21.5383H14.0074V9.10706" fill="#AFD5A9"/>
<path d="M40.1036 9.22534V21.5383H14.0074V9.10706" stroke="#212830" stroke-width="0.25" stroke-miterlimit="10"/>
<path d="M40.1036 7.25H14.0074V9.22528H40.1036V7.25Z" fill="#5EB34A" stroke="#1D1D1B" stroke-width="0.25" stroke-miterlimit="10"/>
<path d="M40.1036 21.5385H14.0074V26.0922H40.1036V21.5385Z" fill="#5EB34A" stroke="#1D1D1B" stroke-width="0.25" stroke-miterlimit="10"/>
<path d="M37.3913 26.0922V22.3546H34.0095V26.0922H28.6425V22.3546H25.2492V26.0922H20.0438V22.3546H16.6621V26.0922" fill="#0C9B47"/>
<path d="M37.3913 26.0922V22.3546H34.0095V26.0922H28.6425V22.3546H25.2492V26.0922H20.0438V22.3546H16.6621V26.0922" stroke="#212830" stroke-width="0.25" stroke-miterlimit="10"/>
<path class="RELAY-1-B" d="M20.5631 17.5049L20.0438 17.9307L19.5244 18.1909L18.9011 18.4038L18.2779 18.4629L17.6431 18.4038L17.0198 18.1909L16.5004 17.9307L15.981 17.5049L15.5655 16.9608L15.3 16.4285L15.0923 15.7898L15.0461 15.1511L15.0923 14.5124L15.3 13.8737L15.5655 13.3296L15.981 12.7973L16.5004 12.3715L17.0198 12.1113L17.6431 11.8984L18.2779 11.8392L18.9011 11.8984L19.5244 12.1113L20.0438 12.3715L20.5631 12.7973L20.9787 13.3296L21.2441 13.8737L21.4519 14.5124L21.498 15.1511L21.4519 15.7898L21.2441 16.4285L20.9787 16.9608L20.5631 17.5049ZM20.5631 17.5049L15.981 12.8093" stroke="#212830" stroke-width="0.25" stroke-miterlimit="10" stroke-linecap="square"/>
<path d="M29.3466 17.5049L28.8272 17.9307L28.2963 18.1909L27.673 18.4038L27.0498 18.4629L26.4265 18.4038L25.8032 18.1909L25.2838 17.9307L24.7645 17.5049L24.3374 16.9608L24.0835 16.4285L23.8757 15.7898L23.818 15.1511L23.8757 14.5124L24.0835 13.8737L24.3374 13.3296L24.7645 12.7973L25.2838 12.3715L25.8032 12.1113L26.4265 11.8984L27.0498 11.8392L27.673 11.8984L28.2963 12.1113L28.8272 12.3715L29.3466 12.7973L29.7621 13.3296L30.016 13.8737L30.2238 14.5124L30.2815 15.1511L30.2238 15.7898L30.016 16.4285L29.7621 16.9608L29.3466 17.5049ZM29.3466 17.5049L24.7644 12.8093" stroke="#212830" stroke-width="0.25" stroke-miterlimit="10" stroke-linecap="square"/>
<path class="RELAY-1-A" d="M37.9914 17.5049L37.4721 17.9307L36.9527 18.1909L36.3294 18.4038L35.6946 18.4629L35.0714 18.4038L34.4481 18.1909L33.9287 17.9307L33.4093 17.5049L32.9938 16.9608L32.7283 16.4285L32.5206 15.7898L32.4744 15.1511L32.5206 14.5124L32.7283 13.8737L32.9938 13.3296L33.4093 12.7973L33.9287 12.3715L34.4481 12.1113L35.0714 11.8984L35.6946 11.8392L36.3294 11.8984L36.9527 12.1113L37.4721 12.3715L37.9914 12.7973L38.407 13.3296L38.6724 13.8737L38.8802 14.5124L38.9263 15.1511L38.8802 15.7898L38.6724 16.4285L38.407 16.9608L37.9914 17.5049ZM37.9914 17.5049L33.4093 12.8093" stroke="#212830" stroke-width="0.25" stroke-miterlimit="10" stroke-linecap="square"/>
<path d="M66.4306 9.22534V21.5383H40.3344V9.10706" fill="#AFD5A9"/>
<path d="M66.4306 9.22534V21.5383H40.3344V9.10706" stroke="#212830" stroke-width="0.25" stroke-miterlimit="10"/>
<path d="M66.4306 7.25H40.3344V9.22528H66.4306V7.25Z" fill="#5EB34A" stroke="#1D1D1B" stroke-width="0.25" stroke-miterlimit="10"/>
<path d="M66.4306 21.5385H40.3344V26.0922H66.4306V21.5385Z" fill="#5EB34A" stroke="#1D1D1B" stroke-width="0.25" stroke-miterlimit="10"/>
<path d="M63.7298 26.0922V22.3546H60.3365V26.0922H54.9695V22.3546H51.5877V26.0922H46.3824V22.3546H42.989V26.0922" fill="#0C9B47"/>
<path d="M63.7298 26.0922V22.3546H60.3365V26.0922H54.9695V22.3546H51.5877V26.0922H46.3824V22.3546H42.989V26.0922" stroke="#212830" stroke-width="0.25" stroke-miterlimit="10"/>
<path class="RELAY-2-B" d="M46.9018 17.5049L46.3824 17.9307L45.8515 18.1909L45.2282 18.4038L44.6049 18.4629L43.9817 18.4038L43.3584 18.1909L42.839 17.9307L42.3196 17.5049L41.8926 16.9608L41.6387 16.4285L41.4309 15.7898L41.3732 15.1511L41.4309 14.5124L41.6387 13.8737L41.8926 13.3296L42.3196 12.7973L42.839 12.3715L43.3584 12.1113L43.9817 11.8984L44.6049 11.8392L45.2282 11.8984L45.8515 12.1113L46.3824 12.3715L46.9018 12.7973L47.3173 13.3296L47.5712 13.8737L47.779 14.5124L47.8367 15.1511L47.779 15.7898L47.5712 16.4285L47.3173 16.9608L46.9018 17.5049ZM46.9018 17.5049L42.3197 12.8093" stroke="#212830" stroke-width="0.25" stroke-miterlimit="10" stroke-linecap="square"/>
<path d="M55.6736 17.5049L55.1542 17.9307L54.6348 18.1909L54.0115 18.4038L53.3883 18.4629L52.7535 18.4038L52.1302 18.1909L51.6108 17.9307L51.0914 17.5049L50.6759 16.9608L50.4105 16.4285L50.2027 15.7898L50.1566 15.1511L50.2027 14.5124L50.4105 13.8737L50.6759 13.3296L51.0914 12.7973L51.6108 12.3715L52.1302 12.1113L52.7535 11.8984L53.3883 11.8392L54.0115 11.8984L54.6348 12.1113L55.1542 12.3715L55.6736 12.7973L56.0891 13.3296L56.3545 13.8737L56.5623 14.5124L56.6085 15.1511L56.5623 15.7898L56.3545 16.4285L56.0891 16.9608L55.6736 17.5049ZM55.6736 17.5049L51.0914 12.8093" stroke="#212830" stroke-width="0.25" stroke-miterlimit="10" stroke-linecap="square"/>
<path class="RELAY-2-A" d="M64.3184 17.5049L63.7991 17.9307L63.2797 18.1909L62.6564 18.4038L62.0331 18.4629L61.4099 18.4038L60.7866 18.1909L60.2557 17.9307L59.7363 17.5049L59.3208 16.9608L59.0669 16.4285L58.8591 15.7898L58.8014 15.1511L58.8591 14.5124L59.0669 13.8737L59.3208 13.3296L59.7363 12.7973L60.2557 12.3715L60.7866 12.1113L61.4099 11.8984L62.0331 11.8392L62.6564 11.8984L63.2797 12.1113L63.7991 12.3715L64.3184 12.7973L64.7455 13.3296L64.9994 13.8737L65.2072 14.5124L65.2649 15.1511L65.2072 15.7898L64.9994 16.4285L64.7455 16.9608L64.3184 17.5049ZM64.3184 17.5049L59.7363 12.8093" stroke="#212830" stroke-width="0.25" stroke-miterlimit="10" stroke-linecap="square"/>
<path d="M22.6703 190.693V179.054H5.05739V190.693" fill="#AFD5A9"/>
<path d="M22.6703 190.693V179.054H5.05739V190.693" stroke="#212830" stroke-width="0.25" stroke-miterlimit="10"/>
<path d="M22.6703 190.693H5.05739V192.881H22.6703V190.693Z" fill="#5EB34A" stroke="#1D1D1B" stroke-width="0.25" stroke-miterlimit="10"/>
<path d="M22.6703 173.98H5.05739V179.054H22.6703V173.98Z" fill="#5EB34A" stroke="#1D1D1B" stroke-width="0.25" stroke-miterlimit="10"/>
<path d="M19.9002 173.98V177.765H16.5185V173.98H11.1515V177.765H7.76971V173.98" fill="#0C9B47"/>
<path d="M19.9002 173.98V177.765H16.5185V173.98H11.1515V177.765H7.76971V173.98" stroke="#212830" stroke-width="0.25" stroke-miterlimit="10"/>
<path class="12VDC-OUT-V+" d="M13.0294 184.921L12.9821 184.282L12.7692 183.643L12.4973 183.111L12.0716 182.579L11.5395 182.153L11.0074 181.881L10.3688 181.668L9.71846 181.621L9.07993 181.668L8.44139 181.881L7.90928 182.153L7.37717 182.579L6.95148 183.111L6.67952 183.643L6.46667 184.282L6.41937 184.921L6.46667 185.571L6.67952 186.21L6.95148 186.742L7.37717 187.275L7.90928 187.7L8.44139 187.972L9.07993 188.185L9.71846 188.233L10.3688 188.185L11.0074 187.972L11.5395 187.7L12.0716 187.275L12.4973 186.742L12.7692 186.21L12.9821 185.571L13.0294 184.921Z" fill="#C8C8CA"/>
<path d="M7.35352 182.543L12.0479 187.298M13.0294 184.921L12.9821 184.282L12.7692 183.643L12.4973 183.111L12.0716 182.579L11.5395 182.153L11.0074 181.881L10.3688 181.668L9.71846 181.621L9.07993 181.668L8.44139 181.881L7.90928 182.153L7.37717 182.579L6.95148 183.111L6.67952 183.643L6.46667 184.282L6.41937 184.921L6.46667 185.571L6.67952 186.21L6.95148 186.742L7.37717 187.275L7.90928 187.7L8.44139 187.972L9.07993 188.185L9.71846 188.233L10.3688 188.185L11.0074 187.972L11.5395 187.7L12.0716 187.275L12.4973 186.742L12.7692 186.21L12.9821 185.571L13.0294 184.921Z" stroke="#212830" stroke-width="0.25" stroke-miterlimit="10"/>
<path class="12VDC-OUT-GND" d="M21.6174 184.921L21.5701 184.282L21.3572 183.643L21.0853 183.111L20.6596 182.579L20.1275 182.153L19.5954 181.881L18.9568 181.668L18.3065 181.621L17.6679 181.668L17.0294 181.881L16.4973 182.153L15.9652 182.579L15.5395 183.111L15.2675 183.643L15.0547 184.282L15.0074 184.921L15.0547 185.571L15.2675 186.21L15.5395 186.742L15.9652 187.275L16.4973 187.7L17.0294 187.972L17.6679 188.185L18.3065 188.233L18.9568 188.185L19.5954 187.972L20.1275 187.7L20.6596 187.275L21.0853 186.742L21.3572 186.21L21.5701 185.571L21.6174 184.921Z" fill="#C8C8CA"/>
<path d="M15.9415 182.543L20.6359 187.298M21.6174 184.921L21.5701 184.282L21.3572 183.643L21.0853 183.111L20.6596 182.579L20.1275 182.153L19.5954 181.881L18.9568 181.668L18.3065 181.621L17.6679 181.668L17.0294 181.881L16.4973 182.153L15.9652 182.579L15.5395 183.111L15.2675 183.643L15.0547 184.282L15.0074 184.921L15.0547 185.571L15.2675 186.21L15.5395 186.742L15.9652 187.275L16.4973 187.7L17.0294 187.972L17.6679 188.185L18.3065 188.233L18.9568 188.185L19.5954 187.972L20.1275 187.7L20.6596 187.275L21.0853 186.742L21.3572 186.21L21.5701 185.571L21.6174 184.921Z" stroke="#212830" stroke-width="0.25" stroke-miterlimit="10"/>
<path d="M75.0705 190.693V179.054H57.4691V190.693" fill="#AFD5A9"/>
<path d="M75.0705 190.693V179.054H57.4691V190.693" stroke="#212830" stroke-width="0.25" stroke-miterlimit="10"/>
<path d="M75.082 190.693H57.4691V192.881H75.082V190.693Z" fill="#5EB34A" stroke="#1D1D1B" stroke-width="0.25" stroke-miterlimit="10"/>
<path d="M75.082 173.98H57.4691V179.054H75.082V173.98Z" fill="#5EB34A" stroke="#1D1D1B" stroke-width="0.25" stroke-miterlimit="10"/>
<path d="M72.3119 173.98V177.765H68.9302V173.98H63.5632V177.765H60.1699V173.98" fill="#0C9B47"/>
<path d="M72.3119 173.98V177.765H68.9302V173.98H63.5632V177.765H60.1699V173.98" stroke="#212830" stroke-width="0.25" stroke-miterlimit="10"/>
<path class="12VDC-IN-V+" d="M65.4295 184.921L65.3705 184.282L65.158 183.643L64.8865 183.111L64.4616 182.579L63.9304 182.153L63.3993 181.881L62.7619 181.668L62.1245 181.621L61.4871 181.668L60.8379 181.881L60.3067 182.153L59.7756 182.579L59.3506 183.111L59.091 183.643L58.8667 184.282L58.8195 184.921L58.8667 185.571L59.091 186.21L59.3506 186.742L59.7756 187.275L60.3067 187.7L60.8379 187.972L61.4871 188.185L62.1245 188.233L62.7619 188.185L63.3993 187.972L63.9304 187.7L64.4616 187.275L64.8865 186.742L65.158 186.21L65.3705 185.571L65.4295 184.921Z" fill="#C8C8CA"/>
<path d="M59.752 182.543L64.438 187.298M65.4295 184.921L65.3705 184.282L65.158 183.643L64.8865 183.111L64.4616 182.579L63.9304 182.153L63.3993 181.881L62.7619 181.668L62.1245 181.621L61.4871 181.668L60.8379 181.881L60.3067 182.153L59.7756 182.579L59.3506 183.111L59.091 183.643L58.8667 184.282L58.8195 184.921L58.8667 185.571L59.091 186.21L59.3506 186.742L59.7756 187.275L60.3067 187.7L60.8379 187.972L61.4871 188.185L62.1245 188.233L62.7619 188.185L63.3993 187.972L63.9304 187.7L64.4616 187.275L64.8865 186.742L65.158 186.21L65.3705 185.571L65.4295 184.921Z" stroke="#212830" stroke-width="0.25" stroke-miterlimit="10"/>
<path class="12VDC-IN-GND" d="M73.555 184.874L73.4959 184.235L73.2835 183.596L73.0238 183.052L72.5871 182.52L72.0559 182.094L71.5247 181.834L70.8874 181.609L70.25 181.562L69.6126 181.609L68.9752 181.834L68.4322 182.094L67.9011 182.52L67.4761 183.052L67.2164 183.596L67.004 184.235L66.945 184.874L67.004 185.512L67.2164 186.151L67.4761 186.683L67.9011 187.216L68.4322 187.653L68.9752 187.913L69.6126 188.126L70.25 188.185L70.8874 188.126L71.5247 187.913L72.0559 187.653L72.5871 187.216L73.0238 186.683L73.2835 186.151L73.4959 185.512L73.555 184.874Z" fill="#C8C8CA"/>
<path d="M67.8775 182.496L72.5635 187.251M73.555 184.874L73.4959 184.235L73.2835 183.596L73.0238 183.052L72.5871 182.52L72.0559 182.094L71.5247 181.834L70.8874 181.609L70.25 181.562L69.6126 181.609L68.9752 181.834L68.4322 182.094L67.9011 182.52L67.4761 183.052L67.2164 183.596L67.004 184.235L66.945 184.874L67.004 185.512L67.2164 186.151L67.4761 186.683L67.9011 187.216L68.4322 187.653L68.9752 187.913L69.6126 188.126L70.25 188.185L70.8874 188.126L71.5247 187.913L72.0559 187.653L72.5871 187.216L73.0238 186.683L73.2835 186.151L73.4959 185.512L73.555 184.874Z" stroke="#212830" stroke-width="0.25" stroke-miterlimit="10"/>
<path d="M48.8704 190.693V179.054H31.2574V190.693" fill="#AFD5A9"/>
<path d="M48.8704 190.693V179.054H31.2574V190.693" stroke="#212830" stroke-width="0.25" stroke-miterlimit="10"/>
<path d="M48.8704 190.693H31.2574V192.881H48.8704V190.693Z" fill="#5EB34A" stroke="#1D1D1B" stroke-width="0.25" stroke-miterlimit="10"/>
<path d="M48.8704 173.98H31.2574V179.054H48.8704V173.98Z" fill="#5EB34A" stroke="#1D1D1B" stroke-width="0.25" stroke-miterlimit="10"/>
<path d="M46.1118 173.98V177.765H42.7185V173.98H37.3515V177.765H33.9698V173.98" fill="#0C9B47"/>
<path d="M46.1118 173.98V177.765H42.7185V173.98H37.3515V177.765H33.9698V173.98" stroke="#212830" stroke-width="0.25" stroke-miterlimit="10"/>
<path class="DI-IN-1" d="M39.2294 184.921L39.1821 184.282L38.9693 183.643L38.6973 183.111L38.2716 182.579L37.7395 182.153L37.2074 181.881L36.5689 181.668L35.9303 181.621L35.28 181.668L34.6415 181.881L34.1093 182.153L33.5772 182.579L33.1515 183.111L32.8796 183.643L32.6667 184.282L32.6194 184.921L32.6667 185.571L32.8796 186.21L33.1515 186.742L33.5772 187.275L34.1093 187.7L34.6415 187.972L35.28 188.185L35.9303 188.233L36.5689 188.185L37.2074 187.972L37.7395 187.7L38.2716 187.275L38.6973 186.742L38.9693 186.21L39.1821 185.571L39.2294 184.921Z" fill="#C8C8CA"/>
<path d="M33.5536 182.543L38.248 187.298M39.2294 184.921L39.1821 184.282L38.9693 183.643L38.6973 183.111L38.2716 182.579L37.7395 182.153L37.2074 181.881L36.5689 181.668L35.9303 181.621L35.28 181.668L34.6415 181.881L34.1093 182.153L33.5772 182.579L33.1515 183.111L32.8796 183.643L32.6667 184.282L32.6194 184.921L32.6667 185.571L32.8796 186.21L33.1515 186.742L33.5772 187.275L34.1093 187.7L34.6415 187.972L35.28 188.185L35.9303 188.233L36.5689 188.185L37.2074 187.972L37.7395 187.7L38.2716 187.275L38.6973 186.742L38.9693 186.21L39.1821 185.571L39.2294 184.921Z" stroke="#212830" stroke-width="0.25" stroke-miterlimit="10"/>
<path class="DI-IN-2" d="M47.3549 184.874L47.3076 184.235L47.0947 183.596L46.8228 183.052L46.3971 182.52L45.865 182.094L45.3328 181.834L44.6943 181.609L44.0558 181.562L43.4054 181.609L42.7669 181.834L42.2348 182.094L41.7027 182.52L41.277 183.052L41.005 183.596L40.7922 184.235L40.7449 184.874L40.7922 185.512L41.005 186.151L41.277 186.683L41.7027 187.216L42.2348 187.653L42.7669 187.913L43.4054 188.126L44.0558 188.185L44.6943 188.126L45.3328 187.913L45.865 187.653L46.3971 187.216L46.8228 186.683L47.0947 186.151L47.3076 185.512L47.3549 184.874Z" fill="#C8C8CA"/>
<path d="M41.679 182.496L46.3735 187.251M47.3549 184.874L47.3076 184.235L47.0947 183.596L46.8228 183.052L46.3971 182.52L45.865 182.094L45.3328 181.834L44.6943 181.609L44.0558 181.562L43.4054 181.609L42.7669 181.834L42.2348 182.094L41.7027 182.52L41.277 183.052L41.005 183.596L40.7922 184.235L40.7449 184.874L40.7922 185.512L41.005 186.151L41.277 186.683L41.7027 187.216L42.2348 187.653L42.7669 187.913L43.4054 188.126L44.0558 188.185L44.6943 188.126L45.3328 187.913L45.865 187.653L46.3971 187.216L46.8228 186.683L47.0947 186.151L47.3076 185.512L47.3549 184.874Z" stroke="#212830" stroke-width="0.25" stroke-miterlimit="10"/>
<path d="M37.4007 169.438C37.3661 168.882 37.0891 168.397 36.662 168.101C36.3966 167.912 36.0618 167.806 35.7156 167.806H35.681C34.7807 167.806 34.0651 168.527 34.0074 169.438V171.307H37.4238V169.438H37.4007Z" fill="#1D71B8"/>
<path d="M35.3347 161.277V162.093V163.146H36.0619V161.277H35.3347Z" fill="#2E2D2C"/>
<path d="M34.7922 159.94C34.6422 159.94 34.5037 159.916 34.3883 159.857C34.2729 159.798 34.1921 159.715 34.1344 159.609C34.0766 159.502 34.042 159.372 34.042 159.207V157.693C34.042 157.539 34.0766 157.397 34.1344 157.29C34.1921 157.184 34.2729 157.101 34.3883 157.042C34.5037 156.983 34.6307 156.959 34.7922 156.959C34.9538 156.959 35.0808 156.983 35.1962 157.042C35.3116 157.101 35.3924 157.184 35.4501 157.29C35.5078 157.397 35.5309 157.539 35.5309 157.693V159.207C35.5309 159.36 35.5078 159.502 35.4501 159.609C35.3924 159.715 35.3116 159.798 35.1962 159.857C35.0808 159.916 34.9538 159.94 34.7922 159.94ZM34.7922 159.621C34.9192 159.621 35.0115 159.585 35.0808 159.514C35.15 159.443 35.1847 159.349 35.1847 159.23V157.693C35.1847 157.563 35.15 157.468 35.0808 157.397C35.0115 157.326 34.9192 157.29 34.7922 157.29C34.6653 157.29 34.5729 157.326 34.5037 157.397C34.4344 157.468 34.3998 157.563 34.3998 157.693V159.23C34.3998 159.349 34.4344 159.455 34.5037 159.514C34.5729 159.585 34.6653 159.621 34.7922 159.621Z" fill="#3C3C3B"/>
<path d="M35.9003 159.916V156.995H36.2465V159.916H35.9003ZM36.1657 159.266V158.651L37.0314 156.983H37.4123L36.1657 159.254V159.266ZM37.1006 159.916L36.5351 158.355L36.7659 158.059L37.5046 159.916H37.1122H37.1006Z" fill="#3C3C3B"/>
<path d="M36.0272 164.222V167.143H35.6809V164.541L35.1846 164.849V164.494L35.6002 164.222H36.0157H36.0272Z" fill="#3C3C3B"/>
<path d="M46.1007 169.438C46.043 168.527 45.3158 167.806 44.4271 167.806H44.3925C44.0462 167.806 43.7231 167.912 43.4461 168.101C43.0306 168.397 42.7535 168.882 42.7074 169.438V171.307H46.1238V169.438H46.1007Z" fill="#1D71B8"/>
<path d="M44.0001 161.277V162.093V163.134H44.7388V161.277H44.0001Z" fill="#2E2D2C"/>
<path d="M43.4922 159.94C43.3421 159.94 43.2036 159.916 43.0882 159.857C42.9728 159.798 42.892 159.715 42.8343 159.609C42.7766 159.502 42.742 159.372 42.742 159.207V157.693C42.742 157.539 42.7766 157.397 42.8343 157.29C42.892 157.184 42.9728 157.101 43.0882 157.042C43.2036 156.983 43.3306 156.959 43.4922 156.959C43.6538 156.959 43.7807 156.983 43.8962 157.042C44 157.101 44.0924 157.184 44.1501 157.29C44.2078 157.397 44.2424 157.539 44.2424 157.693V159.207C44.2424 159.36 44.2078 159.502 44.1501 159.609C44.0924 159.715 44.0116 159.798 43.8962 159.857C43.7807 159.916 43.6538 159.94 43.4922 159.94ZM43.4922 159.621C43.6192 159.621 43.7115 159.585 43.7807 159.514C43.85 159.443 43.8846 159.349 43.8846 159.23V157.693C43.8846 157.563 43.85 157.468 43.7807 157.397C43.7115 157.326 43.6192 157.29 43.4922 157.29C43.3652 157.29 43.2729 157.326 43.2036 157.397C43.1344 157.468 43.0998 157.563 43.0998 157.693V159.23C43.0998 159.349 43.1344 159.455 43.2036 159.514C43.2729 159.573 43.3652 159.621 43.4922 159.621Z" fill="#3C3C3B"/>
<path d="M44.6003 159.916V156.995H44.9465V159.916H44.6003ZM44.8657 159.266V158.651L45.7314 156.983H46.1122L44.8657 159.254V159.266ZM45.8122 159.916L45.2466 158.355L45.4774 158.059L46.2161 159.916H45.8237H45.8122Z" fill="#3C3C3B"/>
<path d="M43.7116 167.143V166.859L44.4272 165.653C44.5079 165.511 44.5772 165.369 44.6234 165.239C44.6695 165.109 44.6926 164.991 44.6926 164.896C44.6926 164.766 44.6695 164.671 44.6118 164.612C44.5541 164.553 44.4849 164.517 44.3925 164.517C44.2771 164.517 44.1963 164.565 44.1386 164.648C44.0809 164.73 44.0463 164.86 44.0463 165.026H43.6885C43.6885 164.754 43.7462 164.541 43.8616 164.399C43.977 164.257 44.1501 164.186 44.3579 164.186C44.5657 164.186 44.7503 164.245 44.8657 164.364C44.9812 164.482 45.0389 164.659 45.0389 164.884C45.0389 165.002 45.0158 165.132 44.9696 165.286C44.9235 165.44 44.8542 165.594 44.7619 165.759L44.1386 166.824H45.0389V167.143H43.7116Z" fill="#3C3C3B"/>
<path d="M20.1279 113.101V106.785H20.8666V113.101H20.1279ZM20.5896 113.101V112.415H21.8938C22.0785 112.415 22.2285 112.356 22.3209 112.238C22.4247 112.119 22.4709 111.942 22.4709 111.729V110.724C22.4709 110.499 22.4247 110.321 22.3209 110.191C22.217 110.073 22.0785 110.002 21.8938 110.002H20.5896V109.316H21.8592C22.1477 109.316 22.3901 109.375 22.5979 109.482C22.8056 109.588 22.9557 109.754 23.0595 109.955C23.1634 110.156 23.2211 110.416 23.2211 110.7V111.729C23.2211 112.013 23.1634 112.261 23.0595 112.462C22.9557 112.663 22.7941 112.817 22.5979 112.924C22.3901 113.03 22.1477 113.077 21.8707 113.077H20.6011L20.5896 113.101ZM20.6935 107.471V106.785H22.8402V107.471H20.6935Z" fill="#3C3C3B"/>
<path d="M23.7289 113.137V112.463C23.8559 112.463 23.9598 112.427 24.0175 112.344C24.0752 112.261 24.1214 112.143 24.1214 111.989V108.583H24.86V112.049C24.86 112.403 24.7677 112.675 24.5946 112.853C24.4215 113.03 24.156 113.125 23.8213 113.125H23.7289V113.137ZM24.6869 109.269V108.583H26.222V109.269H24.6869ZM25.8988 113.101V108.595H26.6375V113.101H25.8988Z" fill="#3C3C3B"/>
<path d="M28.842 113.16C28.4265 113.16 28.1033 113.042 27.8725 112.817C27.6416 112.592 27.5262 112.261 27.5262 111.847V109.801C27.5262 109.387 27.6416 109.068 27.8725 108.843C28.1033 108.618 28.4265 108.512 28.842 108.512C29.2575 108.512 29.5807 108.618 29.8115 108.843C30.0423 109.068 30.1577 109.387 30.1577 109.801V111.859C30.1577 112.273 30.0423 112.592 29.8115 112.817C29.5807 113.042 29.2575 113.16 28.842 113.16ZM28.8304 112.462C29.0151 112.462 29.1536 112.403 29.2575 112.297C29.3614 112.19 29.4075 112.037 29.4075 111.835V109.801C29.4075 109.612 29.3614 109.458 29.2575 109.352C29.1536 109.245 29.0151 109.186 28.8304 109.186C28.6458 109.186 28.5073 109.245 28.4034 109.352C28.2995 109.458 28.2533 109.612 28.2533 109.801V111.835C28.2533 112.037 28.2995 112.19 28.4034 112.297C28.5073 112.403 28.6458 112.462 28.8304 112.462Z" fill="#3C3C3B"/>
<path d="M31.0349 113.101V108.595H31.7736V113.101H31.0349ZM31.4735 111.197V110.523H33.0201V111.197H31.4735ZM33.2856 113.101L32.3853 111.114L32.9509 110.641L34.082 113.101H33.2856ZM32.9394 111.138L32.3969 110.629L33.1586 108.583H33.9204L32.9394 111.126V111.138Z" fill="#3C3C3B"/>
<path d="M36.3442 114.934V108.595H37.0829V114.934H36.3442ZM37.9947 113.16C37.7638 113.16 37.5561 113.089 37.383 112.959C37.2098 112.829 37.0829 112.64 37.0252 112.391L37.0829 111.705C37.0829 111.871 37.106 112.025 37.1637 112.143C37.2098 112.261 37.2906 112.356 37.383 112.427C37.4753 112.498 37.5907 112.521 37.7292 112.521C37.937 112.521 38.0986 112.451 38.214 112.309C38.3294 112.167 38.3871 111.954 38.3871 111.694V109.978C38.3871 109.718 38.3294 109.517 38.214 109.375C38.0986 109.233 37.937 109.162 37.7292 109.162C37.5907 109.162 37.4753 109.198 37.383 109.257C37.2906 109.316 37.2098 109.411 37.1637 109.529C37.1175 109.647 37.0829 109.789 37.0829 109.967L36.9905 109.352C37.0829 109.08 37.2214 108.878 37.4176 108.737C37.6138 108.595 37.81 108.524 38.0409 108.524C38.3756 108.524 38.641 108.654 38.8257 108.902C39.0104 109.151 39.1027 109.505 39.1027 109.967V111.705C39.1027 112.167 39.0104 112.533 38.8142 112.794C38.6179 113.054 38.3525 113.184 37.9947 113.184V113.16Z" fill="#3C3C3B"/>
<path d="M41.2957 113.16C40.8571 113.16 40.5109 113.03 40.2685 112.77C40.0261 112.51 39.8992 112.143 39.8992 111.67V110.109C39.8992 109.6 40.0146 109.21 40.257 108.938C40.4993 108.666 40.834 108.524 41.2611 108.524C41.6881 108.524 42.0344 108.654 42.2768 108.902C42.5192 109.162 42.6346 109.517 42.6346 109.99V111.138H40.3955V110.511H41.919V110.002C41.919 109.742 41.8613 109.541 41.7459 109.399C41.6304 109.257 41.4689 109.186 41.2611 109.186C41.0533 109.186 40.9033 109.257 40.7879 109.411C40.6725 109.564 40.6148 109.777 40.6148 110.049V111.682C40.6148 111.93 40.6725 112.131 40.7879 112.273C40.9033 112.415 41.0764 112.486 41.2842 112.486C41.4804 112.486 41.642 112.427 41.7574 112.32C41.8728 112.214 41.919 112.06 41.919 111.859V111.824H42.6346V111.859C42.6346 112.273 42.5192 112.592 42.2768 112.817C42.0459 113.042 41.7112 113.16 41.2842 113.16H41.2957Z" fill="#3C3C3B"/>
<path d="M42.9924 113.137V112.463C43.1193 112.463 43.2232 112.427 43.2809 112.344C43.3386 112.261 43.3848 112.143 43.3848 111.989V108.583H44.1235V112.049C44.1235 112.403 44.0311 112.675 43.858 112.853C43.6849 113.03 43.4194 113.125 43.0847 113.125H42.9924V113.137ZM43.9503 109.269V108.583H45.4854V109.269H43.9503ZM45.1738 113.101V108.595H45.9125V113.101H45.1738Z" fill="#3C3C3B"/>
<path d="M48.1862 113.16C47.7476 113.16 47.4014 113.03 47.159 112.77C46.9166 112.51 46.7897 112.143 46.7897 111.67V110.109C46.7897 109.6 46.9051 109.21 47.1475 108.938C47.3898 108.666 47.7246 108.524 48.1516 108.524C48.5786 108.524 48.9249 108.654 49.1673 108.902C49.4097 109.162 49.5251 109.517 49.5251 109.99V111.138H47.286V110.511H48.8095V110.002C48.8095 109.742 48.7518 109.541 48.6364 109.399C48.5209 109.257 48.3594 109.186 48.1516 109.186C47.9438 109.186 47.7938 109.257 47.6784 109.411C47.563 109.564 47.5053 109.777 47.5053 110.049V111.682C47.5053 111.93 47.563 112.131 47.6784 112.273C47.7938 112.415 47.9669 112.486 48.1747 112.486C48.3709 112.486 48.5325 112.427 48.6479 112.32C48.7633 112.214 48.8095 112.06 48.8095 111.859V111.824H49.5251V111.859C49.5251 112.273 49.4097 112.592 49.1673 112.817C48.9364 113.042 48.6017 113.16 48.1747 113.16H48.1862Z" fill="#3C3C3B"/>
<path d="M52.2374 113.101V108.595H52.976V113.101H52.2374ZM52.7452 111.221V110.546H54.5688V111.221H52.7452ZM54.1418 113.101V108.595H54.8805V113.101H54.1418Z" fill="#3C3C3B"/>
<path d="M56.9465 113.16C56.5656 113.16 56.2655 113.054 56.0693 112.841C55.8731 112.628 55.7807 112.32 55.7807 111.895C55.7807 111.386 55.8961 111.008 56.1385 110.759C56.3694 110.511 56.7272 110.381 57.2004 110.381H57.9044L57.9621 110.972H57.2004C56.958 110.972 56.7733 111.043 56.6579 111.197C56.5425 111.351 56.4732 111.575 56.4732 111.883C56.4732 112.108 56.531 112.273 56.6348 112.38C56.7387 112.486 56.9003 112.545 57.1196 112.545C57.362 112.545 57.5466 112.474 57.6736 112.344C57.8006 112.214 57.8583 112.013 57.8583 111.753L57.9506 112.143C57.9506 112.368 57.9044 112.545 57.8352 112.699C57.7659 112.853 57.6505 112.959 57.5005 113.03C57.3504 113.101 57.1658 113.137 56.9465 113.137V113.16ZM57.8698 113.101V109.801C57.8698 109.588 57.8121 109.423 57.6967 109.316C57.5813 109.21 57.4081 109.139 57.2004 109.139C57.0157 109.139 56.8657 109.198 56.7618 109.316C56.6579 109.434 56.6002 109.6 56.6117 109.813H55.8961C55.8961 109.399 56.0116 109.08 56.2424 108.855C56.4732 108.63 56.808 108.524 57.2235 108.524C57.639 108.524 57.9852 108.63 58.2276 108.855C58.47 109.08 58.5854 109.399 58.5854 109.801V113.101H57.8814H57.8698Z" fill="#3C3C3B"/>
<path d="M16.0882 123.77V123.084H19.4469V123.77H16.0882ZM16.0882 124.894V123.084H16.8269V124.894H16.0882ZM16.2152 123.605V123.084H16.319C16.4229 123.084 16.5037 123.049 16.5845 122.966C16.6537 122.883 16.7115 122.765 16.7461 122.611C16.7807 122.457 16.8038 122.268 16.8038 122.055V119.252H17.5425V122.173C17.5425 122.658 17.4386 123.013 17.2424 123.25C17.0462 123.486 16.7692 123.605 16.4114 123.605H16.2152ZM17.2886 119.938V119.252H18.8121V119.938H17.2886ZM18.5582 123.77V119.264H19.2968V123.77H18.5582ZM19.193 124.894V123.084H19.9316V124.894H19.193Z" fill="#3C3C3B"/>
<path d="M20.5434 123.77V119.264H21.282V123.77H20.5434ZM21.0743 123.77V123.084H22.1477C22.2515 123.084 22.3439 123.049 22.3901 122.989C22.4362 122.93 22.4708 122.836 22.4708 122.706V122.232C22.4708 122.079 22.4247 121.949 22.3323 121.866C22.24 121.783 22.113 121.736 21.963 121.736H21.0743V121.05H21.963C22.2515 121.05 22.3901 120.908 22.3901 120.624V120.222C22.3901 120.032 22.2862 119.938 22.0669 119.938H21.0743V119.252H22.1477C22.4593 119.252 22.7017 119.323 22.8748 119.477C23.0479 119.63 23.1287 119.843 23.1287 120.127V120.648C23.1287 120.849 23.071 121.014 22.9671 121.144C22.8633 121.274 22.7017 121.357 22.517 121.393C22.7363 121.428 22.9094 121.511 23.0364 121.653C23.1634 121.795 23.2211 121.984 23.2211 122.209V122.788C23.2211 123.096 23.1287 123.332 22.9556 123.498C22.7709 123.664 22.517 123.746 22.1938 123.746H21.0858L21.0743 123.77Z" fill="#3C3C3B"/>
<path d="M25.1025 123.829C24.7216 123.829 24.4215 123.723 24.2253 123.51C24.0291 123.297 23.9367 122.989 23.9367 122.563C23.9367 122.055 24.0521 121.676 24.2945 121.428C24.5254 121.18 24.8832 121.049 25.3564 121.049H26.0604L26.1181 121.641H25.3564C25.114 121.641 24.9293 121.712 24.8139 121.866C24.6985 122.019 24.6292 122.244 24.6292 122.552C24.6292 122.776 24.6869 122.942 24.7908 123.048C24.8947 123.155 25.0563 123.214 25.2756 123.214C25.518 123.214 25.7026 123.143 25.8296 123.013C25.9566 122.883 26.0143 122.682 26.0143 122.422L26.1066 122.812C26.1066 123.037 26.0604 123.214 25.9912 123.368C25.9219 123.522 25.8065 123.628 25.6565 123.699C25.5064 123.77 25.3217 123.805 25.1025 123.805V123.829ZM26.0143 123.77V120.47C26.0143 120.257 25.9566 120.091 25.8411 119.985C25.7257 119.879 25.5526 119.808 25.3448 119.808C25.1602 119.808 25.0101 119.867 24.9062 119.985C24.8024 120.103 24.7447 120.269 24.7562 120.482H24.0406C24.0406 120.068 24.156 119.748 24.3869 119.524C24.6177 119.299 24.9524 119.192 25.3679 119.192C25.7834 119.192 26.1297 119.299 26.3721 119.524C26.6144 119.748 26.7299 120.068 26.7299 120.47V123.77H26.0258H26.0143Z" fill="#3C3C3B"/>
<path d="M29.5114 123.77V119.264H30.2501V123.77H29.5114ZM30.0424 123.77V123.084H31.1158C31.2196 123.084 31.312 123.049 31.3581 122.989C31.4043 122.93 31.4389 122.836 31.4389 122.706V122.232C31.4389 122.079 31.3928 121.949 31.3004 121.866C31.2081 121.783 31.0811 121.736 30.9311 121.736H30.0424V121.05H30.9311C31.2196 121.05 31.3581 120.908 31.3581 120.624V120.222C31.3581 120.032 31.2543 119.938 31.035 119.938H30.0424V119.252H31.1158C31.4274 119.252 31.6698 119.323 31.8429 119.477C32.016 119.63 32.0968 119.843 32.0968 120.127V120.648C32.0968 120.849 32.0391 121.014 31.9352 121.144C31.8314 121.274 31.6698 121.357 31.4851 121.393C31.7044 121.428 31.8775 121.511 32.0045 121.653C32.1315 121.795 32.1892 121.984 32.1892 122.209V122.788C32.1892 123.096 32.0968 123.332 31.9237 123.498C31.739 123.664 31.4851 123.746 31.1619 123.746H30.0539L30.0424 123.77Z" fill="#3C3C3B"/>
<path d="M32.974 123.77V119.264H33.7127V123.77H32.974ZM33.4241 123.77V123.084H34.2436C34.4398 123.084 34.5899 123.025 34.6937 122.918C34.7976 122.812 34.8553 122.658 34.8553 122.457V122.114C34.8553 121.913 34.7976 121.759 34.6937 121.641C34.5899 121.523 34.4398 121.475 34.2436 121.475H33.4241V120.789H34.3937C34.7745 120.789 35.0746 120.896 35.2824 121.109C35.4901 121.322 35.594 121.617 35.594 121.996V122.564C35.594 122.942 35.4786 123.238 35.2593 123.451C35.04 123.664 34.7168 123.77 34.3013 123.77H33.4241ZM36.0326 123.77V119.264H36.7713V123.77H36.0326Z" fill="#3C3C3B"/>
<path d="M37.2906 123.77L38.6757 121.322L39.0219 121.96L38.0986 123.782H37.2906V123.77ZM39.7722 123.77L38.6757 121.724L37.3599 119.264H38.1678L39.1143 121.286L40.5801 123.77H39.7722ZM39.1835 121.653L38.8719 121.061L39.7029 119.264H40.5108L39.1951 121.665L39.1835 121.653Z" fill="#3C3C3B"/>
<path d="M42.2767 123.829C41.8612 123.829 41.5381 123.711 41.3072 123.486C41.0764 123.261 40.961 122.93 40.961 122.516V120.47C40.961 120.056 41.0764 119.737 41.3072 119.512C41.5381 119.287 41.8612 119.181 42.2767 119.181C42.6922 119.181 43.0154 119.287 43.2463 119.512C43.4771 119.737 43.5925 120.056 43.5925 120.47V122.528C43.5925 122.942 43.4771 123.261 43.2463 123.486C43.0154 123.711 42.6922 123.829 42.2767 123.829ZM42.2652 123.131C42.4499 123.131 42.5884 123.072 42.6923 122.966C42.7961 122.859 42.8423 122.705 42.8423 122.504V120.47C42.8423 120.281 42.7961 120.127 42.6923 120.02C42.5884 119.914 42.4499 119.855 42.2652 119.855C42.0805 119.855 41.942 119.914 41.8381 120.02C41.7343 120.127 41.6881 120.281 41.6881 120.47V122.504C41.6881 122.705 41.7343 122.859 41.8381 122.966C41.942 123.072 42.0805 123.131 42.2652 123.131Z" fill="#3C3C3B"/>
<path d="M43.8811 123.77V123.084H47.2397V123.77H43.8811ZM43.8811 124.894V123.084H44.6197V124.894H43.8811ZM44.008 123.605V123.084H44.1119C44.2158 123.084 44.3081 123.049 44.3774 122.966C44.4466 122.883 44.5043 122.765 44.5389 122.611C44.5736 122.457 44.5967 122.268 44.5967 122.055V119.252H45.3238V122.173C45.3238 122.658 45.2199 123.013 45.0237 123.25C44.8275 123.486 44.5505 123.605 44.1927 123.605H43.9965H44.008ZM45.093 119.938V119.252H46.6165V119.938H45.093ZM46.351 123.77V119.264H47.0897V123.77H46.351ZM46.9974 124.894V123.084H47.736V124.894H46.9974Z" fill="#3C3C3B"/>
<path d="M49.4328 123.829C49.0519 123.829 48.7518 123.723 48.5556 123.51C48.3594 123.297 48.267 122.989 48.267 122.563C48.267 122.055 48.3824 121.676 48.6248 121.428C48.8557 121.18 49.2135 121.049 49.6867 121.049H50.3907L50.4484 121.641H49.6867C49.4443 121.641 49.2596 121.712 49.1442 121.866C49.0288 122.019 48.9595 122.244 48.9595 122.552C48.9595 122.776 49.0173 122.942 49.1211 123.048C49.225 123.155 49.3866 123.214 49.6059 123.214C49.8483 123.214 50.0329 123.143 50.1599 123.013C50.2869 122.883 50.3446 122.682 50.3446 122.422L50.4369 122.812C50.4369 123.037 50.3907 123.214 50.3215 123.368C50.2522 123.522 50.1368 123.628 49.9868 123.699C49.8367 123.77 49.6521 123.805 49.4328 123.805V123.829ZM50.3561 123.77V120.47C50.3561 120.257 50.2984 120.091 50.183 119.985C50.0676 119.879 49.8944 119.808 49.6867 119.808C49.502 119.808 49.352 119.867 49.2481 119.985C49.1442 120.103 49.0865 120.269 49.098 120.482H48.3825C48.3825 120.068 48.4979 119.748 48.7287 119.524C48.9595 119.299 49.2943 119.192 49.7098 119.192C50.1253 119.192 50.4715 119.299 50.7139 119.524C50.9563 119.748 51.0717 120.068 51.0717 120.47V123.77H50.3677H50.3561Z" fill="#3C3C3B"/>
<path d="M53.4839 123.77V123.084H56.8426V123.77H53.4839ZM53.4839 124.894V123.084H54.2226V124.894H53.4839ZM53.6109 123.605V123.084H53.7148C53.8186 123.084 53.911 123.049 53.9802 122.966C54.0495 122.883 54.1072 122.765 54.1418 122.611C54.1764 122.457 54.1995 122.268 54.1995 122.055V119.252H54.9267V122.173C54.9267 122.658 54.8228 123.013 54.6266 123.25C54.4304 123.486 54.1533 123.605 53.7955 123.605H53.5993H53.6109ZM54.6843 119.938V119.252H56.2078V119.938H54.6843ZM55.9423 123.77V119.264H56.681V123.77H55.9423ZM56.5887 124.894V123.084H57.3274V124.894H56.5887Z" fill="#3C3C3B"/>
<path d="M57.6274 123.806V123.131C57.7544 123.131 57.8583 123.096 57.916 123.013C57.9737 122.93 58.0199 122.812 58.0199 122.658V119.252H58.7585V122.717C58.7585 123.072 58.6662 123.344 58.4931 123.522C58.32 123.699 58.0545 123.794 57.7198 123.794H57.6274V123.806ZM58.5739 119.938V119.252H60.1089V119.938H58.5739ZM59.7973 123.77V119.264H60.536V123.77H59.7973Z" fill="#3C3C3B"/>
<path d="M63.7216 122.268H62.5674C62.1865 122.268 61.8864 122.161 61.6787 121.949C61.4709 121.736 61.367 121.44 61.367 121.061V120.458C61.367 120.08 61.4824 119.784 61.7017 119.571C61.9326 119.358 62.2442 119.252 62.6597 119.252H63.7216V119.938H62.7174C62.5212 119.938 62.3712 119.997 62.2673 120.103C62.1634 120.21 62.1057 120.364 62.1057 120.565V120.943C62.1057 121.144 62.1634 121.298 62.2673 121.404C62.3712 121.511 62.5212 121.57 62.7174 121.57H63.7216V122.256V122.268ZM62.2096 123.77H61.4247L62.2557 121.83L62.9598 122.031L62.2211 123.77H62.2096ZM64.114 123.77H63.3753V119.264H64.114V123.77Z" fill="#3C3C3B"/>
<path d="M18.0849 132.404L19.47 128.123H20.1509V134.439H19.4584V129.507L19.5161 129.779L18.3504 133.469H17.8079L16.6422 129.861L16.7114 129.495V134.427H16.0074V128.111H16.6999L18.0734 132.393L18.0849 132.404Z" fill="#3C3C3B"/>
<path d="M22.217 134.758L20.7743 129.932H21.5245L22.5402 133.8L22.217 134.758ZM23.1519 129.932H23.9021L22.4594 135.492C22.3901 135.764 22.2401 135.977 22.0323 136.107C21.813 136.249 21.5245 136.308 21.1436 136.308H21.0628V135.622H21.1436C21.3744 135.622 21.5591 135.574 21.6745 135.468C21.8015 135.362 21.8823 135.208 21.94 135.007L23.1634 129.921L23.1519 129.932Z" fill="#3C3C3B"/>
<path d="M24.433 134.439V128.123H25.1717V134.439H24.433ZM24.9986 131.671V130.985H26.9722V131.671H24.9986ZM26.649 134.439V128.123H27.3877V134.439H26.649Z" fill="#3C3C3B"/>
<path d="M29.6268 134.498C29.1882 134.498 28.842 134.368 28.5996 134.108C28.3572 133.847 28.2303 133.481 28.2303 133.008V131.446C28.2303 130.938 28.3457 130.547 28.5881 130.275C28.8304 130.003 29.1652 129.861 29.5922 129.861C30.0193 129.861 30.3655 129.991 30.6079 130.24C30.8503 130.5 30.9657 130.855 30.9657 131.328V132.475H28.7266V131.848H30.2501V131.34C30.2501 131.08 30.1924 130.879 30.077 130.737C29.9616 130.595 29.8 130.524 29.5922 130.524C29.3845 130.524 29.2344 130.595 29.119 130.748C29.0036 130.902 28.9459 131.115 28.9459 131.387V133.019C28.9459 133.268 29.0036 133.469 29.119 133.611C29.2344 133.753 29.4075 133.824 29.6153 133.824C29.8115 133.824 29.9731 133.765 30.0885 133.658C30.2039 133.552 30.2501 133.398 30.2501 133.197V133.161H30.9657V133.197C30.9657 133.611 30.8503 133.93 30.6079 134.155C30.3771 134.38 30.0423 134.498 29.6153 134.498H29.6268Z" fill="#3C3C3B"/>
<path d="M32.9624 134.498C32.5815 134.498 32.2814 134.392 32.0852 134.179C31.889 133.966 31.7967 133.658 31.7967 133.232C31.7967 132.724 31.9121 132.345 32.1545 132.097C32.3968 131.848 32.7431 131.718 33.2163 131.718H33.9204L33.9781 132.31H33.2163C32.9739 132.31 32.7893 132.381 32.6738 132.535C32.5584 132.688 32.4892 132.913 32.4892 133.221C32.4892 133.445 32.5469 133.611 32.6508 133.717C32.7546 133.824 32.9162 133.883 33.1355 133.883C33.3779 133.883 33.5626 133.812 33.6895 133.682C33.8165 133.552 33.8742 133.351 33.8742 133.09L33.9665 133.481C33.9665 133.705 33.9204 133.883 33.8511 134.037C33.7819 134.179 33.6664 134.297 33.5164 134.368C33.3664 134.439 33.1817 134.474 32.9624 134.474V134.498ZM33.8742 134.439V131.139C33.8742 130.926 33.8165 130.76 33.7011 130.654C33.5857 130.536 33.4125 130.476 33.2048 130.476C33.0201 130.476 32.8701 130.536 32.7662 130.654C32.6623 130.772 32.6046 130.938 32.6161 131.151H31.9005C31.9005 130.737 32.016 130.417 32.2468 130.193C32.4776 129.968 32.8123 129.861 33.2279 129.861C33.6434 129.861 33.9896 129.968 34.232 130.193C34.4744 130.417 34.5898 130.737 34.5898 131.139V134.439H33.8857H33.8742Z" fill="#3C3C3B"/>
<path d="M35.2016 130.607V129.921H37.1752V130.607H35.2016ZM36.7366 134.463C36.3558 134.463 36.0903 134.356 35.9172 134.155C35.744 133.954 35.6632 133.658 35.6632 133.268V128.62H36.4019V133.268C36.4019 133.434 36.4366 133.552 36.5058 133.646C36.5751 133.729 36.6905 133.777 36.829 133.777H37.1752V134.463H36.7366Z" fill="#3C3C3B"/>
<path d="M41.2265 134.498C40.8802 134.498 40.5916 134.439 40.3608 134.332C40.13 134.226 39.9568 134.06 39.8299 133.836C39.7145 133.611 39.6568 133.339 39.6568 133.02V132.712H40.3839V133.008C40.3839 133.28 40.4531 133.469 40.5916 133.611C40.7302 133.753 40.9379 133.812 41.2149 133.812C41.4919 133.812 41.6766 133.741 41.8151 133.611C41.9536 133.469 42.0228 133.28 42.0228 133.008V132.546C42.0228 132.345 41.9767 132.192 41.8843 132.061C41.792 131.931 41.665 131.825 41.515 131.742C41.365 131.659 41.2034 131.565 41.0302 131.494C40.8687 131.423 40.7071 131.34 40.5455 131.245C40.3839 131.163 40.2338 131.056 40.1069 130.938C39.9684 130.819 39.8645 130.678 39.7837 130.5C39.7029 130.323 39.6568 130.11 39.6568 129.861V129.518C39.6568 129.033 39.7837 128.679 40.0492 128.43C40.3146 128.182 40.6955 128.064 41.2034 128.064C41.7112 128.064 42.0805 128.194 42.3345 128.442C42.5884 128.69 42.7154 129.057 42.7154 129.542V129.873H41.9882V129.566C41.9882 129.294 41.919 129.104 41.792 128.963C41.665 128.832 41.4688 128.761 41.2034 128.761C40.9379 128.761 40.7302 128.821 40.5916 128.951C40.4531 129.081 40.3839 129.27 40.3839 129.518V129.873C40.3839 130.074 40.4416 130.24 40.5455 130.37C40.6494 130.5 40.7879 130.607 40.961 130.689C41.1341 130.772 41.3072 130.867 41.4919 130.95C41.642 131.021 41.792 131.092 41.942 131.174C42.0921 131.257 42.2306 131.352 42.346 131.47C42.473 131.588 42.5653 131.73 42.6346 131.896C42.7038 132.061 42.7384 132.286 42.7384 132.535V133.02C42.7384 133.504 42.6115 133.871 42.346 134.12C42.0806 134.368 41.6997 134.498 41.1918 134.498H41.2265Z" fill="#3C3C3B"/>
<path d="M43.6502 134.439V129.932H44.3889V134.439H43.6502ZM45.6239 134.439V131.281C45.6239 131.032 45.5777 130.843 45.4854 130.713C45.393 130.595 45.243 130.524 45.0468 130.524C44.8275 130.524 44.6659 130.595 44.5505 130.725C44.4351 130.855 44.3889 131.056 44.3889 131.34L44.2966 130.689C44.4004 130.405 44.5505 130.193 44.7352 130.062C44.9198 129.921 45.1276 129.861 45.37 129.861C45.7047 129.861 45.9586 129.968 46.1202 130.193C46.2933 130.417 46.3741 130.737 46.3741 131.174V134.451H45.6354L45.6239 134.439ZM47.6091 134.439V131.281C47.6091 131.032 47.5514 130.843 47.4475 130.713C47.3436 130.595 47.1705 130.524 46.9512 130.524C46.755 130.524 46.6049 130.595 46.5126 130.725C46.4203 130.855 46.3741 131.068 46.3741 131.34L46.2241 130.748C46.3164 130.453 46.4549 130.228 46.6396 130.074C46.8242 129.921 47.032 129.85 47.2744 129.85C47.6322 129.85 47.9092 129.956 48.0823 130.181C48.267 130.405 48.3593 130.725 48.3593 131.162V134.439H47.6206H47.6091Z" fill="#3C3C3B"/>
<path d="M50.4138 134.498C50.0329 134.498 49.7328 134.392 49.5366 134.179C49.3404 133.966 49.248 133.658 49.248 133.232C49.248 132.724 49.3634 132.345 49.6058 132.097C49.8482 131.848 50.1945 131.718 50.6677 131.718H51.3717L51.4294 132.31H50.6677C50.4253 132.31 50.2406 132.381 50.1252 132.535C50.0098 132.688 49.9405 132.913 49.9405 133.221C49.9405 133.445 49.9983 133.611 50.1021 133.717C50.206 133.824 50.3676 133.883 50.5869 133.883C50.8293 133.883 51.0139 133.812 51.1409 133.682C51.2679 133.552 51.3256 133.351 51.3256 133.09L51.4179 133.481C51.4179 133.705 51.3717 133.883 51.3025 134.037C51.2332 134.179 51.1178 134.297 50.9678 134.368C50.8177 134.439 50.6331 134.474 50.4138 134.474V134.498ZM51.3371 134.439V131.139C51.3371 130.926 51.2794 130.76 51.164 130.654C51.0486 130.536 50.8754 130.476 50.6677 130.476C50.483 130.476 50.333 130.536 50.2291 130.654C50.1252 130.772 50.0675 130.938 50.079 131.151H49.3634C49.3634 130.737 49.4789 130.417 49.7097 130.193C49.9405 129.968 50.2753 129.861 50.6908 129.861C51.1063 129.861 51.4525 129.968 51.6949 130.193C51.9373 130.417 52.0527 130.737 52.0527 131.139V134.439H51.3487H51.3371Z" fill="#3C3C3B"/>
<path d="M53.0107 134.439V129.932H53.7494V134.439H53.0107ZM55.0998 130.559H55.0075C54.6266 130.559 54.3149 130.654 54.0957 130.831C53.8764 131.009 53.7494 131.269 53.7379 131.588L53.6455 130.713C53.8071 130.441 54.0149 130.228 54.2572 130.074C54.5112 129.921 54.7882 129.85 55.0998 129.85V130.547V130.559Z" fill="#3C3C3B"/>
<path d="M55.4807 130.607V129.921H57.4543V130.607H55.4807ZM57.0273 134.463C56.6464 134.463 56.3809 134.356 56.2078 134.155C56.0347 133.954 55.9539 133.658 55.9539 133.268V128.62H56.6926V133.268C56.6926 133.434 56.7272 133.552 56.7964 133.646C56.8657 133.729 56.9696 133.777 57.1196 133.777H57.4543V134.463H57.0157H57.0273Z" fill="#3C3C3B"/>
<path d="M59.9358 134.439V133.836L61.4709 131.222C61.6556 130.902 61.7941 130.607 61.898 130.323C62.0018 130.039 62.048 129.791 62.048 129.578C62.048 129.306 61.9903 129.104 61.8864 128.963C61.7825 128.821 61.621 128.75 61.4132 128.75C61.1708 128.75 60.9861 128.844 60.8592 129.034C60.7322 129.223 60.663 129.495 60.663 129.85H59.9012C59.9012 129.258 60.0282 128.809 60.2821 128.501C60.536 128.194 60.8938 128.04 61.367 128.04C61.8403 128.04 62.198 128.17 62.452 128.43C62.7059 128.691 62.8213 129.069 62.8213 129.554C62.8213 129.814 62.7751 130.098 62.6713 130.429C62.5674 130.749 62.4173 131.092 62.2096 131.446L60.8592 133.741H62.8098V134.427H59.9358V134.439Z" fill="#3C3C3B"/>
<path d="M23.0074 46.3169V43.5018H23.3421V46.3169H23.0074ZM23.2151 45.2169V44.9094H23.7922C23.873 44.9094 23.9423 44.8857 23.9884 44.8266C24.0346 44.7674 24.0577 44.6965 24.0577 44.6018V44.1169C24.0577 44.0104 24.0346 43.9395 23.9884 43.8803C23.9423 43.8212 23.873 43.7975 23.7922 43.7975H23.2151V43.49H23.7807C23.9077 43.49 24.0231 43.5137 24.1154 43.561C24.2077 43.6083 24.277 43.6792 24.3232 43.7739C24.3693 43.8685 24.3924 43.975 24.3924 44.1051V44.6137C24.3924 44.7438 24.3693 44.8502 24.3232 44.9448C24.277 45.0395 24.2077 45.1104 24.1154 45.1578C24.0231 45.2051 23.9192 45.2287 23.7922 45.2287H23.2267L23.2151 45.2169Z" fill="#3C3C3B"/>
<path d="M25.2003 46.3405C25.0041 46.3405 24.854 46.2814 24.7386 46.1631C24.6232 46.0448 24.577 45.8792 24.577 45.6663V44.9685C24.577 44.7438 24.6348 44.5663 24.7386 44.448C24.8425 44.3298 24.9926 44.2588 25.1888 44.2588C25.385 44.2588 25.535 44.3179 25.6389 44.4244C25.7428 44.5427 25.8005 44.6964 25.8005 44.9093V45.4179H24.7963V45.1341H25.4773V44.9093C25.4773 44.7911 25.4542 44.6964 25.3965 44.6373C25.3388 44.5782 25.2696 44.5427 25.1772 44.5427C25.0849 44.5427 25.0156 44.5782 24.9695 44.6491C24.9233 44.7201 24.9002 44.8147 24.9002 44.933V45.6663C24.9002 45.7728 24.9233 45.8674 24.981 45.9266C25.0387 45.9857 25.108 46.0212 25.2003 46.0212C25.2926 46.0212 25.3619 45.9975 25.4081 45.9502C25.4542 45.9029 25.4773 45.8319 25.4773 45.7491H25.8005C25.8005 45.9502 25.7428 46.0921 25.6389 46.1868C25.535 46.2814 25.385 46.3405 25.1888 46.3405H25.2003Z" fill="#3C3C3B"/>
<path d="M25.962 46.3286V46.0329C26.0197 46.0329 26.0659 46.0093 26.089 45.9738C26.1236 45.9383 26.1352 45.8792 26.1352 45.82V44.2942H26.4699V45.8437C26.4699 45.9974 26.4353 46.1275 26.3545 46.2103C26.2737 46.2931 26.1582 46.3286 26.0082 46.3286H25.9736H25.962ZM26.3891 44.6017V44.2942H27.0701V44.6017H26.3891ZM26.9316 46.3168V44.306H27.2663V46.3168H26.9316Z" fill="#3C3C3B"/>
<path d="M28.282 46.3405C28.0858 46.3405 27.9358 46.2814 27.8204 46.1631C27.7049 46.0448 27.6588 45.8792 27.6588 45.6663V44.9685C27.6588 44.7438 27.7165 44.5663 27.8204 44.448C27.9242 44.3298 28.0743 44.2588 28.2705 44.2588C28.4667 44.2588 28.6167 44.3179 28.7206 44.4244C28.8245 44.5427 28.8822 44.6964 28.8822 44.9093V45.4179H27.8781V45.1341H28.559V44.9093C28.559 44.7911 28.536 44.6964 28.4782 44.6373C28.4205 44.5782 28.3513 44.5427 28.2589 44.5427C28.1666 44.5427 28.0974 44.5782 28.0512 44.6491C28.005 44.7201 27.9819 44.8147 27.9819 44.933V45.6663C27.9819 45.7728 28.005 45.8674 28.0627 45.9266C28.1204 45.9857 28.1897 46.0212 28.282 46.0212C28.3744 46.0212 28.4436 45.9975 28.4898 45.9502C28.5359 45.9029 28.559 45.8319 28.559 45.7491H28.8822C28.8822 45.9502 28.8245 46.0921 28.7206 46.1868C28.6167 46.2814 28.4667 46.3405 28.2705 46.3405H28.282Z" fill="#3C3C3B"/>
<path d="M30.7635 43.49V46.3051H30.4287V43.7975L29.944 44.0932V43.762L30.348 43.49H30.7519H30.7635Z" fill="#3C3C3B"/>
<path d="M63.3375 33.6977C63.291 34.4025 62.7241 34.9644 62.0364 34.9644H62.0085C61.3115 34.9644 60.7539 34.4025 60.7074 33.6977V33.612V32.25H63.3654V33.6977H63.3375Z" fill="#2E2D2C"/>
<path d="M54.6524 33.6977V32.25H51.9944V33.6977C52.0409 34.4025 52.6078 34.9644 53.2955 34.9644H53.3234C54.0205 34.9644 54.5781 34.4025 54.6245 33.6977H54.6524ZM54.2063 33.6691C54.1784 34.1453 53.7974 34.5167 53.3327 34.5167H53.3141C52.8494 34.5167 52.4777 34.1453 52.4405 33.6691V32.6976H54.2063V33.6691Z" fill="#2E2D2C"/>
<path d="M46.0654 33.6977V32.25H43.4074V33.6977C43.4538 34.4025 44.0208 34.9644 44.7085 34.9644H44.7364C45.4334 34.9644 45.991 34.4025 46.0375 33.6977H46.0654ZM45.6193 33.6691C45.5914 34.1453 45.2104 34.5167 44.7457 34.5167H44.7271C44.2624 34.5167 43.8907 34.1453 43.8535 33.6691V32.6976H45.6193V33.6691Z" fill="#2E2D2C"/>
<path d="M53.0887 43.25H53.7171H62.4074V41.25H61.8508V42.3816H53.7171V41.25H53.6453H53.1695H53.0887V42.3816H44.964V41.25H44.4074V43.25H53.0887Z" fill="#2E2D2C"/>
<path d="M43.2074 40.1013V37.2863H43.5075L44.35 39.5218L44.2923 39.5691V37.2744H44.6155V40.0895H44.3154L43.4728 37.8895L43.5306 37.8422V40.1013H43.2074Z" fill="#3C3C3B"/>
<path d="M45.7236 40.1242C45.5735 40.1242 45.4466 40.1006 45.3427 40.0414C45.2388 39.9823 45.158 39.8995 45.1003 39.8049C45.0426 39.6984 45.0195 39.5683 45.0195 39.4145V37.9597C45.0195 37.8059 45.0426 37.6758 45.1003 37.5694C45.158 37.4629 45.2388 37.3801 45.3427 37.3328C45.4466 37.2737 45.5735 37.25 45.7236 37.25C45.8736 37.25 46.0006 37.2737 46.1045 37.3328C46.2083 37.3919 46.2891 37.4629 46.3468 37.5694C46.4045 37.6758 46.4276 37.8059 46.4276 37.9597V39.4145C46.4276 39.5683 46.4045 39.6984 46.3468 39.8049C46.2891 39.9113 46.2083 39.9941 46.1045 40.0414C46.0006 40.0887 45.8736 40.1242 45.7236 40.1242ZM45.7236 39.8049C45.839 39.8049 45.9429 39.7694 46.0006 39.6984C46.0698 39.6274 46.1045 39.5328 46.1045 39.4145V37.9242C46.1045 37.8059 46.0698 37.7113 46.0006 37.6403C45.9313 37.5694 45.839 37.5457 45.7236 37.5457C45.6082 37.5457 45.5043 37.5812 45.435 37.6403C45.3658 37.7113 45.3311 37.8059 45.3311 37.9242V39.4145C45.3311 39.5328 45.3658 39.6274 45.435 39.6984C45.5043 39.7694 45.5966 39.8049 45.7236 39.8049Z" fill="#3C3C3B"/>
<path d="M51.8074 40.1013V37.2863H52.1075L52.95 39.5218L52.8923 39.5691V37.2744H53.2155V40.0895H52.9154L52.0729 37.8895L52.1306 37.8422V40.1013H51.8074Z" fill="#3C3C3B"/>
<path d="M54.2774 40.1242C54.1388 40.1242 54.0119 40.1006 53.9196 40.0414C53.8272 39.9823 53.7464 39.8995 53.6887 39.793C53.631 39.6866 53.6079 39.5565 53.6079 39.4027V37.9715C53.6079 37.8177 53.631 37.6876 53.6887 37.5812C53.7464 37.4747 53.8157 37.3919 53.9196 37.3328C54.0234 37.2737 54.1388 37.25 54.2774 37.25C54.4159 37.25 54.5428 37.2737 54.6352 37.3328C54.739 37.3919 54.8083 37.4747 54.866 37.5812C54.9237 37.6876 54.9468 37.8177 54.9468 37.9715V38.0898H54.6121V37.9715C54.6121 37.8887 54.6005 37.8059 54.5774 37.7468C54.5544 37.6876 54.5082 37.6403 54.462 37.6048C54.4159 37.5694 54.3466 37.5575 54.2774 37.5575C54.1735 37.5575 54.0927 37.593 54.035 37.664C53.9773 37.7349 53.9426 37.8414 53.9426 37.9715V39.4027C53.9426 39.5328 53.9773 39.6274 54.035 39.6984C54.0927 39.7694 54.1735 39.8049 54.2774 39.8049C54.3812 39.8049 54.4736 39.7694 54.5313 39.6984C54.589 39.6274 54.6236 39.5328 54.6236 39.4027V39.2844H54.9583V39.4027C54.9583 39.5565 54.9352 39.6866 54.8775 39.793C54.8198 39.8995 54.7506 39.9823 54.6467 40.0414C54.5428 40.1006 54.4274 40.1242 54.2889 40.1242H54.2774Z" fill="#3C3C3B"/>
<path d="M60.3168 40.2167C60.1783 40.2167 60.0514 40.1931 59.959 40.1339C59.8551 40.0748 59.7859 39.992 59.7282 39.8856C59.6705 39.7791 59.6474 39.649 59.6474 39.4952V38.064C59.6474 37.9103 59.6705 37.7802 59.7282 37.6737C59.7859 37.5673 59.8551 37.4845 59.959 37.4253C60.0629 37.3662 60.1783 37.3425 60.3168 37.3425C60.4553 37.3425 60.5823 37.3662 60.6746 37.4253C60.7785 37.4845 60.8477 37.5673 60.9054 37.6737C60.9516 37.7802 60.9862 37.9103 60.9862 38.064V38.1823H60.6515V38.064C60.6515 37.9812 60.64 37.8984 60.6169 37.8393C60.5938 37.7802 60.5477 37.7329 60.5015 37.6974C60.4553 37.6619 60.3861 37.6501 60.3168 37.6501C60.2129 37.6501 60.1321 37.6855 60.0744 37.7565C60.0167 37.8275 59.9821 37.9339 59.9821 38.064V39.4952C59.9821 39.6253 60.0167 39.72 60.0744 39.7909C60.1321 39.8619 60.2129 39.8974 60.3168 39.8974C60.4207 39.8974 60.5015 39.8619 60.5707 39.7909C60.6284 39.72 60.6515 39.6253 60.6515 39.4952V39.3769H60.9862V39.4952C60.9862 39.649 60.9632 39.7791 60.9054 39.8856C60.8477 39.992 60.7785 40.0748 60.6746 40.1339C60.5707 40.1931 60.4553 40.2167 60.3168 40.2167Z" fill="#3C3C3B"/>
<path d="M61.9673 40.2167C61.8173 40.2167 61.6903 40.1931 61.5864 40.1339C61.4826 40.0748 61.4018 39.992 61.3441 39.8974C61.2863 39.7909 61.2633 39.6608 61.2633 39.5071V38.0522C61.2633 37.8984 61.2863 37.7683 61.3441 37.6619C61.4018 37.5554 61.4826 37.4726 61.5864 37.4253C61.6903 37.3662 61.8173 37.3425 61.9673 37.3425C62.1174 37.3425 62.2443 37.3662 62.3482 37.4253C62.4521 37.4845 62.5329 37.5554 62.5906 37.6619C62.6483 37.7683 62.6714 37.8984 62.6714 38.0522V39.5071C62.6714 39.6608 62.6483 39.7909 62.5906 39.8974C62.5329 40.0038 62.4521 40.0866 62.3482 40.1339C62.2443 40.1813 62.1174 40.2167 61.9673 40.2167ZM61.9673 39.8974C62.0827 39.8974 62.1866 39.8619 62.2443 39.7909C62.302 39.72 62.3482 39.6253 62.3482 39.5071V38.0167C62.3482 37.8984 62.3136 37.8038 62.2443 37.7329C62.1751 37.6619 62.0827 37.6382 61.9673 37.6382C61.8519 37.6382 61.748 37.6737 61.6788 37.7329C61.6095 37.792 61.5749 37.8984 61.5749 38.0167V39.5071C61.5749 39.6253 61.6095 39.72 61.6788 39.7909C61.748 39.8619 61.8404 39.8974 61.9673 39.8974Z" fill="#3C3C3B"/>
<path d="M63.9641 39.2822L64.5873 37.3661H64.8874V40.1812H64.5758V37.9811L64.5989 38.0994L64.0795 39.7554H63.8371L63.3177 38.1467L63.3523 37.9811V40.1812H63.0407V37.3661H63.3523L63.9641 39.2822Z" fill="#3C3C3B"/>
<path d="M37.1375 33.6977C37.091 34.4025 36.5241 34.9644 35.8364 34.9644H35.8085C35.1115 34.9644 34.5539 34.4025 34.5074 33.6977V33.612V32.25H37.1654V33.6977H37.1375Z" fill="#2E2D2C"/>
<path d="M28.4524 33.6977V32.25H25.7944V33.6977C25.8409 34.4025 26.4078 34.9644 27.0955 34.9644H27.1234C27.8205 34.9644 28.3781 34.4025 28.4245 33.6977H28.4524ZM28.0063 33.6691C27.9784 34.1453 27.5974 34.5167 27.1327 34.5167H27.1141C26.6494 34.5167 26.2777 34.1453 26.2405 33.6691V32.6976H28.0063V33.6691Z" fill="#2E2D2C"/>
<path d="M19.8654 33.6977V32.25H17.2074V33.6977C17.2539 34.4025 17.8208 34.9644 18.5085 34.9644H18.5364C19.2334 34.9644 19.791 34.4025 19.8375 33.6977H19.8654ZM19.4193 33.6691C19.3914 34.1453 19.0104 34.5167 18.5457 34.5167H18.5271C18.0624 34.5167 17.6907 34.1453 17.6535 33.6691V32.6976H19.4193V33.6691Z" fill="#2E2D2C"/>
<path d="M26.8887 43.25H27.5171H36.2074V41.25H35.6508V42.3816H27.5171V41.25H27.4453H26.9695H26.8887V42.3816H18.764V41.25H18.2074V43.25H26.8887Z" fill="#2E2D2C"/>
<path d="M17.0074 40.1013V37.2863H17.3075L18.15 39.5218L18.0923 39.5691V37.2744H18.4155V40.0895H18.1154L17.2728 37.8895L17.3306 37.8422V40.1013H17.0074Z" fill="#3C3C3B"/>
<path d="M19.5236 40.1242C19.3735 40.1242 19.2466 40.1006 19.1427 40.0414C19.0388 39.9823 18.958 39.8995 18.9003 39.8049C18.8426 39.6984 18.8195 39.5683 18.8195 39.4145V37.9597C18.8195 37.8059 18.8426 37.6758 18.9003 37.5694C18.958 37.4629 19.0388 37.3801 19.1427 37.3328C19.2466 37.2737 19.3735 37.25 19.5236 37.25C19.6736 37.25 19.8006 37.2737 19.9045 37.3328C20.0083 37.3919 20.0891 37.4629 20.1468 37.5694C20.2045 37.6758 20.2276 37.8059 20.2276 37.9597V39.4145C20.2276 39.5683 20.2045 39.6984 20.1468 39.8049C20.0891 39.9113 20.0083 39.9941 19.9045 40.0414C19.8006 40.0887 19.6736 40.1242 19.5236 40.1242ZM19.5236 39.8049C19.639 39.8049 19.7429 39.7694 19.8006 39.6984C19.8698 39.6274 19.9045 39.5328 19.9045 39.4145V37.9242C19.9045 37.8059 19.8698 37.7113 19.8006 37.6403C19.7313 37.5694 19.639 37.5457 19.5236 37.5457C19.4082 37.5457 19.3043 37.5812 19.235 37.6403C19.1658 37.7113 19.1312 37.8059 19.1312 37.9242V39.4145C19.1312 39.5328 19.1658 39.6274 19.235 39.6984C19.3043 39.7694 19.3966 39.8049 19.5236 39.8049Z" fill="#3C3C3B"/>
<path d="M25.6074 40.1013V37.2863H25.9075L26.75 39.5218L26.6923 39.5691V37.2744H27.0155V40.0895H26.7154L25.8729 37.8895L25.9306 37.8422V40.1013H25.6074Z" fill="#3C3C3B"/>
<path d="M28.0774 40.1242C27.9389 40.1242 27.8119 40.1006 27.7196 40.0414C27.6272 39.9823 27.5464 39.8995 27.4887 39.793C27.431 39.6866 27.4079 39.5565 27.4079 39.4027V37.9715C27.4079 37.8177 27.431 37.6876 27.4887 37.5812C27.5464 37.4747 27.6157 37.3919 27.7196 37.3328C27.8234 37.2737 27.9389 37.25 28.0774 37.25C28.2159 37.25 28.3428 37.2737 28.4352 37.3328C28.539 37.3919 28.6083 37.4747 28.666 37.5812C28.7237 37.6876 28.7468 37.8177 28.7468 37.9715V38.0898H28.4121V37.9715C28.4121 37.8887 28.4005 37.8059 28.3774 37.7468C28.3544 37.6876 28.3082 37.6403 28.262 37.6048C28.2159 37.5694 28.1466 37.5575 28.0774 37.5575C27.9735 37.5575 27.8927 37.593 27.835 37.664C27.7773 37.7349 27.7426 37.8414 27.7426 37.9715V39.4027C27.7426 39.5328 27.7773 39.6274 27.835 39.6984C27.8927 39.7694 27.9735 39.8049 28.0774 39.8049C28.1812 39.8049 28.2736 39.7694 28.3313 39.6984C28.389 39.6274 28.4236 39.5328 28.4236 39.4027V39.2844H28.7583V39.4027C28.7583 39.5565 28.7352 39.6866 28.6775 39.793C28.6198 39.8995 28.5506 39.9823 28.4467 40.0414C28.3428 40.1006 28.2274 40.1242 28.0889 40.1242H28.0774Z" fill="#3C3C3B"/>
<path d="M34.1168 40.2167C33.9783 40.2167 33.8514 40.1931 33.759 40.1339C33.6551 40.0748 33.5859 39.992 33.5282 39.8856C33.4705 39.7791 33.4474 39.649 33.4474 39.4952V38.064C33.4474 37.9103 33.4705 37.7802 33.5282 37.6737C33.5859 37.5673 33.6551 37.4845 33.759 37.4253C33.8629 37.3662 33.9783 37.3425 34.1168 37.3425C34.2553 37.3425 34.3823 37.3662 34.4746 37.4253C34.5785 37.4845 34.6477 37.5673 34.7055 37.6737C34.7516 37.7802 34.7862 37.9103 34.7862 38.064V38.1823H34.4515V38.064C34.4515 37.9812 34.44 37.8984 34.4169 37.8393C34.3938 37.7802 34.3477 37.7329 34.3015 37.6974C34.2553 37.6619 34.1861 37.6501 34.1168 37.6501C34.0129 37.6501 33.9321 37.6855 33.8744 37.7565C33.8167 37.8275 33.7821 37.9339 33.7821 38.064V39.4952C33.7821 39.6253 33.8167 39.72 33.8744 39.7909C33.9321 39.8619 34.0129 39.8974 34.1168 39.8974C34.2207 39.8974 34.3015 39.8619 34.3707 39.7909C34.4284 39.72 34.4515 39.6253 34.4515 39.4952V39.3769H34.7862V39.4952C34.7862 39.649 34.7632 39.7791 34.7055 39.8856C34.6477 39.992 34.5785 40.0748 34.4746 40.1339C34.3707 40.1931 34.2553 40.2167 34.1168 40.2167Z" fill="#3C3C3B"/>
<path d="M35.7673 40.2167C35.6173 40.2167 35.4903 40.1931 35.3864 40.1339C35.2826 40.0748 35.2018 39.992 35.1441 39.8974C35.0863 39.7909 35.0633 39.6608 35.0633 39.5071V38.0522C35.0633 37.8984 35.0863 37.7683 35.1441 37.6619C35.2018 37.5554 35.2826 37.4726 35.3864 37.4253C35.4903 37.3662 35.6173 37.3425 35.7673 37.3425C35.9174 37.3425 36.0443 37.3662 36.1482 37.4253C36.2521 37.4845 36.3329 37.5554 36.3906 37.6619C36.4483 37.7683 36.4714 37.8984 36.4714 38.0522V39.5071C36.4714 39.6608 36.4483 39.7909 36.3906 39.8974C36.3329 40.0038 36.2521 40.0866 36.1482 40.1339C36.0443 40.1813 35.9174 40.2167 35.7673 40.2167ZM35.7673 39.8974C35.8827 39.8974 35.9866 39.8619 36.0443 39.7909C36.102 39.72 36.1482 39.6253 36.1482 39.5071V38.0167C36.1482 37.8984 36.1136 37.8038 36.0443 37.7329C35.9751 37.6619 35.8827 37.6382 35.7673 37.6382C35.6519 37.6382 35.548 37.6737 35.4788 37.7329C35.4095 37.792 35.3749 37.8984 35.3749 38.0167V39.5071C35.3749 39.6253 35.4095 39.72 35.4788 39.7909C35.548 39.8619 35.6404 39.8974 35.7673 39.8974Z" fill="#3C3C3B"/>
<path d="M37.7641 39.2822L38.3873 37.3661H38.6874V40.1812H38.3758V37.9811L38.3989 38.0994L37.8795 39.7554H37.6371L37.1177 38.1467L37.1523 37.9811V40.1812H36.8407V37.3661H37.1523L37.7641 39.2822Z" fill="#3C3C3B"/>
<path d="M49.5074 46.1976V43.4951H49.8287V46.1976H49.5074ZM49.7068 45.1416V44.8463H50.2608C50.3384 44.8463 50.4049 44.8236 50.4492 44.7669C50.4935 44.7101 50.5157 44.6419 50.5157 44.5511V44.0856C50.5157 43.9834 50.4935 43.9152 50.4492 43.8585C50.4049 43.8017 50.3384 43.779 50.2608 43.779H49.7068V43.4837H50.2498C50.3716 43.4837 50.4825 43.5064 50.5711 43.5519C50.6597 43.5973 50.7262 43.6654 50.7705 43.7563C50.8149 43.8471 50.837 43.9493 50.837 44.0742V44.5625C50.837 44.6874 50.8149 44.7896 50.7705 44.8804C50.7262 44.9712 50.6597 45.0394 50.5711 45.0848C50.4825 45.1302 50.3827 45.1529 50.2608 45.1529H49.7179L49.7068 45.1416Z" fill="#3C3C3B"/>
<path d="M51.6127 46.2192C51.4243 46.2192 51.2803 46.1624 51.1695 46.0489C51.0587 45.9353 51.0143 45.7764 51.0143 45.572V44.902C51.0143 44.6863 51.0697 44.516 51.1695 44.4024C51.2692 44.2889 51.4132 44.2207 51.6016 44.2207C51.79 44.2207 51.934 44.2775 52.0337 44.3797C52.1335 44.4933 52.1889 44.6409 52.1889 44.8453V45.3335H51.2249V45.061H51.8786V44.8453C51.8786 44.7317 51.8564 44.6409 51.801 44.5841C51.7456 44.5273 51.6792 44.4933 51.5905 44.4933C51.5019 44.4933 51.4354 44.5273 51.3911 44.5955C51.3468 44.6636 51.3246 44.7544 51.3246 44.868V45.572C51.3246 45.6742 51.3468 45.765 51.4022 45.8218C51.4576 45.8786 51.524 45.9126 51.6127 45.9126C51.7013 45.9126 51.7678 45.8899 51.8121 45.8445C51.8564 45.7991 51.8786 45.731 51.8786 45.6515H52.1889C52.1889 45.8445 52.1335 45.9808 52.0337 46.0716C51.934 46.1624 51.79 46.2192 51.6016 46.2192H51.6127Z" fill="#3C3C3B"/>
<path d="M52.344 46.2078V45.924C52.3994 45.924 52.4437 45.9013 52.4658 45.8672C52.4991 45.8331 52.5102 45.7764 52.5102 45.7196V44.2548H52.8315V45.7423C52.8315 45.8899 52.7983 46.0148 52.7207 46.0943C52.6431 46.1738 52.5323 46.2078 52.3883 46.2078H52.355H52.344ZM52.7539 44.55V44.2548H53.4077V44.55H52.7539ZM53.2747 46.1965V44.2661H53.596V46.1965H53.2747Z" fill="#3C3C3B"/>
<path d="M54.5711 46.2192C54.3828 46.2192 54.2387 46.1624 54.1279 46.0489C54.0171 45.9353 53.9728 45.7764 53.9728 45.572V44.902C53.9728 44.6863 54.0282 44.516 54.1279 44.4024C54.2276 44.2889 54.3717 44.2207 54.56 44.2207C54.7484 44.2207 54.8924 44.2775 54.9922 44.3797C55.0919 44.4933 55.1473 44.6409 55.1473 44.8453V45.3335H54.1833V45.061H54.837V44.8453C54.837 44.7317 54.8149 44.6409 54.7595 44.5841C54.7041 44.5273 54.6376 44.4933 54.549 44.4933C54.4603 44.4933 54.3938 44.5273 54.3495 44.5955C54.3052 44.6636 54.283 44.7544 54.283 44.868V45.572C54.283 45.6742 54.3052 45.765 54.3606 45.8218C54.416 45.8786 54.4825 45.9126 54.5711 45.9126C54.6598 45.9126 54.7262 45.8899 54.7706 45.8445C54.8149 45.7991 54.837 45.731 54.837 45.6515H55.1473C55.1473 45.8445 55.0919 45.9808 54.9922 46.0716C54.8924 46.1624 54.7484 46.2192 54.56 46.2192H54.5711Z" fill="#3C3C3B"/>
<path d="M56.2664 46.1966V45.9354L56.9312 44.8113C57.0088 44.675 57.0753 44.5501 57.1085 44.4252C57.1528 44.3003 57.175 44.1981 57.175 44.1072C57.175 43.9937 57.1528 43.9029 57.1085 43.8461C57.0642 43.7893 56.9977 43.7552 56.9091 43.7552C56.8094 43.7552 56.7207 43.8007 56.6764 43.8801C56.621 43.9596 56.5988 44.0732 56.5988 44.2321H56.2664C56.2664 43.9823 56.3218 43.7893 56.4215 43.653C56.5323 43.5168 56.6875 43.46 56.8869 43.46C57.0864 43.46 57.2415 43.5168 57.3523 43.6303C57.4631 43.7439 57.5074 43.9029 57.5074 44.1186C57.5074 44.2321 57.4853 44.3571 57.4409 44.4933C57.3966 44.6296 57.3301 44.7772 57.2415 44.9248L56.6653 45.9127H57.4963V46.2079H56.2664V46.1966Z" fill="#3C3C3B"/>
<path d="M60.9074 161.25V163.25H61.494V162.129H70.3115V163.25H70.9074V161.25H60.9074Z" fill="#2E2D2C"/>
<path d="M72.1891 169.438C72.1314 168.527 71.4043 167.806 70.5156 167.806H70.481C69.5807 167.806 68.8651 168.527 68.8074 169.438V171.307H72.2238V169.438H72.1891Z" fill="#2E2D2C"/>
<path d="M63.3892 169.438C63.3314 168.527 62.6043 167.806 61.7156 167.806H61.681C60.7807 167.806 60.0651 168.527 60.0074 169.438V171.307H63.4238V169.438H63.3892Z" fill="#BE1622"/>
<path d="M68.7114 165.57H69.4386V166.422C69.4386 166.575 69.4155 166.717 69.3578 166.824C69.3001 166.93 69.2193 167.025 69.1154 167.084C69.0115 167.143 68.8846 167.167 68.723 167.167C68.5614 167.167 68.4344 167.143 68.3305 167.084C68.2267 167.025 68.1343 166.942 68.0882 166.848C68.0305 166.741 68.0074 166.611 68.0074 166.469V164.943C68.0074 164.789 68.0305 164.648 68.0882 164.541C68.1459 164.435 68.2267 164.34 68.3305 164.281C68.4344 164.222 68.5614 164.198 68.723 164.198C68.8846 164.198 69 164.222 69.1039 164.281C69.2077 164.34 69.2885 164.423 69.3462 164.529C69.4039 164.636 69.427 164.766 69.427 164.92V165.061H69.0577V164.92C69.0577 164.789 69.0231 164.695 68.9654 164.624C68.9076 164.553 68.8268 164.517 68.723 164.517C68.6076 164.517 68.5152 164.553 68.446 164.624C68.3767 164.695 68.3536 164.801 68.3536 164.943V166.469C68.3536 166.587 68.3883 166.682 68.4575 166.753C68.5268 166.824 68.6191 166.848 68.7461 166.848C68.873 166.848 68.9538 166.812 69.0231 166.741C69.0923 166.67 69.1154 166.564 69.1154 166.434V165.889H68.7345V165.57H68.7114Z" fill="#3C3C3B"/>
<path d="M69.8079 167.143V164.222H70.1195L70.9967 166.54L70.939 166.588V164.21H71.2737V167.132H70.9621L70.0849 164.849L70.1426 164.801V167.143H69.8079Z" fill="#3C3C3B"/>
<path d="M71.6777 167.143V164.222H72.0239V167.143H71.6777ZM71.8855 167.143V166.824H72.5202C72.5895 166.824 72.6472 166.8 72.6818 166.765C72.7165 166.729 72.7395 166.67 72.7395 166.587V164.778C72.7395 164.707 72.7165 164.648 72.6818 164.6C72.6472 164.553 72.5895 164.541 72.5202 164.541H71.8855V164.222H72.5087C72.6934 164.222 72.8319 164.269 72.9358 164.364C73.0396 164.458 73.0858 164.6 73.0858 164.79V166.576C73.0858 166.694 73.0627 166.8 73.0165 166.883C72.9704 166.966 72.9011 167.037 72.8203 167.072C72.7395 167.12 72.6357 167.143 72.5087 167.143H71.8855Z" fill="#3C3C3B"/>
<path d="M61.0876 167.143L60.4874 164.222H60.8452L61.2838 166.635L61.7224 164.222H62.0802L61.48 167.143H61.076H61.0876Z" fill="#3C3C3B"/>
<path d="M62.2071 165.641H63.3728V165.961H62.2071V165.641ZM62.9573 164.991V166.623H62.6342V164.991H62.9573Z" fill="#3C3C3B"/>
<path d="M62.8384 156.996V159.918H62.5037V157.315L62.0074 157.623V157.268L62.4229 156.996H62.8384Z" fill="#3C3C3B"/>
<path d="M63.2193 159.917V159.633L63.9348 158.426C64.0156 158.284 64.0849 158.142 64.1311 158.012C64.1772 157.882 64.2003 157.764 64.2003 157.669C64.2003 157.539 64.1772 157.444 64.1195 157.385C64.0618 157.326 63.9926 157.291 63.9002 157.291C63.7848 157.291 63.704 157.338 63.6463 157.421C63.5886 157.504 63.554 157.634 63.554 157.799H63.1962C63.1962 157.527 63.2539 157.314 63.3693 157.172C63.4847 157.03 63.6463 156.96 63.8656 156.96C64.0849 156.96 64.258 157.019 64.3734 157.137C64.4889 157.255 64.5466 157.433 64.5466 157.657C64.5466 157.776 64.5235 157.906 64.4773 158.06C64.4311 158.213 64.3619 158.367 64.2696 158.533L63.6463 159.597H64.5466V159.917H63.2193Z" fill="#3C3C3B"/>
<path d="M65.343 159.916L64.7428 156.995H65.1006L65.5392 159.408L65.9778 156.995H66.3356L65.7354 159.916H65.3314H65.343Z" fill="#3C3C3B"/>
<path d="M66.5895 159.916V156.995H66.9357V159.916H66.5895ZM66.7857 159.916V159.597H67.4205C67.4897 159.597 67.5475 159.573 67.5821 159.538C67.6167 159.502 67.6398 159.443 67.6398 159.361V157.551C67.6398 157.48 67.6167 157.421 67.5821 157.373C67.5475 157.326 67.4897 157.314 67.4205 157.314H66.7857V156.995H67.409C67.5936 156.995 67.7321 157.042 67.836 157.137C67.9399 157.231 67.986 157.373 67.986 157.563V159.349C67.986 159.467 67.963 159.573 67.9168 159.656C67.8706 159.739 67.8014 159.81 67.7206 159.845C67.6398 159.881 67.5359 159.916 67.409 159.916H66.7857Z" fill="#3C3C3B"/>
<path d="M69.0018 159.94C68.8517 159.94 68.7363 159.917 68.6324 159.857C68.5285 159.798 68.4478 159.715 68.4016 159.597C68.3554 159.479 68.3208 159.349 68.3208 159.195V157.705C68.3208 157.551 68.3439 157.409 68.4016 157.303C68.4593 157.196 68.5401 157.101 68.6324 157.042C68.7248 156.983 68.8633 156.96 69.0018 156.96C69.1403 156.96 69.2788 156.983 69.3711 157.042C69.475 157.101 69.5558 157.184 69.6019 157.303C69.6596 157.409 69.6827 157.551 69.6827 157.705V157.823H69.3365V157.705C69.3365 157.61 69.3249 157.539 69.3019 157.48C69.2788 157.421 69.2326 157.373 69.1864 157.338C69.1403 157.303 69.071 157.291 69.0018 157.291C68.8863 157.291 68.8056 157.326 68.7478 157.397C68.6901 157.468 68.6555 157.575 68.6555 157.716V159.207C68.6555 159.337 68.6901 159.443 68.7478 159.514C68.8056 159.585 68.8979 159.621 69.0018 159.621C69.1056 159.621 69.198 159.585 69.2557 159.514C69.3134 159.443 69.348 159.337 69.348 159.207V159.089H69.6943V159.207C69.6943 159.361 69.6712 159.503 69.6135 159.609C69.5558 159.715 69.4865 159.81 69.3826 159.869C69.2788 159.928 69.1518 159.952 69.0133 159.952L69.0018 159.94Z" fill="#3C3C3B"/>
<path d="M21.0207 81.7452V76.6946H21.5286V81.7452H21.0207ZM21.3901 81.7452V81.2839H22.4865C22.6481 81.2839 22.7635 81.2366 22.8559 81.1301C22.9482 81.0237 22.9828 80.8817 22.9828 80.7043V79.7936C22.9828 79.6043 22.9367 79.4506 22.8559 79.3559C22.7751 79.2495 22.6481 79.2022 22.4865 79.2022H21.3901V78.7409H22.4635C22.6828 78.7409 22.8674 78.7882 23.0175 78.871C23.1675 78.9538 23.2829 79.0721 23.3637 79.2376C23.4445 79.4032 23.4907 79.5925 23.4907 79.8172V80.728C23.4907 80.9527 23.4445 81.142 23.3637 81.2957C23.2829 81.4495 23.1675 81.5678 23.0059 81.6506C22.8443 81.7334 22.6712 81.7688 22.4519 81.7688H21.3785L21.3901 81.7452ZM21.4709 77.1677V76.7065H23.1906V77.1677H21.4709Z" fill="#3C3C3B"/>
<path d="M23.9062 81.7803V81.3191C24.0101 81.3191 24.0793 81.2836 24.137 81.2244C24.1947 81.1653 24.2178 81.0707 24.2178 80.9406V78.1491H24.7256V80.9642C24.7256 81.2244 24.6564 81.4255 24.5294 81.5674C24.4025 81.7094 24.2178 81.7803 23.9754 81.7803H23.9062ZM24.6679 78.6104V78.1491H25.8914V78.6104H24.6679ZM25.7182 81.7449V78.1373H26.2261V81.7449H25.7182Z" fill="#3C3C3B"/>
<path d="M27.992 81.8041C27.6573 81.8041 27.4034 81.7094 27.2187 81.532C27.034 81.3546 26.9417 81.0944 26.9417 80.7632V79.1191C26.9417 78.7879 27.034 78.5395 27.2187 78.3621C27.4034 78.1847 27.6573 78.0901 27.992 78.0901C28.3267 78.0901 28.5807 78.1847 28.7653 78.3621C28.95 78.5395 29.0423 78.7998 29.0423 79.1191V80.7632C29.0423 81.0944 28.95 81.3428 28.7653 81.532C28.5807 81.7213 28.3267 81.8041 27.992 81.8041ZM27.992 81.331C28.1652 81.331 28.3037 81.2836 28.396 81.1772C28.4883 81.0707 28.5345 80.9406 28.5345 80.7514V79.1073C28.5345 78.9299 28.4883 78.7879 28.396 78.6933C28.3037 78.5987 28.1652 78.5395 27.992 78.5395C27.8189 78.5395 27.6919 78.5868 27.5881 78.6933C27.4842 78.7998 27.4496 78.9299 27.4496 79.1073V80.7514C27.4496 80.9288 27.4957 81.0707 27.5881 81.1772C27.6804 81.2836 27.8189 81.331 27.992 81.331Z" fill="#3C3C3B"/>
<path d="M29.7579 81.7449V78.1373H30.2657V81.7449H29.7579ZM30.1042 80.1836V79.7341H31.3391V80.1836H30.1042ZM31.6277 81.7449L30.8659 80.0771L31.2814 79.7814L32.1817 81.7449H31.6161H31.6277ZM31.2699 80.1836L30.8775 79.8524L31.5123 78.1491H32.0547L31.2699 80.1836Z" fill="#3C3C3B"/>
<path d="M16.6694 88.9128L17.8236 85.2343H18.3199V90.2849H17.8236V86.2279L17.8582 86.4526L16.8771 89.587H16.4501L15.469 86.5236L15.5037 86.2279V90.2849H15.0074V85.2343H15.5037L16.6578 88.9128H16.6694Z" fill="#3C3C3B"/>
<path d="M19.9934 90.5215L18.8162 86.6774H19.3356L20.1781 89.7527L19.9934 90.5215ZM20.8014 86.6774H21.3208L20.1089 91.1247C20.0512 91.3495 19.9357 91.5151 19.7626 91.6215C19.5895 91.728 19.3586 91.7871 19.047 91.7871H19.0124V91.314H19.047C19.2548 91.314 19.4048 91.2667 19.5087 91.1721C19.6126 91.0774 19.6934 90.9355 19.7511 90.7581L20.7898 86.6892L20.8014 86.6774Z" fill="#3C3C3B"/>
<path d="M21.7478 90.2849V85.2343H22.2557V90.2849H21.7478ZM22.198 88.0257V87.5644H23.7792V88.0257H22.198ZM23.6061 90.2849V85.2343H24.1139V90.2849H23.6061Z" fill="#3C3C3B"/>
<path d="M25.903 90.3323C25.5452 90.3323 25.2797 90.2259 25.0835 90.013C24.8873 89.8001 24.7949 89.5043 24.7949 89.1259V87.8721C24.7949 87.4699 24.8873 87.1506 25.0835 86.9377C25.2797 86.7129 25.5452 86.6065 25.8914 86.6065C26.2377 86.6065 26.5147 86.7129 26.6993 86.914C26.8956 87.1151 26.9879 87.4108 26.9879 87.7775V88.6764H25.1066V88.2151H26.4801V87.8011C26.4801 87.5764 26.4339 87.399 26.33 87.2689C26.2261 87.1387 26.0876 87.0796 25.8914 87.0796C25.6952 87.0796 25.5682 87.1506 25.4644 87.2807C25.3605 87.4108 25.3143 87.6 25.3143 87.8484V89.1495C25.3143 89.3742 25.372 89.5517 25.4759 89.6818C25.5798 89.8119 25.7298 89.871 25.926 89.871C26.1107 89.871 26.2492 89.8237 26.3531 89.7173C26.457 89.6108 26.5031 89.4807 26.5031 89.2914V89.2678H27.011V89.2914C27.011 89.6226 26.9186 89.871 26.7224 90.0603C26.5378 90.2377 26.2723 90.3323 25.926 90.3323H25.903Z" fill="#3C3C3B"/>
<path d="M28.5922 90.3323C28.269 90.3323 28.0266 90.2495 27.8766 90.0839C27.7265 89.9183 27.6342 89.6581 27.6342 89.3269C27.6342 88.9248 27.7265 88.6173 27.9227 88.4162C28.1074 88.2151 28.3959 88.1205 28.7653 88.1205H29.4232L29.4693 88.4872H28.7653C28.546 88.4872 28.3729 88.5581 28.269 88.7001C28.1651 88.842 28.0959 89.0549 28.0959 89.3388C28.0959 89.5517 28.142 89.7173 28.2459 89.8237C28.3498 89.9302 28.4998 89.9893 28.696 89.9893C28.9269 89.9893 29.0885 89.9302 29.2039 89.8119C29.3193 89.6936 29.377 89.5162 29.377 89.2796L29.4463 89.5753C29.4463 89.7409 29.4116 89.8947 29.3424 90.0011C29.2731 90.1194 29.1808 90.2022 29.0538 90.2614C28.9269 90.3205 28.7653 90.3442 28.5806 90.3442L28.5922 90.3323ZM29.3886 90.285V87.6474C29.3886 87.4581 29.3308 87.3044 29.227 87.1979C29.1231 87.0915 28.9615 87.0323 28.7653 87.0323C28.5922 87.0323 28.4537 87.0796 28.3498 87.1979C28.2459 87.3044 28.1997 87.4581 28.1997 87.6474H27.7034C27.7034 87.3162 27.7958 87.0678 27.9804 86.8904C28.1651 86.713 28.4306 86.6183 28.7653 86.6183C29.1 86.6183 29.377 86.713 29.5617 86.8904C29.7464 87.0678 29.8502 87.328 29.8502 87.6474V90.285H29.377H29.3886Z" fill="#3C3C3B"/>
<path d="M30.3581 87.1385V86.6772H31.9394V87.1385H30.3581ZM31.5931 90.2966C31.293 90.2966 31.0737 90.2138 30.9352 90.0482C30.7967 89.8826 30.7275 89.6461 30.7275 89.3386V85.6246H31.2353V89.3504C31.2353 89.5041 31.2699 89.6224 31.3392 89.7052C31.4084 89.788 31.5123 89.8353 31.6508 89.8353H31.9278V90.2966H31.5816H31.5931Z" fill="#3C3C3B"/>
<path d="M42.0616 89.7646V77.1323H43.9775V89.7646H42.0616ZM42.9503 84.4302V82.6205H45.3048C45.6742 82.6205 45.9627 82.5259 46.1705 82.3248C46.3782 82.1237 46.4821 81.8517 46.4821 81.4969V80.1485C46.4821 79.77 46.3782 79.4743 46.1705 79.2614C45.9627 79.0485 45.6742 78.942 45.3048 78.942H42.9503V77.1323H45.1548C45.8473 77.1323 46.4359 77.2388 46.9207 77.4635C47.4055 77.6882 47.7863 78.0076 48.0403 78.4452C48.2942 78.8829 48.4327 79.3915 48.4327 79.9947V81.4732C48.4327 82.1001 48.3057 82.6323 48.0403 83.07C47.7748 83.5076 47.4055 83.8506 46.9207 84.0754C46.4359 84.3001 45.8473 84.4184 45.1548 84.4184H42.9503V84.4302ZM46.6899 89.7646L44.9355 84.0399L46.7245 83.6377L48.7789 89.7646H46.6783H46.6899Z" fill="#3C3C3B"/>
<path d="M50.2332 89.7646V77.1441H52.1723V89.7646H50.2332ZM51.145 89.7646V87.9549H55.681V89.7646H51.145Z" fill="#3C3C3B"/>
<path d="M56.789 89.7645V88.0731L59.5244 83.3419C59.9169 82.6795 60.2054 82.0763 60.3901 81.5322C60.5747 80.9881 60.6786 80.5268 60.6786 80.1129V80.0301C60.6786 79.6397 60.6094 79.3559 60.4478 79.1666C60.2977 78.9774 60.0669 78.8827 59.7668 78.8827C59.3975 78.8827 59.132 79.0128 58.9589 79.2731C58.7858 79.5333 58.6934 79.9236 58.6934 80.444V80.6924H56.7198V80.444C56.7198 79.2967 56.9737 78.4451 57.47 77.8655C57.9663 77.2978 58.705 77.0139 59.686 77.0139C60.6671 77.0139 61.4173 77.2623 61.9136 77.7709C62.4099 78.2795 62.6523 79.0365 62.6523 80.0419V80.1247C62.6523 80.6096 62.5484 81.1537 62.3407 81.7806C62.1329 82.4075 61.8213 83.0935 61.4173 83.8387L59.1782 87.9194H62.6292V89.7645H56.7775H56.789Z" fill="#3C3C3B"/>
<path d="M37.8141 76.2925H36.3714V91.5862H37.8141V76.2925Z" fill="#EE7203"/>
<path fill-rule="evenodd" clip-rule="evenodd" d="M43.6901 56.9192C43.3208 57.1676 42.9861 57.5343 42.6744 58.0074C42.4667 58.3267 42.2474 58.7407 42.005 59.273C41.8665 59.5923 41.6472 60.1246 41.3471 60.8816C41.1625 61.3547 40.9893 61.7095 40.8393 61.9579C40.6662 62.2891 40.4007 62.6203 40.0775 62.9515C39.6159 63.4364 39.0734 63.8031 38.4732 64.0751C38.0692 64.2407 37.7114 64.3472 37.3883 64.3827L37.0074 64.4063L37.3421 64.1225L38.15 63.3182C38.4847 62.9397 38.7733 62.5612 38.9926 62.1708C39.1426 61.9106 39.2581 61.6859 39.3158 61.5085L39.6274 60.6923C39.8813 60.0063 40.2622 59.3439 40.7585 58.7052C41.2202 58.1257 41.6934 57.6762 42.1897 57.3568C42.5937 57.0966 42.9745 56.9429 43.3208 56.8955C43.4939 56.8719 43.6209 56.8837 43.7017 56.8955L43.6901 56.9192Z" fill="#EE7203"/>
<path fill-rule="evenodd" clip-rule="evenodd" d="M46.1485 56.9299C45.7792 57.1783 45.4445 57.5449 45.1329 58.0181C44.9251 58.3374 44.7058 58.7514 44.4634 59.2837C44.3249 59.603 44.1056 60.1353 43.8055 60.8923C43.6209 61.3654 43.4477 61.7202 43.2977 61.9686C43.1246 62.2998 42.8591 62.631 42.5359 62.9622C42.0743 63.4471 41.5318 63.8138 40.9316 64.0858C40.5276 64.2514 40.1698 64.3579 39.8467 64.3934L39.4658 64.417L39.8005 64.1332L40.6084 63.3289C40.9431 62.9504 41.2317 62.5719 41.451 62.1815C41.601 61.9213 41.7165 61.6966 41.7742 61.5192L42.0858 60.703C42.3397 60.017 42.7206 59.3546 43.2169 58.7159C43.6786 58.1363 44.1518 57.6869 44.6481 57.3675C45.0521 57.1073 45.4329 56.9535 45.7792 56.9062C45.9523 56.8826 46.0793 56.8944 46.1601 56.9062L46.1485 56.9299Z" fill="#2E2D2C"/>
<path fill-rule="evenodd" clip-rule="evenodd" d="M48.5954 56.9181C48.2261 57.1665 47.8914 57.5332 47.5797 58.0063C47.372 58.3256 47.1527 58.7396 46.9103 59.2719C46.7718 59.5912 46.5525 60.1235 46.2524 60.8805C46.0677 61.3536 45.8946 61.7085 45.7446 61.9568C45.5714 62.288 45.306 62.6192 44.9828 62.9504C44.5211 63.4353 43.9787 63.802 43.3785 64.0741C42.9745 64.2397 42.6167 64.3461 42.2936 64.3816L41.9127 64.4053L42.2474 64.1214L43.0553 63.3171C43.39 62.9386 43.6786 62.5601 43.8979 62.1698C44.0479 61.9095 44.1633 61.6848 44.2211 61.5074L44.5327 60.6912C44.7866 60.0052 45.1675 59.3429 45.6638 58.7041C46.1255 58.1246 46.5987 57.6751 47.095 57.3557C47.4989 57.0955 47.8798 56.9418 48.2261 56.8945C48.3992 56.8708 48.5262 56.8826 48.607 56.8945L48.5954 56.9181Z" fill="#EE7203"/>
<path d="M53.0044 64.3817H51.9195V58.0655H51.1V64.3817H50.0035V57.8881C50.0035 57.5687 50.0843 57.3085 50.2344 57.1311C50.3844 56.9537 50.6037 56.8591 50.8923 56.8591H51.8156C52.0118 56.8591 52.1734 56.9182 52.2888 57.0483C52.4042 57.1784 52.4619 57.3558 52.4619 57.5806C52.4619 57.344 52.5197 57.1666 52.6235 57.0483C52.739 56.9182 52.889 56.8591 53.0852 56.8591H54.0086C54.2856 56.8591 54.5049 56.9537 54.6664 57.1311C54.828 57.3085 54.9088 57.5687 54.9088 57.8881V64.3817H53.8008V58.0655H53.0044V64.3817Z" fill="#2E2D2C"/>
<path d="M55.7052 56.8709H56.8017V60.1118L57.5981 59.6505V56.8827H58.7061V63.3172C58.7061 63.6839 58.6253 63.9559 58.4753 64.1333C58.3252 64.3107 58.0944 64.4054 57.7712 64.4054H56.5709C56.2939 64.4054 56.0746 64.3107 55.913 64.1333C55.7514 63.9559 55.6821 63.6957 55.6821 63.3763V63.1043L56.7786 62.4656V63.2107H57.575V60.9989L55.6706 62.1107V56.8827L55.7052 56.8709Z" fill="#2E2D2C"/>
<path d="M62.538 56.8709V64.3817H61.4531V60.8924L60.6221 61.3655V64.3699H59.5371V56.8591H60.6221V60.0171L61.4531 59.5559V56.8709H62.538Z" fill="#EE7203"/>
<path d="M66.0006 64.3817H63.3459V56.8709H66.0006V58.0774H64.4424V60.0172L66.0006 59.1419V60.4903L64.4424 61.3774V63.1989H66.0006V64.4054V64.3817Z" fill="#EE7203"/>
<path d="M69.694 64.3817H68.5975V61.2L67.778 61.6612V64.3817H66.6815V57.8881C66.6815 57.5687 66.7623 57.3085 66.9124 57.1311C67.0624 56.9537 67.2817 56.8591 67.5703 56.8591H68.8052C69.0823 56.8591 69.3015 56.9537 69.4631 57.1311C69.6247 57.3085 69.7055 57.5687 69.7055 57.8881V64.3817H69.694ZM68.5975 59.8752V58.0537H67.778V60.3129L68.5975 59.8634V59.8752Z" fill="#EE7203"/>
<path d="M71.2521 64.3817V58.0655H70.1672V56.8591H73.4336V58.0655H72.3486V64.3817H71.2521Z" fill="#EE7203"/>
<path d="M2.86951 51.3024H77.0074" stroke="#212830" stroke-width="0.25" stroke-miterlimit="10"/>
<path d="M2.86951 151.302H77.0074" stroke="#212830" stroke-width="0.25" stroke-miterlimit="10"/>
<path d="M76.8674 51.3024V151.302" stroke="#212830" stroke-width="0.25" stroke-miterlimit="10"/>
<path d="M2.86951 51.3024V151.302" stroke="#212830" stroke-width="0.25" stroke-miterlimit="10"/>
</svg>
