<svg width="81" height="201" viewBox="0 0 81 201" fill="none" xmlns="http://www.w3.org/2000/svg">
<path d="M80.25 0.25H0.25V200.25H80.25V0.25Z" fill="white"/>
<path d="M22.9129 190.693V179.054H5.29999V190.693" fill="#AFD5A9"/>
<path d="M22.9129 190.693V179.054H5.29999V190.693" stroke="#212830" stroke-width="0.25" stroke-miterlimit="10"/>
<path d="M22.9129 190.693H5.29999V192.881H22.9129V190.693Z" fill="#5EB34A" stroke="#1D1D1B" stroke-width="0.25" stroke-miterlimit="10"/>
<path d="M22.9129 173.98H5.29999V179.054H22.9129V173.98Z" fill="#5EB34A" stroke="#1D1D1B" stroke-width="0.25" stroke-miterlimit="10"/>
<path d="M20.1428 173.98V177.765H16.7611V173.98H11.3941V177.765H8.01233V173.98" fill="#0C9B47"/>
<path d="M20.1428 173.98V177.765H16.7611V173.98H11.3941V177.765H8.01233V173.98" stroke="#212830" stroke-width="0.25" stroke-miterlimit="10"/>
<path class="12VDC-OUT-V+" d="M13.1139 184.921L13.0677 184.282L12.86 183.643L12.5945 183.111L12.179 182.579L11.6596 182.153L11.1402 181.881L10.517 181.668L9.88217 181.621L9.25891 181.668L8.63565 181.881L8.11626 182.153L7.59688 182.579L7.18137 183.111L6.91591 183.643L6.70815 184.282L6.66199 184.921L6.70815 185.571L6.91591 186.21L7.18137 186.742L7.59688 187.275L8.11626 187.7L8.63565 187.972L9.25891 188.185L9.88217 188.233L10.517 188.185L11.1402 187.972L11.6596 187.7L12.179 187.275L12.5945 186.742L12.86 186.21L13.0677 185.571L13.1139 184.921Z" fill="#C8C8CA"/>
<path d="M7.57379 182.543L12.1559 187.298M13.1139 184.921L13.0677 184.282L12.86 183.643L12.5945 183.111L12.179 182.579L11.6596 182.153L11.1402 181.881L10.517 181.668L9.88217 181.621L9.25891 181.668L8.63565 181.881L8.11626 182.153L7.59688 182.579L7.18137 183.111L6.91591 183.643L6.70815 184.282L6.66199 184.921L6.70815 185.571L6.91591 186.21L7.18137 186.742L7.59688 187.275L8.11626 187.7L8.63565 187.972L9.25891 188.185L9.88217 188.233L10.517 188.185L11.1402 187.972L11.6596 187.7L12.179 187.275L12.5945 186.742L12.86 186.21L13.0677 185.571L13.1139 184.921Z" stroke="#212830" stroke-width="0.25" stroke-miterlimit="10"/>
<path class="12VDC-OUT-GND" d="M21.2393 184.874L21.1932 184.235L20.9854 183.596L20.7199 183.052L20.3044 182.52L19.7851 182.094L19.2657 181.834L18.6424 181.609L18.0076 181.562L17.3843 181.609L16.7611 181.834L16.2417 182.094L15.7223 182.52L15.3068 183.052L15.0413 183.596L14.8336 184.235L14.7874 184.874L14.8336 185.512L15.0413 186.151L15.3068 186.683L15.7223 187.216L16.2417 187.653L16.7611 187.913L17.3843 188.126L18.0076 188.185L18.6424 188.126L19.2657 187.913L19.7851 187.653L20.3044 187.216L20.7199 186.683L20.9854 186.151L21.1932 185.512L21.2393 184.874Z" fill="#C8C8CA"/>
<path d="M15.6992 182.496L20.2813 187.251M21.2393 184.874L21.1932 184.235L20.9854 183.596L20.7199 183.052L20.3044 182.52L19.7851 182.094L19.2657 181.834L18.6424 181.609L18.0076 181.562L17.3843 181.609L16.7611 181.834L16.2417 182.094L15.7223 182.52L15.3068 183.052L15.0413 183.596L14.8336 184.235L14.7874 184.874L14.8336 185.512L15.0413 186.151L15.3068 186.683L15.7223 187.216L16.2417 187.653L16.7611 187.913L17.3843 188.126L18.0076 188.185L18.6424 188.126L19.2657 187.913L19.7851 187.653L20.3044 187.216L20.7199 186.683L20.9854 186.151L21.1932 185.512L21.2393 184.874Z" stroke="#212830" stroke-width="0.25" stroke-miterlimit="10"/>
<path d="M75.3131 190.693V179.054H57.7117V190.693" fill="#AFD5A9"/>
<path d="M75.3131 190.693V179.054H57.7117V190.693" stroke="#212830" stroke-width="0.25" stroke-miterlimit="10"/>
<path d="M75.3246 190.693H57.7117V192.881H75.3246V190.693Z" fill="#5EB34A" stroke="#1D1D1B" stroke-width="0.25" stroke-miterlimit="10"/>
<path d="M75.3246 173.98H57.7117V179.054H75.3246V173.98Z" fill="#5EB34A" stroke="#1D1D1B" stroke-width="0.25" stroke-miterlimit="10"/>
<path d="M72.5545 173.98V177.765H69.1728V173.98H63.8058V177.765H60.4125V173.98" fill="#0C9B47"/>
<path d="M72.5545 173.98V177.765H69.1728V173.98H63.8058V177.765H60.4125V173.98" stroke="#212830" stroke-width="0.25" stroke-miterlimit="10"/>
<path class="12VDC-IN-V+" d="M65.5256 184.921L65.4678 184.282L65.2601 183.643L64.9946 183.111L64.5791 182.579L64.0597 182.153L63.5404 181.881L62.9171 181.668L62.2938 181.621L61.6706 181.668L61.0358 181.881L60.5164 182.153L59.997 182.579L59.5815 183.111L59.3276 183.643L59.1083 184.282L59.0621 184.921L59.1083 185.571L59.3276 186.21L59.5815 186.742L59.997 187.275L60.5164 187.7L61.0358 187.972L61.6706 188.185L62.2938 188.233L62.9171 188.185L63.5404 187.972L64.0597 187.7L64.5791 187.275L64.9946 186.742L65.2601 186.21L65.4678 185.571L65.5256 184.921Z" fill="#C8C8CA"/>
<path d="M59.9739 182.543L64.5561 187.298M65.5256 184.921L65.4678 184.282L65.2601 183.643L64.9946 183.111L64.5791 182.579L64.0597 182.153L63.5404 181.881L62.9171 181.668L62.2938 181.621L61.6706 181.668L61.0358 181.881L60.5164 182.153L59.997 182.579L59.5815 183.111L59.3276 183.643L59.1083 184.282L59.0621 184.921L59.1083 185.571L59.3276 186.21L59.5815 186.742L59.997 187.275L60.5164 187.7L61.0358 187.972L61.6706 188.185L62.2938 188.233L62.9171 188.185L63.5404 187.972L64.0597 187.7L64.5791 187.275L64.9946 186.742L65.2601 186.21L65.4678 185.571L65.5256 184.921Z" stroke="#212830" stroke-width="0.25" stroke-miterlimit="10"/>
<path class="12VDC-IN-GND" d="M73.651 184.874L73.5933 184.235L73.3856 183.596L73.1316 183.052L72.7046 182.52L72.1852 182.094L71.6658 181.834L71.0426 181.609L70.4193 181.562L69.796 181.609L69.1728 181.834L68.6419 182.094L68.1225 182.52L67.707 183.052L67.453 183.596L67.2453 184.235L67.1876 184.874L67.2453 185.512L67.453 186.151L67.707 186.683L68.1225 187.216L68.6419 187.653L69.1728 187.913L69.796 188.126L70.4193 188.185L71.0426 188.126L71.6658 187.913L72.1852 187.653L72.7046 187.216L73.1316 186.683L73.3856 186.151L73.5933 185.512L73.651 184.874Z" fill="#C8C8CA"/>
<path d="M68.0994 182.496L72.6815 187.251M73.651 184.874L73.5933 184.235L73.3856 183.596L73.1316 183.052L72.7046 182.52L72.1852 182.094L71.6658 181.834L71.0426 181.609L70.4193 181.562L69.796 181.609L69.1728 181.834L68.6419 182.094L68.1225 182.52L67.707 183.052L67.453 183.596L67.2453 184.235L67.1876 184.874L67.2453 185.512L67.453 186.151L67.707 186.683L68.1225 187.216L68.6419 187.653L69.1728 187.913L69.796 188.126L70.4193 188.185L71.0426 188.126L71.6658 187.913L72.1852 187.653L72.7046 187.216L73.1316 186.683L73.3856 186.151L73.5933 185.512L73.651 184.874Z" stroke="#212830" stroke-width="0.25" stroke-miterlimit="10"/>
<path d="M49.113 190.693V179.054H31.5001V190.693" fill="#AFD5A9"/>
<path d="M49.113 190.693V179.054H31.5001V190.693" stroke="#212830" stroke-width="0.25" stroke-miterlimit="10"/>
<path d="M49.113 190.693H31.5001V192.881H49.113V190.693Z" fill="#5EB34A" stroke="#1D1D1B" stroke-width="0.25" stroke-miterlimit="10"/>
<path d="M49.113 173.98H31.5001V179.054H49.113V173.98Z" fill="#5EB34A" stroke="#1D1D1B" stroke-width="0.25" stroke-miterlimit="10"/>
<path d="M46.3544 173.98V177.765H42.9611V173.98H37.5941V177.765H34.2124V173.98" fill="#0C9B47"/>
<path d="M46.3544 173.98V177.765H42.9611V173.98H37.5941V177.765H34.2124V173.98" stroke="#212830" stroke-width="0.25" stroke-miterlimit="10"/>
<path class="DI-IN-1" d="M39.314 184.921L39.2678 184.282L39.0601 183.643L38.7946 183.111L38.3791 182.579L37.8597 182.153L37.3403 181.881L36.7171 181.668L36.0938 181.621L35.459 181.668L34.8357 181.881L34.3163 182.153L33.797 182.579L33.3814 183.111L33.116 183.643L32.9082 184.282L32.8621 184.921L32.9082 185.571L33.116 186.21L33.3814 186.742L33.797 187.275L34.3163 187.7L34.8357 187.972L35.459 188.185L36.0938 188.233L36.7171 188.185L37.3403 187.972L37.8597 187.7L38.3791 187.275L38.7946 186.742L39.0601 186.21L39.2678 185.571L39.314 184.921Z" fill="#C8C8CA"/>
<path d="M33.7739 182.543L38.356 187.298M39.314 184.921L39.2678 184.282L39.0601 183.643L38.7946 183.111L38.3791 182.579L37.8597 182.153L37.3403 181.881L36.7171 181.668L36.0938 181.621L35.459 181.668L34.8357 181.881L34.3163 182.153L33.797 182.579L33.3814 183.111L33.116 183.643L32.9082 184.282L32.8621 184.921L32.9082 185.571L33.116 186.21L33.3814 186.742L33.797 187.275L34.3163 187.7L34.8357 187.972L35.459 188.185L36.0938 188.233L36.7171 188.185L37.3403 187.972L37.8597 187.7L38.3791 187.275L38.7946 186.742L39.0601 186.21L39.2678 185.571L39.314 184.921Z" stroke="#212830" stroke-width="0.25" stroke-miterlimit="10"/>
<path class="DI-IN-2" d="M47.4394 184.874L47.3932 184.235L47.1855 183.596L46.92 183.052L46.5045 182.52L45.9851 182.094L45.4657 181.834L44.8425 181.609L44.2192 181.562L43.5844 181.609L42.9611 181.834L42.4418 182.094L41.9224 182.52L41.5069 183.052L41.2414 183.596L41.0337 184.235L40.9875 184.874L41.0337 185.512L41.2414 186.151L41.5069 186.683L41.9224 187.216L42.4418 187.653L42.9611 187.913L43.5844 188.126L44.2192 188.185L44.8425 188.126L45.4657 187.913L45.9851 187.653L46.5045 187.216L46.92 186.683L47.1855 186.151L47.3932 185.512L47.4394 184.874Z" fill="#C8C8CA"/>
<path d="M41.8993 182.496L46.4814 187.251M47.4394 184.874L47.3932 184.235L47.1855 183.596L46.92 183.052L46.5045 182.52L45.9851 182.094L45.4657 181.834L44.8425 181.609L44.2192 181.562L43.5844 181.609L42.9611 181.834L42.4418 182.094L41.9224 182.52L41.5069 183.052L41.2414 183.596L41.0337 184.235L40.9875 184.874L41.0337 185.512L41.2414 186.151L41.5069 186.683L41.9224 187.216L42.4418 187.653L42.9611 187.913L43.5844 188.126L44.2192 188.185L44.8425 188.126L45.4657 187.913L45.9851 187.653L46.5045 187.216L46.92 186.683L47.1855 186.151L47.3932 185.512L47.4394 184.874Z" stroke="#212830" stroke-width="0.25" stroke-miterlimit="10"/>
<path d="M35.6986 4.03502H53.204" stroke="#212830" stroke-width="0.25" stroke-miterlimit="10" stroke-linecap="square"/>
<path d="M35.6986 0.25H53.204" stroke="#212830" stroke-width="0.5" stroke-miterlimit="10" stroke-linecap="square"/>
<path d="M0.25 0.25V200.25" stroke="#212830" stroke-width="0.5" stroke-miterlimit="10" stroke-linecap="square"/>
<path d="M0.25 200.25H80.25" stroke="#212830" stroke-width="0.5" stroke-miterlimit="10" stroke-linecap="square"/>
<path d="M80.25 200.25V0.25" stroke="#212830" stroke-width="0.5" stroke-miterlimit="10" stroke-linecap="square"/>
<path d="M80.25 0.25H53.204" stroke="#212830" stroke-width="0.5" stroke-miterlimit="10" stroke-linecap="square"/>
<path d="M35.6986 0.25H0.25" stroke="#212830" stroke-width="0.5" stroke-miterlimit="10" stroke-linecap="square"/>
<path d="M0.25 172.218L80.25 172.218" stroke="#212830" stroke-width="0.25" stroke-miterlimit="10" stroke-linecap="square"/>
<path d="M0.25 155.717H80.25" stroke="#212830" stroke-width="0.25" stroke-miterlimit="10" stroke-linecap="square"/>
<path d="M0.25 48.0827H80.25" stroke="#212830" stroke-width="0.25" stroke-miterlimit="10" stroke-linecap="square"/>
<path d="M0.25 31.5351H80.25" stroke="#212830" stroke-width="0.25" stroke-miterlimit="10" stroke-linecap="square"/>
<path d="M4.51981 4.03502H35.6985" stroke="#212830" stroke-width="0.25" stroke-miterlimit="10" stroke-linecap="square"/>
<path d="M53.204 4.03502H76.25" stroke="#212830" stroke-width="0.25" stroke-miterlimit="10" stroke-linecap="square"/>
<path d="M76.46 4.03503V31.5352" stroke="#212830" stroke-width="0.25" stroke-miterlimit="10" stroke-linecap="square"/>
<path d="M4.51981 4.03502V31.5352" stroke="#212830" stroke-width="0.25" stroke-miterlimit="10" stroke-linecap="square"/>
<path d="M2.25 172.218V195.554" stroke="#212830" stroke-width="0.25" stroke-miterlimit="10" stroke-linecap="square"/>
<path d="M2.25 195.554L78.75 195.554" stroke="#212830" stroke-width="0.25" stroke-miterlimit="10" stroke-linecap="square"/>
<path d="M78.75 195.554V172.218" stroke="#212830" stroke-width="0.25" stroke-miterlimit="10" stroke-linecap="square"/>
<path d="M36.3965 22.7232H32.9309V26.4609H36.3965V22.7232Z" stroke="#0C9B47" stroke-width="0.25" stroke-miterlimit="10" stroke-linecap="square"/>
<path d="M45.2083 22.7232H41.7427V26.4609H45.2083V22.7232Z" stroke="#0C9B47" stroke-width="0.25" stroke-miterlimit="10" stroke-linecap="square"/>
<path d="M54.174 26.4609V22.7232H50.7084V26.4609H54.174Z" stroke="#0C9B47" stroke-width="0.25" stroke-miterlimit="10" stroke-linecap="square"/>
<path d="M17.2468 113.113V106.809H18.0038V113.113H17.2468ZM17.7199 113.113V112.427H19.0565C19.2458 112.427 19.3995 112.368 19.4942 112.249C19.6006 112.131 19.6479 111.954 19.6479 111.741V110.735C19.6479 110.511 19.6006 110.333 19.4942 110.203C19.3877 110.085 19.2458 110.014 19.0565 110.014H17.7199V109.328H19.021C19.3167 109.328 19.5651 109.387 19.778 109.493C19.9909 109.6 20.1447 109.766 20.2511 109.967C20.3576 110.168 20.4167 110.428 20.4167 110.712V111.741C20.4167 112.025 20.3576 112.273 20.2511 112.474C20.1447 112.675 19.9791 112.829 19.778 112.935C19.5651 113.042 19.3167 113.089 19.021 113.089H17.7199V113.113ZM17.8146 107.495V106.809H20.0146V107.495H17.8146Z" fill="#3C3C3B"/>
<path d="M20.9254 113.16V112.498C21.0555 112.498 21.162 112.462 21.2211 112.38C21.2921 112.297 21.3276 112.179 21.3276 112.025V108.618H22.0846V112.072C22.0846 112.427 21.9899 112.699 21.8125 112.876C21.6351 113.054 21.3631 113.148 21.02 113.148H20.9254V113.16ZM21.9071 109.293V108.606H23.4803V109.293H21.9071ZM23.1609 113.113V108.606H23.9179V113.113H23.1609Z" fill="#3C3C3B"/>
<path d="M26.1652 113.184C25.7394 113.184 25.4082 113.066 25.1716 112.841C24.9351 112.616 24.8168 112.285 24.8168 111.871V109.825C24.8168 109.411 24.9351 109.091 25.1716 108.879C25.4082 108.654 25.7394 108.547 26.1652 108.547C26.591 108.547 26.9222 108.654 27.1587 108.879C27.3953 109.103 27.5136 109.423 27.5136 109.825V111.883C27.5136 112.297 27.3953 112.616 27.1587 112.841C26.9222 113.066 26.591 113.184 26.1652 113.184ZM26.1533 112.486C26.3426 112.486 26.4964 112.427 26.591 112.32C26.6856 112.214 26.7447 112.06 26.7447 111.859V109.825C26.7447 109.636 26.6974 109.482 26.591 109.375C26.4845 109.269 26.3426 109.21 26.1533 109.21C25.9641 109.21 25.8222 109.269 25.7157 109.375C25.6093 109.482 25.5619 109.636 25.5619 109.825V111.859C25.5619 112.06 25.6093 112.202 25.7157 112.32C25.8222 112.427 25.9641 112.486 26.1533 112.486Z" fill="#3C3C3B"/>
<path d="M28.4125 113.113V108.606H29.1695V113.113H28.4125ZM28.862 111.22V110.558H30.447V111.22H28.862ZM30.719 113.113L29.7964 111.126L30.376 110.653L31.5351 113.113H30.719ZM30.3642 111.161L29.8082 110.653L30.5889 108.618H31.3695L30.3642 111.161Z" fill="#3C3C3B"/>
<path d="M35.1781 113.184C34.7287 113.184 34.3738 113.066 34.1254 112.829C33.877 112.593 33.7588 112.261 33.7588 111.836V109.943C33.7588 109.494 33.877 109.151 34.1254 108.902C34.3738 108.654 34.7287 108.536 35.1781 108.536C35.6276 108.536 35.9824 108.654 36.2308 108.902C36.4792 109.151 36.6093 109.494 36.6093 109.955V110.05H35.876V109.955C35.876 109.718 35.8168 109.529 35.6986 109.411C35.5803 109.281 35.4147 109.222 35.19 109.222C34.9652 109.222 34.8115 109.281 34.6932 109.411C34.5749 109.541 34.5158 109.718 34.5158 109.955V111.847C34.5158 112.06 34.5749 112.226 34.6932 112.344C34.8115 112.462 34.977 112.522 35.19 112.522C35.4029 112.522 35.5803 112.462 35.6986 112.344C35.8168 112.226 35.876 112.06 35.876 111.836V111.741H36.6211V111.836C36.6211 112.261 36.491 112.604 36.2426 112.841C35.9943 113.077 35.6394 113.196 35.1781 113.196V113.184Z" fill="#3C3C3B"/>
<path d="M40.0513 113.113H39.3416V109.872L39.4481 109.99L37.9341 113.125H37.3427V108.63H38.0524V111.942L37.9459 111.824L39.4599 108.63H40.0513V113.125V113.113Z" fill="#3C3C3B"/>
<path d="M42.5943 111.126L43.4222 108.606H44.1437V113.113H43.4814V109.6L43.5405 109.872L42.8308 112.06H42.3695L41.648 109.908L41.719 109.588V113.101H41.0566V108.595H41.7781L42.6061 111.114L42.5943 111.126Z" fill="#3C3C3B"/>
<path d="M47.8341 113.113H47.1245V109.872L47.2309 109.99L45.7169 113.125H45.1255V108.63H45.8352V111.942L45.7288 111.824L47.2546 108.63H47.846V113.125L47.8341 113.113Z" fill="#3C3C3B"/>
<path d="M50.1642 113.184C49.7148 113.184 49.3599 113.066 49.1115 112.829C48.8632 112.593 48.7449 112.261 48.7449 111.836V109.943C48.7449 109.494 48.8632 109.151 49.1115 108.902C49.3599 108.654 49.7029 108.536 50.1642 108.536C50.6255 108.536 50.9685 108.654 51.2169 108.902C51.4653 109.151 51.5954 109.494 51.5954 109.955V110.05H50.8621V109.955C50.8621 109.718 50.8029 109.529 50.6847 109.411C50.5664 109.281 50.4008 109.222 50.1761 109.222C49.9513 109.222 49.7976 109.281 49.6793 109.411C49.561 109.541 49.5019 109.718 49.5019 109.955V111.847C49.5019 112.06 49.561 112.226 49.6793 112.344C49.7976 112.462 49.9632 112.522 50.1761 112.522C50.389 112.522 50.5664 112.462 50.6847 112.344C50.8029 112.226 50.8621 112.06 50.8621 111.836V111.741H51.6073V111.836C51.6073 112.261 51.4771 112.604 51.2288 112.841C50.9804 113.077 50.6255 113.196 50.1642 113.196V113.184Z" fill="#3C3C3B"/>
<path d="M51.6901 109.293V108.606H54.2331V109.293H51.6901ZM52.6008 113.113V108.606H53.3342V113.113H52.6008Z" fill="#3C3C3B"/>
<path d="M55.9008 113.184C55.475 113.184 55.1438 113.066 54.9073 112.841C54.6707 112.616 54.5524 112.285 54.5524 111.871V109.825C54.5524 109.411 54.6707 109.091 54.9073 108.879C55.1438 108.654 55.475 108.547 55.9008 108.547C56.3266 108.547 56.6578 108.654 56.8944 108.879C57.1309 109.103 57.2492 109.423 57.2492 109.825V111.883C57.2492 112.297 57.1309 112.616 56.8944 112.841C56.6578 113.066 56.3266 113.184 55.9008 113.184ZM55.9008 112.486C56.0901 112.486 56.2438 112.427 56.3384 112.32C56.4331 112.214 56.4922 112.06 56.4922 111.859V109.825C56.4922 109.636 56.4449 109.482 56.3384 109.375C56.232 109.269 56.0901 109.21 55.9008 109.21C55.7116 109.21 55.5696 109.269 55.4632 109.375C55.3567 109.482 55.3094 109.636 55.3094 109.825V111.859C55.3094 112.06 55.3567 112.202 55.4632 112.32C55.5696 112.427 55.7116 112.486 55.9008 112.486Z" fill="#3C3C3B"/>
<path d="M58.16 114.946V108.606H58.917V114.946H58.16ZM59.8396 113.184C59.603 113.184 59.4019 113.113 59.2127 112.983C59.0353 112.853 58.9052 112.664 58.846 112.415L58.9052 111.729C58.9052 111.895 58.9288 112.048 58.988 112.167C59.0353 112.285 59.1181 112.38 59.2127 112.451C59.3073 112.522 59.4256 112.545 59.5675 112.545C59.7804 112.545 59.946 112.474 60.0643 112.332C60.1826 112.19 60.2417 111.977 60.2417 111.717V110.002C60.2417 109.742 60.1826 109.541 60.0643 109.399C59.946 109.257 59.7804 109.186 59.5675 109.186C59.4256 109.186 59.3073 109.222 59.2127 109.281C59.1181 109.34 59.0353 109.434 58.988 109.553C58.9407 109.671 58.9052 109.813 58.9052 109.99L58.8105 109.375C58.9052 109.103 59.0471 108.902 59.2482 108.76C59.4493 108.618 59.6503 108.547 59.8869 108.547C60.2299 108.547 60.502 108.677 60.6912 108.926C60.8804 109.174 60.9751 109.529 60.9751 109.99V111.729C60.9751 112.19 60.8805 112.557 60.6794 112.805C60.4783 113.066 60.2063 113.196 59.8396 113.196V113.184Z" fill="#3C3C3B"/>
<path d="M63.1396 113.184C62.7138 113.184 62.3826 113.066 62.146 112.841C61.9095 112.616 61.7912 112.285 61.7912 111.871V109.825C61.7912 109.411 61.9095 109.091 62.146 108.879C62.3826 108.654 62.7138 108.547 63.1396 108.547C63.5654 108.547 63.8966 108.654 64.1331 108.879C64.3697 109.103 64.488 109.423 64.488 109.825V111.883C64.488 112.297 64.3697 112.616 64.1331 112.841C63.8966 113.066 63.5654 113.184 63.1396 113.184ZM63.1396 112.486C63.3288 112.486 63.4708 112.427 63.5772 112.32C63.6837 112.214 63.731 112.06 63.731 111.859V109.825C63.731 109.636 63.6837 109.482 63.5772 109.375C63.4708 109.269 63.3288 109.21 63.1396 109.21C62.9503 109.21 62.8084 109.269 62.7019 109.375C62.5955 109.482 62.5482 109.636 62.5482 109.825V111.859C62.5482 112.06 62.5955 112.202 62.7019 112.32C62.8084 112.439 62.9503 112.486 63.1396 112.486Z" fill="#3C3C3B"/>
<path d="M65.3987 113.113V108.606H66.1557V113.113H65.3987ZM65.931 113.113V112.427H67.031C67.1375 112.427 67.2321 112.391 67.2794 112.332C67.3267 112.273 67.3622 112.179 67.3622 112.048V111.575C67.3622 111.422 67.3149 111.291 67.2203 111.209C67.1256 111.126 66.9955 111.079 66.8418 111.079H65.931V110.393H66.8418C67.1375 110.393 67.2794 110.251 67.2794 109.967V109.565C67.2794 109.375 67.1729 109.281 66.9482 109.281H65.931V108.595H67.031C67.3504 108.595 67.5988 108.666 67.7762 108.819C67.9536 108.973 68.0364 109.186 68.0364 109.47V109.99C68.0364 110.191 67.9772 110.357 67.8708 110.487C67.7643 110.617 67.5988 110.7 67.4095 110.736C67.6342 110.771 67.8117 110.854 67.9418 110.996C68.0719 111.138 68.131 111.327 68.131 111.552V112.131C68.131 112.439 68.0364 112.675 67.859 112.841C67.6697 113.007 67.4095 113.089 67.0783 113.089H65.9428L65.931 113.113Z" fill="#3C3C3B"/>
<path d="M14.4673 123.782V119.275H15.2243V123.782H14.4673ZM14.9877 121.901V121.227H16.8566V121.901H14.9877ZM16.4189 123.782V119.275H17.1759V123.782H16.4189Z" fill="#3C3C3B"/>
<path d="M19.2932 123.841C18.9028 123.841 18.5953 123.735 18.3942 123.522C18.1932 123.309 18.0985 123.001 18.0985 122.575C18.0985 122.067 18.2168 121.688 18.4652 121.44C18.7136 121.192 19.0684 121.061 19.5534 121.061H20.2749L20.334 121.653H19.5534C19.305 121.653 19.1158 121.724 18.9975 121.878C18.8792 122.031 18.8082 122.256 18.8082 122.564C18.8082 122.788 18.8674 122.954 18.9738 123.06C19.0803 123.167 19.2459 123.226 19.4706 123.226C19.719 123.226 19.9082 123.155 20.0383 123.025C20.1684 122.895 20.2276 122.694 20.2276 122.433L20.3222 122.824C20.3222 123.049 20.2749 123.226 20.2039 123.38C20.133 123.522 20.0147 123.64 19.8609 123.711C19.7072 123.782 19.5179 123.817 19.2932 123.817V123.841ZM20.2276 123.782V120.482C20.2276 120.269 20.1684 120.103 20.0502 119.997C19.9319 119.879 19.7545 119.819 19.5416 119.819C19.3523 119.819 19.1985 119.879 19.0921 119.997C18.9856 120.115 18.9265 120.281 18.9383 120.494H18.205C18.205 120.08 18.3233 119.76 18.5598 119.547C18.7964 119.323 19.1394 119.216 19.5652 119.216C19.991 119.216 20.3459 119.323 20.5943 119.547C20.8426 119.772 20.9609 120.092 20.9609 120.494V123.794H20.2394L20.2276 123.782Z" fill="#3C3C3B"/>
<path d="M23.433 123.782V123.096H26.8749V123.782H23.433ZM23.433 124.917V123.108H24.1899V124.917H23.433ZM23.5631 123.616V123.096H23.6695C23.776 123.096 23.8588 123.06 23.9416 122.978C24.0125 122.895 24.0717 122.776 24.1071 122.623C24.1426 122.469 24.1663 122.28 24.1663 122.067V119.264H24.9233V122.185C24.9233 122.67 24.8168 123.025 24.6158 123.261C24.4147 123.498 24.1308 123.616 23.7641 123.616H23.5631ZM24.6749 119.961V119.275H26.2362V119.961H24.6749ZM25.9641 123.782V119.275H26.7211V123.782H25.9641ZM26.6265 124.917V123.108H27.3835V124.917H26.6265Z" fill="#3C3C3B"/>
<path d="M27.9986 123.782V119.275H28.7556V123.782H27.9986ZM28.5427 123.782V123.096H29.6427C29.7491 123.096 29.8438 123.06 29.8911 123.001C29.9384 122.942 29.9739 122.847 29.9739 122.717V122.244C29.9739 122.09 29.9266 121.96 29.8319 121.878C29.7373 121.795 29.6072 121.747 29.4534 121.747H28.5427V121.061H29.4534C29.7491 121.061 29.8911 120.919 29.8911 120.636V120.233C29.8911 120.044 29.7846 119.95 29.5599 119.95H28.5427V119.264H29.6427C29.962 119.264 30.2104 119.335 30.3879 119.488C30.5653 119.642 30.6481 119.855 30.6481 120.139V120.659C30.6481 120.86 30.5889 121.026 30.4825 121.156C30.376 121.286 30.2104 121.369 30.0212 121.404C30.2459 121.44 30.4233 121.523 30.5535 121.665C30.6836 121.807 30.7427 121.996 30.7427 122.221V122.8C30.7427 123.108 30.6481 123.344 30.4707 123.51C30.2814 123.675 30.0212 123.758 29.69 123.758H28.5545L28.5427 123.782Z" fill="#3C3C3B"/>
<path d="M32.6706 123.841C32.2802 123.841 31.9727 123.735 31.7835 123.522C31.5824 123.309 31.4878 123.001 31.4878 122.575C31.4878 122.067 31.606 121.688 31.8544 121.44C32.091 121.192 32.4577 121.061 32.9426 121.061H33.6641L33.7233 121.653H32.9426C32.6942 121.653 32.505 121.724 32.3867 121.878C32.2684 122.031 32.1974 122.256 32.1974 122.564C32.1974 122.788 32.2566 122.954 32.363 123.06C32.4695 123.167 32.6351 123.226 32.8598 123.226C33.1082 123.226 33.2974 123.155 33.4276 123.025C33.5577 122.895 33.6168 122.694 33.6168 122.433L33.7114 122.824C33.7114 123.049 33.6641 123.226 33.5932 123.38C33.5222 123.533 33.4039 123.64 33.2501 123.711C33.0964 123.782 32.9071 123.817 32.6824 123.817L32.6706 123.841ZM33.605 123.782V120.482C33.605 120.269 33.5458 120.103 33.4276 119.997C33.3093 119.89 33.1319 119.819 32.919 119.819C32.7297 119.819 32.5759 119.879 32.4695 119.997C32.363 120.115 32.3039 120.281 32.3157 120.494H31.5824C31.5824 120.08 31.7007 119.76 31.9372 119.547C32.1738 119.323 32.5168 119.216 32.9426 119.216C33.3684 119.216 33.7233 119.323 33.9716 119.547C34.22 119.772 34.3383 120.092 34.3383 120.494V123.794H33.6168L33.605 123.782Z" fill="#3C3C3B"/>
<path d="M37.1889 123.782V119.275H37.9459V123.782H37.1889ZM37.733 123.782V123.096H38.833C38.9395 123.096 39.0341 123.06 39.0814 123.001C39.1287 122.942 39.1642 122.847 39.1642 122.717V122.244C39.1642 122.09 39.1169 121.96 39.0222 121.878C38.9276 121.795 38.7975 121.747 38.6437 121.747H37.733V121.061H38.6437C38.9395 121.061 39.0814 120.919 39.0814 120.636V120.233C39.0814 120.044 38.9749 119.95 38.7502 119.95H37.733V119.264H38.833C39.1524 119.264 39.4007 119.335 39.5782 119.488C39.7556 119.642 39.8384 119.855 39.8384 120.139V120.659C39.8384 120.86 39.7792 121.026 39.6728 121.156C39.5663 121.286 39.4007 121.369 39.2115 121.404C39.4362 121.44 39.6136 121.523 39.7438 121.665C39.8739 121.807 39.933 121.996 39.933 122.221V122.8C39.933 123.108 39.8384 123.344 39.661 123.51C39.4717 123.675 39.2115 123.758 38.8803 123.758H37.7448L37.733 123.782Z" fill="#3C3C3B"/>
<path d="M40.7373 123.782V119.275H41.4943V123.782H40.7373ZM41.1986 123.782V123.096H42.0384C42.2395 123.096 42.3933 123.037 42.4997 122.93C42.6062 122.824 42.6653 122.67 42.6653 122.469V122.126C42.6653 121.925 42.6062 121.771 42.4997 121.653C42.3933 121.534 42.2395 121.487 42.0384 121.487H41.1986V120.801H42.1922C42.5825 120.801 42.89 120.908 43.1029 121.12C43.3158 121.333 43.4223 121.629 43.4223 122.008V122.575C43.4223 122.954 43.304 123.25 43.0793 123.462C42.8546 123.675 42.5234 123.782 42.0976 123.782H41.1986ZM43.8718 123.782V119.275H44.6288V123.782H43.8718Z" fill="#3C3C3B"/>
<path d="M45.1492 123.782L46.5685 121.333L46.9234 121.972L45.9771 123.794H45.1492V123.782ZM47.6922 123.782L46.5804 121.736L45.232 119.275H46.0599L47.0298 121.298L48.532 123.782H47.704H47.6922ZM47.1008 121.676L46.7815 121.085L47.6331 119.287H48.461L47.1126 121.676H47.1008Z" fill="#3C3C3B"/>
<path d="M50.2589 123.841C49.833 123.841 49.5019 123.723 49.2653 123.498C49.0287 123.273 48.9105 122.942 48.9105 122.528V120.482C48.9105 120.068 49.0287 119.748 49.2653 119.536C49.5019 119.311 49.833 119.204 50.2589 119.204C50.6847 119.204 51.0158 119.311 51.2524 119.536C51.489 119.76 51.6072 120.08 51.6072 120.482V122.54C51.6072 122.954 51.489 123.273 51.2524 123.498C51.0158 123.723 50.6847 123.841 50.2589 123.841ZM50.247 123.155C50.4363 123.155 50.5782 123.096 50.6847 122.989C50.7911 122.883 50.8384 122.729 50.8384 122.528V120.494C50.8384 120.304 50.7911 120.151 50.6847 120.044C50.5782 119.938 50.4363 119.879 50.247 119.879C50.0578 119.879 49.9158 119.938 49.8094 120.044C49.7029 120.151 49.6556 120.304 49.6556 120.494V122.528C49.6556 122.729 49.7029 122.871 49.8094 122.989C49.9158 123.108 50.0578 123.155 50.247 123.155Z" fill="#3C3C3B"/>
<path d="M51.9029 123.782V123.096H55.3449V123.782H51.9029ZM51.9029 124.917V123.108H52.6599V124.917H51.9029ZM52.033 123.616V123.096H52.1395C52.246 123.096 52.3406 123.06 52.4115 122.978C52.4825 122.895 52.5417 122.776 52.5771 122.623C52.6126 122.469 52.6363 122.28 52.6363 122.067V119.264H53.3814V122.185C53.3814 122.67 53.275 123.025 53.0739 123.261C52.8728 123.498 52.589 123.616 52.2223 123.616H52.0212H52.033ZM53.1449 119.961V119.275H54.7062V119.961H53.1449ZM54.4341 123.782V119.275H55.1911V123.782H54.4341ZM55.0965 124.917V123.108H55.8535V124.917H55.0965Z" fill="#3C3C3B"/>
<path d="M57.5923 123.841C57.2019 123.841 56.8944 123.735 56.7052 123.522C56.5041 123.309 56.4095 123.001 56.4095 122.575C56.4095 122.067 56.5277 121.688 56.7761 121.44C57.0127 121.192 57.3794 121.061 57.8643 121.061H58.5858L58.645 121.653H57.8643C57.6159 121.653 57.4267 121.724 57.3084 121.878C57.1901 122.031 57.1191 122.256 57.1191 122.564C57.1191 122.788 57.1783 122.954 57.2847 123.06C57.3912 123.167 57.5568 123.226 57.7815 123.226C58.0299 123.226 58.2191 123.155 58.3492 123.025C58.4794 122.895 58.5385 122.694 58.5385 122.433L58.6331 122.824C58.6331 123.049 58.5858 123.226 58.5148 123.38C58.4439 123.533 58.3256 123.64 58.1718 123.711C58.0181 123.782 57.8288 123.817 57.6041 123.817L57.5923 123.841ZM58.5267 123.782V120.482C58.5267 120.269 58.4675 120.103 58.3492 119.997C58.231 119.89 58.0535 119.819 57.8406 119.819C57.6514 119.819 57.4976 119.879 57.3912 119.997C57.2847 120.115 57.2256 120.281 57.2374 120.494H56.5041C56.5041 120.08 56.6224 119.76 56.8589 119.547C57.0955 119.323 57.4385 119.216 57.8643 119.216C58.2901 119.216 58.645 119.323 58.8933 119.547C59.1417 119.772 59.26 120.092 59.26 120.494V123.794H58.5385L58.5267 123.782Z" fill="#3C3C3B"/>
<path d="M61.7321 123.782V123.096H65.174V123.782H61.7321ZM61.7321 124.917V123.108H62.4891V124.917H61.7321ZM61.8622 123.616V123.096H61.9686C62.0751 123.096 62.1697 123.06 62.2407 122.978C62.3116 122.895 62.3708 122.776 62.4063 122.623C62.4418 122.469 62.4654 122.28 62.4654 122.067V119.264H63.2106V122.185C63.2106 122.67 63.1041 123.025 62.903 123.261C62.702 123.498 62.4181 123.616 62.0514 123.616H61.8504H61.8622ZM62.974 119.961V119.275H64.5353V119.961H62.974ZM64.2633 123.782V119.275H65.0203V123.782H64.2633ZM64.9256 124.917V123.108H65.6826V124.917H64.9256Z" fill="#3C3C3B"/>
<path d="M65.9783 123.817V123.155C66.1084 123.155 66.2148 123.119 66.274 123.037C66.3331 122.954 66.3804 122.836 66.3804 122.682V119.275H67.1374V122.729C67.1374 123.084 67.0428 123.356 66.8654 123.533C66.688 123.711 66.4159 123.805 66.0729 123.805H65.9783V123.817ZM66.96 119.961V119.275H68.5331V119.961H66.96ZM68.2138 123.782V119.275H68.9708V123.782H68.2138Z" fill="#3C3C3B"/>
<path d="M72.2353 122.28H71.0644C70.674 122.28 70.3665 122.173 70.1536 121.96C69.9407 121.747 69.8343 121.452 69.8343 121.073V120.47C69.8343 120.092 69.9525 119.796 70.1773 119.583C70.4138 119.37 70.7332 119.264 71.1472 119.264H72.2353V119.95H71.2063C71.0052 119.95 70.8515 120.009 70.745 120.115C70.6386 120.222 70.5794 120.375 70.5794 120.576V120.955C70.5794 121.156 70.6386 121.31 70.745 121.416C70.8515 121.523 71.0052 121.582 71.2063 121.582H72.2353V122.268V122.28ZM70.674 123.782H69.8697L70.7214 121.842L71.4429 122.043L70.6859 123.782H70.674ZM72.6257 123.782H71.8687V119.275H72.6257V123.782Z" fill="#3C3C3B"/>
<path d="M21.7416 132.416L23.1609 128.134H23.8588V134.439H23.1491V129.518L23.2082 129.79L22.0136 133.481H21.4577L20.2631 129.873L20.334 129.507V134.427H19.6125V128.123H20.3222L21.7297 132.404L21.7416 132.416Z" fill="#3C3C3B"/>
<path d="M25.9759 134.77L24.4974 129.944H25.2662L26.3071 133.812L25.9759 134.77ZM26.934 129.944H27.7028L26.2243 135.503C26.1533 135.775 25.9996 135.988 25.7867 136.118C25.5619 136.26 25.2662 136.319 24.8759 136.319H24.7931V135.633H24.8759C25.1125 135.633 25.3017 135.586 25.42 135.48C25.5501 135.373 25.6329 135.219 25.692 135.018L26.9458 129.932L26.934 129.944Z" fill="#3C3C3B"/>
<path d="M28.2469 134.439V128.134H29.0039V134.439H28.2469ZM28.8265 131.683V130.997H30.8491V131.683H28.8265ZM30.5179 134.439V128.134H31.2749V134.439H30.5179Z" fill="#3C3C3B"/>
<path d="M33.5695 134.51C33.12 134.51 32.7652 134.38 32.5168 134.119C32.2684 133.859 32.1383 133.493 32.1383 133.019V131.458C32.1383 130.95 32.2566 130.571 32.5049 130.287C32.7533 130.015 33.0963 129.873 33.534 129.873C33.9716 129.873 34.3265 130.003 34.5748 130.252C34.8232 130.512 34.9415 130.867 34.9415 131.34V132.487H32.6469V131.86H34.2082V131.352C34.2082 131.092 34.149 130.89 34.0308 130.749C33.9125 130.607 33.7469 130.536 33.534 130.536C33.3211 130.536 33.1673 130.607 33.049 130.76C32.9308 130.914 32.8716 131.127 32.8716 131.399V133.031C32.8716 133.28 32.9308 133.481 33.049 133.623C33.1673 133.765 33.3447 133.836 33.5576 133.836C33.7587 133.836 33.9243 133.776 34.0426 133.67C34.1609 133.564 34.2082 133.41 34.2082 133.209V133.173H34.9415V133.209C34.9415 133.623 34.8232 133.942 34.5748 134.167C34.3383 134.392 33.9953 134.51 33.5576 134.51H33.5695Z" fill="#3C3C3B"/>
<path d="M36.9879 134.51C36.5975 134.51 36.29 134.403 36.0889 134.19C35.8879 133.978 35.7932 133.67 35.7932 133.244C35.7932 132.736 35.9115 132.357 36.1599 132.109C36.4083 131.86 36.7631 131.73 37.2481 131.73H37.9696L38.0287 132.322H37.2481C36.9997 132.322 36.8105 132.393 36.6922 132.546C36.5739 132.7 36.5029 132.925 36.5029 133.232C36.5029 133.457 36.5621 133.623 36.6685 133.729C36.775 133.836 36.9406 133.895 37.1653 133.895C37.4137 133.895 37.6029 133.824 37.733 133.694C37.8631 133.564 37.9223 133.362 37.9223 133.102L38.0169 133.493C38.0169 133.717 37.9696 133.895 37.8986 134.049C37.8277 134.19 37.7094 134.309 37.5556 134.38C37.4019 134.451 37.2126 134.486 36.9879 134.486V134.51ZM37.9223 134.439V131.139C37.9223 130.926 37.8631 130.76 37.7449 130.654C37.6266 130.536 37.4492 130.476 37.2363 130.476C37.047 130.476 36.8932 130.536 36.7868 130.654C36.6803 130.772 36.6212 130.938 36.633 131.151H35.8997C35.8997 130.737 36.018 130.417 36.2545 130.204C36.4911 129.98 36.8341 129.873 37.2599 129.873C37.6857 129.873 38.0406 129.98 38.289 130.204C38.5373 130.429 38.6556 130.748 38.6556 131.151V134.451H37.9341L37.9223 134.439Z" fill="#3C3C3B"/>
<path d="M39.2707 130.618V129.932H41.2933V130.618H39.2707ZM40.8556 134.463C40.4653 134.463 40.1932 134.356 40.0158 134.155C39.8384 133.954 39.7556 133.658 39.7556 133.268V128.619H40.5126V133.268C40.5126 133.433 40.5481 133.552 40.6191 133.646C40.69 133.729 40.8083 133.776 40.9502 133.776H41.2933V134.463H40.8556Z" fill="#3C3C3B"/>
<path d="M45.4449 134.51C45.09 134.51 44.7943 134.451 44.5578 134.344C44.3212 134.238 44.1438 134.072 44.0255 133.847C43.9072 133.623 43.8481 133.351 43.8481 133.031V132.724H44.5933V133.019C44.5933 133.291 44.6642 133.481 44.8062 133.623C44.9481 133.765 45.161 133.824 45.4449 133.824C45.7287 133.824 45.918 133.753 46.0599 133.623C46.2019 133.481 46.2728 133.291 46.2728 133.019V132.558C46.2728 132.357 46.2255 132.203 46.1309 132.073C46.0363 131.943 45.9062 131.837 45.7524 131.754C45.5986 131.671 45.433 131.576 45.2556 131.505C45.09 131.434 44.9244 131.352 44.7588 131.257C44.5932 131.174 44.4395 131.068 44.3094 130.95C44.1674 130.831 44.061 130.689 43.9782 130.512C43.8954 130.334 43.8481 130.122 43.8481 129.873V129.53C43.8481 129.045 43.9782 128.69 44.2502 128.442C44.5223 128.194 44.9126 128.075 45.433 128.075C45.9535 128.075 46.332 128.205 46.5922 128.454C46.8524 128.702 46.9825 129.069 46.9825 129.554V129.885H46.2373V129.577C46.2373 129.305 46.1664 129.116 46.0363 128.974C45.9062 128.844 45.7051 128.773 45.433 128.773C45.161 128.773 44.9481 128.832 44.8062 128.962C44.6642 129.093 44.5933 129.282 44.5933 129.53V129.885C44.5933 130.086 44.6524 130.252 44.7588 130.382C44.8653 130.512 45.0072 130.618 45.1847 130.701C45.3621 130.784 45.5395 130.879 45.7287 130.961C45.8825 131.032 46.0363 131.103 46.19 131.186C46.3438 131.269 46.4857 131.364 46.604 131.482C46.7341 131.6 46.8287 131.742 46.8997 131.908C46.9707 132.073 47.0062 132.298 47.0062 132.546V133.031C47.0062 133.516 46.8761 133.883 46.604 134.131C46.332 134.38 45.9416 134.51 45.4212 134.51H45.4449Z" fill="#3C3C3B"/>
<path d="M47.9288 134.439V129.932H48.6858V134.439H47.9288ZM49.9514 134.439V131.281C49.9514 131.032 49.9041 130.843 49.8094 130.713C49.7148 130.595 49.561 130.524 49.36 130.524C49.1352 130.524 48.9696 130.595 48.8514 130.725C48.7331 130.855 48.6858 131.056 48.6858 131.34L48.5911 130.689C48.6976 130.405 48.8514 130.193 49.0288 130.062C49.218 129.92 49.4309 129.861 49.6793 129.861C50.0223 129.861 50.2825 129.968 50.4481 130.193C50.6256 130.417 50.7084 130.737 50.7084 131.174V134.451H49.9514V134.439ZM51.9858 134.439V131.281C51.9858 131.032 51.9266 130.843 51.8202 130.713C51.7137 130.595 51.5363 130.524 51.3116 130.524C51.1105 130.524 50.9567 130.595 50.8621 130.725C50.7675 130.855 50.7202 131.068 50.7202 131.34L50.5664 130.748C50.661 130.453 50.803 130.228 50.9922 130.074C51.1815 129.92 51.3944 129.85 51.6428 129.85C52.0094 129.85 52.2933 129.956 52.4707 130.181C52.66 130.405 52.7546 130.725 52.7546 131.162V134.439H51.9976H51.9858Z" fill="#3C3C3B"/>
<path d="M54.86 134.51C54.4696 134.51 54.1621 134.403 53.961 134.19C53.76 133.978 53.6653 133.67 53.6653 133.244C53.6653 132.736 53.7836 132.357 54.032 132.109C54.2804 131.86 54.6352 131.73 55.1202 131.73H55.8417L55.9008 132.322H55.1202C54.8718 132.322 54.6825 132.393 54.5643 132.546C54.446 132.7 54.375 132.925 54.375 133.232C54.375 133.457 54.4342 133.623 54.5406 133.729C54.6471 133.836 54.8126 133.895 55.0374 133.895C55.2858 133.895 55.475 133.824 55.6051 133.694C55.7352 133.564 55.7944 133.362 55.7944 133.102L55.889 133.493C55.889 133.717 55.8417 133.895 55.7707 134.049C55.6997 134.19 55.5815 134.309 55.4277 134.38C55.2739 134.451 55.0847 134.486 54.86 134.486V134.51ZM55.7944 134.439V131.139C55.7944 130.926 55.7352 130.76 55.617 130.654C55.4987 130.536 55.3213 130.476 55.1083 130.476C54.9191 130.476 54.7653 130.536 54.6589 130.654C54.5524 130.772 54.4933 130.938 54.5051 131.151H53.7718C53.7718 130.737 53.8901 130.417 54.1266 130.204C54.3632 129.98 54.7062 129.873 55.132 129.873C55.5578 129.873 55.9127 129.98 56.161 130.204C56.4094 130.429 56.5277 130.748 56.5277 131.151V134.451H55.8062L55.7944 134.439Z" fill="#3C3C3B"/>
<path d="M57.5094 134.439V129.932H58.2664V134.439H57.5094ZM59.6621 130.559H59.5675C59.1772 130.559 58.8578 130.654 58.6331 130.831C58.4083 131.009 58.2782 131.269 58.2664 131.588L58.1718 130.713C58.3374 130.441 58.5503 130.228 58.7987 130.074C59.0589 129.92 59.3427 129.85 59.6503 129.85V130.547L59.6621 130.559Z" fill="#3C3C3B"/>
<path d="M60.0525 130.618V129.932H62.0751V130.618H60.0525ZM61.6256 134.463C61.2353 134.463 60.9632 134.356 60.7858 134.155C60.6084 133.954 60.5256 133.658 60.5256 133.268V128.619H61.2826V133.268C61.2826 133.433 61.3181 133.552 61.389 133.646C61.46 133.729 61.5665 133.776 61.7202 133.776H62.0632V134.463H61.6256Z" fill="#3C3C3B"/>
<path d="M64.6063 134.439V133.836L66.1794 131.222C66.3686 130.902 66.5106 130.607 66.617 130.323C66.7235 130.039 66.7708 129.79 66.7708 129.578C66.7708 129.306 66.7116 129.104 66.6052 128.962C66.4987 128.821 66.3331 128.75 66.1202 128.75C65.8718 128.75 65.6826 128.844 65.5525 129.033C65.4224 129.223 65.3514 129.495 65.3514 129.85H64.5708C64.5708 129.258 64.7009 128.809 64.9611 128.513C65.2213 128.206 65.588 128.052 66.0729 128.052C66.5579 128.052 66.9245 128.182 67.1848 128.442C67.4332 128.702 67.5633 129.081 67.5633 129.566C67.5633 129.826 67.5159 130.11 67.4095 130.441C67.303 130.76 67.1493 131.103 66.9364 131.458L65.5525 133.753H67.5514V134.439H64.6063Z" fill="#3C3C3B"/>
<path d="M18.4124 81.7807V76.7301H18.9328V81.7807H18.4124ZM18.7909 81.7807V81.3194H19.9145C20.0801 81.3194 20.1984 81.2721 20.293 81.1656C20.3876 81.0592 20.4231 80.9172 20.4231 80.7398V79.829C20.4231 79.6398 20.3758 79.486 20.293 79.3914C20.2102 79.285 20.0801 79.2376 19.9145 79.2376H18.7909V78.7763H19.8909C20.1156 78.7763 20.3048 78.8237 20.4586 78.9065C20.6124 78.9893 20.7306 79.1075 20.8134 79.2731C20.8962 79.4387 20.9436 79.628 20.9436 79.8527V80.7635C20.9436 80.9882 20.8962 81.1774 20.8134 81.3312C20.7306 81.485 20.6124 81.6032 20.4468 81.686C20.2812 81.7688 20.1038 81.8043 19.879 81.8043H18.779L18.7909 81.7807ZM18.8736 77.2032V76.7419H20.636V77.2032H18.8736Z" fill="#3C3C3B"/>
<path d="M21.3576 81.8162V81.3549C21.4641 81.3549 21.5351 81.3194 21.5942 81.2603C21.6533 81.2011 21.677 81.1065 21.677 80.9764V78.185H22.1974V81C22.1974 81.2603 22.1265 81.4613 21.9963 81.6033C21.8662 81.7452 21.677 81.8162 21.4286 81.8162H21.3576ZM22.1383 78.6463V78.185H23.3921V78.6463H22.1383ZM23.2265 81.7807V78.1731H23.7469V81.7807H23.2265Z" fill="#3C3C3B"/>
<path d="M25.5447 81.8396C25.2017 81.8396 24.9414 81.745 24.7522 81.5675C24.5629 81.3901 24.4683 81.1299 24.4683 80.7987V79.1546C24.4683 78.8234 24.5629 78.5751 24.7522 78.3976C24.9414 78.2202 25.2017 78.1256 25.5447 78.1256C25.8877 78.1256 26.1479 78.2202 26.3372 78.3976C26.5264 78.5751 26.621 78.8353 26.621 79.1546V80.7987C26.621 81.1299 26.5264 81.3783 26.3372 81.5675C26.1479 81.7568 25.8877 81.8396 25.5447 81.8396ZM25.5447 81.3665C25.7221 81.3665 25.864 81.3192 25.9587 81.2127C26.0533 81.1063 26.1006 80.9761 26.1006 80.7869V79.1428C26.1006 78.9654 26.0533 78.8234 25.9587 78.7288C25.864 78.6342 25.7221 78.5751 25.5447 78.5751C25.3673 78.5751 25.2371 78.6224 25.1307 78.7288C25.0242 78.8353 24.9888 78.9654 24.9888 79.1428V80.7869C24.9888 80.9643 25.0361 81.1063 25.1307 81.2127C25.2253 81.3192 25.3673 81.3665 25.5447 81.3665Z" fill="#3C3C3B"/>
<path d="M27.3543 81.7807V78.1731H27.8747V81.7807H27.3543ZM27.7091 80.2194V79.7699H28.9747V80.2194H27.7091ZM29.2704 81.7807L28.4898 80.1129L28.9156 79.8172L29.8382 81.7807H29.2586H29.2704ZM28.9038 80.2194L28.5016 79.8882L29.1522 78.185H29.7081L28.9038 80.2194Z" fill="#3C3C3B"/>
<path d="M13.9414 88.9483L15.1242 85.2698H15.6328V90.3204H15.136V86.2634L15.1715 86.4881L14.1661 89.6225H13.7285L12.7231 86.5591L12.7586 86.2634V90.3204H12.25V85.2698H12.7586L13.9414 88.9483Z" fill="#3C3C3B"/>
<path d="M17.3598 90.557L16.1533 86.7129H16.6856L17.549 89.7882L17.3598 90.557ZM18.1759 86.7129H18.7082L17.4662 91.1602C17.4071 91.385 17.2888 91.5506 17.1114 91.657C16.934 91.7635 16.6974 91.8226 16.3781 91.8226H16.3426V91.3495H16.3781C16.591 91.3495 16.7447 91.3022 16.8512 91.2076C16.9576 91.1129 17.0404 90.971 17.0996 90.7936L18.1641 86.7247L18.1759 86.7129Z" fill="#3C3C3B"/>
<path d="M19.1457 90.3086V85.258H19.6661V90.3086H19.1457ZM19.607 88.0612V87.5999H21.2274V88.0612H19.607ZM21.05 90.3086V85.258H21.5704V90.3086H21.05Z" fill="#3C3C3B"/>
<path d="M23.4039 90.3678C23.0372 90.3678 22.7651 90.2614 22.5641 90.0485C22.363 89.8356 22.2684 89.5399 22.2684 89.1614V87.9076C22.2684 87.5054 22.363 87.1861 22.5641 86.9732C22.7651 86.7484 23.0372 86.642 23.3802 86.642C23.7232 86.642 24.0189 86.7484 24.2082 86.9495C24.4092 87.1506 24.5039 87.4463 24.5039 87.813V88.7119H22.5759V88.2506H23.9716V87.8366C23.9716 87.6119 23.9243 87.4345 23.8178 87.3044C23.7114 87.1742 23.5695 87.1151 23.3684 87.1151C23.1673 87.1151 23.0372 87.1861 22.9307 87.3162C22.8243 87.4463 22.777 87.6355 22.777 87.8839V89.185C22.777 89.4097 22.8361 89.5872 22.9426 89.7173C23.049 89.8474 23.2028 89.9065 23.4039 89.9065C23.5931 89.9065 23.735 89.8592 23.8415 89.7528C23.948 89.6463 23.9953 89.5162 23.9953 89.3269V89.3033H24.5157V89.3269C24.5157 89.6581 24.4211 89.9065 24.22 90.0958C24.0307 90.2732 23.7587 90.3678 23.4039 90.3678Z" fill="#3C3C3B"/>
<path d="M26.1716 90.3678C25.8404 90.3678 25.592 90.285 25.4383 90.1194C25.2845 89.9538 25.1899 89.6936 25.1899 89.3624C25.1899 88.9603 25.2845 88.6528 25.4856 88.4517C25.6748 88.2506 25.9705 88.156 26.349 88.156H27.0232L27.0705 88.5226H26.349C26.1243 88.5226 25.9469 88.5936 25.8404 88.7355C25.734 88.8775 25.663 89.0904 25.663 89.3743C25.663 89.5872 25.7103 89.7528 25.8168 89.8592C25.9232 89.9657 26.077 90.013 26.2781 90.013C26.5146 90.013 26.6802 89.9538 26.7985 89.8356C26.9168 89.7173 26.9759 89.5399 26.9759 89.3033L27.0469 89.599C27.0469 89.7646 27.0114 89.9184 26.9404 90.0248C26.8695 90.1431 26.7748 90.2259 26.6447 90.285C26.5146 90.3442 26.349 90.3678 26.1598 90.3678H26.1716ZM26.9759 90.3087V87.671C26.9759 87.4818 26.9168 87.328 26.8103 87.2216C26.7039 87.1151 26.5383 87.0678 26.3372 87.0678C26.1598 87.0678 26.0178 87.1151 25.9114 87.2216C25.8049 87.328 25.7576 87.4818 25.7576 87.671H25.249C25.249 87.3398 25.3436 87.0915 25.5329 86.914C25.7221 86.7366 25.9942 86.642 26.3372 86.642C26.6802 86.642 26.9641 86.7366 27.1533 86.914C27.3426 87.0915 27.449 87.3517 27.449 87.671V90.3087H26.9641H26.9759Z" fill="#3C3C3B"/>
<path d="M27.9695 87.1741V86.7128H29.59V87.1741H27.9695ZM29.2351 90.3322C28.9276 90.3322 28.7029 90.2494 28.5609 90.0838C28.419 89.9182 28.348 89.6816 28.348 89.3741V85.6601H28.8685V89.3859C28.8685 89.5397 28.904 89.658 28.9749 89.7408C29.0459 89.8236 29.1523 89.8709 29.2943 89.8709H29.5782V90.3322H29.2233H29.2351Z" fill="#3C3C3B"/>
<path d="M39.9394 89.8V77.1795H41.9028V89.8H39.9394ZM40.8383 84.4656V82.6559H43.2512C43.6297 82.6559 43.9254 82.5613 44.1383 82.3602C44.3512 82.1591 44.4577 81.8871 44.4577 81.5322V80.1838C44.4577 79.8053 44.3512 79.5096 44.1383 79.3085C43.9254 79.0956 43.6297 78.9892 43.2512 78.9892H40.8383V77.1795H43.0975C43.8072 77.1795 44.4104 77.286 44.9072 77.5107C45.4039 77.7354 45.7943 78.0548 46.0545 78.4924C46.3147 78.9301 46.4566 79.4387 46.4566 80.0419V81.5204C46.4566 82.1473 46.3265 82.6795 46.0545 83.1172C45.7824 83.5548 45.4039 83.8978 44.9072 84.1226C44.4104 84.3473 43.8072 84.4656 43.0975 84.4656H40.8383ZM44.6824 89.8L42.8964 84.0752L44.7297 83.6731L46.8351 89.8H44.6824Z" fill="#3C3C3B"/>
<path d="M48.3136 89.8V77.1795H50.3008V89.8H48.3136ZM49.2362 89.8V87.9903H53.8728V89.8H49.2362Z" fill="#3C3C3B"/>
<path d="M55.0202 89.8001V88.1087L57.8234 83.3775C58.2256 82.7151 58.5213 82.1119 58.7105 81.5678C58.8998 81.0355 59.0062 80.5624 59.0062 80.1484V80.0656C59.0062 79.6753 58.9352 79.3914 58.7697 79.2022C58.6159 79.0129 58.3793 78.9183 58.0718 78.9183C57.6933 78.9183 57.4213 79.0484 57.2438 79.3086C57.0664 79.5688 56.9718 79.9592 56.9718 80.4796V80.728H54.9492V80.4796C54.9492 79.3323 55.2094 78.4807 55.718 77.9011C56.2266 77.3334 56.9836 77.0495 57.989 77.0495C58.9944 77.0495 59.7632 77.2979 60.2718 77.8065C60.7804 78.3151 61.0288 79.0721 61.0288 80.0775V80.1603C61.0288 80.6452 60.9224 81.1893 60.7095 81.8162C60.4965 82.4431 60.1772 83.1291 59.7632 83.8742L57.4686 87.9549H61.0052V89.8001H55.0202Z" fill="#3C3C3B"/>
<path d="M65.6772 89.9302C64.9912 89.9302 64.3998 89.8119 63.9148 89.5753C63.4299 89.3388 63.0632 88.9958 62.803 88.5463C62.5428 88.0969 62.4245 87.5409 62.4245 86.9022V86.2517H64.3998V86.8549C64.3998 87.2452 64.5062 87.5409 64.731 87.7538C64.9557 87.9667 65.2632 88.0732 65.6772 88.0732C66.0912 88.0732 66.3751 87.9667 66.588 87.7538C66.8009 87.5409 66.9073 87.2452 66.9073 86.8549V85.7549C66.9073 85.4592 66.8245 85.2108 66.6589 85.0097C66.4933 84.8205 66.2686 84.6431 65.9966 84.5011C65.7245 84.3592 65.4288 84.2173 65.1095 84.0635C64.8019 83.9216 64.4944 83.7678 64.175 83.5904C63.8675 83.413 63.5718 83.2 63.3116 82.9517C63.0514 82.7033 62.8385 82.4076 62.6847 82.0409C62.531 81.6742 62.4482 81.2484 62.4482 80.7162V80.0301C62.4482 79.0721 62.732 78.3269 63.2879 77.8065C63.8439 77.286 64.6363 77.0258 65.6772 77.0258C66.7181 77.0258 67.4514 77.286 68.0073 77.8183C68.5514 78.3506 68.8353 79.0957 68.8353 80.0538V80.7398H66.8482V80.1011C66.8482 79.699 66.7417 79.3914 66.5407 79.1903C66.3396 78.9774 66.0439 78.871 65.6772 78.871C65.2751 78.871 64.9675 78.9656 64.7546 79.1667C64.5417 79.3678 64.4353 79.6398 64.4353 79.9947V80.8108C64.4353 81.142 64.5299 81.414 64.7191 81.6269C64.9084 81.828 65.1449 82.0054 65.4525 82.1474C65.76 82.2893 66.0675 82.4431 66.4105 82.6086C66.7062 82.7388 67.0019 82.8807 67.2976 83.0463C67.5933 83.2 67.8536 83.3893 68.1019 83.614C68.3503 83.8388 68.5396 84.1226 68.6934 84.4656C68.8471 84.8087 68.9181 85.2345 68.9181 85.7549V86.8549C68.9181 87.8366 68.6342 88.5818 68.0783 89.1141C67.5224 89.6463 66.7299 89.9065 65.7009 89.9065L65.6772 89.9302Z" fill="#3C3C3B"/>
<path d="M35.6104 76.3279H34.1319V91.6097H35.6104V76.3279Z" fill="#EE7203"/>
<path fill-rule="evenodd" clip-rule="evenodd" d="M43.0984 56.9662C42.7199 57.2146 42.3769 57.5812 42.0576 58.0543C41.8447 58.3737 41.6199 58.7877 41.3715 59.3199C41.2296 59.6393 41.0049 60.1716 40.6973 60.9286C40.5081 61.4017 40.3307 61.7565 40.1769 62.0049C39.9995 62.3361 39.7274 62.6673 39.3963 62.9985C38.9231 63.4834 38.3672 63.8501 37.7522 64.1221C37.3382 64.2877 36.9715 64.3942 36.6403 64.4296L36.25 64.4533L36.593 64.1694L37.421 63.3651C37.764 62.9866 38.0597 62.6081 38.2844 62.2178C38.4382 61.9576 38.5565 61.7329 38.6156 61.5554L38.935 60.7393C39.1952 60.0533 39.5855 59.3909 40.0941 58.7522C40.5672 58.1726 41.0522 57.7232 41.5608 57.4038C41.9748 57.1436 42.3651 56.9898 42.7199 56.9425C42.8973 56.9189 43.0275 56.9307 43.1103 56.9425L43.0984 56.9662Z" fill="#EE7203"/>
<path fill-rule="evenodd" clip-rule="evenodd" d="M45.6296 56.9772C45.2511 57.2256 44.9081 57.5923 44.5888 58.0654C44.3759 58.3847 44.1511 58.7987 43.9028 59.331C43.7608 59.6503 43.5361 60.1826 43.2286 60.9396C43.0393 61.4127 42.8619 61.7676 42.7081 62.016C42.5307 62.3471 42.2587 62.6783 41.9275 63.0095C41.4544 63.4945 40.8984 63.8611 40.2834 64.1332C39.8694 64.2988 39.5027 64.4052 39.1715 64.4407L38.7812 64.4643L39.1242 64.1805L39.9522 63.3762C40.2952 62.9977 40.5909 62.6192 40.8156 62.2289C40.9694 61.9686 41.0877 61.7439 41.1468 61.5665L41.4662 60.7504C41.7264 60.0643 42.1167 59.402 42.6253 58.7632C43.0984 58.1837 43.5834 57.7342 44.092 57.4149C44.506 57.1546 44.8963 57.0009 45.2511 56.9536C45.4286 56.9299 45.5587 56.9417 45.6415 56.9536L45.6296 56.9772Z" fill="#2E2D2C"/>
<path fill-rule="evenodd" clip-rule="evenodd" d="M48.1371 56.9654C47.7587 57.2137 47.4156 57.5804 47.0963 58.0535C46.8834 58.3729 46.6586 58.7869 46.4103 59.3191C46.2683 59.6385 46.0436 60.1707 45.7361 60.9277C45.5468 61.4009 45.3694 61.7557 45.2156 62.0041C45.0382 62.3353 44.7662 62.6665 44.435 62.9976C43.9619 63.4826 43.4059 63.8493 42.7909 64.1213C42.3769 64.2869 42.0102 64.3933 41.679 64.4288L41.2887 64.4525L41.6317 64.1686L42.4597 63.3643C42.8027 62.9858 43.0984 62.6073 43.3231 62.217C43.4769 61.9568 43.5952 61.732 43.6543 61.5546L43.9737 60.7385C44.2339 60.0525 44.6242 59.3901 45.1328 58.7514C45.606 58.1718 46.0909 57.7223 46.5995 57.403C47.0135 57.1428 47.4038 56.989 47.7587 56.9417C47.9361 56.918 48.0662 56.9299 48.149 56.9417L48.1371 56.9654Z" fill="#EE7203"/>
<path d="M52.6436 64.4292H51.5318V58.1131H50.692V64.4292H49.5683V57.9475C49.5683 57.6281 49.6511 57.3679 49.8049 57.1905C49.9586 57.0131 50.1834 56.9184 50.4791 56.9184H51.4253C51.6264 56.9184 51.792 56.9776 51.9103 57.1077C52.0286 57.2378 52.0759 57.4152 52.0759 57.6399C52.0759 57.4034 52.135 57.226 52.2415 57.1077C52.3597 56.9776 52.5135 56.9184 52.7146 56.9184H53.6608C53.9447 56.9184 54.1694 57.0131 54.335 57.1905C54.5006 57.3679 54.5834 57.6281 54.5834 57.9475V64.4292H53.4479V58.1131H52.6318V64.4292H52.6436Z" fill="#2E2D2C"/>
<path d="M55.4114 56.9182H56.535V60.1591L57.3512 59.6978V56.93H58.4867V63.3526C58.4867 63.7193 58.4039 63.9914 58.2501 64.1688C58.0963 64.3462 57.8598 64.4408 57.5286 64.4408H56.2985C56.0146 64.4408 55.7899 64.3462 55.6243 64.1688C55.4587 63.9914 55.3877 63.7311 55.3877 63.4118V63.1397L56.5114 62.501V63.2462H57.3275V61.0344L55.3759 62.1462V56.9182H55.4114Z" fill="#2E2D2C"/>
<path d="M62.4136 56.9182V64.429H61.3018V60.9397L60.4502 61.4128V64.4171H59.3383V56.9063H60.4502V60.0526L61.3018 59.5913V56.9063H62.4136V56.9182Z" fill="#EE7203"/>
<path d="M65.962 64.429H63.2416V56.9182H65.962V58.1128H64.3652V60.0526L65.962 59.1774V60.5257L64.3652 61.4128V63.2344H65.962V64.429Z" fill="#EE7203"/>
<path d="M69.7351 64.429H68.6114V61.2473L67.7716 61.7085V64.429H66.648V57.9472C66.648 57.6279 66.7308 57.3677 66.8845 57.1902C67.0383 57.0128 67.263 56.9182 67.5587 56.9182H68.8243C69.1082 56.9182 69.3329 57.0128 69.4985 57.1902C69.6641 57.3677 69.7469 57.6279 69.7469 57.9472V64.429H69.7351ZM68.6114 59.9225V58.101H67.7716V60.3602L68.6114 59.9107V59.9225Z" fill="#EE7203"/>
<path d="M71.3319 64.429V58.1128H70.22V56.9182H73.5674V58.1128H72.4555V64.429H71.3319Z" fill="#EE7203"/>
<path d="M53.9932 9.59405V21.907H27.25V9.47577" fill="#AFD5A9"/>
<path d="M53.9932 9.59405V21.907H27.25V9.47577" stroke="#212830" stroke-width="0.25" stroke-miterlimit="10"/>
<path d="M53.9932 7.61871H27.25V9.59399H53.9932V7.61871Z" fill="#5EB34A" stroke="#1D1D1B" stroke-width="0.25" stroke-miterlimit="10"/>
<path d="M53.9932 21.9072H27.25V26.461H53.9932V21.9072Z" fill="#5EB34A" stroke="#1D1D1B" stroke-width="0.25" stroke-miterlimit="10"/>
<path d="M51.2137 26.4609V22.7232H47.7481V26.4609H42.2481V22.7232H38.7825V26.4609H33.4362V22.7232H29.9706V26.4609" fill="#0C9B47"/>
<path d="M51.2137 26.4609V22.7232H47.7481V26.4609H42.2481V22.7232H38.7825V26.4609H33.4362V22.7232H29.9706V26.4609" stroke="#212830" stroke-width="0.25" stroke-miterlimit="10"/>
<path class="RELAY-S-1-2-A" d="M33.9684 17.8736L33.4361 18.2994L32.9039 18.5597L32.2651 18.7726L31.6264 18.8317L30.9877 18.7726L30.349 18.5597L29.8049 18.2994L29.2726 17.8736L28.8468 17.3295L28.5866 16.7973L28.3737 16.1586L28.3146 15.5199L28.3737 14.8811L28.5866 14.2424L28.8468 13.6983L29.2726 13.1661L29.8049 12.7403L30.349 12.4801L30.9877 12.2671L31.6264 12.208L32.2651 12.2671L32.9039 12.4801L33.4361 12.7403L33.9684 13.1661L34.406 13.6983L34.6662 14.2424L34.8791 14.8811L34.9383 15.5199L34.8791 16.1586L34.6662 16.7973L34.406 17.3295L33.9684 17.8736ZM33.9684 17.8736L29.2727 13.178" stroke="#212830" stroke-width="0.25" stroke-miterlimit="10" stroke-linecap="square"/>
<path class="RELAY-S-1-B" d="M42.9695 17.8736L42.4372 18.2994L41.9049 18.5597L41.2662 18.7726L40.6157 18.8317L39.977 18.7726L39.3383 18.5597L38.806 18.2994L38.2737 17.8736L37.8479 17.3295L37.5759 16.7973L37.363 16.1586L37.3157 15.5199L37.363 14.8811L37.5759 14.2424L37.8479 13.6983L38.2737 13.1661L38.806 12.7403L39.3383 12.4801L39.977 12.2671L40.6157 12.208L41.2662 12.2671L41.9049 12.4801L42.4372 12.7403L42.9695 13.1661L43.3953 13.6983L43.6673 14.2424L43.8802 14.8811L43.9275 15.5199L43.8802 16.1586L43.6673 16.7973L43.3953 17.3295L42.9695 17.8736ZM42.9695 17.8736L38.2737 13.178" stroke="#212830" stroke-width="0.25" stroke-miterlimit="10" stroke-linecap="square"/>
<path class="RELAY-S-2-B" d="M51.8287 17.8736L51.2964 18.2994L50.7642 18.5597L50.1255 18.7726L49.4867 18.8317L48.8362 18.7726L48.1975 18.5597L47.6652 18.2994L47.133 17.8736L46.7072 17.3295L46.4351 16.7973L46.2222 16.1586L46.1749 15.5199L46.2222 14.8811L46.4351 14.2424L46.7072 13.6983L47.133 13.1661L47.6652 12.7403L48.1975 12.4801L48.8362 12.2671L49.4867 12.208L50.1255 12.2671L50.7642 12.4801L51.2964 12.7403L51.8287 13.1661L52.2545 13.6983L52.5265 14.2424L52.7394 14.8811L52.7868 15.5199L52.7394 16.1586L52.5265 16.7973L52.2545 17.3295L51.8287 17.8736ZM51.8287 17.8736L47.133 13.178" stroke="#212830" stroke-width="0.25" stroke-miterlimit="10" stroke-linecap="square"/>
<path d="M32.3361 35.0953C32.2887 35.8759 31.65 36.5028 30.8576 36.5028H30.8221C30.0296 36.5028 29.3909 35.8759 29.3436 35.0953V35.0006V33.4985H32.3597V35.1071L32.3361 35.0953Z" fill="#2E2D2C"/>
<path d="M52.7631 35.0952V33.4866H49.747V35.0952C49.7943 35.8759 50.433 36.5028 51.2255 36.5028H51.261C52.0534 36.5028 52.6921 35.8759 52.7395 35.0952H52.7631ZM52.2545 35.0598C52.219 35.5802 51.7932 35.9942 51.2728 35.9942H51.2491C50.7287 35.9942 50.2911 35.5802 50.2674 35.0598V33.9834H52.2782V35.0598H52.2545Z" fill="#2E2D2C"/>
<path d="M42.5555 35.0952V33.4866H39.5394V35.0952C39.5867 35.8759 40.2254 36.5028 41.0179 36.5028H41.0534C41.8458 36.5028 42.4845 35.8759 42.5319 35.0952H42.5555ZM42.0469 35.0598C42.0114 35.5802 41.5856 35.9942 41.0652 35.9942H41.0415C40.5211 35.9942 40.0835 35.5802 40.0598 35.0598V33.9834H42.0706V35.0598H42.0469Z" fill="#2E2D2C"/>
<path d="M40.6748 42.5471H41.42H51.6157V40.9385H50.9652V41.8492H41.42V40.9385H41.3254H40.7694H40.6748V41.8492H31.1296V40.9385H30.4791V42.5471H40.6748Z" fill="#2E2D2C"/>
<path d="M29.0598 40.2641C28.9297 40.2641 28.8232 40.2404 28.7286 40.1931C28.634 40.1458 28.563 40.0748 28.5157 39.9684C28.4684 39.8737 28.4447 39.7555 28.4447 39.6254V38.3479C28.4447 38.206 28.4684 38.0995 28.5157 37.9931C28.563 37.8985 28.634 37.8275 28.7286 37.7684C28.8232 37.7092 28.9297 37.6974 29.0598 37.6974C29.1899 37.6974 29.2963 37.721 29.391 37.7684C29.4856 37.8157 29.5566 37.8866 29.6039 37.9931C29.6512 38.0995 29.6748 38.206 29.6748 38.3361V38.4307H29.3673V38.3361C29.3673 38.2533 29.3673 38.1942 29.3318 38.135C29.3082 38.0759 29.2727 38.0404 29.2254 38.0167C29.1781 37.9931 29.1189 37.9694 29.0598 37.9694C28.9652 37.9694 28.8824 38.0049 28.8351 38.0641C28.7877 38.1232 28.7523 38.2178 28.7523 38.3361V39.6135C28.7523 39.7318 28.7759 39.8146 28.8351 39.8856C28.8942 39.9565 28.9652 39.9802 29.0598 39.9802C29.1544 39.9802 29.2372 39.9447 29.2845 39.8856C29.3437 39.8264 29.3673 39.7318 29.3673 39.6135V39.5189H29.6748V39.6135C29.6748 39.7436 29.6512 39.8619 29.6039 39.9565C29.5566 40.0512 29.4856 40.1221 29.391 40.1813C29.2963 40.2286 29.1899 40.2522 29.0598 40.2522V40.2641Z" fill="#3C3C3B"/>
<path d="M30.5737 40.2641C30.4317 40.2641 30.3135 40.2404 30.2188 40.1931C30.1242 40.1458 30.0414 40.0748 29.9941 39.9802C29.9468 39.8856 29.9231 39.7673 29.9231 39.6372V38.3361C29.9231 38.206 29.9468 38.0877 29.9941 37.9931C30.0414 37.8984 30.1242 37.8275 30.2188 37.7802C30.3135 37.7329 30.4317 37.7092 30.5737 37.7092C30.7156 37.7092 30.8339 37.7329 30.9285 37.7802C31.0231 37.8275 31.0941 37.8984 31.1532 37.9931C31.2006 38.0877 31.2242 38.206 31.2242 38.3361V39.6372C31.2242 39.7673 31.2006 39.8856 31.1532 39.9802C31.1059 40.0748 31.0231 40.1458 30.9285 40.1931C30.8339 40.2404 30.7156 40.2641 30.5737 40.2641ZM30.5737 39.992C30.6801 39.992 30.7747 39.9565 30.8339 39.8974C30.893 39.8382 30.9285 39.7555 30.9285 39.649V38.3243C30.9285 38.2178 30.893 38.135 30.8339 38.0759C30.7747 38.0167 30.6919 37.9931 30.5737 37.9931C30.4554 37.9931 30.3726 38.0167 30.3135 38.0759C30.2543 38.135 30.2188 38.2178 30.2188 38.3243V39.649C30.2188 39.7555 30.2543 39.8382 30.3135 39.8974C30.3726 39.9565 30.4554 39.992 30.5737 39.992Z" fill="#3C3C3B"/>
<path d="M32.3953 39.4361L32.963 37.7329H33.235V40.2523H32.9512V38.2888L32.9748 38.3953L32.5017 39.8619H32.277L31.8039 38.4189L31.8275 38.277V40.2404H31.5436V37.7211H31.8275L32.3834 39.4243L32.3953 39.4361Z" fill="#3C3C3B"/>
<path d="M39.8942 40.2404V37.7211H40.1899V40.2404H39.8942ZM40.0598 39.1759V38.9039H40.5448C40.6512 38.9039 40.734 38.8802 40.7932 38.8211C40.8523 38.7619 40.8759 38.691 40.8759 38.5845V38.3243C40.8759 38.2178 40.8523 38.135 40.7932 38.0759C40.734 38.0168 40.6512 37.9931 40.5448 37.9931H40.0598V37.7211H40.5211C40.663 37.7211 40.7813 37.7447 40.8759 37.792C40.9706 37.8393 41.0534 37.8985 41.1007 37.9813C41.148 38.0641 41.1835 38.1705 41.1835 38.2888V38.5845C41.1835 38.7146 41.1598 38.8211 41.1007 38.9039C41.0415 38.9867 40.9706 39.0576 40.8759 39.1049C40.7813 39.1523 40.663 39.1759 40.5211 39.1759H40.0598ZM40.9114 40.2404L40.5566 39.0931L40.8286 39.0103L41.2426 40.2286H40.8996L40.9114 40.2404Z" fill="#3C3C3B"/>
<path d="M42.2007 37.7329V40.2522H41.905V38.0167L41.4673 38.2769V37.9812L41.834 37.7447H42.2007V37.7329Z" fill="#3C3C3B"/>
<path d="M49.8534 40.2409V37.7215H50.1609V40.2409H49.8534ZM50.019 39.1763V38.9043H50.5039C50.6104 38.9043 50.6932 38.8806 50.7523 38.8215C50.8115 38.7623 50.8351 38.6914 50.8351 38.5849V38.3247C50.8351 38.2183 50.8115 38.1355 50.7523 38.0763C50.6932 38.0172 50.6104 37.9935 50.5039 37.9935H50.019V37.7215H50.4803C50.6222 37.7215 50.7405 37.7451 50.8351 37.7924C50.9297 37.8398 51.0125 37.8989 51.0599 37.9817C51.1072 38.0645 51.1426 38.1709 51.1426 38.2892V38.5849C51.1426 38.715 51.119 38.8215 51.0599 38.9043C51.0125 38.9871 50.9297 39.058 50.8351 39.1054C50.7405 39.1527 50.6222 39.1763 50.4803 39.1763H50.019ZM50.8706 40.2409L50.5158 39.0935L50.7996 39.0107L51.2136 40.229H50.8706V40.2409Z" fill="#3C3C3B"/>
<path d="M51.5093 40.2404V40.0038L52.1362 38.963C52.2072 38.8329 52.2663 38.7146 52.3136 38.6081C52.3491 38.4899 52.3728 38.3952 52.3728 38.3124C52.3728 38.206 52.3491 38.1232 52.3018 38.064C52.2545 38.0049 52.1953 37.9812 52.1126 37.9812C52.0179 37.9812 51.9351 38.0167 51.8878 38.0995C51.8405 38.1705 51.805 38.2888 51.805 38.4307H51.4975C51.4975 38.1941 51.5448 38.0167 51.6513 37.8985C51.7577 37.7802 51.8997 37.7092 52.0889 37.7092C52.2781 37.7092 52.4319 37.7565 52.5265 37.863C52.633 37.9694 52.6803 38.1114 52.6803 38.3124C52.6803 38.4189 52.6566 38.5253 52.6212 38.6554C52.5738 38.7856 52.5147 38.9157 52.4319 39.0576L51.876 39.9684H52.6685V40.2404H51.4975H51.5093Z" fill="#3C3C3B"/>
<path d="M8.94998 161.25V163.25H9.53657V162.129H18.3541V163.25H18.95V161.25H8.94998Z" fill="#2E2D2C"/>
<path d="M20.2317 169.438C20.174 168.527 19.4469 167.806 18.5582 167.806H18.5235C17.6233 167.806 16.9077 168.527 16.85 169.438V171.307H20.2664V169.438H20.2317Z" fill="#2E2D2C"/>
<path d="M11.4318 169.438C11.3741 168.527 10.6469 167.806 9.75819 167.806H9.72356C8.82329 167.806 8.1077 168.527 8.04999 169.438V171.307H11.4664V169.438H11.4318Z" fill="#BE1622"/>
<path d="M16.754 165.57H17.4812V166.422C17.4812 166.575 17.4581 166.717 17.4004 166.824C17.3427 166.93 17.2619 167.025 17.158 167.084C17.0541 167.143 16.9272 167.167 16.7656 167.167C16.604 167.167 16.477 167.143 16.3732 167.084C16.2693 167.025 16.1769 166.942 16.1308 166.848C16.0731 166.741 16.05 166.611 16.05 166.469V164.943C16.05 164.789 16.0731 164.648 16.1308 164.541C16.1885 164.435 16.2693 164.34 16.3732 164.281C16.477 164.222 16.604 164.198 16.7656 164.198C16.9272 164.198 17.0426 164.222 17.1465 164.281C17.2503 164.34 17.3311 164.423 17.3888 164.529C17.4466 164.636 17.4696 164.766 17.4696 164.92V165.061H17.1003V164.92C17.1003 164.789 17.0657 164.695 17.008 164.624C16.9503 164.553 16.8695 164.517 16.7656 164.517C16.6502 164.517 16.5578 164.553 16.4886 164.624C16.4193 164.695 16.3962 164.801 16.3962 164.943V166.469C16.3962 166.587 16.4309 166.682 16.5001 166.753C16.5694 166.824 16.6617 166.848 16.7887 166.848C16.9156 166.848 16.9964 166.812 17.0657 166.741C17.1349 166.67 17.158 166.564 17.158 166.434V165.889H16.7771V165.57H16.754Z" fill="#3C3C3B"/>
<path d="M17.8505 167.143V164.222H18.1621L19.0393 166.54L18.9816 166.588V164.21H19.3163V167.132H19.0047L18.1275 164.849L18.1852 164.801V167.143H17.8505Z" fill="#3C3C3B"/>
<path d="M19.7203 167.143V164.222H20.0666V167.143H19.7203ZM19.9281 167.143V166.824H20.5629C20.6321 166.824 20.6898 166.8 20.7244 166.765C20.7591 166.729 20.7822 166.67 20.7822 166.587V164.778C20.7822 164.707 20.7591 164.648 20.7244 164.6C20.6898 164.553 20.6321 164.541 20.5629 164.541H19.9281V164.222H20.5513C20.736 164.222 20.8745 164.269 20.9784 164.364C21.0822 164.458 21.1284 164.6 21.1284 164.79V166.576C21.1284 166.694 21.1053 166.8 21.0592 166.883C21.013 166.966 20.9437 167.037 20.8629 167.072C20.7822 167.12 20.6783 167.143 20.5513 167.143H19.9281Z" fill="#3C3C3B"/>
<path d="M9.13015 167.143L8.52997 164.222H8.88777L9.32636 166.635L9.76495 164.222H10.1227L9.52257 167.143H9.11861H9.13015Z" fill="#3C3C3B"/>
<path d="M10.2497 165.641H11.4154V165.961H10.2497V165.641ZM10.9999 164.991V166.623H10.6767V164.991H10.9999Z" fill="#3C3C3B"/>
<path d="M10.781 156.996V159.918H10.4463V157.315L9.94998 157.623V157.268L10.3655 156.996H10.781Z" fill="#3C3C3B"/>
<path d="M11.1618 159.917V159.633L11.8774 158.426C11.9582 158.284 12.0275 158.142 12.0737 158.012C12.1198 157.882 12.1429 157.764 12.1429 157.669C12.1429 157.539 12.1198 157.444 12.0621 157.385C12.0044 157.326 11.9352 157.291 11.8428 157.291C11.7274 157.291 11.6466 157.338 11.5889 157.421C11.5312 157.504 11.4966 157.634 11.4966 157.799H11.1388C11.1388 157.527 11.1965 157.314 11.3119 157.172C11.4273 157.03 11.5889 156.96 11.8082 156.96C12.0275 156.96 12.2006 157.019 12.316 157.137C12.4315 157.255 12.4892 157.433 12.4892 157.657C12.4892 157.776 12.4661 157.906 12.4199 158.06C12.3737 158.213 12.3045 158.367 12.2122 158.533L11.5889 159.597H12.4892V159.917H11.1618Z" fill="#3C3C3B"/>
<path d="M13.2856 159.916L12.6854 156.995H13.0432L13.4818 159.408L13.9204 156.995H14.2782L13.678 159.916H13.274H13.2856Z" fill="#3C3C3B"/>
<path d="M14.5321 159.916V156.995H14.8783V159.916H14.5321ZM14.7283 159.916V159.597H15.3631C15.4323 159.597 15.49 159.573 15.5247 159.538C15.5593 159.502 15.5824 159.443 15.5824 159.361V157.551C15.5824 157.48 15.5593 157.421 15.5247 157.373C15.49 157.326 15.4323 157.314 15.3631 157.314H14.7283V156.995H15.3515C15.5362 156.995 15.6747 157.042 15.7786 157.137C15.8825 157.231 15.9286 157.373 15.9286 157.563V159.349C15.9286 159.467 15.9056 159.573 15.8594 159.656C15.8132 159.739 15.744 159.81 15.6632 159.845C15.5824 159.881 15.4785 159.916 15.3515 159.916H14.7283Z" fill="#3C3C3B"/>
<path d="M16.9444 159.94C16.7943 159.94 16.6789 159.917 16.575 159.857C16.4712 159.798 16.3904 159.715 16.3442 159.597C16.298 159.479 16.2634 159.349 16.2634 159.195V157.705C16.2634 157.551 16.2865 157.409 16.3442 157.303C16.4019 157.196 16.4827 157.101 16.575 157.042C16.6674 156.983 16.8059 156.96 16.9444 156.96C17.0829 156.96 17.2214 156.983 17.3137 157.042C17.4176 157.101 17.4984 157.184 17.5445 157.303C17.6023 157.409 17.6253 157.551 17.6253 157.705V157.823H17.2791V157.705C17.2791 157.61 17.2675 157.539 17.2445 157.48C17.2214 157.421 17.1752 157.373 17.129 157.338C17.0829 157.303 17.0136 157.291 16.9444 157.291C16.8289 157.291 16.7482 157.326 16.6904 157.397C16.6327 157.468 16.5981 157.575 16.5981 157.716V159.207C16.5981 159.337 16.6327 159.443 16.6904 159.514C16.7482 159.585 16.8405 159.621 16.9444 159.621C17.0482 159.621 17.1406 159.585 17.1983 159.514C17.256 159.443 17.2906 159.337 17.2906 159.207V159.089H17.6369V159.207C17.6369 159.361 17.6138 159.503 17.5561 159.609C17.4984 159.715 17.4291 159.81 17.3252 159.869C17.2214 159.928 17.0944 159.952 16.9559 159.952L16.9444 159.94Z" fill="#3C3C3B"/>
<path d="M37.6433 169.438C37.6087 168.882 37.3317 168.397 36.9046 168.101C36.6392 167.912 36.3045 167.806 35.9582 167.806H35.9236C35.0233 167.806 34.3077 168.527 34.25 169.438V171.307H37.6664V169.438H37.6433Z" fill="#1D71B8"/>
<path d="M35.5773 161.277V162.093V163.146H36.3045V161.277H35.5773Z" fill="#2E2D2C"/>
<path d="M35.0349 159.94C34.8848 159.94 34.7463 159.916 34.6309 159.857C34.5155 159.798 34.4347 159.715 34.377 159.609C34.3193 159.502 34.2846 159.372 34.2846 159.207V157.693C34.2846 157.539 34.3193 157.397 34.377 157.29C34.4347 157.184 34.5155 157.101 34.6309 157.042C34.7463 156.983 34.8733 156.959 35.0349 156.959C35.1964 156.959 35.3234 156.983 35.4388 157.042C35.5542 157.101 35.635 157.184 35.6927 157.29C35.7505 157.397 35.7735 157.539 35.7735 157.693V159.207C35.7735 159.36 35.7505 159.502 35.6927 159.609C35.635 159.715 35.5542 159.798 35.4388 159.857C35.3234 159.916 35.1964 159.94 35.0349 159.94ZM35.0349 159.621C35.1618 159.621 35.2542 159.585 35.3234 159.514C35.3927 159.443 35.4273 159.349 35.4273 159.23V157.693C35.4273 157.563 35.3927 157.468 35.3234 157.397C35.2542 157.326 35.1618 157.29 35.0349 157.29C34.9079 157.29 34.8156 157.326 34.7463 157.397C34.6771 157.468 34.6424 157.563 34.6424 157.693V159.23C34.6424 159.349 34.6771 159.455 34.7463 159.514C34.8156 159.585 34.9079 159.621 35.0349 159.621Z" fill="#3C3C3B"/>
<path d="M36.1429 159.916V156.995H36.4891V159.916H36.1429ZM36.4083 159.266V158.651L37.274 156.983H37.6549L36.4083 159.254V159.266ZM37.3432 159.916L36.7777 158.355L37.0085 158.059L37.7472 159.916H37.3548H37.3432Z" fill="#3C3C3B"/>
<path d="M36.2698 164.222V167.143H35.9235V164.541L35.4272 164.849V164.494L35.8428 164.222H36.2583H36.2698Z" fill="#3C3C3B"/>
<path d="M46.3433 169.438C46.2856 168.527 45.5585 167.806 44.6698 167.806H44.6351C44.2889 167.806 43.9657 167.912 43.6887 168.101C43.2732 168.397 42.9962 168.882 42.95 169.438V171.307H46.3664V169.438H46.3433Z" fill="#1D71B8"/>
<path d="M44.2427 161.277V162.093V163.134H44.9814V161.277H44.2427Z" fill="#2E2D2C"/>
<path d="M43.7348 159.94C43.5848 159.94 43.4463 159.916 43.3309 159.857C43.2155 159.798 43.1347 159.715 43.077 159.609C43.0192 159.502 42.9846 159.372 42.9846 159.207V157.693C42.9846 157.539 43.0192 157.397 43.077 157.29C43.1347 157.184 43.2155 157.101 43.3309 157.042C43.4463 156.983 43.5733 156.959 43.7348 156.959C43.8964 156.959 44.0234 156.983 44.1388 157.042C44.2427 157.101 44.335 157.184 44.3927 157.29C44.4504 157.397 44.4851 157.539 44.4851 157.693V159.207C44.4851 159.36 44.4504 159.502 44.3927 159.609C44.335 159.715 44.2542 159.798 44.1388 159.857C44.0234 159.916 43.8964 159.94 43.7348 159.94ZM43.7348 159.621C43.8618 159.621 43.9541 159.585 44.0234 159.514C44.0926 159.443 44.1273 159.349 44.1273 159.23V157.693C44.1273 157.563 44.0926 157.468 44.0234 157.397C43.9541 157.326 43.8618 157.29 43.7348 157.29C43.6079 157.29 43.5155 157.326 43.4463 157.397C43.377 157.468 43.3424 157.563 43.3424 157.693V159.23C43.3424 159.349 43.377 159.455 43.4463 159.514C43.5155 159.573 43.6079 159.621 43.7348 159.621Z" fill="#3C3C3B"/>
<path d="M44.8429 159.916V156.995H45.1892V159.916H44.8429ZM45.1084 159.266V158.651L45.974 156.983H46.3549L45.1084 159.254V159.266ZM46.0548 159.916L45.4892 158.355L45.7201 158.059L46.4588 159.916H46.0663H46.0548Z" fill="#3C3C3B"/>
<path d="M43.9542 167.143V166.859L44.6698 165.653C44.7506 165.511 44.8198 165.369 44.866 165.239C44.9121 165.109 44.9352 164.991 44.9352 164.896C44.9352 164.766 44.9122 164.671 44.8544 164.612C44.7967 164.553 44.7275 164.517 44.6351 164.517C44.5197 164.517 44.4389 164.565 44.3812 164.648C44.3235 164.73 44.2889 164.86 44.2889 165.026H43.9311C43.9311 164.754 43.9888 164.541 44.1042 164.399C44.2196 164.257 44.3928 164.186 44.6005 164.186C44.8083 164.186 44.9929 164.245 45.1084 164.364C45.2238 164.482 45.2815 164.659 45.2815 164.884C45.2815 165.002 45.2584 165.132 45.2122 165.286C45.1661 165.44 45.0968 165.594 45.0045 165.759L44.3812 166.824H45.2815V167.143H43.9542Z" fill="#3C3C3B"/>
<path d="M61.15 161.25V163.25H61.7366V162.129H70.5541V163.25H71.15V161.25H61.15Z" fill="#2E2D2C"/>
<path d="M72.4318 169.438C72.374 168.527 71.6469 167.806 70.7582 167.806H70.7236C69.8233 167.806 69.1077 168.527 69.05 169.438V171.307H72.4664V169.438H72.4318Z" fill="#2E2D2C"/>
<path d="M63.6318 169.438C63.5741 168.527 62.8469 167.806 61.9582 167.806H61.9236C61.0233 167.806 60.3077 168.527 60.25 169.438V171.307H63.6664V169.438H63.6318Z" fill="#BE1622"/>
<path d="M68.9541 165.57H69.6812V166.422C69.6812 166.575 69.6581 166.717 69.6004 166.824C69.5427 166.93 69.4619 167.025 69.358 167.084C69.2541 167.143 69.1272 167.167 68.9656 167.167C68.804 167.167 68.677 167.143 68.5732 167.084C68.4693 167.025 68.377 166.942 68.3308 166.848C68.2731 166.741 68.25 166.611 68.25 166.469V164.943C68.25 164.789 68.2731 164.648 68.3308 164.541C68.3885 164.435 68.4693 164.34 68.5732 164.281C68.677 164.222 68.804 164.198 68.9656 164.198C69.1272 164.198 69.2426 164.222 69.3465 164.281C69.4504 164.34 69.5311 164.423 69.5889 164.529C69.6466 164.636 69.6697 164.766 69.6697 164.92V165.061H69.3003V164.92C69.3003 164.789 69.2657 164.695 69.208 164.624C69.1503 164.553 69.0695 164.517 68.9656 164.517C68.8502 164.517 68.7578 164.553 68.6886 164.624C68.6193 164.695 68.5963 164.801 68.5963 164.943V166.469C68.5963 166.587 68.6309 166.682 68.7001 166.753C68.7694 166.824 68.8617 166.848 68.9887 166.848C69.1156 166.848 69.1964 166.812 69.2657 166.741C69.3349 166.67 69.358 166.564 69.358 166.434V165.889H68.9771V165.57H68.9541Z" fill="#3C3C3B"/>
<path d="M70.0505 167.143V164.222H70.3622L71.2393 166.54L71.1816 166.588V164.21H71.5163V167.132H71.2047L70.3275 164.849L70.3852 164.801V167.143H70.0505Z" fill="#3C3C3B"/>
<path d="M71.9203 167.143V164.222H72.2666V167.143H71.9203ZM72.1281 167.143V166.824H72.7629C72.8321 166.824 72.8898 166.8 72.9245 166.765C72.9591 166.729 72.9822 166.67 72.9822 166.587V164.778C72.9822 164.707 72.9591 164.648 72.9245 164.6C72.8898 164.553 72.8321 164.541 72.7629 164.541H72.1281V164.222H72.7513C72.936 164.222 73.0745 164.269 73.1784 164.364C73.2823 164.458 73.3284 164.6 73.3284 164.79V166.576C73.3284 166.694 73.3053 166.8 73.2592 166.883C73.213 166.966 73.1438 167.037 73.063 167.072C72.9822 167.12 72.8783 167.143 72.7513 167.143H72.1281Z" fill="#3C3C3B"/>
<path d="M61.3302 167.143L60.73 164.222H61.0878L61.5264 166.635L61.965 164.222H62.3228L61.7226 167.143H61.3186H61.3302Z" fill="#3C3C3B"/>
<path d="M62.4497 165.641H63.6155V165.961H62.4497V165.641ZM63.1999 164.991V166.623H62.8768V164.991H63.1999Z" fill="#3C3C3B"/>
<path d="M63.081 156.996V159.918H62.7463V157.315L62.25 157.623V157.268L62.6655 156.996H63.081Z" fill="#3C3C3B"/>
<path d="M63.4619 159.917V159.633L64.1775 158.426C64.2583 158.284 64.3275 158.142 64.3737 158.012C64.4198 157.882 64.4429 157.764 64.4429 157.669C64.4429 157.539 64.4198 157.444 64.3621 157.385C64.3044 157.326 64.2352 157.291 64.1428 157.291C64.0274 157.291 63.9466 157.338 63.8889 157.421C63.8312 157.504 63.7966 157.634 63.7966 157.799H63.4388C63.4388 157.527 63.4965 157.314 63.6119 157.172C63.7273 157.03 63.8889 156.96 64.1082 156.96C64.3275 156.96 64.5006 157.019 64.6161 157.137C64.7315 157.255 64.7892 157.433 64.7892 157.657C64.7892 157.776 64.7661 157.906 64.7199 158.06C64.6738 158.213 64.6045 158.367 64.5122 158.533L63.8889 159.597H64.7892V159.917H63.4619Z" fill="#3C3C3B"/>
<path d="M65.5856 159.916L64.9854 156.995H65.3432L65.7818 159.408L66.2204 156.995H66.5782L65.978 159.916H65.574H65.5856Z" fill="#3C3C3B"/>
<path d="M66.8321 159.916V156.995H67.1783V159.916H66.8321ZM67.0283 159.916V159.597H67.6631C67.7324 159.597 67.7901 159.573 67.8247 159.538C67.8593 159.502 67.8824 159.443 67.8824 159.361V157.551C67.8824 157.48 67.8593 157.421 67.8247 157.373C67.7901 157.326 67.7324 157.314 67.6631 157.314H67.0283V156.995H67.6516C67.8362 156.995 67.9747 157.042 68.0786 157.137C68.1825 157.231 68.2287 157.373 68.2287 157.563V159.349C68.2287 159.467 68.2056 159.573 68.1594 159.656C68.1132 159.739 68.044 159.81 67.9632 159.845C67.8824 159.881 67.7785 159.916 67.6516 159.916H67.0283Z" fill="#3C3C3B"/>
<path d="M69.2444 159.94C69.0943 159.94 68.9789 159.917 68.875 159.857C68.7712 159.798 68.6904 159.715 68.6442 159.597C68.598 159.479 68.5634 159.349 68.5634 159.195V157.705C68.5634 157.551 68.5865 157.409 68.6442 157.303C68.7019 157.196 68.7827 157.101 68.875 157.042C68.9674 156.983 69.1059 156.96 69.2444 156.96C69.3829 156.96 69.5214 156.983 69.6137 157.042C69.7176 157.101 69.7984 157.184 69.8446 157.303C69.9023 157.409 69.9254 157.551 69.9254 157.705V157.823H69.5791V157.705C69.5791 157.61 69.5676 157.539 69.5445 157.48C69.5214 157.421 69.4752 157.373 69.4291 157.338C69.3829 157.303 69.3136 157.291 69.2444 157.291C69.129 157.291 69.0482 157.326 68.9905 157.397C68.9328 157.468 68.8981 157.575 68.8981 157.716V159.207C68.8981 159.337 68.9328 159.443 68.9905 159.514C69.0482 159.585 69.1405 159.621 69.2444 159.621C69.3483 159.621 69.4406 159.585 69.4983 159.514C69.556 159.443 69.5906 159.337 69.5906 159.207V159.089H69.9369V159.207C69.9369 159.361 69.9138 159.503 69.8561 159.609C69.7984 159.715 69.7291 159.81 69.6253 159.869C69.5214 159.928 69.3944 159.952 69.2559 159.952L69.2444 159.94Z" fill="#3C3C3B"/>
<path d="M3.11212 51.3024H76.1121" stroke="#212830" stroke-width="0.25" stroke-miterlimit="10"/>
<path d="M3.11212 151.302H76.1121" stroke="#212830" stroke-width="0.25" stroke-miterlimit="10"/>
<path d="M76.1121 51.3024V151.302" stroke="#212830" stroke-width="0.25" stroke-miterlimit="10"/>
<path d="M3.11212 51.3024V151.302" stroke="#212830" stroke-width="0.25" stroke-miterlimit="10"/>
</svg>
