<svg width="78" height="71" viewBox="0 0 78 71" fill="none" xmlns="http://www.w3.org/2000/svg">
<path d="M77.2732 16.7686L74.0732 47.4685" stroke="#21160E" stroke-width="0.5" stroke-miterlimit="10"/>
<path d="M19.4731 37.3686L77.2731 16.7686L74.0731 47.4685L19.4731 70.3686" fill="#5B5853"/>
<path d="M19.4731 37.3686L77.2731 16.7686L74.0731 47.4685L19.4731 70.3686" stroke="#21160E" stroke-width="0.5" stroke-miterlimit="10"/>
<path d="M19.4732 37.3686V70.3686L1.57324 56.4686L0.573242 24.5686L19.4732 37.3686Z" fill="#393023" stroke="#21160E" stroke-width="0.5" stroke-miterlimit="10"/>
<path d="M0.573145 17.9688L0.473145 24.0688L19.4731 36.8688V30.3688" fill="#393023"/>
<path d="M0.573145 17.9688L0.473145 24.0688L19.4731 36.8688V30.3688" stroke="#21160E" stroke-width="0.5" stroke-miterlimit="10"/>
<path d="M77.273 12.5686L28.373 30.3686" stroke="#21160E" stroke-width="0.5" stroke-miterlimit="10"/>
<path d="M77.2732 16.7686L75.0732 16.8686" stroke="#21160E" stroke-width="0.5" stroke-miterlimit="10"/>
<path d="M76.4729 9.86865L76.5729 12.1686L28.2729 29.6686V27.0686" fill="#6D6B69"/>
<path d="M76.4729 9.86865L76.5729 12.1686L28.2729 29.6686V27.0686" stroke="#21160E" stroke-width="0.5" stroke-miterlimit="10"/>
<path d="M7.97324 15.5685L0.573242 17.9685L19.4732 30.3686L76.4732 9.86856L56.8732 0.268555L13.6732 13.8686" fill="#6D6B69"/>
<path d="M7.97324 15.5685L0.573242 17.9685L19.4732 30.3686L76.4732 9.86856L56.8732 0.268555L13.6732 13.8686" stroke="#21160E" stroke-width="0.5" stroke-miterlimit="10"/>
<path d="M21.8731 22.8688L27.3731 26.4688L74.7731 9.86877L56.7731 0.96875L10.9731 15.7688L21.8731 22.8688Z" fill="#6D6B69" stroke="#21160E" stroke-width="0.5" stroke-miterlimit="10"/>
<path d="M22.9731 26.3688V24.9688" stroke="#21160E" stroke-width="0.5" stroke-miterlimit="10"/>
<path d="M22.9732 26.3686L27.7732 24.9686V23.2686L25.1732 21.5686L20.5732 23.4686V24.9686L22.9732 26.3686Z" fill="#2BB3E9" stroke="#21160E" stroke-width="0.5" stroke-miterlimit="10"/>
<path d="M27.7731 23.2686L22.9731 24.9685" stroke="#21160E" stroke-width="0.5" stroke-miterlimit="10"/>
<path d="M22.9732 24.9688L20.5732 23.4688" stroke="#21160E" stroke-width="0.5" stroke-miterlimit="10"/>
<path d="M15.2732 14.9685V16.5685L10.4732 17.9685L8.07324 16.5685V15.1685L12.5732 13.2686L15.2732 14.9685Z" fill="#E94B45" stroke="#21160E" stroke-width="0.5" stroke-miterlimit="10"/>
<path d="M22.9731 24.9688V26.3688" stroke="#21160E" stroke-width="0.5" stroke-miterlimit="10"/>
<path d="M10.4731 17.9686V16.5686" stroke="#21160E" stroke-width="0.5" stroke-miterlimit="10"/>
<path d="M15.2731 14.9688L10.4731 16.5688" stroke="#21160E" stroke-width="0.5" stroke-miterlimit="10"/>
<path d="M10.4732 16.5687L8.07324 15.1687" stroke="#21160E" stroke-width="0.5" stroke-miterlimit="10"/>
<path d="M28.373 30.3687V29.6687L76.573 12.1687L77.273 12.5687" fill="#393023"/>
<path d="M28.373 30.3687V29.6687L76.573 12.1687L77.273 12.5687" stroke="#21160E" stroke-width="0.5" stroke-miterlimit="10"/>
<path d="M19.4731 30.3686V36.8686L77.2731 16.0686V12.5686L28.2731 30.5686V27.1686" fill="#6D6B69"/>
<path d="M19.4731 30.3686V36.8686L77.2731 16.0686V12.5686L28.2731 30.5686V27.1686" stroke="#21160E" stroke-width="0.5" stroke-miterlimit="10"/>
<path d="M77.2732 16.0686V16.7686L19.4732 37.3686V36.8686L0.573242 24.5686V24.0686" stroke="#21160E" stroke-width="0.5" stroke-miterlimit="10"/>
<path class="ACID-BAT-V+" d="M12.4731 13.7686L14.4731 14.7686L10.4731 16.2686L8.97314 15.2686L12.4731 13.7686Z" fill="#FA837E"/>
<path class="ACID-BAT-GND" d="M24.9731 22.1685L26.9731 23.1685L22.9731 24.6685L21.4731 23.6685L24.9731 22.1685Z" fill="#79CDEF"/>
</svg>
