<svg width="81" height="201" viewBox="0 0 81 201" fill="none" xmlns="http://www.w3.org/2000/svg">
<path d="M80.25 0.25H0.25V200.25H80.25V0.25Z" fill="white"/>
<path d="M35.7437 4.04388H53.2835" stroke="#212830" stroke-width="0.5" stroke-miterlimit="10" stroke-linecap="square"/>
<path d="M35.7437 0.25H53.2835" stroke="#212830" stroke-width="0.5" stroke-miterlimit="10" stroke-linecap="square"/>
<path d="M0.25 0.25V200.25" stroke="#212830" stroke-width="0.5" stroke-miterlimit="10" stroke-linecap="square"/>
<path d="M0.25 200.25H80.25" stroke="#212830" stroke-width="0.5" stroke-miterlimit="10" stroke-linecap="square"/>
<path d="M80.25 200.25V0.25" stroke="#212830" stroke-width="0.5" stroke-miterlimit="10" stroke-linecap="square"/>
<path d="M80.25 0.25H47.0523" stroke="#212830" stroke-width="0.5" stroke-miterlimit="10" stroke-linecap="square"/>
<path d="M35.7437 0.25H0.25" stroke="#212830" stroke-width="0.5" stroke-miterlimit="10" stroke-linecap="square"/>
<path d="M0.25 171.305H80.25" stroke="#212830" stroke-width="0.5" stroke-miterlimit="10" stroke-linecap="square"/>
<path d="M0.25 153.943H80.25" stroke="#212830" stroke-width="0.5" stroke-miterlimit="10" stroke-linecap="square"/>
<path d="M0.25 48.0812L80.25 48.0812" stroke="#212830" stroke-width="0.5" stroke-miterlimit="10" stroke-linecap="square"/>
<path d="M0.25 30.1992H80.25" stroke="#212830" stroke-width="0.5" stroke-miterlimit="10" stroke-linecap="square"/>
<path d="M4.52252 4.04388H35.7437" stroke="#212830" stroke-width="0.5" stroke-miterlimit="10" stroke-linecap="square"/>
<path d="M53.2835 4.04388H76.25" stroke="#212830" stroke-width="0.5" stroke-miterlimit="10" stroke-linecap="square"/>
<path d="M76.25 4.04388V29.8105" stroke="#212830" stroke-width="0.5" stroke-miterlimit="10" stroke-linecap="square"/>
<path d="M4.52252 4.04388V30.1992" stroke="#212830" stroke-width="0.5" stroke-miterlimit="10" stroke-linecap="square"/>
<path d="M4.25 53.25L76.25 53.25V151.25L4.25 151.25V53.25Z" stroke="#212830" stroke-width="0.25" stroke-miterlimit="10" stroke-linecap="square"/>
<path d="M79.45 195.546V171.305" stroke="#212830" stroke-width="0.5" stroke-miterlimit="10" stroke-linecap="square"/>
<path d="M28.4047 113.168L29.9197 106.869H30.7126L32.2275 113.168H31.3991L30.3102 107.861L29.2214 113.168H28.3929H28.4047ZM29.3042 111.726V111.041H31.3991V111.726H29.3042Z" fill="#3C3C3B"/>
<path d="M32.4879 113.168V112.483H35.9319V113.168H32.4879ZM32.4879 114.303V112.494H33.2453V114.303H32.4879ZM32.6181 113.014V112.494H32.7246C32.8311 112.494 32.9139 112.459 32.9968 112.376C33.0796 112.293 33.127 112.175 33.1625 112.033C33.198 111.88 33.2217 111.691 33.2217 111.478V108.689H33.9673V111.608C33.9673 112.093 33.8608 112.447 33.6596 112.684C33.4584 112.92 33.1743 113.026 32.8074 113.026H32.6062L32.6181 113.014ZM33.7187 109.351V108.665H35.281V109.351H33.7187ZM35.0088 113.168V108.665H35.7662V113.168H35.0088ZM35.6716 114.303V112.494H36.429V114.303H35.6716Z" fill="#3C3C3B"/>
<path d="M38.1806 113.239C37.7901 113.239 37.4823 113.133 37.293 112.92C37.1036 112.707 36.9971 112.4 36.9971 111.974C36.9971 111.466 37.1155 111.088 37.364 110.84C37.6125 110.592 37.9676 110.461 38.4528 110.461H39.1748L39.234 111.052H38.4528C38.2043 111.052 38.0149 111.123 37.8966 111.277C37.7782 111.431 37.7072 111.655 37.7072 111.962C37.7072 112.187 37.7664 112.353 37.8729 112.459C37.9794 112.565 38.1451 112.624 38.37 112.624C38.6185 112.624 38.8079 112.553 38.9381 112.423C39.0683 112.293 39.1274 112.093 39.1274 111.832L39.2221 112.223C39.2221 112.447 39.1748 112.624 39.1038 112.778C39.0328 112.92 38.9144 113.038 38.7605 113.109C38.6067 113.18 38.4173 113.215 38.1925 113.215L38.1806 113.239ZM39.1156 113.168V109.871C39.1156 109.658 39.0564 109.492 38.9381 109.386C38.8197 109.268 38.6422 109.209 38.4292 109.209C38.2398 109.209 38.0859 109.268 37.9794 109.386C37.8729 109.504 37.8137 109.67 37.8256 109.882H37.0918C37.0918 109.469 37.2101 109.15 37.4468 108.937C37.6835 108.712 38.0268 108.606 38.4528 108.606C38.8789 108.606 39.2339 108.712 39.4825 108.937C39.731 109.161 39.8494 109.481 39.8494 109.882V113.18H39.1274L39.1156 113.168Z" fill="#3C3C3B"/>
<path d="M40.8317 113.168V108.665H41.5892V113.168H40.8317ZM41.3406 109.351V108.665H43.1632V109.351H41.3406ZM42.7727 113.168V108.665H43.5301V113.168H42.7727Z" fill="#3C3C3B"/>
<path d="M43.9325 109.351V108.665H46.4771V109.351H43.9325ZM44.8438 113.168V108.665H45.5776V113.168H44.8438Z" fill="#3C3C3B"/>
<path d="M48.2287 113.239C47.779 113.239 47.4239 113.109 47.1754 112.849C46.9268 112.589 46.7966 112.223 46.7966 111.75V110.19C46.7966 109.681 46.915 109.303 47.1635 109.02C47.4121 108.748 47.7553 108.606 48.1932 108.606C48.6311 108.606 48.9861 108.736 49.2347 108.984C49.4832 109.244 49.6016 109.599 49.6016 110.06V111.206H47.3055V110.58H48.8678V110.071C48.8678 109.811 48.8086 109.611 48.6903 109.469C48.5719 109.327 48.4062 109.256 48.1932 109.256C47.9802 109.256 47.8263 109.327 47.7079 109.481C47.5896 109.634 47.5304 109.847 47.5304 110.119V111.75C47.5304 111.998 47.5896 112.199 47.7079 112.341C47.8263 112.483 48.0038 112.553 48.2169 112.553C48.4181 112.553 48.5837 112.494 48.7021 112.388C48.8204 112.282 48.8678 112.128 48.8678 111.927V111.892H49.6016V111.927C49.6016 112.341 49.4832 112.66 49.2347 112.884C48.998 113.109 48.6548 113.227 48.2169 113.227L48.2287 113.239Z" fill="#3C3C3B"/>
<path d="M50.5129 115V108.677H51.2703V115H50.5129ZM52.1935 113.239C51.9568 113.239 51.7556 113.168 51.5662 113.038C51.3887 112.908 51.2585 112.719 51.1993 112.471L51.2585 111.785C51.2585 111.951 51.2822 112.104 51.3295 112.223C51.3769 112.341 51.4597 112.435 51.5544 112.506C51.6491 112.565 51.7674 112.601 51.9094 112.601C52.1225 112.601 52.2882 112.53 52.4065 112.376C52.5249 112.223 52.584 112.022 52.584 111.762V110.06C52.584 109.8 52.5249 109.599 52.4065 109.457C52.2882 109.315 52.1225 109.244 51.9094 109.244C51.7674 109.244 51.6491 109.28 51.5544 109.339C51.4597 109.398 51.3769 109.492 51.3295 109.611C51.2822 109.729 51.2585 109.871 51.2585 110.036L51.1638 109.421C51.2585 109.15 51.4005 108.949 51.6017 108.807C51.7911 108.665 52.0041 108.594 52.2408 108.594C52.584 108.594 52.8562 108.724 53.0456 108.972C53.235 109.221 53.3297 109.575 53.3297 110.036V111.773C53.3297 112.234 53.235 112.601 53.0338 112.849C52.8326 113.097 52.5604 113.227 52.1935 113.227V113.239Z" fill="#3C3C3B"/>
<path d="M16.6406 123.817V119.314H17.398V123.817H16.6406ZM17.1495 123.817V123.131H18.9721V123.817H17.1495ZM18.5815 123.817V119.314H19.339V123.817H18.5815ZM19.2443 124.952V123.143H20.0018V124.952H19.2443Z" fill="#3C3C3B"/>
<path d="M23.3393 123.817H22.6292V120.579L22.7357 120.697L21.2208 123.829H20.629V119.338H21.3391V122.635L21.2326 122.517L22.7475 119.326H23.3393V123.817Z" fill="#3C3C3B"/>
<path d="M25.3394 123.817C24.9962 123.817 24.724 123.699 24.5347 123.474C24.3453 123.25 24.2506 122.93 24.2506 122.517V120.59C24.2506 120.177 24.3453 119.869 24.5347 119.645C24.724 119.42 24.9962 119.314 25.3394 119.314C25.6827 119.314 25.943 119.42 26.1324 119.645C26.3218 119.869 26.4164 120.188 26.4164 120.59V122.505C26.4164 122.919 26.3218 123.238 26.1324 123.462C25.943 123.687 25.6827 123.805 25.3394 123.805V123.817ZM25.5762 123.143C25.7537 123.143 25.8957 123.084 25.9904 122.978C26.0851 122.871 26.1324 122.718 26.1324 122.517V120.602C26.1324 120.401 26.0851 120.259 25.9904 120.153C25.8957 120.047 25.7537 119.988 25.5762 119.988C25.3986 119.988 25.2566 120.047 25.1501 120.153C25.0436 120.259 24.9962 120.413 24.9962 120.602V122.517C24.9962 122.718 25.0436 122.871 25.1501 122.978C25.2566 123.084 25.3986 123.143 25.5762 123.143ZM26.1442 125.129V118.026H26.9017V125.129H26.1442ZM27.7065 123.817C27.3633 123.817 27.1029 123.699 26.9135 123.474C26.7242 123.25 26.6295 122.93 26.6295 122.517V120.602C26.6295 120.188 26.7242 119.881 26.9135 119.657C27.1029 119.432 27.3633 119.326 27.7065 119.326C28.0497 119.326 28.3219 119.432 28.5113 119.657C28.7006 119.881 28.7953 120.2 28.7953 120.602V122.529C28.7953 122.942 28.7006 123.261 28.5113 123.486C28.3219 123.711 28.0497 123.829 27.7065 123.829V123.817ZM27.4579 123.143C27.6355 123.143 27.7775 123.084 27.884 122.978C27.9905 122.871 28.0379 122.718 28.0379 122.517V120.602C28.0379 120.401 27.9905 120.259 27.884 120.153C27.7775 120.047 27.6355 119.988 27.4579 119.988C27.2804 119.988 27.1384 120.047 27.0437 120.153C26.949 120.259 26.9017 120.413 26.9017 120.602V122.517C26.9017 122.718 26.949 122.871 27.0437 122.978C27.1384 123.084 27.2804 123.143 27.4579 123.143Z" fill="#3C3C3B"/>
<path d="M29.6948 125.649V119.326H30.4522V125.649H29.6948ZM31.3872 123.888C31.1505 123.888 30.9493 123.817 30.76 123.687C30.5824 123.557 30.4522 123.368 30.3931 123.12L30.4522 122.434C30.4522 122.6 30.4759 122.753 30.5233 122.871C30.5706 122.99 30.6534 123.084 30.7481 123.155C30.8428 123.214 30.9612 123.25 31.1032 123.25C31.3162 123.25 31.4819 123.179 31.6003 123.025C31.7186 122.871 31.7778 122.671 31.7778 122.41V120.709C31.7778 120.449 31.7186 120.248 31.6003 120.106C31.4819 119.964 31.3162 119.893 31.1032 119.893C30.9612 119.893 30.8428 119.929 30.7481 119.988C30.6534 120.047 30.5706 120.141 30.5233 120.259C30.4759 120.378 30.4522 120.519 30.4522 120.685L30.3576 120.07C30.4522 119.798 30.5943 119.598 30.7955 119.456C30.9848 119.314 31.1979 119.243 31.4346 119.243C31.7778 119.243 32.05 119.373 32.2394 119.621C32.4287 119.869 32.5234 120.224 32.5234 120.685V122.422C32.5234 122.883 32.4287 123.25 32.2275 123.498C32.0263 123.746 31.7541 123.876 31.3872 123.876V123.888Z" fill="#3C3C3B"/>
<path d="M34.6892 123.888C34.2632 123.888 33.9318 123.77 33.6951 123.545C33.4584 123.321 33.34 122.99 33.34 122.576V120.531C33.34 120.118 33.4584 119.798 33.6951 119.586C33.9318 119.373 34.2632 119.255 34.6892 119.255C35.1153 119.255 35.4467 119.361 35.6834 119.586C35.9201 119.81 36.0384 120.129 36.0384 120.531V122.588C36.0384 123.001 35.9201 123.321 35.6834 123.545C35.4467 123.77 35.1153 123.888 34.6892 123.888ZM34.6774 123.191C34.8668 123.191 35.0206 123.143 35.1153 123.025C35.21 122.907 35.2692 122.765 35.2692 122.564V120.531C35.2692 120.342 35.2218 120.189 35.1153 120.082C35.0088 119.976 34.8668 119.917 34.6774 119.917C34.488 119.917 34.346 119.976 34.2513 120.082C34.1567 120.189 34.0975 120.342 34.0975 120.531V122.564C34.0975 122.765 34.1448 122.907 34.2513 123.025C34.3579 123.143 34.4999 123.191 34.6774 123.191Z" fill="#3C3C3B"/>
<path d="M36.9379 123.817V119.314H37.6954V123.817H36.9379ZM37.4823 123.817V123.131H38.583C38.6895 123.131 38.7842 123.096 38.8316 123.037C38.8789 122.978 38.9144 122.883 38.9144 122.753V122.28C38.9144 122.127 38.8671 121.997 38.7724 121.914C38.6777 121.831 38.5475 121.784 38.3937 121.784H37.4823V121.099H38.3937C38.6777 121.099 38.8316 120.957 38.8316 120.673V120.271C38.8316 120.082 38.725 119.988 38.5002 119.988H37.4823V119.302H38.583C38.9026 119.302 39.1511 119.373 39.3286 119.527C39.5062 119.68 39.589 119.893 39.589 120.165V120.685C39.589 120.886 39.5298 121.051 39.4233 121.181C39.3168 121.311 39.1511 121.394 38.9617 121.429C39.1866 121.465 39.3641 121.548 39.4943 121.69C39.6245 121.831 39.6837 122.02 39.6837 122.245V122.824C39.6837 123.131 39.589 123.368 39.4115 123.533C39.2221 123.699 38.9617 123.781 38.6304 123.781H37.4942L37.4823 123.817Z" fill="#3C3C3B"/>
<path d="M41.743 123.888C41.3169 123.888 40.9856 123.77 40.7489 123.545C40.5121 123.321 40.3938 122.99 40.3938 122.576V120.531C40.3938 120.118 40.5121 119.798 40.7489 119.586C40.9856 119.373 41.3169 119.255 41.743 119.255C42.1691 119.255 42.5005 119.361 42.7372 119.586C42.9739 119.81 43.0922 120.129 43.0922 120.531V122.588C43.0922 123.001 42.9739 123.321 42.7372 123.545C42.5005 123.77 42.1691 123.888 41.743 123.888ZM41.7312 123.191C41.9205 123.191 42.0744 123.143 42.1691 123.025C42.2638 122.907 42.3229 122.765 42.3229 122.564V120.531C42.3229 120.342 42.2756 120.189 42.1691 120.082C42.0626 119.976 41.9205 119.917 41.7312 119.917C41.5418 119.917 41.3998 119.976 41.3051 120.082C41.2104 120.189 41.1513 120.342 41.1513 120.531V122.564C41.1513 122.765 41.1986 122.907 41.3051 123.025C41.4116 123.143 41.5536 123.191 41.7312 123.191Z" fill="#3C3C3B"/>
<path d="M46.702 123.817H45.9918V120.579L46.0984 120.697L44.5835 123.829H43.9917V119.338H44.7018V122.635L44.5953 122.517L46.1102 119.326H46.702V123.817ZM45.2817 118.439C44.9385 118.439 44.6781 118.345 44.4888 118.156C44.2994 117.967 44.2047 117.695 44.2047 117.352V117.045H44.8438V117.352C44.8438 117.683 44.9859 117.86 45.2817 117.86H45.3646C45.6486 117.86 45.8025 117.695 45.8025 117.352V117.045H46.4416V117.352C46.4416 117.695 46.3469 117.967 46.1575 118.156C45.9682 118.345 45.7078 118.439 45.3646 118.439H45.2817Z" fill="#3C3C3B"/>
<path d="M49.5542 123.817V119.314H50.3117V123.817H49.5542ZM50.075 123.817V123.155H52.7971V123.817H50.075ZM50.9389 123.817V119.314H51.6964V123.817H50.9389ZM52.3118 123.817V119.314H53.0693V123.817H52.3118Z" fill="#3C3C3B"/>
<path d="M56.7737 123.817H56.0636V120.579L56.1701 120.697L54.6552 123.829H54.0634V119.338H54.7735V122.635L54.667 122.517L56.1819 119.326H56.7737V123.817Z" fill="#3C3C3B"/>
<path d="M57.7679 123.817V119.314H58.5253V123.817H57.7679ZM58.2768 121.95V121.276H60.1467V121.95H58.2768ZM59.7207 123.817V119.314H60.4781V123.817H59.7207Z" fill="#3C3C3B"/>
<path d="M61.4723 123.817V119.314H62.2179V123.817H61.4723ZM61.9338 123.817V123.131H62.7741C62.9753 123.131 63.1292 123.072 63.2357 122.966C63.3422 122.86 63.4014 122.706 63.4014 122.505V122.162C63.4014 121.961 63.3422 121.808 63.2357 121.69C63.1292 121.583 62.9753 121.524 62.7741 121.524H61.9338V120.839H62.928C63.3186 120.839 63.6263 120.945 63.8393 121.158C64.0523 121.37 64.1589 121.666 64.1589 122.044V122.611C64.1589 122.99 64.0405 123.285 63.8156 123.498C63.5908 123.711 63.2594 123.817 62.8333 123.817H61.9338ZM64.5968 123.817V119.314H65.3424V123.817H64.5968Z" fill="#3C3C3B"/>
<path d="M16.25 134.466V133.78H19.694V134.466H16.25ZM16.25 135.6V133.792H17.0075V135.6H16.25ZM16.3802 134.312V133.792H16.4867C16.5932 133.792 16.6761 133.757 16.7589 133.674C16.8418 133.591 16.8891 133.473 16.9246 133.331C16.9601 133.178 16.9838 132.988 16.9838 132.776V129.986H17.7294V132.906C17.7294 133.39 17.6229 133.745 17.4217 133.981C17.2205 134.218 16.9364 134.324 16.5696 134.324H16.3684L16.3802 134.312ZM17.4809 130.648V129.963H19.0431V130.648H17.4809ZM18.7709 134.466V129.963H19.5283V134.466H18.7709ZM19.4337 135.6V133.792H20.1911V135.6H19.4337Z" fill="#3C3C3B"/>
<path d="M20.487 134.513V133.851C20.6172 133.851 20.7237 133.816 20.7829 133.733C20.8539 133.65 20.8894 133.532 20.8894 133.378V129.986H21.6468V133.438C21.6468 133.792 21.5522 134.064 21.3746 134.241C21.1971 134.43 20.9249 134.513 20.5817 134.513H20.487ZM21.4693 130.648V129.963H23.0434V130.648H21.4693ZM22.7239 134.466V129.963H23.4813V134.466H22.7239Z" fill="#3C3C3B"/>
<path d="M26.736 132.977H25.5643C25.1737 132.977 24.866 132.87 24.653 132.657C24.44 132.445 24.3334 132.149 24.3334 131.771V131.168C24.3334 130.79 24.4518 130.495 24.6767 130.282C24.9015 130.069 25.2329 129.963 25.6471 129.963H26.736V130.648H25.7063C25.5051 130.648 25.3513 130.707 25.2447 130.814C25.1382 130.92 25.0791 131.074 25.0791 131.275V131.653C25.0791 131.854 25.1382 132.007 25.2447 132.114C25.3513 132.22 25.5051 132.279 25.7063 132.279H26.736V132.965V132.977ZM25.1856 134.466H24.3808L25.2211 132.539L25.943 132.74L25.1856 134.478V134.466ZM27.1384 134.466H26.3809V129.963H27.1384V134.466Z" fill="#3C3C3B"/>
<path d="M32.0618 132.445L33.482 128.166H34.1803V134.466H33.4702V129.549L33.5294 129.821L32.334 133.508H31.7778L30.5824 129.904L30.6534 129.537V134.454H29.9315V128.154H30.6416L32.0382 132.433L32.0618 132.445Z" fill="#3C3C3B"/>
<path d="M36.2988 134.797L34.8194 129.975H35.5887L36.6302 133.839L36.2988 134.797ZM37.2574 129.975H38.0267L36.5473 135.529C36.4763 135.801 36.3225 136.014 36.1094 136.144C35.8846 136.286 35.5887 136.345 35.1981 136.345H35.1153V135.659H35.1981C35.4348 135.659 35.6242 135.612 35.7425 135.506C35.8609 135.399 35.9556 135.246 36.0147 135.045L37.2574 129.963V129.975Z" fill="#3C3C3B"/>
<path d="M38.5594 134.466V128.166H39.3168V134.466H38.5594ZM39.1393 131.712V131.026H41.1513V131.712H39.1393ZM40.8435 134.466V128.166H41.601V134.466H40.8435Z" fill="#3C3C3B"/>
<path d="M43.8852 134.537C43.4354 134.537 43.0804 134.407 42.8318 134.147C42.5833 133.887 42.4531 133.52 42.4531 133.048V131.487C42.4531 130.979 42.5714 130.601 42.82 130.317C43.0685 130.046 43.4117 129.904 43.8496 129.904C44.2875 129.904 44.6426 130.034 44.8911 130.282C45.1397 130.542 45.258 130.896 45.258 131.357V132.504H42.962V131.877H44.5243V131.369C44.5243 131.109 44.4651 130.908 44.3467 130.766C44.2284 130.625 44.0627 130.554 43.8496 130.554C43.6366 130.554 43.4828 130.625 43.3644 130.778C43.2461 130.932 43.1869 131.145 43.1869 131.417V133.048C43.1869 133.296 43.2461 133.497 43.3644 133.638C43.4828 133.78 43.6603 133.851 43.8733 133.851C44.0745 133.851 44.2402 133.792 44.3586 133.686C44.4769 133.579 44.5243 133.426 44.5243 133.225V133.189H45.258V133.225C45.258 133.638 45.1397 133.958 44.8911 134.182C44.6544 134.407 44.3112 134.525 43.8733 134.525L43.8852 134.537Z" fill="#3C3C3B"/>
<path d="M47.3056 134.537C46.915 134.537 46.6073 134.43 46.4179 134.218C46.2286 134.005 46.122 133.698 46.122 133.272C46.122 132.764 46.2404 132.386 46.4889 132.137C46.7375 131.889 47.0925 131.759 47.5778 131.759H48.2997L48.3589 132.35H47.5778C47.3292 132.35 47.1399 132.421 47.0215 132.575C46.9032 132.728 46.8322 132.953 46.8322 133.26C46.8322 133.485 46.8913 133.65 46.9978 133.757C47.1044 133.863 47.2701 133.922 47.4949 133.922C47.7435 133.922 47.9328 133.851 48.063 133.721C48.1932 133.591 48.2524 133.39 48.2524 133.13L48.3471 133.52C48.3471 133.745 48.2997 133.922 48.2287 134.076C48.1577 134.218 48.0393 134.336 47.8855 134.407C47.7316 134.478 47.5423 134.513 47.3174 134.513L47.3056 134.537ZM48.2405 134.466V131.168C48.2405 130.956 48.1814 130.79 48.063 130.684C47.9447 130.566 47.7671 130.506 47.5541 130.506C47.3647 130.506 47.2109 130.566 47.1044 130.684C46.9978 130.802 46.9387 130.967 46.9505 131.18H46.2167C46.2167 130.766 46.3351 130.447 46.5718 130.235C46.8085 130.01 47.1517 129.904 47.5778 129.904C48.0038 129.904 48.3589 130.01 48.6074 130.235C48.856 130.459 48.9743 130.778 48.9743 131.18V134.478H48.2524L48.2405 134.466Z" fill="#3C3C3B"/>
<path d="M49.5897 130.648V129.963H51.6136V130.648H49.5897ZM51.1757 134.489C50.7851 134.489 50.5129 134.383 50.3354 134.182C50.1578 133.981 50.075 133.686 50.075 133.296V128.663H50.8324V133.308C50.8324 133.473 50.8679 133.591 50.9389 133.686C51.01 133.768 51.1165 133.816 51.2703 133.816H51.6136V134.501H51.1757V134.489Z" fill="#3C3C3B"/>
<path d="M54.2055 134.466V128.166H54.9629V134.466H54.2055ZM54.6789 132.019V131.334H56.0044C56.1938 131.334 56.3476 131.275 56.4541 131.156C56.5607 131.038 56.608 130.861 56.608 130.648V129.549C56.608 129.325 56.5607 129.147 56.4541 129.017C56.3476 128.887 56.2056 128.828 56.0044 128.828H54.6789V128.143H55.9807C56.2766 128.143 56.5252 128.202 56.7382 128.308C56.9512 128.414 57.1051 128.568 57.2116 128.781C57.3181 128.982 57.3773 129.23 57.3773 129.525V130.648C57.3773 130.932 57.3181 131.168 57.2116 131.381C57.1051 131.582 56.9394 131.736 56.7382 131.842C56.537 131.948 56.2766 132.007 55.9926 132.007H54.6907L54.6789 132.019Z" fill="#3C3C3B"/>
<path d="M58.1584 134.466V128.166H58.9159V134.466H58.1584ZM58.5608 131.807V131.121H59.7798C60.0402 131.121 60.2414 131.05 60.3953 130.908C60.5491 130.766 60.6201 130.577 60.6201 130.317V129.667C60.6201 129.407 60.5491 129.195 60.3953 129.053C60.2532 128.911 60.0402 128.828 59.7798 128.828H58.5608V128.143H59.7088C60.0639 128.143 60.3598 128.202 60.5965 128.308C60.845 128.414 61.0344 128.58 61.1646 128.793C61.2947 129.005 61.3539 129.265 61.3539 129.573V130.306C61.3539 130.613 61.2947 130.885 61.1646 131.097C61.0344 131.322 60.845 131.487 60.5965 131.606C60.3479 131.724 60.052 131.783 59.7088 131.783H58.5608V131.807ZM60.703 134.466L59.8035 131.606L60.5018 131.405L61.5551 134.466H60.703Z" fill="#3C3C3B"/>
<path d="M63.8038 134.537C63.4606 134.537 63.1647 134.478 62.9162 134.348C62.6676 134.229 62.4901 134.04 62.3599 133.804C62.2297 133.568 62.1705 133.284 62.1705 132.941V129.679C62.1705 129.336 62.2297 129.053 62.3599 128.816C62.4901 128.58 62.6794 128.403 62.9162 128.284C63.1647 128.166 63.4606 128.095 63.8038 128.095C64.147 128.095 64.4429 128.154 64.6914 128.284C64.94 128.403 65.1175 128.592 65.2477 128.816C65.3779 129.053 65.437 129.336 65.437 129.679V132.941C65.437 133.284 65.3779 133.568 65.2477 133.804C65.1175 134.04 64.9281 134.218 64.6914 134.348C64.4547 134.478 64.1588 134.537 63.8038 134.537ZM63.8038 133.828C64.076 133.828 64.3009 133.757 64.4547 133.603C64.6086 133.449 64.6796 133.248 64.6796 132.977V129.655C64.6796 129.384 64.6086 129.171 64.4547 129.029C64.3009 128.887 64.0878 128.805 63.8038 128.805C63.5197 128.805 63.3067 128.875 63.1529 129.029C62.999 129.171 62.928 129.384 62.928 129.655V132.977C62.928 133.248 62.999 133.449 63.1529 133.603C63.3067 133.757 63.5197 133.828 63.8038 133.828Z" fill="#3C3C3B"/>
<path d="M26.4161 81.8833V76.8484H26.9369V81.8833H26.4161ZM26.8067 81.8833V81.4224H27.931C28.0967 81.4224 28.2151 81.3751 28.3098 81.2687C28.4044 81.1624 28.44 81.0205 28.44 80.8433V79.9332C28.44 79.7441 28.3926 79.5904 28.3098 79.4959C28.2269 79.4013 28.0967 79.3422 27.931 79.3422H26.8067V78.8813H27.9074C28.1322 78.8813 28.3216 78.9286 28.4755 79.0113C28.6293 79.094 28.7477 79.2122 28.8305 79.3777C28.9134 79.5313 28.9607 79.7205 28.9607 79.9568V80.8669C28.9607 81.0914 28.9134 81.2806 28.8305 81.4342C28.7477 81.5878 28.6293 81.706 28.4636 81.7888C28.3098 81.8715 28.1204 81.907 27.8955 81.907H26.7949L26.8067 81.8833ZM26.8777 77.3094V76.8484H28.6412V77.3094H26.8777Z" fill="#3C3C3B"/>
<path d="M29.3749 81.9188V81.4578C29.4815 81.4578 29.5525 81.4224 29.6116 81.3633C29.6708 81.3042 29.6945 81.2096 29.6945 81.0796V78.2903H30.2152V81.1033C30.2152 81.3633 30.1442 81.5642 30.014 81.706C29.8839 81.8478 29.6945 81.9188 29.4459 81.9188H29.3749ZM30.1561 78.7513V78.2903H31.4106V78.7513H30.1561ZM31.2331 81.8833V78.2903H31.7538V81.8833H31.2331Z" fill="#3C3C3B"/>
<path d="M33.5646 81.9424C33.2214 81.9424 32.961 81.8478 32.7717 81.6706C32.5823 81.4933 32.4876 81.2333 32.4876 80.9023V79.2713C32.4876 78.9404 32.5823 78.6922 32.7717 78.5149C32.961 78.3376 33.2214 78.2431 33.5646 78.2431C33.9078 78.2431 34.1682 78.3376 34.3576 78.5149C34.5469 78.6922 34.6416 78.9522 34.6416 79.2713V80.9142C34.6416 81.2451 34.5469 81.4933 34.3576 81.6824C34.1682 81.8597 33.9078 81.9542 33.5646 81.9542V81.9424ZM33.5528 81.4696C33.7303 81.4696 33.8723 81.4224 33.967 81.316C34.0617 81.2096 34.109 81.0796 34.109 80.8905V79.2477C34.109 79.0704 34.0617 78.9286 33.967 78.834C33.8723 78.7395 33.7303 78.6804 33.5528 78.6804C33.3752 78.6804 33.2451 78.7276 33.1385 78.834C33.032 78.9404 32.9965 79.0704 32.9965 79.2477V80.8905C32.9965 81.0678 33.0439 81.2096 33.1385 81.316C33.2332 81.4224 33.3752 81.4696 33.5528 81.4696Z" fill="#3C3C3B"/>
<path d="M35.3636 81.8833V78.2903H35.8843V81.8833H35.3636ZM35.7186 80.3232V79.8741H36.985V80.3232H35.7186ZM37.2809 81.8833L36.4997 80.2168L36.9258 79.9214L37.8489 81.8833H37.269H37.2809ZM36.914 80.3232L36.5116 79.9923L37.1625 78.2903H37.7069L36.9021 80.3232H36.914Z" fill="#3C3C3B"/>
<path d="M21.9543 89.0338L23.1378 85.3581H23.6467V90.393H23.1378V86.3391L23.1733 86.5636L22.1673 89.6956H21.7294L20.7234 86.6345L20.7589 86.3391V90.393H20.25V85.3581H20.7589L21.9425 89.0338H21.9543Z" fill="#3C3C3B"/>
<path d="M25.3628 90.6412L24.1556 86.8H24.6882L25.5522 89.873L25.3628 90.6412ZM26.1913 86.8H26.7239L25.4812 91.244C25.422 91.4685 25.3037 91.634 25.1261 91.7404C24.9486 91.8467 24.7119 91.9058 24.4042 91.9058H24.3687V91.4331H24.4042C24.6172 91.4331 24.7711 91.3858 24.8776 91.2912C24.9841 91.1967 25.0669 91.0549 25.1261 90.8776L26.1913 86.8119V86.8Z" fill="#3C3C3B"/>
<path d="M27.1618 90.4048V85.3699H27.6825V90.4048H27.1618ZM27.6233 88.1592V87.6982H29.2448V88.1592H27.6233ZM29.0672 90.4048V85.3699H29.588V90.4048H29.0672Z" fill="#3C3C3B"/>
<path d="M31.4224 90.452C31.0555 90.452 30.7833 90.3457 30.5821 90.1329C30.3809 89.9202 30.2863 89.6247 30.2863 89.2465V87.9937C30.2863 87.5918 30.3809 87.2727 30.5821 87.06C30.7833 86.8354 31.0555 86.7291 31.3988 86.7291C31.742 86.7291 32.0379 86.8354 32.2272 87.0364C32.4284 87.2373 32.5231 87.5328 32.5231 87.8991V88.7974H30.6058V88.3364H32.0024V87.9228C32.0024 87.6982 31.955 87.5209 31.8485 87.3909C31.742 87.2609 31.6 87.2018 31.3988 87.2018C31.1976 87.2018 31.0674 87.2727 30.9609 87.4027C30.8543 87.5328 30.807 87.7219 30.807 87.9701V89.2701C30.807 89.4947 30.8662 89.672 30.9727 89.802C31.0792 89.932 31.2331 89.9911 31.4343 89.9911C31.6236 89.9911 31.7657 89.9438 31.8722 89.8375C31.9787 89.7429 32.026 89.6011 32.026 89.412V89.3883H32.5468V89.412C32.5468 89.7429 32.4521 89.9911 32.2627 90.1802C32.0734 90.3575 31.8012 90.452 31.4461 90.452H31.4224Z" fill="#3C3C3B"/>
<path d="M34.18 90.452C33.8486 90.452 33.6001 90.3693 33.4462 90.2038C33.2805 90.0384 33.1977 89.7783 33.1977 89.4474C33.1977 89.0456 33.2924 88.7383 33.4817 88.5373C33.6711 88.3364 33.967 88.2419 34.3457 88.2419H35.0203L35.0677 88.6083H34.3457C34.1208 88.6083 33.9433 88.6792 33.8368 88.821C33.7184 88.9628 33.6593 89.1756 33.6593 89.4592C33.6593 89.672 33.7066 89.8374 33.8131 89.9438C33.9196 90.0502 34.0735 90.0974 34.2747 90.0974C34.5114 90.0974 34.6771 90.0384 34.7954 89.9202C34.9138 89.802 34.973 89.6247 34.973 89.3883L35.044 89.6838C35.044 89.8493 35.0085 90.0029 34.9375 90.1093C34.8665 90.2275 34.7718 90.3102 34.6416 90.3693C34.5114 90.4284 34.3457 90.452 34.1563 90.452H34.18ZM34.9848 90.4047V87.7691C34.9848 87.58 34.9256 87.4264 34.8191 87.32C34.7126 87.2136 34.5469 87.1545 34.3457 87.1545C34.1682 87.1545 34.0262 87.2136 33.9196 87.32C33.8131 87.4264 33.7658 87.58 33.7658 87.7691H33.2687C33.2687 87.4382 33.3634 87.19 33.5527 87.0127C33.7421 86.8354 34.0143 86.7409 34.3575 86.7409C34.7008 86.7409 34.9848 86.8354 35.1742 87.0127C35.3635 87.19 35.47 87.45 35.47 87.7691V90.4047H34.9848Z" fill="#3C3C3B"/>
<path d="M35.979 87.2728V86.8118H37.6004V87.2728H35.979ZM37.2453 90.4166C36.9376 90.4166 36.7128 90.3339 36.5707 90.1684C36.4287 90.0029 36.3577 89.7666 36.3577 89.4593V85.7481H36.8785V89.4593C36.8785 89.6129 36.914 89.7311 36.985 89.8138C37.056 89.8966 37.1625 89.9438 37.3045 89.9438H37.5886V90.4048H37.2335L37.2453 90.4166Z" fill="#3C3C3B"/>
<path d="M43.6245 76.4348H42.1451V91.6931H43.6245V76.4348Z" fill="#EE7203"/>
<path d="M47.9562 90.4048V77.8058H49.9445V90.4048H47.9562ZM49.1397 90.4048V88.6202H51.2109C51.5541 88.6202 51.8026 88.5374 51.992 88.372C52.1695 88.2065 52.2642 87.9819 52.2642 87.6865V86.02C52.2642 85.6182 52.1695 85.3109 51.9683 85.0981C51.7671 84.8736 51.4949 84.7672 51.1517 84.7672H49.1397V82.9944H51.1162C51.4357 82.9944 51.6724 82.8998 51.85 82.6989C52.0275 82.498 52.1103 82.2143 52.1103 81.8479V80.536C52.1103 80.2524 52.0275 80.016 51.8618 79.8505C51.6961 79.6851 51.4594 79.6023 51.1517 79.6023H49.1515V77.8177H51.2464C52.1577 77.8177 52.856 78.0422 53.353 78.4795C53.8501 78.9286 54.0987 79.555 54.0987 80.3706V81.7179C54.0987 82.3089 53.9448 82.7934 53.6252 83.1598C53.3057 83.538 52.8678 83.7744 52.2997 83.869C52.927 83.9635 53.4122 84.1999 53.7554 84.5899C54.0987 84.9799 54.2762 85.4882 54.2762 86.1146V87.8047C54.2762 88.6202 54.0276 89.2584 53.5424 89.7193C53.0572 90.1803 52.3707 90.4048 51.4712 90.4048H49.1515H49.1397Z" fill="#3C3C3B"/>
<path d="M55.7201 90.4048V77.8058H57.7084V90.4048H55.7201ZM56.6551 90.4048V88.5965H61.2945V90.4048H56.6551Z" fill="#3C3C3B"/>
<path fill-rule="evenodd" clip-rule="evenodd" d="M43.1026 57.0991C42.7238 57.3473 42.3806 57.7019 42.0611 58.1865C41.848 58.5056 41.6232 58.9192 41.3746 59.4511C41.2326 59.7702 41.0077 60.302 40.7 61.0585C40.5107 61.5312 40.3331 61.8858 40.1793 62.134C40.0018 62.4649 39.7295 62.7958 39.3982 63.1268C38.9248 63.6113 38.3685 63.9777 37.7531 64.2377C37.3388 64.4032 36.9719 64.5096 36.6406 64.545L36.25 64.5687L36.5932 64.285L37.4217 63.4813C37.7649 63.1031 38.0608 62.7249 38.2857 62.3349C38.4395 62.0749 38.5579 61.8503 38.617 61.673L38.9366 60.8575C39.197 60.172 39.5875 59.5102 40.0964 58.8838C40.5698 58.3046 41.0551 57.8555 41.564 57.5364C41.9782 57.2764 42.3688 57.1228 42.7238 57.0755C42.9014 57.0518 43.0316 57.0637 43.1026 57.0755V57.0991Z" fill="#EE7203"/>
<path fill-rule="evenodd" clip-rule="evenodd" d="M45.6235 57.1227C45.2448 57.3709 44.9015 57.7254 44.582 58.21C44.3689 58.5291 44.1441 58.9428 43.8955 59.4746C43.7535 59.7938 43.5286 60.3256 43.2209 61.082C43.0316 61.5548 42.854 61.9093 42.7002 62.1575C42.5227 62.4885 42.2504 62.8194 41.9191 63.1503C41.4457 63.6349 40.8894 64.0013 40.274 64.2613C39.8597 64.4268 39.4928 64.5331 39.1615 64.5686L38.7709 64.5922L39.1141 64.3086L39.9426 63.5049C40.2858 63.1267 40.5817 62.7485 40.8066 62.3585C40.9604 62.0984 41.0788 61.8739 41.1379 61.6966L41.4575 60.8811C41.7179 60.1956 42.1084 59.5337 42.6173 58.9073C43.0907 58.3282 43.576 57.8791 44.0849 57.56C44.4991 57.3 44.8897 57.1463 45.2448 57.099C45.4223 57.0754 45.5525 57.0872 45.6235 57.099V57.1227Z" fill="#2E2D2C"/>
<path fill-rule="evenodd" clip-rule="evenodd" d="M48.1325 57.099C47.7538 57.3472 47.4106 57.7018 47.091 58.1864C46.878 58.5055 46.6531 58.9192 46.4046 59.451C46.2626 59.7701 46.0377 60.302 45.73 61.0584C45.5406 61.5312 45.3631 61.8857 45.2093 62.1339C45.0317 62.4648 44.7595 62.7958 44.4281 63.1267C43.9547 63.6113 43.3985 63.9777 42.783 64.2377C42.3688 64.4032 42.0019 64.5095 41.6705 64.545L41.28 64.5686L41.6232 64.285L42.4517 63.4813C42.7949 63.1031 43.0908 62.7249 43.3156 62.3348C43.4695 62.0748 43.5878 61.8503 43.647 61.673L43.9666 60.8575C44.2269 60.172 44.6175 59.5101 45.1264 58.8837C45.5998 58.3046 46.0851 57.8555 46.594 57.5364C47.0082 57.2763 47.3988 57.1227 47.7538 57.0754C47.9313 57.0518 48.0615 57.0636 48.1325 57.0754V57.099Z" fill="#EE7203"/>
<path d="M52.6536 64.557H51.5529V58.2575H50.7126V64.557H49.5883V58.0802C49.5883 57.7611 49.6711 57.5011 49.825 57.3238C49.9788 57.1465 50.2037 57.052 50.4996 57.052H51.4464C51.6476 57.052 51.8133 57.1111 51.9316 57.2411C52.05 57.3711 52.0973 57.5484 52.0973 57.7729C52.0973 57.5365 52.1565 57.3593 52.263 57.2411C52.3814 57.1111 52.5352 57.052 52.7364 57.052H53.6832C53.9673 57.052 54.1922 57.1465 54.3579 57.3238C54.5235 57.5011 54.6064 57.7493 54.6064 58.0802V64.557H53.4702V58.2575H52.6536V64.557Z" fill="#2E2D2C"/>
<path d="M55.4112 57.0517H56.5355V60.2783L57.3522 59.8174V57.0517H58.4883V63.4694C58.4883 63.8358 58.4055 64.1076 58.2516 64.2849C58.0978 64.4622 57.8611 64.5568 57.5297 64.5568H56.2988C56.0148 64.5568 55.7899 64.4622 55.6242 64.2849C55.4585 64.1076 55.3875 63.8476 55.3875 63.5285V63.2567L56.5119 62.6185V63.363H57.3285V61.1529L55.3875 62.2639V57.0399L55.4112 57.0517Z" fill="#2E2D2C"/>
<path d="M62.4058 57.0517V64.5567H61.2933V61.082L60.4412 61.5547V64.5567H59.3286V57.0517H60.4412V60.1956L61.2933 59.7346V57.0517H62.4058Z" fill="#EE7203"/>
<path d="M65.9564 64.5567H63.2343V57.0517H65.9564V58.2454H64.3586V60.1837L65.9564 59.3091V60.6447L64.3586 61.5311V63.3512H65.9564V64.5449V64.5567Z" fill="#EE7203"/>
<path d="M69.7436 64.5567H68.6193V61.3775L67.779 61.8384V64.5567H66.6546V58.08C66.6546 57.7609 66.7375 57.5008 66.8913 57.3236C67.0452 57.1463 67.27 57.0517 67.5659 57.0517H68.8205C69.1045 57.0517 69.3294 57.1463 69.4951 57.3236C69.6608 57.5008 69.7436 57.749 69.7436 58.08V64.5567ZM68.6074 60.0537V58.2336H67.7671V60.491L68.6074 60.0419V60.0537Z" fill="#EE7203"/>
<path d="M71.3295 64.5568V58.2573H70.217V57.0636H73.5664V58.2573H72.4539V64.5568H71.3295Z" fill="#EE7203"/>
<path d="M33.25 9.81152V21.4414H51.3223V9.81152" fill="#AFD5A9"/>
<path d="M33.25 9.81152V21.4414H51.3223V9.81152" stroke="#212830" stroke-width="0.25" stroke-miterlimit="10"/>
<path d="M51.3223 7.61322H33.25V9.79972H51.3223V7.61322Z" fill="#5EB34A" stroke="#1D1D1B" stroke-width="0.25" stroke-miterlimit="10"/>
<path d="M51.3223 21.4413H33.25V26.5117H51.3223V21.4413Z" fill="#5EB34A" stroke="#1D1D1B" stroke-width="0.25" stroke-miterlimit="10"/>
<path d="M36.0786 26.5235V22.7296H39.5582V26.5235H45.0615V22.7296H48.5411V26.5235" fill="#0C9B47"/>
<path d="M36.0786 26.5235V22.7296H39.5582V26.5235H45.0615V22.7296H48.5411V26.5235" stroke="#212830" stroke-width="0.25" stroke-miterlimit="10"/>
<path class="BUS-B" d="M43.2981 15.5674L43.3573 16.2174L43.5703 16.8556L43.8307 17.3875L44.2567 17.9193L44.8012 18.3448L45.3337 18.6166L45.9728 18.8294L46.6119 18.8885L47.251 18.8294L47.902 18.6166L48.4346 18.3448L48.9672 17.9193L49.3932 17.3875L49.6654 16.8556L49.8785 16.2174L49.9258 15.5674L49.8785 14.9291L49.6654 14.2909L49.3932 13.7591L48.9672 13.2272L48.4346 12.8017L47.902 12.5299L47.251 12.3172L46.6119 12.2581L45.9728 12.3172L45.3337 12.5299L44.8012 12.8017L44.2567 13.2272L43.8307 13.7591L43.5703 14.2909L43.3573 14.9291L43.2981 15.5674Z" fill="#C8C8CA"/>
<path d="M48.9908 17.943L44.2922 13.1918M43.2981 15.5674L43.3573 16.2174L43.5703 16.8556L43.8307 17.3875L44.2567 17.9193L44.8012 18.3448L45.3337 18.6166L45.9728 18.8294L46.6119 18.8885L47.251 18.8294L47.902 18.6166L48.4346 18.3448L48.9672 17.9193L49.3932 17.3875L49.6654 16.8556L49.8785 16.2174L49.9258 15.5674L49.8785 14.9291L49.6654 14.2909L49.3932 13.7591L48.9672 13.2272L48.4346 12.8017L47.902 12.5299L47.251 12.3172L46.6119 12.2581L45.9728 12.3172L45.3337 12.5299L44.8012 12.8017L44.2567 13.2272L43.8307 13.7591L43.5703 14.2909L43.3573 14.9291L43.2981 15.5674Z" stroke="#212830" stroke-width="0.25" stroke-miterlimit="10"/>
<path class="BUS-A" d="M34.9543 15.6264L35.0135 16.2647L35.2265 16.9029L35.4987 17.4466L35.9248 17.9784L36.4574 18.4039L36.9899 18.6639L37.629 18.8885L38.28 18.9357L38.9191 18.8885L39.5582 18.6639L40.0908 18.4039L40.6233 17.9784L41.0494 17.4466L41.3216 16.9029L41.5346 16.2647L41.5938 15.6264L41.5346 14.9882L41.3216 14.35L41.0494 13.8063L40.6233 13.2745L40.0908 12.849L39.5582 12.589L38.9191 12.3644L38.28 12.3171L37.629 12.3644L36.9899 12.589L36.4574 12.849L35.9248 13.2745L35.4987 13.8063L35.2265 14.35L35.0135 14.9882L34.9543 15.6264Z" fill="#C8C8CA"/>
<path d="M40.6588 18.0021L35.9603 13.2509M34.9543 15.6264L35.0135 16.2647L35.2265 16.9029L35.4987 17.4466L35.9248 17.9784L36.4574 18.4039L36.9899 18.6639L37.629 18.8885L38.28 18.9357L38.9191 18.8885L39.5582 18.6639L40.0908 18.4039L40.6233 17.9784L41.0494 17.4466L41.3216 16.9029L41.5346 16.2647L41.5938 15.6264L41.5346 14.9882L41.3216 14.35L41.0494 13.8063L40.6233 13.2745L40.0908 12.849L39.5582 12.589L38.9191 12.3644L38.28 12.3171L37.629 12.3644L36.9899 12.589L36.4574 12.849L35.9248 13.2745L35.4987 13.8063L35.2265 14.35L35.0135 14.9882L34.9543 15.6264Z" stroke="#212830" stroke-width="0.25" stroke-miterlimit="10"/>
<path d="M36.2737 33.213C36.3092 33.7331 36.5814 34.194 36.9838 34.4659C37.2442 34.6431 37.5637 34.7495 37.8951 34.7495H37.9306C38.7946 34.7495 39.4928 34.0758 39.552 33.213V31.452H37.8833H36.25V33.213H36.2737Z" fill="#1D71B8"/>
<path d="M45.2337 33.213C45.2928 34.0758 45.9911 34.7495 46.8551 34.7495H46.8906C47.7546 34.7495 48.4528 34.0758 48.512 33.213V33.1066V31.4638H46.8788H45.21V33.2248L45.2337 33.213ZM45.7662 32.0075H46.8788H47.9676V33.1776C47.9321 33.7449 47.4587 34.2058 46.8906 34.2058H46.8669C46.287 34.2058 45.8254 33.7567 45.7899 33.1776V32.0075H45.7662Z" fill="#1D71B8"/>
<path d="M48.2689 40.6471V38.8861H47.5588V39.8789H37.0136V38.8861H36.3035V40.6471H48.2689Z" fill="#2E2D2C"/>
<path d="M39.9961 38.2597V35.5059H40.3275V38.2597H39.9961ZM40.2328 38.2597V37.9643H40.7535C40.8364 37.9643 40.9074 37.9406 40.9547 37.9052C41.0021 37.8697 41.0258 37.8106 41.0258 37.7397V37.3142C41.0258 37.2078 41.0021 37.1251 40.9429 37.066C40.8837 37.0069 40.8246 36.9833 40.7417 36.9833H40.2446V36.6878H40.7417C40.8246 36.6878 40.8837 36.6642 40.9311 36.6051C40.9784 36.5578 41.0021 36.4751 41.0021 36.3805V36.0378C41.0021 35.9669 40.9784 35.9078 40.9311 35.8723C40.8837 35.8368 40.8246 35.8132 40.7535 35.8132H40.2565V35.5177H40.7535C40.9429 35.5177 41.0849 35.565 41.1915 35.6477C41.298 35.7305 41.3453 35.8605 41.3453 36.026V36.3569C41.3453 36.4869 41.3216 36.5933 41.2625 36.676C41.2033 36.7587 41.1323 36.8178 41.0258 36.8415C41.1441 36.8651 41.227 36.9124 41.2861 37.0069C41.3453 37.0897 41.3808 37.2078 41.3808 37.3497V37.7515C41.3808 37.917 41.3335 38.047 41.2388 38.1415C41.1441 38.2361 41.0021 38.2834 40.8127 38.2834H40.2683L40.2328 38.2597Z" fill="#3C3C3B"/>
<path d="M42.2684 38.2833C42.0554 38.2833 41.8897 38.2242 41.7832 38.1178C41.6767 38.0115 41.6175 37.846 41.6175 37.6333V35.5059H41.9489V37.6569C41.9489 37.7633 41.9725 37.846 42.0317 37.8933C42.0909 37.9524 42.1619 37.976 42.2684 37.976C42.3749 37.976 42.4578 37.9524 42.517 37.8933C42.5761 37.8342 42.5998 37.7633 42.5998 37.6569V35.5059H42.9312V37.6333C42.9312 37.846 42.872 38.0115 42.7655 38.1178C42.659 38.2242 42.4933 38.2833 42.2803 38.2833H42.2684Z" fill="#3C3C3B"/>
<path d="M43.9017 38.2833C43.7478 38.2833 43.6177 38.2597 43.5111 38.2124C43.4046 38.1651 43.3336 38.0942 43.2744 37.9997C43.2153 37.9051 43.1916 37.7869 43.1916 37.6451V37.5033H43.523V37.6333C43.523 37.7515 43.5585 37.8342 43.6177 37.8933C43.6768 37.9524 43.7715 37.9879 43.9017 37.9879C44.0319 37.9879 44.1147 37.9642 44.1739 37.8933C44.2331 37.8342 44.2686 37.7515 44.2686 37.6333V37.4324C44.2686 37.3496 44.2449 37.2787 44.2094 37.2196C44.1739 37.1605 44.1147 37.1133 44.0437 37.0778C43.9727 37.0423 43.9017 37.0069 43.8307 36.9714C43.7597 36.936 43.6887 36.9005 43.6177 36.8651C43.5466 36.8296 43.4756 36.7823 43.4165 36.735C43.3573 36.6878 43.3099 36.6169 43.2744 36.5459C43.2389 36.475 43.2153 36.3805 43.2153 36.2623V36.1205C43.2153 35.9077 43.2744 35.7541 43.3928 35.6477C43.5111 35.5413 43.6887 35.4822 43.9135 35.4822C44.1384 35.4822 44.3041 35.5413 44.4224 35.6477C44.5408 35.7541 44.5881 35.9195 44.5881 36.1323V36.2741H44.2686V36.1323C44.2686 36.0141 44.2331 35.9314 44.1739 35.8723C44.1147 35.8132 44.0319 35.7895 43.9135 35.7895C43.7952 35.7895 43.7005 35.8132 43.6413 35.8723C43.5822 35.9314 43.5466 36.0141 43.5466 36.1205V36.2741C43.5466 36.3687 43.5703 36.4396 43.6177 36.4868C43.665 36.5459 43.7242 36.5932 43.807 36.6287C43.878 36.6641 43.9609 36.6996 44.0437 36.7469C44.1147 36.7823 44.1739 36.806 44.2449 36.8414C44.3159 36.8769 44.3751 36.9241 44.4224 36.9714C44.4816 37.0187 44.5171 37.0896 44.5526 37.1605C44.5881 37.2314 44.6 37.326 44.6 37.4324V37.6451C44.6 37.8578 44.5408 38.0115 44.4224 38.1297C44.3041 38.236 44.1384 38.2951 43.9135 38.2951L43.9017 38.2833Z" fill="#3C3C3B"/>
<path d="M1.14999 171.305V195.546" stroke="#212830" stroke-width="0.5" stroke-miterlimit="10" stroke-linecap="square"/>
<path d="M1.14999 195.546H79.3096" stroke="#212830" stroke-width="0.5" stroke-miterlimit="10" stroke-linecap="square"/>
<path d="M38.5847 191.256V178.952H20.755H2.92526V191.256" fill="#AFD5A9"/>
<path d="M38.5847 191.256V178.952H20.755H2.92526V191.256" stroke="#212830" stroke-width="0.25" stroke-miterlimit="10"/>
<path d="M38.5847 174.39H2.92526V178.952H38.5847V174.39Z" fill="#5EB34A" stroke="#1D1D1B" stroke-width="0.25" stroke-miterlimit="10"/>
<path d="M38.5847 191.256H2.92526V193.229H38.5847V191.256Z" fill="#5EB34A" stroke="#1D1D1B" stroke-width="0.25" stroke-miterlimit="10"/>
<path class="EXT-IN-A" d="M22.6427 182.983L23.1753 182.557L23.7197 182.297L24.3588 182.084L24.9979 182.025L25.637 182.084L26.2761 182.297L26.8087 182.557L27.3531 182.983L27.7791 183.514L28.0395 184.058L28.2526 184.696L28.3117 185.335L28.2526 185.973L28.0395 186.611L27.7791 187.155L27.3531 187.686L26.8087 188.112L26.2761 188.384L25.637 188.597L24.9979 188.644L24.3588 188.597L23.7197 188.384L23.1753 188.112L22.6427 187.686L22.2166 187.155L21.9444 186.611L21.7314 185.973L21.684 185.335L21.7314 184.696L21.9444 184.058L22.2166 183.514L22.6427 182.983ZM22.6427 182.983L27.3412 187.686" stroke="#212830" stroke-width="0.25" stroke-miterlimit="10" stroke-linecap="square"/>
<path class="EXT-IN-B" d="M31.2824 182.983L31.815 182.557L32.3475 182.297L32.9866 182.084L33.6376 182.025L34.2767 182.084L34.9158 182.297L35.4484 182.557L35.981 182.983L36.4189 183.514L36.6792 184.058L36.8923 184.696L36.9514 185.335L36.8923 185.973L36.6792 186.611L36.4189 187.155L35.981 187.686L35.4484 188.112L34.9158 188.384L34.2767 188.597L33.6376 188.644L32.9866 188.597L32.3475 188.384L31.815 188.112L31.2824 187.686L30.8563 187.155L30.5841 186.611L30.3711 185.973L30.3237 185.335L30.3711 184.696L30.5841 184.058L30.8563 183.514L31.2824 182.983ZM35.981 187.686L31.2824 182.983" stroke="#212830" stroke-width="0.25" stroke-miterlimit="10" stroke-linecap="square"/>
<path class="12VDC-IN-GND" d="M14.003 182.983L14.5474 182.557L15.08 182.297L15.7191 182.084L16.3582 182.025L16.9973 182.084L17.6482 182.297L18.1808 182.557L18.7134 182.983L19.1395 183.514L19.4117 184.058L19.6247 184.696L19.672 185.335L19.6247 185.973L19.4117 186.611L19.1395 187.155L18.7134 187.686L18.1808 188.112L17.6482 188.384L16.9973 188.597L16.3582 188.644L15.7191 188.597L15.08 188.384L14.5474 188.112L14.003 187.686L13.5769 187.155L13.3166 186.611L13.1035 185.973L13.0443 185.335L13.1035 184.696L13.3166 184.058L13.5769 183.514L14.003 182.983ZM14.003 182.983L18.7016 187.686" stroke="#212830" stroke-width="0.25" stroke-miterlimit="10" stroke-linecap="square"/>
<path class="12VDC-IN-V+" d="M5.13842 182.983L5.67101 182.557L6.20359 182.297L6.84269 182.084L7.48179 182.025L8.13273 182.084L8.77183 182.297L9.30441 182.557L9.83699 182.983L10.2631 183.514L10.5353 184.058L10.7483 184.696L10.7956 185.335L10.7483 185.973L10.5353 186.611L10.2631 187.155L9.83699 187.686L9.30441 188.112L8.77183 188.384L8.13273 188.597L7.48179 188.644L6.84269 188.597L6.20359 188.384L5.67101 188.112L5.13842 187.686L4.71236 187.155L4.44015 186.611L4.22711 185.973L4.16794 185.335L4.22711 184.696L4.44015 184.058L4.71236 183.514L5.13842 182.983ZM9.83699 187.686L5.13842 182.983" stroke="#212830" stroke-width="0.25" stroke-miterlimit="10" stroke-linecap="square"/>
<path d="M5.70651 174.39V178.125H9.18606V174.39" fill="#0C9B47"/>
<path d="M5.70651 174.39V178.125H9.18606V174.39" stroke="#212830" stroke-width="0.25" stroke-miterlimit="10"/>
<path d="M14.6894 174.39V178.125H18.169V174.39" fill="#0C9B47"/>
<path d="M14.6894 174.39V178.125H18.169V174.39" stroke="#212830" stroke-width="0.25" stroke-miterlimit="10"/>
<path d="M23.5067 174.39V178.125H26.9862V174.39" fill="#0C9B47"/>
<path d="M23.5067 174.39V178.125H26.9862V174.39" stroke="#212830" stroke-width="0.25" stroke-miterlimit="10"/>
<path d="M32.3357 174.39V178.125H35.8034V174.39" fill="#0C9B47"/>
<path d="M32.3357 174.39V178.125H35.8034V174.39" stroke="#212830" stroke-width="0.25" stroke-miterlimit="10"/>
<path d="M77.6053 191.398V179.082H41.9459V191.398" fill="#AFD5A9"/>
<path d="M77.6053 191.398V179.082H41.9459V191.398" stroke="#212830" stroke-width="0.25" stroke-miterlimit="10"/>
<path d="M77.6053 174.532H41.9459V179.094H77.6053V174.532Z" fill="#5EB34A" stroke="#1D1D1B" stroke-width="0.25" stroke-miterlimit="10"/>
<path d="M77.6053 191.398H41.9459V193.371H77.6053V191.398Z" fill="#5EB34A" stroke="#1D1D1B" stroke-width="0.25" stroke-miterlimit="10"/>
<path class="EXT-OUT-A" d="M61.6633 183.124L62.1959 182.699L62.7285 182.427L63.3794 182.214L64.0185 182.167L64.6576 182.214L65.2967 182.427L65.8293 182.699L66.3737 183.124L66.7998 183.656L67.0601 184.188L67.2732 184.838L67.3324 185.476L67.2732 186.115L67.0601 186.753L66.7998 187.285L66.3737 187.828L65.8293 188.254L65.2967 188.514L64.6576 188.727L64.0185 188.786L63.3794 188.727L62.7285 188.514L62.1959 188.254L61.6633 187.828L61.2372 187.285L60.965 186.753L60.752 186.115L60.7047 185.476L60.752 184.838L60.965 184.188L61.2372 183.656L61.6633 183.124ZM61.6633 183.124L66.3619 187.828" stroke="#212830" stroke-width="0.25" stroke-miterlimit="10" stroke-linecap="square"/>
<path class="EXT-OUT-B" d="M70.303 183.124L70.8356 182.699L71.3681 182.427L72.0072 182.214L72.6582 182.167L73.2973 182.214L73.9364 182.427L74.469 182.699L75.0016 183.124L75.4276 183.656L75.6998 184.188L75.9129 184.838L75.972 185.476L75.9129 186.115L75.6998 186.753L75.4276 187.285L75.0016 187.828L74.469 188.254L73.9364 188.514L73.2973 188.727L72.6582 188.786L72.0072 188.727L71.3681 188.514L70.8356 188.254L70.303 187.828L69.8769 187.285L69.6047 186.753L69.3917 186.115L69.3443 185.476L69.3917 184.838L69.6047 184.188L69.8769 183.656L70.303 183.124ZM75.0016 187.828L70.303 183.124" stroke="#212830" stroke-width="0.25" stroke-miterlimit="10" stroke-linecap="square"/>
<path class="12VDC-OUT-GND" d="M53.0236 183.124L53.568 182.699L54.1006 182.427L54.7397 182.214L55.3788 182.167L56.0179 182.214L56.6689 182.427L57.2014 182.699L57.734 183.124L58.1601 183.656L58.4323 184.188L58.6453 184.838L58.6927 185.476L58.6453 186.115L58.4323 186.753L58.1601 187.285L57.734 187.828L57.2014 188.254L56.6689 188.514L56.0179 188.727L55.3788 188.786L54.7397 188.727L54.1006 188.514L53.568 188.254L53.0236 187.828L52.5976 187.285L52.3372 186.753L52.1241 186.115L52.065 185.476L52.1241 184.838L52.3372 184.188L52.5976 183.656L53.0236 183.124ZM53.0236 183.124L57.7222 187.828" stroke="#212830" stroke-width="0.25" stroke-miterlimit="10" stroke-linecap="square"/>
<path class="12VDC-OUT-V+" d="M44.1591 183.124L44.6916 182.699L45.2242 182.427L45.8633 182.214L46.5024 182.167L47.1534 182.214L47.7925 182.427L48.325 182.699L48.8576 183.124L49.2837 183.656L49.5559 184.188L49.7689 184.838L49.8163 185.476L49.7689 186.115L49.5559 186.753L49.2837 187.285L48.8576 187.828L48.325 188.254L47.7925 188.514L47.1534 188.727L46.5024 188.786L45.8633 188.727L45.2242 188.514L44.6916 188.254L44.1591 187.828L43.7212 187.285L43.4608 186.753L43.2477 186.115L43.1886 185.476L43.2477 184.838L43.4608 184.188L43.7212 183.656L44.1591 183.124ZM48.8576 187.828L44.1591 183.124" stroke="#212830" stroke-width="0.25" stroke-miterlimit="10" stroke-linecap="square"/>
<path d="M44.7271 174.532V178.267H48.2067V174.532" fill="#0C9B47"/>
<path d="M44.7271 174.532V178.267H48.2067V174.532" stroke="#212830" stroke-width="0.25" stroke-miterlimit="10"/>
<path d="M53.7101 174.532V178.267H57.1896V174.532" fill="#0C9B47"/>
<path d="M53.7101 174.532V178.267H57.1896V174.532" stroke="#212830" stroke-width="0.25" stroke-miterlimit="10"/>
<path d="M62.5273 174.532V178.267H66.0068V174.532" fill="#0C9B47"/>
<path d="M62.5273 174.532V178.267H66.0068V174.532" stroke="#212830" stroke-width="0.25" stroke-miterlimit="10"/>
<path d="M71.3563 174.532V178.267H74.824V174.532" fill="#0C9B47"/>
<path d="M71.3563 174.532V178.267H74.824V174.532" stroke="#212830" stroke-width="0.25" stroke-miterlimit="10"/>
<path d="M48.7748 168.398C48.7156 167.441 47.9226 166.672 46.964 166.672H46.9285C45.958 166.672 45.1769 167.429 45.1177 168.398H45.1059V170.372H48.7984V168.398H48.7866H48.7748Z" fill="#BE1622"/>
<path d="M9.67129 168.398C9.63578 167.819 9.32807 167.299 8.87833 166.991C8.58245 166.791 8.23923 166.672 7.8605 166.672H7.825C6.85451 166.672 6.07339 167.429 6.01422 168.398H6.00238V170.372H9.69496V168.398H9.68312H9.67129Z" fill="#BE1622"/>
<path d="M35.5312 168.398C35.472 167.441 34.679 166.672 33.7204 166.672H33.6849C32.7144 166.672 31.9333 167.429 31.8741 168.398H31.8623V170.372H35.5549V168.398H35.543H35.5312ZM34.9276 169.757H32.4659V168.445C32.5132 167.807 33.034 167.299 33.6731 167.299H33.6967C34.3477 167.299 34.8684 167.807 34.9039 168.445V169.757H34.9276Z" fill="#2E2D2C"/>
<path d="M18.2873 168.398C18.2282 167.441 17.4352 166.672 16.4766 166.672H16.4411C15.4706 166.672 14.6895 167.429 14.6303 168.398H14.6184V168.516V170.36H18.311V168.386H18.2992L18.2873 168.398Z" fill="#2E2D2C"/>
<path d="M7.45813 159.794V161.756H7.46997H8.01438H8.33393V160.645H15.9558V161.756H16.2635H16.8198V160.456V159.794H7.45813Z" fill="#2E2D2C"/>
<path d="M26.9152 168.398C26.856 167.441 26.0631 166.672 25.1044 166.672H25.0689C24.0984 166.672 23.3173 167.429 23.2581 168.398H23.2463V170.372H26.9389V168.398H26.927H26.9152ZM26.3116 169.757H23.8499V168.445C23.8972 167.807 24.418 167.299 25.0571 167.299H25.0807C25.7317 167.299 26.2524 167.807 26.2879 168.445V169.757H26.3116Z" fill="#C8A30D"/>
<path d="M26.2997 168.445C26.2524 167.807 25.7317 167.299 25.0926 167.299H25.0689C24.4179 167.299 23.8972 167.807 23.8617 168.445V169.757H26.3234V168.445H26.2997Z" fill="#FBD312"/>
<path d="M24.6902 159.794V161.756H24.702H25.2464H25.566V160.645H33.1997V161.756H33.5074H34.0518V160.456V159.794H24.6902Z" fill="#2E2D2C"/>
<path d="M74.6465 168.398C74.5873 167.441 73.7944 166.672 72.8357 166.672H72.8002C71.8297 166.672 71.0486 167.429 70.9894 168.398H70.9776V170.372H74.6702V168.398H74.6583H74.6465ZM74.0429 169.757H71.5812V168.445C71.6285 167.807 72.1493 167.299 72.7884 167.299H72.812C73.463 167.299 73.9837 167.807 74.0192 168.445V169.757H74.0429Z" fill="#2E2D2C"/>
<path d="M57.4026 168.398C57.3435 167.441 56.5505 166.672 55.5919 166.672H55.5564C54.5859 166.672 53.8047 167.429 53.7456 168.398H53.7337V168.516V170.36H57.4263V168.386H57.4145L57.4026 168.398Z" fill="#2E2D2C"/>
<path d="M66.0186 168.398C65.9595 167.441 65.1665 166.672 64.2079 166.672H64.1724C63.2019 166.672 62.4207 167.429 62.3616 168.398H62.3497V170.372H66.0423V168.398H66.0305H66.0186ZM65.415 169.757H62.9533V168.445C63.0007 167.807 63.5214 167.299 64.1605 167.299H64.1842C64.8351 167.299 65.3559 167.807 65.3914 168.445V169.757H65.415Z" fill="#C8A30D"/>
<path d="M65.415 168.445C65.3677 167.807 64.847 167.299 64.2079 167.299H64.1842C63.5332 167.299 63.0125 167.807 62.977 168.445V169.757H65.4387V168.445H65.415Z" fill="#FBD312"/>
<path d="M46.5616 159.794V161.756H47.1179H47.4256V160.645H55.0593V161.756H55.367H55.9232V160.456V159.794H46.5616Z" fill="#2E2D2C"/>
<path d="M63.841 159.782V161.756H64.3972H64.7049V160.645H72.3386V161.756H72.6463H73.2026V160.456V159.782H63.841Z" fill="#2E2D2C"/>
<path d="M8.84283 155.137V158.222H8.47594V155.48L7.93152 155.799V155.433L8.38126 155.137H8.84283Z" fill="#3C3C3B"/>
<path d="M9.25707 158.21V157.915L10.0264 156.638C10.121 156.485 10.1921 156.343 10.2394 156.201C10.2867 156.059 10.3104 155.941 10.3104 155.834C10.3104 155.704 10.2867 155.598 10.2276 155.539C10.1684 155.468 10.0974 155.433 9.99086 155.433C9.8725 155.433 9.77782 155.48 9.71865 155.574C9.65947 155.669 9.62397 155.799 9.62397 155.976H9.24524C9.24524 155.693 9.30442 155.468 9.4346 155.314C9.56479 155.161 9.74232 155.09 9.97902 155.09C10.2157 155.09 10.3933 155.149 10.5234 155.279C10.6418 155.409 10.7128 155.586 10.7128 155.834C10.7128 155.964 10.6891 156.106 10.6418 156.26C10.5945 156.414 10.5116 156.579 10.4169 156.756L9.74232 157.879H10.7128V158.21H9.28074H9.25707Z" fill="#3C3C3B"/>
<path d="M11.5531 158.21L10.9022 155.125H11.2927L11.7661 157.678L12.2395 155.125H12.6301L11.9792 158.21H11.5413H11.5531Z" fill="#3C3C3B"/>
<path d="M12.9023 158.21V155.125H13.2692V158.21H12.9023ZM13.1153 158.21V157.879H13.8018C13.8846 157.879 13.9438 157.856 13.9793 157.808C14.0148 157.761 14.0385 157.702 14.0385 157.619V155.704C14.0385 155.622 14.0148 155.563 13.9793 155.515C13.9438 155.468 13.8846 155.444 13.8018 155.444H13.1153V155.114H13.79C13.9912 155.114 14.145 155.161 14.2515 155.267C14.358 155.374 14.4172 155.515 14.4172 155.716V157.607C14.4172 157.737 14.3935 157.844 14.3462 157.926C14.2989 158.021 14.2279 158.08 14.1332 158.127C14.0385 158.175 13.932 158.198 13.79 158.198H13.1153V158.21Z" fill="#3C3C3B"/>
<path d="M15.5179 158.246C15.364 158.246 15.222 158.21 15.1155 158.151C15.009 158.092 14.9143 157.997 14.8551 157.879C14.7959 157.761 14.7722 157.619 14.7722 157.454V155.894C14.7722 155.728 14.7959 155.586 14.8551 155.468C14.9143 155.35 14.9971 155.267 15.1155 155.196C15.2338 155.125 15.364 155.102 15.5179 155.102C15.6717 155.102 15.8137 155.137 15.9203 155.196C16.0268 155.255 16.1215 155.35 16.1806 155.468C16.2398 155.586 16.2635 155.728 16.2635 155.894V156.012H15.8966V155.894C15.8966 155.799 15.8848 155.716 15.8493 155.657C15.8256 155.586 15.7782 155.539 15.7191 155.504C15.6599 155.468 15.5889 155.456 15.5179 155.456C15.3995 155.456 15.3048 155.492 15.2457 155.574C15.1865 155.657 15.151 155.764 15.151 155.905V157.465C15.151 157.607 15.1865 157.714 15.2457 157.796C15.3167 157.879 15.3995 157.915 15.5179 157.915C15.6362 157.915 15.7309 157.879 15.8019 157.796C15.8729 157.714 15.8966 157.607 15.8966 157.465V157.347H16.2635V157.465C16.2635 157.631 16.2398 157.773 16.1806 157.891C16.1215 158.009 16.0386 158.104 15.9203 158.163C15.8137 158.222 15.6717 158.257 15.5179 158.257V158.246Z" fill="#3C3C3B"/>
<path d="M6.86636 165.987L6.21542 162.902H6.60598L7.07939 165.455L7.5528 162.902H7.94336L7.29243 165.987H6.85452H6.86636Z" fill="#3C3C3B"/>
<path d="M8.08539 164.403H9.35175V164.734H8.08539V164.403ZM8.89018 163.706V165.431H8.53513V163.706H8.89018Z" fill="#3C3C3B"/>
<path d="M14.4882 164.32H15.2693V165.219C15.2693 165.384 15.2338 165.526 15.1747 165.644C15.1155 165.762 15.0326 165.857 14.9143 165.916C14.7959 165.975 14.6539 166.011 14.5001 166.011C14.3462 166.011 14.1923 165.987 14.074 165.928C13.9556 165.869 13.8728 165.786 13.8018 165.668C13.7308 165.55 13.7071 165.42 13.7071 165.266V163.659C13.7071 163.493 13.7426 163.351 13.8018 163.233C13.8609 163.115 13.9438 163.032 14.0621 162.961C14.1805 162.89 14.3225 162.867 14.4764 162.867C14.6302 162.867 14.7723 162.902 14.8906 162.961C15.009 163.02 15.0918 163.103 15.151 163.221C15.2102 163.339 15.2457 163.469 15.2457 163.635V163.789H14.8551V163.635C14.8551 163.505 14.8196 163.399 14.7604 163.316C14.7012 163.245 14.6066 163.209 14.4882 163.209C14.358 163.209 14.2633 163.245 14.1923 163.328C14.1213 163.41 14.0858 163.517 14.0858 163.659V165.266C14.0858 165.396 14.1213 165.491 14.1923 165.561C14.2633 165.632 14.3699 165.668 14.5001 165.668C14.6302 165.668 14.7249 165.632 14.7959 165.55C14.8669 165.479 14.9024 165.36 14.9024 165.23V164.651H14.4882V164.32Z" fill="#3C3C3B"/>
<path d="M15.6599 165.987V162.914H15.9913L16.9381 165.36L16.8789 165.42V162.914H17.234V165.987H16.8908L15.944 163.576L16.0031 163.517V165.975H15.6481L15.6599 165.987Z" fill="#3C3C3B"/>
<path d="M17.6837 165.987V162.902H18.0506V165.987H17.6837ZM17.9086 165.987V165.656H18.5951C18.6779 165.656 18.7371 165.632 18.7726 165.585C18.8081 165.538 18.8318 165.479 18.8318 165.396V163.481C18.8318 163.399 18.8081 163.339 18.7726 163.292C18.7371 163.245 18.6779 163.221 18.5951 163.221H17.9086V162.89H18.5832C18.7844 162.89 18.9383 162.938 19.0448 163.044C19.1513 163.15 19.2105 163.292 19.2105 163.493V165.384C19.2105 165.514 19.1868 165.62 19.1395 165.703C19.0921 165.798 19.0211 165.857 18.9264 165.904C18.8318 165.951 18.7252 165.975 18.5832 165.975H17.9086V165.987Z" fill="#3C3C3B"/>
<path d="M26.9862 158.21V155.125H27.3531V158.21H26.9862ZM27.1992 155.468V155.137H28.3591V155.468H27.1992ZM27.1992 156.851V156.52H28.2525V156.851H27.1992ZM27.1992 158.21V157.879H28.3591V158.21H27.1992Z" fill="#3C3C3B"/>
<path d="M28.4774 158.21L29.2703 156.449L29.8029 155.125H30.2053L29.4715 156.792L28.8798 158.198H28.4774V158.21ZM29.8503 158.21L29.294 156.863L29.223 156.756L28.5011 155.137H28.9035L29.4005 156.39L29.4834 156.508L30.2527 158.222H29.8503V158.21Z" fill="#3C3C3B"/>
<path d="M30.4302 155.468V155.137H31.9925V155.468H30.4302ZM31.022 158.21V155.385H31.3889V158.21H31.022Z" fill="#3C3C3B"/>
<path d="M24.1339 165.987L24.8795 162.902H25.2701L26.0157 165.987H25.6133L25.0807 163.387L24.5481 165.987H24.1457H24.1339ZM24.5718 165.278V164.947H25.6015V165.278H24.5718Z" fill="#3C3C3B"/>
<path d="M32.963 165.987V162.902H33.3299V165.987H32.963ZM33.2234 165.987V165.656H33.8033C33.898 165.656 33.969 165.632 34.0281 165.585C34.0755 165.538 34.111 165.479 34.111 165.396V164.923C34.111 164.805 34.0755 164.711 34.0163 164.651C33.9571 164.592 33.8743 164.557 33.7914 164.557H33.2352V164.226H33.7914C33.8743 164.226 33.9453 164.202 33.9926 164.143C34.04 164.084 34.0637 164.001 34.0637 163.895V163.517C34.0637 163.434 34.04 163.375 33.9926 163.328C33.9453 163.28 33.8743 163.257 33.7914 163.257H33.2234V162.926H33.7796C33.9926 162.926 34.1465 162.973 34.2649 163.08C34.3832 163.174 34.4305 163.316 34.4305 163.505V163.871C34.4305 164.013 34.395 164.131 34.3359 164.226C34.2767 164.321 34.182 164.38 34.0755 164.403C34.2057 164.427 34.3004 164.486 34.3714 164.581C34.4424 164.675 34.4779 164.805 34.4779 164.959V165.408C34.4779 165.597 34.4187 165.739 34.3122 165.845C34.2057 165.952 34.04 165.999 33.8388 165.999H33.2234V165.987Z" fill="#3C3C3B"/>
<path d="M47.9463 155.125V158.21H47.5794V155.468L47.035 155.787V155.421L47.4847 155.125H47.9463Z" fill="#3C3C3B"/>
<path d="M48.3605 158.21V157.915L49.1298 156.638C49.2245 156.485 49.2955 156.343 49.3429 156.201C49.3902 156.059 49.4139 155.941 49.4139 155.834C49.4139 155.704 49.3902 155.598 49.331 155.539C49.2719 155.468 49.2008 155.433 49.0943 155.433C48.976 155.433 48.8813 155.48 48.8221 155.574C48.7629 155.669 48.7274 155.799 48.7274 155.976H48.3487C48.3487 155.693 48.4079 155.468 48.5381 155.314C48.6683 155.161 48.8458 155.09 49.0825 155.09C49.3192 155.09 49.4967 155.149 49.6269 155.279C49.7453 155.409 49.8163 155.586 49.8163 155.834C49.8163 155.964 49.7926 156.106 49.7453 156.26C49.6979 156.414 49.6151 156.579 49.5204 156.756L48.8458 157.879H49.8163V158.21H48.3842H48.3605Z" fill="#3C3C3B"/>
<path d="M50.6447 158.21L49.9938 155.125H50.3843L50.8578 157.678L51.3312 155.125H51.7217L51.0708 158.21H50.6329H50.6447Z" fill="#3C3C3B"/>
<path d="M51.9939 158.21V155.125H52.3608V158.21H51.9939ZM52.2188 158.21V157.879H52.9053C52.9881 157.879 53.0473 157.856 53.0828 157.808C53.1183 157.761 53.142 157.702 53.142 157.619V155.704C53.142 155.622 53.1183 155.563 53.0828 155.515C53.0473 155.468 52.9881 155.444 52.9053 155.444H52.2188V155.114H52.8934C53.0946 155.114 53.2485 155.161 53.355 155.267C53.4615 155.374 53.5207 155.515 53.5207 155.716V157.607C53.5207 157.737 53.497 157.844 53.4497 157.926C53.4023 158.021 53.3313 158.08 53.2366 158.127C53.142 158.175 53.0354 158.198 52.8934 158.198H52.2188V158.21Z" fill="#3C3C3B"/>
<path d="M54.6095 158.246C54.4557 158.246 54.3136 158.21 54.2071 158.151C54.1006 158.092 54.0059 157.997 53.9468 157.879C53.8876 157.761 53.8639 157.619 53.8639 157.454V155.894C53.8639 155.728 53.8876 155.586 53.9468 155.468C54.0059 155.35 54.0888 155.267 54.2071 155.196C54.3255 155.125 54.4557 155.102 54.6095 155.102C54.7634 155.102 54.9054 155.137 55.0119 155.196C55.1184 155.255 55.2131 155.35 55.2723 155.468C55.3315 155.586 55.3551 155.728 55.3551 155.894V156.012H54.9882V155.894C54.9882 155.799 54.9764 155.716 54.9409 155.657C54.9172 155.586 54.8699 155.539 54.8107 155.504C54.7515 155.468 54.6805 155.456 54.6095 155.456C54.4912 155.456 54.3965 155.492 54.3373 155.574C54.2781 155.657 54.2426 155.764 54.2426 155.905V157.465C54.2426 157.607 54.2781 157.714 54.3373 157.796C54.4083 157.879 54.4912 157.915 54.6095 157.915C54.7279 157.915 54.8226 157.879 54.8936 157.796C54.9646 157.714 54.9882 157.607 54.9882 157.465V157.347H55.3551V157.465C55.3551 157.631 55.3315 157.773 55.2723 157.891C55.2131 158.009 55.1303 158.104 55.0119 158.163C54.9054 158.222 54.7634 158.257 54.6095 158.257V158.246Z" fill="#3C3C3B"/>
<path d="M45.9698 165.987L45.3189 162.902H45.7095L46.1829 165.455L46.6563 162.902H47.0468L46.3959 165.987H45.958H45.9698Z" fill="#3C3C3B"/>
<path d="M47.1889 164.403H48.4552V164.734H47.1889V164.403ZM47.9937 163.706V165.431H47.6386V163.706H47.9937Z" fill="#3C3C3B"/>
<path d="M53.5799 164.32H54.361V165.219C54.361 165.384 54.3255 165.526 54.2663 165.644C54.2071 165.762 54.1243 165.857 54.0059 165.916C53.8876 165.975 53.7455 166.011 53.5917 166.011C53.4378 166.011 53.284 165.987 53.1656 165.928C53.0473 165.869 52.9644 165.786 52.8934 165.668C52.8224 165.55 52.7987 165.42 52.7987 165.266V163.659C52.7987 163.493 52.8342 163.351 52.8934 163.233C52.9526 163.115 53.0354 163.032 53.1538 162.961C53.2721 162.89 53.4142 162.867 53.568 162.867C53.7219 162.867 53.8639 162.902 53.9823 162.961C54.1006 163.02 54.1835 163.103 54.2426 163.221C54.3018 163.339 54.3373 163.469 54.3373 163.635V163.789H53.9468V163.635C53.9468 163.505 53.9112 163.399 53.8521 163.316C53.7929 163.245 53.6982 163.209 53.5799 163.209C53.4497 163.209 53.355 163.245 53.284 163.328C53.213 163.41 53.1775 163.517 53.1775 163.659V165.266C53.1775 165.396 53.213 165.491 53.284 165.561C53.355 165.632 53.4615 165.668 53.5917 165.668C53.7219 165.668 53.8166 165.632 53.8876 165.55C53.9586 165.479 53.9941 165.36 53.9941 165.23V164.651H53.5799V164.32Z" fill="#3C3C3B"/>
<path d="M54.7634 165.987V162.914H55.0948L56.0416 165.36L55.9824 165.42V162.914H56.3375V165.987H55.9942L55.0474 163.576L55.1066 163.517V165.975H54.7515L54.7634 165.987Z" fill="#3C3C3B"/>
<path d="M56.7872 165.987V162.902H57.1541V165.987H56.7872ZM57.0002 165.987V165.656H57.6867C57.7695 165.656 57.8287 165.632 57.8642 165.585C57.8997 165.538 57.9234 165.479 57.9234 165.396V163.481C57.9234 163.399 57.8997 163.339 57.8642 163.292C57.8287 163.245 57.7695 163.221 57.6867 163.221H57.0002V162.89H57.6748C57.876 162.89 58.0299 162.938 58.1364 163.044C58.2429 163.15 58.3021 163.292 58.3021 163.493V165.384C58.3021 165.514 58.2784 165.62 58.2311 165.703C58.1838 165.798 58.1127 165.857 58.0181 165.904C57.9234 165.951 57.8169 165.975 57.6748 165.975H57.0002V165.987Z" fill="#3C3C3B"/>
<path d="M66.137 158.21V155.125H66.5039V158.21H66.137ZM66.35 155.468V155.137H67.5099V155.468H66.35ZM66.35 156.851V156.52H67.4034V156.851H66.35ZM66.35 158.21V157.879H67.5099V158.21H66.35Z" fill="#3C3C3B"/>
<path d="M67.6282 158.21L68.4212 156.449L68.9538 155.125H69.3562L68.6224 156.792L68.0306 158.198H67.6282V158.21ZM69.0011 158.21L68.4449 156.863L68.3739 156.756L67.6519 155.137H68.0543L68.5514 156.39L68.6342 156.508L69.4035 158.222H69.0011V158.21Z" fill="#3C3C3B"/>
<path d="M69.5692 155.468V155.137H71.1314V155.468H69.5692ZM70.1728 158.21V155.385H70.5397V158.21H70.1728Z" fill="#3C3C3B"/>
<path d="M63.2729 165.987L64.0185 162.902H64.4091L65.1547 165.987H64.7523L64.2197 163.387L63.6871 165.987H63.2847H63.2729ZM63.7226 165.278V164.947H64.7523V165.278H63.7226Z" fill="#3C3C3B"/>
<path d="M72.1019 165.987V162.902H72.4688V165.987H72.1019ZM72.3741 165.987V165.656H72.9541C73.0487 165.656 73.1198 165.632 73.1789 165.585C73.2263 165.538 73.2618 165.479 73.2618 165.396V164.923C73.2618 164.805 73.2263 164.711 73.1671 164.651C73.1079 164.592 73.0251 164.557 72.9422 164.557H72.386V164.226H72.9422C73.0251 164.226 73.0961 164.202 73.1434 164.143C73.1908 164.084 73.2144 164.001 73.2144 163.895V163.517C73.2144 163.434 73.1908 163.375 73.1434 163.328C73.0961 163.28 73.0251 163.257 72.9422 163.257H72.3741V162.926H72.9304C73.1434 162.926 73.2973 162.973 73.4156 163.08C73.534 163.174 73.5813 163.316 73.5813 163.505V163.871C73.5813 164.013 73.5458 164.131 73.4866 164.226C73.4275 164.321 73.3328 164.38 73.2263 164.403C73.3565 164.427 73.4511 164.486 73.5222 164.581C73.5932 164.675 73.6287 164.805 73.6287 164.959V165.408C73.6287 165.597 73.5695 165.739 73.463 165.845C73.3565 165.952 73.1908 165.999 72.9896 165.999H72.3741V165.987Z" fill="#3C3C3B"/>
</svg>
