<svg width="76" height="45" viewBox="0 0 76 45" fill="none" xmlns="http://www.w3.org/2000/svg">
<path d="M75.8065 0.119995H0.119995V44.642H75.8065V0.119995Z" fill="white" stroke="#161818" stroke-width="0.24" stroke-miterlimit="10"/>
<path d="M71.3659 14.1285H68.7538C68.0901 14.1285 67.5522 14.6755 67.5522 15.3501V15.3634C67.5522 16.0381 68.0901 16.585 68.7538 16.585H71.3659C72.0295 16.585 72.5675 16.0381 72.5675 15.3634V15.3501C72.5675 14.6755 72.0295 14.1285 71.3659 14.1285Z" fill="white" stroke="#161818" stroke-width="0.24" stroke-miterlimit="10"/>
<path d="M71.3659 16.5718H68.7538C68.0901 16.5718 67.5522 17.1187 67.5522 17.7934V17.8067C67.5522 18.4813 68.0901 19.0283 68.7538 19.0283H71.3659C72.0295 19.0283 72.5675 18.4813 72.5675 17.8067V17.7934C72.5675 17.1187 72.0295 16.5718 71.3659 16.5718Z" fill="white" stroke="#161818" stroke-width="0.24" stroke-miterlimit="10"/>
<path d="M71.3659 19.0282H68.7538C68.0901 19.0282 67.5522 19.5751 67.5522 20.2498V20.2631C67.5522 20.9377 68.0901 21.4847 68.7538 21.4847H71.3659C72.0295 21.4847 72.5675 20.9377 72.5675 20.2631V20.2498C72.5675 19.5751 72.0295 19.0282 71.3659 19.0282Z" fill="white" stroke="#161818" stroke-width="0.24" stroke-miterlimit="10"/>
<path d="M68.7015 15.9211C68.9972 15.9211 69.237 15.6774 69.237 15.3767C69.237 15.076 68.9972 14.8323 68.7015 14.8323C68.4058 14.8323 68.166 15.076 68.166 15.3767C68.166 15.6774 68.4058 15.9211 68.7015 15.9211Z" fill="white" stroke="#161818" stroke-width="0.24" stroke-miterlimit="10"/>
<path d="M71.4181 15.9211C71.7139 15.9211 71.9536 15.6774 71.9536 15.3767C71.9536 15.076 71.7139 14.8323 71.4181 14.8323C71.1224 14.8323 70.8826 15.076 70.8826 15.3767C70.8826 15.6774 71.1224 15.9211 71.4181 15.9211Z" fill="white" stroke="#161818" stroke-width="0.24" stroke-miterlimit="10"/>
<path d="M68.7015 18.351C68.9972 18.351 69.237 18.1073 69.237 17.8066C69.237 17.5059 68.9972 17.2622 68.7015 17.2622C68.4058 17.2622 68.166 17.5059 68.166 17.8066C68.166 18.1073 68.4058 18.351 68.7015 18.351Z" fill="white" stroke="#161818" stroke-width="0.24" stroke-miterlimit="10"/>
<path d="M71.4181 18.351C71.7139 18.351 71.9536 18.1073 71.9536 17.8066C71.9536 17.5059 71.7139 17.2622 71.4181 17.2622C71.1224 17.2622 70.8826 17.5059 70.8826 17.8066C70.8826 18.1073 71.1224 18.351 71.4181 18.351Z" fill="white" stroke="#161818" stroke-width="0.24" stroke-miterlimit="10"/>
<path d="M68.7015 20.7943C68.9972 20.7943 69.237 20.5505 69.237 20.2499C69.237 19.9492 68.9972 19.7054 68.7015 19.7054C68.4058 19.7054 68.166 19.9492 68.166 20.2499C68.166 20.5505 68.4058 20.7943 68.7015 20.7943Z" fill="white" stroke="#161818" stroke-width="0.24" stroke-miterlimit="10"/>
<path d="M71.4181 20.7943C71.7139 20.7943 71.9536 20.5505 71.9536 20.2499C71.9536 19.9492 71.7139 19.7054 71.4181 19.7054C71.1224 19.7054 70.8826 19.9492 70.8826 20.2499C70.8826 20.5505 71.1224 20.7943 71.4181 20.7943Z" fill="white" stroke="#161818" stroke-width="0.24" stroke-miterlimit="10"/>
<path d="M7.36865 34.0459H4.75651C4.0929 34.0459 3.55493 34.5928 3.55493 35.2675V35.2808C3.55493 35.9554 4.0929 36.5024 4.75651 36.5024H7.36865C8.03226 36.5024 8.57023 35.9554 8.57023 35.2808V35.2675C8.57023 34.5928 8.03226 34.0459 7.36865 34.0459Z" fill="white" stroke="#161818" stroke-width="0.24" stroke-miterlimit="10"/>
<path d="M7.36865 36.4891H4.75651C4.0929 36.4891 3.55493 37.0361 3.55493 37.7107V37.724C3.55493 38.3987 4.0929 38.9456 4.75651 38.9456H7.36865C8.03226 38.9456 8.57023 38.3987 8.57023 37.724V37.7107C8.57023 37.0361 8.03226 36.4891 7.36865 36.4891Z" fill="white" stroke="#161818" stroke-width="0.24" stroke-miterlimit="10"/>
<path d="M7.36865 38.9456H4.75651C4.0929 38.9456 3.55493 39.4925 3.55493 40.1672V40.1804C3.55493 40.8551 4.0929 41.402 4.75651 41.402H7.36865C8.03226 41.402 8.57023 40.8551 8.57023 40.1804V40.1672C8.57023 39.4925 8.03226 38.9456 7.36865 38.9456Z" fill="white" stroke="#161818" stroke-width="0.24" stroke-miterlimit="10"/>
<path d="M4.70425 35.8385C4.99999 35.8385 5.23974 35.5947 5.23974 35.294C5.23974 34.9934 4.99999 34.7496 4.70425 34.7496C4.40851 34.7496 4.16876 34.9934 4.16876 35.294C4.16876 35.5947 4.40851 35.8385 4.70425 35.8385Z" fill="white" stroke="#161818" stroke-width="0.24" stroke-miterlimit="10"/>
<path d="M7.42086 35.8385C7.7166 35.8385 7.95635 35.5947 7.95635 35.294C7.95635 34.9934 7.7166 34.7496 7.42086 34.7496C7.12512 34.7496 6.88538 34.9934 6.88538 35.294C6.88538 35.5947 7.12512 35.8385 7.42086 35.8385Z" fill="white" stroke="#161818" stroke-width="0.24" stroke-miterlimit="10"/>
<path d="M4.70425 38.2684C4.99999 38.2684 5.23974 38.0246 5.23974 37.724C5.23974 37.4233 4.99999 37.1796 4.70425 37.1796C4.40851 37.1796 4.16876 37.4233 4.16876 37.724C4.16876 38.0246 4.40851 38.2684 4.70425 38.2684Z" fill="white" stroke="#161818" stroke-width="0.24" stroke-miterlimit="10"/>
<path d="M7.42086 38.2684C7.7166 38.2684 7.95635 38.0246 7.95635 37.724C7.95635 37.4233 7.7166 37.1796 7.42086 37.1796C7.12512 37.1796 6.88538 37.4233 6.88538 37.724C6.88538 38.0246 7.12512 38.2684 7.42086 38.2684Z" fill="white" stroke="#161818" stroke-width="0.24" stroke-miterlimit="10"/>
<path d="M4.70425 40.7116C4.99999 40.7116 5.23974 40.4679 5.23974 40.1672C5.23974 39.8665 4.99999 39.6228 4.70425 39.6228C4.40851 39.6228 4.16876 39.8665 4.16876 40.1672C4.16876 40.4679 4.40851 40.7116 4.70425 40.7116Z" fill="white" stroke="#161818" stroke-width="0.24" stroke-miterlimit="10"/>
<path d="M7.42086 40.7116C7.7166 40.7116 7.95635 40.4679 7.95635 40.1672C7.95635 39.8665 7.7166 39.6228 7.42086 39.6228C7.12512 39.6228 6.88538 39.8665 6.88538 40.1672C6.88538 40.4679 7.12512 40.7116 7.42086 40.7116Z" fill="white" stroke="#161818" stroke-width="0.24" stroke-miterlimit="10"/>
<path d="M71.3267 14.1285H68.7146C68.051 14.1285 67.513 14.6755 67.513 15.3501V15.3634C67.513 16.0381 68.051 16.585 68.7146 16.585H71.3267C71.9903 16.585 72.5283 16.0381 72.5283 15.3634V15.3501C72.5283 14.6755 71.9903 14.1285 71.3267 14.1285Z" fill="white" stroke="#161818" stroke-width="0.24" stroke-miterlimit="10"/>
<path class="ECOSMART-ANCHOR-1" d="M71.3267 16.5718H68.7146C68.051 16.5718 67.513 17.1187 67.513 17.7934V17.8067C67.513 18.4813 68.051 19.0283 68.7146 19.0283H71.3267C71.9903 19.0283 72.5283 18.4813 72.5283 17.8067V17.7934C72.5283 17.1187 71.9903 16.5718 71.3267 16.5718Z" fill="white" stroke="#161818" stroke-width="0.24" stroke-miterlimit="10"/>
<path d="M71.3267 19.0282H68.7146C68.051 19.0282 67.513 19.5751 67.513 20.2498V20.2631C67.513 20.9377 68.051 21.4847 68.7146 21.4847H71.3267C71.9903 21.4847 72.5283 20.9377 72.5283 20.2631V20.2498C72.5283 19.5751 71.9903 19.0282 71.3267 19.0282Z" fill="white" stroke="#161818" stroke-width="0.24" stroke-miterlimit="10"/>
<path d="M68.6623 15.9211C68.9581 15.9211 69.1978 15.6774 69.1978 15.3767C69.1978 15.076 68.9581 14.8323 68.6623 14.8323C68.3666 14.8323 68.1268 15.076 68.1268 15.3767C68.1268 15.6774 68.3666 15.9211 68.6623 15.9211Z" fill="white" stroke="#161818" stroke-width="0.24" stroke-miterlimit="10"/>
<path d="M71.3789 15.9211C71.6747 15.9211 71.9144 15.6774 71.9144 15.3767C71.9144 15.076 71.6747 14.8323 71.3789 14.8323C71.0832 14.8323 70.8434 15.076 70.8434 15.3767C70.8434 15.6774 71.0832 15.9211 71.3789 15.9211Z" fill="white" stroke="#161818" stroke-width="0.24" stroke-miterlimit="10"/>
<path d="M68.6623 18.351C68.9581 18.351 69.1978 18.1073 69.1978 17.8066C69.1978 17.5059 68.9581 17.2622 68.6623 17.2622C68.3666 17.2622 68.1268 17.5059 68.1268 17.8066C68.1268 18.1073 68.3666 18.351 68.6623 18.351Z" fill="white" stroke="#161818" stroke-width="0.24" stroke-miterlimit="10"/>
<path d="M71.3789 18.351C71.6747 18.351 71.9144 18.1073 71.9144 17.8066C71.9144 17.5059 71.6747 17.2622 71.3789 17.2622C71.0832 17.2622 70.8434 17.5059 70.8434 17.8066C70.8434 18.1073 71.0832 18.351 71.3789 18.351Z" fill="white" stroke="#161818" stroke-width="0.24" stroke-miterlimit="10"/>
<path d="M68.6623 20.7943C68.9581 20.7943 69.1978 20.5505 69.1978 20.2499C69.1978 19.9492 68.9581 19.7054 68.6623 19.7054C68.3666 19.7054 68.1268 19.9492 68.1268 20.2499C68.1268 20.5505 68.3666 20.7943 68.6623 20.7943Z" fill="white" stroke="#161818" stroke-width="0.24" stroke-miterlimit="10"/>
<path d="M71.3789 20.7943C71.6747 20.7943 71.9144 20.5505 71.9144 20.2499C71.9144 19.9492 71.6747 19.7054 71.3789 19.7054C71.0832 19.7054 70.8434 19.9492 70.8434 20.2499C70.8434 20.5505 71.0832 20.7943 71.3789 20.7943Z" fill="white" stroke="#161818" stroke-width="0.24" stroke-miterlimit="10"/>
<path d="M7.27721 34.0459H4.66508C4.00147 34.0459 3.4635 34.5928 3.4635 35.2675V35.2808C3.4635 35.9554 4.00147 36.5024 4.66508 36.5024H7.27721C7.94083 36.5024 8.4788 35.9554 8.4788 35.2808V35.2675C8.4788 34.5928 7.94083 34.0459 7.27721 34.0459Z" fill="white" stroke="#161818" stroke-width="0.24" stroke-miterlimit="10"/>
<path class="ECOSMART-ANCHOR-2" d="M7.27721 36.4891H4.66508C4.00147 36.4891 3.4635 37.0361 3.4635 37.7107V37.724C3.4635 38.3987 4.00147 38.9456 4.66508 38.9456H7.27721C7.94083 38.9456 8.4788 38.3987 8.4788 37.724V37.7107C8.4788 37.0361 7.94083 36.4891 7.27721 36.4891Z" fill="white" stroke="#161818" stroke-width="0.24" stroke-miterlimit="10"/>
<path d="M7.27721 38.9456H4.66508C4.00147 38.9456 3.4635 39.4925 3.4635 40.1672V40.1804C3.4635 40.8551 4.00147 41.402 4.66508 41.402H7.27721C7.94083 41.402 8.4788 40.8551 8.4788 40.1804V40.1672C8.4788 39.4925 7.94083 38.9456 7.27721 38.9456Z" fill="white" stroke="#161818" stroke-width="0.24" stroke-miterlimit="10"/>
<path d="M4.59976 35.8385C4.8955 35.8385 5.13524 35.5947 5.13524 35.294C5.13524 34.9934 4.8955 34.7496 4.59976 34.7496C4.30402 34.7496 4.06427 34.9934 4.06427 35.294C4.06427 35.5947 4.30402 35.8385 4.59976 35.8385Z" fill="white" stroke="#161818" stroke-width="0.24" stroke-miterlimit="10"/>
<path d="M7.32943 35.8385C7.62517 35.8385 7.86492 35.5947 7.86492 35.294C7.86492 34.9934 7.62517 34.7496 7.32943 34.7496C7.03369 34.7496 6.79395 34.9934 6.79395 35.294C6.79395 35.5947 7.03369 35.8385 7.32943 35.8385Z" fill="white" stroke="#161818" stroke-width="0.24" stroke-miterlimit="10"/>
<path d="M4.59976 38.2684C4.8955 38.2684 5.13524 38.0246 5.13524 37.724C5.13524 37.4233 4.8955 37.1796 4.59976 37.1796C4.30402 37.1796 4.06427 37.4233 4.06427 37.724C4.06427 38.0246 4.30402 38.2684 4.59976 38.2684Z" fill="white" stroke="#161818" stroke-width="0.24" stroke-miterlimit="10"/>
<path d="M7.32943 38.2684C7.62517 38.2684 7.86492 38.0246 7.86492 37.724C7.86492 37.4233 7.62517 37.1796 7.32943 37.1796C7.03369 37.1796 6.79395 37.4233 6.79395 37.724C6.79395 38.0246 7.03369 38.2684 7.32943 38.2684Z" fill="white" stroke="#161818" stroke-width="0.24" stroke-miterlimit="10"/>
<path d="M4.59976 40.7116C4.8955 40.7116 5.13524 40.4679 5.13524 40.1672C5.13524 39.8665 4.8955 39.6228 4.59976 39.6228C4.30402 39.6228 4.06427 39.8665 4.06427 40.1672C4.06427 40.4679 4.30402 40.7116 4.59976 40.7116Z" fill="white" stroke="#161818" stroke-width="0.24" stroke-miterlimit="10"/>
<path d="M7.32943 40.7116C7.62517 40.7116 7.86492 40.4679 7.86492 40.1672C7.86492 39.8665 7.62517 39.6228 7.32943 39.6228C7.03369 39.6228 6.79395 39.8665 6.79395 40.1672C6.79395 40.4679 7.03369 40.7116 7.32943 40.7116Z" fill="white" stroke="#161818" stroke-width="0.24" stroke-miterlimit="10"/>
<path d="M9.2235 14.8987L9.21027 26.1454" stroke="#1D1D1B" stroke-width="0.24" stroke-miterlimit="10"/>
<path d="M9.98101 14.8987L9.96777 26.1454" stroke="#1D1D1B" stroke-width="0.24" stroke-miterlimit="10"/>
<path d="M10.7255 14.8987L10.7122 26.1454" stroke="#1D1D1B" stroke-width="0.24" stroke-miterlimit="10"/>
<path d="M11.5091 14.8987L11.4958 26.1454" stroke="#1D1D1B" stroke-width="0.24" stroke-miterlimit="10"/>
<path d="M12.2666 14.8987L12.2534 26.1454" stroke="#1D1D1B" stroke-width="0.24" stroke-miterlimit="10"/>
<path d="M12.998 14.8987L12.9847 26.1454" stroke="#1D1D1B" stroke-width="0.24" stroke-miterlimit="10"/>
<path d="M13.7684 14.8987V26.1454" stroke="#1D1D1B" stroke-width="0.24" stroke-miterlimit="10"/>
<path d="M14.513 14.8987L14.4998 26.1454" stroke="#1D1D1B" stroke-width="0.24" stroke-miterlimit="10"/>
<path d="M15.2706 14.8987L15.2573 26.1454" stroke="#1D1D1B" stroke-width="0.24" stroke-miterlimit="10"/>
<path d="M16.0279 14.8987V26.1454" stroke="#1D1D1B" stroke-width="0.24" stroke-miterlimit="10"/>
<path d="M16.8117 14.8987L16.7985 26.1454" stroke="#1D1D1B" stroke-width="0.24" stroke-miterlimit="10"/>
<path d="M17.556 14.8987V26.1454" stroke="#1D1D1B" stroke-width="0.24" stroke-miterlimit="10"/>
<path d="M18.9143 16.2797H7.85193" stroke="#1D1D1B" stroke-width="0.24" stroke-miterlimit="10"/>
<path d="M18.9143 17.0498H7.85193" stroke="#1D1D1B" stroke-width="0.24" stroke-miterlimit="10"/>
<path d="M18.9145 17.8199H7.86517" stroke="#1D1D1B" stroke-width="0.24" stroke-miterlimit="10"/>
<path d="M18.9145 18.6033H7.86517" stroke="#1D1D1B" stroke-width="0.24" stroke-miterlimit="10"/>
<path d="M18.9145 19.3734H7.86517" stroke="#1D1D1B" stroke-width="0.24" stroke-miterlimit="10"/>
<path d="M18.9145 20.1171H7.86517" stroke="#1D1D1B" stroke-width="0.24" stroke-miterlimit="10"/>
<path d="M18.9145 20.9137H7.86517" stroke="#1D1D1B" stroke-width="0.24" stroke-miterlimit="10"/>
<path d="M18.9145 21.6573H7.86517" stroke="#1D1D1B" stroke-width="0.24" stroke-miterlimit="10"/>
<path d="M18.9145 22.4275H7.86517" stroke="#1D1D1B" stroke-width="0.24" stroke-miterlimit="10"/>
<path d="M18.9145 23.2108H7.86517" stroke="#1D1D1B" stroke-width="0.24" stroke-miterlimit="10"/>
<path d="M18.9145 23.9943H7.86517" stroke="#1D1D1B" stroke-width="0.24" stroke-miterlimit="10"/>
<path d="M18.9145 24.7644H7.86517" stroke="#1D1D1B" stroke-width="0.24" stroke-miterlimit="10"/>
<path d="M18.3135 15.5095H8.4527V25.5346H18.3135V15.5095Z" fill="white" stroke="#1D1D1B" stroke-width="0.24" stroke-miterlimit="10"/>
<path d="M17.5429 16.293H9.22327V24.7512H17.5429V16.293Z" fill="white" stroke="#1D1D1B" stroke-width="0.24" stroke-miterlimit="10"/>
<path d="M23.2896 5.19226H31.6746" stroke="#1D1D1B" stroke-width="0.24" stroke-miterlimit="10"/>
<path d="M23.2896 6.99805H31.6746" stroke="#1D1D1B" stroke-width="0.24" stroke-miterlimit="10"/>
<path d="M23.2896 8.79065H31.6746" stroke="#1D1D1B" stroke-width="0.24" stroke-miterlimit="10"/>
<path d="M23.2896 10.5966H31.6746" stroke="#1D1D1B" stroke-width="0.24" stroke-miterlimit="10"/>
<path d="M23.2896 12.4023H31.6746" stroke="#1D1D1B" stroke-width="0.24" stroke-miterlimit="10"/>
<path d="M23.2896 14.2083H31.6746" stroke="#1D1D1B" stroke-width="0.24" stroke-miterlimit="10"/>
<path d="M23.2896 16.0007H31.6746" stroke="#1D1D1B" stroke-width="0.24" stroke-miterlimit="10"/>
<path d="M30.3423 4.26282H24.7393V16.917H30.3423V4.26282Z" fill="white" stroke="#1D1D1B" stroke-width="0.24" stroke-miterlimit="10"/>
<path d="M29.8983 4.26282H25.1834V16.917H29.8983V4.26282Z" fill="white" stroke="#1D1D1B" stroke-width="0.24" stroke-miterlimit="10"/>
<path d="M23.2374 26.1454H31.6223" stroke="#1D1D1B" stroke-width="0.24" stroke-miterlimit="10"/>
<path d="M23.2374 27.938H31.6223" stroke="#1D1D1B" stroke-width="0.24" stroke-miterlimit="10"/>
<path d="M23.2374 29.7438H31.6223" stroke="#1D1D1B" stroke-width="0.24" stroke-miterlimit="10"/>
<path d="M23.2374 31.5497H31.6223" stroke="#1D1D1B" stroke-width="0.24" stroke-miterlimit="10"/>
<path d="M23.2374 33.3555H31.6223" stroke="#1D1D1B" stroke-width="0.24" stroke-miterlimit="10"/>
<path d="M23.2374 35.1614H31.6223" stroke="#1D1D1B" stroke-width="0.24" stroke-miterlimit="10"/>
<path d="M23.2374 36.9672H31.6223" stroke="#1D1D1B" stroke-width="0.24" stroke-miterlimit="10"/>
<path d="M23.2374 38.7729H31.6223" stroke="#1D1D1B" stroke-width="0.24" stroke-miterlimit="10"/>
<path d="M30.2901 25.2291H24.6871V39.6759H30.2901V25.2291Z" fill="white" stroke="#1D1D1B" stroke-width="0.24" stroke-miterlimit="10"/>
<path d="M29.8461 25.1893H25.1312V39.6759H29.8461V25.1893Z" fill="white" stroke="#1D1D1B" stroke-width="0.24" stroke-miterlimit="10"/>
<path d="M38.2441 19.1876H46.4331" stroke="#1D1D1B" stroke-width="0.24" stroke-miterlimit="10"/>
<path d="M38.2441 21.2457H46.4331" stroke="#1D1D1B" stroke-width="0.24" stroke-miterlimit="10"/>
<path d="M38.2441 23.3038H46.4331" stroke="#1D1D1B" stroke-width="0.24" stroke-miterlimit="10"/>
<path d="M38.2441 25.3488H46.4331" stroke="#1D1D1B" stroke-width="0.24" stroke-miterlimit="10"/>
<path d="M38.2441 10.4106H46.4331" stroke="#1D1D1B" stroke-width="0.24" stroke-miterlimit="10"/>
<path d="M38.2441 12.4688H46.4331" stroke="#1D1D1B" stroke-width="0.24" stroke-miterlimit="10"/>
<path d="M38.2441 14.5269H46.4331" stroke="#1D1D1B" stroke-width="0.24" stroke-miterlimit="10"/>
<path d="M38.2441 16.5718H46.4331" stroke="#1D1D1B" stroke-width="0.24" stroke-miterlimit="10"/>
<path d="M38.2441 1.44788H46.4331" stroke="#1D1D1B" stroke-width="0.24" stroke-miterlimit="10"/>
<path d="M38.2441 3.49268H46.4331" stroke="#1D1D1B" stroke-width="0.24" stroke-miterlimit="10"/>
<path d="M38.2441 5.5509H46.4331" stroke="#1D1D1B" stroke-width="0.24" stroke-miterlimit="10"/>
<path d="M38.2441 7.60901H46.4331" stroke="#1D1D1B" stroke-width="0.24" stroke-miterlimit="10"/>
<path d="M38.231 28.1504H46.4331" stroke="#1D1D1B" stroke-width="0.24" stroke-miterlimit="10"/>
<path d="M38.231 30.2085H46.4331" stroke="#1D1D1B" stroke-width="0.24" stroke-miterlimit="10"/>
<path d="M38.231 32.2666H46.4331" stroke="#1D1D1B" stroke-width="0.24" stroke-miterlimit="10"/>
<path d="M38.231 34.3115H46.4331" stroke="#1D1D1B" stroke-width="0.24" stroke-miterlimit="10"/>
<path d="M38.2441 37.1265H46.4331" stroke="#1D1D1B" stroke-width="0.24" stroke-miterlimit="10"/>
<path d="M38.2441 39.1713H46.4331" stroke="#1D1D1B" stroke-width="0.24" stroke-miterlimit="10"/>
<path d="M38.2441 41.2295H46.4331" stroke="#1D1D1B" stroke-width="0.24" stroke-miterlimit="10"/>
<path d="M38.2441 43.2876H46.4331" stroke="#1D1D1B" stroke-width="0.24" stroke-miterlimit="10"/>
<path d="M44.9572 0.119995H39.6938V8.92348H44.9572V0.119995Z" fill="white" stroke="#1D1D1B" stroke-width="0.24" stroke-miterlimit="10"/>
<path d="M44.4087 0.119995H40.2554V8.92348H44.4087V0.119995Z" fill="white" stroke="#1D1D1B" stroke-width="0.24" stroke-miterlimit="10"/>
<path d="M44.9572 9.09607H39.6938V17.8996H44.9572V9.09607Z" fill="white" stroke="#1D1D1B" stroke-width="0.24" stroke-miterlimit="10"/>
<path d="M44.4087 9.09607H40.2554V17.8996H44.4087V9.09607Z" fill="white" stroke="#1D1D1B" stroke-width="0.24" stroke-miterlimit="10"/>
<path d="M44.9572 18.059H39.6938V26.8624H44.9572V18.059Z" fill="white" stroke="#1D1D1B" stroke-width="0.24" stroke-miterlimit="10"/>
<path d="M44.4087 18.059H40.2554V26.8624H44.4087V18.059Z" fill="white" stroke="#1D1D1B" stroke-width="0.24" stroke-miterlimit="10"/>
<path d="M44.9572 27.0217H39.6938V35.8252H44.9572V27.0217Z" fill="white" stroke="#1D1D1B" stroke-width="0.24" stroke-miterlimit="10"/>
<path d="M44.4087 27.0217H40.2554V35.8252H44.4087V27.0217Z" fill="white" stroke="#1D1D1B" stroke-width="0.24" stroke-miterlimit="10"/>
<path d="M44.9703 35.9845H39.7068V44.788H44.9703V35.9845Z" fill="white" stroke="#1D1D1B" stroke-width="0.24" stroke-miterlimit="10"/>
<path d="M44.4217 35.9845H40.2684V44.788H44.4217V35.9845Z" fill="white" stroke="#1D1D1B" stroke-width="0.24" stroke-miterlimit="10"/>
<path d="M51.3439 13.0663H50.4297V15.2572H51.3439V13.0663Z" stroke="#1D1D1B" stroke-width="0.3" stroke-miterlimit="10"/>
<path d="M55.0793 13.0663H54.165V15.2572H55.0793V13.0663Z" stroke="#1D1D1B" stroke-width="0.3" stroke-miterlimit="10"/>
<path d="M51.3439 20.5154H50.4297V22.7063H51.3439V20.5154Z" stroke="#1D1D1B" stroke-width="0.3" stroke-miterlimit="10"/>
<path d="M55.0793 20.5154H54.165V22.7063H55.0793V20.5154Z" stroke="#1D1D1B" stroke-width="0.3" stroke-miterlimit="10"/>
<path d="M61.8577 13.7169H59.115V14.6198H61.8577V13.7169Z" stroke="#1D1D1B" stroke-width="0.3" stroke-miterlimit="10"/>
<path d="M61.8577 21.166H59.115V22.0557H61.8577V21.166Z" stroke="#1D1D1B" stroke-width="0.3" stroke-miterlimit="10"/>
<path d="M55.9152 15.2705H49.4893V20.5287H55.9152V15.2705Z" fill="white" stroke="#1D1D1B" stroke-width="0.24" stroke-miterlimit="10"/>
<path d="M63.0724 14.6199H57.9004V21.1528H63.0724V14.6199Z" fill="white" stroke="#1D1D1B" stroke-width="0.24" stroke-miterlimit="10"/>
</svg>
