<svg width="40" height="200" viewBox="0 0 40 200" fill="none" xmlns="http://www.w3.org/2000/svg">
<mask id="mask0_184_11729" style="mask-type:luminance" maskUnits="userSpaceOnUse" x="0" y="0" width="40" height="200">
<path d="M40 0H0V200H40V0Z" fill="white"/>
</mask>
<g mask="url(#mask0_184_11729)">
<path d="M39.5 0.5L0.5 0.500005V199.5H39.5V0.5Z" fill="white"/>
<path d="M0.314148 199.722V0.338318" stroke="black" stroke-width="0.5" stroke-miterlimit="10" stroke-linecap="round" stroke-linejoin="round"/>
<path d="M0.314148 199.722H39.5" stroke="black" stroke-width="0.5" stroke-miterlimit="10" stroke-linecap="round" stroke-linejoin="round"/>
<path d="M39.7 0.338318V199.722" stroke="black" stroke-width="0.5" stroke-miterlimit="10" stroke-linecap="round" stroke-linejoin="round"/>
<path d="M19.5445 152.229V169.905" stroke="black" stroke-width="0.25" stroke-miterlimit="10" stroke-linecap="round" stroke-linejoin="round"/>
<path d="M39.5 47.5293H0.314148" stroke="black" stroke-width="0.25" stroke-miterlimit="10" stroke-linecap="round" stroke-linejoin="round"/>
<path d="M39.5 136.088H0.314148" stroke="black" stroke-width="0.25" stroke-miterlimit="10" stroke-linecap="round" stroke-linejoin="round"/>
<path d="M39.5 152.229H0.314148" stroke="black" stroke-width="0.25" stroke-miterlimit="10" stroke-linecap="round" stroke-linejoin="round"/>
<path d="M19.5445 47.5052V29.0565" stroke="black" stroke-width="0.25" stroke-miterlimit="10" stroke-linecap="round" stroke-linejoin="round"/>
<path d="M19.5445 9.97949V0.338318" stroke="black" stroke-width="0.25" stroke-miterlimit="10" stroke-linecap="round" stroke-linejoin="round"/>
<path d="M19.5445 188.994V199.722" stroke="black" stroke-width="0.25" stroke-miterlimit="10" stroke-linecap="round" stroke-linejoin="round"/>
<path d="M0.314148 0.338318H39.5" stroke="black" stroke-width="0.5" stroke-miterlimit="10" stroke-linecap="round" stroke-linejoin="round"/>
<path d="M39.3141 80.5123H0.314148" stroke="black" stroke-width="0.25" stroke-miterlimit="10" stroke-linecap="round" stroke-linejoin="round"/>
<path d="M39.3141 118.968H0.314148" stroke="black" stroke-width="0.25" stroke-miterlimit="10" stroke-linecap="round" stroke-linejoin="round"/>
<path d="M35.436 86.3478H4.19228" stroke="black" stroke-width="0.25" stroke-miterlimit="10" stroke-linecap="round" stroke-linejoin="round"/>
<path d="M35.436 113.302H4.19228" stroke="black" stroke-width="0.25" stroke-miterlimit="10" stroke-linecap="round" stroke-linejoin="round"/>
<path d="M35.436 86.3478L39.3131 80.5123" stroke="black" stroke-width="0.25" stroke-miterlimit="10" stroke-linecap="round" stroke-linejoin="round"/>
<path d="M4.19128 86.3478L0.314148 80.5123" stroke="black" stroke-width="0.25" stroke-miterlimit="10" stroke-linecap="round" stroke-linejoin="round"/>
<path d="M4.19128 113.302L0.314148 118.968" stroke="black" stroke-width="0.25" stroke-miterlimit="10" stroke-linecap="round" stroke-linejoin="round"/>
<path d="M35.436 113.302L39.3131 118.968" stroke="black" stroke-width="0.25" stroke-miterlimit="10" stroke-linecap="round" stroke-linejoin="round"/>
<path d="M10.7287 86.3478V99.251" stroke="black" stroke-width="0.25" stroke-miterlimit="10" stroke-linecap="round" stroke-linejoin="round"/>
<path d="M28.8995 86.3478V99.251" stroke="black" stroke-width="0.25" stroke-miterlimit="10" stroke-linecap="round" stroke-linejoin="round"/>
<path d="M10.7287 92.3282H28.8996" stroke="black" stroke-width="0.5" stroke-miterlimit="10" stroke-linecap="round" stroke-linejoin="round"/>
<path d="M11.8785 98.0308L7.98984 102.126" stroke="black" stroke-width="0.5" stroke-miterlimit="10" stroke-linecap="round" stroke-linejoin="round"/>
<path d="M27.7142 98.0066L31.6959 102.187" stroke="black" stroke-width="0.5" stroke-miterlimit="10" stroke-linecap="round" stroke-linejoin="round"/>
<path d="M7.98984 102.126V111.973" stroke="black" stroke-width="0.5" stroke-miterlimit="10" stroke-linecap="round" stroke-linejoin="round"/>
<path d="M31.719 102.187V111.973" stroke="black" stroke-width="0.5" stroke-miterlimit="10" stroke-linecap="round" stroke-linejoin="round"/>
<path d="M7.98984 111.973H31.719" stroke="black" stroke-width="0.5" stroke-miterlimit="10" stroke-linecap="round" stroke-linejoin="round"/>
<path d="M10.7287 111.973V113.302" stroke="black" stroke-width="0.25" stroke-miterlimit="10" stroke-linecap="round" stroke-linejoin="round"/>
<path d="M28.8995 111.973V113.302" stroke="black" stroke-width="0.25" stroke-miterlimit="10" stroke-linecap="round" stroke-linejoin="round"/>
<path d="M7.98984 109.665H31.6729" stroke="black" stroke-width="0.5" stroke-miterlimit="10" stroke-linecap="round" stroke-linejoin="round"/>
<path d="M7.98984 107.044H31.6729" stroke="black" stroke-width="0.5" stroke-miterlimit="10" stroke-linecap="round" stroke-linejoin="round"/>
<path d="M8.04736 103.915H31.6729" stroke="black" stroke-width="0.5" stroke-miterlimit="10" stroke-linecap="round" stroke-linejoin="round"/>
<path d="M11.8795 92.3282V98.0307" stroke="black" stroke-width="0.5" stroke-miterlimit="10" stroke-linecap="round" stroke-linejoin="round"/>
<path d="M27.7142 92.3282V98.0066" stroke="black" stroke-width="0.5" stroke-miterlimit="10" stroke-linecap="round" stroke-linejoin="round"/>
<path d="M11.8795 98.0308H27.7143" stroke="black" stroke-width="0.5" stroke-miterlimit="10" stroke-linecap="round" stroke-linejoin="round"/>
<path class="L-OUT" d="M12.9359 186.324L26.419 172.84M19.5445 188.994C24.8159 188.994 29.089 184.72 29.089 179.449C29.089 174.178 24.8159 169.905 19.5445 169.905C14.2733 169.905 10 174.178 10 179.449C10 184.72 14.2733 188.994 19.5445 188.994Z" stroke="#212830" stroke-width="0.25" stroke-miterlimit="10"/>
<path class="L-IN" d="M12.9479 26.2656L26.4311 12.7824M19.5445 29.0564C24.8159 29.0564 29.089 24.7832 29.089 19.5119C29.089 14.2407 24.8159 9.96741 19.5445 9.96741C14.2733 9.96741 10 14.2407 10 19.5119C10 24.7832 14.2733 29.0564 19.5445 29.0564Z" stroke="#212830" stroke-width="0.25" stroke-miterlimit="10"/>
<path d="M5.68624 61.0105L5.38661 61.9191H5L5.9762 59.0388H6.4208L7.40667 61.9191H7.02006L6.71076 61.0105H5.68624ZM6.63344 60.7206L6.35315 59.8894C6.28549 59.7057 6.24683 59.5318 6.1985 59.3674H6.18884C6.15018 59.5414 6.10185 59.7154 6.04386 59.8894L5.76356 60.7206H6.63344Z" fill="black"/>
<path d="M7.81258 59.8699C7.95756 59.8409 8.22819 59.8215 8.46983 59.8215C8.81778 59.8215 9.38803 59.8795 9.38803 60.3435C9.38803 60.6044 9.19473 60.7591 8.95309 60.8074V60.8171C9.25272 60.8557 9.47502 61.0297 9.47502 61.3293C9.47502 61.8706 8.78878 61.9382 8.38284 61.9382C8.15087 61.9382 7.90924 61.9189 7.80292 61.9092V59.8699H7.81258ZM8.1702 61.6676C8.27652 61.6773 8.35384 61.6869 8.47949 61.6869C8.73079 61.6869 9.10774 61.629 9.10774 61.3293C9.10774 61.0297 8.80811 60.962 8.4505 60.962H8.1702V61.6676ZM8.17987 60.7107H8.46016C8.74046 60.7107 9.02075 60.6334 9.02075 60.3821C9.02075 60.1792 8.83711 60.0825 8.46016 60.0825C8.33451 60.0825 8.25719 60.0922 8.1702 60.1018V60.7107H8.17987Z" fill="black"/>
<path d="M11.3211 59.8409V60.1406H10.6736V61.9093H10.2966V60.1406H9.65869V59.8409H11.3211Z" fill="black"/>
<path d="M13.4668 60.8654C13.4668 61.629 12.9352 61.9673 12.4326 61.9673C11.872 61.9673 11.4371 61.5613 11.4371 60.9041C11.4371 60.2082 11.8914 59.8022 12.4616 59.8022C13.0609 59.7926 13.4668 60.2275 13.4668 60.8654ZM11.8237 60.8847C11.8237 61.339 12.0847 61.6773 12.452 61.6773C12.8096 61.6773 13.0802 61.339 13.0802 60.8751C13.0802 60.5271 12.9062 60.0825 12.4616 60.0825C12.017 60.0825 11.8237 60.4885 11.8237 60.8847Z" fill="black"/>
<path d="M13.9598 59.8409H14.4237L14.8006 60.8848C14.849 61.0394 14.9456 61.2907 14.9843 61.4551H14.994C15.0423 61.3004 15.1583 60.9718 15.2356 60.7495L15.5739 59.8506H16.0378L16.1828 61.919H15.8252L15.7768 60.9331C15.7672 60.7108 15.7478 60.4499 15.7382 60.1889H15.7285C15.6705 60.3725 15.6125 60.5465 15.5062 60.8558L15.1099 61.8997H14.8296L14.4624 60.8751C14.3947 60.6818 14.3077 60.3822 14.2594 60.1889H14.2401C14.2304 60.4305 14.2207 60.7108 14.2014 60.9331L14.1531 61.919H13.8051L13.9598 59.8409Z" fill="black"/>
<path d="M17.8162 61.919L17.7872 61.658H17.7776C17.6616 61.8223 17.4393 61.9673 17.1396 61.9673C16.724 61.9673 16.5114 61.6677 16.5114 61.3681C16.5114 60.8655 16.956 60.5948 17.7582 60.5948V60.5562C17.7582 60.3822 17.7099 60.0729 17.2846 60.0729C17.0913 60.0729 16.8883 60.1309 16.7434 60.2275L16.6564 59.9762C16.8304 59.8603 17.072 59.7926 17.333 59.7926C17.9612 59.7926 18.1158 60.2275 18.1158 60.6432V61.4164C18.1158 61.6 18.1255 61.774 18.1545 61.9093H17.8162V61.919ZM17.7582 60.8558C17.3523 60.8461 16.8787 60.9234 16.8787 61.3197C16.8787 61.5614 17.043 61.6773 17.2363 61.6773C17.5069 61.6773 17.6809 61.5034 17.7389 61.3294C17.7486 61.2907 17.7582 61.2521 17.7582 61.2134V60.8558Z" fill="black"/>
<path d="M20.0973 59.8409V60.1406H19.4497V61.9093H19.0824V60.1406H18.4348V59.8409H20.0973Z" fill="black"/>
<path d="M20.7738 59.8409V60.7107C20.7738 61.0394 20.7738 61.2423 20.7545 61.542H20.7642C20.8898 61.2907 20.9575 61.1457 21.0928 60.9041L21.7404 59.8312H22.185V61.8996H21.8273V61.02C21.8273 60.6817 21.837 60.5078 21.8563 60.1695H21.8467C21.7114 60.4305 21.6244 60.6044 21.5084 60.8074C21.3151 61.1264 21.0831 61.5226 20.8608 61.8899H20.4259V59.8215H20.7738V59.8409Z" fill="black"/>
<path d="M23.0935 59.841V60.5175C23.0935 60.7785 23.1902 60.9621 23.5188 60.9621C23.6831 60.9621 23.8474 60.9042 23.9634 60.8172V59.841H24.3307V61.9093H23.9634V61.0781H23.9537C23.8087 61.1748 23.5864 61.2328 23.3931 61.2328C22.9968 61.2328 22.7166 61.0298 22.7166 60.5562V59.8313H23.0935V59.841Z" fill="black"/>
<path d="M25.1619 60.9524C25.1715 61.4647 25.4905 61.6677 25.8674 61.6677C26.1381 61.6677 26.3024 61.6193 26.4377 61.5613L26.5054 61.832C26.37 61.89 26.1477 61.9576 25.8191 61.9576C25.1812 61.9576 24.8043 61.542 24.8043 60.9138C24.8043 60.2855 25.1715 59.8022 25.7708 59.8022C26.4474 59.8022 26.6213 60.4015 26.6213 60.7784C26.6213 60.8558 26.6117 60.9138 26.6117 60.9524H25.1619ZM26.2637 60.6818C26.2637 60.4402 26.1671 60.0729 25.7418 60.0729C25.3648 60.0729 25.1909 60.4208 25.1619 60.6818H26.2637Z" fill="black"/>
<path d="M28.5737 61.8416C28.4771 61.89 28.2548 61.9576 27.9745 61.9576C27.3462 61.9576 26.9403 61.5323 26.9403 60.9041C26.9403 60.2662 27.3752 59.8022 28.0518 59.8022C28.2741 59.8022 28.4674 59.8602 28.5737 59.9086L28.4867 60.1985C28.3998 60.1502 28.2548 60.1019 28.0518 60.1019C27.5782 60.1019 27.3172 60.4498 27.3172 60.8848C27.3172 61.368 27.6265 61.658 28.0325 61.658C28.2451 61.658 28.3901 61.6 28.4964 61.5517L28.5737 61.8416Z" fill="black"/>
<path d="M29.3856 59.8409V60.7398H29.4726L30.2555 59.8409H30.7098L29.8109 60.7785C30.1395 60.8171 30.3425 61.0394 30.5068 61.4067C30.5648 61.542 30.6325 61.745 30.7291 61.9093H30.3328C30.2748 61.8223 30.2072 61.658 30.1395 61.4841C29.9945 61.1458 29.8109 61.0008 29.4533 61.0008H29.376V61.9093H29.0087V59.8409H29.3856Z" fill="black"/>
<path d="M31.4057 59.8409V60.7107C31.4057 61.0394 31.4057 61.2423 31.3864 61.542H31.396C31.5217 61.2907 31.5893 61.1457 31.7247 60.9041L32.3722 59.8312H32.8168V61.8996H32.4592V61.02C32.4592 60.6817 32.4689 60.5078 32.4882 60.1695H32.4786C32.3432 60.4305 32.2563 60.6044 32.1403 60.8074C31.947 61.1264 31.715 61.5226 31.4927 61.8899H31.0578V59.8215H31.4057V59.8409Z" fill="black"/>
<path d="M33.7737 59.8409V60.7108C33.7737 61.0394 33.7737 61.2424 33.7544 61.542H33.7641C33.8897 61.2907 33.9574 61.1457 34.0927 60.9041L34.7403 59.8312H35.1849V61.8996H34.8272V61.0201C34.8272 60.6818 34.8369 60.5078 34.8562 60.1695H34.8369C34.7016 60.4305 34.6146 60.6044 34.4986 60.8074C34.3053 61.1264 34.0733 61.5227 33.851 61.8899H33.4161V59.8216H33.7737V59.8409ZM34.0154 59C34.025 59.1836 34.1217 59.3286 34.286 59.3286C34.4696 59.3286 34.5566 59.1933 34.5759 59H34.8466C34.8272 59.348 34.6049 59.5316 34.2763 59.5316C33.8994 59.5316 33.7544 59.2996 33.7351 59H34.0154Z" fill="black"/>
<path d="M8.17022 65.0023C8.3152 64.9733 8.58583 64.954 8.82746 64.954C9.17541 64.954 9.74567 65.012 9.74567 65.4759C9.74567 65.7369 9.55236 65.8915 9.31073 65.9398V65.9495C9.61035 65.9882 9.83266 66.1621 9.83266 66.4618C9.83266 67.003 9.14642 67.0707 8.74047 67.0707C8.50851 67.0707 8.26687 67.0514 8.16055 67.0417V65.0023H8.17022ZM8.52784 66.8001C8.63415 66.8097 8.71148 66.8194 8.82746 66.8194C9.07876 66.8194 9.45571 66.7614 9.45571 66.4618C9.45571 66.1621 9.15608 66.0945 8.79847 66.0945H8.52784V66.8001ZM8.52784 65.8432H8.80813C9.08843 65.8432 9.36872 65.7659 9.36872 65.5146C9.36872 65.3116 9.18508 65.2149 8.80813 65.2149C8.68248 65.2149 8.60516 65.2246 8.51817 65.2343V65.8432H8.52784Z" fill="black"/>
<path d="M10.6832 64.9733V65.6789C10.7605 65.6596 10.8862 65.6499 11.0215 65.6499C11.4661 65.6499 11.9107 65.8335 11.9107 66.3458C11.9107 66.5681 11.8334 66.7131 11.6981 66.8291C11.4758 67.0224 11.1375 67.0707 10.8668 67.0707C10.6542 67.0707 10.4609 67.061 10.3063 67.0417V64.9733H10.6832ZM10.6832 66.7807C10.7605 66.7904 10.8379 66.8001 10.9442 66.8001C11.2341 66.8001 11.5434 66.6841 11.5434 66.3555C11.5434 66.0172 11.2438 65.9205 10.9635 65.9205C10.8572 65.9205 10.7605 65.9302 10.6832 65.9399V66.7807ZM12.5486 64.9733V67.0417H12.1717V64.9733H12.5486Z" fill="black"/>
<path d="M13.5345 64.9733V65.8722H13.6215L14.4043 64.9733H14.8586L13.9597 65.9109C14.2884 65.9495 14.4913 66.1718 14.6556 66.5391C14.7136 66.6744 14.7813 66.8774 14.8779 67.0417H14.4817C14.4237 66.9547 14.356 66.7904 14.2884 66.6164C14.1434 66.2781 13.9597 66.1332 13.6021 66.1332H13.5248V67.0417H13.1575V64.9733H13.5345Z" fill="black"/>
<path d="M16.8787 64.9733V67.0417H16.5017V65.2633H15.7962V65.8045C15.7962 66.3845 15.7382 66.7711 15.4676 66.9547C15.3612 67.032 15.2453 67.0804 15.0616 67.0804L15.0229 66.7807C15.1003 66.7711 15.1776 66.7421 15.2259 66.6938C15.4192 66.5488 15.4386 66.2588 15.4386 65.8045V64.9733H16.8787Z" fill="black"/>
<path d="M17.8452 64.9732V65.8431H18.2028C18.2705 65.2921 18.6281 64.9249 19.1211 64.9249C19.6623 64.9249 20.0296 65.3501 20.0296 65.9881C20.0296 66.655 19.6237 67.0899 19.1017 67.0899C18.6088 67.0899 18.2415 66.7226 18.2028 66.133H17.8549V67.0416H17.4876V64.9732H17.8452ZM19.6526 65.9977C19.6526 65.6111 19.4787 65.2052 19.1114 65.2052C18.7441 65.2052 18.5508 65.6014 18.5508 66.017C18.5508 66.423 18.7344 66.8096 19.1017 66.8096C19.4787 66.8096 19.6526 66.394 19.6526 65.9977Z" fill="black"/>
<path d="M20.8028 64.9733V65.6499C20.8028 65.9109 20.8995 66.0945 21.2281 66.0945C21.3924 66.0945 21.5567 66.0365 21.6727 65.9495V64.9733H22.04V67.0417H21.6727V66.2105H21.663C21.5181 66.3071 21.2958 66.3651 21.1024 66.3651C20.7062 66.3651 20.4259 66.1622 20.4259 65.6886V64.9733H20.8028Z" fill="black"/>
<path d="M23.8087 67.0416L23.7797 66.7806H23.7701C23.6541 66.9449 23.4318 67.0899 23.1322 67.0899C22.7166 67.0899 22.5039 66.7903 22.5039 66.4907C22.5039 65.9881 22.9485 65.7174 23.7508 65.7174V65.6788C23.7508 65.5048 23.7024 65.1955 23.2771 65.1955C23.0838 65.1955 22.8809 65.2535 22.7359 65.3502L22.6489 65.0989C22.8229 64.9829 23.0645 64.9152 23.3255 64.9152C23.9537 64.9152 24.1084 65.3502 24.1084 65.7658V66.539C24.1084 66.7226 24.118 66.8966 24.147 67.0319H23.8087V67.0416ZM23.7508 65.9881C23.3448 65.9784 22.8712 66.0557 22.8712 66.452C22.8712 66.6936 23.0355 66.8096 23.2288 66.8096C23.4995 66.8096 23.6734 66.6357 23.7314 66.4617C23.7411 66.423 23.7508 66.3844 23.7508 66.3457V65.9881Z" fill="black"/>
<path d="M26.0897 64.9733V65.273H25.4422V67.0417H25.0749V65.273H24.4273V64.9733H26.0897Z" fill="black"/>
<path d="M26.573 66.075C26.5827 66.5873 26.9016 66.7903 27.2786 66.7903C27.5492 66.7903 27.7135 66.7419 27.8489 66.684L27.9165 66.9546C27.7812 67.0126 27.5589 67.0802 27.2303 67.0802C26.5924 67.0802 26.2154 66.6646 26.2154 66.0364C26.2154 65.4081 26.5827 64.9249 27.1819 64.9249C27.8585 64.9249 28.0325 65.5241 28.0325 65.9011C28.0325 65.9784 28.0228 66.0364 28.0228 66.075H26.573ZM27.6749 65.8044C27.6749 65.5628 27.5782 65.1955 27.1529 65.1955C26.776 65.1955 26.602 65.5434 26.573 65.8044H27.6749Z" fill="black"/>
<path d="M30.0815 64.9733V67.0417H29.7046V65.2633H28.999V65.8045C28.999 66.3845 28.941 66.7711 28.6704 66.9547C28.5641 67.032 28.4481 67.0804 28.2645 67.0804L28.2258 66.7807C28.3031 66.7711 28.3804 66.7421 28.4288 66.6938C28.6221 66.5488 28.6414 66.2588 28.6414 65.8045V64.9733H30.0815Z" fill="black"/>
<path d="M31.0577 64.9733V65.6789C31.1447 65.6596 31.2897 65.6596 31.396 65.6596C31.86 65.6596 32.3529 65.8045 32.3529 66.3555C32.3529 66.5681 32.2659 66.7228 32.1306 66.8291C31.9083 67.0224 31.541 67.0707 31.2317 67.0707C31.0191 67.0707 30.8258 67.061 30.6711 67.0417V64.9733H31.0577ZM31.0577 66.7807C31.1351 66.7904 31.2124 66.8001 31.338 66.8001C31.6183 66.8001 31.9856 66.7034 31.9856 66.3555C31.9856 65.9979 31.6087 65.9205 31.3284 65.9205C31.2317 65.9205 31.1447 65.9302 31.0577 65.9399V66.7807Z" fill="black"/>
<path d="M36 186L40 187L36 188L32 187L36 186Z" fill="none" opacity="0"/>
</g>
</svg>
