<svg width="92" height="25" viewBox="0 0 92 25" fill="none" xmlns="http://www.w3.org/2000/svg">
<rect x="0.5" y="0.5" width="91" height="24" rx="1.5" fill="#F0F0F0" stroke="black"/>
<path d="M2.64551 19.2219L11.3496 19.2219L11.3496 5.99997L2.64551 5.99997" fill="#AFD5A9"/>
<path d="M2.64551 19.2219L11.3496 19.2219L11.3496 5.99997L2.64551 5.99997" stroke="#212830" stroke-width="0.25" stroke-miterlimit="10"/>
<path d="M0.999999 5.99997L1 19.2219L2.63645 19.2219L2.63645 5.99997L0.999999 5.99997Z" fill="#5EB34A" stroke="#1D1D1B" stroke-width="0.25" stroke-miterlimit="10"/>
<path d="M11.3494 5.99997L11.3494 19.2219L15.1442 19.2219L15.1442 5.99997L11.3494 5.99997Z" fill="#5EB34A" stroke="#1D1D1B" stroke-width="0.25" stroke-miterlimit="10"/>
<path d="M15.1527 17.1528L12.3132 17.1528L12.3132 14.6072L15.1527 14.6072L15.1527 10.5808L12.3132 10.5808L12.3132 8.03514L15.1527 8.03514" fill="#0C9B47"/>
<path d="M15.1527 17.1528L12.3132 17.1528L12.3132 14.6072L15.1527 14.6072L15.1527 10.5808L12.3132 10.5808L12.3132 8.03514L15.1527 8.03514" stroke="#212830" stroke-width="0.25" stroke-miterlimit="10"/>
<path class="DI-IN" d="M6.95277 11.8712L7.43928 11.8279L7.91695 11.6721L8.315 11.4816L8.71306 11.1698L9.0315 10.7715L9.23495 10.3819L9.39417 9.91432L9.4384 9.44675L9.39417 8.97917L9.23495 8.50294L9.0315 8.1133L8.71306 7.72365L8.315 7.41193L7.91695 7.21278L7.43928 7.05692L6.95277 7.02229L6.47511 7.05692L5.99744 7.21278L5.59939 7.41193L5.20133 7.72365L4.88289 8.1133L4.67944 8.50294L4.52021 8.97917L4.47599 9.44675L4.52021 9.91432L4.67944 10.3819L4.88289 10.7715L5.20133 11.1698L5.59938 11.4816L5.99744 11.6721L6.4751 11.8279L6.95277 11.8712Z" fill="#C8C8CA"/>
<path d="M8.73105 7.70613L5.17509 11.1437M6.95277 11.8712L7.43928 11.8279L7.91695 11.6721L8.315 11.4816L8.71306 11.1698L9.0315 10.7715L9.23495 10.3819L9.39417 9.91432L9.4384 9.44675L9.39417 8.97917L9.23495 8.50294L9.0315 8.1133L8.71306 7.72365L8.315 7.41193L7.91695 7.21278L7.43928 7.05692L6.95277 7.02229L6.47511 7.05692L5.99744 7.21278L5.59939 7.41193L5.20133 7.72365L4.88289 8.1133L4.67944 8.50294L4.52021 8.97917L4.47599 9.44675L4.52021 9.91432L4.67944 10.3819L4.88289 10.7715L5.20133 11.1698L5.59938 11.4816L5.99744 11.6721L6.4751 11.8279L6.95277 11.8712Z" stroke="#212830" stroke-width="0.25" stroke-miterlimit="10"/>
<path d="M6.99697 17.976L7.47464 17.9327L7.95231 17.7769L8.35921 17.5777L8.75726 17.266L9.0757 16.8764L9.27031 16.4867L9.43838 16.0191L9.47376 15.5429L9.43838 15.0753L9.27031 14.6078L9.0757 14.2181L8.75726 13.8285L8.35921 13.5168L7.95231 13.3176L7.47464 13.1617L6.99697 13.1184L6.51931 13.1617L6.04164 13.3176L5.63474 13.5168L5.23669 13.8285L4.91824 14.2181L4.72364 14.6078L4.55557 15.0753L4.52019 15.5429L4.55557 16.0191L4.72364 16.4867L4.91824 16.8764L5.23669 17.266L5.63474 17.5777L6.04164 17.7769L6.51931 17.9327L6.99697 17.976Z" fill="#C8C8CA"/>
<path d="M8.77509 13.8024L5.21913 17.2399M6.99697 17.976L7.47464 17.9327L7.95231 17.7769L8.35921 17.5777L8.75726 17.266L9.0757 16.8764L9.27031 16.4867L9.43838 16.0191L9.47376 15.5429L9.43838 15.0753L9.27031 14.6078L9.0757 14.2181L8.75726 13.8285L8.35921 13.5168L7.95231 13.3176L7.47464 13.1617L6.99697 13.1184L6.51931 13.1617L6.04164 13.3176L5.63474 13.5168L5.23669 13.8285L4.91824 14.2181L4.72364 14.6078L4.55557 15.0753L4.52019 15.5429L4.55557 16.0191L4.72364 16.4867L4.91824 16.8764L5.23669 17.266L5.63474 17.5777L6.04164 17.7769L6.51931 17.9327L6.99697 17.976Z" stroke="#212830" stroke-width="0.25" stroke-miterlimit="10"/>
<path d="M21.4769 7.45455C21.4769 8.00308 21.3742 8.47289 21.1687 8.86399C20.9648 9.25343 20.6864 9.55173 20.3335 9.75888C19.9821 9.96603 19.5836 10.0696 19.1378 10.0696C18.692 10.0696 18.2926 9.96603 17.9396 9.75888C17.5883 9.55007 17.3099 9.25095 17.1044 8.86151C16.9006 8.47041 16.7987 8.00142 16.7987 7.45455C16.7987 6.90601 16.9006 6.43703 17.1044 6.04759C17.3099 5.65649 17.5883 5.35736 17.9396 5.15021C18.2926 4.94306 18.692 4.83949 19.1378 4.83949C19.5836 4.83949 19.9821 4.94306 20.3335 5.15021C20.6864 5.35736 20.9648 5.65649 21.1687 6.04759C21.3742 6.43703 21.4769 6.90601 21.4769 7.45455ZM20.5497 7.45455C20.5497 7.06842 20.4892 6.74278 20.3683 6.47763C20.2489 6.21082 20.0832 6.00947 19.8711 5.87358C19.659 5.73603 19.4145 5.66726 19.1378 5.66726C18.861 5.66726 18.6166 5.73603 18.4045 5.87358C18.1924 6.00947 18.0258 6.21082 17.9048 6.47763C17.7855 6.74278 17.7259 7.06842 17.7259 7.45455C17.7259 7.84067 17.7855 8.16714 17.9048 8.43395C18.0258 8.6991 18.1924 8.90045 18.4045 9.038C18.6166 9.17389 18.861 9.24183 19.1378 9.24183C19.4145 9.24183 19.659 9.17389 19.8711 9.038C20.0832 8.90045 20.2489 8.6991 20.3683 8.43395C20.4892 8.16714 20.5497 7.84067 20.5497 7.45455ZM23.0448 6.18182L23.8154 7.59126L24.5985 6.18182H25.5505L24.3996 8.09091L25.5704 10H24.6233L23.8154 8.62536L23.015 10H22.0605L23.2238 8.09091L22.0903 6.18182H23.0448ZM26.2465 11.4318V6.18182H27.1315V6.81321H27.1837C27.2301 6.72041 27.2955 6.6218 27.3801 6.5174C27.4646 6.41134 27.5789 6.32102 27.7231 6.24645C27.8673 6.17022 28.0512 6.1321 28.2749 6.1321C28.5699 6.1321 28.8359 6.2075 29.0729 6.35831C29.3115 6.50746 29.5004 6.72869 29.6396 7.02202C29.7805 7.31368 29.8509 7.67164 29.8509 8.09588C29.8509 8.51515 29.7822 8.87145 29.6446 9.16477C29.5071 9.4581 29.3198 9.68182 29.0828 9.83594C28.8459 9.99006 28.5774 10.0671 28.2774 10.0671C28.0587 10.0671 27.8772 10.0307 27.733 9.95774C27.5889 9.88482 27.4729 9.79699 27.385 9.69425C27.2989 9.58984 27.2317 9.49124 27.1837 9.39844H27.1464V11.4318H26.2465ZM27.129 8.09091C27.129 8.33783 27.1638 8.5541 27.2334 8.7397C27.3047 8.92531 27.4066 9.07031 27.5392 9.17472C27.6734 9.27746 27.8358 9.32884 28.0264 9.32884C28.2252 9.32884 28.3918 9.2758 28.526 9.16974C28.6602 9.06203 28.7613 8.91536 28.8293 8.72976C28.8989 8.5425 28.9337 8.32955 28.9337 8.09091C28.9337 7.85393 28.8997 7.64347 28.8318 7.45952C28.7638 7.27557 28.6627 7.13139 28.5285 7.02699C28.3943 6.92259 28.2269 6.87038 28.0264 6.87038C27.8341 6.87038 27.6709 6.92093 27.5367 7.02202C27.4024 7.12311 27.3005 7.2648 27.2309 7.44709C27.163 7.62938 27.129 7.84399 27.129 8.09091ZM31.7203 10.0771C31.4783 10.0771 31.2604 10.034 31.0665 9.9478C30.8743 9.85997 30.7218 9.73071 30.6091 9.56001C30.4981 9.38932 30.4426 9.17886 30.4426 8.92862C30.4426 8.71319 30.4823 8.53504 30.5619 8.39418C30.6414 8.25331 30.75 8.14062 30.8875 8.05611C31.0251 7.97159 31.18 7.90779 31.3524 7.8647C31.5264 7.81996 31.7062 7.78764 31.8918 7.76776C32.1155 7.74455 32.297 7.72384 32.4362 7.70561C32.5754 7.68572 32.6765 7.65589 32.7394 7.61612C32.8041 7.57469 32.8364 7.51089 32.8364 7.42472V7.4098C32.8364 7.22254 32.7809 7.07753 32.6698 6.97479C32.5588 6.87204 32.3989 6.82067 32.1901 6.82067C31.9697 6.82067 31.7948 6.86873 31.6656 6.96484C31.538 7.06096 31.4518 7.17448 31.407 7.3054L30.5669 7.18608C30.6331 6.95407 30.7425 6.76018 30.895 6.6044C31.0474 6.44697 31.2339 6.32931 31.4543 6.25142C31.6747 6.17188 31.9183 6.1321 32.1851 6.1321C32.3691 6.1321 32.5522 6.15365 32.7345 6.19673C32.9168 6.23982 33.0833 6.31108 33.2341 6.41051C33.3849 6.50829 33.5059 6.64169 33.597 6.81072C33.6898 6.97976 33.7362 7.19105 33.7362 7.4446V10H32.8712V9.4755H32.8414C32.7867 9.58156 32.7096 9.68099 32.6102 9.77379C32.5124 9.86494 32.3889 9.93868 32.2398 9.99503C32.0923 10.0497 31.9191 10.0771 31.7203 10.0771ZM31.9539 9.41584C32.1346 9.41584 32.2912 9.38021 32.4237 9.30895C32.5563 9.23603 32.6582 9.13991 32.7295 9.0206C32.8024 8.90128 32.8389 8.77119 32.8389 8.63033V8.1804C32.8107 8.2036 32.7626 8.22514 32.6947 8.24503C32.6284 8.26491 32.5538 8.28232 32.471 8.29723C32.3881 8.31214 32.3061 8.3254 32.2249 8.337C32.1437 8.3486 32.0732 8.35855 32.0136 8.36683C31.8794 8.38506 31.7592 8.41489 31.6531 8.45632C31.5471 8.49775 31.4634 8.55575 31.4021 8.63033C31.3408 8.70324 31.3101 8.7977 31.3101 8.91371C31.3101 9.07943 31.3706 9.20455 31.4916 9.28906C31.6125 9.37358 31.7667 9.41584 31.9539 9.41584ZM37.2636 7.71804V8.45632H35.2302V7.71804H37.2636ZM35.5086 6.18182V10H34.6411V6.18182H35.5086ZM37.8527 6.18182V10H36.9877V6.18182H37.8527ZM41.3857 7.71804V8.45632H39.3523V7.71804H41.3857ZM39.6307 6.18182V10H38.7631V6.18182H39.6307ZM41.9748 6.18182V10H41.1097V6.18182H41.9748ZM43.9839 10.0771C43.742 10.0771 43.5241 10.034 43.3302 9.9478C43.1379 9.85997 42.9855 9.73071 42.8728 9.56001C42.7617 9.38932 42.7062 9.17886 42.7062 8.92862C42.7062 8.71319 42.746 8.53504 42.8256 8.39418C42.9051 8.25331 43.0136 8.14062 43.1512 8.05611C43.2887 7.97159 43.4437 7.90779 43.616 7.8647C43.79 7.81996 43.9698 7.78764 44.1555 7.76776C44.3792 7.74455 44.5606 7.72384 44.6998 7.70561C44.839 7.68572 44.9401 7.65589 45.0031 7.61612C45.0677 7.57469 45.1001 7.51089 45.1001 7.42472V7.4098C45.1001 7.22254 45.0445 7.07753 44.9335 6.97479C44.8225 6.87204 44.6626 6.82067 44.4537 6.82067C44.2333 6.82067 44.0585 6.86873 43.9292 6.96484C43.8016 7.06096 43.7155 7.17448 43.6707 7.3054L42.8305 7.18608C42.8968 6.95407 43.0062 6.76018 43.1586 6.6044C43.3111 6.44697 43.4975 6.32931 43.718 6.25142C43.9384 6.17188 44.182 6.1321 44.4488 6.1321C44.6327 6.1321 44.8158 6.15365 44.9981 6.19673C45.1804 6.23982 45.347 6.31108 45.4978 6.41051C45.6486 6.50829 45.7696 6.64169 45.8607 6.81072C45.9535 6.97976 45.9999 7.19105 45.9999 7.4446V10H45.1349V9.4755H45.105C45.0503 9.58156 44.9733 9.68099 44.8738 9.77379C44.7761 9.86494 44.6526 9.93868 44.5035 9.99503C44.356 10.0497 44.1828 10.0771 43.9839 10.0771ZM44.2176 9.41584C44.3982 9.41584 44.5548 9.38021 44.6874 9.30895C44.82 9.23603 44.9219 9.13991 44.9932 9.0206C45.0661 8.90128 45.1025 8.77119 45.1025 8.63033V8.1804C45.0744 8.2036 45.0263 8.22514 44.9584 8.24503C44.8921 8.26491 44.8175 8.28232 44.7346 8.29723C44.6518 8.31214 44.5698 8.3254 44.4885 8.337C44.4073 8.3486 44.3369 8.35855 44.2773 8.36683C44.143 8.38506 44.0229 8.41489 43.9168 8.45632C43.8108 8.49775 43.7271 8.55575 43.6657 8.63033C43.6044 8.70324 43.5738 8.7977 43.5738 8.91371C43.5738 9.07943 43.6343 9.20455 43.7552 9.28906C43.8762 9.37358 44.0303 9.41584 44.2176 9.41584ZM49.1618 10V6.91264H48.3465C48.1394 6.91264 47.9803 6.9607 47.8692 7.05682C47.7582 7.15294 47.7035 7.27225 47.7052 7.41477C47.7035 7.55729 47.7557 7.67495 47.8618 7.76776C47.9678 7.86056 48.1195 7.90696 48.3167 7.90696H49.4452V8.56321H48.3167C48.0117 8.56321 47.7483 8.51515 47.5262 8.41903C47.3041 8.32292 47.1334 8.18703 47.0141 8.01136C46.8948 7.8357 46.8351 7.63021 46.8351 7.39489C46.8351 7.14962 46.8956 6.93667 47.0166 6.75604C47.1392 6.57375 47.3132 6.43288 47.5386 6.33345C47.7657 6.23236 48.0349 6.18182 48.3465 6.18182H50.0045V10H49.1618ZM46.6959 10L47.7623 8.04119H48.6498L47.5809 10H46.6959ZM52.6469 10V6.18182H55.871V10H55.0035V6.9201H53.507V10H52.6469ZM58.4618 10.0746C58.089 10.0746 57.7658 9.99254 57.4924 9.82848C57.2189 9.66442 57.0068 9.4349 56.856 9.13991C56.7069 8.84493 56.6323 8.50024 56.6323 8.10582C56.6323 7.71141 56.7069 7.36589 56.856 7.06925C57.0068 6.77261 57.2189 6.54226 57.4924 6.3782C57.7658 6.21413 58.089 6.1321 58.4618 6.1321C58.8347 6.1321 59.1578 6.21413 59.4313 6.3782C59.7047 6.54226 59.916 6.77261 60.0652 7.06925C60.216 7.36589 60.2914 7.71141 60.2914 8.10582C60.2914 8.50024 60.216 8.84493 60.0652 9.13991C59.916 9.4349 59.7047 9.66442 59.4313 9.82848C59.1578 9.99254 58.8347 10.0746 58.4618 10.0746ZM58.4668 9.35369C58.669 9.35369 58.838 9.29818 58.9739 9.18714C59.1098 9.07446 59.2109 8.92365 59.2772 8.73473C59.3451 8.54581 59.3791 8.33535 59.3791 8.10334C59.3791 7.86967 59.3451 7.65838 59.2772 7.46946C59.2109 7.27888 59.1098 7.12725 58.9739 7.01456C58.838 6.90187 58.669 6.84553 58.4668 6.84553C58.2596 6.84553 58.0873 6.90187 57.9498 7.01456C57.8139 7.12725 57.7119 7.27888 57.644 7.46946C57.5777 7.65838 57.5446 7.86967 57.5446 8.10334C57.5446 8.33535 57.5777 8.54581 57.644 8.73473C57.7119 8.92365 57.8139 9.07446 57.9498 9.18714C58.0873 9.29818 58.2596 9.35369 58.4668 9.35369ZM60.663 10L62.0724 8.02876L60.6754 6.18182H61.7145L62.8008 7.72053H63.0146V6.18182H63.9144V7.72053H64.1232L65.2095 6.18182H66.2486L64.859 8.02876L66.261 10H65.1996L64.1133 8.45881H63.9144V10H63.0146V8.45881H62.8157L61.7244 10H60.663ZM68.0191 10.0771C67.7771 10.0771 67.5592 10.034 67.3653 9.9478C67.1731 9.85997 67.0206 9.73071 66.9079 9.56001C66.7969 9.38932 66.7414 9.17886 66.7414 8.92862C66.7414 8.71319 66.7812 8.53504 66.8607 8.39418C66.9403 8.25331 67.0488 8.14062 67.1863 8.05611C67.3239 7.97159 67.4788 7.90779 67.6512 7.8647C67.8252 7.81996 68.005 7.78764 68.1906 7.76776C68.4143 7.74455 68.5958 7.72384 68.735 7.70561C68.8742 7.68572 68.9753 7.65589 69.0383 7.61612C69.1029 7.57469 69.1352 7.51089 69.1352 7.42472V7.4098C69.1352 7.22254 69.0797 7.07753 68.9687 6.97479C68.8576 6.87204 68.6977 6.82067 68.4889 6.82067C68.2685 6.82067 68.0937 6.86873 67.9644 6.96484C67.8368 7.06096 67.7506 7.17448 67.7059 7.3054L66.8657 7.18608C66.932 6.95407 67.0413 6.76018 67.1938 6.6044C67.3463 6.44697 67.5327 6.32931 67.7531 6.25142C67.9735 6.17188 68.2171 6.1321 68.4839 6.1321C68.6679 6.1321 68.851 6.15365 69.0333 6.19673C69.2156 6.23982 69.3821 6.31108 69.5329 6.41051C69.6837 6.50829 69.8047 6.64169 69.8959 6.81072C69.9887 6.97976 70.0351 7.19105 70.0351 7.4446V10H69.17V9.4755H69.1402C69.0855 9.58156 69.0084 9.68099 68.909 9.77379C68.8112 9.86494 68.6878 9.93868 68.5386 9.99503C68.3911 10.0497 68.218 10.0771 68.0191 10.0771ZM68.2528 9.41584C68.4334 9.41584 68.59 9.38021 68.7226 9.30895C68.8551 9.23603 68.9571 9.13991 69.0283 9.0206C69.1012 8.90128 69.1377 8.77119 69.1377 8.63033V8.1804C69.1095 8.2036 69.0615 8.22514 68.9935 8.24503C68.9272 8.26491 68.8527 8.28232 68.7698 8.29723C68.6869 8.31214 68.6049 8.3254 68.5237 8.337C68.4425 8.3486 68.3721 8.35855 68.3124 8.36683C68.1782 8.38506 68.058 8.41489 67.952 8.45632C67.8459 8.49775 67.7622 8.55575 67.7009 8.63033C67.6396 8.70324 67.6089 8.7977 67.6089 8.91371C67.6089 9.07943 67.6694 9.20455 67.7904 9.28906C67.9114 9.37358 68.0655 9.41584 68.2528 9.41584ZM70.9399 11.4318V6.18182H71.8248V6.81321H71.877C71.9234 6.72041 71.9889 6.6218 72.0734 6.5174C72.1579 6.41134 72.2723 6.32102 72.4165 6.24645C72.5606 6.17022 72.7446 6.1321 72.9683 6.1321C73.2633 6.1321 73.5293 6.2075 73.7662 6.35831C74.0049 6.50746 74.1938 6.72869 74.333 7.02202C74.4739 7.31368 74.5443 7.67164 74.5443 8.09588C74.5443 8.51515 74.4755 8.87145 74.338 9.16477C74.2004 9.4581 74.0132 9.68182 73.7762 9.83594C73.5392 9.99006 73.2707 10.0671 72.9708 10.0671C72.752 10.0671 72.5706 10.0307 72.4264 9.95774C72.2822 9.88482 72.1662 9.79699 72.0784 9.69425C71.9922 9.58984 71.9251 9.49124 71.877 9.39844H71.8398V11.4318H70.9399ZM71.8224 8.09091C71.8224 8.33783 71.8572 8.5541 71.9268 8.7397C71.998 8.92531 72.0999 9.07031 72.2325 9.17472C72.3667 9.27746 72.5291 9.32884 72.7197 9.32884C72.9186 9.32884 73.0851 9.2758 73.2194 9.16974C73.3536 9.06203 73.4547 8.91536 73.5226 8.72976C73.5922 8.5425 73.627 8.32955 73.627 8.09091C73.627 7.85393 73.5931 7.64347 73.5251 7.45952C73.4572 7.27557 73.3561 7.13139 73.2219 7.02699C73.0876 6.92259 72.9202 6.87038 72.7197 6.87038C72.5275 6.87038 72.3643 6.92093 72.23 7.02202C72.0958 7.12311 71.9939 7.2648 71.9243 7.44709C71.8563 7.62938 71.8224 7.84399 71.8224 8.09091ZM77.9374 7.71804V8.45632H75.904V7.71804H77.9374ZM76.1824 6.18182V10H75.3149V6.18182H76.1824ZM78.5265 6.18182V10H77.6615V6.18182H78.5265ZM80.5357 10.0771C80.2937 10.0771 80.0758 10.034 79.8819 9.9478C79.6897 9.85997 79.5372 9.73071 79.4245 9.56001C79.3135 9.38932 79.258 9.17886 79.258 8.92862C79.258 8.71319 79.2978 8.53504 79.3773 8.39418C79.4569 8.25331 79.5654 8.14062 79.7029 8.05611C79.8405 7.97159 79.9954 7.90779 80.1678 7.8647C80.3418 7.81996 80.5216 7.78764 80.7072 7.76776C80.9309 7.74455 81.1124 7.72384 81.2516 7.70561C81.3908 7.68572 81.4919 7.65589 81.5549 7.61612C81.6195 7.57469 81.6518 7.51089 81.6518 7.42472V7.4098C81.6518 7.22254 81.5963 7.07753 81.4853 6.97479C81.3742 6.87204 81.2143 6.82067 81.0055 6.82067C80.7851 6.82067 80.6103 6.86873 80.481 6.96484C80.3534 7.06096 80.2672 7.17448 80.2225 7.3054L79.3823 7.18608C79.4486 6.95407 79.5579 6.76018 79.7104 6.6044C79.8629 6.44697 80.0493 6.32931 80.2697 6.25142C80.4901 6.17188 80.7337 6.1321 81.0005 6.1321C81.1845 6.1321 81.3676 6.15365 81.5499 6.19673C81.7322 6.23982 81.8987 6.31108 82.0495 6.41051C82.2003 6.50829 82.3213 6.64169 82.4125 6.81072C82.5053 6.97976 82.5517 7.19105 82.5517 7.4446V10H81.6866V9.4755H81.6568C81.6021 9.58156 81.525 9.68099 81.4256 9.77379C81.3278 9.86494 81.2044 9.93868 81.0552 9.99503C80.9077 10.0497 80.7346 10.0771 80.5357 10.0771ZM80.7694 9.41584C80.95 9.41584 81.1066 9.38021 81.2392 9.30895C81.3717 9.23603 81.4737 9.13991 81.5449 9.0206C81.6178 8.90128 81.6543 8.77119 81.6543 8.63033V8.1804C81.6261 8.2036 81.5781 8.22514 81.5101 8.24503C81.4438 8.26491 81.3693 8.28232 81.2864 8.29723C81.2035 8.31214 81.1215 8.3254 81.0403 8.337C80.9591 8.3486 80.8887 8.35855 80.829 8.36683C80.6948 8.38506 80.5746 8.41489 80.4686 8.45632C80.3625 8.49775 80.2788 8.55575 80.2175 8.63033C80.1562 8.70324 80.1255 8.7977 80.1255 8.91371C80.1255 9.07943 80.186 9.20455 80.307 9.28906C80.428 9.37358 80.5821 9.41584 80.7694 9.41584ZM85.7136 10V6.91264H84.8983C84.6911 6.91264 84.532 6.9607 84.421 7.05682C84.31 7.15294 84.2553 7.27225 84.2569 7.41477C84.2553 7.55729 84.3075 7.67495 84.4135 7.76776C84.5196 7.86056 84.6712 7.90696 84.8684 7.90696H85.997V8.56321H84.8684C84.5635 8.56321 84.3 8.51515 84.0779 8.41903C83.8559 8.32292 83.6852 8.18703 83.5659 8.01136C83.4466 7.8357 83.3869 7.63021 83.3869 7.39489C83.3869 7.14962 83.4474 6.93667 83.5684 6.75604C83.691 6.57375 83.865 6.43288 84.0904 6.33345C84.3174 6.23236 84.5867 6.18182 84.8983 6.18182H86.5563V10H85.7136ZM83.2477 10L84.3141 8.04119H85.2015L84.1326 10H83.2477ZM40.5858 18.0746C40.2047 18.0746 39.8774 17.9909 39.604 17.8235C39.3322 17.6561 39.1225 17.425 38.9751 17.13C38.8292 16.8333 38.7563 16.492 38.7563 16.1058C38.7563 15.718 38.8309 15.3758 38.98 15.0792C39.1292 14.7809 39.3396 14.5489 39.6114 14.3832C39.8849 14.2158 40.208 14.1321 40.5809 14.1321C40.8908 14.1321 41.165 14.1893 41.4037 14.3036C41.644 14.4163 41.8354 14.5762 41.9779 14.7834C42.1204 14.9889 42.2016 15.2292 42.2215 15.5043H41.3614C41.3266 15.3203 41.2438 15.167 41.1128 15.0444C40.9836 14.9201 40.8104 14.858 40.5933 14.858C40.4094 14.858 40.2478 14.9077 40.1086 15.0071C39.9694 15.1049 39.8608 15.2457 39.7829 15.4297C39.7067 15.6136 39.6686 15.834 39.6686 16.0909C39.6686 16.3511 39.7067 16.5748 39.7829 16.7621C39.8592 16.9477 39.9661 17.091 40.1036 17.1921C40.2428 17.2915 40.406 17.3413 40.5933 17.3413C40.7259 17.3413 40.8444 17.3164 40.9488 17.2667C41.0548 17.2153 41.1435 17.1416 41.2148 17.0455C41.286 16.9493 41.3349 16.8325 41.3614 16.695H42.2215C42.2 16.9651 42.1204 17.2045 41.9829 17.4134C41.8453 17.6205 41.6581 17.7829 41.4211 17.9006C41.1841 18.0166 40.9057 18.0746 40.5858 18.0746ZM43.8279 16.782L45.3567 14.1818H46.2814V18H45.4114V15.3974L43.8876 18H42.9604V14.1818H43.8279V16.782ZM49.7311 14.1818V14.9201H48.0855V18H47.2055V14.1818H49.7311ZM53.0751 15.718V16.4563H51.0417V15.718H53.0751ZM51.3201 14.1818V18H50.4526V14.1818H51.3201ZM53.6642 14.1818V18H52.7992V14.1818H53.6642ZM55.6734 18.0771C55.4314 18.0771 55.2135 18.034 55.0196 17.9478C54.8274 17.86 54.6749 17.7307 54.5622 17.56C54.4512 17.3893 54.3957 17.1789 54.3957 16.9286C54.3957 16.7132 54.4355 16.535 54.515 16.3942C54.5945 16.2533 54.7031 16.1406 54.8406 16.0561C54.9782 15.9716 55.1331 15.9078 55.3055 15.8647C55.4795 15.82 55.6593 15.7876 55.8449 15.7678C56.0686 15.7446 56.2501 15.7238 56.3893 15.7056C56.5285 15.6857 56.6296 15.6559 56.6926 15.6161C56.7572 15.5747 56.7895 15.5109 56.7895 15.4247V15.4098C56.7895 15.2225 56.734 15.0775 56.623 14.9748C56.5119 14.872 56.352 14.8207 56.1432 14.8207C55.9228 14.8207 55.748 14.8687 55.6187 14.9648C55.4911 15.061 55.4049 15.1745 55.3602 15.3054L54.52 15.1861C54.5863 14.9541 54.6956 14.7602 54.8481 14.6044C55.0006 14.447 55.187 14.3293 55.4074 14.2514C55.6278 14.1719 55.8714 14.1321 56.1382 14.1321C56.3222 14.1321 56.5053 14.1536 56.6876 14.1967C56.8699 14.2398 57.0364 14.3111 57.1872 14.4105C57.338 14.5083 57.459 14.6417 57.5502 14.8107C57.643 14.9798 57.6894 15.1911 57.6894 15.4446V18H56.8243V17.4755H56.7945C56.7398 17.5816 56.6627 17.681 56.5633 17.7738C56.4655 17.8649 56.3421 17.9387 56.1929 17.995C56.0454 18.0497 55.8722 18.0771 55.6734 18.0771ZM55.907 17.4158C56.0877 17.4158 56.2443 17.3802 56.3769 17.3089C56.5094 17.236 56.6114 17.1399 56.6826 17.0206C56.7555 16.9013 56.792 16.7712 56.792 16.6303V16.1804C56.7638 16.2036 56.7158 16.2251 56.6478 16.245C56.5815 16.2649 56.507 16.2823 56.4241 16.2972C56.3412 16.3121 56.2592 16.3254 56.178 16.337C56.0968 16.3486 56.0264 16.3585 55.9667 16.3668C55.8325 16.3851 55.7123 16.4149 55.6063 16.4563C55.5002 16.4978 55.4165 16.5558 55.3552 16.6303C55.2939 16.7032 55.2632 16.7977 55.2632 16.9137C55.2632 17.0794 55.3237 17.2045 55.4447 17.2891C55.5657 17.3736 55.7198 17.4158 55.907 17.4158ZM58.3307 18L58.3257 17.2592H58.4575C58.5569 17.2592 58.6406 17.2369 58.7085 17.1921C58.7765 17.1474 58.8328 17.0728 58.8776 16.9684C58.9223 16.8623 58.9571 16.7198 58.982 16.5408C59.0068 16.3619 59.0242 16.139 59.0342 15.8722L59.1013 14.1818H61.8854V18H61.0154V14.9201H59.9191L59.8595 16.1506C59.8445 16.4687 59.8089 16.7447 59.7526 16.9783C59.6979 17.2103 59.62 17.4018 59.5189 17.5526C59.4195 17.7034 59.2944 17.8161 59.1436 17.8906C58.9927 17.9635 58.8146 18 58.6091 18H58.3307ZM63.659 16.782L65.1878 14.1818H66.1125V18H65.2425V15.3974L63.7187 18H62.7915V14.1818H63.659V16.782ZM66.8253 16.9535H67.7177C67.726 17.096 67.7898 17.2062 67.9091 17.2841C68.0284 17.362 68.1834 17.4009 68.3739 17.4009C68.5678 17.4009 68.7311 17.3587 68.8636 17.2741C68.9979 17.188 69.065 17.0579 69.065 16.8839C69.065 16.7811 69.0393 16.6908 68.9879 16.6129C68.9366 16.5334 68.8645 16.4721 68.7717 16.429C68.6789 16.3859 68.5695 16.3643 68.4435 16.3643H67.8594V15.7255H68.4435C68.6308 15.7255 68.7725 15.6824 68.8686 15.5962C68.9664 15.5101 69.0153 15.4015 69.0153 15.2706C69.0153 15.1297 68.9639 15.0154 68.8612 14.9276C68.7601 14.8397 68.62 14.7958 68.4411 14.7958C68.2621 14.7958 68.1129 14.8364 67.9936 14.9176C67.8759 14.9988 67.8146 15.1032 67.8097 15.2308H66.9222C66.9255 15.0088 66.9918 14.8157 67.1211 14.6516C67.252 14.4876 67.4277 14.36 67.6481 14.2688C67.8701 14.1777 68.1204 14.1321 68.3988 14.1321C68.6971 14.1321 68.9548 14.1768 69.1719 14.2663C69.389 14.3558 69.5563 14.4809 69.674 14.6417C69.7917 14.8008 69.8505 14.988 69.8505 15.2035C69.8505 15.4106 69.7859 15.5821 69.6566 15.718C69.5273 15.8523 69.3533 15.9484 69.1346 16.0064V16.0462C69.2854 16.0545 69.4213 16.0975 69.5423 16.1754C69.6632 16.2517 69.7594 16.3552 69.8306 16.4862C69.9019 16.6171 69.9375 16.7687 69.9375 16.9411C69.9375 17.1747 69.8704 17.3769 69.7362 17.5476C69.6019 17.7166 69.4171 17.8467 69.1818 17.9379C68.9482 18.029 68.6805 18.0746 68.3789 18.0746C68.0856 18.0746 67.8229 18.0307 67.5909 17.9428C67.3606 17.8533 67.1774 17.7249 67.0415 17.5575C66.9057 17.3902 66.8336 17.1888 66.8253 16.9535ZM71.7447 18.0771C71.5027 18.0771 71.2848 18.034 71.0909 17.9478C70.8987 17.86 70.7462 17.7307 70.6335 17.56C70.5225 17.3893 70.467 17.1789 70.467 16.9286C70.467 16.7132 70.5067 16.535 70.5863 16.3942C70.6658 16.2533 70.7744 16.1406 70.9119 16.0561C71.0495 15.9716 71.2044 15.9078 71.3768 15.8647C71.5508 15.82 71.7306 15.7876 71.9162 15.7678C72.1399 15.7446 72.3214 15.7238 72.4606 15.7056C72.5998 15.6857 72.7009 15.6559 72.7638 15.6161C72.8285 15.5747 72.8608 15.5109 72.8608 15.4247V15.4098C72.8608 15.2225 72.8053 15.0775 72.6942 14.9748C72.5832 14.872 72.4233 14.8207 72.2145 14.8207C71.9941 14.8207 71.8192 14.8687 71.69 14.9648C71.5624 15.061 71.4762 15.1745 71.4315 15.3054L70.5913 15.1861C70.6576 14.9541 70.7669 14.7602 70.9194 14.6044C71.0719 14.447 71.2583 14.3293 71.4787 14.2514C71.6991 14.1719 71.9427 14.1321 72.2095 14.1321C72.3935 14.1321 72.5766 14.1536 72.7589 14.1967C72.9412 14.2398 73.1077 14.3111 73.2585 14.4105C73.4093 14.5083 73.5303 14.6417 73.6214 14.8107C73.7143 14.9798 73.7607 15.1911 73.7607 15.4446V18H72.8956V17.4755H72.8658C72.8111 17.5816 72.734 17.681 72.6346 17.7738C72.5368 17.8649 72.4134 17.9387 72.2642 17.995C72.1167 18.0497 71.9435 18.0771 71.7447 18.0771ZM71.9783 17.4158C72.159 17.4158 72.3156 17.3802 72.4482 17.3089C72.5807 17.236 72.6826 17.1399 72.7539 17.0206C72.8268 16.9013 72.8633 16.7712 72.8633 16.6303V16.1804C72.8351 16.2036 72.7871 16.2251 72.7191 16.245C72.6528 16.2649 72.5782 16.2823 72.4954 16.2972C72.4125 16.3121 72.3305 16.3254 72.2493 16.337C72.1681 16.3486 72.0977 16.3585 72.038 16.3668C71.9038 16.3851 71.7836 16.4149 71.6776 16.4563C71.5715 16.4978 71.4878 16.5558 71.4265 16.6303C71.3652 16.7032 71.3345 16.7977 71.3345 16.9137C71.3345 17.0794 71.395 17.2045 71.516 17.2891C71.637 17.3736 71.7911 17.4158 71.9783 17.4158ZM77.8896 14.1818V17.3288H78.4737V19.228H77.5938V18H74.6655V14.1818H75.533V17.2617H77.0295V14.1818H77.8896ZM80.0789 16.782L81.6077 14.1818H82.5324V18H81.6624V15.3974L80.1386 18H79.2114V14.1818H80.0789V16.782ZM85.7136 18V14.9126H84.8983C84.6911 14.9126 84.532 14.9607 84.421 15.0568C84.31 15.1529 84.2553 15.2723 84.2569 15.4148C84.2553 15.5573 84.3075 15.675 84.4135 15.7678C84.5196 15.8606 84.6712 15.907 84.8684 15.907H85.997V16.5632H84.8684C84.5635 16.5632 84.3 16.5152 84.0779 16.419C83.8559 16.3229 83.6852 16.187 83.5659 16.0114C83.4466 15.8357 83.3869 15.6302 83.3869 15.3949C83.3869 15.1496 83.4474 14.9367 83.5684 14.756C83.691 14.5737 83.865 14.4329 84.0904 14.3335C84.3174 14.2324 84.5867 14.1818 84.8983 14.1818H86.5563V18H85.7136ZM83.2477 18L84.3141 16.0412H85.2015L84.1326 18H83.2477Z" fill="black"/>
<path d="M17.6137 15.9312H18.2274V16.4979C18.2274 16.6032 18.2073 16.6923 18.157 16.7732C18.1067 16.8461 18.0363 16.9028 17.9457 16.9433C17.8552 16.9838 17.7445 17 17.6137 17C17.4829 17 17.3722 16.9838 17.2817 16.9433C17.1912 16.9028 17.1207 16.8542 17.0704 16.7813C17.0201 16.7085 17 16.6275 17 16.5222V15.502C17 15.3968 17.0201 15.3077 17.0704 15.2267C17.1207 15.1538 17.1912 15.0972 17.2817 15.0567C17.3722 15.0162 17.4829 15 17.6137 15C17.7445 15 17.8451 15.0162 17.9356 15.0567C18.0262 15.0972 18.0966 15.1538 18.1368 15.2267C18.1871 15.2996 18.2073 15.3887 18.2073 15.4939V15.5911H17.8954V15.4939C17.8954 15.4048 17.8753 15.3401 17.825 15.2915C17.7747 15.2429 17.7042 15.2186 17.6137 15.2186C17.5131 15.2186 17.4326 15.2429 17.3823 15.2915C17.332 15.3401 17.3018 15.413 17.3018 15.502V16.5222C17.3018 16.6032 17.332 16.668 17.3924 16.7085C17.4527 16.757 17.5332 16.7732 17.6338 16.7732C17.7344 16.7732 17.8149 16.749 17.8652 16.7004C17.9256 16.6518 17.9457 16.5789 17.9457 16.4979V16.1336H17.6238V15.9231L17.6137 15.9312Z" fill="#3C3C3B"/>
<path d="M18.5386 16.9834V15.0239H18.8002L19.5447 16.5786L19.4944 16.6109V15.0239H19.7761V16.9834H19.5044L18.76 15.4531L18.8103 15.4207V16.9834H18.5286H18.5386Z" fill="#3C3C3B"/>
<path d="M20.1392 16.9834V15.0239H20.4309V16.9834H20.1392ZM20.3102 16.9834V16.7729H20.8535C20.9138 16.7729 20.9641 16.7567 20.9943 16.7324C21.0245 16.7081 21.0446 16.6676 21.0446 16.6109V15.3964C21.0446 15.3478 21.0245 15.3073 20.9943 15.2749C20.9641 15.2507 20.9138 15.2345 20.8535 15.2345H20.3102V15.0239H20.8434C21.0044 15.0239 21.1251 15.0563 21.2056 15.1211C21.2861 15.1859 21.3364 15.283 21.3364 15.4045V16.6028C21.3364 16.6838 21.3163 16.7486 21.276 16.8134C21.2358 16.87 21.1855 16.9105 21.105 16.9429C21.0346 16.9753 20.944 16.9834 20.8333 16.9834H20.3001H20.3102Z" fill="#3C3C3B"/>
</svg>
