<svg width="92" height="25" viewBox="0 0 92 25" fill="none" xmlns="http://www.w3.org/2000/svg">
<rect x="0.5" y="0.5" width="91" height="24" rx="1.5" fill="#F0F0F0" stroke="black"/>
<path d="M89.5071 5.89136L80.8029 5.89136L80.803 19.1133L89.5071 19.1133" fill="#AFD5A9"/>
<path d="M89.5071 5.89136L80.8029 5.89136L80.803 19.1133L89.5071 19.1133" stroke="#212830" stroke-width="0.25" stroke-miterlimit="10"/>
<path d="M91.1526 19.1133L91.1526 5.89136L89.5161 5.89136L89.5161 19.1133L91.1526 19.1133Z" fill="#5EB34A" stroke="#1D1D1B" stroke-width="0.25" stroke-miterlimit="10"/>
<path d="M80.8032 19.1133L80.8032 5.89136L77.0084 5.89136L77.0084 19.1133L80.8032 19.1133Z" fill="#5EB34A" stroke="#1D1D1B" stroke-width="0.25" stroke-miterlimit="10"/>
<path d="M76.9999 7.96045L79.8394 7.96045L79.8394 10.5061L76.9999 10.5061L76.9999 14.5325L79.8394 14.5325L79.8394 17.0781L76.9999 17.0781" fill="#0C9B47"/>
<path d="M76.9999 7.96045L79.8394 7.96045L79.8394 10.5061L76.9999 10.5061L76.9999 14.5325L79.8394 14.5325L79.8394 17.0781L76.9999 17.0781" stroke="#212830" stroke-width="0.25" stroke-miterlimit="10"/>
<path d="M85.1998 13.2421L84.7133 13.2854L84.2356 13.4412L83.8376 13.6317L83.4395 13.9434L83.1211 14.3417L82.9176 14.7314L82.7584 15.199L82.7142 15.6665L82.7584 16.1341L82.9176 16.6103L83.1211 17L83.4395 17.3896L83.8376 17.7013L84.2356 17.9005L84.7133 18.0564L85.1998 18.091L85.6775 18.0564L86.1551 17.9005L86.5532 17.7013L86.9513 17.3896L87.2697 17L87.4732 16.6103L87.6324 16.1341L87.6766 15.6665L87.6324 15.199L87.4732 14.7314L87.2697 14.3417L86.9513 13.9434L86.5532 13.6317L86.1551 13.4412L85.6775 13.2854L85.1998 13.2421Z" fill="#C8C8CA"/>
<path d="M83.4215 17.4071L86.9775 13.9696M85.1998 13.2421L84.7133 13.2854L84.2356 13.4412L83.8376 13.6317L83.4395 13.9434L83.1211 14.3417L82.9176 14.7314L82.7584 15.199L82.7142 15.6665L82.7584 16.1341L82.9176 16.6103L83.1211 17L83.4395 17.3896L83.8376 17.7013L84.2356 17.9005L84.7133 18.0564L85.1998 18.091L85.6775 18.0564L86.1551 17.9005L86.5532 17.7013L86.9513 17.3896L87.2697 17L87.4732 16.6103L87.6324 16.1341L87.6766 15.6665L87.6324 15.199L87.4732 14.7314L87.2697 14.3417L86.9513 13.9434L86.5532 13.6317L86.1551 13.4412L85.6775 13.2854L85.1998 13.2421Z" stroke="#212830" stroke-width="0.25" stroke-miterlimit="10"/>
<path d="M85.1556 7.13726L84.6779 7.18055L84.2003 7.33641L83.7934 7.53556L83.3953 7.84728L83.0769 8.23693L82.8823 8.62657L82.7142 9.09414L82.6788 9.57037L82.7142 10.0379L82.8823 10.5055L83.0769 10.8952L83.3953 11.2848L83.7934 11.5965L84.2003 11.7957L84.6779 11.9515L85.1556 11.9948L85.6333 11.9515L86.1109 11.7957L86.5178 11.5965L86.9159 11.2848L87.2343 10.8952L87.4289 10.5055L87.597 10.0379L87.6324 9.57037L87.597 9.09414L87.4289 8.62657L87.2343 8.23692L86.9159 7.84728L86.5178 7.53556L86.1109 7.33641L85.6333 7.18055L85.1556 7.13726Z" fill="#C8C8CA"/>
<path class="DI-IN" d="M83.3775 11.3109L86.9335 7.87334M85.1556 7.13726L84.6779 7.18055L84.2003 7.33641L83.7934 7.53556L83.3953 7.84728L83.0769 8.23693L82.8823 8.62657L82.7142 9.09414L82.6788 9.57037L82.7142 10.0379L82.8823 10.5055L83.0769 10.8952L83.3953 11.2848L83.7934 11.5965L84.2003 11.7957L84.6779 11.9515L85.1556 11.9948L85.6333 11.9515L86.1109 11.7957L86.5178 11.5965L86.9159 11.2848L87.2343 10.8952L87.4289 10.5055L87.597 10.0379L87.6324 9.57037L87.597 9.09414L87.4289 8.62657L87.2343 8.23692L86.9159 7.84728L86.5178 7.53556L86.1109 7.33641L85.6333 7.18055L85.1556 7.13726Z" stroke="#212830" stroke-width="0.25" stroke-miterlimit="10"/>
<path d="M10.0511 7.45455C10.0511 8.00308 9.94839 8.47289 9.7429 8.86399C9.53906 9.25343 9.26065 9.55173 8.90767 9.75888C8.55634 9.96603 8.15779 10.0696 7.712 10.0696C7.26622 10.0696 6.86683 9.96603 6.51385 9.75888C6.16252 9.55007 5.88411 9.25095 5.67862 8.86151C5.47479 8.47041 5.37287 8.00142 5.37287 7.45455C5.37287 6.90601 5.47479 6.43703 5.67862 6.04759C5.88411 5.65649 6.16252 5.35736 6.51385 5.15021C6.86683 4.94306 7.26622 4.83949 7.712 4.83949C8.15779 4.83949 8.55634 4.94306 8.90767 5.15021C9.26065 5.35736 9.53906 5.65649 9.7429 6.04759C9.94839 6.43703 10.0511 6.90601 10.0511 7.45455ZM9.12393 7.45455C9.12393 7.06842 9.06345 6.74278 8.94247 6.47763C8.82315 6.21082 8.65743 6.00947 8.44531 5.87358C8.23319 5.73603 7.98875 5.66726 7.712 5.66726C7.43525 5.66726 7.19081 5.73603 6.97869 5.87358C6.76657 6.00947 6.60002 6.21082 6.47905 6.47763C6.35973 6.74278 6.30007 7.06842 6.30007 7.45455C6.30007 7.84067 6.35973 8.16714 6.47905 8.43395C6.60002 8.6991 6.76657 8.90045 6.97869 9.038C7.19081 9.17389 7.43525 9.24183 7.712 9.24183C7.98875 9.24183 8.23319 9.17389 8.44531 9.038C8.65743 8.90045 8.82315 8.6991 8.94247 8.43395C9.06345 8.16714 9.12393 7.84067 9.12393 7.45455ZM11.6191 6.18182L12.3896 7.59126L13.1727 6.18182H14.1247L12.9738 8.09091L14.1446 10H13.1975L12.3896 8.62536L11.5892 10H10.6347L11.798 8.09091L10.6645 6.18182H11.6191ZM14.8208 11.4318V6.18182H15.7057V6.81321H15.7579C15.8043 6.72041 15.8698 6.6218 15.9543 6.5174C16.0388 6.41134 16.1531 6.32102 16.2973 6.24645C16.4415 6.17022 16.6254 6.1321 16.8492 6.1321C17.1441 6.1321 17.4101 6.2075 17.6471 6.35831C17.8857 6.50746 18.0747 6.72869 18.2139 7.02202C18.3547 7.31368 18.4252 7.67164 18.4252 8.09588C18.4252 8.51515 18.3564 8.87145 18.2188 9.16477C18.0813 9.4581 17.894 9.68182 17.657 9.83594C17.4201 9.99006 17.1516 10.0671 16.8517 10.0671C16.6329 10.0671 16.4514 10.0307 16.3073 9.95774C16.1631 9.88482 16.0471 9.79699 15.9593 9.69425C15.8731 9.58984 15.806 9.49124 15.7579 9.39844H15.7206V11.4318H14.8208ZM15.7032 8.09091C15.7032 8.33783 15.738 8.5541 15.8076 8.7397C15.8789 8.92531 15.9808 9.07031 16.1134 9.17472C16.2476 9.27746 16.41 9.32884 16.6006 9.32884C16.7994 9.32884 16.966 9.2758 17.1002 9.16974C17.2345 9.06203 17.3356 8.91536 17.4035 8.72976C17.4731 8.5425 17.5079 8.32955 17.5079 8.09091C17.5079 7.85393 17.4739 7.64347 17.406 7.45952C17.338 7.27557 17.2369 7.13139 17.1027 7.02699C16.9685 6.92259 16.8011 6.87038 16.6006 6.87038C16.4084 6.87038 16.2451 6.92093 16.1109 7.02202C15.9767 7.12311 15.8747 7.2648 15.8051 7.44709C15.7372 7.62938 15.7032 7.84399 15.7032 8.09091ZM20.2945 10.0771C20.0525 10.0771 19.8346 10.034 19.6407 9.9478C19.4485 9.85997 19.296 9.73071 19.1833 9.56001C19.0723 9.38932 19.0168 9.17886 19.0168 8.92862C19.0168 8.71319 19.0566 8.53504 19.1361 8.39418C19.2156 8.25331 19.3242 8.14062 19.4617 8.05611C19.5993 7.97159 19.7542 7.90779 19.9266 7.8647C20.1006 7.81996 20.2804 7.78764 20.466 7.76776C20.6897 7.74455 20.8712 7.72384 21.0104 7.70561C21.1496 7.68572 21.2507 7.65589 21.3137 7.61612C21.3783 7.57469 21.4106 7.51089 21.4106 7.42472V7.4098C21.4106 7.22254 21.3551 7.07753 21.2441 6.97479C21.133 6.87204 20.9731 6.82067 20.7643 6.82067C20.5439 6.82067 20.3691 6.86873 20.2398 6.96484C20.1122 7.06096 20.026 7.17448 19.9813 7.3054L19.1411 7.18608C19.2074 6.95407 19.3167 6.76018 19.4692 6.6044C19.6217 6.44697 19.8081 6.32931 20.0285 6.25142C20.2489 6.17188 20.4925 6.1321 20.7593 6.1321C20.9433 6.1321 21.1264 6.15365 21.3087 6.19673C21.491 6.23982 21.6575 6.31108 21.8083 6.41051C21.9591 6.50829 22.0801 6.64169 22.1713 6.81072C22.2641 6.97976 22.3105 7.19105 22.3105 7.4446V10H21.4454V9.4755H21.4156C21.3609 9.58156 21.2838 9.68099 21.1844 9.77379C21.0866 9.86494 20.9632 9.93868 20.814 9.99503C20.6665 10.0497 20.4933 10.0771 20.2945 10.0771ZM20.5281 9.41584C20.7088 9.41584 20.8654 9.38021 20.998 9.30895C21.1305 9.23603 21.2325 9.13991 21.3037 9.0206C21.3766 8.90128 21.4131 8.77119 21.4131 8.63033V8.1804C21.3849 8.2036 21.3369 8.22514 21.2689 8.24503C21.2026 8.26491 21.128 8.28232 21.0452 8.29723C20.9623 8.31214 20.8803 8.3254 20.7991 8.337C20.7179 8.3486 20.6475 8.35855 20.5878 8.36683C20.4536 8.38506 20.3334 8.41489 20.2274 8.45632C20.1213 8.49775 20.0376 8.55575 19.9763 8.63033C19.915 8.70324 19.8843 8.7977 19.8843 8.91371C19.8843 9.07943 19.9448 9.20455 20.0658 9.28906C20.1868 9.37358 20.3409 9.41584 20.5281 9.41584ZM25.8378 7.71804V8.45632H23.8044V7.71804H25.8378ZM24.0828 6.18182V10H23.2153V6.18182H24.0828ZM26.4269 6.18182V10H25.5619V6.18182H26.4269ZM29.9599 7.71804V8.45632H27.9265V7.71804H29.9599ZM28.2049 6.18182V10H27.3374V6.18182H28.2049ZM30.549 6.18182V10H29.6839V6.18182H30.549ZM32.5581 10.0771C32.3162 10.0771 32.0983 10.034 31.9044 9.9478C31.7122 9.85997 31.5597 9.73071 31.447 9.56001C31.336 9.38932 31.2805 9.17886 31.2805 8.92862C31.2805 8.71319 31.3202 8.53504 31.3998 8.39418C31.4793 8.25331 31.5879 8.14062 31.7254 8.05611C31.863 7.97159 32.0179 7.90779 32.1903 7.8647C32.3643 7.81996 32.5441 7.78764 32.7297 7.76776C32.9534 7.74455 33.1349 7.72384 33.2741 7.70561C33.4133 7.68572 33.5144 7.65589 33.5773 7.61612C33.642 7.57469 33.6743 7.51089 33.6743 7.42472V7.4098C33.6743 7.22254 33.6188 7.07753 33.5077 6.97479C33.3967 6.87204 33.2368 6.82067 33.028 6.82067C32.8076 6.82067 32.6327 6.86873 32.5035 6.96484C32.3759 7.06096 32.2897 7.17448 32.2449 7.3054L31.4047 7.18608C31.471 6.95407 31.5804 6.76018 31.7329 6.6044C31.8853 6.44697 32.0718 6.32931 32.2922 6.25142C32.5126 6.17188 32.7562 6.1321 33.023 6.1321C33.2069 6.1321 33.3901 6.15365 33.5724 6.19673C33.7546 6.23982 33.9212 6.31108 34.072 6.41051C34.2228 6.50829 34.3438 6.64169 34.4349 6.81072C34.5277 6.97976 34.5741 7.19105 34.5741 7.4446V10H33.7091V9.4755H33.6792C33.6246 9.58156 33.5475 9.68099 33.4481 9.77379C33.3503 9.86494 33.2268 9.93868 33.0777 9.99503C32.9302 10.0497 32.757 10.0771 32.5581 10.0771ZM32.7918 9.41584C32.9724 9.41584 33.1291 9.38021 33.2616 9.30895C33.3942 9.23603 33.4961 9.13991 33.5674 9.0206C33.6403 8.90128 33.6768 8.77119 33.6768 8.63033V8.1804C33.6486 8.2036 33.6005 8.22514 33.5326 8.24503C33.4663 8.26491 33.3917 8.28232 33.3089 8.29723C33.226 8.31214 33.144 8.3254 33.0628 8.337C32.9816 8.3486 32.9111 8.35855 32.8515 8.36683C32.7172 8.38506 32.5971 8.41489 32.491 8.45632C32.385 8.49775 32.3013 8.55575 32.24 8.63033C32.1787 8.70324 32.148 8.7977 32.148 8.91371C32.148 9.07943 32.2085 9.20455 32.3295 9.28906C32.4504 9.37358 32.6046 9.41584 32.7918 9.41584ZM37.7361 10V6.91264H36.9207C36.7136 6.91264 36.5545 6.9607 36.4434 7.05682C36.3324 7.15294 36.2777 7.27225 36.2794 7.41477C36.2777 7.55729 36.3299 7.67495 36.436 7.76776C36.5421 7.86056 36.6937 7.90696 36.8909 7.90696H38.0194V8.56321H36.8909C36.586 8.56321 36.3225 8.51515 36.1004 8.41903C35.8783 8.32292 35.7077 8.18703 35.5883 8.01136C35.469 7.8357 35.4094 7.63021 35.4094 7.39489C35.4094 7.14962 35.4698 6.93667 35.5908 6.75604C35.7135 6.57375 35.8875 6.43288 36.1128 6.33345C36.3399 6.23236 36.6092 6.18182 36.9207 6.18182H38.5787V10H37.7361ZM35.2702 10L36.3366 8.04119H37.224L36.1551 10H35.2702ZM41.2211 10V6.18182H44.4452V10H43.5777V6.9201H42.0812V10H41.2211ZM47.036 10.0746C46.6632 10.0746 46.34 9.99254 46.0666 9.82848C45.7931 9.66442 45.581 9.4349 45.4302 9.13991C45.2811 8.84493 45.2065 8.50024 45.2065 8.10582C45.2065 7.71141 45.2811 7.36589 45.4302 7.06925C45.581 6.77261 45.7931 6.54226 46.0666 6.3782C46.34 6.21413 46.6632 6.1321 47.036 6.1321C47.4089 6.1321 47.7321 6.21413 48.0055 6.3782C48.2789 6.54226 48.4902 6.77261 48.6394 7.06925C48.7902 7.36589 48.8656 7.71141 48.8656 8.10582C48.8656 8.50024 48.7902 8.84493 48.6394 9.13991C48.4902 9.4349 48.2789 9.66442 48.0055 9.82848C47.7321 9.99254 47.4089 10.0746 47.036 10.0746ZM47.041 9.35369C47.2432 9.35369 47.4122 9.29818 47.5481 9.18714C47.684 9.07446 47.7851 8.92365 47.8514 8.73473C47.9193 8.54581 47.9533 8.33535 47.9533 8.10334C47.9533 7.86967 47.9193 7.65838 47.8514 7.46946C47.7851 7.27888 47.684 7.12725 47.5481 7.01456C47.4122 6.90187 47.2432 6.84553 47.041 6.84553C46.8339 6.84553 46.6615 6.90187 46.524 7.01456C46.3881 7.12725 46.2862 7.27888 46.2182 7.46946C46.1519 7.65838 46.1188 7.86967 46.1188 8.10334C46.1188 8.33535 46.1519 8.54581 46.2182 8.73473C46.2862 8.92365 46.3881 9.07446 46.524 9.18714C46.6615 9.29818 46.8339 9.35369 47.041 9.35369ZM49.2372 10L50.6467 8.02876L49.2496 6.18182H50.2887L51.375 7.72053H51.5888V6.18182H52.4886V7.72053H52.6974L53.7837 6.18182H54.8228L53.4332 8.02876L54.8352 10H53.7738L52.6875 8.45881H52.4886V10H51.5888V8.45881H51.3899L50.2987 10H49.2372ZM56.5933 10.0771C56.3514 10.0771 56.1334 10.034 55.9395 9.9478C55.7473 9.85997 55.5948 9.73071 55.4822 9.56001C55.3711 9.38932 55.3156 9.17886 55.3156 8.92862C55.3156 8.71319 55.3554 8.53504 55.4349 8.39418C55.5145 8.25331 55.623 8.14062 55.7606 8.05611C55.8981 7.97159 56.0531 7.90779 56.2254 7.8647C56.3994 7.81996 56.5792 7.78764 56.7648 7.76776C56.9885 7.74455 57.17 7.72384 57.3092 7.70561C57.4484 7.68572 57.5495 7.65589 57.6125 7.61612C57.6771 7.57469 57.7094 7.51089 57.7094 7.42472V7.4098C57.7094 7.22254 57.6539 7.07753 57.5429 6.97479C57.4318 6.87204 57.2719 6.82067 57.0631 6.82067C56.8427 6.82067 56.6679 6.86873 56.5386 6.96484C56.411 7.06096 56.3248 7.17448 56.2801 7.3054L55.4399 7.18608C55.5062 6.95407 55.6156 6.76018 55.768 6.6044C55.9205 6.44697 56.1069 6.32931 56.3273 6.25142C56.5477 6.17188 56.7913 6.1321 57.0581 6.1321C57.2421 6.1321 57.4252 6.15365 57.6075 6.19673C57.7898 6.23982 57.9564 6.31108 58.1072 6.41051C58.258 6.50829 58.3789 6.64169 58.4701 6.81072C58.5629 6.97976 58.6093 7.19105 58.6093 7.4446V10H57.7442V9.4755H57.7144C57.6597 9.58156 57.5827 9.68099 57.4832 9.77379C57.3854 9.86494 57.262 9.93868 57.1128 9.99503C56.9653 10.0497 56.7922 10.0771 56.5933 10.0771ZM56.827 9.41584C57.0076 9.41584 57.1642 9.38021 57.2968 9.30895C57.4294 9.23603 57.5313 9.13991 57.6025 9.0206C57.6755 8.90128 57.7119 8.77119 57.7119 8.63033V8.1804C57.6837 8.2036 57.6357 8.22514 57.5677 8.24503C57.5015 8.26491 57.4269 8.28232 57.344 8.29723C57.2612 8.31214 57.1791 8.3254 57.0979 8.337C57.0167 8.3486 56.9463 8.35855 56.8866 8.36683C56.7524 8.38506 56.6323 8.41489 56.5262 8.45632C56.4201 8.49775 56.3364 8.55575 56.2751 8.63033C56.2138 8.70324 56.1831 8.7977 56.1831 8.91371C56.1831 9.07943 56.2436 9.20455 56.3646 9.28906C56.4856 9.37358 56.6397 9.41584 56.827 9.41584ZM59.5141 11.4318V6.18182H60.3991V6.81321H60.4513C60.4977 6.72041 60.5631 6.6218 60.6476 6.5174C60.7322 6.41134 60.8465 6.32102 60.9907 6.24645C61.1349 6.17022 61.3188 6.1321 61.5425 6.1321C61.8375 6.1321 62.1035 6.2075 62.3405 6.35831C62.5791 6.50746 62.768 6.72869 62.9072 7.02202C63.0481 7.31368 63.1185 7.67164 63.1185 8.09588C63.1185 8.51515 63.0497 8.87145 62.9122 9.16477C62.7747 9.4581 62.5874 9.68182 62.3504 9.83594C62.1134 9.99006 61.845 10.0671 61.545 10.0671C61.3263 10.0671 61.1448 10.0307 61.0006 9.95774C60.8564 9.88482 60.7404 9.79699 60.6526 9.69425C60.5664 9.58984 60.4993 9.49124 60.4513 9.39844H60.414V11.4318H59.5141ZM60.3966 8.09091C60.3966 8.33783 60.4314 8.5541 60.501 8.7397C60.5722 8.92531 60.6742 9.07031 60.8067 9.17472C60.941 9.27746 61.1034 9.32884 61.2939 9.32884C61.4928 9.32884 61.6594 9.2758 61.7936 9.16974C61.9278 9.06203 62.0289 8.91536 62.0969 8.72976C62.1665 8.5425 62.2013 8.32955 62.2013 8.09091C62.2013 7.85393 62.1673 7.64347 62.0993 7.45952C62.0314 7.27557 61.9303 7.13139 61.7961 7.02699C61.6618 6.92259 61.4945 6.87038 61.2939 6.87038C61.1017 6.87038 60.9385 6.92093 60.8042 7.02202C60.67 7.12311 60.5681 7.2648 60.4985 7.44709C60.4305 7.62938 60.3966 7.84399 60.3966 8.09091ZM66.5116 7.71804V8.45632H64.4782V7.71804H66.5116ZM64.7567 6.18182V10H63.8891V6.18182H64.7567ZM67.1008 6.18182V10H66.2357V6.18182H67.1008ZM69.1099 10.0771C68.868 10.0771 68.65 10.034 68.4561 9.9478C68.2639 9.85997 68.1114 9.73071 67.9988 9.56001C67.8877 9.38932 67.8322 9.17886 67.8322 8.92862C67.8322 8.71319 67.872 8.53504 67.9515 8.39418C68.0311 8.25331 68.1396 8.14062 68.2772 8.05611C68.4147 7.97159 68.5697 7.90779 68.742 7.8647C68.916 7.81996 69.0958 7.78764 69.2814 7.76776C69.5051 7.74455 69.6866 7.72384 69.8258 7.70561C69.965 7.68572 70.0661 7.65589 70.1291 7.61612C70.1937 7.57469 70.226 7.51089 70.226 7.42472V7.4098C70.226 7.22254 70.1705 7.07753 70.0595 6.97479C69.9484 6.87204 69.7885 6.82067 69.5797 6.82067C69.3593 6.82067 69.1845 6.86873 69.0552 6.96484C68.9276 7.06096 68.8414 7.17448 68.7967 7.3054L67.9565 7.18608C68.0228 6.95407 68.1322 6.76018 68.2846 6.6044C68.4371 6.44697 68.6235 6.32931 68.8439 6.25142C69.0643 6.17188 69.3079 6.1321 69.5748 6.1321C69.7587 6.1321 69.9418 6.15365 70.1241 6.19673C70.3064 6.23982 70.473 6.31108 70.6238 6.41051C70.7746 6.50829 70.8955 6.64169 70.9867 6.81072C71.0795 6.97976 71.1259 7.19105 71.1259 7.4446V10H70.2608V9.4755H70.231C70.1763 9.58156 70.0993 9.68099 69.9998 9.77379C69.902 9.86494 69.7786 9.93868 69.6294 9.99503C69.4819 10.0497 69.3088 10.0771 69.1099 10.0771ZM69.3436 9.41584C69.5242 9.41584 69.6808 9.38021 69.8134 9.30895C69.946 9.23603 70.0479 9.13991 70.1191 9.0206C70.1921 8.90128 70.2285 8.77119 70.2285 8.63033V8.1804C70.2003 8.2036 70.1523 8.22514 70.0843 8.24503C70.0181 8.26491 69.9435 8.28232 69.8606 8.29723C69.7778 8.31214 69.6957 8.3254 69.6145 8.337C69.5333 8.3486 69.4629 8.35855 69.4032 8.36683C69.269 8.38506 69.1489 8.41489 69.0428 8.45632C68.9367 8.49775 68.853 8.55575 68.7917 8.63033C68.7304 8.70324 68.6998 8.7977 68.6998 8.91371C68.6998 9.07943 68.7602 9.20455 68.8812 9.28906C69.0022 9.37358 69.1563 9.41584 69.3436 9.41584ZM74.2878 10V6.91264H73.4725C73.2653 6.91264 73.1062 6.9607 72.9952 7.05682C72.8842 7.15294 72.8295 7.27225 72.8311 7.41477C72.8295 7.55729 72.8817 7.67495 72.9877 7.76776C73.0938 7.86056 73.2454 7.90696 73.4426 7.90696H74.5712V8.56321H73.4426C73.1377 8.56321 72.8742 8.51515 72.6522 8.41903C72.4301 8.32292 72.2594 8.18703 72.1401 8.01136C72.0208 7.8357 71.9611 7.63021 71.9611 7.39489C71.9611 7.14962 72.0216 6.93667 72.1426 6.75604C72.2652 6.57375 72.4392 6.43288 72.6646 6.33345C72.8916 6.23236 73.1609 6.18182 73.4725 6.18182H75.1305V10H74.2878ZM71.8219 10L72.8883 8.04119H73.7757L72.7069 10H71.8219ZM7.12784 18.0746C6.74669 18.0746 6.41939 17.9909 6.14595 17.8235C5.87417 17.6561 5.66454 17.425 5.51705 17.13C5.37121 16.8333 5.2983 16.492 5.2983 16.1058C5.2983 15.718 5.37287 15.3758 5.52202 15.0792C5.67116 14.7809 5.88163 14.5489 6.15341 14.3832C6.42685 14.2158 6.75 14.1321 7.12287 14.1321C7.43277 14.1321 7.70703 14.1893 7.94567 14.3036C8.18596 14.4163 8.37737 14.5762 8.51989 14.7834C8.66241 14.9889 8.74361 15.2292 8.76349 15.5043H7.90341C7.86861 15.3203 7.78575 15.167 7.65483 15.0444C7.52557 14.9201 7.35239 14.858 7.1353 14.858C6.95135 14.858 6.78977 14.9077 6.65057 15.0071C6.51136 15.1049 6.40282 15.2457 6.32493 15.4297C6.2487 15.6136 6.21058 15.834 6.21058 16.0909C6.21058 16.3511 6.2487 16.5748 6.32493 16.7621C6.40116 16.9477 6.50805 17.091 6.6456 17.1921C6.7848 17.2915 6.94804 17.3413 7.1353 17.3413C7.26787 17.3413 7.38636 17.3164 7.49077 17.2667C7.59683 17.2153 7.68549 17.1416 7.75675 17.0455C7.82801 16.9493 7.87689 16.8325 7.90341 16.695H8.76349C8.74195 16.9651 8.66241 17.2045 8.52486 17.4134C8.38731 17.6205 8.20005 17.7829 7.96307 17.9006C7.72609 18.0166 7.44768 18.0746 7.12784 18.0746ZM10.3699 16.782L11.8987 14.1818H12.8234V18H11.9534V15.3974L10.4296 18H9.5024V14.1818H10.3699V16.782ZM16.2731 14.1818V14.9201H14.6275V18H13.7475V14.1818H16.2731ZM19.6171 15.718V16.4563H17.5837V15.718H19.6171ZM17.8621 14.1818V18H16.9946V14.1818H17.8621ZM20.2062 14.1818V18H19.3412V14.1818H20.2062ZM22.2154 18.0771C21.9734 18.0771 21.7555 18.034 21.5616 17.9478C21.3694 17.86 21.2169 17.7307 21.1042 17.56C20.9932 17.3893 20.9377 17.1789 20.9377 16.9286C20.9377 16.7132 20.9775 16.535 21.057 16.3942C21.1365 16.2533 21.2451 16.1406 21.3826 16.0561C21.5202 15.9716 21.6751 15.9078 21.8475 15.8647C22.0215 15.82 22.2013 15.7876 22.3869 15.7678C22.6106 15.7446 22.7921 15.7238 22.9313 15.7056C23.0705 15.6857 23.1716 15.6559 23.2346 15.6161C23.2992 15.5747 23.3315 15.5109 23.3315 15.4247V15.4098C23.3315 15.2225 23.276 15.0775 23.165 14.9748C23.0539 14.872 22.894 14.8207 22.6852 14.8207C22.4648 14.8207 22.29 14.8687 22.1607 14.9648C22.0331 15.061 21.9469 15.1745 21.9022 15.3054L21.062 15.1861C21.1283 14.9541 21.2376 14.7602 21.3901 14.6044C21.5426 14.447 21.729 14.3293 21.9494 14.2514C22.1698 14.1719 22.4134 14.1321 22.6802 14.1321C22.8642 14.1321 23.0473 14.1536 23.2296 14.1967C23.4119 14.2398 23.5784 14.3111 23.7292 14.4105C23.88 14.5083 24.001 14.6417 24.0922 14.8107C24.185 14.9798 24.2314 15.1911 24.2314 15.4446V18H23.3663V17.4755H23.3365C23.2818 17.5816 23.2047 17.681 23.1053 17.7738C23.0075 17.8649 22.8841 17.9387 22.7349 17.995C22.5874 18.0497 22.4142 18.0771 22.2154 18.0771ZM22.449 17.4158C22.6297 17.4158 22.7863 17.3802 22.9189 17.3089C23.0514 17.236 23.1533 17.1399 23.2246 17.0206C23.2975 16.9013 23.334 16.7712 23.334 16.6303V16.1804C23.3058 16.2036 23.2578 16.2251 23.1898 16.245C23.1235 16.2649 23.0489 16.2823 22.9661 16.2972C22.8832 16.3121 22.8012 16.3254 22.72 16.337C22.6388 16.3486 22.5684 16.3585 22.5087 16.3668C22.3745 16.3851 22.2543 16.4149 22.1483 16.4563C22.0422 16.4978 21.9585 16.5558 21.8972 16.6303C21.8359 16.7032 21.8052 16.7977 21.8052 16.9137C21.8052 17.0794 21.8657 17.2045 21.9867 17.2891C22.1077 17.3736 22.2618 17.4158 22.449 17.4158ZM24.8727 18L24.8677 17.2592H24.9995C25.0989 17.2592 25.1826 17.2369 25.2505 17.1921C25.3185 17.1474 25.3748 17.0728 25.4196 16.9684C25.4643 16.8623 25.4991 16.7198 25.524 16.5408C25.5488 16.3619 25.5662 16.139 25.5762 15.8722L25.6433 14.1818H28.4274V18H27.5574V14.9201H26.4611L26.4015 16.1506C26.3865 16.4687 26.3509 16.7447 26.2946 16.9783C26.2399 17.2103 26.162 17.4018 26.0609 17.5526C25.9615 17.7034 25.8364 17.8161 25.6855 17.8906C25.5347 17.9635 25.3566 18 25.1511 18H24.8727ZM30.201 16.782L31.7298 14.1818H32.6545V18H31.7844V15.3974L30.2607 18H29.3335V14.1818H30.201V16.782ZM33.3673 16.9535H34.2597C34.268 17.096 34.3318 17.2062 34.4511 17.2841C34.5704 17.362 34.7253 17.4009 34.9159 17.4009C35.1098 17.4009 35.2731 17.3587 35.4056 17.2741C35.5399 17.188 35.607 17.0579 35.607 16.8839C35.607 16.7811 35.5813 16.6908 35.5299 16.6129C35.4785 16.5334 35.4065 16.4721 35.3137 16.429C35.2209 16.3859 35.1115 16.3643 34.9855 16.3643H34.4014V15.7255H34.9855C35.1728 15.7255 35.3145 15.6824 35.4106 15.5962C35.5084 15.5101 35.5573 15.4015 35.5573 15.2706C35.5573 15.1297 35.5059 15.0154 35.4031 14.9276C35.3021 14.8397 35.162 14.7958 34.983 14.7958C34.8041 14.7958 34.6549 14.8364 34.5356 14.9176C34.4179 14.9988 34.3566 15.1032 34.3517 15.2308H33.4642C33.4675 15.0088 33.5338 14.8157 33.6631 14.6516C33.794 14.4876 33.9697 14.36 34.1901 14.2688C34.4121 14.1777 34.6624 14.1321 34.9408 14.1321C35.2391 14.1321 35.4968 14.1768 35.7139 14.2663C35.931 14.3558 36.0983 14.4809 36.216 14.6417C36.3337 14.8008 36.3925 14.988 36.3925 15.2035C36.3925 15.4106 36.3279 15.5821 36.1986 15.718C36.0693 15.8523 35.8953 15.9484 35.6766 16.0064V16.0462C35.8274 16.0545 35.9633 16.0975 36.0843 16.1754C36.2052 16.2517 36.3013 16.3552 36.3726 16.4862C36.4439 16.6171 36.4795 16.7687 36.4795 16.9411C36.4795 17.1747 36.4124 17.3769 36.2781 17.5476C36.1439 17.7166 35.9591 17.8467 35.7238 17.9379C35.4901 18.029 35.2225 18.0746 34.9209 18.0746C34.6276 18.0746 34.3649 18.0307 34.1329 17.9428C33.9026 17.8533 33.7194 17.7249 33.5835 17.5575C33.4477 17.3902 33.3756 17.1888 33.3673 16.9535ZM38.2867 18.0771C38.0447 18.0771 37.8268 18.034 37.6329 17.9478C37.4407 17.86 37.2882 17.7307 37.1755 17.56C37.0645 17.3893 37.009 17.1789 37.009 16.9286C37.009 16.7132 37.0487 16.535 37.1283 16.3942C37.2078 16.2533 37.3164 16.1406 37.4539 16.0561C37.5915 15.9716 37.7464 15.9078 37.9188 15.8647C38.0928 15.82 38.2726 15.7876 38.4582 15.7678C38.6819 15.7446 38.8634 15.7238 39.0026 15.7056C39.1418 15.6857 39.2429 15.6559 39.3058 15.6161C39.3705 15.5747 39.4028 15.5109 39.4028 15.4247V15.4098C39.4028 15.2225 39.3473 15.0775 39.2362 14.9748C39.1252 14.872 38.9653 14.8207 38.7565 14.8207C38.5361 14.8207 38.3612 14.8687 38.232 14.9648C38.1044 15.061 38.0182 15.1745 37.9735 15.3054L37.1333 15.1861C37.1995 14.9541 37.3089 14.7602 37.4614 14.6044C37.6138 14.447 37.8003 14.3293 38.0207 14.2514C38.2411 14.1719 38.4847 14.1321 38.7515 14.1321C38.9355 14.1321 39.1186 14.1536 39.3009 14.1967C39.4832 14.2398 39.6497 14.3111 39.8005 14.4105C39.9513 14.5083 40.0723 14.6417 40.1634 14.8107C40.2562 14.9798 40.3026 15.1911 40.3026 15.4446V18H39.4376V17.4755H39.4078C39.3531 17.5816 39.276 17.681 39.1766 17.7738C39.0788 17.8649 38.9553 17.9387 38.8062 17.995C38.6587 18.0497 38.4855 18.0771 38.2867 18.0771ZM38.5203 17.4158C38.701 17.4158 38.8576 17.3802 38.9901 17.3089C39.1227 17.236 39.2246 17.1399 39.2959 17.0206C39.3688 16.9013 39.4053 16.7712 39.4053 16.6303V16.1804C39.3771 16.2036 39.329 16.2251 39.2611 16.245C39.1948 16.2649 39.1202 16.2823 39.0374 16.2972C38.9545 16.3121 38.8725 16.3254 38.7913 16.337C38.7101 16.3486 38.6396 16.3585 38.58 16.3668C38.4458 16.3851 38.3256 16.4149 38.2195 16.4563C38.1135 16.4978 38.0298 16.5558 37.9685 16.6303C37.9072 16.7032 37.8765 16.7977 37.8765 16.9137C37.8765 17.0794 37.937 17.2045 38.058 17.2891C38.1789 17.3736 38.3331 17.4158 38.5203 17.4158ZM44.4316 14.1818V17.3288H45.0157V19.228H44.1357V18H41.2075V14.1818H42.075V17.2617H43.5715V14.1818H44.4316ZM46.6209 16.782L48.1497 14.1818H49.0744V18H48.2044V15.3974L46.6806 18H45.7534V14.1818H46.6209V16.782ZM52.2556 18V14.9126H51.4403C51.2331 14.9126 51.074 14.9607 50.963 15.0568C50.8519 15.1529 50.7973 15.2723 50.7989 15.4148C50.7973 15.5573 50.8495 15.675 50.9555 15.7678C51.0616 15.8606 51.2132 15.907 51.4104 15.907H52.539V16.5632H51.4104C51.1055 16.5632 50.842 16.5152 50.6199 16.419C50.3979 16.3229 50.2272 16.187 50.1079 16.0114C49.9885 15.8357 49.9289 15.6302 49.9289 15.3949C49.9289 15.1496 49.9894 14.9367 50.1104 14.756C50.233 14.5737 50.407 14.4329 50.6324 14.3335C50.8594 14.2324 51.1287 14.1818 51.4403 14.1818H53.0983V18H52.2556ZM49.7897 18L50.8561 16.0412H51.7435L50.6746 18H49.7897Z" fill="black"/>
<path d="M71.6137 15.9312H72.2274V16.4979C72.2274 16.6032 72.2073 16.6923 72.157 16.7732C72.1067 16.8461 72.0363 16.9028 71.9457 16.9433C71.8552 16.9838 71.7445 17 71.6137 17C71.4829 17 71.3722 16.9838 71.2817 16.9433C71.1912 16.9028 71.1207 16.8542 71.0704 16.7813C71.0201 16.7085 71 16.6275 71 16.5222V15.502C71 15.3968 71.0201 15.3077 71.0704 15.2267C71.1207 15.1538 71.1912 15.0972 71.2817 15.0567C71.3722 15.0162 71.4829 15 71.6137 15C71.7445 15 71.8451 15.0162 71.9356 15.0567C72.0262 15.0972 72.0966 15.1538 72.1368 15.2267C72.1871 15.2996 72.2073 15.3887 72.2073 15.4939V15.5911H71.8954V15.4939C71.8954 15.4048 71.8753 15.3401 71.825 15.2915C71.7747 15.2429 71.7042 15.2186 71.6137 15.2186C71.5131 15.2186 71.4326 15.2429 71.3823 15.2915C71.332 15.3401 71.3018 15.413 71.3018 15.502V16.5222C71.3018 16.6032 71.332 16.668 71.3924 16.7085C71.4527 16.757 71.5332 16.7732 71.6338 16.7732C71.7344 16.7732 71.8149 16.749 71.8652 16.7004C71.9256 16.6518 71.9457 16.5789 71.9457 16.4979V16.1336H71.6238V15.9231L71.6137 15.9312Z" fill="#3C3C3B"/>
<path d="M72.5386 16.9834V15.0239H72.8002L73.5447 16.5786L73.4944 16.6109V15.0239H73.7761V16.9834H73.5044L72.76 15.4531L72.8103 15.4207V16.9834H72.5286H72.5386Z" fill="#3C3C3B"/>
<path d="M74.1392 16.9834V15.0239H74.4309V16.9834H74.1392ZM74.3102 16.9834V16.7729H74.8535C74.9138 16.7729 74.9641 16.7567 74.9943 16.7324C75.0245 16.7081 75.0446 16.6676 75.0446 16.6109V15.3964C75.0446 15.3478 75.0245 15.3073 74.9943 15.2749C74.9641 15.2507 74.9138 15.2345 74.8535 15.2345H74.3102V15.0239H74.8434C75.0044 15.0239 75.1251 15.0563 75.2056 15.1211C75.2861 15.1859 75.3364 15.283 75.3364 15.4045V16.6028C75.3364 16.6838 75.3163 16.7486 75.276 16.8134C75.2358 16.87 75.1855 16.9105 75.105 16.9429C75.0346 16.9753 74.944 16.9834 74.8333 16.9834H74.3001H74.3102Z" fill="#3C3C3B"/>
</svg>
