<svg width="93" height="25" viewBox="0 0 93 25" fill="none" xmlns="http://www.w3.org/2000/svg">
<rect x="0.5" y="0.5" width="92" height="24" rx="1.5" fill="#F0F0F0" stroke="black"/>
<path d="M90.575 5.85547L81.8236 5.85547L81.8236 19.1491L90.575 19.1491" fill="#AFD5A9"/>
<path d="M90.575 5.85547L81.8236 5.85547L81.8236 19.1491L90.575 19.1491" stroke="#212830" stroke-width="0.25" stroke-miterlimit="10"/>
<path d="M92.2293 19.1491L92.2292 5.85547L90.5839 5.85547L90.5839 19.1491L92.2293 19.1491Z" fill="#5EB34A" stroke="#1D1D1B" stroke-width="0.25" stroke-miterlimit="10"/>
<path d="M81.824 19.1491L81.824 5.85547L78.0086 5.85547L78.0086 19.1491L81.824 19.1491Z" fill="#5EB34A" stroke="#1D1D1B" stroke-width="0.25" stroke-miterlimit="10"/>
<path d="M77.9999 7.93579L80.8547 7.93579L80.8547 10.4953L77.9999 10.4953L77.9999 14.5434L80.8547 14.5434L80.8547 17.1029L77.9999 17.1029" fill="#0C9B47"/>
<path d="M77.9999 7.93579L80.8547 7.93579L80.8547 10.4953L77.9999 10.4953L77.9999 14.5434L80.8547 14.5434L80.8547 17.1029L77.9999 17.1029" stroke="#212830" stroke-width="0.25" stroke-miterlimit="10"/>
<path d="M86.2445 13.2461L85.7554 13.2897L85.2751 13.4464L84.8749 13.6379L84.4747 13.9513L84.1545 14.3518L83.95 14.7435L83.7899 15.2136L83.7454 15.6837L83.7899 16.1538L83.95 16.6327L84.1545 17.0244L84.4747 17.4162L84.8749 17.7296L85.2751 17.9298L85.7554 18.0865L86.2445 18.1213L86.7248 18.0865L87.2051 17.9298L87.6053 17.7296L88.0055 17.4162L88.3256 17.0244L88.5302 16.6327L88.6903 16.1538L88.7348 15.6837L88.6903 15.2136L88.5302 14.7435L88.3256 14.3518L88.0055 13.9513L87.6053 13.6379L87.2051 13.4464L86.7248 13.2897L86.2445 13.2461Z" fill="#C8C8CA"/>
<path d="M84.4566 17.4338L88.0319 13.9776M86.2445 13.2461L85.7554 13.2897L85.2751 13.4464L84.8749 13.6379L84.4747 13.9513L84.1545 14.3518L83.95 14.7435L83.7899 15.2136L83.7454 15.6837L83.7899 16.1538L83.95 16.6327L84.1545 17.0244L84.4747 17.4162L84.8749 17.7296L85.2751 17.9298L85.7554 18.0865L86.2445 18.1213L86.7248 18.0865L87.2051 17.9298L87.6053 17.7296L88.0055 17.4162L88.3256 17.0244L88.5302 16.6327L88.6903 16.1538L88.7348 15.6837L88.6903 15.2136L88.5302 14.7435L88.3256 14.3518L88.0055 13.9513L87.6053 13.6379L87.2051 13.4464L86.7248 13.2897L86.2445 13.2461Z" stroke="#212830" stroke-width="0.25" stroke-miterlimit="10"/>
<path d="M86.1998 7.10834L85.7196 7.15187L85.2393 7.30857L84.8302 7.50881L84.43 7.82221L84.1098 8.21397L83.9142 8.60572L83.7452 9.07583L83.7096 9.55465L83.7452 10.0248L83.9142 10.4949L84.1098 10.8866L84.43 11.2784L84.8302 11.5918L85.2393 11.792L85.7196 11.9487L86.1998 11.9922L86.6801 11.9487L87.1604 11.792L87.5695 11.5918L87.9697 11.2784L88.2898 10.8866L88.4855 10.4949L88.6545 10.0248L88.6901 9.55464L88.6545 9.07583L88.4855 8.60572L88.2898 8.21397L87.9697 7.82221L87.5695 7.50881L87.1604 7.30857L86.6801 7.15187L86.1998 7.10834Z" fill="#C8C8CA"/>
<path d="M84.4121 11.3046L87.9873 7.84841M86.1998 7.10834L85.7196 7.15187L85.2393 7.30857L84.8302 7.50881L84.43 7.82221L84.1098 8.21397L83.9142 8.60572L83.7452 9.07583L83.7096 9.55465L83.7452 10.0248L83.9142 10.4949L84.1098 10.8866L84.43 11.2784L84.8302 11.5918L85.2393 11.792L85.7196 11.9487L86.1998 11.9922L86.6801 11.9487L87.1604 11.792L87.5695 11.5918L87.9697 11.2784L88.2898 10.8866L88.4855 10.4949L88.6545 10.0248L88.6901 9.55464L88.6545 9.07583L88.4855 8.60572L88.2898 8.21397L87.9697 7.82221L87.5695 7.50881L87.1604 7.30857L86.6801 7.15187L86.1998 7.10834Z" stroke="#212830" stroke-width="0.25" stroke-miterlimit="10"/>
<path d="M16.7891 16V8H21.9336V9.21484H18.2383V11.0898H19.7812C20.3932 11.0898 20.918 11.1901 21.3555 11.3906C21.7956 11.5885 22.1328 11.8685 22.3672 12.2305C22.6016 12.5924 22.7188 13.0182 22.7188 13.5078C22.7188 14 22.6016 14.4336 22.3672 14.8086C22.1328 15.181 21.7956 15.4727 21.3555 15.6836C20.918 15.8945 20.3932 16 19.7812 16H16.7891ZM18.2383 14.8125H19.7812C20.1042 14.8125 20.3776 14.7513 20.6016 14.6289C20.8255 14.5065 20.9948 14.3451 21.1094 14.1445C21.2266 13.944 21.2852 13.7266 21.2852 13.4922C21.2852 13.1536 21.1549 12.8659 20.8945 12.6289C20.6367 12.3893 20.2656 12.2695 19.7812 12.2695H18.2383V14.8125ZM25.6504 16.1211C25.2702 16.1211 24.9277 16.0534 24.623 15.918C24.321 15.7799 24.0814 15.5768 23.9043 15.3086C23.7298 15.0404 23.6426 14.7096 23.6426 14.3164C23.6426 13.9779 23.7051 13.6979 23.8301 13.4766C23.9551 13.2552 24.1257 13.0781 24.3418 12.9453C24.5579 12.8125 24.8014 12.7122 25.0723 12.6445C25.3457 12.5742 25.6283 12.5234 25.9199 12.4922C26.2715 12.4557 26.5566 12.4232 26.7754 12.3945C26.9941 12.3633 27.153 12.3164 27.252 12.2539C27.3535 12.1888 27.4043 12.0885 27.4043 11.9531V11.9297C27.4043 11.6354 27.3171 11.4076 27.1426 11.2461C26.9681 11.0846 26.7168 11.0039 26.3887 11.0039C26.0423 11.0039 25.7676 11.0794 25.5645 11.2305C25.3639 11.3815 25.2285 11.5599 25.1582 11.7656L23.8379 11.5781C23.9421 11.2135 24.1139 10.9089 24.3535 10.6641C24.5931 10.4167 24.8861 10.2318 25.2324 10.1094C25.5788 9.98438 25.9616 9.92188 26.3809 9.92188C26.6699 9.92188 26.9577 9.95573 27.2441 10.0234C27.5306 10.0911 27.7923 10.2031 28.0293 10.3594C28.2663 10.513 28.4564 10.7227 28.5996 10.9883C28.7454 11.2539 28.8184 11.5859 28.8184 11.9844V16H27.459V15.1758H27.4121C27.3262 15.3424 27.2051 15.4987 27.0488 15.6445C26.8952 15.7878 26.7012 15.9036 26.4668 15.9922C26.235 16.0781 25.9629 16.1211 25.6504 16.1211ZM26.0176 15.082C26.3014 15.082 26.5475 15.026 26.7559 14.9141C26.9642 14.7995 27.1243 14.6484 27.2363 14.4609C27.3509 14.2734 27.4082 14.069 27.4082 13.8477V13.1406C27.3639 13.1771 27.2884 13.2109 27.1816 13.2422C27.0775 13.2734 26.9603 13.3008 26.8301 13.3242C26.6999 13.3477 26.571 13.3685 26.4434 13.3867C26.3158 13.4049 26.2051 13.4206 26.1113 13.4336C25.9004 13.4622 25.7116 13.5091 25.5449 13.5742C25.3783 13.6393 25.2467 13.7305 25.1504 13.8477C25.054 13.9622 25.0059 14.1107 25.0059 14.293C25.0059 14.5534 25.1009 14.75 25.291 14.8828C25.4811 15.0156 25.7233 15.082 26.0176 15.082ZM32.8574 16.1172C32.2585 16.1172 31.7441 15.9857 31.3145 15.7227C30.8874 15.4596 30.5579 15.0964 30.3262 14.6328C30.097 14.1667 29.9824 13.6302 29.9824 13.0234C29.9824 12.4141 30.0996 11.8763 30.334 11.4102C30.5684 10.9414 30.8991 10.5768 31.3262 10.3164C31.7559 10.0534 32.2637 9.92188 32.8496 9.92188C33.3366 9.92188 33.7676 10.0117 34.1426 10.1914C34.5202 10.3685 34.821 10.6198 35.0449 10.9453C35.2689 11.2682 35.3965 11.6458 35.4277 12.0781H34.0762C34.0215 11.7891 33.8913 11.5482 33.6855 11.3555C33.4824 11.1602 33.2103 11.0625 32.8691 11.0625C32.5801 11.0625 32.3262 11.1406 32.1074 11.2969C31.8887 11.4505 31.7181 11.6719 31.5957 11.9609C31.4759 12.25 31.416 12.5964 31.416 13C31.416 13.4089 31.4759 13.7604 31.5957 14.0547C31.7155 14.3464 31.8835 14.5716 32.0996 14.7305C32.3184 14.8867 32.5749 14.9648 32.8691 14.9648C33.0775 14.9648 33.2637 14.9258 33.4277 14.8477C33.5944 14.7669 33.7337 14.651 33.8457 14.5C33.9577 14.349 34.0345 14.1654 34.0762 13.9492H35.4277C35.3939 14.3737 35.2689 14.75 35.0527 15.0781C34.8366 15.4036 34.5423 15.6589 34.1699 15.8437C33.7975 16.026 33.36 16.1172 32.8574 16.1172ZM39.2061 16.1172C38.6071 16.1172 38.0928 15.9857 37.6631 15.7227C37.236 15.4596 36.9066 15.0964 36.6748 14.6328C36.4456 14.1667 36.3311 13.6302 36.3311 13.0234C36.3311 12.4141 36.4482 11.8763 36.6826 11.4102C36.917 10.9414 37.2477 10.5768 37.6748 10.3164C38.1045 10.0534 38.6123 9.92188 39.1982 9.92188C39.6852 9.92188 40.1162 10.0117 40.4912 10.1914C40.8688 10.3685 41.1696 10.6198 41.3936 10.9453C41.6175 11.2682 41.7451 11.6458 41.7764 12.0781H40.4248C40.3701 11.7891 40.2399 11.5482 40.0342 11.3555C39.8311 11.1602 39.5589 11.0625 39.2178 11.0625C38.9287 11.0625 38.6748 11.1406 38.4561 11.2969C38.2373 11.4505 38.0667 11.6719 37.9443 11.9609C37.8245 12.25 37.7646 12.5964 37.7646 13C37.7646 13.4089 37.8245 13.7604 37.9443 14.0547C38.0641 14.3464 38.2321 14.5716 38.4482 14.7305C38.667 14.8867 38.9235 14.9648 39.2178 14.9648C39.4261 14.9648 39.6123 14.9258 39.7764 14.8477C39.943 14.7669 40.0824 14.651 40.1943 14.5C40.3063 14.349 40.3831 14.1654 40.4248 13.9492H41.7764C41.7425 14.3737 41.6175 14.75 41.4014 15.0781C41.1852 15.4036 40.891 15.6589 40.5186 15.8437C40.1462 16.026 39.7087 16.1172 39.2061 16.1172ZM45.5937 16.1172C44.9922 16.1172 44.4727 15.9922 44.0352 15.7422C43.6003 15.4896 43.2656 15.1328 43.0313 14.6719C42.7969 14.2083 42.6797 13.6628 42.6797 13.0352C42.6797 12.418 42.7969 11.8763 43.0313 11.4102C43.2682 10.9414 43.599 10.5768 44.0234 10.3164C44.4479 10.0534 44.9466 9.92188 45.5195 9.92188C45.8893 9.92188 46.2383 9.98177 46.5664 10.1016C46.8971 10.2187 47.1888 10.401 47.4414 10.6484C47.6966 10.8958 47.8971 11.2109 48.043 11.5937C48.1888 11.974 48.2617 12.4271 48.2617 12.9531V13.3867H43.3438V12.4336H46.9063C46.9036 12.1628 46.8451 11.9219 46.7305 11.7109C46.6159 11.4974 46.4557 11.3294 46.25 11.207C46.0469 11.0846 45.8099 11.0234 45.5391 11.0234C45.25 11.0234 44.9961 11.0937 44.7773 11.2344C44.5586 11.3724 44.388 11.5547 44.2656 11.7812C44.1458 12.0052 44.0846 12.2513 44.082 12.5195V13.3516C44.082 13.7005 44.1458 14 44.2734 14.25C44.401 14.4974 44.5794 14.6875 44.8086 14.8203C45.0378 14.9505 45.306 15.0156 45.6133 15.0156C45.819 15.0156 46.0052 14.987 46.1719 14.9297C46.3385 14.8698 46.4831 14.7826 46.6055 14.668C46.7279 14.5534 46.8203 14.4115 46.8828 14.2422L48.2031 14.3906C48.1198 14.7396 47.9609 15.0443 47.7266 15.3047C47.4948 15.5625 47.1979 15.763 46.8359 15.9062C46.474 16.0469 46.0599 16.1172 45.5937 16.1172ZM50.8213 14.0859L53.2236 10H54.6768V16H53.3096V11.9102L50.915 16H49.458V10H50.8213V14.0859ZM52.8369 7.9375H53.8955C53.8955 8.39323 53.7301 8.76302 53.3994 9.04687C53.0713 9.32812 52.626 9.46875 52.0635 9.46875C51.5062 9.46875 51.0622 9.32812 50.7314 9.04687C50.4033 8.76302 50.2406 8.39323 50.2432 7.9375H51.2939C51.2939 8.125 51.3512 8.29297 51.4658 8.44141C51.583 8.58724 51.7822 8.66016 52.0635 8.66016C52.3395 8.66016 52.5361 8.58724 52.6533 8.44141C52.7731 8.29557 52.8343 8.1276 52.8369 7.9375ZM60.25 12.4141V13.5742H57.0547V12.4141H60.25ZM57.4922 10V16H56.1289V10H57.4922ZM61.1758 10V16H59.8164V10H61.1758Z" fill="black"/>
<path d="M72.6137 15.9312H73.2274V16.4979C73.2274 16.6032 73.2073 16.6923 73.157 16.7732C73.1067 16.8461 73.0363 16.9028 72.9457 16.9433C72.8552 16.9838 72.7445 17 72.6137 17C72.4829 17 72.3722 16.9838 72.2817 16.9433C72.1912 16.9028 72.1207 16.8542 72.0704 16.7813C72.0201 16.7085 72 16.6275 72 16.5222V15.502C72 15.3968 72.0201 15.3077 72.0704 15.2267C72.1207 15.1538 72.1912 15.0972 72.2817 15.0567C72.3722 15.0162 72.4829 15 72.6137 15C72.7445 15 72.8451 15.0162 72.9356 15.0567C73.0262 15.0972 73.0966 15.1538 73.1368 15.2267C73.1871 15.2996 73.2073 15.3887 73.2073 15.4939V15.5911H72.8954V15.4939C72.8954 15.4048 72.8753 15.3401 72.825 15.2915C72.7747 15.2429 72.7042 15.2186 72.6137 15.2186C72.5131 15.2186 72.4326 15.2429 72.3823 15.2915C72.332 15.3401 72.3018 15.413 72.3018 15.502V16.5222C72.3018 16.6032 72.332 16.668 72.3924 16.7085C72.4527 16.757 72.5332 16.7732 72.6338 16.7732C72.7344 16.7732 72.8149 16.749 72.8652 16.7004C72.9256 16.6518 72.9457 16.5789 72.9457 16.4979V16.1336H72.6238V15.9231L72.6137 15.9312Z" fill="#3C3C3B"/>
<path d="M73.5386 16.9834V15.0239H73.8002L74.5447 16.5786L74.4944 16.6109V15.0239H74.7761V16.9834H74.5044L73.76 15.4531L73.8103 15.4207V16.9834H73.5286H73.5386Z" fill="#3C3C3B"/>
<path d="M75.1392 16.9834V15.0239H75.4309V16.9834H75.1392ZM75.3102 16.9834V16.7729H75.8535C75.9138 16.7729 75.9641 16.7567 75.9943 16.7324C76.0245 16.7081 76.0446 16.6676 76.0446 16.6109V15.3964C76.0446 15.3478 76.0245 15.3073 75.9943 15.2749C75.9641 15.2507 75.9138 15.2345 75.8535 15.2345H75.3102V15.0239H75.8434C76.0044 15.0239 76.1251 15.0563 76.2056 15.1211C76.2861 15.1859 76.3364 15.283 76.3364 15.4045V16.6028C76.3364 16.6838 76.3163 16.7486 76.276 16.8134C76.2358 16.87 76.1855 16.9105 76.105 16.9429C76.0346 16.9753 75.944 16.9834 75.8333 16.9834H75.3001H75.3102Z" fill="#3C3C3B"/>
</svg>
