<svg width="93" height="25" viewBox="0 0 93 25" fill="none" xmlns="http://www.w3.org/2000/svg">
<path d="M29.7891 16V8H34.9336V9.21484H31.2383V11.0898H32.7812C33.3932 11.0898 33.918 11.1901 34.3555 11.3906C34.7956 11.5885 35.1328 11.8685 35.3672 12.2305C35.6016 12.5924 35.7188 13.0182 35.7188 13.5078C35.7188 14 35.6016 14.4336 35.3672 14.8086C35.1328 15.181 34.7956 15.4727 34.3555 15.6836C33.918 15.8945 33.3932 16 32.7812 16H29.7891ZM31.2383 14.8125H32.7812C33.1042 14.8125 33.3776 14.7513 33.6016 14.6289C33.8255 14.5065 33.9948 14.3451 34.1094 14.1445C34.2266 13.944 34.2852 13.7266 34.2852 13.4922C34.2852 13.1536 34.1549 12.8659 33.8945 12.6289C33.6367 12.3893 33.2656 12.2695 32.7812 12.2695H31.2383V14.8125ZM38.6504 16.1211C38.2702 16.1211 37.9277 16.0534 37.623 15.918C37.321 15.7799 37.0814 15.5768 36.9043 15.3086C36.7298 15.0404 36.6426 14.7096 36.6426 14.3164C36.6426 13.9779 36.7051 13.6979 36.8301 13.4766C36.9551 13.2552 37.1257 13.0781 37.3418 12.9453C37.5579 12.8125 37.8014 12.7122 38.0723 12.6445C38.3457 12.5742 38.6283 12.5234 38.9199 12.4922C39.2715 12.4557 39.5566 12.4232 39.7754 12.3945C39.9941 12.3633 40.153 12.3164 40.252 12.2539C40.3535 12.1888 40.4043 12.0885 40.4043 11.9531V11.9297C40.4043 11.6354 40.3171 11.4076 40.1426 11.2461C39.9681 11.0846 39.7168 11.0039 39.3887 11.0039C39.0423 11.0039 38.7676 11.0794 38.5645 11.2305C38.3639 11.3815 38.2285 11.5599 38.1582 11.7656L36.8379 11.5781C36.9421 11.2135 37.1139 10.9089 37.3535 10.6641C37.5931 10.4167 37.8861 10.2318 38.2324 10.1094C38.5788 9.98438 38.9616 9.92188 39.3809 9.92188C39.6699 9.92188 39.9577 9.95573 40.2441 10.0234C40.5306 10.0911 40.7923 10.2031 41.0293 10.3594C41.2663 10.513 41.4564 10.7227 41.5996 10.9883C41.7454 11.2539 41.8184 11.5859 41.8184 11.9844V16H40.459V15.1758H40.4121C40.3262 15.3424 40.2051 15.4987 40.0488 15.6445C39.8952 15.7878 39.7012 15.9036 39.4668 15.9922C39.235 16.0781 38.9629 16.1211 38.6504 16.1211ZM39.0176 15.082C39.3014 15.082 39.5475 15.026 39.7559 14.9141C39.9642 14.7995 40.1243 14.6484 40.2363 14.4609C40.3509 14.2734 40.4082 14.069 40.4082 13.8477V13.1406C40.3639 13.1771 40.2884 13.2109 40.1816 13.2422C40.0775 13.2734 39.9603 13.3008 39.8301 13.3242C39.6999 13.3477 39.571 13.3685 39.4434 13.3867C39.3158 13.4049 39.2051 13.4206 39.1113 13.4336C38.9004 13.4622 38.7116 13.5091 38.5449 13.5742C38.3783 13.6393 38.2467 13.7305 38.1504 13.8477C38.054 13.9622 38.0059 14.1107 38.0059 14.293C38.0059 14.5534 38.1009 14.75 38.291 14.8828C38.4811 15.0156 38.7233 15.082 39.0176 15.082ZM45.8574 16.1172C45.2585 16.1172 44.7441 15.9857 44.3145 15.7227C43.8874 15.4596 43.5579 15.0964 43.3262 14.6328C43.097 14.1667 42.9824 13.6302 42.9824 13.0234C42.9824 12.4141 43.0996 11.8763 43.334 11.4102C43.5684 10.9414 43.8991 10.5768 44.3262 10.3164C44.7559 10.0534 45.2637 9.92188 45.8496 9.92188C46.3366 9.92188 46.7676 10.0117 47.1426 10.1914C47.5202 10.3685 47.821 10.6198 48.0449 10.9453C48.2689 11.2682 48.3965 11.6458 48.4277 12.0781H47.0762C47.0215 11.7891 46.8913 11.5482 46.6855 11.3555C46.4824 11.1602 46.2103 11.0625 45.8691 11.0625C45.5801 11.0625 45.3262 11.1406 45.1074 11.2969C44.8887 11.4505 44.7181 11.6719 44.5957 11.9609C44.4759 12.25 44.416 12.5964 44.416 13C44.416 13.4089 44.4759 13.7604 44.5957 14.0547C44.7155 14.3464 44.8835 14.5716 45.0996 14.7305C45.3184 14.8867 45.5749 14.9648 45.8691 14.9648C46.0775 14.9648 46.2637 14.9258 46.4277 14.8477C46.5944 14.7669 46.7337 14.651 46.8457 14.5C46.9577 14.349 47.0345 14.1654 47.0762 13.9492H48.4277C48.3939 14.3737 48.2689 14.75 48.0527 15.0781C47.8366 15.4036 47.5423 15.6589 47.1699 15.8437C46.7975 16.026 46.36 16.1172 45.8574 16.1172ZM52.2061 16.1172C51.6071 16.1172 51.0928 15.9857 50.6631 15.7227C50.236 15.4596 49.9066 15.0964 49.6748 14.6328C49.4456 14.1667 49.3311 13.6302 49.3311 13.0234C49.3311 12.4141 49.4482 11.8763 49.6826 11.4102C49.917 10.9414 50.2477 10.5768 50.6748 10.3164C51.1045 10.0534 51.6123 9.92188 52.1982 9.92188C52.6852 9.92188 53.1162 10.0117 53.4912 10.1914C53.8688 10.3685 54.1696 10.6198 54.3936 10.9453C54.6175 11.2682 54.7451 11.6458 54.7764 12.0781H53.4248C53.3701 11.7891 53.2399 11.5482 53.0342 11.3555C52.8311 11.1602 52.5589 11.0625 52.2178 11.0625C51.9287 11.0625 51.6748 11.1406 51.4561 11.2969C51.2373 11.4505 51.0667 11.6719 50.9443 11.9609C50.8245 12.25 50.7646 12.5964 50.7646 13C50.7646 13.4089 50.8245 13.7604 50.9443 14.0547C51.0641 14.3464 51.2321 14.5716 51.4482 14.7305C51.667 14.8867 51.9235 14.9648 52.2178 14.9648C52.4261 14.9648 52.6123 14.9258 52.7764 14.8477C52.943 14.7669 53.0824 14.651 53.1943 14.5C53.3063 14.349 53.3831 14.1654 53.4248 13.9492H54.7764C54.7425 14.3737 54.6175 14.75 54.4014 15.0781C54.1852 15.4036 53.891 15.6589 53.5186 15.8437C53.1462 16.026 52.7087 16.1172 52.2061 16.1172ZM58.5937 16.1172C57.9922 16.1172 57.4727 15.9922 57.0352 15.7422C56.6003 15.4896 56.2656 15.1328 56.0313 14.6719C55.7969 14.2083 55.6797 13.6628 55.6797 13.0352C55.6797 12.418 55.7969 11.8763 56.0313 11.4102C56.2682 10.9414 56.599 10.5768 57.0234 10.3164C57.4479 10.0534 57.9466 9.92188 58.5195 9.92188C58.8893 9.92188 59.2383 9.98177 59.5664 10.1016C59.8971 10.2187 60.1888 10.401 60.4414 10.6484C60.6966 10.8958 60.8971 11.2109 61.043 11.5937C61.1888 11.974 61.2617 12.4271 61.2617 12.9531V13.3867H56.3438V12.4336H59.9063C59.9036 12.1628 59.8451 11.9219 59.7305 11.7109C59.6159 11.4974 59.4557 11.3294 59.25 11.207C59.0469 11.0846 58.8099 11.0234 58.5391 11.0234C58.25 11.0234 57.9961 11.0937 57.7773 11.2344C57.5586 11.3724 57.388 11.5547 57.2656 11.7812C57.1458 12.0052 57.0846 12.2513 57.082 12.5195V13.3516C57.082 13.7005 57.1458 14 57.2734 14.25C57.401 14.4974 57.5794 14.6875 57.8086 14.8203C58.0378 14.9505 58.306 15.0156 58.6133 15.0156C58.819 15.0156 59.0052 14.987 59.1719 14.9297C59.3385 14.8698 59.4831 14.7826 59.6055 14.668C59.7279 14.5534 59.8203 14.4115 59.8828 14.2422L61.2031 14.3906C61.1198 14.7396 60.9609 15.0443 60.7266 15.3047C60.4948 15.5625 60.1979 15.763 59.8359 15.9062C59.474 16.0469 59.0599 16.1172 58.5937 16.1172ZM63.8213 14.0859L66.2236 10H67.6768V16H66.3096V11.9102L63.915 16H62.458V10H63.8213V14.0859ZM65.8369 7.9375H66.8955C66.8955 8.39323 66.7301 8.76302 66.3994 9.04687C66.0713 9.32812 65.626 9.46875 65.0635 9.46875C64.5062 9.46875 64.0622 9.32812 63.7314 9.04687C63.4033 8.76302 63.2406 8.39323 63.2432 7.9375H64.2939C64.2939 8.125 64.3512 8.29297 64.4658 8.44141C64.583 8.58724 64.7822 8.66016 65.0635 8.66016C65.3395 8.66016 65.5361 8.58724 65.6533 8.44141C65.7731 8.29557 65.8343 8.1276 65.8369 7.9375ZM73.25 12.4141V13.5742H70.0547V12.4141H73.25ZM70.4922 10V16H69.1289V10H70.4922ZM74.1758 10V16H72.8164V10H74.1758Z" fill="black"/>
<rect x="0.5" y="0.5" width="92" height="24" rx="1.5" fill="#F0F0F0" stroke="black"/>
<path d="M2.6543 19.2937L11.4056 19.2937L11.4056 6.00009L2.6543 6.00009" fill="#AFD5A9"/>
<path d="M2.6543 19.2937L11.4056 19.2937L11.4056 6.00009L2.6543 6.00009" stroke="#212830" stroke-width="0.25" stroke-miterlimit="10"/>
<path d="M0.999999 6.00009L1 19.2937L2.64532 19.2937L2.64532 6.00009L0.999999 6.00009Z" fill="#5EB34A" stroke="#1D1D1B" stroke-width="0.25" stroke-miterlimit="10"/>
<path d="M11.4053 6.00009L11.4053 19.2937L15.2206 19.2937L15.2206 6.00009L11.4053 6.00009Z" fill="#5EB34A" stroke="#1D1D1B" stroke-width="0.25" stroke-miterlimit="10"/>
<path d="M15.2294 17.2134L12.3745 17.2134L12.3745 14.6539L15.2294 14.6539L15.2294 10.6057L12.3745 10.6057L12.3745 8.04627L15.2294 8.04627" fill="#0C9B47"/>
<path d="M15.2294 17.2134L12.3745 17.2134L12.3745 14.6539L15.2294 14.6539L15.2294 10.6057L12.3745 10.6057L12.3745 8.04627L15.2294 8.04627" stroke="#212830" stroke-width="0.25" stroke-miterlimit="10"/>
<path class="DI-IN" d="M6.9847 11.903L7.47385 11.8595L7.95411 11.7028L8.35432 11.5113L8.75453 11.1979L9.0747 10.7974L9.27925 10.4056L9.43934 9.93554L9.48381 9.46543L9.43934 8.99532L9.27925 8.51651L9.0747 8.12475L8.75453 7.733L8.35432 7.41959L7.95411 7.21936L7.47385 7.06266L6.9847 7.02784L6.50445 7.06266L6.02419 7.21936L5.62398 7.41959L5.22377 7.733L4.9036 8.12475L4.69905 8.51651L4.53896 8.99533L4.49449 9.46543L4.53896 9.93554L4.69905 10.4056L4.9036 10.7974L5.22377 11.1979L5.62398 11.5113L6.02419 11.7028L6.50445 11.8595L6.9847 11.903Z" fill="#C8C8CA"/>
<path d="M8.77262 7.71538L5.19739 11.1716M6.9847 11.903L7.47385 11.8595L7.95411 11.7028L8.35432 11.5113L8.75453 11.1979L9.0747 10.7974L9.27925 10.4056L9.43934 9.93554L9.48381 9.46543L9.43934 8.99532L9.27925 8.51651L9.0747 8.12475L8.75453 7.733L8.35432 7.41959L7.95411 7.21936L7.47385 7.06266L6.9847 7.02784L6.50445 7.06266L6.02419 7.21936L5.62398 7.41959L5.22377 7.733L4.9036 8.12475L4.69905 8.51651L4.53896 8.99533L4.49449 9.46543L4.53896 9.93554L4.69905 10.4056L4.9036 10.7974L5.22377 11.1979L5.62398 11.5113L6.02419 11.7028L6.50445 11.8595L6.9847 11.903Z" stroke="#212830" stroke-width="0.25" stroke-miterlimit="10"/>
<path d="M7.02941 18.0408L7.50966 17.9973L7.98992 17.8406L8.39902 17.6404L8.79923 17.327L9.1194 16.9352L9.31506 16.5434L9.48404 16.0733L9.51962 15.5945L9.48404 15.1244L9.31506 14.6543L9.1194 14.2625L8.79923 13.8708L8.39902 13.5574L7.98992 13.3572L7.50966 13.2005L7.02941 13.1569L6.54915 13.2005L6.0689 13.3572L5.65979 13.5574L5.25958 13.8708L4.93941 14.2625L4.74375 14.6543L4.57477 15.1244L4.5392 15.5945L4.57477 16.0733L4.74375 16.5434L4.93941 16.9352L5.25958 17.327L5.65979 17.6404L6.0689 17.8406L6.54915 17.9973L7.02941 18.0408Z" fill="#C8C8CA"/>
<path d="M8.81716 13.8446L5.24193 17.3008M7.02941 18.0408L7.50966 17.9973L7.98992 17.8406L8.39902 17.6404L8.79923 17.327L9.1194 16.9352L9.31506 16.5434L9.48404 16.0733L9.51962 15.5945L9.48404 15.1244L9.31506 14.6543L9.1194 14.2625L8.79923 13.8708L8.39902 13.5574L7.98992 13.3572L7.50966 13.2005L7.02941 13.1569L6.54915 13.2005L6.0689 13.3572L5.65979 13.5574L5.25958 13.8708L4.93941 14.2625L4.74375 14.6543L4.57477 15.1244L4.5392 15.5945L4.57477 16.0733L4.74375 16.5434L4.93941 16.9352L5.25958 17.327L5.65979 17.6404L6.0689 17.8406L6.54915 17.9973L7.02941 18.0408Z" stroke="#212830" stroke-width="0.25" stroke-miterlimit="10"/>
<path d="M17.6137 15.9312H18.2274V16.4979C18.2274 16.6032 18.2073 16.6923 18.157 16.7732C18.1067 16.8461 18.0363 16.9028 17.9457 16.9433C17.8552 16.9838 17.7445 17 17.6137 17C17.4829 17 17.3722 16.9838 17.2817 16.9433C17.1912 16.9028 17.1207 16.8542 17.0704 16.7813C17.0201 16.7085 17 16.6275 17 16.5222V15.502C17 15.3968 17.0201 15.3077 17.0704 15.2267C17.1207 15.1538 17.1912 15.0972 17.2817 15.0567C17.3722 15.0162 17.4829 15 17.6137 15C17.7445 15 17.8451 15.0162 17.9356 15.0567C18.0262 15.0972 18.0966 15.1538 18.1368 15.2267C18.1871 15.2996 18.2073 15.3887 18.2073 15.4939V15.5911H17.8954V15.4939C17.8954 15.4048 17.8753 15.3401 17.825 15.2915C17.7747 15.2429 17.7042 15.2186 17.6137 15.2186C17.5131 15.2186 17.4326 15.2429 17.3823 15.2915C17.332 15.3401 17.3018 15.413 17.3018 15.502V16.5222C17.3018 16.6032 17.332 16.668 17.3924 16.7085C17.4527 16.757 17.5332 16.7732 17.6338 16.7732C17.7344 16.7732 17.8149 16.749 17.8652 16.7004C17.9256 16.6518 17.9457 16.5789 17.9457 16.4979V16.1336H17.6238V15.9231L17.6137 15.9312Z" fill="#3C3C3B"/>
<path d="M18.5386 16.9834V15.0239H18.8002L19.5447 16.5786L19.4944 16.6109V15.0239H19.7761V16.9834H19.5044L18.76 15.4531L18.8103 15.4207V16.9834H18.5286H18.5386Z" fill="#3C3C3B"/>
<path d="M20.1392 16.9834V15.0239H20.4309V16.9834H20.1392ZM20.3102 16.9834V16.7729H20.8535C20.9138 16.7729 20.9641 16.7567 20.9943 16.7324C21.0245 16.7081 21.0446 16.6676 21.0446 16.6109V15.3964C21.0446 15.3478 21.0245 15.3073 20.9943 15.2749C20.9641 15.2507 20.9138 15.2345 20.8535 15.2345H20.3102V15.0239H20.8434C21.0044 15.0239 21.1251 15.0563 21.2056 15.1211C21.2861 15.1859 21.3364 15.283 21.3364 15.4045V16.6028C21.3364 16.6838 21.3163 16.7486 21.276 16.8134C21.2358 16.87 21.1855 16.9105 21.105 16.9429C21.0346 16.9753 20.944 16.9834 20.8333 16.9834H20.3001H20.3102Z" fill="#3C3C3B"/>
<path d="M30.7891 16V8H35.9336V9.21484H32.2383V11.0898H33.7812C34.3932 11.0898 34.918 11.1901 35.3555 11.3906C35.7956 11.5885 36.1328 11.8685 36.3672 12.2305C36.6016 12.5924 36.7188 13.0182 36.7188 13.5078C36.7188 14 36.6016 14.4336 36.3672 14.8086C36.1328 15.181 35.7956 15.4727 35.3555 15.6836C34.918 15.8945 34.3932 16 33.7812 16H30.7891ZM32.2383 14.8125H33.7812C34.1042 14.8125 34.3776 14.7513 34.6016 14.6289C34.8255 14.5065 34.9948 14.3451 35.1094 14.1445C35.2266 13.944 35.2852 13.7266 35.2852 13.4922C35.2852 13.1536 35.1549 12.8659 34.8945 12.6289C34.6367 12.3893 34.2656 12.2695 33.7812 12.2695H32.2383V14.8125ZM39.6504 16.1211C39.2702 16.1211 38.9277 16.0534 38.623 15.918C38.321 15.7799 38.0814 15.5768 37.9043 15.3086C37.7298 15.0404 37.6426 14.7096 37.6426 14.3164C37.6426 13.9779 37.7051 13.6979 37.8301 13.4766C37.9551 13.2552 38.1257 13.0781 38.3418 12.9453C38.5579 12.8125 38.8014 12.7122 39.0723 12.6445C39.3457 12.5742 39.6283 12.5234 39.9199 12.4922C40.2715 12.4557 40.5566 12.4232 40.7754 12.3945C40.9941 12.3633 41.153 12.3164 41.252 12.2539C41.3535 12.1888 41.4043 12.0885 41.4043 11.9531V11.9297C41.4043 11.6354 41.3171 11.4076 41.1426 11.2461C40.9681 11.0846 40.7168 11.0039 40.3887 11.0039C40.0423 11.0039 39.7676 11.0794 39.5645 11.2305C39.3639 11.3815 39.2285 11.5599 39.1582 11.7656L37.8379 11.5781C37.9421 11.2135 38.1139 10.9089 38.3535 10.6641C38.5931 10.4167 38.8861 10.2318 39.2324 10.1094C39.5788 9.98438 39.9616 9.92188 40.3809 9.92188C40.6699 9.92188 40.9577 9.95573 41.2441 10.0234C41.5306 10.0911 41.7923 10.2031 42.0293 10.3594C42.2663 10.513 42.4564 10.7227 42.5996 10.9883C42.7454 11.2539 42.8184 11.5859 42.8184 11.9844V16H41.459V15.1758H41.4121C41.3262 15.3424 41.2051 15.4987 41.0488 15.6445C40.8952 15.7878 40.7012 15.9036 40.4668 15.9922C40.235 16.0781 39.9629 16.1211 39.6504 16.1211ZM40.0176 15.082C40.3014 15.082 40.5475 15.026 40.7559 14.9141C40.9642 14.7995 41.1243 14.6484 41.2363 14.4609C41.3509 14.2734 41.4082 14.069 41.4082 13.8477V13.1406C41.3639 13.1771 41.2884 13.2109 41.1816 13.2422C41.0775 13.2734 40.9603 13.3008 40.8301 13.3242C40.6999 13.3477 40.571 13.3685 40.4434 13.3867C40.3158 13.4049 40.2051 13.4206 40.1113 13.4336C39.9004 13.4622 39.7116 13.5091 39.5449 13.5742C39.3783 13.6393 39.2467 13.7305 39.1504 13.8477C39.054 13.9622 39.0059 14.1107 39.0059 14.293C39.0059 14.5534 39.1009 14.75 39.291 14.8828C39.4811 15.0156 39.7233 15.082 40.0176 15.082ZM46.8574 16.1172C46.2585 16.1172 45.7441 15.9857 45.3145 15.7227C44.8874 15.4596 44.5579 15.0964 44.3262 14.6328C44.097 14.1667 43.9824 13.6302 43.9824 13.0234C43.9824 12.4141 44.0996 11.8763 44.334 11.4102C44.5684 10.9414 44.8991 10.5768 45.3262 10.3164C45.7559 10.0534 46.2637 9.92188 46.8496 9.92188C47.3366 9.92188 47.7676 10.0117 48.1426 10.1914C48.5202 10.3685 48.821 10.6198 49.0449 10.9453C49.2689 11.2682 49.3965 11.6458 49.4277 12.0781H48.0762C48.0215 11.7891 47.8913 11.5482 47.6855 11.3555C47.4824 11.1602 47.2103 11.0625 46.8691 11.0625C46.5801 11.0625 46.3262 11.1406 46.1074 11.2969C45.8887 11.4505 45.7181 11.6719 45.5957 11.9609C45.4759 12.25 45.416 12.5964 45.416 13C45.416 13.4089 45.4759 13.7604 45.5957 14.0547C45.7155 14.3464 45.8835 14.5716 46.0996 14.7305C46.3184 14.8867 46.5749 14.9648 46.8691 14.9648C47.0775 14.9648 47.2637 14.9258 47.4277 14.8477C47.5944 14.7669 47.7337 14.651 47.8457 14.5C47.9577 14.349 48.0345 14.1654 48.0762 13.9492H49.4277C49.3939 14.3737 49.2689 14.75 49.0527 15.0781C48.8366 15.4036 48.5423 15.6589 48.1699 15.8437C47.7975 16.026 47.36 16.1172 46.8574 16.1172ZM53.2061 16.1172C52.6071 16.1172 52.0928 15.9857 51.6631 15.7227C51.236 15.4596 50.9066 15.0964 50.6748 14.6328C50.4456 14.1667 50.3311 13.6302 50.3311 13.0234C50.3311 12.4141 50.4482 11.8763 50.6826 11.4102C50.917 10.9414 51.2477 10.5768 51.6748 10.3164C52.1045 10.0534 52.6123 9.92188 53.1982 9.92188C53.6852 9.92188 54.1162 10.0117 54.4912 10.1914C54.8688 10.3685 55.1696 10.6198 55.3936 10.9453C55.6175 11.2682 55.7451 11.6458 55.7764 12.0781H54.4248C54.3701 11.7891 54.2399 11.5482 54.0342 11.3555C53.8311 11.1602 53.5589 11.0625 53.2178 11.0625C52.9287 11.0625 52.6748 11.1406 52.4561 11.2969C52.2373 11.4505 52.0667 11.6719 51.9443 11.9609C51.8245 12.25 51.7646 12.5964 51.7646 13C51.7646 13.4089 51.8245 13.7604 51.9443 14.0547C52.0641 14.3464 52.2321 14.5716 52.4482 14.7305C52.667 14.8867 52.9235 14.9648 53.2178 14.9648C53.4261 14.9648 53.6123 14.9258 53.7764 14.8477C53.943 14.7669 54.0824 14.651 54.1943 14.5C54.3063 14.349 54.3831 14.1654 54.4248 13.9492H55.7764C55.7425 14.3737 55.6175 14.75 55.4014 15.0781C55.1852 15.4036 54.891 15.6589 54.5186 15.8437C54.1462 16.026 53.7087 16.1172 53.2061 16.1172ZM59.5937 16.1172C58.9922 16.1172 58.4727 15.9922 58.0352 15.7422C57.6003 15.4896 57.2656 15.1328 57.0313 14.6719C56.7969 14.2083 56.6797 13.6628 56.6797 13.0352C56.6797 12.418 56.7969 11.8763 57.0313 11.4102C57.2682 10.9414 57.599 10.5768 58.0234 10.3164C58.4479 10.0534 58.9466 9.92188 59.5195 9.92188C59.8893 9.92188 60.2383 9.98177 60.5664 10.1016C60.8971 10.2187 61.1888 10.401 61.4414 10.6484C61.6966 10.8958 61.8971 11.2109 62.043 11.5937C62.1888 11.974 62.2617 12.4271 62.2617 12.9531V13.3867H57.3438V12.4336H60.9063C60.9036 12.1628 60.8451 11.9219 60.7305 11.7109C60.6159 11.4974 60.4557 11.3294 60.25 11.207C60.0469 11.0846 59.8099 11.0234 59.5391 11.0234C59.25 11.0234 58.9961 11.0937 58.7773 11.2344C58.5586 11.3724 58.388 11.5547 58.2656 11.7812C58.1458 12.0052 58.0846 12.2513 58.082 12.5195V13.3516C58.082 13.7005 58.1458 14 58.2734 14.25C58.401 14.4974 58.5794 14.6875 58.8086 14.8203C59.0378 14.9505 59.306 15.0156 59.6133 15.0156C59.819 15.0156 60.0052 14.987 60.1719 14.9297C60.3385 14.8698 60.4831 14.7826 60.6055 14.668C60.7279 14.5534 60.8203 14.4115 60.8828 14.2422L62.2031 14.3906C62.1198 14.7396 61.9609 15.0443 61.7266 15.3047C61.4948 15.5625 61.1979 15.763 60.8359 15.9062C60.474 16.0469 60.0599 16.1172 59.5937 16.1172ZM64.8213 14.0859L67.2236 10H68.6768V16H67.3096V11.9102L64.915 16H63.458V10H64.8213V14.0859ZM66.8369 7.9375H67.8955C67.8955 8.39323 67.7301 8.76302 67.3994 9.04687C67.0713 9.32812 66.626 9.46875 66.0635 9.46875C65.5062 9.46875 65.0622 9.32812 64.7314 9.04687C64.4033 8.76302 64.2406 8.39323 64.2432 7.9375H65.2939C65.2939 8.125 65.3512 8.29297 65.4658 8.44141C65.583 8.58724 65.7822 8.66016 66.0635 8.66016C66.3395 8.66016 66.5361 8.58724 66.6533 8.44141C66.7731 8.29557 66.8343 8.1276 66.8369 7.9375ZM74.25 12.4141V13.5742H71.0547V12.4141H74.25ZM71.4922 10V16H70.1289V10H71.4922ZM75.1758 10V16H73.8164V10H75.1758Z" fill="black"/>
</svg>
