<svg width="93" height="24" viewBox="0 0 93 24" fill="none" xmlns="http://www.w3.org/2000/svg">
<rect x="0.5" y="0.5" width="92" height="23" rx="1.5" fill="#F0F0F0" stroke="black"/>
<path d="M90.8501 5L81.9074 5L81.9074 18.44L90.8501 18.44" fill="#AFD5A9"/>
<path d="M90.8501 5L81.9074 5L81.9074 18.44L90.8501 18.44" stroke="#212830" stroke-width="0.25" stroke-miterlimit="10"/>
<path d="M92.5405 18.44L92.5405 5L90.8592 5L90.8592 18.44L92.5405 18.44Z" fill="#5EB34A" stroke="#1D1D1B" stroke-width="0.25" stroke-miterlimit="10"/>
<path d="M81.9077 18.44L81.9077 5L78.0089 5L78.0089 18.44L81.9077 18.44Z" fill="#5EB34A" stroke="#1D1D1B" stroke-width="0.25" stroke-miterlimit="10"/>
<path d="M78 7.10327L80.9172 7.10327L80.9172 9.69093L78 9.69093L78 13.7837L80.9172 13.7837L80.9172 16.3713L78 16.3713" fill="#0C9B47"/>
<path d="M78 7.10327L80.9172 7.10327L80.9172 9.69093L78 9.69093L78 13.7837L80.9172 13.7837L80.9172 16.3713L78 16.3713" stroke="#212830" stroke-width="0.25" stroke-miterlimit="10"/>
<path d="M86.4247 12.4719L85.9249 12.5159L85.4341 12.6744L85.0251 12.868L84.6162 13.1849L84.289 13.5897L84.08 13.9858L83.9164 14.4611L83.871 14.9364L83.9164 15.4117L84.08 15.8957L84.289 16.2918L84.6162 16.6879L85.0251 17.0047L85.4341 17.2072L85.9249 17.3656L86.4247 17.4008L86.9155 17.3656L87.4062 17.2072L87.8152 17.0047L88.2241 16.6879L88.5513 16.2918L88.7603 15.8957L88.9239 15.4117L88.9694 14.9364L88.9239 14.4611L88.7603 13.9858L88.5513 13.5897L88.2241 13.1849L87.8152 12.868L87.4062 12.6744L86.9155 12.5159L86.4247 12.4719Z" fill="#C8C8CA"/>
<path d="M84.5977 16.7057L88.2511 13.2115M86.4247 12.4719L85.9249 12.5159L85.4341 12.6744L85.0251 12.868L84.6162 13.1849L84.289 13.5897L84.08 13.9858L83.9164 14.4611L83.871 14.9364L83.9164 15.4117L84.08 15.8957L84.289 16.2918L84.6162 16.6879L85.0251 17.0047L85.4341 17.2072L85.9249 17.3656L86.4247 17.4008L86.9155 17.3656L87.4062 17.2072L87.8152 17.0047L88.2241 16.6879L88.5513 16.2918L88.7603 15.8957L88.9239 15.4117L88.9694 14.9364L88.9239 14.4611L88.7603 13.9858L88.5513 13.5897L88.2241 13.1849L87.8152 12.868L87.4062 12.6744L86.9155 12.5159L86.4247 12.4719Z" stroke="#212830" stroke-width="0.25" stroke-miterlimit="10"/>
<path d="M86.379 6.26647L85.8882 6.31048L85.3975 6.4689L84.9794 6.67134L84.5705 6.9882L84.2433 7.38427L84.0433 7.78034L83.8707 8.25562L83.8343 8.73971L83.8707 9.21499L84.0433 9.69028L84.2433 10.0864L84.5705 10.4824L84.9794 10.7993L85.3975 11.0017L85.8882 11.1601L86.379 11.2042L86.8697 11.1601L87.3605 11.0017L87.7785 10.7993L88.1875 10.4824L88.5147 10.0864L88.7146 9.69028L88.8873 9.21499L88.9236 8.73971L88.8873 8.25562L88.7146 7.78034L88.5147 7.38427L88.1875 6.9882L87.7785 6.67134L87.3605 6.4689L86.8697 6.31048L86.379 6.26647Z" fill="#C8C8CA"/>
<path class="DI-IN" d="M84.5521 10.5089L88.2055 7.01469M86.379 6.26647L85.8882 6.31048L85.3975 6.4689L84.9794 6.67134L84.5705 6.9882L84.2433 7.38427L84.0433 7.78034L83.8707 8.25562L83.8343 8.73971L83.8707 9.21499L84.0433 9.69028L84.2433 10.0864L84.5705 10.4824L84.9794 10.7993L85.3975 11.0017L85.8882 11.1601L86.379 11.2042L86.8697 11.1601L87.3605 11.0017L87.7785 10.7993L88.1875 10.4824L88.5147 10.0864L88.7146 9.69028L88.8873 9.21499L88.9236 8.73971L88.8873 8.25562L88.7146 7.78034L88.5147 7.38427L88.1875 6.9882L87.7785 6.67134L87.3605 6.4689L86.8697 6.31048L86.379 6.26647Z" stroke="#212830" stroke-width="0.25" stroke-miterlimit="10"/>
<path d="M15.9874 4.0617V9.87988H14.9419V4.9367H12.3965V9.87988H11.351V4.0617H15.9874ZM17.2026 11.5162V5.51625H18.2139V6.23784H18.2736C18.3266 6.13178 18.4014 6.01909 18.498 5.89977C18.5946 5.77856 18.7253 5.67534 18.8901 5.59011C19.0548 5.50299 19.2651 5.45943 19.5208 5.45943C19.8579 5.45943 20.1619 5.5456 20.4327 5.71795C20.7054 5.88841 20.9213 6.14125 21.0804 6.47647C21.2414 6.80981 21.3219 7.2189 21.3219 7.70375C21.3219 8.18291 21.2433 8.59011 21.0861 8.92534C20.9289 9.26056 20.7149 9.51625 20.4441 9.69238C20.1732 9.86852 19.8664 9.95659 19.5236 9.95659C19.2736 9.95659 19.0662 9.91492 18.9014 9.83159C18.7367 9.74825 18.6041 9.64788 18.5037 9.53045C18.4052 9.41113 18.3285 9.29844 18.2736 9.19238H18.231V11.5162H17.2026ZM18.2111 7.69806C18.2111 7.98026 18.2509 8.22742 18.3304 8.43954C18.4119 8.65166 18.5283 8.81738 18.6798 8.9367C18.8333 9.05413 19.0189 9.11284 19.2367 9.11284C19.4639 9.11284 19.6543 9.05223 19.8077 8.93102C19.9611 8.80791 20.0766 8.6403 20.1543 8.42818C20.2338 8.21416 20.2736 7.97079 20.2736 7.69806C20.2736 7.42723 20.2348 7.1867 20.1571 6.97647C20.0795 6.76625 19.9639 6.60147 19.8105 6.48216C19.6571 6.36284 19.4658 6.30318 19.2367 6.30318C19.017 6.30318 18.8304 6.36094 18.677 6.47647C18.5236 6.592 18.4071 6.75394 18.3276 6.96227C18.2499 7.1706 18.2111 7.41587 18.2111 7.69806ZM24.106 9.96511C23.6798 9.96511 23.3105 9.87136 22.998 9.68386C22.6855 9.49636 22.4431 9.23405 22.2708 8.89693C22.1003 8.55981 22.0151 8.16587 22.0151 7.71511C22.0151 7.26435 22.1003 6.86947 22.2708 6.53045C22.4431 6.19144 22.6855 5.92818 22.998 5.74068C23.3105 5.55318 23.6798 5.45943 24.106 5.45943C24.5321 5.45943 24.9014 5.55318 25.2139 5.74068C25.5264 5.92818 25.7679 6.19144 25.9384 6.53045C26.1107 6.86947 26.1969 7.26435 26.1969 7.71511C26.1969 8.16587 26.1107 8.55981 25.9384 8.89693C25.7679 9.23405 25.5264 9.49636 25.2139 9.68386C24.9014 9.87136 24.5321 9.96511 24.106 9.96511ZM24.1117 9.14125C24.3427 9.14125 24.5359 9.0778 24.6912 8.95091C24.8465 8.82212 24.962 8.64977 25.0378 8.43386C25.1155 8.21795 25.1543 7.97742 25.1543 7.71227C25.1543 7.44522 25.1155 7.20375 25.0378 6.98784C24.962 6.77003 24.8465 6.59674 24.6912 6.46795C24.5359 6.33916 24.3427 6.27477 24.1117 6.27477C23.8749 6.27477 23.678 6.33916 23.5208 6.46795C23.3655 6.59674 23.249 6.77003 23.1713 6.98784C23.0956 7.20375 23.0577 7.44522 23.0577 7.71227C23.0577 7.97742 23.0956 8.21795 23.1713 8.43386C23.249 8.64977 23.3655 8.82212 23.5208 8.95091C23.678 9.0778 23.8749 9.14125 24.1117 9.14125ZM28.0612 8.48784L29.8084 5.51625H30.8652V9.87988H29.8709V6.90545L28.1294 9.87988H27.0698V5.51625H28.0612V8.48784ZM31.6798 8.68386H32.6997C32.7092 8.84674 32.7821 8.97269 32.9185 9.0617C33.0548 9.15072 33.2319 9.19522 33.4497 9.19522C33.6713 9.19522 33.8579 9.14693 34.0094 9.05034C34.1628 8.95185 34.2395 8.80318 34.2395 8.60431C34.2395 8.48689 34.2102 8.38367 34.1514 8.29466C34.0927 8.20375 34.0103 8.13367 33.9043 8.08443C33.7982 8.03519 33.6732 8.01056 33.5293 8.01056H32.8617V7.28045H33.5293C33.7433 7.28045 33.9052 7.23121 34.0151 7.13272C34.1268 7.03424 34.1827 6.91019 34.1827 6.76056C34.1827 6.59958 34.124 6.4689 34.0066 6.36852C33.891 6.26814 33.731 6.21795 33.5264 6.21795C33.3219 6.21795 33.1514 6.26435 33.0151 6.35716C32.8806 6.44996 32.8105 6.56928 32.8048 6.71511H31.7906C31.7944 6.46132 31.8702 6.24068 32.0179 6.05318C32.1675 5.86568 32.3683 5.71984 32.6202 5.61568C32.874 5.51151 33.16 5.45943 33.4781 5.45943C33.8191 5.45943 34.1136 5.51056 34.3617 5.61284C34.6098 5.71511 34.8011 5.8581 34.9355 6.04181C35.07 6.22363 35.1372 6.43765 35.1372 6.68386C35.1372 6.9206 35.0634 7.11663 34.9156 7.27193C34.7679 7.42534 34.5691 7.53519 34.3191 7.60147V7.64693C34.4914 7.6564 34.6467 7.70564 34.785 7.79466C34.9232 7.88178 35.0331 8.00015 35.1145 8.14977C35.1959 8.29939 35.2367 8.47269 35.2367 8.66966C35.2367 8.9367 35.16 9.16776 35.0066 9.36284C34.8531 9.55602 34.642 9.70469 34.373 9.80886C34.106 9.91303 33.8001 9.96511 33.4554 9.96511C33.1202 9.96511 32.82 9.91492 32.5548 9.81454C32.2916 9.71227 32.0823 9.56549 31.927 9.3742C31.7717 9.18291 31.6893 8.9528 31.6798 8.68386ZM36.0463 9.87988V5.51625H37.8787C38.3958 5.51625 38.8039 5.61947 39.1031 5.82591C39.4043 6.03234 39.5548 6.32022 39.5548 6.68954C39.5548 6.93386 39.4696 7.13367 39.2992 7.28897C39.1306 7.44238 38.9005 7.5456 38.6088 7.59863C38.838 7.61757 39.0388 7.67534 39.2111 7.77193C39.3853 7.86852 39.5217 7.99541 39.6202 8.15261C39.7187 8.30981 39.7679 8.49068 39.7679 8.69522C39.7679 8.93575 39.7045 9.14503 39.5776 9.32306C39.4526 9.4992 39.2698 9.63651 39.0293 9.735C38.7906 9.83159 38.5009 9.87988 38.16 9.87988H36.0463ZM37.0094 9.07022H38.16C38.3494 9.07022 38.498 9.02572 38.606 8.9367C38.7139 8.84579 38.7679 8.72269 38.7679 8.56738C38.7679 8.38746 38.7139 8.24636 38.606 8.14409C38.498 8.03992 38.3494 7.98784 38.16 7.98784H37.0094V9.07022ZM37.0094 7.32306H37.8986C38.0388 7.32306 38.159 7.30318 38.2594 7.26341C38.3598 7.22174 38.4365 7.16397 38.4895 7.09011C38.5425 7.01435 38.5691 6.92439 38.5691 6.82022C38.5691 6.6706 38.5075 6.55318 38.3844 6.46795C38.2632 6.38272 38.0946 6.34011 37.8787 6.34011H37.0094V7.32306ZM42.52 9.96511C42.0939 9.96511 41.7246 9.87136 41.4121 9.68386C41.0996 9.49636 40.8572 9.23405 40.6848 8.89693C40.5144 8.55981 40.4291 8.16587 40.4291 7.71511C40.4291 7.26435 40.5144 6.86947 40.6848 6.53045C40.8572 6.19144 41.0996 5.92818 41.4121 5.74068C41.7246 5.55318 42.0939 5.45943 42.52 5.45943C42.9462 5.45943 43.3155 5.55318 43.628 5.74068C43.9405 5.92818 44.182 6.19144 44.3524 6.53045C44.5248 6.86947 44.611 7.26435 44.611 7.71511C44.611 8.16587 44.5248 8.55981 44.3524 8.89693C44.182 9.23405 43.9405 9.49636 43.628 9.68386C43.3155 9.87136 42.9462 9.96511 42.52 9.96511ZM42.5257 9.14125C42.7568 9.14125 42.95 9.0778 43.1053 8.95091C43.2606 8.82212 43.3761 8.64977 43.4519 8.43386C43.5295 8.21795 43.5683 7.97742 43.5683 7.71227C43.5683 7.44522 43.5295 7.20375 43.4519 6.98784C43.3761 6.77003 43.2606 6.59674 43.1053 6.46795C42.95 6.33916 42.7568 6.27477 42.5257 6.27477C42.289 6.27477 42.092 6.33916 41.9348 6.46795C41.7795 6.59674 41.663 6.77003 41.5854 6.98784C41.5096 7.20375 41.4718 7.44522 41.4718 7.71227C41.4718 7.97742 41.5096 8.21795 41.5854 8.43386C41.663 8.64977 41.7795 8.82212 41.9348 8.95091C42.092 9.0778 42.289 9.14125 42.5257 9.14125ZM45.1827 9.87988L45.177 9.03329H45.3276C45.4412 9.03329 45.5369 9.00772 45.6145 8.95659C45.6922 8.90545 45.7566 8.82022 45.8077 8.70091C45.8588 8.57969 45.8986 8.41681 45.927 8.21227C45.9554 8.00772 45.9753 7.75299 45.9867 7.44806L46.0634 5.51625H49.2452V9.87988H48.2509V6.36H46.998L46.9298 7.76625C46.9128 8.12988 46.8721 8.44522 46.8077 8.71227C46.7452 8.97742 46.6562 9.19617 46.5406 9.36852C46.427 9.54087 46.284 9.66966 46.1117 9.75488C45.9393 9.83822 45.7357 9.87988 45.5009 9.87988H45.1827ZM50.9767 6.9367H52.2637C52.8205 6.9367 53.2513 7.07212 53.5563 7.34295C53.8612 7.61378 54.0146 7.9689 54.0165 8.40829C54.0146 8.69428 53.9445 8.94806 53.8063 9.16966C53.6699 9.39125 53.471 9.56549 53.2097 9.69238C52.9502 9.81738 52.6349 9.87988 52.2637 9.87988H50.2807V5.51625H51.2722V9.03613H52.2637C52.4871 9.03613 52.6709 8.97931 52.8148 8.86568C52.9587 8.75015 53.0307 8.60242 53.0307 8.4225C53.0307 8.2331 52.9587 8.07875 52.8148 7.95943C52.6709 7.84011 52.4871 7.78045 52.2637 7.78045H50.9767V6.9367ZM57.895 7.27193V8.11568H55.5712V7.27193H57.895ZM55.8894 5.51625V9.87988H54.8979V5.51625H55.8894ZM58.5683 5.51625V9.87988H57.5797V5.51625H58.5683ZM60.3048 6.9367H61.5918C62.1486 6.9367 62.5795 7.07212 62.8844 7.34295C63.1893 7.61378 63.3427 7.9689 63.3446 8.40829C63.3427 8.69428 63.2727 8.94806 63.1344 9.16966C62.998 9.39125 62.7992 9.56549 62.5378 9.69238C62.2783 9.81738 61.963 9.87988 61.5918 9.87988H59.6088V5.51625H60.6003V9.03613H61.5918C61.8153 9.03613 61.999 8.97931 62.1429 8.86568C62.2869 8.75015 62.3588 8.60242 62.3588 8.4225C62.3588 8.2331 62.2869 8.07875 62.1429 7.95943C61.999 7.84011 61.8153 7.78045 61.5918 7.78045H60.3048V6.9367ZM63.8872 9.87988V5.51625H64.9156V9.87988H63.8872ZM66.9675 8.48784L68.7147 5.51625H69.7715V9.87988H68.7772V6.90545L67.0357 9.87988H65.976V5.51625H66.9675V8.48784ZM68.4334 4.01625H69.2033C69.2033 4.34769 69.083 4.61662 68.8425 4.82306C68.6039 5.02761 68.28 5.12988 67.8709 5.12988C67.4656 5.12988 67.1427 5.02761 66.9022 4.82306C66.6635 4.61662 66.5451 4.34769 66.547 4.01625H67.3112C67.3112 4.15261 67.3529 4.27477 67.4362 4.38272C67.5215 4.48878 67.6664 4.54181 67.8709 4.54181C68.0717 4.54181 68.2147 4.48878 68.2999 4.38272C68.387 4.27666 68.4315 4.1545 68.4334 4.01625ZM29.274 19.9651C28.8383 19.9651 28.4643 19.8695 28.1518 19.6782C27.8412 19.4869 27.6016 19.2227 27.433 18.8856C27.2664 18.5465 27.183 18.1564 27.183 17.7151C27.183 17.2719 27.2683 16.8808 27.4387 16.5418C27.6092 16.2009 27.8497 15.9358 28.1603 15.7464C28.4728 15.5551 28.8421 15.4594 29.2683 15.4594C29.6224 15.4594 29.9359 15.5248 30.2086 15.6555C30.4832 15.7842 30.702 15.967 30.8649 16.2037C31.0277 16.4386 31.1205 16.7132 31.1433 17.0276H30.1603C30.1205 16.8174 30.0258 16.6422 29.8762 16.502C29.7285 16.36 29.5306 16.289 29.2825 16.289C29.0723 16.289 28.8876 16.3458 28.7285 16.4594C28.5694 16.5712 28.4454 16.7322 28.3563 16.9424C28.2692 17.1526 28.2257 17.4045 28.2257 17.6981C28.2257 17.9954 28.2692 18.2511 28.3563 18.4651C28.4435 18.6772 28.5656 18.8411 28.7228 18.9566C28.8819 19.0702 29.0685 19.127 29.2825 19.127C29.434 19.127 29.5694 19.0986 29.6887 19.0418C29.8099 18.9831 29.9113 18.8988 29.9927 18.789C30.0741 18.6791 30.13 18.5456 30.1603 18.3884H31.1433C31.1187 18.6971 31.0277 18.9708 30.8705 19.2094C30.7133 19.4462 30.4993 19.6318 30.2285 19.7662C29.9577 19.8988 29.6395 19.9651 29.274 19.9651ZM32.9792 18.4878L34.7264 15.5162H35.7832V19.8799H34.7889V16.9055L33.0474 19.8799H31.9877V15.5162H32.9792V18.4878ZM39.7257 15.5162V16.36H37.845V19.8799H36.8393V15.5162H39.7257ZM43.5474 17.2719V18.1157H41.2235V17.2719H43.5474ZM41.5417 15.5162V19.8799H40.5502V15.5162H41.5417ZM44.2207 15.5162V19.8799H43.2321V15.5162H44.2207ZM46.5169 19.968C46.2403 19.968 45.9913 19.9187 45.7697 19.8202C45.55 19.7198 45.3758 19.5721 45.247 19.377C45.1201 19.182 45.0566 18.9414 45.0566 18.6555C45.0566 18.4092 45.1021 18.2056 45.193 18.0447C45.2839 17.8837 45.408 17.7549 45.5651 17.6583C45.7223 17.5617 45.8994 17.4888 46.0964 17.4395C46.2953 17.3884 46.5008 17.3515 46.7129 17.3287C46.9686 17.3022 47.1759 17.2786 47.335 17.2577C47.4941 17.235 47.6097 17.2009 47.6816 17.1555C47.7555 17.1081 47.7924 17.0352 47.7924 16.9367V16.9197C47.7924 16.7056 47.729 16.5399 47.6021 16.4225C47.4752 16.3051 47.2924 16.2464 47.0538 16.2464C46.8019 16.2464 46.6021 16.3013 46.4544 16.4111C46.3085 16.521 46.21 16.6507 46.1589 16.8003L45.1987 16.664C45.2744 16.3988 45.3994 16.1772 45.5737 15.9992C45.7479 15.8193 45.961 15.6848 46.2129 15.5958C46.4648 15.5049 46.7432 15.4594 47.0481 15.4594C47.2583 15.4594 47.4676 15.484 47.6759 15.5333C47.8843 15.5825 48.0746 15.664 48.247 15.7776C48.4193 15.8894 48.5576 16.0418 48.6617 16.235C48.7678 16.4282 48.8208 16.6697 48.8208 16.9594V19.8799H47.8322V19.2805H47.7981C47.7356 19.4017 47.6475 19.5153 47.5339 19.6214C47.4222 19.7255 47.2811 19.8098 47.1106 19.8742C46.942 19.9367 46.7441 19.968 46.5169 19.968ZM46.7839 19.2123C46.9903 19.2123 47.1693 19.1715 47.3208 19.0901C47.4723 19.0068 47.5888 18.8969 47.6703 18.7606C47.7536 18.6242 47.7953 18.4755 47.7953 18.3145V17.8003C47.7631 17.8269 47.7081 17.8515 47.6305 17.8742C47.5547 17.8969 47.4695 17.9168 47.3748 17.9339C47.2801 17.9509 47.1864 17.9661 47.0936 17.9793C47.0008 17.9926 46.9203 18.0039 46.8521 18.0134C46.6987 18.0342 46.5614 18.0683 46.4401 18.1157C46.3189 18.163 46.2233 18.2293 46.1532 18.3145C46.0831 18.3979 46.0481 18.5058 46.0481 18.6384C46.0481 18.8278 46.1172 18.9708 46.2555 19.0674C46.3937 19.164 46.5699 19.2123 46.7839 19.2123ZM49.5538 19.8799L49.5481 19.0333H49.6987C49.8123 19.0333 49.908 19.0077 49.9856 18.9566C50.0633 18.9055 50.1276 18.8202 50.1788 18.7009C50.2299 18.5797 50.2697 18.4168 50.2981 18.2123C50.3265 18.0077 50.3464 17.753 50.3578 17.4481L50.4345 15.5162H53.6163V19.8799H52.622V16.36H51.3691L51.3009 17.7662C51.2839 18.1299 51.2432 18.4452 51.1788 18.7123C51.1163 18.9774 51.0273 19.1962 50.9117 19.3685C50.7981 19.5409 50.6551 19.6697 50.4828 19.7549C50.3104 19.8382 50.1068 19.8799 49.872 19.8799H49.5538Z" fill="black"/>
<path d="M72.6137 14.9312H73.2274V15.4979C73.2274 15.6032 73.2073 15.6923 73.157 15.7732C73.1067 15.8461 73.0363 15.9028 72.9457 15.9433C72.8552 15.9838 72.7445 16 72.6137 16C72.4829 16 72.3722 15.9838 72.2817 15.9433C72.1912 15.9028 72.1207 15.8542 72.0704 15.7813C72.0201 15.7085 72 15.6275 72 15.5222V14.502C72 14.3968 72.0201 14.3077 72.0704 14.2267C72.1207 14.1538 72.1912 14.0972 72.2817 14.0567C72.3722 14.0162 72.4829 14 72.6137 14C72.7445 14 72.8451 14.0162 72.9356 14.0567C73.0262 14.0972 73.0966 14.1538 73.1368 14.2267C73.1871 14.2996 73.2073 14.3887 73.2073 14.4939V14.5911H72.8954V14.4939C72.8954 14.4048 72.8753 14.3401 72.825 14.2915C72.7747 14.2429 72.7042 14.2186 72.6137 14.2186C72.5131 14.2186 72.4326 14.2429 72.3823 14.2915C72.332 14.3401 72.3018 14.413 72.3018 14.502V15.5222C72.3018 15.6032 72.332 15.668 72.3924 15.7085C72.4527 15.757 72.5332 15.7732 72.6338 15.7732C72.7344 15.7732 72.8149 15.749 72.8652 15.7004C72.9256 15.6518 72.9457 15.5789 72.9457 15.4979V15.1336H72.6238V14.9231L72.6137 14.9312Z" fill="#3C3C3B"/>
<path d="M73.5386 15.9834V14.0239H73.8002L74.5447 15.5786L74.4944 15.6109V14.0239H74.7761V15.9834H74.5044L73.76 14.4531L73.8103 14.4207V15.9834H73.5286H73.5386Z" fill="#3C3C3B"/>
<path d="M75.1392 15.9834V14.0239H75.4309V15.9834H75.1392ZM75.3102 15.9834V15.7729H75.8535C75.9138 15.7729 75.9641 15.7567 75.9943 15.7324C76.0245 15.7081 76.0446 15.6676 76.0446 15.6109V14.3964C76.0446 14.3478 76.0245 14.3073 75.9943 14.2749C75.9641 14.2507 75.9138 14.2345 75.8535 14.2345H75.3102V14.0239H75.8434C76.0044 14.0239 76.1251 14.0563 76.2056 14.1211C76.2861 14.1859 76.3364 14.283 76.3364 14.4045V15.6028C76.3364 15.6838 76.3163 15.7486 76.276 15.8134C76.2358 15.87 76.1855 15.9105 76.105 15.9429C76.0346 15.9753 75.944 15.9834 75.8333 15.9834H75.3001H75.3102Z" fill="#3C3C3B"/>
</svg>
