<svg width="93" height="24" viewBox="0 0 93 24" fill="none" xmlns="http://www.w3.org/2000/svg">
<path d="M27.5716 4.0617V9.87988H26.5262V4.9367H23.9807V9.87988H22.9352V4.0617H27.5716ZM28.7868 11.5162V5.51625H29.7982V6.23784H29.8578C29.9109 6.13178 29.9857 6.01909 30.0823 5.89977C30.1789 5.77856 30.3095 5.67534 30.4743 5.59011C30.6391 5.50299 30.8493 5.45943 31.105 5.45943C31.4421 5.45943 31.7461 5.5456 32.0169 5.71795C32.2896 5.88841 32.5056 6.14125 32.6646 6.47647C32.8256 6.80981 32.9061 7.2189 32.9061 7.70375C32.9061 8.18291 32.8275 8.59011 32.6703 8.92534C32.5131 9.26056 32.2991 9.51625 32.0283 9.69238C31.7574 9.86852 31.4506 9.95659 31.1078 9.95659C30.8578 9.95659 30.6504 9.91492 30.4857 9.83159C30.3209 9.74825 30.1883 9.64788 30.0879 9.53045C29.9895 9.41113 29.9128 9.29844 29.8578 9.19238H29.8152V11.5162H28.7868ZM29.7953 7.69806C29.7953 7.98026 29.8351 8.22742 29.9146 8.43954C29.9961 8.65166 30.1126 8.81738 30.2641 8.9367C30.4175 9.05413 30.6031 9.11284 30.8209 9.11284C31.0482 9.11284 31.2385 9.05223 31.3919 8.93102C31.5453 8.80791 31.6609 8.6403 31.7385 8.42818C31.8181 8.21416 31.8578 7.97079 31.8578 7.69806C31.8578 7.42723 31.819 7.1867 31.7414 6.97647C31.6637 6.76625 31.5482 6.60147 31.3948 6.48216C31.2414 6.36284 31.0501 6.30318 30.8209 6.30318C30.6012 6.30318 30.4146 6.36094 30.2612 6.47647C30.1078 6.592 29.9914 6.75394 29.9118 6.96227C29.8342 7.1706 29.7953 7.41587 29.7953 7.69806ZM35.6902 9.96511C35.2641 9.96511 34.8948 9.87136 34.5823 9.68386C34.2698 9.49636 34.0273 9.23405 33.855 8.89693C33.6845 8.55981 33.5993 8.16587 33.5993 7.71511C33.5993 7.26435 33.6845 6.86947 33.855 6.53045C34.0273 6.19144 34.2698 5.92818 34.5823 5.74068C34.8948 5.55318 35.2641 5.45943 35.6902 5.45943C36.1164 5.45943 36.4857 5.55318 36.7982 5.74068C37.1107 5.92818 37.3521 6.19144 37.5226 6.53045C37.6949 6.86947 37.7811 7.26435 37.7811 7.71511C37.7811 8.16587 37.6949 8.55981 37.5226 8.89693C37.3521 9.23405 37.1107 9.49636 36.7982 9.68386C36.4857 9.87136 36.1164 9.96511 35.6902 9.96511ZM35.6959 9.14125C35.927 9.14125 36.1201 9.0778 36.2754 8.95091C36.4307 8.82212 36.5463 8.64977 36.622 8.43386C36.6997 8.21795 36.7385 7.97742 36.7385 7.71227C36.7385 7.44522 36.6997 7.20375 36.622 6.98784C36.5463 6.77003 36.4307 6.59674 36.2754 6.46795C36.1201 6.33916 35.927 6.27477 35.6959 6.27477C35.4592 6.27477 35.2622 6.33916 35.105 6.46795C34.9497 6.59674 34.8332 6.77003 34.7556 6.98784C34.6798 7.20375 34.6419 7.44522 34.6419 7.71227C34.6419 7.97742 34.6798 8.21795 34.7556 8.43386C34.8332 8.64977 34.9497 8.82212 35.105 8.95091C35.2622 9.0778 35.4592 9.14125 35.6959 9.14125ZM39.6455 8.48784L41.3926 5.51625H42.4494V9.87988H41.4551V6.90545L39.7137 9.87988H38.654V5.51625H39.6455V8.48784ZM43.2641 8.68386H44.284C44.2934 8.84674 44.3664 8.97269 44.5027 9.0617C44.6391 9.15072 44.8162 9.19522 45.034 9.19522C45.2556 9.19522 45.4421 9.14693 45.5936 9.05034C45.747 8.95185 45.8237 8.80318 45.8237 8.60431C45.8237 8.48689 45.7944 8.38367 45.7357 8.29466C45.677 8.20375 45.5946 8.13367 45.4885 8.08443C45.3824 8.03519 45.2574 8.01056 45.1135 8.01056H44.4459V7.28045H45.1135C45.3275 7.28045 45.4895 7.23121 45.5993 7.13272C45.711 7.03424 45.7669 6.91019 45.7669 6.76056C45.7669 6.59958 45.7082 6.4689 45.5908 6.36852C45.4753 6.26814 45.3152 6.21795 45.1107 6.21795C44.9061 6.21795 44.7357 6.26435 44.5993 6.35716C44.4648 6.44996 44.3948 6.56928 44.3891 6.71511H43.3749C43.3787 6.46132 43.4544 6.24068 43.6021 6.05318C43.7518 5.86568 43.9525 5.71984 44.2044 5.61568C44.4582 5.51151 44.7442 5.45943 45.0624 5.45943C45.4033 5.45943 45.6978 5.51056 45.9459 5.61284C46.194 5.71511 46.3853 5.8581 46.5198 6.04181C46.6542 6.22363 46.7215 6.43765 46.7215 6.68386C46.7215 6.9206 46.6476 7.11663 46.4999 7.27193C46.3521 7.42534 46.1533 7.53519 45.9033 7.60147V7.64693C46.0756 7.6564 46.2309 7.70564 46.3692 7.79466C46.5074 7.88178 46.6173 8.00015 46.6987 8.14977C46.7802 8.29939 46.8209 8.47269 46.8209 8.66966C46.8209 8.9367 46.7442 9.16776 46.5908 9.36284C46.4374 9.55602 46.2262 9.70469 45.9573 9.80886C45.6902 9.91303 45.3843 9.96511 45.0396 9.96511C44.7044 9.96511 44.4042 9.91492 44.1391 9.81454C43.8758 9.71227 43.6665 9.56549 43.5112 9.3742C43.3559 9.18291 43.2735 8.9528 43.2641 8.68386ZM47.6306 9.87988V5.51625H49.4629C49.98 5.51625 50.3881 5.61947 50.6874 5.82591C50.9885 6.03234 51.1391 6.32022 51.1391 6.68954C51.1391 6.93386 51.0539 7.13367 50.8834 7.28897C50.7148 7.44238 50.4847 7.5456 50.1931 7.59863C50.4222 7.61757 50.623 7.67534 50.7953 7.77193C50.9696 7.86852 51.1059 7.99541 51.2044 8.15261C51.3029 8.30981 51.3521 8.49068 51.3521 8.69522C51.3521 8.93575 51.2887 9.14503 51.1618 9.32306C51.0368 9.4992 50.854 9.63651 50.6135 9.735C50.3749 9.83159 50.0851 9.87988 49.7442 9.87988H47.6306ZM48.5936 9.07022H49.7442C49.9336 9.07022 50.0823 9.02572 50.1902 8.9367C50.2982 8.84579 50.3521 8.72269 50.3521 8.56738C50.3521 8.38746 50.2982 8.24636 50.1902 8.14409C50.0823 8.03992 49.9336 7.98784 49.7442 7.98784H48.5936V9.07022ZM48.5936 7.32306H49.4828C49.623 7.32306 49.7432 7.30318 49.8436 7.26341C49.944 7.22174 50.0207 7.16397 50.0737 7.09011C50.1268 7.01435 50.1533 6.92439 50.1533 6.82022C50.1533 6.6706 50.0917 6.55318 49.9686 6.46795C49.8474 6.38272 49.6789 6.34011 49.4629 6.34011H48.5936V7.32306ZM54.1043 9.96511C53.6781 9.96511 53.3088 9.87136 52.9963 9.68386C52.6838 9.49636 52.4414 9.23405 52.269 8.89693C52.0986 8.55981 52.0134 8.16587 52.0134 7.71511C52.0134 7.26435 52.0986 6.86947 52.269 6.53045C52.4414 6.19144 52.6838 5.92818 52.9963 5.74068C53.3088 5.55318 53.6781 5.45943 54.1043 5.45943C54.5304 5.45943 54.8997 5.55318 55.2122 5.74068C55.5247 5.92818 55.7662 6.19144 55.9367 6.53045C56.109 6.86947 56.1952 7.26435 56.1952 7.71511C56.1952 8.16587 56.109 8.55981 55.9367 8.89693C55.7662 9.23405 55.5247 9.49636 55.2122 9.68386C54.8997 9.87136 54.5304 9.96511 54.1043 9.96511ZM54.11 9.14125C54.341 9.14125 54.5342 9.0778 54.6895 8.95091C54.8448 8.82212 54.9603 8.64977 55.0361 8.43386C55.1137 8.21795 55.1526 7.97742 55.1526 7.71227C55.1526 7.44522 55.1137 7.20375 55.0361 6.98784C54.9603 6.77003 54.8448 6.59674 54.6895 6.46795C54.5342 6.33916 54.341 6.27477 54.11 6.27477C53.8732 6.27477 53.6762 6.33916 53.519 6.46795C53.3637 6.59674 53.2473 6.77003 53.1696 6.98784C53.0939 7.20375 53.056 7.44522 53.056 7.71227C53.056 7.97742 53.0939 8.21795 53.1696 8.43386C53.2473 8.64977 53.3637 8.82212 53.519 8.95091C53.6762 9.0778 53.8732 9.14125 54.11 9.14125ZM56.7669 9.87988L56.7612 9.03329H56.9118C57.0254 9.03329 57.1211 9.00772 57.1987 8.95659C57.2764 8.90545 57.3408 8.82022 57.3919 8.70091C57.4431 8.57969 57.4828 8.41681 57.5112 8.21227C57.5396 8.00772 57.5595 7.75299 57.5709 7.44806L57.6476 5.51625H60.8294V9.87988H59.8351V6.36H58.5823L58.5141 7.76625C58.497 8.12988 58.4563 8.44522 58.3919 8.71227C58.3294 8.97742 58.2404 9.19617 58.1249 9.36852C58.0112 9.54087 57.8682 9.66966 57.6959 9.75488C57.5235 9.83822 57.3199 9.87988 57.0851 9.87988H56.7669ZM62.561 6.9367H63.8479C64.4047 6.9367 64.8356 7.07212 65.1405 7.34295C65.4454 7.61378 65.5988 7.9689 65.6007 8.40829C65.5988 8.69428 65.5288 8.94806 65.3905 9.16966C65.2541 9.39125 65.0553 9.56549 64.7939 9.69238C64.5344 9.81738 64.2191 9.87988 63.8479 9.87988H61.8649V5.51625H62.8564V9.03613H63.8479C64.0714 9.03613 64.2551 8.97931 64.399 8.86568C64.543 8.75015 64.6149 8.60242 64.6149 8.4225C64.6149 8.2331 64.543 8.07875 64.399 7.95943C64.2551 7.84011 64.0714 7.78045 63.8479 7.78045H62.561V6.9367ZM69.4793 7.27193V8.11568H67.1554V7.27193H69.4793ZM67.4736 5.51625V9.87988H66.4821V5.51625H67.4736ZM70.1526 5.51625V9.87988H69.1639V5.51625H70.1526ZM71.8891 6.9367H73.176C73.7328 6.9367 74.1637 7.07212 74.4686 7.34295C74.7735 7.61378 74.927 7.9689 74.9289 8.40829C74.927 8.69428 74.8569 8.94806 74.7186 9.16966C74.5823 9.39125 74.3834 9.56549 74.122 9.69238C73.8626 9.81738 73.5472 9.87988 73.176 9.87988H71.1931V5.51625H72.1845V9.03613H73.176C73.3995 9.03613 73.5832 8.97931 73.7271 8.86568C73.8711 8.75015 73.9431 8.60242 73.9431 8.4225C73.9431 8.2331 73.8711 8.07875 73.7271 7.95943C73.5832 7.84011 73.3995 7.78045 73.176 7.78045H71.8891V6.9367ZM75.4715 9.87988V5.51625H76.4999V9.87988H75.4715ZM78.5517 8.48784L80.2989 5.51625H81.3557V9.87988H80.3614V6.90545L78.6199 9.87988H77.5602V5.51625H78.5517V8.48784ZM80.0176 4.01625H80.7875C80.7875 4.34769 80.6673 4.61662 80.4267 4.82306C80.1881 5.02761 79.8642 5.12988 79.4551 5.12988C79.0498 5.12988 78.7269 5.02761 78.4864 4.82306C78.2477 4.61662 78.1294 4.34769 78.1313 4.01625H78.8955C78.8955 4.15261 78.9371 4.27477 79.0205 4.38272C79.1057 4.48878 79.2506 4.54181 79.4551 4.54181C79.6559 4.54181 79.7989 4.48878 79.8841 4.38272C79.9712 4.27666 80.0157 4.1545 80.0176 4.01625ZM40.8582 19.9651C40.4226 19.9651 40.0485 19.8695 39.736 19.6782C39.4254 19.4869 39.1858 19.2227 39.0173 18.8856C38.8506 18.5465 38.7673 18.1564 38.7673 17.7151C38.7673 17.2719 38.8525 16.8808 39.023 16.5418C39.1934 16.2009 39.4339 15.9358 39.7445 15.7464C40.057 15.5551 40.4264 15.4594 40.8525 15.4594C41.2067 15.4594 41.5201 15.5248 41.7928 15.6555C42.0675 15.7842 42.2862 15.967 42.4491 16.2037C42.612 16.4386 42.7048 16.7132 42.7275 17.0276H41.7445C41.7048 16.8174 41.6101 16.6422 41.4605 16.502C41.3127 16.36 41.1148 16.289 40.8667 16.289C40.6565 16.289 40.4718 16.3458 40.3127 16.4594C40.1536 16.5712 40.0296 16.7322 39.9406 16.9424C39.8534 17.1526 39.8099 17.4045 39.8099 17.6981C39.8099 17.9954 39.8534 18.2511 39.9406 18.4651C40.0277 18.6772 40.1498 18.8411 40.307 18.9566C40.4661 19.0702 40.6527 19.127 40.8667 19.127C41.0182 19.127 41.1536 19.0986 41.273 19.0418C41.3942 18.9831 41.4955 18.8988 41.5769 18.789C41.6584 18.6791 41.7142 18.5456 41.7445 18.3884H42.7275C42.7029 18.6971 42.612 18.9708 42.4548 19.2094C42.2976 19.4462 42.0836 19.6318 41.8127 19.7662C41.5419 19.8988 41.2237 19.9651 40.8582 19.9651ZM44.5634 18.4878L46.3106 15.5162H47.3674V19.8799H46.3731V16.9055L44.6316 19.8799H43.572V15.5162H44.5634V18.4878ZM51.3099 15.5162V16.36H49.4292V19.8799H48.4235V15.5162H51.3099ZM55.1316 17.2719V18.1157H52.8078V17.2719H55.1316ZM53.1259 15.5162V19.8799H52.1345V15.5162H53.1259ZM55.8049 15.5162V19.8799H54.8163V15.5162H55.8049ZM58.1011 19.968C57.8246 19.968 57.5755 19.9187 57.3539 19.8202C57.1342 19.7198 56.96 19.5721 56.8312 19.377C56.7043 19.182 56.6409 18.9414 56.6409 18.6555C56.6409 18.4092 56.6863 18.2056 56.7772 18.0447C56.8681 17.8837 56.9922 17.7549 57.1494 17.6583C57.3066 17.5617 57.4837 17.4888 57.6806 17.4395C57.8795 17.3884 58.085 17.3515 58.2971 17.3287C58.5528 17.3022 58.7602 17.2786 58.9193 17.2577C59.0784 17.235 59.1939 17.2009 59.2659 17.1555C59.3397 17.1081 59.3766 17.0352 59.3766 16.9367V16.9197C59.3766 16.7056 59.3132 16.5399 59.1863 16.4225C59.0594 16.3051 58.8766 16.2464 58.638 16.2464C58.3861 16.2464 58.1863 16.3013 58.0386 16.4111C57.8927 16.521 57.7943 16.6507 57.7431 16.8003L56.7829 16.664C56.8587 16.3988 56.9837 16.1772 57.1579 15.9992C57.3321 15.8193 57.5452 15.6848 57.7971 15.5958C58.049 15.5049 58.3274 15.4594 58.6323 15.4594C58.8426 15.4594 59.0518 15.484 59.2602 15.5333C59.4685 15.5825 59.6588 15.664 59.8312 15.7776C60.0035 15.8894 60.1418 16.0418 60.246 16.235C60.352 16.4282 60.4051 16.6697 60.4051 16.9594V19.8799H59.4164V19.2805H59.3823C59.3198 19.4017 59.2318 19.5153 59.1181 19.6214C59.0064 19.7255 58.8653 19.8098 58.6948 19.8742C58.5263 19.9367 58.3284 19.968 58.1011 19.968ZM58.3681 19.2123C58.5746 19.2123 58.7535 19.1715 58.9051 19.0901C59.0566 19.0068 59.1731 18.8969 59.2545 18.7606C59.3378 18.6242 59.3795 18.4755 59.3795 18.3145V17.8003C59.3473 17.8269 59.2924 17.8515 59.2147 17.8742C59.139 17.8969 59.0537 17.9168 58.959 17.9339C58.8643 17.9509 58.7706 17.9661 58.6778 17.9793C58.585 17.9926 58.5045 18.0039 58.4363 18.0134C58.2829 18.0342 58.1456 18.0683 58.0244 18.1157C57.9032 18.163 57.8075 18.2293 57.7374 18.3145C57.6674 18.3979 57.6323 18.5058 57.6323 18.6384C57.6323 18.8278 57.7015 18.9708 57.8397 19.0674C57.978 19.164 58.1541 19.2123 58.3681 19.2123ZM61.138 19.8799L61.1323 19.0333H61.2829C61.3965 19.0333 61.4922 19.0077 61.5698 18.9566C61.6475 18.9055 61.7119 18.8202 61.763 18.7009C61.8141 18.5797 61.8539 18.4168 61.8823 18.2123C61.9107 18.0077 61.9306 17.753 61.942 17.4481L62.0187 15.5162H65.2005V19.8799H64.2062V16.36H62.9534L62.8852 17.7662C62.8681 18.1299 62.8274 18.4452 62.763 18.7123C62.7005 18.9774 62.6115 19.1962 62.496 19.3685C62.3823 19.5409 62.2393 19.6697 62.067 19.7549C61.8946 19.8382 61.691 19.8799 61.4562 19.8799H61.138Z" fill="black"/>
<rect x="0.5" y="0.5" width="92" height="23" rx="1.5" fill="#F0F0F0" stroke="black"/>
<path d="M2.69043 18.4399L11.6331 18.4399L11.6331 4.99994L2.69043 4.99994" fill="#AFD5A9"/>
<path d="M2.69043 18.4399L11.6331 18.4399L11.6331 4.99994L2.69043 4.99994" stroke="#212830" stroke-width="0.25" stroke-miterlimit="10"/>
<path d="M0.999999 4.99994L1 18.4399L2.68129 18.4399L2.68129 4.99994L0.999999 4.99994Z" fill="#5EB34A" stroke="#1D1D1B" stroke-width="0.25" stroke-miterlimit="10"/>
<path d="M11.6328 4.99994L11.6328 18.4399L15.5316 18.4399L15.5316 4.99994L11.6328 4.99994Z" fill="#5EB34A" stroke="#1D1D1B" stroke-width="0.25" stroke-miterlimit="10"/>
<path d="M15.5406 16.3367L12.6233 16.3367L12.6233 13.749L15.5406 13.749L15.5406 9.65628L12.6233 9.65628L12.6233 7.06862L15.5406 7.06862" fill="#0C9B47"/>
<path d="M15.5406 16.3367L12.6233 16.3367L12.6233 13.749L15.5406 13.749L15.5406 9.65628L12.6233 9.65628L12.6233 7.06862L15.5406 7.06862" stroke="#212830" stroke-width="0.25" stroke-miterlimit="10"/>
<path class="DI-IN" d="M7.11582 10.968L7.61567 10.924L8.10642 10.7656L8.51538 10.5719L8.92435 10.2551L9.25152 9.85021L9.46054 9.45414L9.62413 8.97886L9.66957 8.50357L9.62413 8.02828L9.46054 7.5442L9.25152 7.14813L8.92435 6.75206L8.51538 6.4352L8.10642 6.23276L7.61567 6.07433L7.11582 6.03913L6.62507 6.07433L6.13431 6.23276L5.72535 6.4352L5.31639 6.75206L4.98922 7.14813L4.78019 7.5442L4.61661 8.02828L4.57117 8.50357L4.61661 8.97886L4.78019 9.45414L4.98922 9.85021L5.31639 10.2551L5.72535 10.5719L6.13431 10.7656L6.62507 10.924L7.11582 10.968Z" fill="#C8C8CA"/>
<path d="M8.94283 6.73425L5.28943 10.2285M7.11582 10.968L7.61567 10.924L8.10642 10.7656L8.51538 10.5719L8.92435 10.2551L9.25152 9.85021L9.46054 9.45414L9.62413 8.97886L9.66957 8.50357L9.62413 8.02828L9.46054 7.5442L9.25152 7.14813L8.92435 6.75206L8.51538 6.4352L8.10642 6.23276L7.61567 6.07433L7.11582 6.03913L6.62507 6.07433L6.13431 6.23276L5.72535 6.4352L5.31639 6.75206L4.98922 7.14813L4.78019 7.5442L4.61661 8.02828L4.57117 8.50357L4.61661 8.97886L4.78019 9.45414L4.98922 9.85021L5.31639 10.2551L5.72535 10.5719L6.13431 10.7656L6.62507 10.924L7.11582 10.968Z" stroke="#212830" stroke-width="0.25" stroke-miterlimit="10"/>
<path d="M7.16155 17.1735L7.65231 17.1295L8.14306 16.971L8.56111 16.7686L8.97007 16.4517L9.29724 16.0557L9.49718 15.6596L9.66986 15.1843L9.70621 14.7002L9.66986 14.2249L9.49718 13.7497L9.29724 13.3536L8.97007 12.9575L8.56111 12.6407L8.14306 12.4382L7.65231 12.2798L7.16155 12.2358L6.6708 12.2798L6.18004 12.4382L5.76199 12.6407L5.35303 12.9575L5.02586 13.3536L4.82592 13.7497L4.65325 14.2249L4.61689 14.7002L4.65325 15.1843L4.82592 15.6596L5.02586 16.0557L5.35303 16.4517L5.76199 16.7686L6.18004 16.971L6.6708 17.1295L7.16155 17.1735Z" fill="#C8C8CA"/>
<path d="M8.98839 12.931L5.33499 16.4253M7.16155 17.1735L7.65231 17.1295L8.14306 16.971L8.56111 16.7686L8.97007 16.4517L9.29724 16.0557L9.49718 15.6596L9.66986 15.1843L9.70621 14.7002L9.66986 14.2249L9.49718 13.7497L9.29724 13.3536L8.97007 12.9575L8.56111 12.6407L8.14306 12.4382L7.65231 12.2798L7.16155 12.2358L6.6708 12.2798L6.18004 12.4382L5.76199 12.6407L5.35303 12.9575L5.02586 13.3536L4.82592 13.7497L4.65325 14.2249L4.61689 14.7002L4.65325 15.1843L4.82592 15.6596L5.02586 16.0557L5.35303 16.4517L5.76199 16.7686L6.18004 16.971L6.6708 17.1295L7.16155 17.1735Z" stroke="#212830" stroke-width="0.25" stroke-miterlimit="10"/>
<path d="M17.6137 14.9312H18.2274V15.4979C18.2274 15.6032 18.2073 15.6923 18.157 15.7732C18.1067 15.8461 18.0363 15.9028 17.9457 15.9433C17.8552 15.9838 17.7445 16 17.6137 16C17.4829 16 17.3722 15.9838 17.2817 15.9433C17.1912 15.9028 17.1207 15.8542 17.0704 15.7813C17.0201 15.7085 17 15.6275 17 15.5222V14.502C17 14.3968 17.0201 14.3077 17.0704 14.2267C17.1207 14.1538 17.1912 14.0972 17.2817 14.0567C17.3722 14.0162 17.4829 14 17.6137 14C17.7445 14 17.8451 14.0162 17.9356 14.0567C18.0262 14.0972 18.0966 14.1538 18.1368 14.2267C18.1871 14.2996 18.2073 14.3887 18.2073 14.4939V14.5911H17.8954V14.4939C17.8954 14.4048 17.8753 14.3401 17.825 14.2915C17.7747 14.2429 17.7042 14.2186 17.6137 14.2186C17.5131 14.2186 17.4326 14.2429 17.3823 14.2915C17.332 14.3401 17.3018 14.413 17.3018 14.502V15.5222C17.3018 15.6032 17.332 15.668 17.3924 15.7085C17.4527 15.757 17.5332 15.7732 17.6338 15.7732C17.7344 15.7732 17.8149 15.749 17.8652 15.7004C17.9256 15.6518 17.9457 15.5789 17.9457 15.4979V15.1336H17.6238V14.9231L17.6137 14.9312Z" fill="#3C3C3B"/>
<path d="M18.5386 15.9834V14.0239H18.8002L19.5447 15.5786L19.4944 15.6109V14.0239H19.7761V15.9834H19.5044L18.76 14.4531L18.8103 14.4207V15.9834H18.5286H18.5386Z" fill="#3C3C3B"/>
<path d="M20.1392 15.9834V14.0239H20.4309V15.9834H20.1392ZM20.3102 15.9834V15.7729H20.8535C20.9138 15.7729 20.9641 15.7567 20.9943 15.7324C21.0245 15.7081 21.0446 15.6676 21.0446 15.6109V14.3964C21.0446 14.3478 21.0245 14.3073 20.9943 14.2749C20.9641 14.2507 20.9138 14.2345 20.8535 14.2345H20.3102V14.0239H20.8434C21.0044 14.0239 21.1251 14.0563 21.2056 14.1211C21.2861 14.1859 21.3364 14.283 21.3364 14.4045V15.6028C21.3364 15.6838 21.3163 15.7486 21.276 15.8134C21.2358 15.87 21.1855 15.9105 21.105 15.9429C21.0346 15.9753 20.944 15.9834 20.8333 15.9834H20.3001H20.3102Z" fill="#3C3C3B"/>
<path d="M26.9874 4.18182V10H25.9419V5.05682H23.3965V10H22.351V4.18182H26.9874ZM28.2026 11.6364V5.63636H29.2139V6.35795H29.2736C29.3266 6.25189 29.4014 6.1392 29.498 6.01989C29.5946 5.89867 29.7253 5.79545 29.8901 5.71023C30.0548 5.62311 30.2651 5.57955 30.5208 5.57955C30.8579 5.57955 31.1619 5.66572 31.4327 5.83807C31.7054 6.00852 31.9213 6.26136 32.0804 6.59659C32.2414 6.92992 32.3219 7.33902 32.3219 7.82386C32.3219 8.30303 32.2433 8.71023 32.0861 9.04545C31.9289 9.38068 31.7149 9.63636 31.4441 9.8125C31.1732 9.98864 30.8664 10.0767 30.5236 10.0767C30.2736 10.0767 30.0662 10.035 29.9014 9.9517C29.7367 9.86837 29.6041 9.76799 29.5037 9.65057C29.4052 9.53125 29.3285 9.41856 29.2736 9.3125H29.231V11.6364H28.2026ZM29.2111 7.81818C29.2111 8.10038 29.2509 8.34754 29.3304 8.55966C29.4119 8.77178 29.5283 8.9375 29.6798 9.05682C29.8333 9.17424 30.0189 9.23295 30.2367 9.23295C30.4639 9.23295 30.6543 9.17235 30.8077 9.05114C30.9611 8.92803 31.0766 8.76042 31.1543 8.5483C31.2338 8.33428 31.2736 8.09091 31.2736 7.81818C31.2736 7.54735 31.2348 7.30682 31.1571 7.09659C31.0795 6.88636 30.9639 6.72159 30.8105 6.60227C30.6571 6.48295 30.4658 6.4233 30.2367 6.4233C30.017 6.4233 29.8304 6.48106 29.677 6.59659C29.5236 6.71212 29.4071 6.87405 29.3276 7.08239C29.2499 7.29072 29.2111 7.53598 29.2111 7.81818ZM35.106 10.0852C34.6798 10.0852 34.3105 9.99148 33.998 9.80398C33.6855 9.61648 33.4431 9.35417 33.2708 9.01705C33.1003 8.67992 33.0151 8.28598 33.0151 7.83523C33.0151 7.38447 33.1003 6.98958 33.2708 6.65057C33.4431 6.31155 33.6855 6.0483 33.998 5.8608C34.3105 5.6733 34.6798 5.57955 35.106 5.57955C35.5321 5.57955 35.9014 5.6733 36.2139 5.8608C36.5264 6.0483 36.7679 6.31155 36.9384 6.65057C37.1107 6.98958 37.1969 7.38447 37.1969 7.83523C37.1969 8.28598 37.1107 8.67992 36.9384 9.01705C36.7679 9.35417 36.5264 9.61648 36.2139 9.80398C35.9014 9.99148 35.5321 10.0852 35.106 10.0852ZM35.1117 9.26136C35.3427 9.26136 35.5359 9.19792 35.6912 9.07102C35.8465 8.94223 35.962 8.76989 36.0378 8.55398C36.1155 8.33807 36.1543 8.09754 36.1543 7.83239C36.1543 7.56534 36.1155 7.32386 36.0378 7.10795C35.962 6.89015 35.8465 6.71686 35.6912 6.58807C35.5359 6.45928 35.3427 6.39489 35.1117 6.39489C34.8749 6.39489 34.678 6.45928 34.5208 6.58807C34.3655 6.71686 34.249 6.89015 34.1713 7.10795C34.0956 7.32386 34.0577 7.56534 34.0577 7.83239C34.0577 8.09754 34.0956 8.33807 34.1713 8.55398C34.249 8.76989 34.3655 8.94223 34.5208 9.07102C34.678 9.19792 34.8749 9.26136 35.1117 9.26136ZM39.0612 8.60795L40.8084 5.63636H41.8652V10H40.8709V7.02557L39.1294 10H38.0698V5.63636H39.0612V8.60795ZM42.6798 8.80398H43.6997C43.7092 8.96686 43.7821 9.0928 43.9185 9.18182C44.0548 9.27083 44.2319 9.31534 44.4497 9.31534C44.6713 9.31534 44.8579 9.26705 45.0094 9.17045C45.1628 9.07197 45.2395 8.9233 45.2395 8.72443C45.2395 8.60701 45.2102 8.50379 45.1514 8.41477C45.0927 8.32386 45.0103 8.25379 44.9043 8.20455C44.7982 8.1553 44.6732 8.13068 44.5293 8.13068H43.8617V7.40057H44.5293C44.7433 7.40057 44.9052 7.35133 45.0151 7.25284C45.1268 7.15436 45.1827 7.0303 45.1827 6.88068C45.1827 6.7197 45.124 6.58902 45.0066 6.48864C44.891 6.38826 44.731 6.33807 44.5264 6.33807C44.3219 6.33807 44.1514 6.38447 44.0151 6.47727C43.8806 6.57008 43.8105 6.68939 43.8048 6.83523H42.7906C42.7944 6.58144 42.8702 6.3608 43.0179 6.1733C43.1675 5.9858 43.3683 5.83996 43.6202 5.7358C43.874 5.63163 44.16 5.57955 44.4781 5.57955C44.8191 5.57955 45.1136 5.63068 45.3617 5.73295C45.6098 5.83523 45.8011 5.97822 45.9355 6.16193C46.07 6.34375 46.1372 6.55777 46.1372 6.80398C46.1372 7.04072 46.0634 7.23674 45.9156 7.39205C45.7679 7.54545 45.5691 7.6553 45.3191 7.72159V7.76705C45.4914 7.77652 45.6467 7.82576 45.785 7.91477C45.9232 8.00189 46.0331 8.12027 46.1145 8.26989C46.1959 8.41951 46.2367 8.5928 46.2367 8.78977C46.2367 9.05682 46.16 9.28788 46.0066 9.48295C45.8531 9.67614 45.642 9.82481 45.373 9.92898C45.106 10.0331 44.8001 10.0852 44.4554 10.0852C44.1202 10.0852 43.82 10.035 43.5548 9.93466C43.2916 9.83239 43.0823 9.68561 42.927 9.49432C42.7717 9.30303 42.6893 9.07292 42.6798 8.80398ZM47.0463 10V5.63636H48.8787C49.3958 5.63636 49.8039 5.73958 50.1031 5.94602C50.4043 6.15246 50.5548 6.44034 50.5548 6.80966C50.5548 7.05398 50.4696 7.25379 50.2992 7.40909C50.1306 7.5625 49.9005 7.66572 49.6088 7.71875C49.838 7.73769 50.0388 7.79545 50.2111 7.89205C50.3853 7.98864 50.5217 8.11553 50.6202 8.27273C50.7187 8.42992 50.7679 8.6108 50.7679 8.81534C50.7679 9.05587 50.7045 9.26515 50.5776 9.44318C50.4526 9.61932 50.2698 9.75663 50.0293 9.85511C49.7906 9.9517 49.5009 10 49.16 10H47.0463ZM48.0094 9.19034H49.16C49.3494 9.19034 49.498 9.14583 49.606 9.05682C49.7139 8.96591 49.7679 8.8428 49.7679 8.6875C49.7679 8.50758 49.7139 8.36648 49.606 8.2642C49.498 8.16004 49.3494 8.10795 49.16 8.10795H48.0094V9.19034ZM48.0094 7.44318H48.8986C49.0388 7.44318 49.159 7.4233 49.2594 7.38352C49.3598 7.34186 49.4365 7.28409 49.4895 7.21023C49.5425 7.13447 49.5691 7.04451 49.5691 6.94034C49.5691 6.79072 49.5075 6.6733 49.3844 6.58807C49.2632 6.50284 49.0946 6.46023 48.8787 6.46023H48.0094V7.44318ZM53.52 10.0852C53.0939 10.0852 52.7246 9.99148 52.4121 9.80398C52.0996 9.61648 51.8572 9.35417 51.6848 9.01705C51.5144 8.67992 51.4291 8.28598 51.4291 7.83523C51.4291 7.38447 51.5144 6.98958 51.6848 6.65057C51.8572 6.31155 52.0996 6.0483 52.4121 5.8608C52.7246 5.6733 53.0939 5.57955 53.52 5.57955C53.9462 5.57955 54.3155 5.6733 54.628 5.8608C54.9405 6.0483 55.182 6.31155 55.3524 6.65057C55.5248 6.98958 55.611 7.38447 55.611 7.83523C55.611 8.28598 55.5248 8.67992 55.3524 9.01705C55.182 9.35417 54.9405 9.61648 54.628 9.80398C54.3155 9.99148 53.9462 10.0852 53.52 10.0852ZM53.5257 9.26136C53.7568 9.26136 53.95 9.19792 54.1053 9.07102C54.2606 8.94223 54.3761 8.76989 54.4519 8.55398C54.5295 8.33807 54.5683 8.09754 54.5683 7.83239C54.5683 7.56534 54.5295 7.32386 54.4519 7.10795C54.3761 6.89015 54.2606 6.71686 54.1053 6.58807C53.95 6.45928 53.7568 6.39489 53.5257 6.39489C53.289 6.39489 53.092 6.45928 52.9348 6.58807C52.7795 6.71686 52.663 6.89015 52.5854 7.10795C52.5096 7.32386 52.4718 7.56534 52.4718 7.83239C52.4718 8.09754 52.5096 8.33807 52.5854 8.55398C52.663 8.76989 52.7795 8.94223 52.9348 9.07102C53.092 9.19792 53.289 9.26136 53.5257 9.26136ZM56.1827 10L56.177 9.15341H56.3276C56.4412 9.15341 56.5369 9.12784 56.6145 9.0767C56.6922 9.02557 56.7566 8.94034 56.8077 8.82102C56.8588 8.69981 56.8986 8.53693 56.927 8.33239C56.9554 8.12784 56.9753 7.87311 56.9867 7.56818L57.0634 5.63636H60.2452V10H59.2509V6.48011H57.998L57.9298 7.88636C57.9128 8.25 57.8721 8.56534 57.8077 8.83239C57.7452 9.09754 57.6562 9.31629 57.5406 9.48864C57.427 9.66098 57.284 9.78977 57.1117 9.875C56.9393 9.95833 56.7357 10 56.5009 10H56.1827ZM61.9767 7.05682H63.2637C63.8205 7.05682 64.2513 7.19223 64.5563 7.46307C64.8612 7.7339 65.0146 8.08902 65.0165 8.52841C65.0146 8.81439 64.9445 9.06818 64.8063 9.28977C64.6699 9.51136 64.471 9.68561 64.2097 9.8125C63.9502 9.9375 63.6349 10 63.2637 10H61.2807V5.63636H62.2722V9.15625H63.2637C63.4871 9.15625 63.6709 9.09943 63.8148 8.9858C63.9587 8.87027 64.0307 8.72254 64.0307 8.54261C64.0307 8.35322 63.9587 8.19886 63.8148 8.07955C63.6709 7.96023 63.4871 7.90057 63.2637 7.90057H61.9767V7.05682ZM68.895 7.39205V8.2358H66.5712V7.39205H68.895ZM66.8894 5.63636V10H65.8979V5.63636H66.8894ZM69.5683 5.63636V10H68.5797V5.63636H69.5683ZM71.3048 7.05682H72.5918C73.1486 7.05682 73.5795 7.19223 73.8844 7.46307C74.1893 7.7339 74.3427 8.08902 74.3446 8.52841C74.3427 8.81439 74.2727 9.06818 74.1344 9.28977C73.998 9.51136 73.7992 9.68561 73.5378 9.8125C73.2783 9.9375 72.963 10 72.5918 10H70.6088V5.63636H71.6003V9.15625H72.5918C72.8153 9.15625 72.999 9.09943 73.1429 8.9858C73.2869 8.87027 73.3588 8.72254 73.3588 8.54261C73.3588 8.35322 73.2869 8.19886 73.1429 8.07955C72.999 7.96023 72.8153 7.90057 72.5918 7.90057H71.3048V7.05682ZM74.8872 10V5.63636H75.9156V10H74.8872ZM77.9675 8.60795L79.7147 5.63636H80.7715V10H79.7772V7.02557L78.0357 10H76.976V5.63636H77.9675V8.60795ZM79.4334 4.13636H80.2033C80.2033 4.4678 80.083 4.73674 79.8425 4.94318C79.6039 5.14773 79.28 5.25 78.8709 5.25C78.4656 5.25 78.1427 5.14773 77.9022 4.94318C77.6635 4.73674 77.5451 4.4678 77.547 4.13636H78.3112C78.3112 4.27273 78.3529 4.39489 78.4362 4.50284C78.5215 4.6089 78.6664 4.66193 78.8709 4.66193C79.0717 4.66193 79.2147 4.6089 79.2999 4.50284C79.387 4.39678 79.4315 4.27462 79.4334 4.13636ZM40.274 20.0852C39.8383 20.0852 39.4643 19.9896 39.1518 19.7983C38.8412 19.607 38.6016 19.3428 38.433 19.0057C38.2664 18.6667 38.183 18.2765 38.183 17.8352C38.183 17.392 38.2683 17.0009 38.4387 16.6619C38.6092 16.321 38.8497 16.0559 39.1603 15.8665C39.4728 15.6752 39.8421 15.5795 40.2683 15.5795C40.6224 15.5795 40.9359 15.6449 41.2086 15.7756C41.4832 15.9044 41.702 16.0871 41.8649 16.3239C42.0277 16.5587 42.1205 16.8333 42.1433 17.1477H41.1603C41.1205 16.9375 41.0258 16.7623 40.8762 16.6222C40.7285 16.4801 40.5306 16.4091 40.2825 16.4091C40.0723 16.4091 39.8876 16.4659 39.7285 16.5795C39.5694 16.6913 39.4454 16.8523 39.3563 17.0625C39.2692 17.2727 39.2257 17.5246 39.2257 17.8182C39.2257 18.1155 39.2692 18.3712 39.3563 18.5852C39.4435 18.7973 39.5656 18.9612 39.7228 19.0767C39.8819 19.1903 40.0685 19.2472 40.2825 19.2472C40.434 19.2472 40.5694 19.2187 40.6887 19.1619C40.8099 19.1032 40.9113 19.0189 40.9927 18.9091C41.0741 18.7992 41.13 18.6657 41.1603 18.5085H42.1433C42.1187 18.8172 42.0277 19.0909 41.8705 19.3295C41.7133 19.5663 41.4993 19.7519 41.2285 19.8864C40.9577 20.0189 40.6395 20.0852 40.274 20.0852ZM43.9792 18.608L45.7264 15.6364H46.7832V20H45.7889V17.0256L44.0474 20H42.9877V15.6364H43.9792V18.608ZM50.7257 15.6364V16.4801H48.845V20H47.8393V15.6364H50.7257ZM54.5474 17.392V18.2358H52.2235V17.392H54.5474ZM52.5417 15.6364V20H51.5502V15.6364H52.5417ZM55.2207 15.6364V20H54.2321V15.6364H55.2207ZM57.5169 20.0881C57.2403 20.0881 56.9913 20.0388 56.7697 19.9403C56.55 19.84 56.3758 19.6922 56.247 19.4972C56.1201 19.3021 56.0566 19.0616 56.0566 18.7756C56.0566 18.5294 56.1021 18.3258 56.193 18.1648C56.2839 18.0038 56.408 17.875 56.5651 17.7784C56.7223 17.6818 56.8994 17.6089 57.0964 17.5597C57.2953 17.5085 57.5008 17.4716 57.7129 17.4489C57.9686 17.4223 58.1759 17.3987 58.335 17.3778C58.4941 17.3551 58.6097 17.321 58.6816 17.2756C58.7555 17.2282 58.7924 17.1553 58.7924 17.0568V17.0398C58.7924 16.8258 58.729 16.66 58.6021 16.5426C58.4752 16.4252 58.2924 16.3665 58.0538 16.3665C57.8019 16.3665 57.6021 16.4214 57.4544 16.5312C57.3085 16.6411 57.21 16.7708 57.1589 16.9205L56.1987 16.7841C56.2744 16.5189 56.3994 16.2973 56.5737 16.1193C56.7479 15.9394 56.961 15.8049 57.2129 15.7159C57.4648 15.625 57.7432 15.5795 58.0481 15.5795C58.2583 15.5795 58.4676 15.6042 58.6759 15.6534C58.8843 15.7027 59.0746 15.7841 59.247 15.8977C59.4193 16.0095 59.5576 16.1619 59.6617 16.3551C59.7678 16.5483 59.8208 16.7898 59.8208 17.0795V20H58.8322V19.4006H58.7981C58.7356 19.5218 58.6475 19.6354 58.5339 19.7415C58.4222 19.8456 58.2811 19.9299 58.1106 19.9943C57.942 20.0568 57.7441 20.0881 57.5169 20.0881ZM57.7839 19.3324C57.9903 19.3324 58.1693 19.2917 58.3208 19.2102C58.4723 19.1269 58.5888 19.017 58.6703 18.8807C58.7536 18.7443 58.7953 18.5956 58.7953 18.4347V17.9205C58.7631 17.947 58.7081 17.9716 58.6305 17.9943C58.5547 18.017 58.4695 18.0369 58.3748 18.054C58.2801 18.071 58.1864 18.0862 58.0936 18.0994C58.0008 18.1127 57.9203 18.1241 57.8521 18.1335C57.6987 18.1544 57.5614 18.1884 57.4401 18.2358C57.3189 18.2831 57.2233 18.3494 57.1532 18.4347C57.0831 18.518 57.0481 18.6259 57.0481 18.7585C57.0481 18.9479 57.1172 19.0909 57.2555 19.1875C57.3937 19.2841 57.5699 19.3324 57.7839 19.3324ZM60.5538 20L60.5481 19.1534H60.6987C60.8123 19.1534 60.908 19.1278 60.9856 19.0767C61.0633 19.0256 61.1276 18.9403 61.1788 18.821C61.2299 18.6998 61.2697 18.5369 61.2981 18.3324C61.3265 18.1278 61.3464 17.8731 61.3578 17.5682L61.4345 15.6364H64.6163V20H63.622V16.4801H62.3691L62.3009 17.8864C62.2839 18.25 62.2432 18.5653 62.1788 18.8324C62.1163 19.0975 62.0273 19.3163 61.9117 19.4886C61.7981 19.661 61.6551 19.7898 61.4828 19.875C61.3104 19.9583 61.1068 20 60.872 20H60.5538Z" fill="black"/>
</svg>
