<svg width="94" height="25" viewBox="0 0 94 25" fill="none" xmlns="http://www.w3.org/2000/svg">
<rect x="0.5" y="0.5" width="92.3131" height="24" rx="1.5" fill="#F0F0F0" stroke="black"/>
<path d="M90.5959 5.84399L81.8299 5.844L81.8299 19.16L90.5959 19.16" fill="#AFD5A9"/>
<path d="M90.5959 5.84399L81.8299 5.844L81.8299 19.16L90.5959 19.16" stroke="#212830" stroke-width="0.25" stroke-miterlimit="10"/>
<path d="M92.2532 19.16L92.2532 5.84399L90.6051 5.84399L90.6051 19.16L92.2532 19.16Z" fill="#5EB34A" stroke="#1D1D1B" stroke-width="0.25" stroke-miterlimit="10"/>
<path d="M81.8303 19.16L81.8303 5.84399L78.0085 5.84399L78.0086 19.16L81.8303 19.16Z" fill="#5EB34A" stroke="#1D1D1B" stroke-width="0.25" stroke-miterlimit="10"/>
<path d="M78 7.92798L80.8596 7.92798L80.8596 10.4918L78 10.4918L78 14.5467L80.8596 14.5467L80.8596 17.1105L78 17.1105" fill="#0C9B47"/>
<path d="M78 7.92798L80.8596 7.92798L80.8596 10.4918L78 10.4918L78 14.5467L80.8596 14.5467L80.8596 17.1105L78 17.1105" stroke="#212830" stroke-width="0.25" stroke-miterlimit="10"/>
<path d="M86.2583 13.2472L85.7683 13.2908L85.2873 13.4477L84.8864 13.6396L84.4855 13.9535L84.1648 14.3547L83.9599 14.7471L83.7995 15.218L83.755 15.6889L83.7995 16.1598L83.9599 16.6394L84.1648 17.0318L84.4855 17.4242L84.8864 17.7382L85.2873 17.9387L85.7683 18.0957L86.2583 18.1306L86.7394 18.0957L87.2204 17.9387L87.6213 17.7382L88.0222 17.4242L88.3429 17.0318L88.5478 16.6394L88.7081 16.1598L88.7527 15.6889L88.7081 15.218L88.5478 14.7471L88.3429 14.3547L88.0222 13.9535L87.6213 13.6396L87.2204 13.4477L86.7394 13.2908L86.2583 13.2472Z" fill="#C8C8CA"/>
<path d="M84.4674 17.4419L88.0486 13.9799M86.2583 13.2472L85.7683 13.2908L85.2873 13.4477L84.8864 13.6396L84.4855 13.9535L84.1648 14.3547L83.9599 14.7471L83.7995 15.218L83.755 15.6889L83.7995 16.1598L83.9599 16.6394L84.1648 17.0318L84.4855 17.4242L84.8864 17.7382L85.2873 17.9387L85.7683 18.0957L86.2583 18.1306L86.7394 18.0957L87.2204 17.9387L87.6213 17.7382L88.0222 17.4242L88.3429 17.0318L88.5478 16.6394L88.7081 16.1598L88.7527 15.6889L88.7081 15.218L88.5478 14.7471L88.3429 14.3547L88.0222 13.9535L87.6213 13.6396L87.2204 13.4477L86.7394 13.2908L86.2583 13.2472Z" stroke="#212830" stroke-width="0.25" stroke-miterlimit="10"/>
<path d="M86.2136 7.09888L85.7325 7.14248L85.2515 7.29945L84.8417 7.50002L84.4408 7.81395L84.1201 8.20637L83.9241 8.59878L83.7548 9.06968L83.7192 9.5493L83.7548 10.0202L83.9241 10.4911L84.1201 10.8835L84.4408 11.2759L84.8417 11.5899L85.2515 11.7904L85.7325 11.9474L86.2136 11.991L86.6946 11.9474L87.1757 11.7904L87.5855 11.5899L87.9864 11.2759L88.3071 10.8835L88.5031 10.4911L88.6723 10.0202L88.708 9.5493L88.6723 9.06968L88.5031 8.59878L88.3071 8.20637L87.9864 7.81395L87.5855 7.50002L87.1757 7.29945L86.6946 7.14248L86.2136 7.09888Z" fill="#C8C8CA"/>
<path d="M84.4228 11.3022L88.0041 7.84019M86.2136 7.09888L85.7325 7.14248L85.2515 7.29945L84.8417 7.50002L84.4408 7.81395L84.1201 8.20637L83.9241 8.59878L83.7548 9.06968L83.7192 9.5493L83.7548 10.0202L83.9241 10.4911L84.1201 10.8835L84.4408 11.2759L84.8417 11.5899L85.2515 11.7904L85.7325 11.9474L86.2136 11.991L86.6946 11.9474L87.1757 11.7904L87.5855 11.5899L87.9864 11.2759L88.3071 10.8835L88.5031 10.4911L88.6723 10.0202L88.708 9.5493L88.6723 9.06968L88.5031 8.59878L88.3071 8.20637L87.9864 7.81395L87.5855 7.50002L87.1757 7.29945L86.6946 7.14248L86.2136 7.09888Z" stroke="#212830" stroke-width="0.25" stroke-miterlimit="10"/>
<path d="M5.78906 16V8H8.85156C9.42969 8 9.91016 8.09115 10.293 8.27344C10.6784 8.45312 10.9661 8.69922 11.1563 9.01172C11.349 9.32422 11.4453 9.67839 11.4453 10.0742C11.4453 10.3997 11.3828 10.6784 11.2578 10.9102C11.1328 11.1393 10.9648 11.3255 10.7539 11.4687C10.543 11.612 10.3073 11.7148 10.0469 11.7773V11.8555C10.3307 11.8711 10.6029 11.9583 10.8633 12.1172C11.1263 12.2734 11.3411 12.4948 11.5078 12.7812C11.6745 13.0677 11.7578 13.4141 11.7578 13.8203C11.7578 14.2344 11.6576 14.6068 11.457 14.9375C11.2565 15.2656 10.9544 15.5247 10.5508 15.7148C10.1471 15.9049 9.63932 16 9.02734 16H5.78906ZM7.23828 14.7891H8.79688C9.32292 14.7891 9.70182 14.6888 9.93359 14.4883C10.168 14.2852 10.2852 14.0247 10.2852 13.707C10.2852 13.4701 10.2266 13.2565 10.1094 13.0664C9.99219 12.8737 9.82552 12.7227 9.60938 12.6133C9.39323 12.5013 9.13542 12.4453 8.83594 12.4453H7.23828V14.7891ZM7.23828 11.4023H8.67188C8.92188 11.4023 9.14714 11.3568 9.34766 11.2656C9.54818 11.1719 9.70573 11.0404 9.82031 10.8711C9.9375 10.6992 9.99609 10.4961 9.99609 10.2617C9.99609 9.95182 9.88672 9.69661 9.66797 9.49609C9.45182 9.29557 9.13021 9.19531 8.70313 9.19531H7.23828V11.4023ZM15.6123 16.1172C15.0107 16.1172 14.4912 15.9922 14.0537 15.7422C13.6188 15.4896 13.2842 15.1328 13.0498 14.6719C12.8154 14.2083 12.6982 13.6628 12.6982 13.0352C12.6982 12.418 12.8154 11.8763 13.0498 11.4102C13.2868 10.9414 13.6175 10.5768 14.042 10.3164C14.4665 10.0534 14.9652 9.92188 15.5381 9.92188C15.9079 9.92188 16.2568 9.98177 16.585 10.1016C16.9157 10.2187 17.2074 10.401 17.46 10.6484C17.7152 10.8958 17.9157 11.2109 18.0615 11.5937C18.2074 11.974 18.2803 12.4271 18.2803 12.9531V13.3867H13.3623V12.4336H16.9248C16.9222 12.1628 16.8636 11.9219 16.749 11.7109C16.6344 11.4974 16.4743 11.3294 16.2686 11.207C16.0654 11.0846 15.8285 11.0234 15.5576 11.0234C15.2686 11.0234 15.0146 11.0937 14.7959 11.2344C14.5771 11.3724 14.4066 11.5547 14.2842 11.7812C14.1644 12.0052 14.1032 12.2513 14.1006 12.5195V13.3516C14.1006 13.7005 14.1644 14 14.292 14.25C14.4196 14.4974 14.598 14.6875 14.8271 14.8203C15.0563 14.9505 15.3245 15.0156 15.6318 15.0156C15.8376 15.0156 16.0238 14.987 16.1904 14.9297C16.3571 14.8698 16.5016 14.7826 16.624 14.668C16.7464 14.5534 16.8389 14.4115 16.9014 14.2422L18.2217 14.3906C18.1383 14.7396 17.9795 15.0443 17.7451 15.3047C17.5133 15.5625 17.2165 15.763 16.8545 15.9062C16.4925 16.0469 16.0785 16.1172 15.6123 16.1172ZM23.5977 12.4141V13.5742H20.4023V12.4141H23.5977ZM20.8398 10V16H19.4766V10H20.8398ZM24.5234 10V16H23.1641V10H24.5234ZM25.2822 11.1602V10H30.5322V11.1602H28.5908V16H27.2236V11.1602H25.2822ZM33.0215 14.0859L35.4238 10H36.877V16H35.5098V11.9102L33.1152 16H31.6582V10H33.0215V14.0859ZM37.915 16L37.9072 14.8359H38.1143C38.2705 14.8359 38.402 14.8008 38.5088 14.7305C38.6156 14.6602 38.7041 14.543 38.7744 14.3789C38.8447 14.2122 38.8994 13.9883 38.9385 13.707C38.9775 13.4258 39.0049 13.0755 39.0205 12.6562L39.126 10H43.501V16H42.1338V11.1602H40.4111L40.3174 13.0937C40.2939 13.5937 40.238 14.0273 40.1494 14.3945C40.0635 14.7591 39.9411 15.0599 39.7822 15.2969C39.626 15.5339 39.4294 15.7109 39.1924 15.8281C38.9554 15.9427 38.6755 16 38.3525 16H37.915ZM48.4717 16V11.1484H47.1904C46.8649 11.1484 46.6149 11.224 46.4404 11.375C46.266 11.526 46.18 11.7135 46.1826 11.9375C46.18 12.1615 46.262 12.3464 46.4287 12.4922C46.5954 12.638 46.8337 12.7109 47.1436 12.7109H48.917V13.7422H47.1436C46.6644 13.7422 46.2503 13.6667 45.9014 13.5156C45.5524 13.3646 45.2842 13.151 45.0967 12.875C44.9092 12.599 44.8154 12.276 44.8154 11.9062C44.8154 11.5208 44.9105 11.1862 45.1006 10.9023C45.2933 10.6159 45.5667 10.3945 45.9209 10.2383C46.2777 10.0794 46.7008 10 47.1904 10H49.7959V16H48.4717ZM44.5967 16L46.2725 12.9219H47.667L45.9873 16H44.5967ZM56.2861 10V14.9453H57.2041V17.9297H55.8213V16H51.2197V10H52.583V14.8398H54.9346V10H56.2861ZM59.7266 14.0859L62.1289 10H63.582V16H62.2148V11.9102L59.8203 16H58.3633V10H59.7266V14.0859ZM68.5811 16V11.1484H67.2998C66.9743 11.1484 66.7243 11.224 66.5498 11.375C66.3753 11.526 66.2894 11.7135 66.292 11.9375C66.2894 12.1615 66.3714 12.3464 66.5381 12.4922C66.7048 12.638 66.943 12.7109 67.2529 12.7109H69.0264V13.7422H67.2529C66.7738 13.7422 66.3597 13.6667 66.0107 13.5156C65.6618 13.3646 65.3936 13.151 65.2061 12.875C65.0186 12.599 64.9248 12.276 64.9248 11.9062C64.9248 11.5208 65.0199 11.1862 65.21 10.9023C65.4027 10.6159 65.6761 10.3945 66.0303 10.2383C66.387 10.0794 66.8102 10 67.2998 10H69.9053V16H68.5811ZM64.7061 16L66.3818 12.9219H67.7764L66.0967 16H64.7061Z" fill="black"/>
<path d="M72.6137 15.9312H73.2274V16.4979C73.2274 16.6032 73.2073 16.6923 73.157 16.7732C73.1067 16.8461 73.0363 16.9028 72.9457 16.9433C72.8552 16.9838 72.7445 17 72.6137 17C72.4829 17 72.3722 16.9838 72.2817 16.9433C72.1912 16.9028 72.1207 16.8542 72.0704 16.7813C72.0201 16.7085 72 16.6275 72 16.5222V15.502C72 15.3968 72.0201 15.3077 72.0704 15.2267C72.1207 15.1538 72.1912 15.0972 72.2817 15.0567C72.3722 15.0162 72.4829 15 72.6137 15C72.7445 15 72.8451 15.0162 72.9356 15.0567C73.0262 15.0972 73.0966 15.1538 73.1368 15.2267C73.1871 15.2996 73.2073 15.3887 73.2073 15.4939V15.5911H72.8954V15.4939C72.8954 15.4048 72.8753 15.3401 72.825 15.2915C72.7747 15.2429 72.7042 15.2186 72.6137 15.2186C72.5131 15.2186 72.4326 15.2429 72.3823 15.2915C72.332 15.3401 72.3018 15.413 72.3018 15.502V16.5222C72.3018 16.6032 72.332 16.668 72.3924 16.7085C72.4527 16.757 72.5332 16.7732 72.6338 16.7732C72.7344 16.7732 72.8149 16.749 72.8652 16.7004C72.9256 16.6518 72.9457 16.5789 72.9457 16.4979V16.1336H72.6238V15.9231L72.6137 15.9312Z" fill="#3C3C3B"/>
<path d="M73.5386 16.9834V15.0239H73.8002L74.5447 16.5786L74.4944 16.6109V15.0239H74.7761V16.9834H74.5044L73.76 15.4531L73.8103 15.4207V16.9834H73.5286H73.5386Z" fill="#3C3C3B"/>
<path d="M75.1392 16.9834V15.0239H75.4309V16.9834H75.1392ZM75.3102 16.9834V16.7729H75.8535C75.9138 16.7729 75.9641 16.7567 75.9943 16.7324C76.0245 16.7081 76.0446 16.6676 76.0446 16.6109V15.3964C76.0446 15.3478 76.0245 15.3073 75.9943 15.2749C75.9641 15.2507 75.9138 15.2345 75.8535 15.2345H75.3102V15.0239H75.8434C76.0044 15.0239 76.1251 15.0563 76.2056 15.1211C76.2861 15.1859 76.3364 15.283 76.3364 15.4045V16.6028C76.3364 16.6838 76.3163 16.7486 76.276 16.8134C76.2358 16.87 76.1855 16.9105 76.105 16.9429C76.0346 16.9753 75.944 16.9834 75.8333 16.9834H75.3001H75.3102Z" fill="#3C3C3B"/>
</svg>
