<svg width="94" height="25" viewBox="0 0 94 25" fill="none" xmlns="http://www.w3.org/2000/svg">
<path d="M22.7891 16V8H25.8516C26.4297 8 26.9102 8.09115 27.293 8.27344C27.6784 8.45312 27.9661 8.69922 28.1563 9.01172C28.349 9.32422 28.4453 9.67839 28.4453 10.0742C28.4453 10.3997 28.3828 10.6784 28.2578 10.9102C28.1328 11.1393 27.9648 11.3255 27.7539 11.4687C27.543 11.612 27.3073 11.7148 27.0469 11.7773V11.8555C27.3307 11.8711 27.6029 11.9583 27.8633 12.1172C28.1263 12.2734 28.3411 12.4948 28.5078 12.7812C28.6745 13.0677 28.7578 13.4141 28.7578 13.8203C28.7578 14.2344 28.6576 14.6068 28.457 14.9375C28.2565 15.2656 27.9544 15.5247 27.5508 15.7148C27.1471 15.9049 26.6393 16 26.0273 16H22.7891ZM24.2383 14.7891H25.7969C26.3229 14.7891 26.7018 14.6888 26.9336 14.4883C27.168 14.2852 27.2852 14.0247 27.2852 13.707C27.2852 13.4701 27.2266 13.2565 27.1094 13.0664C26.9922 12.8737 26.8255 12.7227 26.6094 12.6133C26.3932 12.5013 26.1354 12.4453 25.8359 12.4453H24.2383V14.7891ZM24.2383 11.4023H25.6719C25.9219 11.4023 26.1471 11.3568 26.3477 11.2656C26.5482 11.1719 26.7057 11.0404 26.8203 10.8711C26.9375 10.6992 26.9961 10.4961 26.9961 10.2617C26.9961 9.95182 26.8867 9.69661 26.668 9.49609C26.4518 9.29557 26.1302 9.19531 25.7031 9.19531H24.2383V11.4023ZM32.6123 16.1172C32.0107 16.1172 31.4912 15.9922 31.0537 15.7422C30.6188 15.4896 30.2842 15.1328 30.0498 14.6719C29.8154 14.2083 29.6982 13.6628 29.6982 13.0352C29.6982 12.418 29.8154 11.8763 30.0498 11.4102C30.2868 10.9414 30.6175 10.5768 31.042 10.3164C31.4665 10.0534 31.9652 9.92188 32.5381 9.92188C32.9079 9.92188 33.2568 9.98177 33.585 10.1016C33.9157 10.2187 34.2074 10.401 34.46 10.6484C34.7152 10.8958 34.9157 11.2109 35.0615 11.5937C35.2074 11.974 35.2803 12.4271 35.2803 12.9531V13.3867H30.3623V12.4336H33.9248C33.9222 12.1628 33.8636 11.9219 33.749 11.7109C33.6344 11.4974 33.4743 11.3294 33.2686 11.207C33.0654 11.0846 32.8285 11.0234 32.5576 11.0234C32.2686 11.0234 32.0146 11.0937 31.7959 11.2344C31.5771 11.3724 31.4066 11.5547 31.2842 11.7812C31.1644 12.0052 31.1032 12.2513 31.1006 12.5195V13.3516C31.1006 13.7005 31.1644 14 31.292 14.25C31.4196 14.4974 31.598 14.6875 31.8271 14.8203C32.0563 14.9505 32.3245 15.0156 32.6318 15.0156C32.8376 15.0156 33.0238 14.987 33.1904 14.9297C33.3571 14.8698 33.5016 14.7826 33.624 14.668C33.7464 14.5534 33.8389 14.4115 33.9014 14.2422L35.2217 14.3906C35.1383 14.7396 34.9795 15.0443 34.7451 15.3047C34.5133 15.5625 34.2165 15.763 33.8545 15.9062C33.4925 16.0469 33.0785 16.1172 32.6123 16.1172ZM40.5977 12.4141V13.5742H37.4023V12.4141H40.5977ZM37.8398 10V16H36.4766V10H37.8398ZM41.5234 10V16H40.1641V10H41.5234ZM42.2822 11.1602V10H47.5322V11.1602H45.5908V16H44.2236V11.1602H42.2822ZM50.0215 14.0859L52.4238 10H53.877V16H52.5098V11.9102L50.1152 16H48.6582V10H50.0215V14.0859ZM54.915 16L54.9072 14.8359H55.1143C55.2705 14.8359 55.402 14.8008 55.5088 14.7305C55.6156 14.6602 55.7041 14.543 55.7744 14.3789C55.8447 14.2122 55.8994 13.9883 55.9385 13.707C55.9775 13.4258 56.0049 13.0755 56.0205 12.6562L56.126 10H60.501V16H59.1338V11.1602H57.4111L57.3174 13.0937C57.2939 13.5937 57.238 14.0273 57.1494 14.3945C57.0635 14.7591 56.9411 15.0599 56.7822 15.2969C56.626 15.5339 56.4294 15.7109 56.1924 15.8281C55.9554 15.9427 55.6755 16 55.3525 16H54.915ZM65.4717 16V11.1484H64.1904C63.8649 11.1484 63.6149 11.224 63.4404 11.375C63.266 11.526 63.18 11.7135 63.1826 11.9375C63.18 12.1615 63.262 12.3464 63.4287 12.4922C63.5954 12.638 63.8337 12.7109 64.1436 12.7109H65.917V13.7422H64.1436C63.6644 13.7422 63.2503 13.6667 62.9014 13.5156C62.5524 13.3646 62.2842 13.151 62.0967 12.875C61.9092 12.599 61.8154 12.276 61.8154 11.9062C61.8154 11.5208 61.9105 11.1862 62.1006 10.9023C62.2933 10.6159 62.5667 10.3945 62.9209 10.2383C63.2777 10.0794 63.7008 10 64.1904 10H66.7959V16H65.4717ZM61.5967 16L63.2725 12.9219H64.667L62.9873 16H61.5967ZM73.2861 10V14.9453H74.2041V17.9297H72.8213V16H68.2197V10H69.583V14.8398H71.9346V10H73.2861ZM76.7266 14.0859L79.1289 10H80.582V16H79.2148V11.9102L76.8203 16H75.3633V10H76.7266V14.0859ZM85.5811 16V11.1484H84.2998C83.9743 11.1484 83.7243 11.224 83.5498 11.375C83.3753 11.526 83.2894 11.7135 83.292 11.9375C83.2894 12.1615 83.3714 12.3464 83.5381 12.4922C83.7048 12.638 83.943 12.7109 84.2529 12.7109H86.0264V13.7422H84.2529C83.7738 13.7422 83.3597 13.6667 83.0107 13.5156C82.6618 13.3646 82.3936 13.151 82.2061 12.875C82.0186 12.599 81.9248 12.276 81.9248 11.9062C81.9248 11.5208 82.0199 11.1862 82.21 10.9023C82.4027 10.6159 82.6761 10.3945 83.0303 10.2383C83.387 10.0794 83.8102 10 84.2998 10H86.9053V16H85.5811ZM81.7061 16L83.3818 12.9219H84.7764L83.0967 16H81.7061Z" fill="black"/>
<rect x="0.5" y="0.5" width="92.3131" height="24" rx="1.5" fill="#F0F0F0" stroke="black"/>
<path d="M2.65723 19.3162L11.4233 19.3162L11.4233 6.00019L2.65723 6.00019" fill="#AFD5A9"/>
<path d="M2.65723 19.3162L11.4233 19.3162L11.4233 6.00019L2.65723 6.00019" stroke="#212830" stroke-width="0.25" stroke-miterlimit="10"/>
<path d="M0.999999 6.00019L1 19.3162L2.64808 19.3162L2.64808 6.00019L0.999999 6.00019Z" fill="#5EB34A" stroke="#1D1D1B" stroke-width="0.25" stroke-miterlimit="10"/>
<path d="M11.4229 6.00019L11.4229 19.3162L15.2446 19.3162L15.2446 6.00019L11.4229 6.00019Z" fill="#5EB34A" stroke="#1D1D1B" stroke-width="0.25" stroke-miterlimit="10"/>
<path d="M15.2532 17.2322L12.3936 17.2322L12.3936 14.6684L15.2532 14.6684L15.2532 10.6134L12.3936 10.6134L12.3936 8.04965L15.2532 8.04965" fill="#0C9B47"/>
<path d="M15.2532 17.2322L12.3936 17.2322L12.3936 14.6684L15.2532 14.6684L15.2532 10.6134L12.3936 10.6134L12.3936 8.04965L15.2532 8.04965" stroke="#212830" stroke-width="0.25" stroke-miterlimit="10"/>
<path class="DI-IN" d="M6.99488 11.913L7.48486 11.8694L7.96592 11.7124L8.3668 11.5206L8.76769 11.2066L9.0884 10.8055L9.29329 10.4131L9.45365 9.94218L9.49819 9.47128L9.45365 9.00038L9.29329 8.52076L9.0884 8.12834L8.76769 7.73593L8.3668 7.42199L7.96592 7.22143L7.48486 7.06446L6.99488 7.02958L6.51382 7.06446L6.03276 7.22143L5.63187 7.42199L5.23099 7.73593L4.91028 8.12834L4.70538 8.52076L4.54503 9.00038L4.50049 9.47128L4.54503 9.94218L4.70538 10.4131L4.91028 10.8055L5.23099 11.2066L5.63187 11.5206L6.03276 11.7124L6.51382 11.8694L6.99488 11.913Z" fill="#C8C8CA"/>
<path d="M8.78581 7.71829L5.20456 11.1803M6.99488 11.913L7.48486 11.8694L7.96592 11.7124L8.3668 11.5206L8.76769 11.2066L9.0884 10.8055L9.29329 10.4131L9.45365 9.94218L9.49819 9.47128L9.45365 9.00038L9.29329 8.52076L9.0884 8.12834L8.76769 7.73593L8.3668 7.42199L7.96592 7.22143L7.48486 7.06446L6.99488 7.02958L6.51382 7.06446L6.03276 7.22143L5.63187 7.42199L5.23099 7.73593L4.91028 8.12834L4.70538 8.52076L4.54503 9.00038L4.50049 9.47128L4.54503 9.94218L4.70538 10.4131L4.91028 10.8055L5.23099 11.2066L5.63187 11.5206L6.03276 11.7124L6.51382 11.8694L6.99488 11.913Z" stroke="#212830" stroke-width="0.25" stroke-miterlimit="10"/>
<path d="M7.03959 18.0613L7.52065 18.0177L8.00172 17.8607L8.41151 17.6601L8.81239 17.3462L9.1331 16.9538L9.32909 16.5614L9.49835 16.0905L9.53399 15.6109L9.49835 15.14L9.32909 14.6691L9.1331 14.2766L8.81239 13.8842L8.41151 13.5703L8.00172 13.3697L7.52065 13.2128L7.03959 13.1692L6.55853 13.2128L6.07747 13.3697L5.66767 13.5703L5.26679 13.8842L4.94608 14.2766L4.75009 14.6691L4.58083 15.14L4.54519 15.6109L4.58083 16.0905L4.75009 16.5614L4.94608 16.9538L5.26679 17.3462L5.66767 17.6601L6.07747 17.8607L6.55853 18.0177L7.03959 18.0613Z" fill="#C8C8CA"/>
<path d="M8.83035 13.858L5.24911 17.32M7.03959 18.0613L7.52065 18.0177L8.00172 17.8607L8.41151 17.6601L8.81239 17.3462L9.1331 16.9538L9.32909 16.5614L9.49835 16.0905L9.53399 15.6109L9.49835 15.14L9.32909 14.6691L9.1331 14.2766L8.81239 13.8842L8.41151 13.5703L8.00172 13.3697L7.52065 13.2128L7.03959 13.1692L6.55853 13.2128L6.07747 13.3697L5.66767 13.5703L5.26679 13.8842L4.94608 14.2766L4.75009 14.6691L4.58083 15.14L4.54519 15.6109L4.58083 16.0905L4.75009 16.5614L4.94608 16.9538L5.26679 17.3462L5.66767 17.6601L6.07747 17.8607L6.55853 18.0177L7.03959 18.0613Z" stroke="#212830" stroke-width="0.25" stroke-miterlimit="10"/>
<path d="M17.6137 15.9312H18.2274V16.4979C18.2274 16.6032 18.2073 16.6923 18.157 16.7732C18.1067 16.8461 18.0363 16.9028 17.9457 16.9433C17.8552 16.9838 17.7445 17 17.6137 17C17.4829 17 17.3722 16.9838 17.2817 16.9433C17.1912 16.9028 17.1207 16.8542 17.0704 16.7813C17.0201 16.7085 17 16.6275 17 16.5222V15.502C17 15.3968 17.0201 15.3077 17.0704 15.2267C17.1207 15.1538 17.1912 15.0972 17.2817 15.0567C17.3722 15.0162 17.4829 15 17.6137 15C17.7445 15 17.8451 15.0162 17.9356 15.0567C18.0262 15.0972 18.0966 15.1538 18.1368 15.2267C18.1871 15.2996 18.2073 15.3887 18.2073 15.4939V15.5911H17.8954V15.4939C17.8954 15.4048 17.8753 15.3401 17.825 15.2915C17.7747 15.2429 17.7042 15.2186 17.6137 15.2186C17.5131 15.2186 17.4326 15.2429 17.3823 15.2915C17.332 15.3401 17.3018 15.413 17.3018 15.502V16.5222C17.3018 16.6032 17.332 16.668 17.3924 16.7085C17.4527 16.757 17.5332 16.7732 17.6338 16.7732C17.7344 16.7732 17.8149 16.749 17.8652 16.7004C17.9256 16.6518 17.9457 16.5789 17.9457 16.4979V16.1336H17.6238V15.9231L17.6137 15.9312Z" fill="#3C3C3B"/>
<path d="M18.5386 16.9834V15.0239H18.8002L19.5447 16.5786L19.4944 16.6109V15.0239H19.7761V16.9834H19.5044L18.76 15.4531L18.8103 15.4207V16.9834H18.5286H18.5386Z" fill="#3C3C3B"/>
<path d="M20.1392 16.9834V15.0239H20.4309V16.9834H20.1392ZM20.3102 16.9834V16.7729H20.8535C20.9138 16.7729 20.9641 16.7567 20.9943 16.7324C21.0245 16.7081 21.0446 16.6676 21.0446 16.6109V15.3964C21.0446 15.3478 21.0245 15.3073 20.9943 15.2749C20.9641 15.2507 20.9138 15.2345 20.8535 15.2345H20.3102V15.0239H20.8434C21.0044 15.0239 21.1251 15.0563 21.2056 15.1211C21.2861 15.1859 21.3364 15.283 21.3364 15.4045V16.6028C21.3364 16.6838 21.3163 16.7486 21.276 16.8134C21.2358 16.87 21.1855 16.9105 21.105 16.9429C21.0346 16.9753 20.944 16.9834 20.8333 16.9834H20.3001H20.3102Z" fill="#3C3C3B"/>
<path d="M22.7891 16V8H25.8516C26.4297 8 26.9102 8.09115 27.293 8.27344C27.6784 8.45312 27.9661 8.69922 28.1563 9.01172C28.349 9.32422 28.4453 9.67839 28.4453 10.0742C28.4453 10.3997 28.3828 10.6784 28.2578 10.9102C28.1328 11.1393 27.9648 11.3255 27.7539 11.4687C27.543 11.612 27.3073 11.7148 27.0469 11.7773V11.8555C27.3307 11.8711 27.6029 11.9583 27.8633 12.1172C28.1263 12.2734 28.3411 12.4948 28.5078 12.7812C28.6745 13.0677 28.7578 13.4141 28.7578 13.8203C28.7578 14.2344 28.6576 14.6068 28.457 14.9375C28.2565 15.2656 27.9544 15.5247 27.5508 15.7148C27.1471 15.9049 26.6393 16 26.0273 16H22.7891ZM24.2383 14.7891H25.7969C26.3229 14.7891 26.7018 14.6888 26.9336 14.4883C27.168 14.2852 27.2852 14.0247 27.2852 13.707C27.2852 13.4701 27.2266 13.2565 27.1094 13.0664C26.9922 12.8737 26.8255 12.7227 26.6094 12.6133C26.3932 12.5013 26.1354 12.4453 25.8359 12.4453H24.2383V14.7891ZM24.2383 11.4023H25.6719C25.9219 11.4023 26.1471 11.3568 26.3477 11.2656C26.5482 11.1719 26.7057 11.0404 26.8203 10.8711C26.9375 10.6992 26.9961 10.4961 26.9961 10.2617C26.9961 9.95182 26.8867 9.69661 26.668 9.49609C26.4518 9.29557 26.1302 9.19531 25.7031 9.19531H24.2383V11.4023ZM32.6123 16.1172C32.0107 16.1172 31.4912 15.9922 31.0537 15.7422C30.6188 15.4896 30.2842 15.1328 30.0498 14.6719C29.8154 14.2083 29.6982 13.6628 29.6982 13.0352C29.6982 12.418 29.8154 11.8763 30.0498 11.4102C30.2868 10.9414 30.6175 10.5768 31.042 10.3164C31.4665 10.0534 31.9652 9.92188 32.5381 9.92188C32.9079 9.92188 33.2568 9.98177 33.585 10.1016C33.9157 10.2187 34.2074 10.401 34.46 10.6484C34.7152 10.8958 34.9157 11.2109 35.0615 11.5937C35.2074 11.974 35.2803 12.4271 35.2803 12.9531V13.3867H30.3623V12.4336H33.9248C33.9222 12.1628 33.8636 11.9219 33.749 11.7109C33.6344 11.4974 33.4743 11.3294 33.2686 11.207C33.0654 11.0846 32.8285 11.0234 32.5576 11.0234C32.2686 11.0234 32.0146 11.0937 31.7959 11.2344C31.5771 11.3724 31.4066 11.5547 31.2842 11.7812C31.1644 12.0052 31.1032 12.2513 31.1006 12.5195V13.3516C31.1006 13.7005 31.1644 14 31.292 14.25C31.4196 14.4974 31.598 14.6875 31.8271 14.8203C32.0563 14.9505 32.3245 15.0156 32.6318 15.0156C32.8376 15.0156 33.0238 14.987 33.1904 14.9297C33.3571 14.8698 33.5016 14.7826 33.624 14.668C33.7464 14.5534 33.8389 14.4115 33.9014 14.2422L35.2217 14.3906C35.1383 14.7396 34.9795 15.0443 34.7451 15.3047C34.5133 15.5625 34.2165 15.763 33.8545 15.9062C33.4925 16.0469 33.0785 16.1172 32.6123 16.1172ZM40.5977 12.4141V13.5742H37.4023V12.4141H40.5977ZM37.8398 10V16H36.4766V10H37.8398ZM41.5234 10V16H40.1641V10H41.5234ZM42.2822 11.1602V10H47.5322V11.1602H45.5908V16H44.2236V11.1602H42.2822ZM50.0215 14.0859L52.4238 10H53.877V16H52.5098V11.9102L50.1152 16H48.6582V10H50.0215V14.0859ZM54.915 16L54.9072 14.8359H55.1143C55.2705 14.8359 55.402 14.8008 55.5088 14.7305C55.6156 14.6602 55.7041 14.543 55.7744 14.3789C55.8447 14.2122 55.8994 13.9883 55.9385 13.707C55.9775 13.4258 56.0049 13.0755 56.0205 12.6562L56.126 10H60.501V16H59.1338V11.1602H57.4111L57.3174 13.0937C57.2939 13.5937 57.238 14.0273 57.1494 14.3945C57.0635 14.7591 56.9411 15.0599 56.7822 15.2969C56.626 15.5339 56.4294 15.7109 56.1924 15.8281C55.9554 15.9427 55.6755 16 55.3525 16H54.915ZM65.4717 16V11.1484H64.1904C63.8649 11.1484 63.6149 11.224 63.4404 11.375C63.266 11.526 63.18 11.7135 63.1826 11.9375C63.18 12.1615 63.262 12.3464 63.4287 12.4922C63.5954 12.638 63.8337 12.7109 64.1436 12.7109H65.917V13.7422H64.1436C63.6644 13.7422 63.2503 13.6667 62.9014 13.5156C62.5524 13.3646 62.2842 13.151 62.0967 12.875C61.9092 12.599 61.8154 12.276 61.8154 11.9062C61.8154 11.5208 61.9105 11.1862 62.1006 10.9023C62.2933 10.6159 62.5667 10.3945 62.9209 10.2383C63.2777 10.0794 63.7008 10 64.1904 10H66.7959V16H65.4717ZM61.5967 16L63.2725 12.9219H64.667L62.9873 16H61.5967ZM73.2861 10V14.9453H74.2041V17.9297H72.8213V16H68.2197V10H69.583V14.8398H71.9346V10H73.2861ZM76.7266 14.0859L79.1289 10H80.582V16H79.2148V11.9102L76.8203 16H75.3633V10H76.7266V14.0859ZM85.5811 16V11.1484H84.2998C83.9743 11.1484 83.7243 11.224 83.5498 11.375C83.3753 11.526 83.2894 11.7135 83.292 11.9375C83.2894 12.1615 83.3714 12.3464 83.5381 12.4922C83.7048 12.638 83.943 12.7109 84.2529 12.7109H86.0264V13.7422H84.2529C83.7738 13.7422 83.3597 13.6667 83.0107 13.5156C82.6618 13.3646 82.3936 13.151 82.2061 12.875C82.0186 12.599 81.9248 12.276 81.9248 11.9062C81.9248 11.5208 82.0199 11.1862 82.21 10.9023C82.4027 10.6159 82.6761 10.3945 83.0303 10.2383C83.387 10.0794 83.8102 10 84.2998 10H86.9053V16H85.5811ZM81.7061 16L83.3818 12.9219H84.7764L83.0967 16H81.7061Z" fill="black"/>
</svg>
