<svg width="127" height="127" viewBox="0 0 127 127" fill="none" xmlns="http://www.w3.org/2000/svg">
<mask id="mask0_351_271" style="mask-type:alpha" maskUnits="userSpaceOnUse" x="0" y="0" width="127" height="127">
<rect width="127" height="127" transform="matrix(-1 0 0 1 127 0)" fill="#D9D9D9"/>
</mask>
<g mask="url(#mask0_351_271)">
<path fill-rule="evenodd" clip-rule="evenodd" d="M96.6382 53.8367C96.3425 53.771 96.003 53.7819 95.6306 53.8586C95.3787 53.9024 95.072 54.001 94.7051 54.1379C94.4916 54.22 94.1247 54.3679 93.6154 54.5814C93.3033 54.7183 93.0514 54.8059 92.8597 54.8443C92.6133 54.9155 92.3285 54.9483 92.0109 54.9483C91.5564 54.9538 91.1183 54.8662 90.6967 54.6964C90.4229 54.5759 90.1984 54.45 90.0177 54.3131L89.8205 54.1379L90.1217 54.1652L90.8993 54.1762C91.2443 54.1598 91.5619 54.116 91.8576 54.0393C92.0602 53.99 92.2135 53.9352 92.3285 53.886L92.8652 53.645C93.3197 53.4424 93.8125 53.311 94.3547 53.2507C94.853 53.2015 95.302 53.2234 95.6963 53.311C96.0194 53.3822 96.2768 53.4972 96.4684 53.645C96.5615 53.7162 96.6163 53.7819 96.6491 53.8257L96.6382 53.8367Z" fill="#909295"/>
<path fill-rule="evenodd" clip-rule="evenodd" d="M97.8265 55.0469C97.5308 54.9812 97.1913 54.9921 96.8189 55.0688C96.567 55.1126 96.2603 55.2112 95.8934 55.3481C95.6799 55.4302 95.313 55.5781 94.8037 55.7916C94.4916 55.9285 94.2397 56.0161 94.048 56.0545C93.8016 56.1257 93.5168 56.1585 93.1992 56.1585C92.7447 56.164 92.3066 56.0764 91.885 55.9066C91.6112 55.7861 91.3867 55.6602 91.2059 55.5233L91.0088 55.3481L91.31 55.3754L92.0876 55.3864C92.4326 55.37 92.7502 55.3262 93.0459 55.2495C93.2485 55.2002 93.4018 55.1454 93.5168 55.0962L94.0535 54.8552C94.508 54.6526 95.0008 54.5212 95.543 54.4609C96.0413 54.4117 96.4903 54.4336 96.8846 54.5212C97.2077 54.5924 97.4651 54.7074 97.6567 54.8552C97.7498 54.9264 97.81 54.9976 97.8374 55.0359L97.8265 55.0469Z" fill="#909295"/>
<path fill-rule="evenodd" clip-rule="evenodd" d="M99.0313 56.2296C98.7356 56.1639 98.3961 56.1749 98.0237 56.2515C97.7718 56.2953 97.4652 56.3939 97.0983 56.5308C96.8847 56.6129 96.5178 56.7608 96.0085 56.9744C95.6964 57.1113 95.4445 57.1989 95.2528 57.2372C95.0064 57.3084 94.7217 57.3413 94.4041 57.3413C93.9495 57.3467 93.5115 57.2591 93.0898 57.0894C92.816 56.9689 92.5915 56.8429 92.4108 56.706L92.2136 56.5308L92.5148 56.5582L93.2924 56.5691C93.6374 56.5527 93.955 56.5089 94.2507 56.4322C94.4533 56.3829 94.6067 56.3282 94.7217 56.2789L95.2583 56.038C95.7128 55.8353 96.2057 55.7039 96.7478 55.6437C97.2461 55.5944 97.6952 55.6163 98.0894 55.7039C98.4125 55.7751 98.6699 55.8901 98.8616 56.038C98.9546 56.1091 99.0094 56.1749 99.0423 56.2187L99.0313 56.2296Z" fill="#909295"/>
<path d="M97.6295 61.9248L97.1038 61.3991L100.105 58.3983L99.7104 58.004L96.7095 61.0049L96.1728 60.4682L99.2559 57.3852C99.4092 57.2319 99.568 57.1497 99.7323 57.1388C99.8966 57.1278 100.039 57.1935 100.176 57.3304L100.63 57.7849C100.729 57.8835 100.773 57.993 100.767 58.108C100.762 58.223 100.707 58.3325 100.597 58.4421C100.707 58.3325 100.822 58.2723 100.937 58.2668C101.052 58.2614 101.151 58.3052 101.249 58.4037L101.704 58.8582C101.841 58.9951 101.901 59.143 101.895 59.3018C101.884 59.4661 101.808 59.6194 101.649 59.7782L98.5659 62.8612L98.0292 62.3246L101.03 59.3237L100.641 58.9349L97.6404 61.9358L97.6295 61.9248Z" fill="#909295"/>
<path d="M102.514 59.6686L103.051 60.2052L101.512 61.744L102.12 61.9138L103.434 60.5995L103.976 61.1416L100.921 64.1973C100.745 64.3725 100.581 64.4601 100.422 64.4765C100.263 64.482 100.11 64.4163 99.9567 64.263L99.3763 63.6825C99.2394 63.5456 99.1791 63.3978 99.1846 63.239C99.1901 63.0802 99.2777 62.9159 99.431 62.7625L99.557 62.6366L100.4 62.8666L100.044 63.2225L100.433 63.6113L101.485 62.5599L100.028 62.1657L102.514 59.6795L102.514 59.6686Z" fill="#909295"/>
<path d="M105.838 62.9925L102.268 66.5629L101.736 66.0317L103.39 64.3779L102.76 64.1972L101.331 65.6265L100.8 65.0953L104.37 61.5249L104.902 62.0561L103.407 63.551L104.031 63.7372L105.307 62.4613L105.838 62.9925Z" fill="#909295"/>
<path d="M103.954 68.2496L102.662 66.9572L106.232 63.3868L107.525 64.6792L106.955 65.2487L106.199 64.493L105.279 65.413L106.451 65.7525L105.811 66.3932L104.633 66.0591L103.768 66.9244L104.524 67.6801L103.954 68.2496Z" fill="#909295"/>
<path d="M105.75 70.0458L105.214 69.5091L106.725 67.9977L106.112 67.8225L104.819 69.1148L104.283 68.5782L107.366 65.4952C107.519 65.3419 107.678 65.2597 107.842 65.2488C108.006 65.2378 108.149 65.3035 108.286 65.4404L108.883 66.0373C109.019 66.1742 109.08 66.3221 109.074 66.4809C109.063 66.6451 108.987 66.7985 108.828 66.9573L105.745 70.0403L105.75 70.0458ZM107.355 67.368L108.22 66.5028L107.826 66.1085L106.752 67.1818L107.36 67.3625L107.355 67.368Z" fill="#909295"/>
<path d="M106.506 70.8015L109.507 67.8007L108.981 67.275L109.551 66.7054L111.139 68.2935L110.569 68.863L110.044 68.3373L107.043 71.3382L106.506 70.8015Z" fill="#909295"/>
<path d="M106.115 79.4499C106.803 78.7619 107.929 78.7623 108.617 79.4506C109.306 80.1389 109.306 81.2649 108.618 81.9528L76.7231 113.848" stroke="#656565" stroke-width="0.8" stroke-miterlimit="10"/>
<path d="M91.0427 96.5586L91.0428 96.5586" stroke="#656565" stroke-width="0.5" stroke-miterlimit="10"/>
<path d="M106.242 79.2909L89.6586 95.8745" stroke="#656565" stroke-width="0.8" stroke-miterlimit="10"/>
<path d="M76.8701 113.755C76.1825 114.443 75.1062 114.481 74.4661 113.841L73.1382 112.513C72.4981 111.873 72.5367 110.797 73.2243 110.109L87.505 95.8283C88.1926 95.1407 89.2689 95.1021 89.909 95.7422L90.078 95.9112" stroke="#656565" stroke-width="0.8" stroke-miterlimit="10"/>
<path d="M45.6267 19.2476C46.3146 18.5597 46.3143 17.4337 45.626 16.7454C44.9377 16.0571 43.8117 16.0567 43.1237 16.7447L11.2289 48.6395" stroke="#656565" stroke-width="0.8" stroke-miterlimit="10"/>
<path d="M28.645 34.1609L28.645 34.1609" stroke="#656565" stroke-width="0.5" stroke-miterlimit="10"/>
<path d="M45.6265 19.2477L29.3291 35.5451" stroke="#656565" stroke-width="0.8" stroke-miterlimit="10"/>
<path d="M11.2289 48.6397C10.5381 49.3305 10.5384 50.4507 11.2295 51.1419L12.6635 52.5759C13.3547 53.267 14.475 53.2673 15.1658 52.5766L29.5124 38.2299C30.2032 37.5391 30.2029 36.4188 29.5117 35.7277L29.3292 35.5452" stroke="#656565" stroke-width="0.8" stroke-miterlimit="10"/>
<path d="M69.9897 107.114L18.3284 55.4529C17.8657 54.9903 17.8655 54.2335 18.3279 53.7712L49.7922 22.3068C50.2546 21.8445 51.0114 21.8447 51.474 22.3073L103.135 73.9687C103.598 74.4313 103.598 75.1881 103.136 75.6504L71.6715 107.115C71.2091 107.577 70.4523 107.577 69.9897 107.114Z" stroke="#656565" stroke-width="0.8" stroke-miterlimit="10"/>
<path d="M32.3376 40.0944L35.8294 36.6027" stroke="#656565" stroke-width="0.5" stroke-miterlimit="10"/>
<path d="M33.2499 40.2773L36.012 37.5151" stroke="#656565" stroke-width="0.25" stroke-miterlimit="10"/>
<path d="M34.032 40.6423L36.3772 38.2971" stroke="#656565" stroke-width="0.25" stroke-miterlimit="10"/>
<path d="M34.84 41.0334L36.7683 39.1051" stroke="#656565" stroke-width="0.25" stroke-miterlimit="10"/>
<path d="M35.7002 41.4246L37.1595 39.9653" stroke="#656565" stroke-width="0.25" stroke-miterlimit="10"/>
<path d="M32.3375 40.0945L36.012 37.515" stroke="#656565" stroke-width="0.25" stroke-miterlimit="10"/>
<path d="M33.25 40.2772L36.3772 38.2971" stroke="#656565" stroke-width="0.25" stroke-miterlimit="10"/>
<path d="M34.032 40.6424L36.7684 39.1053" stroke="#656565" stroke-width="0.25" stroke-miterlimit="10"/>
<path d="M34.84 41.0335L37.1595 39.9655" stroke="#656565" stroke-width="0.25" stroke-miterlimit="10"/>
<path d="M88.1641 90.6221C88.0305 90.4885 87.8193 90.483 87.6924 90.6099L86.6309 91.6714C86.5039 91.7984 86.5094 92.0096 86.643 92.1432" stroke="#656565" stroke-width="0.8" stroke-miterlimit="10"/>
<path d="M78.2772 100.105L74.7855 103.597" stroke="#656565" stroke-width="0.5" stroke-miterlimit="10"/>
<path d="M77.3649 99.9226L74.6027 102.685" stroke="#656565" stroke-width="0.25" stroke-miterlimit="10"/>
<path d="M76.5829 99.5576L74.2377 101.903" stroke="#656565" stroke-width="0.25" stroke-miterlimit="10"/>
<path d="M75.7746 99.1664L73.8463 101.095" stroke="#656565" stroke-width="0.25" stroke-miterlimit="10"/>
<path d="M74.9144 98.7753L73.4552 100.235" stroke="#656565" stroke-width="0.25" stroke-miterlimit="10"/>
<path d="M78.2772 100.105L74.6027 102.685" stroke="#656565" stroke-width="0.25" stroke-miterlimit="10"/>
<path d="M77.365 99.9227L74.2377 101.903" stroke="#656565" stroke-width="0.25" stroke-miterlimit="10"/>
<path d="M76.7419 99.4303L74.0055 100.967" stroke="#656565" stroke-width="0.25" stroke-miterlimit="10"/>
<path d="M75.7747 99.1664L73.4552 100.234" stroke="#656565" stroke-width="0.25" stroke-miterlimit="10"/>
<path d="M98.2372 79.0503L95.475 81.8124" stroke="#656565" stroke-width="0.25" stroke-miterlimit="10"/>
<path d="M97.4553 78.6852L95.11 81.0304" stroke="#656565" stroke-width="0.25" stroke-miterlimit="10"/>
<path d="M96.647 78.2941L94.7188 80.2224" stroke="#656565" stroke-width="0.25" stroke-miterlimit="10"/>
<path d="M95.7869 77.9028L94.3276 79.3621" stroke="#656565" stroke-width="0.25" stroke-miterlimit="10"/>
<path d="M99.1496 79.2329L95.4751 81.8124" stroke="#656565" stroke-width="0.25" stroke-miterlimit="10"/>
<path d="M98.3963 78.9232L95.2691 80.9033" stroke="#656565" stroke-width="0.25" stroke-miterlimit="10"/>
<path d="M97.4552 78.6851L94.7188 80.2222" stroke="#656565" stroke-width="0.25" stroke-miterlimit="10"/>
<path d="M96.6471 78.2941L94.3276 79.3621" stroke="#656565" stroke-width="0.25" stroke-miterlimit="10"/>
<path d="M43.6677 28.3992C43.8013 28.5328 44.0125 28.5383 44.1394 28.4113L45.2009 27.3498C45.3279 27.2229 45.3224 27.0117 45.1888 26.8781" stroke="#656565" stroke-width="0.8" stroke-miterlimit="10"/>
<path d="M22.5121 49.5547C22.6458 49.6883 22.857 49.6938 22.9839 49.5669L24.0454 48.5054C24.1723 48.3784 24.1669 48.1672 24.0333 48.0336" stroke="#656565" stroke-width="0.8" stroke-miterlimit="10"/>
<path d="M20.1624 80.1152L27.6223 72.6553L16.0299 61.0629L8.57001 68.5228" fill="#AFD5A9"/>
<path d="M20.1624 80.1152L27.6223 72.6553L16.0299 61.0629L8.57001 68.5228" stroke="#212830" stroke-width="0.25" stroke-miterlimit="10"/>
<path d="M7.15998 69.933L18.7524 81.5254L20.1549 80.1229L8.5625 68.5305L7.15998 69.933Z" fill="#5EB34A" stroke="#1D1D1B" stroke-width="0.25" stroke-miterlimit="10"/>
<path d="M16.03 61.0629L27.6224 72.6553L30.8748 69.4029L19.2824 57.8105L16.03 61.0629Z" fill="#5EB34A" stroke="#1D1D1B" stroke-width="0.25" stroke-miterlimit="10"/>
<path d="M29.0679 67.5812L26.6343 70.0148L24.4024 67.7828L26.836 65.3493L23.3059 61.8192L20.8723 64.2527L18.6404 62.0208L21.0739 59.5872" fill="#0C9B47"/>
<path d="M29.0679 67.5812L26.6343 70.0148L24.4024 67.7828L26.836 65.3493L23.3059 61.8192L20.8723 64.2527L18.6404 62.0208L21.0739 59.5872" stroke="#212830" stroke-width="0.25" stroke-miterlimit="10"/>
<path class="EXT-A" d="M17.409 69.9782L17.788 69.5233L18.0608 68.9772L18.2349 68.4691L18.3028 67.8546L18.2265 67.2325L18.0592 66.7165L17.7857 66.1701L17.4137 65.7222L16.9658 65.3502L16.4118 65.0691L15.8958 64.9018L15.2813 64.8331L14.6668 64.901L14.1511 65.0675L13.6051 65.3403L13.1577 65.7269L12.7787 66.1666L12.506 66.7127L12.3394 67.2284L12.2716 67.8429L12.3403 68.4574L12.5075 68.9734L12.7886 69.5274L13.1606 69.9753L13.6085 70.3473L14.1549 70.6208L14.6709 70.788L15.293 70.8643L15.9075 70.7965L16.4157 70.6223L16.9617 70.3496L17.409 69.9782Z" fill="#C8C8CA"/>
<path d="M15.2814 64.8024L15.2476 70.8639M17.409 69.9782L17.788 69.5233L18.0608 68.9772L18.2349 68.4691L18.3028 67.8546L18.2265 67.2325L18.0592 66.7165L17.7857 66.1701L17.4137 65.7222L16.9658 65.3502L16.4118 65.0691L15.8958 64.9018L15.2813 64.8331L14.6668 64.901L14.1511 65.0675L13.6051 65.3403L13.1577 65.7269L12.7787 66.1666L12.506 66.7127L12.3394 67.2284L12.2716 67.8429L12.3403 68.4574L12.5075 68.9734L12.7886 69.5274L13.1606 69.9753L13.6085 70.3473L14.1549 70.6208L14.6709 70.788L15.293 70.8643L15.9075 70.7965L16.4157 70.6223L16.9617 70.3496L17.409 69.9782Z" stroke="#212830" stroke-width="0.25" stroke-miterlimit="10"/>
<path class="EXT-B" d="M22.7992 75.2926L23.1706 74.8452L23.4433 74.2992L23.6174 73.7758L23.6853 73.1614L23.6166 72.5468L23.4418 72.0384L23.1759 71.4844L22.7886 71.0366L22.3484 70.657L21.7944 70.391L21.286 70.2162L20.6714 70.1475L20.057 70.2154L19.5336 70.3895L18.9876 70.6622L18.5403 71.0337L18.1688 71.481L17.8961 72.027L17.722 72.5504L17.6541 73.1648L17.7228 73.7794L17.8976 74.2878L18.1636 74.8418L18.5432 75.282L18.991 75.6693L19.545 75.9352L20.0534 76.11L20.668 76.1787L21.2824 76.1108L21.8058 75.9367L22.3518 75.664L22.7992 75.2926Z" fill="#C8C8CA"/>
<path d="M20.6639 70.1094L20.6301 76.1709M22.7992 75.2926L23.1706 74.8452L23.4433 74.2992L23.6174 73.7758L23.6853 73.1614L23.6166 72.5468L23.4418 72.0384L23.1759 71.4844L22.7886 71.0366L22.3484 70.657L21.7944 70.391L21.286 70.2162L20.6714 70.1475L20.057 70.2154L19.5336 70.3895L18.9876 70.6622L18.5403 71.0337L18.1688 71.481L17.8961 72.027L17.722 72.5504L17.6541 73.1648L17.7228 73.7794L17.8976 74.2878L18.1636 74.8418L18.5432 75.282L18.991 75.6693L19.545 75.9352L20.0534 76.11L20.668 76.1787L21.2824 76.1108L21.8058 75.9367L22.3518 75.664L22.7992 75.2926Z" stroke="#212830" stroke-width="0.25" stroke-miterlimit="10"/>
<path d="M37.8539 98.1318L45.5356 90.4502L28.2518 73.1664L20.5701 80.8481" fill="#AFD5A9"/>
<path d="M37.8539 98.1318L45.5356 90.4502L28.2518 73.1664L20.5701 80.8481" stroke="#212830" stroke-width="0.25" stroke-miterlimit="10"/>
<path d="M19.2899 82.1284L36.5737 99.4121L37.8539 98.1318L20.5702 80.8481L19.2899 82.1284Z" fill="#5EB34A" stroke="#1D1D1B" stroke-width="0.25" stroke-miterlimit="10"/>
<path d="M28.2518 73.1664L45.5355 90.4502L48.7362 87.2495L31.4525 69.9657L28.2518 73.1664Z" fill="#5EB34A" stroke="#1D1D1B" stroke-width="0.25" stroke-miterlimit="10"/>
<path d="M41.2305 79.7439L38.7969 82.1775L36.565 79.9456L38.9986 77.512L35.4685 73.9819L33.0349 76.4155L30.803 74.1835L33.2365 71.75" fill="#0C9B47"/>
<path d="M41.2305 79.7439L38.7969 82.1775L36.565 79.9456L38.9986 77.512L35.4685 73.9819L33.0349 76.4155L30.803 74.1835L33.2365 71.75" stroke="#212830" stroke-width="0.25" stroke-miterlimit="10"/>
<path d="M47.0002 85.5133L44.5666 87.9469L42.3347 85.715L44.7682 83.2814L41.2381 79.7513L38.8045 82.1849L36.5726 79.9529L39.0062 77.5194" fill="#0C9B47"/>
<path d="M47.0002 85.5133L44.5666 87.9469L42.3347 85.715L44.7682 83.2814L41.2381 79.7513L38.8045 82.1849L36.5726 79.9529L39.0062 77.5194" stroke="#212830" stroke-width="0.25" stroke-miterlimit="10"/>
<path class="1-WIRE-GND" d="M29.3298 82.3831L29.7088 81.9282L29.9815 81.3821L30.1557 80.874L30.2235 80.2595L30.1472 79.6374L29.98 79.1214L29.7065 78.575L29.3345 78.1271L28.8866 77.7551L28.3326 77.474L27.8166 77.3067L27.2021 77.238L26.5876 77.3059L26.0719 77.4724L25.5258 77.7452L25.0785 78.1318L24.6995 78.5715L24.4267 79.1176L24.2602 79.6333L24.1923 80.2478L24.261 80.8623L24.4283 81.3783L24.7094 81.9323L25.0814 82.3802L25.5293 82.7522L26.0757 83.0257L26.5917 83.1929L27.2138 83.2692L27.8283 83.2014L28.3364 83.0272L28.8825 82.7545L29.3298 82.3831Z" fill="#C8C8CA"/>
<path d="M27.2018 77.2076L27.1681 83.2691M29.3298 82.3831L29.7088 81.9282L29.9815 81.3821L30.1557 80.874L30.2235 80.2595L30.1472 79.6374L29.98 79.1214L29.7065 78.575L29.3345 78.1271L28.8866 77.7551L28.3326 77.474L27.8166 77.3067L27.2021 77.238L26.5876 77.3059L26.0719 77.4724L25.5258 77.7452L25.0785 78.1318L24.6995 78.5715L24.4267 79.1176L24.2602 79.6333L24.1923 80.2478L24.261 80.8623L24.4283 81.3783L24.7094 81.9323L25.0814 82.3802L25.5293 82.7522L26.0757 83.0257L26.5917 83.1929L27.2138 83.2692L27.8283 83.2014L28.3364 83.0272L28.8825 82.7545L29.3298 82.3831Z" stroke="#212830" stroke-width="0.25" stroke-miterlimit="10"/>
<path class="1-WIRE-DAT" d="M35.0088 87.9862L35.3803 87.5389L35.653 86.9928L35.8271 86.4695L35.895 85.855L35.8263 85.2405L35.6515 84.7321L35.3856 84.1781L34.9983 83.7302L34.5581 83.3506L34.0041 83.0847L33.4957 82.9099L32.8811 82.8412L32.2667 82.909L31.7433 83.0831L31.1973 83.3559L30.7499 83.7273L30.3785 84.1747L30.1058 84.7207L29.9317 85.244L29.8638 85.8585L29.9325 86.473L30.1073 86.9814L30.3732 87.5354L30.7529 87.9757L31.2007 88.3629L31.7547 88.6288L32.2631 88.8037L32.8777 88.8724L33.4921 88.8045L34.0155 88.6304L34.5615 88.3576L35.0088 87.9862Z" fill="#C8C8CA"/>
<path d="M32.7861 82.7155L32.7524 88.777M35.0088 87.9862L35.3803 87.5389L35.653 86.9928L35.8271 86.4695L35.895 85.855L35.8263 85.2405L35.6515 84.7321L35.3856 84.1781L34.9983 83.7302L34.5581 83.3506L34.0041 83.0847L33.4957 82.9099L32.8811 82.8412L32.2667 82.909L31.7433 83.0831L31.1973 83.3559L30.7499 83.7273L30.3785 84.1747L30.1058 84.7207L29.9317 85.244L29.8638 85.8585L29.9325 86.473L30.1073 86.9814L30.3732 87.5354L30.7529 87.9757L31.2007 88.3629L31.7547 88.6288L32.2631 88.8037L32.8777 88.8724L33.4921 88.8045L34.0155 88.6304L34.5615 88.3576L35.0088 87.9862Z" stroke="#212830" stroke-width="0.25" stroke-miterlimit="10"/>
<path class="1-WIRE-V+" d="M40.642 93.6195L41.0134 93.1721L41.2861 92.6261L41.4603 92.1027L41.5281 91.4883L41.4594 90.8737L41.2846 90.3653L41.0187 89.8113L40.6315 89.3635L40.1912 88.9839L39.6372 88.718L39.1288 88.5431L38.5143 88.4744L37.8998 88.5423L37.3765 88.7164L36.8304 88.9891L36.3831 89.3606L36.0117 89.8079L35.7389 90.3539L35.5648 90.8773L35.4969 91.4917L35.5656 92.1063L35.7405 92.6147L36.0064 93.1687L36.386 93.6089L36.8339 93.9962L37.3879 94.2621L37.8963 94.4369L38.5108 94.5056L39.1253 94.4377L39.6486 94.2636L40.1946 93.9909L40.642 93.6195Z" fill="#C8C8CA"/>
<path d="M38.5471 88.4769L38.5133 94.5384M40.642 93.6195L41.0134 93.1721L41.2861 92.6261L41.4603 92.1027L41.5281 91.4883L41.4594 90.8737L41.2846 90.3653L41.0187 89.8113L40.6315 89.3635L40.1912 88.9839L39.6372 88.718L39.1288 88.5431L38.5143 88.4744L37.8998 88.5423L37.3765 88.7164L36.8304 88.9891L36.3831 89.3606L36.0117 89.8079L35.7389 90.3539L35.5648 90.8773L35.4969 91.4917L35.5656 92.1063L35.7405 92.6147L36.0064 93.1687L36.386 93.6089L36.8339 93.9962L37.3879 94.2621L37.8963 94.4369L38.5108 94.5056L39.1253 94.4377L39.6486 94.2636L40.1946 93.9909L40.642 93.6195Z" stroke="#212830" stroke-width="0.25" stroke-miterlimit="10"/>
<rect x="62.5" y="-22.8787" width="120.744" height="120.744" rx="60.3718" transform="rotate(45 62.5 -22.8787)" stroke="url(#paint0_linear_351_271)" stroke-width="3"/>
<path d="M108.845 47.6616C109.787 48.6035 111.314 48.604 112.256 47.6625C113.197 46.721 113.197 45.1941 112.255 44.2521C111.313 43.3101 109.786 43.3097 108.844 44.2512C107.903 45.1927 107.903 46.7196 108.845 47.6616Z" stroke="#656565" stroke-width="0.8" stroke-miterlimit="10"/>
<path d="M77.3631 16.1795C78.3051 17.1215 79.832 17.1219 80.7735 16.1804C81.7149 15.2389 81.7145 13.7121 80.7725 12.7701C79.8305 11.8281 78.3037 11.8277 77.3622 12.7692C76.4207 13.7106 76.4211 15.2375 77.3631 16.1795Z" stroke="#656565" stroke-width="0.8" stroke-miterlimit="10"/>
<path d="M43.218 76.8599C43.6372 76.3892 43.6235 75.6819 43.1856 75.2441L43.1663 75.2247C42.7285 74.7869 42.0211 74.7862 41.5504 75.1924L40.6474 76.0954L42.3214 77.7694L43.2244 76.8664L43.218 76.8599ZM42.3195 77.2047L41.2057 76.0909L41.8077 75.4889C42.1214 75.2137 42.5952 75.2164 42.885 75.5061L42.8978 75.519C43.1876 75.8087 43.1902 76.2825 42.9151 76.5963L42.3131 77.1983L42.3195 77.2047Z" fill="#C8A30D"/>
<path d="M42.9612 76.5787C43.2625 76.2407 43.2676 75.7344 42.956 75.4228L42.9437 75.4105C42.6321 75.0989 42.1258 75.104 41.7878 75.4053L41.1294 76.0637L42.3089 77.2432L42.9673 76.5848L42.9612 76.5787Z" fill="#FBD312"/>
<path d="M49.2626 82.8416C49.7115 82.3316 49.7223 81.5752 49.2579 81.1108L49.2395 81.0924C48.7751 80.628 48.0187 80.6387 47.5087 81.0876L46.5242 82.0721L48.2904 83.8383L49.2749 82.8538L49.2626 82.8416Z" fill="#BE1622"/>
<path d="M37.6534 71.5459C38.1023 71.0359 38.1131 70.2796 37.6486 69.8151L37.6303 69.7968C37.1658 69.3323 36.4094 69.3431 35.8994 69.792L35.8355 69.8559L34.9086 70.7829L36.6747 72.549L37.6592 71.5646L37.6534 71.5459Z" fill="#2E2D2C"/>
<path d="M47.2073 71.8033L46.7981 71.3941L41.0641 65.6602L39.9826 66.7417L40.3508 67.11L40.9579 66.5029L46.3236 71.8686L45.7165 72.4757L45.7633 72.5225L46.0789 72.8381L46.1257 72.8848L46.7328 72.2778L52.0985 77.6435L51.4914 78.2506L51.8596 78.6188L52.9412 77.5372L47.2073 71.8033Z" fill="#2E2D2C"/>
<path d="M49.1205 80.2701L50.3559 78.4114L50.5392 78.5947L49.4868 80.0994L50.9915 79.047L51.1748 79.2303L49.3161 80.4657L49.1083 80.2579L49.1205 80.2701Z" fill="#3C3C3B"/>
<path d="M50.4939 80.0584L51.0989 80.6634L50.9327 80.8296L50.3277 80.2246L50.4939 80.0584ZM51.2305 80.0918L50.3675 80.9548L50.1964 80.7837L51.0594 79.9207L51.2305 80.0918Z" fill="#3C3C3B"/>
<path d="M42.4226 73.5722L43.9697 72.0251L44.1469 72.2024L42.5999 73.7494L42.4226 73.5722ZM42.5265 73.6761L42.6927 73.5099L43.0227 73.8399C43.0594 73.8766 43.1028 73.8943 43.1403 73.8935C43.1778 73.8926 43.222 73.8729 43.2667 73.8282L44.2256 72.8692C44.264 72.8309 44.2837 72.7867 44.291 72.7428C44.2918 72.7053 44.274 72.6619 44.2374 72.6253L43.9073 72.2953L44.0736 72.129L44.3975 72.453C44.4953 72.5507 44.543 72.6496 44.5408 72.7497C44.5385 72.8497 44.4924 72.957 44.3965 73.0529L43.4503 73.999C43.3864 74.0629 43.323 74.1018 43.2475 74.1285C43.1783 74.1488 43.1157 74.1502 43.0413 74.1269C42.9729 74.1097 42.9115 74.0611 42.8443 73.9939L42.5204 73.67L42.5265 73.6761Z" fill="#3C3C3B"/>
<path d="M43.2238 74.3731L45.1253 73.1805L45.3086 73.3639L44.116 75.2654L43.9205 75.0698L44.9679 73.509L43.4071 74.5565L43.2116 74.3609L43.2238 74.3731ZM43.7957 74.229L43.9619 74.0628L44.4508 74.5517L44.2846 74.7179L43.7957 74.229Z" fill="#3C3C3B"/>
<path d="M45.484 73.885L45.6502 73.7188L46.3958 74.4643L46.2296 74.6305L45.484 73.885ZM44.3907 75.5405L45.8099 74.1213L45.9871 74.2986L44.5679 75.7178L44.3907 75.5405Z" fill="#3C3C3B"/>
<path d="M47.2395 67.5087L45.6925 69.0558L45.5152 68.8785L46.8897 67.5041L46.4732 67.4073L46.6586 67.2219L47.0256 67.2948L47.2456 67.5148L47.2395 67.5087Z" fill="#3C3C3B"/>
<path d="M46.5583 68.6431L47.1023 69.187L46.9359 69.3534L46.3919 68.8095L46.5583 68.6431Z" fill="#3C3C3B"/>
<path d="M46.8785 70.2415L47.7339 68.885L47.905 69.0561L47.2073 70.0716L48.235 69.3861L48.3572 69.5084L47.6717 70.5361L48.6873 69.8384L48.8584 70.0095L47.5019 70.8649L47.3491 70.7121L47.9509 69.7925L47.0313 70.3943L46.8785 70.2415Z" fill="#3C3C3B"/>
<path d="M49.2712 69.9624L49.4502 69.7834L49.6274 69.9607L49.4484 70.1397L49.2712 69.9624ZM47.9351 71.2985L49.0411 70.1926L49.2183 70.3698L48.1123 71.4757L47.9351 71.2985Z" fill="#3C3C3B"/>
<path d="M48.3573 71.7211L49.4632 70.6151L49.6405 70.7924L48.5345 71.8983L48.3573 71.7211ZM49.8109 71.2697L49.7865 71.2452C49.6948 71.1536 49.6023 71.0994 49.5026 71.0892C49.4028 71.0789 49.3144 71.1184 49.2316 71.189L49.4181 70.9536C49.5187 70.9263 49.6252 70.9177 49.7182 70.9468C49.8113 70.976 49.9041 71.0176 49.9774 71.091L49.8048 71.2636L49.8109 71.2697Z" fill="#3C3C3B"/>
<path d="M49.3099 72.699C49.206 72.5951 49.1524 72.4776 49.1613 72.3587C49.1702 72.2397 49.2292 72.1197 49.3442 72.0046L49.7278 71.621C49.8492 71.4996 49.9757 71.4342 50.101 71.4189C50.2263 71.4036 50.3377 71.4511 50.4416 71.555C50.5455 71.6589 50.593 71.7703 50.5902 71.8953C50.5813 72.0143 50.5223 72.1343 50.4073 72.2494L50.126 72.5307L49.5882 71.9929L49.7416 71.8394L50.1083 72.2061L50.2298 72.0847C50.2937 72.0207 50.3326 71.9574 50.334 71.8948C50.3354 71.8323 50.3179 71.7765 50.269 71.7276C50.2201 71.6787 50.1643 71.6612 50.0954 71.669C50.0265 71.6768 49.9631 71.7157 49.8928 71.786L49.49 72.1888C49.4261 72.2527 49.3936 72.3097 49.3858 72.3786C49.378 72.4475 49.4019 72.497 49.4569 72.552C49.5058 72.6009 49.5552 72.6247 49.6052 72.6236C49.6553 72.6225 49.7119 72.6025 49.757 72.5452L49.9281 72.7163C49.8194 72.825 49.7121 72.8712 49.5996 72.8737C49.4871 72.8762 49.3821 72.8223 49.2782 72.7185L49.3099 72.699Z" fill="#3C3C3B"/>
<path d="M38.0987 67.4098L38.4715 67.7826L38.024 68.2301C37.9409 68.3132 37.8583 68.3713 37.7639 68.4047C37.6758 68.4317 37.5882 68.4336 37.5013 68.4106C37.4143 68.3876 37.3343 68.3331 37.2548 68.2537C37.1754 68.1742 37.121 68.0942 37.0979 68.0073C37.0749 67.9203 37.0704 67.8392 37.0974 67.7511C37.1244 67.663 37.1761 67.5868 37.2592 67.5037L38.0647 66.6982C38.1478 66.6151 38.2304 66.557 38.3248 66.5237C38.4129 66.4967 38.5005 66.4947 38.5874 66.5178C38.6744 66.5408 38.7544 66.5952 38.8339 66.6747C38.9133 66.7541 38.9616 66.828 38.9847 66.915C39.0077 67.002 39.0057 67.0895 38.9726 67.1715C38.9457 67.2595 38.8876 67.3421 38.8045 67.4252L38.7277 67.5019L38.5383 67.3125L38.615 67.2357C38.6853 67.1654 38.7242 67.1021 38.732 67.0331C38.7398 66.9642 38.7162 66.9023 38.6612 66.8473C38.6001 66.7862 38.5321 66.7564 38.4631 66.7642C38.3942 66.772 38.3184 66.8112 38.248 66.8816L37.4426 67.687C37.3786 67.751 37.3458 67.8205 37.3505 67.8891C37.3488 67.9641 37.3849 68.0258 37.4461 68.0869C37.5072 68.148 37.5752 68.1777 37.6442 68.1699C37.7192 68.1682 37.7889 68.1229 37.8529 68.059L38.1405 67.7713L37.945 67.5758L38.1112 67.4096L38.0987 67.4098Z" fill="#3C3C3B"/>
<path d="M37.8298 68.8027L39.3768 67.2556L39.5357 67.4145L38.7606 69.0942L38.7044 69.0892L39.9574 67.8362L40.1285 68.0073L38.5815 69.5544L38.4165 69.3894L39.1725 67.7289L39.2286 67.7339L37.9948 68.9677L37.8237 68.7966L37.8298 68.8027Z" fill="#3C3C3B"/>
<path d="M38.8021 69.7748L40.3491 68.2278L40.5263 68.405L38.9793 69.9521L38.8021 69.7748ZM38.906 69.8787L39.0722 69.7125L39.4022 70.0425C39.4389 70.0792 39.4822 70.097 39.5197 70.0961C39.5572 70.0953 39.6014 70.0755 39.6462 70.0308L40.6051 69.0719C40.6434 69.0335 40.6632 68.9893 40.6704 68.9454C40.6713 68.9079 40.6535 68.8646 40.6168 68.8279L40.2868 68.4979L40.453 68.3317L40.7769 68.6556C40.8747 68.7534 40.9225 68.8523 40.9202 68.9523C40.918 69.0523 40.8718 69.1596 40.7759 69.2555L39.8298 70.2016C39.7659 70.2656 39.7025 70.3045 39.6269 70.3312C39.5577 70.3515 39.4952 70.3529 39.4207 70.3296C39.3524 70.3124 39.291 70.2637 39.2238 70.1965L38.8999 69.8726L38.906 69.8787Z" fill="#3C3C3B"/>
<path d="M25.2612 59.3211C25.6806 58.8419 25.6749 58.1173 25.22 57.6625L25.202 57.6445C24.7472 57.1896 24.0226 57.1839 23.5434 57.6033L22.6208 58.5258L24.3506 60.2556L25.2732 59.3331L25.2612 59.3211ZM24.3449 59.6748L23.1897 58.5196L23.8067 57.9026C24.1242 57.621 24.6092 57.6268 24.9145 57.932L24.9265 57.944C25.2317 58.2493 25.2375 58.7343 24.9559 59.0518L24.3389 59.6688L24.3449 59.6748Z" fill="#C8A30D"/>
<path d="M24.9558 59.0514C25.2374 58.7339 25.2316 58.2489 24.9264 57.9436L24.9144 57.9317C24.6091 57.6264 24.1241 57.6206 23.8066 57.9022L23.1896 58.5192L24.3448 59.6744L24.9618 59.0574L24.9558 59.0514Z" fill="#FBD312"/>
<path d="M31.1331 65.1929C31.5525 64.7137 31.5468 63.9892 31.0919 63.5343L31.0739 63.5163C30.619 63.0614 29.8945 63.0558 29.4153 63.4751L28.4927 64.3977L30.2225 66.1275L31.1451 65.2049L31.1331 65.1929ZM30.2108 65.5406L29.0556 64.3855L29.6726 63.7684C29.9901 63.4868 30.4751 63.4926 30.7804 63.7979L30.7924 63.8099C31.0976 64.1151 31.1034 64.6001 30.8218 64.9176L30.2048 65.5347L30.2108 65.5406Z" fill="#2E2D2C"/>
<path d="M28.8925 53.5353L27.9639 54.4638L28.335 54.8349L28.8562 54.3137L34.4047 59.8623L33.8835 60.3834L34.2546 60.7545L35.1832 59.826L28.8925 53.5353Z" fill="#2E2D2C"/>
<path d="M31.5121 62.3841L32.9618 60.9343L33.1354 61.1079L31.6856 62.5576L31.5121 62.3841ZM31.6377 62.5098L31.7935 62.354L32.0629 62.6233C32.1048 62.6652 32.1526 62.6892 32.1946 62.6951C32.2365 62.7011 32.2844 62.6771 32.3203 62.6412L32.542 62.4195C32.5959 62.3656 32.6318 62.3057 32.6319 62.2459C32.6319 62.186 32.614 62.1321 32.5721 62.0902L32.3087 61.8268L32.4645 61.6711L32.7278 61.9344C32.7697 61.9763 32.8116 61.9943 32.8655 61.9883C32.9194 61.9823 32.9673 61.9583 33.0212 61.9044L33.201 61.7246C33.2369 61.6887 33.2549 61.6468 33.2549 61.5989C33.2549 61.551 33.231 61.5151 33.1891 61.4732L32.9257 61.2098L33.0815 61.054L33.3389 61.3114C33.4346 61.4072 33.4885 61.509 33.4944 61.6107C33.5004 61.7125 33.4584 61.8024 33.3745 61.8863L33.2008 62.06C33.1349 62.1259 33.063 62.1738 32.9912 62.1858C32.9193 62.1978 32.8475 62.1859 32.7816 62.144C32.8295 62.2158 32.8534 62.2877 32.8354 62.3655C32.8174 62.4434 32.7755 62.5212 32.7036 62.5931L32.4939 62.8028C32.4041 62.8927 32.3142 62.9346 32.2124 62.9287C32.1106 62.9227 32.0148 62.8749 31.9191 62.7791L31.6318 62.4918L31.6377 62.5098Z" fill="#3C3C3B"/>
<path d="M25.5444 56.4163L27.3412 55.3137L27.5208 55.4933L26.4182 57.2902L26.2267 57.0986L27.1974 55.6252L25.7239 56.5959L25.5324 56.4043L25.5444 56.4163ZM26.0893 56.2903L26.2451 56.1346L26.7239 56.6134L26.5682 56.7691L26.0893 56.2903Z" fill="#3C3C3B"/>
<path d="M31.3872 55.0628L32.8369 53.613L33.0105 53.7866L31.5608 55.2363L31.3872 55.0628ZM32.7829 53.8706L32.9387 53.7148L33.4833 54.2595L33.3276 54.4152L32.7829 53.8706ZM32.1299 54.5235L32.2857 54.3678L32.7765 54.8586L32.6207 55.0143L32.1299 54.5235ZM31.4889 55.1645L31.6447 55.0088L32.1894 55.5534L32.0336 55.7092L31.4889 55.1645Z" fill="#3C3C3B"/>
<path d="M32.0873 55.763L33.2851 55.3074L34.1595 54.9357L34.345 55.1213L33.2131 55.5589L32.2728 55.9485L32.0873 55.763ZM32.7337 56.4094L33.1053 55.511L33.1293 55.4272L33.5549 54.3312L33.7405 54.5167L33.3868 55.3372L33.3688 55.4271L32.9252 56.589L32.7397 56.4034L32.7337 56.4094Z" fill="#3C3C3B"/>
<path d="M34.2972 55.3848L34.4529 55.229L35.1832 55.9592L35.0274 56.115L34.2972 55.3848ZM33.2845 56.9601L34.6144 55.6301L34.788 55.8037L33.4581 57.1336L33.2845 56.9601Z" fill="#3C3C3B"/>
<rect x="88.75" y="20.7033" width="21.9863" height="4.45599" rx="2.22799" transform="rotate(45 88.75 20.7033)" stroke="#656565" stroke-width="0.7"/>
<rect x="62.5" y="-18.4595" width="114.494" height="114.494" rx="57.2471" transform="rotate(45 62.5 -18.4595)" stroke="#606060"/>
</g>
<defs>
<linearGradient id="paint0_linear_351_271" x1="69.7184" y1="66.261" x2="177.479" y2="3.35793" gradientUnits="userSpaceOnUse">
<stop/>
<stop offset="1" stop-color="#939598"/>
</linearGradient>
</defs>
</svg>
