<svg width="11" height="12" viewBox="0 0 11 12" fill="none" xmlns="http://www.w3.org/2000/svg">
<path d="M5.76161 0C6.18804 0 6.5742 0.236839 6.78741 0.586464C6.89116 0.755634 6.96027 0.964286 6.94304 1.18421C6.93143 1.35338 6.9833 1.52255 7.07554 1.68045C7.36946 2.15977 8.02063 2.34021 8.52777 2.06959C9.0983 1.74248 9.81866 1.93985 10.1471 2.49816L10.5333 3.16352C10.8675 3.72182 10.6831 4.43798 10.1069 4.75941C9.61696 5.047 9.44411 5.68423 9.73804 6.16914C9.83018 6.32146 9.93393 6.45111 10.0953 6.53004C10.2971 6.63718 10.4526 6.80637 10.5621 6.97557C10.7754 7.32521 10.758 7.75379 10.5506 8.13155L10.1471 8.80825C9.93393 9.16914 9.53634 9.39477 9.12714 9.39477C8.92545 9.39477 8.70071 9.33834 8.51625 9.22557C8.36643 9.12968 8.19357 9.09584 8.00911 9.09584C7.43857 9.09584 6.96027 9.56387 6.94304 10.1222C6.94304 10.7707 6.41277 11.2782 5.75009 11.2782H4.96634C4.29786 11.2782 3.76759 10.7707 3.76759 10.1222C3.75607 9.56387 3.27777 9.09584 2.70723 9.09584C2.51705 9.09584 2.3442 9.12968 2.20009 9.22557C2.01571 9.33834 1.78518 9.39477 1.58924 9.39477C1.17431 9.39477 0.77667 9.16914 0.563447 8.80825L0.165804 8.13155C-0.0474279 7.76504 -0.0589547 7.32521 0.154277 6.97557C0.246483 6.80637 0.419367 6.63718 0.615313 6.53004C0.77667 6.45111 0.880402 6.32146 0.978376 6.16914C1.26652 5.68423 1.09363 5.047 0.603786 4.75941C0.0332507 4.43798 -0.15116 3.72182 0.177331 3.16352L0.563447 2.49816C0.897688 1.93985 1.6123 1.74248 2.18857 2.06959C2.69 2.34021 3.34116 2.15977 3.63509 1.68045C3.72732 1.52255 3.77911 1.35338 3.76759 1.18421C3.75607 0.964286 3.81946 0.755634 3.92902 0.586464C4.14223 0.236839 4.5283 0.0112768 4.94902 0H5.76161ZM5.36393 4.04887C4.4592 4.04887 3.72732 4.75941 3.72732 5.64477C3.72732 6.53004 4.4592 7.23495 5.36393 7.23495C6.26875 7.23495 6.9833 6.53004 6.9833 5.64477C6.9833 4.75941 6.26875 4.04887 5.36393 4.04887Z" fill="#868686"/>
</svg>
