<svg width="71" height="75" viewBox="0 0 71 75" fill="none" xmlns="http://www.w3.org/2000/svg">
<path d="M34.8857 50.3526V63.1624H44.2063V50.3526H34.8857Z" fill="#D5D5D5"/>
<path d="M19.5775 72.9583L19.8931 72.4104V59.3421L19.5775 58.7993" fill="#D5D5D5"/>
<path d="M19.5775 72.9583L19.8931 72.4104V59.3421L19.5775 58.7993" stroke="black" stroke-width="0.25" stroke-miterlimit="2"/>
<path d="M20.7626 72.4105H19.8931V59.3423H20.7626" fill="#D5D5D5"/>
<path d="M20.7626 72.4105H19.8931V59.3423H20.7626" stroke="black" stroke-width="0.25" stroke-miterlimit="2"/>
<path d="M21.3318 71.4335L20.7626 72.4105V62.7438V59.3423L21.3318 60.3245" fill="#D5D5D5"/>
<path d="M21.3318 71.4335L20.7626 72.4105V62.7438V59.3423L21.3318 60.3245" stroke="black" stroke-width="0.25" stroke-miterlimit="2"/>
<path d="M22.812 71.4333H21.3319V60.3242H22.812" fill="#D5D5D5"/>
<path d="M22.812 71.4333H21.3319V60.3242H22.812" stroke="black" stroke-width="0.25" stroke-miterlimit="2"/>
<path d="M30.0107 73.0876H30.3419V58.6702H30.0107" fill="#D5D5D5"/>
<path d="M30.0107 73.0876H30.3419V58.6702H30.0107" stroke="black" stroke-width="0.25" stroke-miterlimit="2"/>
<path d="M30.9267 59.673L30.3574 58.6908L30.3419 58.6702V59.549V69.3347V73.0876L30.3574 73.067L30.9267 72.0848" fill="#D5D5D5"/>
<path d="M30.9267 59.673L30.3574 58.6908L30.3419 58.6702V59.549V69.3347V73.0876L30.3574 73.067L30.9267 72.0848" stroke="black" stroke-width="0.25" stroke-miterlimit="2"/>
<path d="M30.0107 58.9028V74.044L29.9435 74.1525H29.4415H23.3813H22.8793L22.812 74.044V58.9028V57.7087L22.8793 57.6001H23.3813H29.4415H29.9435L30.0107 57.7087V58.9028Z" fill="#D5D5D5" stroke="black" stroke-width="0.25" stroke-miterlimit="2"/>
<path d="M31.4908 59.9985L31.3821 59.9882L31.2786 59.9623L31.1803 59.9158L31.0871 59.8589L31.0095 59.7866L30.9422 59.6987L30.9267 59.6729V60.4328V72.0846L30.9888 71.9967L31.0613 71.9192L31.1492 71.8571L31.2476 71.8055L31.3511 71.7744L31.4597 71.7589H31.4908" fill="#D5D5D5"/>
<path d="M31.4908 59.9985L31.3821 59.9882L31.2786 59.9623L31.1803 59.9158L31.0871 59.8589L31.0095 59.7866L30.9422 59.6987L30.9267 59.6729V60.4328V72.0846L30.9888 71.9967L31.0613 71.9192L31.1492 71.8571L31.2476 71.8055L31.3511 71.7744L31.4597 71.7589H31.4908" stroke="black" stroke-width="0.25" stroke-miterlimit="2"/>
<path d="M34.8858 60.6395L34.7926 60.5827L34.7047 60.5206L34.6115 60.4586L34.5235 60.3966L34.4355 60.3345L34.3424 60.2725L34.2544 60.2105L34.1664 60.1484L34.0785 60.0864L33.9905 60.0192L33.9542 59.9985H31.4908V60.7171V71.7589H34.8858" fill="#D5D5D5"/>
<path d="M34.8858 60.6395L34.7926 60.5827L34.7047 60.5206L34.6115 60.4586L34.5235 60.3966L34.4355 60.3345L34.3424 60.2725L34.2544 60.2105L34.1664 60.1484L34.0785 60.0864L33.9905 60.0192L33.9542 59.9985H31.4908V60.7171V71.7589H34.8858" stroke="black" stroke-width="0.25" stroke-miterlimit="2"/>
<path d="M43.9165 57.2537H44.5272L44.5013 57.264L44.4029 57.3106L44.3201 57.3779L44.258 57.471L44.2166 57.5694L44.2063 57.678H43.6318H34.8288V57.647L34.8081 57.5435L34.7615 57.4451L34.6942 57.3572L34.6063 57.2951L34.5079 57.2537" fill="#EBEBEB"/>
<path d="M43.9165 57.2537H44.5272L44.5013 57.264L44.4029 57.3106L44.3201 57.3779L44.258 57.471L44.2166 57.5694L44.2063 57.678H43.6318H34.8288V57.647L34.8081 57.5435L34.7615 57.4451L34.6942 57.3572L34.6063 57.2951L34.5079 57.2537" stroke="black" stroke-width="0.25" stroke-miterlimit="2"/>
<path d="M42.0586 59.8489L41.9189 59.9419L41.7895 60.0557L41.6498 60.2004L41.5256 60.3555L41.3289 60.6811L41.391 60.7432L41.4738 60.8156L41.5566 60.8828L41.6446 60.95L41.7326 61.0068L41.8257 61.0689L41.9189 61.1206H41.9292L42.012 61.1567L42.0897 61.1826L42.1621 61.2033L42.2242 61.2188L42.2863 61.0068L42.3691 60.8156L42.4468 60.6656L42.5296 60.5416" fill="#D5D5D5"/>
<path d="M42.0586 59.8489L41.9189 59.9419L41.7895 60.0557L41.6498 60.2004L41.5256 60.3555L41.3289 60.6811L41.391 60.7432L41.4738 60.8156L41.5566 60.8828L41.6446 60.95L41.7326 61.0068L41.8257 61.0689L41.9189 61.1206H41.9292L42.012 61.1567L42.0897 61.1826L42.1621 61.2033L42.2242 61.2188L42.2863 61.0068L42.3691 60.8156L42.4468 60.6656L42.5296 60.5416" stroke="black" stroke-width="0.25" stroke-miterlimit="2"/>
<path d="M45.0757 59.1251L44.9671 59.1199L44.8636 59.0992L44.7601 59.063L44.6617 59.0217L44.5686 58.9648L44.4806 58.8924L44.4081 58.8149L44.3409 58.727L44.2891 58.634L44.2477 58.5306L44.2218 58.4272L44.2063 58.3186V58.2566L44.1235 58.3238L44.0407 58.3962L43.9527 58.4685L43.8699 58.5357L43.7871 58.6081L43.7043 58.6753L43.6319 58.7373L43.5439 58.8045L43.4611 58.8718L43.3731 58.939L43.2903 59.0062L43.2023 59.0734L43.1143 59.1354L43.0471 59.1871L42.9591 59.2543L42.8711 59.3163L42.7831 59.3784L42.69 59.4404L42.602 59.5024L42.514 59.5645L42.4209 59.6265L42.3277 59.6833L42.2346 59.7402L42.1466 59.7971L42.0586 59.8488L42.0689 59.8746L42.1103 59.9728L42.1569 60.0711L42.2087 60.1693L42.2656 60.2572L42.3329 60.3399L42.395 60.4174L42.4623 60.4846L42.5295 60.5415" fill="#D5D5D5"/>
<path d="M45.0757 59.1251L44.9671 59.1199L44.8636 59.0992L44.7601 59.063L44.6617 59.0217L44.5686 58.9648L44.4806 58.8924L44.4081 58.8149L44.3409 58.727L44.2891 58.634L44.2477 58.5306L44.2218 58.4272L44.2063 58.3186V58.2566L44.1235 58.3238L44.0407 58.3962L43.9527 58.4685L43.8699 58.5357L43.7871 58.6081L43.7043 58.6753L43.6319 58.7373L43.5439 58.8045L43.4611 58.8718L43.3731 58.939L43.2903 59.0062L43.2023 59.0734L43.1143 59.1354L43.0471 59.1871L42.9591 59.2543L42.8711 59.3163L42.7831 59.3784L42.69 59.4404L42.602 59.5024L42.514 59.5645L42.4209 59.6265L42.3277 59.6833L42.2346 59.7402L42.1466 59.7971L42.0586 59.8488L42.0689 59.8746L42.1103 59.9728L42.1569 60.0711L42.2087 60.1693L42.2656 60.2572L42.3329 60.3399L42.395 60.4174L42.4623 60.4846L42.5295 60.5415" stroke="black" stroke-width="0.25" stroke-miterlimit="2"/>
<path d="M47.5857 59.3421L47.3632 59.125H45.0757L44.9826 59.187L44.8946 59.2439L44.8015 59.3008L44.7083 59.3628L44.6152 59.4197L44.522 59.4765L44.4288 59.5334L44.3978 59.5489L44.3046 59.6058L44.2063 59.6626L44.1132 59.7195L44.02 59.7712L43.9268 59.828L43.8337 59.8797L43.7354 59.9366L43.7043 59.9521L43.606 60.0038L43.5128 60.0555L43.4145 60.1072L43.3213 60.1589L43.223 60.2106L43.1247 60.2571L43.0264 60.3088L42.928 60.3553L42.8297 60.4018L42.7314 60.4484L42.633 60.4949L42.5347 60.5414H42.5295V72.6275H47.3632L47.5857 72.4104" fill="#D5D5D5"/>
<path d="M47.5857 59.3421L47.3632 59.125H45.0757L44.9826 59.187L44.8946 59.2439L44.8015 59.3008L44.7083 59.3628L44.6152 59.4197L44.522 59.4765L44.4288 59.5334L44.3978 59.5489L44.3046 59.6058L44.2063 59.6626L44.1132 59.7195L44.02 59.7712L43.9268 59.828L43.8337 59.8797L43.7354 59.9366L43.7043 59.9521L43.606 60.0038L43.5128 60.0555L43.4145 60.1072L43.3213 60.1589L43.223 60.2106L43.1247 60.2571L43.0264 60.3088L42.928 60.3553L42.8297 60.4018L42.7314 60.4484L42.633 60.4949L42.5347 60.5414H42.5295V72.6275H47.3632L47.5857 72.4104" stroke="black" stroke-width="0.25" stroke-miterlimit="2"/>
<path d="M47.5857 59.3423H48.2378V72.4105H47.5857" fill="#D5D5D5"/>
<path d="M47.5857 59.3423H48.2378V72.4105H47.5857" stroke="black" stroke-width="0.25" stroke-miterlimit="2"/>
<path d="M48.2378 72.4105L48.6311 73.0876H49.0244V58.6702H48.6311L48.2378 59.3422" fill="#D5D5D5"/>
<path d="M48.2378 72.4105L48.6311 73.0876H49.0244V58.6702H48.6311L48.2378 59.3422" stroke="black" stroke-width="0.25" stroke-miterlimit="2"/>
<path d="M59.142 59.3421L59.4525 58.7993H69.9117V72.9583H59.4525L59.142 72.4104V69.0089" fill="#EBEBEB"/>
<path d="M59.142 59.3421L59.4525 58.7993H69.9117V72.9583H59.4525L59.142 72.4104V69.0089" stroke="black" stroke-width="0.25" stroke-miterlimit="2"/>
<path d="M56.218 72.855V57.7087L56.1559 57.6001H55.6539H49.5886H49.0866L49.0245 57.7087V72.855V74.044L49.0866 74.1525H49.5886H55.6539H56.1559L56.218 74.044V72.855Z" fill="#D5D5D5" stroke="black" stroke-width="0.25" stroke-miterlimit="2"/>
<path d="M57.7033 71.4335L58.2674 72.4105H59.142V59.3423H58.2674L57.7033 60.3245" fill="#D5D5D5"/>
<path d="M57.7033 71.4335L58.2674 72.4105H59.142V59.3423H58.2674L57.7033 60.3245" stroke="black" stroke-width="0.25" stroke-miterlimit="2"/>
<path d="M46.6025 56.9487V54.1624H32.4327V56.9487" fill="#EBEBEB"/>
<path d="M46.6025 56.9487V54.1624H32.4327V56.9487" stroke="black" stroke-width="0.25" stroke-miterlimit="2"/>
<path d="M40.3611 57.2641L40.4082 57.2537" stroke="black" stroke-width="0.25" stroke-miterlimit="2"/>
<path d="M40.3616 57.2639V57.2744L40.3564 57.2796L40.3407 57.2953L40.3093 57.3005" fill="#EBEBEB"/>
<path d="M40.3616 57.2639V57.2744L40.3564 57.2796L40.3407 57.2953L40.3093 57.3005" stroke="black" stroke-width="0.25" stroke-miterlimit="2"/>
<path d="M40.299 57.3159L40.3096 57.3" stroke="black" stroke-width="0.25" stroke-miterlimit="2"/>
<path d="M40.4077 57.2537V57.264L40.387 57.2899L40.3404 57.3158H40.299" fill="#EBEBEB"/>
<path d="M40.4077 57.2537V57.264L40.387 57.2899L40.3404 57.3158H40.299" stroke="black" stroke-width="0.25" stroke-miterlimit="2"/>
<path d="M40.3456 57.1762L40.3927 57.1658" stroke="black" stroke-width="0.25" stroke-miterlimit="2"/>
<path d="M40.3612 57.264L40.3456 57.176" stroke="black" stroke-width="0.25" stroke-miterlimit="2"/>
<path d="M40.4077 57.2538L40.3922 57.1658" stroke="black" stroke-width="0.25" stroke-miterlimit="2"/>
<path d="M40.3456 57.1764V57.1609L40.3612 57.1299L40.4077 57.0108L40.4129 56.9487" fill="#EBEBEB"/>
<path d="M40.3456 57.1764V57.1609L40.3612 57.1299L40.4077 57.0108L40.4129 56.9487" stroke="black" stroke-width="0.25" stroke-miterlimit="2"/>
<path d="M40.3922 57.1661V57.1609V57.1557L40.3973 57.1506L40.4129 57.1299L40.4801 57.0471L40.5164 56.9487" fill="#EBEBEB"/>
<path d="M40.3922 57.1661V57.1609V57.1557L40.3973 57.1506L40.4129 57.1299L40.4801 57.0471L40.5164 56.9487" stroke="black" stroke-width="0.25" stroke-miterlimit="2"/>
<path d="M38.7051 56.9331V56.9437" stroke="black" stroke-width="0.25" stroke-miterlimit="2"/>
<path d="M38.7051 56.9437L38.7104 56.9331" stroke="black" stroke-width="0.25" stroke-miterlimit="2"/>
<path d="M38.7361 57.1658L38.7779 57.171" stroke="black" stroke-width="0.25" stroke-miterlimit="2"/>
<path d="M38.7051 56.9436L38.7154 57.0057L38.7517 57.104L38.7724 57.1454L38.7775 57.161V57.1713" fill="#EBEBEB"/>
<path d="M38.7051 56.9436L38.7154 57.0057L38.7517 57.104L38.7724 57.1454L38.7775 57.161V57.1713" stroke="black" stroke-width="0.25" stroke-miterlimit="2"/>
<path d="M38.6016 56.9487L38.6171 57.0005L38.674 57.0885L38.7258 57.1454L38.7361 57.1557V57.1609V57.1661" fill="#EBEBEB"/>
<path d="M38.6016 56.9487L38.6171 57.0005L38.674 57.0885L38.7258 57.1454L38.7361 57.1557V57.1609V57.1661" stroke="black" stroke-width="0.25" stroke-miterlimit="2"/>
<path d="M38.7206 57.2537L38.7624 57.2641" stroke="black" stroke-width="0.25" stroke-miterlimit="2"/>
<path d="M38.7776 57.1709L38.762 57.2641" stroke="black" stroke-width="0.25" stroke-miterlimit="2"/>
<path d="M38.7361 57.1658L38.7206 57.2538" stroke="black" stroke-width="0.25" stroke-miterlimit="2"/>
<path d="M38.8086 57.2949L38.8191 57.3107" stroke="black" stroke-width="0.25" stroke-miterlimit="2"/>
<path d="M38.8091 57.2953L38.7829 57.2901L38.7673 57.2744L38.762 57.2691V57.2639" fill="#EBEBEB"/>
<path d="M38.8091 57.2953L38.7829 57.2901L38.7673 57.2744L38.762 57.2691V57.2639" stroke="black" stroke-width="0.25" stroke-miterlimit="2"/>
<path d="M38.8189 57.3106L38.7672 57.3002L38.7309 57.2692L38.7206 57.2588V57.2537" fill="#EBEBEB"/>
<path d="M38.8189 57.3106L38.7672 57.3002L38.7309 57.2692L38.7206 57.2588V57.2537" stroke="black" stroke-width="0.25" stroke-miterlimit="2"/>
<path d="M40.3094 57.3003L39.6832 57.2693L39.145 57.2745L38.8086 57.2952" fill="#EBEBEB"/>
<path d="M40.3094 57.3003L39.6832 57.2693L39.145 57.2745L38.8086 57.2952" stroke="black" stroke-width="0.25" stroke-miterlimit="2"/>
<path d="M40.299 57.3159L39.7142 57.2745L39.4141 57.2693L38.9638 57.2952L38.8189 57.3107" fill="#EBEBEB"/>
<path d="M40.299 57.3159L39.7142 57.2745L39.4141 57.2693L38.9638 57.2952L38.8189 57.3107" stroke="black" stroke-width="0.25" stroke-miterlimit="2"/>
<path d="M40.3922 57.1658H44.2063" stroke="black" stroke-width="0.25" stroke-miterlimit="2"/>
<path d="M34.1716 57.1658H38.7361" stroke="black" stroke-width="0.25" stroke-miterlimit="2"/>
<path d="M40.4077 57.2537H43.9165" stroke="black" stroke-width="0.25" stroke-miterlimit="2"/>
<path d="M34.5079 57.2537H38.7206" stroke="black" stroke-width="0.25" stroke-miterlimit="2"/>
<path d="M44.8636 57.1658H44.2064" stroke="black" stroke-width="0.25" stroke-miterlimit="2"/>
<path d="M30.3575 59.5696V73.0669" stroke="black" stroke-width="0.25" stroke-miterlimit="2"/>
<path d="M30.3575 59.5697V58.6909" stroke="black" stroke-width="0.25" stroke-miterlimit="2"/>
<path d="M31.4908 71.7591V60.7173" stroke="black" stroke-width="0.25" stroke-miterlimit="2"/>
<path d="M41.8412 61.4309L41.8257 61.3377L41.7947 61.2911L41.7636 61.2653L41.8464 61.198L41.9189 61.1204L42.0482 61.2083L42.1103 61.2756L42.1518 61.3429" fill="#D5D5D5"/>
<path d="M41.8412 61.4309L41.8257 61.3377L41.7947 61.2911L41.7636 61.2653L41.8464 61.198L41.9189 61.1204L42.0482 61.2083L42.1103 61.2756L42.1518 61.3429" stroke="black" stroke-width="0.25" stroke-miterlimit="2"/>
<path d="M35.3878 60.3603L35.2843 60.3396L35.2635 60.3345" fill="#EBEBEB"/>
<path d="M35.3878 60.3603L35.2843 60.3396L35.2635 60.3345" stroke="black" stroke-width="0.25" stroke-miterlimit="2"/>
<path d="M35.5327 59.7971L35.5378 59.854L35.5068 60.0969L35.4602 60.2313L35.3878 60.3606" fill="#EBEBEB"/>
<path d="M35.5327 59.7971L35.5378 59.854L35.5068 60.0969L35.4602 60.2313L35.3878 60.3606" stroke="black" stroke-width="0.25" stroke-miterlimit="2"/>
<path d="M42.2242 61.2185L42.1518 61.3427" stroke="black" stroke-width="0.25" stroke-miterlimit="2"/>
<path d="M35.6206 59.7607L35.5327 59.797" stroke="black" stroke-width="0.25" stroke-miterlimit="2"/>
<path d="M40.1697 56.6282H38.881" stroke="black" stroke-width="0.25" stroke-miterlimit="2"/>
<path d="M38.881 56.6281V55.4805" stroke="black" stroke-width="0.25" stroke-miterlimit="2"/>
<path d="M38.881 55.4805H38.8864" stroke="black" stroke-width="0.25" stroke-miterlimit="2"/>
<path d="M40.1696 55.4805H38.8862" stroke="black" stroke-width="0.25" stroke-miterlimit="2"/>
<path d="M40.1696 56.6281V55.4805" stroke="black" stroke-width="0.25" stroke-miterlimit="2"/>
<path d="M40.1696 55.2271V55.3202" stroke="black" stroke-width="0.25" stroke-miterlimit="2"/>
<path d="M40.0558 55.2065L40.1696 55.3204" stroke="black" stroke-width="0.25" stroke-miterlimit="2"/>
<path d="M40.0558 55.2065H40.1489" stroke="black" stroke-width="0.25" stroke-miterlimit="2"/>
<path d="M40.149 55.2065L40.1699 55.2275" stroke="black" stroke-width="0.25" stroke-miterlimit="2"/>
<path d="M38.8813 55.4805H38.8604" stroke="black" stroke-width="0.25" stroke-miterlimit="2"/>
<path d="M38.8604 56.6282H38.8813" stroke="black" stroke-width="0.25" stroke-miterlimit="2"/>
<path d="M38.8604 56.6281V55.4805" stroke="black" stroke-width="0.25" stroke-miterlimit="2"/>
<path d="M38.8604 55.4548L38.8865 55.481" stroke="black" stroke-width="0.25" stroke-miterlimit="2"/>
<path d="M38.8604 55.4651L38.8813 55.4808" stroke="black" stroke-width="0.25" stroke-miterlimit="2"/>
<path d="M38.8604 55.4548V55.4655" stroke="black" stroke-width="0.25" stroke-miterlimit="2"/>
<path d="M38.8862 55.4807V55.3823" stroke="black" stroke-width="0.25" stroke-miterlimit="2"/>
<path d="M40.1696 55.3823H38.8862" stroke="black" stroke-width="0.25" stroke-miterlimit="2"/>
<path d="M40.1696 55.3823V55.4807" stroke="black" stroke-width="0.25" stroke-miterlimit="2"/>
<path d="M40.1697 56.7573H38.881" stroke="black" stroke-width="0.25" stroke-miterlimit="2"/>
<path d="M38.881 56.7576V56.6282" stroke="black" stroke-width="0.25" stroke-miterlimit="2"/>
<path d="M40.1696 56.6282V56.7576" stroke="black" stroke-width="0.25" stroke-miterlimit="2"/>
<path d="M39.0621 55.2065L38.8862 55.3825" stroke="black" stroke-width="0.25" stroke-miterlimit="2"/>
<path d="M40.0558 55.2065H39.0621" stroke="black" stroke-width="0.25" stroke-miterlimit="2"/>
<path d="M40.1696 55.3824V55.3203" stroke="black" stroke-width="0.25" stroke-miterlimit="2"/>
<path d="M38.8604 55.4651V55.4809" stroke="black" stroke-width="0.25" stroke-miterlimit="2"/>
<path d="M38.8813 56.7573H38.8604" stroke="black" stroke-width="0.25" stroke-miterlimit="2"/>
<path d="M38.8604 56.7576V56.6282" stroke="black" stroke-width="0.25" stroke-miterlimit="2"/>
<path d="M38.8604 55.377L38.8865 55.3822" stroke="black" stroke-width="0.25" stroke-miterlimit="2"/>
<path d="M38.8604 55.377V55.4552" stroke="black" stroke-width="0.25" stroke-miterlimit="2"/>
<path d="M38.8604 55.3152V55.3773" stroke="black" stroke-width="0.25" stroke-miterlimit="2"/>
<path d="M38.9742 55.2065L38.8604 55.3152" stroke="black" stroke-width="0.25" stroke-miterlimit="2"/>
<path d="M38.9742 55.2065H39.0622" stroke="black" stroke-width="0.25" stroke-miterlimit="2"/>
<path d="M40.1696 55.2271L40.1905 55.248" stroke="black" stroke-width="0.25" stroke-miterlimit="2"/>
<path d="M40.2783 57.0312L40.3094 57.3004" stroke="black" stroke-width="0.25" stroke-miterlimit="2"/>
<path d="M40.3974 56.9487L40.3301 57.0212L40.2783 57.0315" fill="#EBEBEB"/>
<path d="M40.3974 56.9487L40.3301 57.0212L40.2783 57.0315" stroke="black" stroke-width="0.25" stroke-miterlimit="2"/>
<path d="M38.8604 56.8867L38.8811 56.7573" stroke="black" stroke-width="0.25" stroke-miterlimit="2"/>
<path d="M40.1696 57.0316V56.7573" stroke="black" stroke-width="0.25" stroke-miterlimit="2"/>
<path d="M40.1696 57.0312H40.2783" stroke="black" stroke-width="0.25" stroke-miterlimit="2"/>
<path d="M38.8086 57.2952L38.8448 57.0312" stroke="black" stroke-width="0.25" stroke-miterlimit="2"/>
<path d="M38.8606 57.0312H38.8448" stroke="black" stroke-width="0.25" stroke-miterlimit="2"/>
<path d="M38.8604 57.0316V56.8867" stroke="black" stroke-width="0.25" stroke-miterlimit="2"/>
<path d="M38.7051 56.9437L38.7104 56.9331" stroke="black" stroke-width="0.25" stroke-miterlimit="2"/>
<path d="M38.8605 55.3152L38.8396 55.3361" stroke="black" stroke-width="0.25" stroke-miterlimit="2"/>
<path d="M38.8604 56.7573V56.8867" stroke="black" stroke-width="0.25" stroke-miterlimit="2"/>
<path d="M38.8448 57.0315L38.7516 56.9953L38.7154 56.928" fill="#EBEBEB"/>
<path d="M38.8448 57.0315L38.7516 56.9953L38.7154 56.928" stroke="black" stroke-width="0.25" stroke-miterlimit="2"/>
<path d="M38.9742 55.2065H38.8396" stroke="black" stroke-width="0.25" stroke-miterlimit="2"/>
<path d="M40.149 55.2065H40.1908" stroke="black" stroke-width="0.25" stroke-miterlimit="2"/>
<path d="M37.3388 54.0742H41.6963" stroke="black" stroke-width="0.25" stroke-miterlimit="2"/>
<path d="M37.3388 53.8574H41.6963" stroke="black" stroke-width="0.25" stroke-miterlimit="2"/>
<path d="M37.3388 53.635H41.6963" stroke="black" stroke-width="0.25" stroke-miterlimit="2"/>
<path d="M47.3632 59.9521V59.125" stroke="black" stroke-width="0.25" stroke-miterlimit="2"/>
<path d="M47.3632 72.6275V59.9521" stroke="black" stroke-width="0.25" stroke-miterlimit="2"/>
<path d="M47.5857 60.1435V59.3423" stroke="black" stroke-width="0.25" stroke-miterlimit="2"/>
<path d="M47.5857 72.4103V60.1433" stroke="black" stroke-width="0.25" stroke-miterlimit="2"/>
<path d="M34.508 57.2538L34.1716 57.1658" stroke="black" stroke-width="0.25" stroke-miterlimit="2"/>
<path d="M45.1327 56.9487L45.0757 57.0367L44.9929 57.1092L44.8946 57.1557L44.8636 57.1661H34.1716L34.0681 57.1247L33.9853 57.0626L33.9128 56.9746L33.8973 56.9487" fill="#EBEBEB"/>
<path d="M45.1327 56.9487L45.0757 57.0367L44.9929 57.1092L44.8946 57.1557L44.8636 57.1661H34.1716L34.0681 57.1247L33.9853 57.0626L33.9128 56.9746L33.8973 56.9487" stroke="black" stroke-width="0.25" stroke-miterlimit="2"/>
<path d="M44.5272 57.2538L44.8636 57.1658" stroke="black" stroke-width="0.25" stroke-miterlimit="2"/>
<path d="M35.3463 71.9502L35.2894 71.8986L35.1963 71.8365L35.0979 71.7952L34.9944 71.7693L34.8857 71.759V60.7171V60.6396H34.9634L35.0669 60.6189L35.1704 60.5827L35.2635 60.5362L35.3463 60.469" fill="#D5D5D5"/>
<path d="M35.3463 71.9502L35.2894 71.8986L35.1963 71.8365L35.0979 71.7952L34.9944 71.7693L34.8857 71.759V60.7171V60.6396H34.9634L35.0669 60.6189L35.1704 60.5827L35.2635 60.5362L35.3463 60.469" stroke="black" stroke-width="0.25" stroke-miterlimit="2"/>
<path d="M35.5068 72.1106L35.3464 71.9503V60.5414V60.4587L35.3774 60.3605L35.393 60.3502L35.4085 60.345L35.5068 60.314" fill="#D5D5D5"/>
<path d="M35.5068 72.1106L35.3464 71.9503V60.5414V60.4587L35.3774 60.3605L35.393 60.3502L35.4085 60.345L35.5068 60.314" stroke="black" stroke-width="0.25" stroke-miterlimit="2"/>
<path d="M42.1518 61.3428L42.0638 61.3893L41.9655 61.4203L41.8619 61.4307H41.8412V72.3019L41.9499 72.3174L42.0534 72.3588L42.1414 72.4208L42.1518 72.4312V61.3428Z" fill="#D5D5D5" stroke="black" stroke-width="0.25" stroke-miterlimit="2"/>
<path d="M42.1518 72.4312L42.2248 72.5042" stroke="black" stroke-width="0.25" stroke-miterlimit="2"/>
<path d="M44.2064 58.2565V57.6775" stroke="black" stroke-width="0.25" stroke-miterlimit="2"/>
<path d="M34.8289 59.1249V57.6775" stroke="black" stroke-width="0.25" stroke-miterlimit="2"/>
<path d="M30.3576 58.6911L30.3419 58.6702" stroke="black" stroke-width="0.25" stroke-miterlimit="2"/>
<path d="M30.3419 73.0878L30.3576 73.0669" stroke="black" stroke-width="0.25" stroke-miterlimit="2"/>
<path d="M30.6732 59.2334H30.3575" stroke="black" stroke-width="0.25" stroke-miterlimit="2"/>
<path d="M30.3577 59.2334H30.3419" stroke="black" stroke-width="0.25" stroke-miterlimit="2"/>
<path d="M30.3419 59.2334H30.0107" stroke="black" stroke-width="0.25" stroke-miterlimit="2"/>
<path d="M30.0107 72.5188H30.3419" stroke="black" stroke-width="0.25" stroke-miterlimit="2"/>
<path d="M30.3419 72.5188H30.3577" stroke="black" stroke-width="0.25" stroke-miterlimit="2"/>
<path d="M30.3575 72.5188H30.6732" stroke="black" stroke-width="0.25" stroke-miterlimit="2"/>
<path d="M47.5857 72.4105V69.009" stroke="black" stroke-width="0.25" stroke-miterlimit="2"/>
<path d="M48.2378 72.4105V69.009" stroke="black" stroke-width="0.25" stroke-miterlimit="2"/>
<path d="M47.5857 69.0091V59.3423" stroke="black" stroke-width="0.25" stroke-miterlimit="2"/>
<path d="M48.2378 69.0091V59.3423" stroke="black" stroke-width="0.25" stroke-miterlimit="2"/>
<path d="M48.6311 73.0875V69.3345" stroke="black" stroke-width="0.25" stroke-miterlimit="2"/>
<path d="M48.6311 69.3347V58.6702" stroke="black" stroke-width="0.25" stroke-miterlimit="2"/>
<path d="M48.6725 73.0875V59.5488" stroke="black" stroke-width="0.25" stroke-miterlimit="2"/>
<path d="M48.6725 59.549V58.6702" stroke="black" stroke-width="0.25" stroke-miterlimit="2"/>
<path d="M48.6725 72.5188H49.0245" stroke="black" stroke-width="0.25" stroke-miterlimit="2"/>
<path d="M48.6725 59.2334H49.0245" stroke="black" stroke-width="0.25" stroke-miterlimit="2"/>
<path d="M48.6725 59.2336L48.6311 58.6702" stroke="black" stroke-width="0.25" stroke-miterlimit="2"/>
<path d="M48.6725 72.5188L48.6311 73.0874" stroke="black" stroke-width="0.25" stroke-miterlimit="2"/>
<path d="M57.7033 71.4332V68.5383" stroke="black" stroke-width="0.25" stroke-miterlimit="2"/>
<path d="M57.7033 68.5384V60.3242" stroke="black" stroke-width="0.25" stroke-miterlimit="2"/>
<path d="M58.2674 72.4105V69.009" stroke="black" stroke-width="0.25" stroke-miterlimit="2"/>
<path d="M58.2674 69.0091V59.3423" stroke="black" stroke-width="0.25" stroke-miterlimit="2"/>
<path d="M59.142 69.0091V59.3423" stroke="black" stroke-width="0.25" stroke-miterlimit="2"/>
<path d="M59.4525 72.9585V69.2727" stroke="black" stroke-width="0.25" stroke-miterlimit="2"/>
<path d="M59.4525 69.2725V58.7993" stroke="black" stroke-width="0.25" stroke-miterlimit="2"/>
<path d="M69.9116 72.9585V69.2727" stroke="black" stroke-width="0.25" stroke-miterlimit="2"/>
<path d="M69.9116 69.2725V58.7993" stroke="black" stroke-width="0.25" stroke-miterlimit="2"/>
<path d="M70.041 72.8239V69.2104" stroke="black" stroke-width="0.25" stroke-miterlimit="2"/>
<path d="M70.041 69.2104V58.9285" stroke="black" stroke-width="0.25" stroke-miterlimit="2"/>
<path d="M56.218 60.3242H57.7033V71.4333H56.218" fill="#D5D5D5"/>
<path d="M56.218 60.3242H57.7033V71.4333H56.218" stroke="black" stroke-width="0.25" stroke-miterlimit="2"/>
<path d="M70.041 72.824L69.9116 72.9585" stroke="black" stroke-width="0.25" stroke-miterlimit="2"/>
<path d="M70.041 58.9287L69.9116 58.7993" stroke="black" stroke-width="0.25" stroke-miterlimit="2"/>
<path d="M21.3319 60.3242V63.2139" stroke="black" stroke-width="0.25" stroke-miterlimit="2"/>
<path d="M21.3319 63.2139V71.4332" stroke="black" stroke-width="0.25" stroke-miterlimit="2"/>
<path d="M19.8931 59.3423V62.7438" stroke="black" stroke-width="0.25" stroke-miterlimit="2"/>
<path d="M19.8931 62.7437V72.4104" stroke="black" stroke-width="0.25" stroke-miterlimit="2"/>
<path d="M19.5775 58.7993V62.4851" stroke="black" stroke-width="0.25" stroke-miterlimit="2"/>
<path d="M19.5775 62.4851V72.9583" stroke="black" stroke-width="0.25" stroke-miterlimit="2"/>
<path d="M9.11835 58.7993V62.4851" stroke="black" stroke-width="0.25" stroke-miterlimit="2"/>
<path d="M9.11835 62.4851V72.9583" stroke="black" stroke-width="0.25" stroke-miterlimit="2"/>
<path d="M19.5775 72.9583H9.11835V58.7993H19.5775" fill="#EBEBEB"/>
<path d="M19.5775 72.9583H9.11835V58.7993H19.5775" stroke="black" stroke-width="0.25" stroke-miterlimit="2"/>
<path d="M8.98895 58.9287L9.11833 58.7993" stroke="black" stroke-width="0.25" stroke-miterlimit="2"/>
<path d="M8.98895 72.824L9.11833 72.9585" stroke="black" stroke-width="0.25" stroke-miterlimit="2"/>
<path d="M23.3812 58.365H29.4414" stroke="black" stroke-width="0.25" stroke-miterlimit="2"/>
<path d="M29.4414 58.365L29.6639 59.2335L29.8244 60.0967L29.9124 60.8618L29.9434 61.6217L29.9279 62.3868L29.871 63.0433L29.7726 63.705L29.6329 64.3667L29.4414 65.1111" stroke="black" stroke-width="0.25" stroke-miterlimit="2"/>
<path d="M23.3812 65.1111H29.4414" stroke="black" stroke-width="0.25" stroke-miterlimit="2"/>
<path d="M23.3813 65.1111L23.1639 64.2478L23.0035 63.3845L22.9155 62.6194L22.8793 61.8595L22.8948 61.0944L22.9569 60.4379L23.0552 59.7762L23.1898 59.1146L23.3813 58.365" stroke="black" stroke-width="0.25" stroke-miterlimit="2"/>
<path d="M23.3812 66.6414H29.4414" stroke="black" stroke-width="0.25" stroke-miterlimit="2"/>
<path d="M29.4414 66.6414L29.6639 67.5098L29.8244 68.3731L29.9124 69.1382L29.9434 69.8981L29.9279 70.6632L29.871 71.3197L29.7726 71.9814L29.6329 72.643L29.4414 73.3926" stroke="black" stroke-width="0.25" stroke-miterlimit="2"/>
<path d="M23.3812 73.3926H29.4414" stroke="black" stroke-width="0.25" stroke-miterlimit="2"/>
<path d="M23.3813 73.3926L23.1639 72.5241L23.0035 71.6609L22.9155 70.8958L22.8793 70.1359L22.8948 69.3708L22.9569 68.7143L23.0552 68.0526L23.1898 67.3858L23.3813 66.6414" stroke="black" stroke-width="0.25" stroke-miterlimit="2"/>
<path d="M23.3812 57.6001V58.0659" stroke="black" stroke-width="0.25" stroke-miterlimit="2"/>
<path d="M29.4414 57.6001V58.0659" stroke="black" stroke-width="0.25" stroke-miterlimit="2"/>
<path d="M23.3812 65.1111V66.6412" stroke="black" stroke-width="0.25" stroke-miterlimit="2"/>
<path d="M23.3812 73.3926V74.1525" stroke="black" stroke-width="0.25" stroke-miterlimit="2"/>
<path d="M23.3812 58.0649V58.3651" stroke="black" stroke-width="0.25" stroke-miterlimit="2"/>
<path d="M29.4414 58.0649V58.3651" stroke="black" stroke-width="0.25" stroke-miterlimit="2"/>
<path d="M29.4414 65.1111V66.6412" stroke="black" stroke-width="0.25" stroke-miterlimit="2"/>
<path d="M29.4414 73.3926V74.1525" stroke="black" stroke-width="0.25" stroke-miterlimit="2"/>
<path d="M55.6539 65.1111H49.5886" stroke="black" stroke-width="0.25" stroke-miterlimit="2"/>
<path d="M49.5886 65.1111L49.3712 64.2478L49.2108 63.3845L49.1228 62.6194L49.0866 61.8595L49.1073 61.0944L49.1642 60.4379L49.2626 59.7762L49.3971 59.1146L49.5886 58.365" stroke="black" stroke-width="0.25" stroke-miterlimit="2"/>
<path d="M55.6539 58.365H49.5886" stroke="black" stroke-width="0.25" stroke-miterlimit="2"/>
<path d="M55.6539 58.365L55.8713 59.2335L56.0317 60.0967L56.1197 60.8618L56.1559 61.6217L56.1352 62.3868L56.0783 63.0433L55.98 63.705L55.8454 64.3667L55.6539 65.1111" stroke="black" stroke-width="0.25" stroke-miterlimit="2"/>
<path d="M55.6539 73.3926H49.5886" stroke="black" stroke-width="0.25" stroke-miterlimit="2"/>
<path d="M49.5886 73.3926L49.3712 72.5241L49.2108 71.6609L49.1228 70.8958L49.0866 70.1359L49.1073 69.3708L49.1642 68.7143L49.2626 68.0526L49.3971 67.3858L49.5886 66.6414" stroke="black" stroke-width="0.25" stroke-miterlimit="2"/>
<path d="M55.6539 66.6414H49.5886" stroke="black" stroke-width="0.25" stroke-miterlimit="2"/>
<path d="M55.6539 66.6414L55.8713 67.5098L56.0317 68.3731L56.1197 69.1382L56.1559 69.8981L56.1352 70.6632L56.0783 71.3197L55.98 71.9814L55.8454 72.643L55.6539 73.3926" stroke="black" stroke-width="0.25" stroke-miterlimit="2"/>
<path d="M55.6539 66.6412V65.1111" stroke="black" stroke-width="0.25" stroke-miterlimit="2"/>
<path d="M55.6539 58.3652V57.6001" stroke="black" stroke-width="0.25" stroke-miterlimit="2"/>
<path d="M55.6539 73.6927V73.3926" stroke="black" stroke-width="0.25" stroke-miterlimit="2"/>
<path d="M49.5886 66.6412V65.1111" stroke="black" stroke-width="0.25" stroke-miterlimit="2"/>
<path d="M49.5886 58.3652V57.6001" stroke="black" stroke-width="0.25" stroke-miterlimit="2"/>
<path d="M55.6539 74.153V73.6924" stroke="black" stroke-width="0.25" stroke-miterlimit="2"/>
<path d="M49.5886 73.6927V73.3926" stroke="black" stroke-width="0.25" stroke-miterlimit="2"/>
<path d="M49.5886 74.153V73.6924" stroke="black" stroke-width="0.25" stroke-miterlimit="2"/>
<path d="M44.5323 47.2354V47.4527" stroke="black" stroke-width="0.25" stroke-miterlimit="2"/>
<path d="M46.2764 47.2354V47.4527" stroke="black" stroke-width="0.25" stroke-miterlimit="2"/>
<path d="M46.2764 47.4526H44.5323" stroke="black" stroke-width="0.25" stroke-miterlimit="2"/>
<path d="M23.5986 47.2354H14.0037" stroke="black" stroke-width="0.25" stroke-miterlimit="2"/>
<path d="M23.5986 47.2354H46.2764" stroke="black" stroke-width="0.25" stroke-miterlimit="2"/>
<path d="M39.0777 47.2354L39.0881 47.2457L39.0932 47.2871L39.0984 47.3492L39.1036 47.432V47.5303V47.6338V47.6701" fill="#EBEBEB"/>
<path d="M39.0777 47.2354L39.0881 47.2457L39.0932 47.2871L39.0984 47.3492L39.1036 47.432V47.5303V47.6338V47.6701" stroke="black" stroke-width="0.25" stroke-miterlimit="2"/>
<path d="M38.643 47.6701L38.6585 47.5614L38.6948 47.4631L38.762 47.3751L38.8448 47.3026L38.938 47.2561L39.0467 47.2354H39.0777" fill="#EBEBEB"/>
<path d="M38.643 47.6701L38.6585 47.5614L38.6948 47.4631L38.762 47.3751L38.8448 47.3026L38.938 47.2561L39.0467 47.2354H39.0777" stroke="black" stroke-width="0.25" stroke-miterlimit="2"/>
<path d="M34.2803 47.2354L34.389 47.2457L34.4925 47.2871L34.5804 47.3492L34.6477 47.432L34.6943 47.5303L34.7202 47.6338V47.6701" fill="#EBEBEB"/>
<path d="M34.2803 47.2354L34.389 47.2457L34.4925 47.2871L34.5804 47.3492L34.6477 47.432L34.6943 47.5303L34.7202 47.6338V47.6701" stroke="black" stroke-width="0.25" stroke-miterlimit="2"/>
<path d="M34.2803 47.2354L34.3579 47.2457L34.4252 47.2871L34.4873 47.3492L34.539 47.432L34.5701 47.5303L34.5856 47.6338V47.6701" fill="#EBEBEB"/>
<path d="M34.2803 47.2354L34.3579 47.2457L34.4252 47.2871L34.4873 47.3492L34.539 47.432L34.5701 47.5303L34.5856 47.6338V47.6701" stroke="black" stroke-width="0.25" stroke-miterlimit="2"/>
<path d="M39.1035 49.1944V47.6694" stroke="black" stroke-width="0.25" stroke-miterlimit="2"/>
<path d="M39.1035 49.1946H34.5856" stroke="black" stroke-width="0.25" stroke-miterlimit="2"/>
<path d="M34.5856 49.1944V47.6694" stroke="black" stroke-width="0.25" stroke-miterlimit="2"/>
<path d="M38.643 47.6694V48.3259" stroke="black" stroke-width="0.25" stroke-miterlimit="2"/>
<path d="M34.7202 47.6694V48.3259" stroke="black" stroke-width="0.25" stroke-miterlimit="2"/>
<path d="M38.643 48.3259H34.7202" stroke="black" stroke-width="0.25" stroke-miterlimit="2"/>
<path d="M34.7202 48.5433V48.3259" stroke="black" stroke-width="0.25" stroke-miterlimit="2"/>
<path d="M38.643 48.3259H38.6483" stroke="black" stroke-width="0.25" stroke-miterlimit="2"/>
<path d="M39.1036 49.1944L38.8655 48.693L38.762 48.5069L38.674 48.3466L38.6533 48.3259H38.6481" fill="#EBEBEB"/>
<path d="M39.1036 49.1944L38.8655 48.693L38.762 48.5069L38.674 48.3466L38.6533 48.3259H38.6481" stroke="black" stroke-width="0.25" stroke-miterlimit="2"/>
<path d="M34.7201 48.5432L34.715 48.6259L34.6943 48.7965L34.6477 48.993L34.5856 49.1946" fill="#EBEBEB"/>
<path d="M34.7201 48.5432L34.715 48.6259L34.6943 48.7965L34.6477 48.993L34.5856 49.1946" stroke="black" stroke-width="0.25" stroke-miterlimit="2"/>
<path d="M39.1036 49.195L38.6016 48.9466L38.3221 48.8068L38.2186 48.7603H38.2134" fill="#EBEBEB"/>
<path d="M39.1036 49.195L38.6016 48.9466L38.3221 48.8068L38.2186 48.7603H38.2134" stroke="black" stroke-width="0.25" stroke-miterlimit="2"/>
<path d="M34.9738 48.8689L35.0617 48.7861L35.1549 48.7603" fill="#EBEBEB"/>
<path d="M34.9738 48.8689L35.0617 48.7861L35.1549 48.7603" stroke="black" stroke-width="0.25" stroke-miterlimit="2"/>
<path d="M34.9737 48.8689L34.9168 48.931L34.7667 49.0604L34.5856 49.1949" fill="#EBEBEB"/>
<path d="M34.9737 48.8689L34.9168 48.931L34.7667 49.0604L34.5856 49.1949" stroke="black" stroke-width="0.25" stroke-miterlimit="2"/>
<path d="M38.643 48.3259L38.6326 48.4294L38.5912 48.5329L38.5291 48.6209L38.4463 48.6882L38.348 48.7348L38.2445 48.7555L38.2083 48.7606" fill="#EBEBEB"/>
<path d="M38.643 48.3259L38.6326 48.4294L38.5912 48.5329L38.5291 48.6209L38.4463 48.6882L38.348 48.7348L38.2445 48.7555L38.2083 48.7606" stroke="black" stroke-width="0.25" stroke-miterlimit="2"/>
<path d="M35.1549 48.7606L35.0514 48.7451L34.9479 48.7089L34.8599 48.6416L34.7927 48.5588L34.7409 48.4657L34.7202 48.357V48.3259" fill="#EBEBEB"/>
<path d="M35.1549 48.7606L35.0514 48.7451L34.9479 48.7089L34.8599 48.6416L34.7927 48.5588L34.7409 48.4657L34.7202 48.357V48.3259" stroke="black" stroke-width="0.25" stroke-miterlimit="2"/>
<path d="M38.2082 48.7603H35.1548" stroke="black" stroke-width="0.25" stroke-miterlimit="2"/>
<path d="M34.9738 48.8693L34.8806 48.8227L34.8082 48.7554L34.7513 48.6778L34.7254 48.595L34.7202 48.5432" fill="#EBEBEB"/>
<path d="M34.9738 48.8693L34.8806 48.8227L34.8082 48.7554L34.7513 48.6778L34.7254 48.595L34.7202 48.5432" stroke="black" stroke-width="0.25" stroke-miterlimit="2"/>
<path d="M38.6482 48.3259L38.6326 48.4294L38.5964 48.5329L38.5343 48.6209L38.4515 48.6882L38.3532 48.7348L38.2497 48.7555L38.2134 48.7606" fill="#EBEBEB"/>
<path d="M38.6482 48.3259L38.6326 48.4294L38.5964 48.5329L38.5343 48.6209L38.4515 48.6882L38.3532 48.7348L38.2497 48.7555L38.2134 48.7606" stroke="black" stroke-width="0.25" stroke-miterlimit="2"/>
<path d="M38.2083 48.7603H38.2136" stroke="black" stroke-width="0.25" stroke-miterlimit="2"/>
<path d="M40.1903 55.2065H38.8396" stroke="black" stroke-width="0.25" stroke-miterlimit="2"/>
<path d="M33.297 54.1624H32.4327" stroke="black" stroke-width="0.25" stroke-miterlimit="2"/>
<path d="M46.6024 54.1624H33.2969" stroke="black" stroke-width="0.25" stroke-miterlimit="2"/>
<path d="M40.1904 55.2065V56.7315" stroke="black" stroke-width="0.25" stroke-miterlimit="2"/>
<path d="M33.297 56.9487H32.4327" stroke="black" stroke-width="0.25" stroke-miterlimit="2"/>
<path d="M38.8396 56.7315V55.2065" stroke="black" stroke-width="0.25" stroke-miterlimit="2"/>
<path d="M40.4129 56.949L40.3094 56.9232L40.2266 56.8507L40.1955 56.7524L40.1904 56.7317" fill="#EBEBEB"/>
<path d="M40.4129 56.949L40.3094 56.9232L40.2266 56.8507L40.1955 56.7524L40.1904 56.7317" stroke="black" stroke-width="0.25" stroke-miterlimit="2"/>
<path d="M46.6025 56.9487H40.4129" stroke="black" stroke-width="0.25" stroke-miterlimit="2"/>
<path d="M38.6222 56.9487H33.2969" stroke="black" stroke-width="0.25" stroke-miterlimit="2"/>
<path d="M38.8396 56.7317L38.8137 56.83L38.7465 56.9128L38.643 56.949H38.6223" fill="#EBEBEB"/>
<path d="M38.8396 56.7317L38.8137 56.83L38.7465 56.9128L38.643 56.949H38.6223" stroke="black" stroke-width="0.25" stroke-miterlimit="2"/>
<path d="M33.297 56.9487H33.1935" stroke="black" stroke-width="0.25" stroke-miterlimit="2"/>
<path d="M54.1272 47.4527V47.2354" stroke="black" stroke-width="0.25" stroke-miterlimit="2"/>
<path d="M52.3832 47.4527V47.2354" stroke="black" stroke-width="0.25" stroke-miterlimit="2"/>
<path d="M46.2764 47.4526H52.3832" stroke="black" stroke-width="0.25" stroke-miterlimit="2"/>
<path d="M54.1272 47.4526H52.3832" stroke="black" stroke-width="0.25" stroke-miterlimit="2"/>
<path d="M46.6024 47.67L46.6179 47.5613L46.6542 47.463L46.6593 47.4526" fill="#EBEBEB"/>
<path d="M46.6024 47.67L46.6179 47.5613L46.6542 47.463L46.6593 47.4526" stroke="black" stroke-width="0.25" stroke-miterlimit="2"/>
<path d="M31.9928 47.2354L32.1015 47.2457L32.1998 47.2871L32.293 47.3492L32.3602 47.432L32.4068 47.5303L32.4275 47.6338L32.4327 47.6701" fill="#EBEBEB"/>
<path d="M31.9928 47.2354L32.1015 47.2457L32.1998 47.2871L32.293 47.3492L32.3602 47.432L32.4068 47.5303L32.4275 47.6338L32.4327 47.6701" stroke="black" stroke-width="0.25" stroke-miterlimit="2"/>
<path d="M33.297 47.6694H32.4276V53.5522H33.297H46.6025V47.6694H39.1036H38.643H34.7202H34.5856H33.297Z" fill="#EBEBEB"/>
<path d="M34.5856 47.6694H34.7201" stroke="black" stroke-width="0.25" stroke-miterlimit="2"/>
<path d="M33.297 53.5522H32.4276" stroke="black" stroke-width="0.25" stroke-miterlimit="2"/>
<path d="M34.5856 47.6694H33.2969" stroke="black" stroke-width="0.25" stroke-miterlimit="2"/>
<path d="M39.1036 47.6694H38.643" stroke="black" stroke-width="0.25" stroke-miterlimit="2"/>
<path d="M46.6025 47.6694H39.1036" stroke="black" stroke-width="0.25" stroke-miterlimit="2"/>
<path d="M38.643 47.6694H34.7202" stroke="black" stroke-width="0.25" stroke-miterlimit="2"/>
<path d="M33.297 47.6694H32.4276" stroke="black" stroke-width="0.25" stroke-miterlimit="2"/>
<path d="M46.6024 53.5522H33.2969" stroke="black" stroke-width="0.25" stroke-miterlimit="2"/>
<path d="M46.6024 47.6694V53.5522" stroke="black" stroke-width="0.25" stroke-miterlimit="2"/>
<path d="M32.4276 47.6694V53.5522" stroke="black" stroke-width="0.25" stroke-miterlimit="2"/>
<path d="M32.9761 54.1622V53.5522H37.3388V54.1622" fill="#EBEBEB"/>
<path d="M32.9761 54.1622V53.5522H37.3388V54.1622" stroke="black" stroke-width="0.25" stroke-miterlimit="2"/>
<path d="M46.059 54.1622V53.5522H41.6963V54.1622" fill="#EBEBEB"/>
<path d="M46.059 54.1622V53.5522H41.6963V54.1622" stroke="black" stroke-width="0.25" stroke-miterlimit="2"/>
<path d="M46.2764 47.2148V47.4736" stroke="black" stroke-width="0.25" stroke-miterlimit="2"/>
<path d="M52.3832 47.2148V47.4736" stroke="black" stroke-width="0.25" stroke-miterlimit="2"/>
<path d="M42.5296 72.6273L42.4261 72.617L42.3226 72.5756L42.2346 72.5136L42.2242 72.5033V61.2185L42.5296 60.5413V72.6273Z" fill="#D5D5D5" stroke="black" stroke-width="0.25" stroke-miterlimit="2"/>
<path d="M41.3134 60.7224L41.3496 60.7844L41.5307 61.0481L41.7481 61.2704L41.9033 61.136L41.3134 60.7224Z" fill="#D5D5D5" stroke="black" stroke-width="0.25" stroke-miterlimit="2"/>
<path d="M41.3289 60.6812L40.8528 60.8879L40.6095 60.9706L40.3559 61.043L39.9626 61.1154L39.5693 61.1464L39.1708 61.1309L38.7775 61.0637L38.5187 61.0017L38.2703 60.9241L37.789 60.7225L37.344 60.4899L36.9248 60.2366L36.5263 59.9678L36.4901 60.066L36.4435 60.1642L36.3866 60.2573L36.3244 60.3451L36.2572 60.4279L36.1899 60.5054L36.1123 60.5726L36.0346 60.6346L35.9725 60.676V72.302H41.8412V61.4307L41.3289 60.6812Z" fill="#D5D5D5" stroke="black" stroke-width="0.25" stroke-miterlimit="2"/>
<path d="M35.9726 60.6759L36.5264 59.9677L36.3038 59.8333L36.0761 59.7454L35.8536 59.7144L35.7863 59.7195L35.719 59.7299L35.6207 59.7609L35.6259 59.8694L35.6207 59.9728L35.6052 60.0762L35.5741 60.1693L35.5379 60.2623L35.5068 60.314L35.5948 60.345L35.688 60.3967L35.7811 60.4743L35.9726 60.6759V72.3019L35.8639 72.2967L35.7604 72.2657L35.6569 72.2243L35.5689 72.1623L35.5068 72.1106V60.4071V60.314" fill="#D5D5D5"/>
<path d="M35.9726 60.6759L36.5264 59.9677L36.3038 59.8333L36.0761 59.7454L35.8536 59.7144L35.7863 59.7195L35.719 59.7299L35.6207 59.7609L35.6259 59.8694L35.6207 59.9728L35.6052 60.0762L35.5741 60.1693L35.5379 60.2623L35.5068 60.314L35.5948 60.345L35.688 60.3967L35.7811 60.4743L35.9726 60.6759ZM35.9726 60.6759V72.3019L35.8639 72.2967L35.7604 72.2657L35.6569 72.2243L35.5689 72.1623L35.5068 72.1106V60.4071V60.314" stroke="black" stroke-width="0.25" stroke-miterlimit="2"/>
<path d="M34.8288 59.125L34.9013 59.1974L34.9789 59.2749L35.0565 59.3473L35.1342 59.4248L35.217 59.4972L35.2946 59.5747L35.3774 59.6471L35.455 59.7247L35.5327 59.797L35.512 59.9004L35.4757 60.0038L35.4292 60.102L35.3722 60.1951L35.305 60.2829L35.2636 60.3346L35.0617 60.5207L34.8858 60.6396L33.9542 59.9986L34.0215 59.9935L34.125 59.9831L34.2337 59.9521L34.332 59.9108L34.4303 59.8591L34.5183 59.7919L34.5959 59.7195L34.6632 59.6368L34.7202 59.5437L34.7667 59.4455L34.803 59.3421L34.8237 59.2336L34.8288 59.125Z" fill="#D5D5D5" stroke="black" stroke-width="0.25" stroke-miterlimit="2"/>
<path d="M34.8289 59.125L35.5327 59.797" stroke="black" stroke-width="0.25" stroke-miterlimit="2"/>
<path d="M13.1757 52.7563H8.42487V55.5065H10.4225" fill="#EBEBEB"/>
<path d="M8.41553 53.0665C7.49434 53.0665 6.65078 52.5703 6.20053 51.769L3.84064 47.5714C3.24549 46.5531 2.14834 45.9172 0.96839 45.9172H0.130005V46.6358H0.973565C1.89993 46.6358 2.75384 47.1269 3.21961 47.923L5.20172 51.4485M5.58468 52.8546L1.68775 50.8489C1.32548 50.6628 0.926988 50.5697 0.523321 50.5697H0.130005V51.2883H0.352539C0.756206 51.2883 1.1547 51.3865 1.51696 51.5674L6.30921 54.0332C6.78016 54.2762 7.29768 54.4261 7.82555 54.4829H8.51386M5.58468 53.6765L1.68775 52.8081C1.30995 52.684 0.926988 52.5289 0.523321 52.5289H0.130005V53.2475H0.352539C0.663052 53.2423 0.95804 53.3302 1.51696 53.5266L6.30921 54.6846C6.78016 54.9275 7.29768 55.0774 7.82555 55.1343H8.51386M10.5115 55.5065H8.51386V52.7564H13.2854M8.51386 53.0665H7.91871C7.24075 53.0665 6.5835 52.8081 6.09186 52.3428L2.43298 48.9C1.98273 48.4502 1.41863 48.2435 0.776907 48.2435H0.130005V48.962H0.776907C1.22715 48.962 1.65669 49.1378 1.97756 49.4583L5.58986 52.8546C6.21606 53.4439 7.05962 53.7851 7.92388 53.7851H8.51903V53.0665H8.51386Z" stroke="black" stroke-width="0.26" stroke-miterlimit="3.86"/>
<path d="M11.618 55.5064H22.2531C25.2909 55.5064 27.7595 53.0458 27.7595 50.0114V49.1636H25.0063V50.0114C25.0063 51.5312 23.7746 52.7615 22.2531 52.7615H14.3712" fill="#EBEBEB"/>
<path d="M11.6284 55.5064H22.2531C25.2909 55.5064 27.7595 53.0458 27.7595 50.0114V49.1636H25.0063V50.0114C25.0063 51.5312 23.7746 52.7615 22.2531 52.7615H14.3712" stroke="black" stroke-width="0.26" stroke-miterlimit="3.86"/>
<path d="M17.4349 49.696L8.42489 58.696M16.2343 49.696L7.22424 58.696" stroke="black" stroke-width="0.13" stroke-linecap="round" stroke-linejoin="round"/>
<path d="M29.2396 47.261V48.5275C29.2396 48.879 28.955 49.1633 28.6031 49.1633H24.1575C23.8056 49.1633 23.521 48.879 23.521 48.5275V47.261" fill="#787878"/>
<path d="M29.2396 47.261V48.5275C29.2396 48.879 28.955 49.1633 28.6031 49.1633H24.1575C23.8056 49.1633 23.521 48.879 23.521 48.5275V47.261H29.2344H29.2396Z" stroke="black" stroke-width="0.26" stroke-linecap="round" stroke-linejoin="round"/>
<path d="M15.991 27.8501H15.9444L15.8358 27.8553L15.7271 27.8656L15.6184 27.8811L15.5149 27.9018L15.4062 27.9276L15.3027 27.9587L15.1992 28L15.0957 28.0414L15.0025 28.0879L14.9042 28.1396L14.8111 28.1964L14.7231 28.2585L14.6351 28.3205L14.5523 28.3929L14.4695 28.4704L14.397 28.5428L14.3194 28.6255L14.2573 28.7134L14.19 28.7961L14.1331 28.8891L14.0762 28.9822L14.0244 29.0804L13.983 29.1786L13.9416 29.282L13.9054 29.3854L13.8795 29.4888L13.8536 29.5974L13.8381 29.7059L13.8226 29.8093L13.8122 29.9179L13.8071 30.0264V47.2354H23.728H52.3573H54.3238V30.0264V29.9799L54.3135 29.8765L54.3083 29.7628L54.2928 29.6594L54.2669 29.5508L54.241 29.4474L54.21 29.3389L54.1738 29.2355L54.1324 29.1373L54.0858 29.0391L54.0289 28.946L53.9771 28.853L53.915 28.7651L53.8477 28.672L53.7804 28.5945L53.7028 28.5118L53.6252 28.4342L53.5476 28.3619L53.4596 28.2947L53.3716 28.2275L53.2836 28.1706L53.1905 28.1137L53.0921 28.0672L52.9886 28.0207L52.8903 27.9845L52.7868 27.9483L52.6781 27.9173L52.5746 27.8966L52.4659 27.8759L52.3573 27.8604L52.2486 27.8501H52.1399H23.728H15.991Z" fill="#EBEBEB"/>
<path d="M23.728 47.2354H13.8071" stroke="black" stroke-width="0.25" stroke-miterlimit="2"/>
<path d="M52.3573 47.2354H23.728" stroke="black" stroke-width="0.25" stroke-miterlimit="2"/>
<path d="M54.3238 47.2354H52.3572" stroke="black" stroke-width="0.25" stroke-miterlimit="2"/>
<path d="M13.8071 47.2353V30.0264" stroke="#1D1D1B" stroke-width="0.25" stroke-miterlimit="2"/>
<path d="M54.3239 47.2353V30.0264" stroke="#1D1D1B" stroke-width="0.25" stroke-miterlimit="2"/>
<path d="M13.8071 30.0264L13.8122 29.9179L13.8226 29.8093L13.8381 29.7059L13.8536 29.5974L13.8795 29.4888L13.9054 29.3854L13.9416 29.282L13.983 29.1786L14.0244 29.0804L14.0762 28.9822L14.1331 28.8891L14.19 28.7961L14.2573 28.7134L14.3194 28.6255L14.397 28.5428L14.4695 28.4704L14.5523 28.3929L14.6351 28.3205L14.7231 28.2585L14.8111 28.1964L14.9042 28.1396L15.0025 28.0879L15.0957 28.0414L15.1992 28L15.3027 27.9587L15.4062 27.9276L15.5149 27.9018L15.6184 27.8811L15.7271 27.8656L15.8358 27.8553L15.9444 27.8501H15.991" stroke="#1D1D1B" stroke-width="0.25" stroke-miterlimit="2"/>
<path d="M23.728 27.8501H15.991" stroke="#1D1D1B" stroke-width="0.25" stroke-miterlimit="2"/>
<path d="M23.728 27.8501H52.1399" stroke="#1D1D1B" stroke-width="0.25" stroke-miterlimit="2"/>
<path d="M52.1399 27.8501H52.2486L52.3573 27.8604L52.4659 27.8759L52.5746 27.8966L52.6781 27.9173L52.7868 27.9483L52.8903 27.9845L52.9886 28.0207L53.0921 28.0672L53.1905 28.1137L53.2836 28.1706L53.3716 28.2275L53.4596 28.2947L53.5475 28.3619L53.6252 28.4342L53.7028 28.5118L53.7804 28.5945L53.8477 28.672L53.915 28.7651L53.9771 28.853L54.0288 28.946L54.0858 29.0391L54.1324 29.1373L54.1738 29.2355L54.21 29.3389L54.241 29.4474L54.2669 29.5508L54.2928 29.6594L54.3083 29.7628L54.3135 29.8765L54.3238 29.9799V30.0264" stroke="#1D1D1B" stroke-width="0.25" stroke-miterlimit="2"/>
<rect class="RELAY-IN-GND" x="0.159668" y="45.9448" width="0.830508" height="0.640678" fill="#CACACA"/>
<rect class="RELAY-IN-1" x="0.159668" y="48.2881" width="0.830508" height="0.640678" fill="#CACACA"/>
<rect class="RELAY-IN-2" x="0.159668" y="50.6313" width="0.830508" height="0.640678" fill="#CACACA"/>
<rect class="RELAY-IN-V+" x="0.159668" y="52.5889" width="0.830508" height="0.640678" fill="#CACACA"/>
</svg>
