<svg width="73" height="47" viewBox="0 0 73 47" fill="none" xmlns="http://www.w3.org/2000/svg">
<path d="M60.8259 26.275L72.125 20.275" stroke="black" stroke-linecap="round"/>
<path d="M60.8262 26.2749L72.125 32.275" stroke="#CFF400" stroke-linecap="round"/>
<path d="M60.8262 26.2749L72.125 24.275" stroke="#FE0000" stroke-linecap="round"/>
<path d="M60.8262 26.275L72.125 28.275" stroke="#FE0000" stroke-linecap="round"/>
<path d="M35.28 22.6276V35.4374H25.9595V22.6276H35.28Z" fill="#D5D5D5"/>
<path d="M50.5884 45.2334L50.2727 44.6854V31.6171L50.5884 31.0743" fill="#D5D5D5"/>
<path d="M50.5884 45.2334L50.2727 44.6854V31.6171L50.5884 31.0743" stroke="black" stroke-width="0.25" stroke-miterlimit="2"/>
<path d="M49.4033 44.6855H50.2727V31.6172H49.4033" fill="#D5D5D5"/>
<path d="M49.4033 44.6855H50.2727V31.6172H49.4033" stroke="black" stroke-width="0.25" stroke-miterlimit="2"/>
<path d="M48.834 43.7084L49.4033 44.6855V35.0187V31.6172L48.834 32.5994" fill="#D5D5D5"/>
<path d="M48.834 43.7084L49.4033 44.6855V35.0187V31.6172L48.834 32.5994" stroke="black" stroke-width="0.25" stroke-miterlimit="2"/>
<path d="M47.3539 43.7083H48.834V32.5992H47.3539" fill="#D5D5D5"/>
<path d="M47.3539 43.7083H48.834V32.5992H47.3539" stroke="black" stroke-width="0.25" stroke-miterlimit="2"/>
<path d="M40.1553 45.3627H39.8241V30.9452H40.1553" fill="#D5D5D5"/>
<path d="M40.1553 45.3627H39.8241V30.9452H40.1553" stroke="black" stroke-width="0.25" stroke-miterlimit="2"/>
<path d="M39.2392 31.9481L39.8084 30.9659L39.824 30.9452V31.824V41.6097V45.3627L39.8084 45.342L39.2392 44.3598" fill="#D5D5D5"/>
<path d="M39.2392 31.9481L39.8084 30.9659L39.824 30.9452V31.824V41.6097V45.3627L39.8084 45.342L39.2392 44.3598" stroke="black" stroke-width="0.25" stroke-miterlimit="2"/>
<path d="M40.1553 31.1777V46.3189L40.2226 46.4274H40.7246H46.7847H47.2867L47.354 46.3189V31.1777V29.9836L47.2867 29.875H46.7847H40.7246H40.2226L40.1553 29.9836V31.1777Z" fill="#D5D5D5" stroke="black" stroke-width="0.25" stroke-miterlimit="2"/>
<path d="M38.6752 32.2737L38.7838 32.2633L38.8873 32.2375L38.9857 32.191L39.0788 32.1341L39.1565 32.0617L39.2237 31.9738L39.2393 31.948V32.7079V44.3597L39.1772 44.2719L39.1047 44.1943L39.0167 44.1323L38.9184 44.0806L38.8149 44.0496L38.7062 44.0341H38.6752" fill="#D5D5D5"/>
<path d="M38.6752 32.2737L38.7838 32.2633L38.8873 32.2375L38.9857 32.191L39.0788 32.1341L39.1565 32.0617L39.2237 31.9738L39.2393 31.948V32.7079V44.3597L39.1772 44.2719L39.1047 44.1943L39.0167 44.1323L38.9184 44.0806L38.8149 44.0496L38.7062 44.0341H38.6752" stroke="black" stroke-width="0.25" stroke-miterlimit="2"/>
<path d="M35.2801 32.9146L35.3733 32.8577L35.4612 32.7957L35.5544 32.7336L35.6424 32.6716L35.7304 32.6096L35.8235 32.5475L35.9115 32.4855L35.9995 32.4235L36.0874 32.3614L36.1754 32.2942L36.2116 32.2736H38.675V32.9921V44.034H35.2801" fill="#D5D5D5"/>
<path d="M35.2801 32.9146L35.3733 32.8577L35.4612 32.7957L35.5544 32.7336L35.6424 32.6716L35.7304 32.6096L35.8235 32.5475L35.9115 32.4855L35.9995 32.4235L36.0874 32.3614L36.1754 32.2942L36.2116 32.2736H38.675V32.9921V44.034H35.2801" stroke="black" stroke-width="0.25" stroke-miterlimit="2"/>
<path d="M26.2494 29.5288H25.6387L25.6646 29.5392L25.7629 29.5857L25.8457 29.653L25.9079 29.7462L25.9493 29.8445L25.9596 29.9532H26.5341H35.3371V29.9221L35.3578 29.8186L35.4044 29.7203L35.4717 29.6323L35.5596 29.5702L35.658 29.5288" fill="#EBEBEB"/>
<path d="M26.2494 29.5288H25.6387L25.6646 29.5392L25.7629 29.5857L25.8457 29.653L25.9079 29.7462L25.9493 29.8445L25.9596 29.9532H26.5341H35.3371V29.9221L35.3578 29.8186L35.4044 29.7203L35.4717 29.6323L35.5596 29.5702L35.658 29.5288" stroke="black" stroke-width="0.25" stroke-miterlimit="2"/>
<path d="M28.1072 32.1238L28.2469 32.2168L28.3763 32.3306L28.5161 32.4753L28.6403 32.6304L28.8369 32.9561L28.7748 33.0181L28.692 33.0905L28.6092 33.1577L28.5212 33.2249L28.4332 33.2817L28.3401 33.3438L28.2469 33.3955H28.2366L28.1538 33.4316L28.0762 33.4575L28.0037 33.4782L27.9416 33.4937L27.8795 33.2817L27.7967 33.0905L27.7191 32.9405L27.6363 32.8165" fill="#D5D5D5"/>
<path d="M28.1072 32.1238L28.2469 32.2168L28.3763 32.3306L28.5161 32.4753L28.6403 32.6304L28.8369 32.9561L28.7748 33.0181L28.692 33.0905L28.6092 33.1577L28.5212 33.2249L28.4332 33.2817L28.3401 33.3438L28.2469 33.3955H28.2366L28.1538 33.4316L28.0762 33.4575L28.0037 33.4782L27.9416 33.4937L27.8795 33.2817L27.7967 33.0905L27.7191 32.9405L27.6363 32.8165" stroke="black" stroke-width="0.25" stroke-miterlimit="2"/>
<path d="M25.09 31.4L25.1987 31.3948L25.3022 31.3741L25.4057 31.3379L25.504 31.2966L25.5972 31.2397L25.6852 31.1673L25.7576 31.0898L25.8249 31.0019L25.8767 30.9089L25.9181 30.8055L25.9439 30.7021L25.9595 30.5935V30.5315L26.0423 30.5987L26.1251 30.6711L26.213 30.7434L26.2959 30.8106L26.3787 30.883L26.4615 30.9502L26.5339 31.0122L26.6219 31.0795L26.7047 31.1467L26.7927 31.2139L26.8755 31.2811L26.9635 31.3483L27.0514 31.4103L27.1187 31.462L27.2067 31.5292L27.2947 31.5912L27.3826 31.6533L27.4758 31.7153L27.5638 31.7773L27.6518 31.8394L27.7449 31.9014L27.8381 31.9583L27.9312 32.0151L28.0192 32.072L28.1072 32.1237L28.0968 32.1495L28.0554 32.2477L28.0088 32.346L27.9571 32.4442L27.9002 32.5321L27.8329 32.6148L27.7708 32.6923L27.7035 32.7595L27.6362 32.8164" fill="#D5D5D5"/>
<path d="M25.09 31.4L25.1987 31.3948L25.3022 31.3741L25.4057 31.3379L25.504 31.2966L25.5972 31.2397L25.6852 31.1673L25.7576 31.0898L25.8249 31.0019L25.8767 30.9089L25.9181 30.8055L25.9439 30.7021L25.9595 30.5935V30.5315L26.0423 30.5987L26.1251 30.6711L26.213 30.7434L26.2959 30.8106L26.3787 30.883L26.4615 30.9502L26.5339 31.0122L26.6219 31.0795L26.7047 31.1467L26.7927 31.2139L26.8755 31.2811L26.9635 31.3483L27.0514 31.4103L27.1187 31.462L27.2067 31.5292L27.2947 31.5912L27.3826 31.6533L27.4758 31.7153L27.5638 31.7773L27.6518 31.8394L27.7449 31.9014L27.8381 31.9583L27.9312 32.0151L28.0192 32.072L28.1072 32.1237L28.0968 32.1495L28.0554 32.2477L28.0088 32.346L27.9571 32.4442L27.9002 32.5321L27.8329 32.6148L27.7708 32.6923L27.7035 32.7595L27.6362 32.8164" stroke="black" stroke-width="0.25" stroke-miterlimit="2"/>
<path d="M22.58 31.617L22.8026 31.3999H25.09L25.1832 31.4619L25.2712 31.5188L25.3643 31.5757L25.4575 31.6377L25.5506 31.6946L25.6438 31.7514L25.7369 31.8083L25.768 31.8238L25.8611 31.8807L25.9595 31.9375L26.0526 31.9944L26.1458 32.0461L26.2389 32.1029L26.3321 32.1546L26.4304 32.2115L26.4615 32.227L26.5598 32.2787L26.6529 32.3304L26.7513 32.3821L26.8444 32.4338L26.9428 32.4855L27.0411 32.532L27.1394 32.5837L27.2377 32.6302L27.3361 32.6767L27.4344 32.7233L27.5327 32.7698L27.6311 32.8163H27.6362V44.9024H22.8026L22.58 44.6853" fill="#D5D5D5"/>
<path d="M22.58 31.617L22.8026 31.3999H25.09L25.1832 31.4619L25.2712 31.5188L25.3643 31.5757L25.4575 31.6377L25.5506 31.6946L25.6438 31.7514L25.7369 31.8083L25.768 31.8238L25.8611 31.8807L25.9595 31.9375L26.0526 31.9944L26.1458 32.0461L26.2389 32.1029L26.3321 32.1546L26.4304 32.2115L26.4615 32.227L26.5598 32.2787L26.6529 32.3304L26.7513 32.3821L26.8444 32.4338L26.9428 32.4855L27.0411 32.532L27.1394 32.5837L27.2377 32.6302L27.3361 32.6767L27.4344 32.7233L27.5327 32.7698L27.6311 32.8163H27.6362V44.9024H22.8026L22.58 44.6853" stroke="black" stroke-width="0.25" stroke-miterlimit="2"/>
<path d="M22.5801 31.6172H21.928V44.6855H22.5801" fill="#D5D5D5"/>
<path d="M22.5801 31.6172H21.928V44.6855H22.5801" stroke="black" stroke-width="0.25" stroke-miterlimit="2"/>
<path d="M21.928 44.6855L21.5347 45.3627H21.1413V30.9452H21.5347L21.928 31.6172" fill="#D5D5D5"/>
<path d="M21.928 44.6855L21.5347 45.3627H21.1413V30.9452H21.5347L21.928 31.6172" stroke="black" stroke-width="0.25" stroke-miterlimit="2"/>
<path d="M11.0239 31.6171L10.7134 31.0743H0.2543V45.2334H10.7134L11.0239 44.6854V41.2839" fill="#EBEBEB"/>
<path d="M11.0239 31.6171L10.7134 31.0743H0.2543V45.2334H10.7134L11.0239 44.6854V41.2839" stroke="black" stroke-width="0.25" stroke-miterlimit="2"/>
<path d="M13.9478 45.1299V29.9836L14.0099 29.875H14.5119H20.5773H21.0793L21.1414 29.9836V45.1299V46.3189L21.0793 46.4274H20.5773H14.5119H14.0099L13.9478 46.3189V45.1299Z" fill="#D5D5D5" stroke="black" stroke-width="0.25" stroke-miterlimit="2"/>
<path d="M12.4626 43.7084L11.8985 44.6855H11.0239V31.6172H11.8985L12.4626 32.5994" fill="#D5D5D5"/>
<path d="M12.4626 43.7084L11.8985 44.6855H11.0239V31.6172H11.8985L12.4626 32.5994" stroke="black" stroke-width="0.25" stroke-miterlimit="2"/>
<path d="M23.5634 29.2237V26.4374H37.7332V29.2237" fill="#EBEBEB"/>
<path d="M23.5634 29.2237V26.4374H37.7332V29.2237" stroke="black" stroke-width="0.25" stroke-miterlimit="2"/>
<path d="M29.8047 29.5393L29.7576 29.5288" stroke="black" stroke-width="0.25" stroke-miterlimit="2"/>
<path d="M29.8041 29.5391V29.5495L29.8094 29.5548L29.8251 29.5704L29.8564 29.5757" fill="#EBEBEB"/>
<path d="M29.8041 29.5391V29.5495L29.8094 29.5548L29.8251 29.5704L29.8564 29.5757" stroke="black" stroke-width="0.25" stroke-miterlimit="2"/>
<path d="M29.8669 29.5909L29.8564 29.5751" stroke="black" stroke-width="0.25" stroke-miterlimit="2"/>
<path d="M29.7583 29.5288V29.5392L29.779 29.565L29.8255 29.5909H29.8669" fill="#EBEBEB"/>
<path d="M29.7583 29.5288V29.5392L29.779 29.565L29.8255 29.5909H29.8669" stroke="black" stroke-width="0.25" stroke-miterlimit="2"/>
<path d="M29.8203 29.4511L29.7732 29.4407" stroke="black" stroke-width="0.25" stroke-miterlimit="2"/>
<path d="M29.8048 29.5392L29.8203 29.4512" stroke="black" stroke-width="0.25" stroke-miterlimit="2"/>
<path d="M29.7582 29.5287L29.7737 29.4407" stroke="black" stroke-width="0.25" stroke-miterlimit="2"/>
<path d="M29.8203 29.4515V29.4359L29.8048 29.4049L29.7582 29.2859L29.753 29.2238" fill="#EBEBEB"/>
<path d="M29.8203 29.4515V29.4359L29.8048 29.4049L29.7582 29.2859L29.753 29.2238" stroke="black" stroke-width="0.25" stroke-miterlimit="2"/>
<path d="M29.7737 29.4411V29.4359V29.4308L29.7685 29.4256L29.753 29.4049L29.6857 29.3221L29.6495 29.2238" fill="#EBEBEB"/>
<path d="M29.7737 29.4411V29.4359V29.4308L29.7685 29.4256L29.753 29.4049L29.6857 29.3221L29.6495 29.2238" stroke="black" stroke-width="0.25" stroke-miterlimit="2"/>
<path d="M31.4609 29.2081V29.2188" stroke="black" stroke-width="0.25" stroke-miterlimit="2"/>
<path d="M31.4609 29.2188L31.4556 29.2081" stroke="black" stroke-width="0.25" stroke-miterlimit="2"/>
<path d="M31.4297 29.4407L31.3878 29.4459" stroke="black" stroke-width="0.25" stroke-miterlimit="2"/>
<path d="M31.4609 29.2185L31.4506 29.2806L31.4144 29.3789L31.3937 29.4203L31.3885 29.4359V29.4462" fill="#EBEBEB"/>
<path d="M31.4609 29.2185L31.4506 29.2806L31.4144 29.3789L31.3937 29.4203L31.3885 29.4359V29.4462" stroke="black" stroke-width="0.25" stroke-miterlimit="2"/>
<path d="M31.5642 29.2238L31.5487 29.2755L31.4918 29.3635L31.44 29.4204L31.4297 29.4308V29.4359V29.4411" fill="#EBEBEB"/>
<path d="M31.5642 29.2238L31.5487 29.2755L31.4918 29.3635L31.44 29.4204L31.4297 29.4308V29.4359V29.4411" stroke="black" stroke-width="0.25" stroke-miterlimit="2"/>
<path d="M31.4453 29.5288L31.4035 29.5393" stroke="black" stroke-width="0.25" stroke-miterlimit="2"/>
<path d="M31.3883 29.4459L31.4038 29.5391" stroke="black" stroke-width="0.25" stroke-miterlimit="2"/>
<path d="M31.4298 29.4407L31.4453 29.5287" stroke="black" stroke-width="0.25" stroke-miterlimit="2"/>
<path d="M31.3572 29.5698L31.3466 29.5856" stroke="black" stroke-width="0.25" stroke-miterlimit="2"/>
<path d="M31.3567 29.5704L31.3829 29.5652L31.3986 29.5495L31.4038 29.5443V29.5391" fill="#EBEBEB"/>
<path d="M31.3567 29.5704L31.3829 29.5652L31.3986 29.5495L31.4038 29.5443V29.5391" stroke="black" stroke-width="0.25" stroke-miterlimit="2"/>
<path d="M31.347 29.5857L31.3987 29.5754L31.435 29.5443L31.4453 29.534V29.5288" fill="#EBEBEB"/>
<path d="M31.347 29.5857L31.3987 29.5754L31.435 29.5443L31.4453 29.534V29.5288" stroke="black" stroke-width="0.25" stroke-miterlimit="2"/>
<path d="M29.8564 29.5752L30.4826 29.5442L31.0208 29.5494L31.3572 29.5701" fill="#EBEBEB"/>
<path d="M29.8564 29.5752L30.4826 29.5442L31.0208 29.5494L31.3572 29.5701" stroke="black" stroke-width="0.25" stroke-miterlimit="2"/>
<path d="M29.8668 29.5908L30.4516 29.5494L30.7518 29.5442L31.202 29.5701L31.3469 29.5856" fill="#EBEBEB"/>
<path d="M29.8668 29.5908L30.4516 29.5494L30.7518 29.5442L31.202 29.5701L31.3469 29.5856" stroke="black" stroke-width="0.25" stroke-miterlimit="2"/>
<path d="M29.7737 29.4407H25.9595" stroke="black" stroke-width="0.25" stroke-miterlimit="2"/>
<path d="M35.9944 29.4407H31.4298" stroke="black" stroke-width="0.25" stroke-miterlimit="2"/>
<path d="M29.7583 29.5288H26.2495" stroke="black" stroke-width="0.25" stroke-miterlimit="2"/>
<path d="M35.658 29.5288H31.4453" stroke="black" stroke-width="0.25" stroke-miterlimit="2"/>
<path d="M25.3022 29.4407H25.9595" stroke="black" stroke-width="0.25" stroke-miterlimit="2"/>
<path d="M39.8083 31.8446V45.3419" stroke="black" stroke-width="0.25" stroke-miterlimit="2"/>
<path d="M39.8083 31.8447V30.9659" stroke="black" stroke-width="0.25" stroke-miterlimit="2"/>
<path d="M38.675 44.034V32.9922" stroke="black" stroke-width="0.25" stroke-miterlimit="2"/>
<path d="M28.3247 33.7059L28.3402 33.6127L28.3713 33.5662L28.4023 33.5403L28.3195 33.473L28.2471 33.3954L28.1177 33.4834L28.0556 33.5506L28.0142 33.6179" fill="#D5D5D5"/>
<path d="M28.3247 33.7059L28.3402 33.6127L28.3713 33.5662L28.4023 33.5403L28.3195 33.473L28.2471 33.3954L28.1177 33.4834L28.0556 33.5506L28.0142 33.6179" stroke="black" stroke-width="0.25" stroke-miterlimit="2"/>
<path d="M34.7781 32.6355L34.8816 32.6148L34.9023 32.6096" fill="#EBEBEB"/>
<path d="M34.7781 32.6355L34.8816 32.6148L34.9023 32.6096" stroke="black" stroke-width="0.25" stroke-miterlimit="2"/>
<path d="M34.6332 32.0721L34.628 32.129L34.659 32.372L34.7056 32.5064L34.7781 32.6356" fill="#EBEBEB"/>
<path d="M34.6332 32.0721L34.628 32.129L34.659 32.372L34.7056 32.5064L34.7781 32.6356" stroke="black" stroke-width="0.25" stroke-miterlimit="2"/>
<path d="M27.9417 33.4937L28.0142 33.6179" stroke="black" stroke-width="0.25" stroke-miterlimit="2"/>
<path d="M34.5453 32.0358L34.6333 32.072" stroke="black" stroke-width="0.25" stroke-miterlimit="2"/>
<path d="M29.9963 28.9032H31.2849" stroke="black" stroke-width="0.25" stroke-miterlimit="2"/>
<path d="M31.2849 28.9032V27.7556" stroke="black" stroke-width="0.25" stroke-miterlimit="2"/>
<path d="M31.2849 27.7556H31.2796" stroke="black" stroke-width="0.25" stroke-miterlimit="2"/>
<path d="M29.9963 27.7556H31.2798" stroke="black" stroke-width="0.25" stroke-miterlimit="2"/>
<path d="M29.9963 28.9032V27.7556" stroke="black" stroke-width="0.25" stroke-miterlimit="2"/>
<path d="M29.9963 27.5022V27.5954" stroke="black" stroke-width="0.25" stroke-miterlimit="2"/>
<path d="M30.1101 27.4816L29.9963 27.5954" stroke="black" stroke-width="0.25" stroke-miterlimit="2"/>
<path d="M30.1101 27.4816H30.017" stroke="black" stroke-width="0.25" stroke-miterlimit="2"/>
<path d="M30.0168 27.4816L29.9959 27.5025" stroke="black" stroke-width="0.25" stroke-miterlimit="2"/>
<path d="M31.2847 27.7556H31.3057" stroke="black" stroke-width="0.25" stroke-miterlimit="2"/>
<path d="M31.3057 28.9032H31.2847" stroke="black" stroke-width="0.25" stroke-miterlimit="2"/>
<path d="M31.3057 28.9032V27.7556" stroke="black" stroke-width="0.25" stroke-miterlimit="2"/>
<path d="M31.3057 27.7299L31.2795 27.756" stroke="black" stroke-width="0.25" stroke-miterlimit="2"/>
<path d="M31.3057 27.7401L31.2847 27.7558" stroke="black" stroke-width="0.25" stroke-miterlimit="2"/>
<path d="M31.3057 27.7299V27.7405" stroke="black" stroke-width="0.25" stroke-miterlimit="2"/>
<path d="M31.2798 27.7556V27.6572" stroke="black" stroke-width="0.25" stroke-miterlimit="2"/>
<path d="M29.9963 27.6572H31.2798" stroke="black" stroke-width="0.25" stroke-miterlimit="2"/>
<path d="M29.9963 27.6572V27.7556" stroke="black" stroke-width="0.25" stroke-miterlimit="2"/>
<path d="M29.9963 29.0325H31.2849" stroke="black" stroke-width="0.25" stroke-miterlimit="2"/>
<path d="M31.2849 29.0326V28.9032" stroke="black" stroke-width="0.25" stroke-miterlimit="2"/>
<path d="M29.9963 28.9032V29.0326" stroke="black" stroke-width="0.25" stroke-miterlimit="2"/>
<path d="M31.1038 27.4816L31.2798 27.6575" stroke="black" stroke-width="0.25" stroke-miterlimit="2"/>
<path d="M30.1101 27.4816H31.1038" stroke="black" stroke-width="0.25" stroke-miterlimit="2"/>
<path d="M29.9963 27.6576V27.5955" stroke="black" stroke-width="0.25" stroke-miterlimit="2"/>
<path d="M31.3057 27.7401V27.7559" stroke="black" stroke-width="0.25" stroke-miterlimit="2"/>
<path d="M31.2847 29.0325H31.3057" stroke="black" stroke-width="0.25" stroke-miterlimit="2"/>
<path d="M31.3057 29.0326V28.9032" stroke="black" stroke-width="0.25" stroke-miterlimit="2"/>
<path d="M31.3057 27.6521L31.2795 27.6573" stroke="black" stroke-width="0.25" stroke-miterlimit="2"/>
<path d="M31.3057 27.6521V27.7303" stroke="black" stroke-width="0.25" stroke-miterlimit="2"/>
<path d="M31.3057 27.5902V27.6523" stroke="black" stroke-width="0.25" stroke-miterlimit="2"/>
<path d="M31.1918 27.4816L31.3057 27.5902" stroke="black" stroke-width="0.25" stroke-miterlimit="2"/>
<path d="M31.1917 27.4816H31.1037" stroke="black" stroke-width="0.25" stroke-miterlimit="2"/>
<path d="M29.9963 27.5022L29.9754 27.5231" stroke="black" stroke-width="0.25" stroke-miterlimit="2"/>
<path d="M29.8875 29.3063L29.8564 29.5754" stroke="black" stroke-width="0.25" stroke-miterlimit="2"/>
<path d="M29.7684 29.2238L29.8357 29.2962L29.8875 29.3066" fill="#EBEBEB"/>
<path d="M29.7684 29.2238L29.8357 29.2962L29.8875 29.3066" stroke="black" stroke-width="0.25" stroke-miterlimit="2"/>
<path d="M31.3057 29.1619L31.285 29.0325" stroke="black" stroke-width="0.25" stroke-miterlimit="2"/>
<path d="M29.9963 29.3068V29.0325" stroke="black" stroke-width="0.25" stroke-miterlimit="2"/>
<path d="M29.9963 29.3063H29.8877" stroke="black" stroke-width="0.25" stroke-miterlimit="2"/>
<path d="M31.3572 29.5702L31.321 29.3063" stroke="black" stroke-width="0.25" stroke-miterlimit="2"/>
<path d="M31.3052 29.3063H31.321" stroke="black" stroke-width="0.25" stroke-miterlimit="2"/>
<path d="M31.3057 29.3067V29.1617" stroke="black" stroke-width="0.25" stroke-miterlimit="2"/>
<path d="M31.4609 29.2188L31.4556 29.2081" stroke="black" stroke-width="0.25" stroke-miterlimit="2"/>
<path d="M31.3052 27.5902L31.3262 27.6111" stroke="black" stroke-width="0.25" stroke-miterlimit="2"/>
<path d="M31.3057 29.0325V29.1619" stroke="black" stroke-width="0.25" stroke-miterlimit="2"/>
<path d="M31.3211 29.3064L31.4142 29.2702L31.4504 29.2029" fill="#EBEBEB"/>
<path d="M31.3211 29.3064L31.4142 29.2702L31.4504 29.2029" stroke="black" stroke-width="0.25" stroke-miterlimit="2"/>
<path d="M31.1916 27.4816H31.3262" stroke="black" stroke-width="0.25" stroke-miterlimit="2"/>
<path d="M30.0168 27.4816H29.975" stroke="black" stroke-width="0.25" stroke-miterlimit="2"/>
<path d="M32.8271 26.3494H28.4696" stroke="black" stroke-width="0.25" stroke-miterlimit="2"/>
<path d="M32.8271 26.1323H28.4696" stroke="black" stroke-width="0.25" stroke-miterlimit="2"/>
<path d="M32.8271 25.91H28.4696" stroke="black" stroke-width="0.25" stroke-miterlimit="2"/>
<path d="M22.8027 32.227V31.3999" stroke="black" stroke-width="0.25" stroke-miterlimit="2"/>
<path d="M22.8027 44.9024V32.2271" stroke="black" stroke-width="0.25" stroke-miterlimit="2"/>
<path d="M22.5801 32.4184V31.6172" stroke="black" stroke-width="0.25" stroke-miterlimit="2"/>
<path d="M22.5801 44.6853V32.4183" stroke="black" stroke-width="0.25" stroke-miterlimit="2"/>
<path d="M35.658 29.5287L35.9944 29.4407" stroke="black" stroke-width="0.25" stroke-miterlimit="2"/>
<path d="M25.0332 29.2238L25.0901 29.3117L25.1729 29.3842L25.2712 29.4308L25.3023 29.4411H35.9943L36.0978 29.3997L36.1806 29.3376L36.253 29.2496L36.2686 29.2238" fill="#EBEBEB"/>
<path d="M25.0332 29.2238L25.0901 29.3117L25.1729 29.3842L25.2712 29.4308L25.3023 29.4411H35.9943L36.0978 29.3997L36.1806 29.3376L36.253 29.2496L36.2686 29.2238" stroke="black" stroke-width="0.25" stroke-miterlimit="2"/>
<path d="M25.6387 29.5287L25.3023 29.4407" stroke="black" stroke-width="0.25" stroke-miterlimit="2"/>
<path d="M34.8194 44.2253L34.8764 44.1736L34.9695 44.1115L35.0678 44.0702L35.1714 44.0443L35.28 44.034V32.9922V32.9146H35.2024L35.0989 32.8939L34.9954 32.8577L34.9022 32.8112L34.8194 32.744" fill="#D5D5D5"/>
<path d="M34.8194 44.2253L34.8764 44.1736L34.9695 44.1115L35.0678 44.0702L35.1714 44.0443L35.28 44.034V32.9922V32.9146H35.2024L35.0989 32.8939L34.9954 32.8577L34.9022 32.8112L34.8194 32.744" stroke="black" stroke-width="0.25" stroke-miterlimit="2"/>
<path d="M34.6591 44.3856L34.8196 44.2253V32.8164V32.7337L34.7885 32.6355L34.773 32.6252L34.7575 32.62L34.6591 32.589" fill="#D5D5D5"/>
<path d="M34.6591 44.3856L34.8196 44.2253V32.8164V32.7337L34.7885 32.6355L34.773 32.6252L34.7575 32.62L34.6591 32.589" stroke="black" stroke-width="0.25" stroke-miterlimit="2"/>
<path d="M28.0142 33.6177L28.1022 33.6642L28.2005 33.6952L28.304 33.7056H28.3247V44.5768L28.216 44.5923L28.1125 44.6337L28.0245 44.6957L28.0142 44.7061V33.6177Z" fill="#D5D5D5" stroke="black" stroke-width="0.25" stroke-miterlimit="2"/>
<path d="M28.0142 44.7062L27.9412 44.7792" stroke="black" stroke-width="0.25" stroke-miterlimit="2"/>
<path d="M25.9595 30.5315V29.9525" stroke="black" stroke-width="0.25" stroke-miterlimit="2"/>
<path d="M35.3372 31.3999V29.9525" stroke="black" stroke-width="0.25" stroke-miterlimit="2"/>
<path d="M39.8083 30.9661L39.824 30.9452" stroke="black" stroke-width="0.25" stroke-miterlimit="2"/>
<path d="M39.824 45.3628L39.8083 45.3419" stroke="black" stroke-width="0.25" stroke-miterlimit="2"/>
<path d="M39.4927 31.5084H39.8083" stroke="black" stroke-width="0.25" stroke-miterlimit="2"/>
<path d="M39.8082 31.5084H39.824" stroke="black" stroke-width="0.25" stroke-miterlimit="2"/>
<path d="M39.8241 31.5084H40.1553" stroke="black" stroke-width="0.25" stroke-miterlimit="2"/>
<path d="M40.1553 44.7939H39.8241" stroke="black" stroke-width="0.25" stroke-miterlimit="2"/>
<path d="M39.824 44.7939H39.8082" stroke="black" stroke-width="0.25" stroke-miterlimit="2"/>
<path d="M39.8083 44.7939H39.4927" stroke="black" stroke-width="0.25" stroke-miterlimit="2"/>
<path d="M22.5801 44.6854V41.2839" stroke="black" stroke-width="0.25" stroke-miterlimit="2"/>
<path d="M21.928 44.6854V41.2839" stroke="black" stroke-width="0.25" stroke-miterlimit="2"/>
<path d="M22.5801 41.284V31.6172" stroke="black" stroke-width="0.25" stroke-miterlimit="2"/>
<path d="M21.928 41.284V31.6172" stroke="black" stroke-width="0.25" stroke-miterlimit="2"/>
<path d="M21.5347 45.3625V41.6095" stroke="black" stroke-width="0.25" stroke-miterlimit="2"/>
<path d="M21.5347 41.6097V30.9452" stroke="black" stroke-width="0.25" stroke-miterlimit="2"/>
<path d="M21.4934 45.3625V31.8239" stroke="black" stroke-width="0.25" stroke-miterlimit="2"/>
<path d="M21.4934 31.824V30.9452" stroke="black" stroke-width="0.25" stroke-miterlimit="2"/>
<path d="M21.4934 44.7939H21.1415" stroke="black" stroke-width="0.25" stroke-miterlimit="2"/>
<path d="M21.4934 31.5084H21.1415" stroke="black" stroke-width="0.25" stroke-miterlimit="2"/>
<path d="M21.4933 31.5087L21.5347 30.9452" stroke="black" stroke-width="0.25" stroke-miterlimit="2"/>
<path d="M21.4933 44.7939L21.5347 45.3626" stroke="black" stroke-width="0.25" stroke-miterlimit="2"/>
<path d="M12.4626 43.7082V40.8134" stroke="black" stroke-width="0.25" stroke-miterlimit="2"/>
<path d="M12.4626 40.8134V32.5992" stroke="black" stroke-width="0.25" stroke-miterlimit="2"/>
<path d="M11.8984 44.6854V41.2839" stroke="black" stroke-width="0.25" stroke-miterlimit="2"/>
<path d="M11.8984 41.284V31.6172" stroke="black" stroke-width="0.25" stroke-miterlimit="2"/>
<path d="M11.0239 41.284V31.6172" stroke="black" stroke-width="0.25" stroke-miterlimit="2"/>
<path d="M10.7134 45.2335V41.5477" stroke="black" stroke-width="0.25" stroke-miterlimit="2"/>
<path d="M10.7134 41.5476V31.0743" stroke="black" stroke-width="0.25" stroke-miterlimit="2"/>
<path d="M0.254395 45.2335V41.5477" stroke="black" stroke-width="0.25" stroke-miterlimit="2"/>
<path d="M0.254395 41.5476V31.0743" stroke="black" stroke-width="0.25" stroke-miterlimit="2"/>
<path d="M0.125 45.099V41.4856" stroke="black" stroke-width="0.25" stroke-miterlimit="2"/>
<path d="M0.125 41.4856V31.2036" stroke="black" stroke-width="0.25" stroke-miterlimit="2"/>
<path d="M13.948 32.5992H12.4627V43.7083H13.948" fill="#D5D5D5"/>
<path d="M13.948 32.5992H12.4627V43.7083H13.948" stroke="black" stroke-width="0.25" stroke-miterlimit="2"/>
<path d="M0.125014 45.0989L0.254395 45.2334" stroke="black" stroke-width="0.25" stroke-miterlimit="2"/>
<path d="M0.125014 31.2037L0.254395 31.0743" stroke="black" stroke-width="0.25" stroke-miterlimit="2"/>
<path d="M48.834 32.5992V35.4889" stroke="black" stroke-width="0.25" stroke-miterlimit="2"/>
<path d="M48.834 35.4889V43.7082" stroke="black" stroke-width="0.25" stroke-miterlimit="2"/>
<path d="M50.2727 31.6172V35.0187" stroke="black" stroke-width="0.25" stroke-miterlimit="2"/>
<path d="M50.2727 35.0187V44.6855" stroke="black" stroke-width="0.25" stroke-miterlimit="2"/>
<path d="M50.5884 31.0743V34.7601" stroke="black" stroke-width="0.25" stroke-miterlimit="2"/>
<path d="M50.5884 34.7601V45.2334" stroke="black" stroke-width="0.25" stroke-miterlimit="2"/>
<path d="M61.0476 31.0743V34.7601" stroke="black" stroke-width="0.25" stroke-miterlimit="2"/>
<path d="M61.0476 34.7601V45.2334" stroke="black" stroke-width="0.25" stroke-miterlimit="2"/>
<path d="M50.5885 45.2334H61.0476V31.0743H50.5885" fill="#EBEBEB"/>
<path d="M50.5885 45.2334H61.0476V31.0743H50.5885" stroke="black" stroke-width="0.25" stroke-miterlimit="2"/>
<path d="M61.177 31.2037L61.0476 31.0743" stroke="black" stroke-width="0.25" stroke-miterlimit="2"/>
<path d="M61.177 45.0989L61.0476 45.2334" stroke="black" stroke-width="0.25" stroke-miterlimit="2"/>
<path d="M46.7847 30.64H40.7245" stroke="black" stroke-width="0.25" stroke-miterlimit="2"/>
<path d="M40.7244 30.64L40.5018 31.5085L40.3414 32.3718L40.2534 33.1368L40.2224 33.8967L40.2379 34.6618L40.2948 35.3183L40.3931 35.98L40.5329 36.6417L40.7244 37.3861" stroke="black" stroke-width="0.25" stroke-miterlimit="2"/>
<path d="M46.7847 37.3862H40.7245" stroke="black" stroke-width="0.25" stroke-miterlimit="2"/>
<path d="M46.7846 37.3861L47.002 36.5228L47.1624 35.6595L47.2504 34.8944L47.2866 34.1345L47.2711 33.3695L47.209 32.7129L47.1107 32.0513L46.9761 31.3896L46.7846 30.64" stroke="black" stroke-width="0.25" stroke-miterlimit="2"/>
<path d="M46.7847 38.9163H40.7245" stroke="black" stroke-width="0.25" stroke-miterlimit="2"/>
<path d="M40.7244 38.9163L40.5018 39.7847L40.3414 40.648L40.2534 41.4131L40.2224 42.173L40.2379 42.9381L40.2948 43.5946L40.3931 44.2563L40.5329 44.9179L40.7244 45.6675" stroke="black" stroke-width="0.25" stroke-miterlimit="2"/>
<path d="M46.7847 45.6676H40.7245" stroke="black" stroke-width="0.25" stroke-miterlimit="2"/>
<path d="M46.7846 45.6675L47.002 44.799L47.1624 43.9358L47.2504 43.1707L47.2866 42.4108L47.2711 41.6457L47.209 40.9892L47.1107 40.3275L46.9761 39.6607L46.7846 38.9163" stroke="black" stroke-width="0.25" stroke-miterlimit="2"/>
<path d="M46.7847 29.875V30.3408" stroke="black" stroke-width="0.25" stroke-miterlimit="2"/>
<path d="M40.7244 29.875V30.3408" stroke="black" stroke-width="0.25" stroke-miterlimit="2"/>
<path d="M46.7847 37.3862V38.9164" stroke="black" stroke-width="0.25" stroke-miterlimit="2"/>
<path d="M46.7847 45.6676V46.4275" stroke="black" stroke-width="0.25" stroke-miterlimit="2"/>
<path d="M46.7847 30.3401V30.6402" stroke="black" stroke-width="0.25" stroke-miterlimit="2"/>
<path d="M40.7244 30.3401V30.6402" stroke="black" stroke-width="0.25" stroke-miterlimit="2"/>
<path d="M40.7244 37.3862V38.9164" stroke="black" stroke-width="0.25" stroke-miterlimit="2"/>
<path d="M40.7244 45.6676V46.4275" stroke="black" stroke-width="0.25" stroke-miterlimit="2"/>
<path d="M14.512 37.3862H20.5774" stroke="black" stroke-width="0.25" stroke-miterlimit="2"/>
<path d="M20.5773 37.3861L20.7947 36.5228L20.9551 35.6595L21.0431 34.8944L21.0793 34.1345L21.0586 33.3695L21.0017 32.7129L20.9034 32.0513L20.7688 31.3896L20.5773 30.64" stroke="black" stroke-width="0.25" stroke-miterlimit="2"/>
<path d="M14.512 30.64H20.5774" stroke="black" stroke-width="0.25" stroke-miterlimit="2"/>
<path d="M14.512 30.64L14.2946 31.5085L14.1342 32.3718L14.0462 33.1368L14.01 33.8967L14.0307 34.6618L14.0876 35.3183L14.1859 35.98L14.3205 36.6417L14.512 37.3861" stroke="black" stroke-width="0.25" stroke-miterlimit="2"/>
<path d="M14.512 45.6676H20.5774" stroke="black" stroke-width="0.25" stroke-miterlimit="2"/>
<path d="M20.5773 45.6675L20.7947 44.799L20.9551 43.9358L21.0431 43.1707L21.0793 42.4108L21.0586 41.6457L21.0017 40.9892L20.9034 40.3275L20.7688 39.6607L20.5773 38.9163" stroke="black" stroke-width="0.25" stroke-miterlimit="2"/>
<path d="M14.512 38.9163H20.5774" stroke="black" stroke-width="0.25" stroke-miterlimit="2"/>
<path d="M14.512 38.9163L14.2946 39.7847L14.1342 40.648L14.0462 41.4131L14.01 42.173L14.0307 42.9381L14.0876 43.5946L14.1859 44.2563L14.3205 44.9179L14.512 45.6675" stroke="black" stroke-width="0.25" stroke-miterlimit="2"/>
<path d="M14.512 38.9164V37.3862" stroke="black" stroke-width="0.25" stroke-miterlimit="2"/>
<path d="M14.512 30.6401V29.875" stroke="black" stroke-width="0.25" stroke-miterlimit="2"/>
<path d="M14.512 45.9678V45.6676" stroke="black" stroke-width="0.25" stroke-miterlimit="2"/>
<path d="M20.5774 38.9164V37.3862" stroke="black" stroke-width="0.25" stroke-miterlimit="2"/>
<path d="M20.5774 30.6401V29.875" stroke="black" stroke-width="0.25" stroke-miterlimit="2"/>
<path d="M14.512 46.4279V45.9673" stroke="black" stroke-width="0.25" stroke-miterlimit="2"/>
<path d="M20.5774 45.9678V45.6676" stroke="black" stroke-width="0.25" stroke-miterlimit="2"/>
<path d="M20.5774 46.4279V45.9673" stroke="black" stroke-width="0.25" stroke-miterlimit="2"/>
<path d="M25.6335 19.5104V19.7277" stroke="black" stroke-width="0.25" stroke-miterlimit="2"/>
<path d="M23.8894 19.5104V19.7277" stroke="black" stroke-width="0.25" stroke-miterlimit="2"/>
<path d="M23.8895 19.7275H25.6335" stroke="black" stroke-width="0.25" stroke-miterlimit="2"/>
<path d="M46.5673 19.5104H56.1621" stroke="black" stroke-width="0.25" stroke-miterlimit="2"/>
<path d="M46.5671 19.5104H23.8893" stroke="black" stroke-width="0.25" stroke-miterlimit="2"/>
<path d="M31.0881 19.5104L31.0778 19.5207L31.0726 19.5621L31.0674 19.6242L31.0623 19.707V19.8054V19.9089V19.9451" fill="#EBEBEB"/>
<path d="M31.0881 19.5104L31.0778 19.5207L31.0726 19.5621L31.0674 19.6242L31.0623 19.707V19.8054V19.9089V19.9451" stroke="black" stroke-width="0.25" stroke-miterlimit="2"/>
<path d="M31.5229 19.9451L31.5074 19.8364L31.4712 19.7381L31.4039 19.6501L31.3211 19.5777L31.228 19.5311L31.1193 19.5104H31.0882" fill="#EBEBEB"/>
<path d="M31.5229 19.9451L31.5074 19.8364L31.4712 19.7381L31.4039 19.6501L31.3211 19.5777L31.228 19.5311L31.1193 19.5104H31.0882" stroke="black" stroke-width="0.25" stroke-miterlimit="2"/>
<path d="M35.8857 19.5104L35.7771 19.5207L35.6736 19.5621L35.5856 19.6242L35.5183 19.707L35.4717 19.8054L35.4458 19.9089V19.9451" fill="#EBEBEB"/>
<path d="M35.8857 19.5104L35.7771 19.5207L35.6736 19.5621L35.5856 19.6242L35.5183 19.707L35.4717 19.8054L35.4458 19.9089V19.9451" stroke="black" stroke-width="0.25" stroke-miterlimit="2"/>
<path d="M35.8857 19.5104L35.8081 19.5207L35.7408 19.5621L35.6787 19.6242L35.627 19.707L35.5959 19.8054L35.5804 19.9089V19.9451" fill="#EBEBEB"/>
<path d="M35.8857 19.5104L35.8081 19.5207L35.7408 19.5621L35.6787 19.6242L35.627 19.707L35.5959 19.8054L35.5804 19.9089V19.9451" stroke="black" stroke-width="0.25" stroke-miterlimit="2"/>
<path d="M31.0623 21.4696V19.9446" stroke="black" stroke-width="0.25" stroke-miterlimit="2"/>
<path d="M31.0624 21.4696H35.5803" stroke="black" stroke-width="0.25" stroke-miterlimit="2"/>
<path d="M35.5803 21.4696V19.9446" stroke="black" stroke-width="0.25" stroke-miterlimit="2"/>
<path d="M31.5229 19.9446V20.6011" stroke="black" stroke-width="0.25" stroke-miterlimit="2"/>
<path d="M35.4458 19.9446V20.6011" stroke="black" stroke-width="0.25" stroke-miterlimit="2"/>
<path d="M31.523 20.6011H35.4458" stroke="black" stroke-width="0.25" stroke-miterlimit="2"/>
<path d="M35.4458 20.8184V20.6011" stroke="black" stroke-width="0.25" stroke-miterlimit="2"/>
<path d="M31.5229 20.6011H31.5176" stroke="black" stroke-width="0.25" stroke-miterlimit="2"/>
<path d="M31.0624 21.4695L31.3005 20.9681L31.404 20.782L31.4919 20.6218L31.5126 20.6011H31.5178" fill="#EBEBEB"/>
<path d="M31.0624 21.4695L31.3005 20.9681L31.404 20.782L31.4919 20.6218L31.5126 20.6011H31.5178" stroke="black" stroke-width="0.25" stroke-miterlimit="2"/>
<path d="M35.4458 20.8181L35.4509 20.9008L35.4716 21.0714L35.5182 21.2679L35.5803 21.4695" fill="#EBEBEB"/>
<path d="M35.4458 20.8181L35.4509 20.9008L35.4716 21.0714L35.5182 21.2679L35.5803 21.4695" stroke="black" stroke-width="0.25" stroke-miterlimit="2"/>
<path d="M31.0623 21.4701L31.5643 21.2217L31.8437 21.082L31.9472 21.0354H31.9524" fill="#EBEBEB"/>
<path d="M31.0623 21.4701L31.5643 21.2217L31.8437 21.082L31.9472 21.0354H31.9524" stroke="black" stroke-width="0.25" stroke-miterlimit="2"/>
<path d="M35.1921 21.1441L35.1042 21.0613L35.011 21.0354" fill="#EBEBEB"/>
<path d="M35.1921 21.1441L35.1042 21.0613L35.011 21.0354" stroke="black" stroke-width="0.25" stroke-miterlimit="2"/>
<path d="M35.1922 21.144L35.2491 21.2061L35.3992 21.3355L35.5803 21.4701" fill="#EBEBEB"/>
<path d="M35.1922 21.144L35.2491 21.2061L35.3992 21.3355L35.5803 21.4701" stroke="black" stroke-width="0.25" stroke-miterlimit="2"/>
<path d="M31.523 20.6011L31.5334 20.7046L31.5748 20.8081L31.6369 20.8961L31.7197 20.9633L31.818 21.0099L31.9215 21.0306L31.9578 21.0358" fill="#EBEBEB"/>
<path d="M31.523 20.6011L31.5334 20.7046L31.5748 20.8081L31.6369 20.8961L31.7197 20.9633L31.818 21.0099L31.9215 21.0306L31.9578 21.0358" stroke="black" stroke-width="0.25" stroke-miterlimit="2"/>
<path d="M35.0111 21.0358L35.1146 21.0203L35.2181 20.984L35.3061 20.9168L35.3733 20.834L35.4251 20.7408L35.4458 20.6321V20.6011" fill="#EBEBEB"/>
<path d="M35.0111 21.0358L35.1146 21.0203L35.2181 20.984L35.3061 20.9168L35.3733 20.834L35.4251 20.7408L35.4458 20.6321V20.6011" stroke="black" stroke-width="0.25" stroke-miterlimit="2"/>
<path d="M31.9576 21.0354H35.011" stroke="black" stroke-width="0.25" stroke-miterlimit="2"/>
<path d="M35.1922 21.1442L35.2854 21.0976L35.3578 21.0303L35.4148 20.9527L35.4406 20.8699L35.4458 20.8181" fill="#EBEBEB"/>
<path d="M35.1922 21.1442L35.2854 21.0976L35.3578 21.0303L35.4148 20.9527L35.4406 20.8699L35.4458 20.8181" stroke="black" stroke-width="0.25" stroke-miterlimit="2"/>
<path d="M31.5177 20.6011L31.5332 20.7046L31.5694 20.8081L31.6315 20.8961L31.7143 20.9633L31.8127 21.0099L31.9162 21.0306L31.9524 21.0358" fill="#EBEBEB"/>
<path d="M31.5177 20.6011L31.5332 20.7046L31.5694 20.8081L31.6315 20.8961L31.7143 20.9633L31.8127 21.0099L31.9162 21.0306L31.9524 21.0358" stroke="black" stroke-width="0.25" stroke-miterlimit="2"/>
<path d="M31.9578 21.0354H31.9524" stroke="black" stroke-width="0.25" stroke-miterlimit="2"/>
<path d="M29.9754 27.4816H31.3262" stroke="black" stroke-width="0.25" stroke-miterlimit="2"/>
<path d="M36.8689 26.4374H37.7332" stroke="black" stroke-width="0.25" stroke-miterlimit="2"/>
<path d="M23.5634 26.4374H36.8689" stroke="black" stroke-width="0.25" stroke-miterlimit="2"/>
<path d="M29.9756 27.4816V29.0065" stroke="black" stroke-width="0.25" stroke-miterlimit="2"/>
<path d="M36.8689 29.2238H37.7332" stroke="black" stroke-width="0.25" stroke-miterlimit="2"/>
<path d="M31.3262 29.0065V27.4816" stroke="black" stroke-width="0.25" stroke-miterlimit="2"/>
<path d="M29.7531 29.224L29.8566 29.1981L29.9394 29.1256L29.9704 29.0273L29.9756 29.0066" fill="#EBEBEB"/>
<path d="M29.7531 29.224L29.8566 29.1981L29.9394 29.1256L29.9704 29.0273L29.9756 29.0066" stroke="black" stroke-width="0.25" stroke-miterlimit="2"/>
<path d="M23.5634 29.2238H29.7529" stroke="black" stroke-width="0.25" stroke-miterlimit="2"/>
<path d="M31.5436 29.2238H36.8689" stroke="black" stroke-width="0.25" stroke-miterlimit="2"/>
<path d="M31.3263 29.0066L31.3522 29.1049L31.4195 29.1877L31.523 29.224H31.5437" fill="#EBEBEB"/>
<path d="M31.3263 29.0066L31.3522 29.1049L31.4195 29.1877L31.523 29.224H31.5437" stroke="black" stroke-width="0.25" stroke-miterlimit="2"/>
<path d="M36.8689 29.2238H36.9724" stroke="black" stroke-width="0.25" stroke-miterlimit="2"/>
<path d="M16.0386 19.7277V19.5104" stroke="black" stroke-width="0.25" stroke-miterlimit="2"/>
<path d="M17.7827 19.7277V19.5104" stroke="black" stroke-width="0.25" stroke-miterlimit="2"/>
<path d="M23.8894 19.7275H17.7827" stroke="black" stroke-width="0.25" stroke-miterlimit="2"/>
<path d="M16.0387 19.7275H17.7827" stroke="black" stroke-width="0.25" stroke-miterlimit="2"/>
<path d="M23.5635 19.9449L23.548 19.8362L23.5117 19.7379L23.5065 19.7275" fill="#EBEBEB"/>
<path d="M23.5635 19.9449L23.548 19.8362L23.5117 19.7379L23.5065 19.7275" stroke="black" stroke-width="0.25" stroke-miterlimit="2"/>
<path d="M38.1731 19.5104L38.0644 19.5207L37.9661 19.5621L37.8729 19.6242L37.8057 19.707L37.7591 19.8054L37.7384 19.9089L37.7332 19.9451" fill="#EBEBEB"/>
<path d="M38.1731 19.5104L38.0644 19.5207L37.9661 19.5621L37.8729 19.6242L37.8057 19.707L37.7591 19.8054L37.7384 19.9089L37.7332 19.9451" stroke="black" stroke-width="0.25" stroke-miterlimit="2"/>
<path d="M36.8688 19.9446H37.7383V25.8274H36.8688H23.5634V19.9446H31.0622H31.5228H35.4457H35.5802H36.8688Z" fill="#EBEBEB"/>
<path d="M35.5803 19.9447H35.4458" stroke="black" stroke-width="0.25" stroke-miterlimit="2"/>
<path d="M36.8688 25.8275H37.7383" stroke="black" stroke-width="0.25" stroke-miterlimit="2"/>
<path d="M35.5803 19.9447H36.8689" stroke="black" stroke-width="0.25" stroke-miterlimit="2"/>
<path d="M31.0624 19.9447H31.5229" stroke="black" stroke-width="0.25" stroke-miterlimit="2"/>
<path d="M23.5634 19.9447H31.0623" stroke="black" stroke-width="0.25" stroke-miterlimit="2"/>
<path d="M31.5227 19.9447H35.4456" stroke="black" stroke-width="0.25" stroke-miterlimit="2"/>
<path d="M36.8688 19.9446H37.7383" stroke="black" stroke-width="0.25" stroke-miterlimit="2"/>
<path d="M23.5634 25.8275H36.8689" stroke="black" stroke-width="0.25" stroke-miterlimit="2"/>
<path d="M23.5635 19.9447V25.8275" stroke="black" stroke-width="0.25" stroke-miterlimit="2"/>
<path d="M37.7383 19.9446V25.8274" stroke="black" stroke-width="0.25" stroke-miterlimit="2"/>
<path d="M37.1897 26.4374V25.8274H32.827V26.4374" fill="#EBEBEB"/>
<path d="M37.1897 26.4374V25.8274H32.827V26.4374" stroke="black" stroke-width="0.25" stroke-miterlimit="2"/>
<path d="M24.1068 26.4374V25.8274H28.4695V26.4374" fill="#EBEBEB"/>
<path d="M24.1068 26.4374V25.8274H28.4695V26.4374" stroke="black" stroke-width="0.25" stroke-miterlimit="2"/>
<path d="M23.8894 19.4897V19.7485" stroke="black" stroke-width="0.25" stroke-miterlimit="2"/>
<path d="M17.7827 19.4897V19.7485" stroke="black" stroke-width="0.25" stroke-miterlimit="2"/>
<path d="M27.6363 44.9025L27.7398 44.8921L27.8433 44.8508L27.9313 44.7888L27.9417 44.7784V33.4936L27.6363 32.8164V44.9025Z" fill="#D5D5D5" stroke="black" stroke-width="0.25" stroke-miterlimit="2"/>
<path d="M28.8525 32.9974L28.8163 33.0595L28.6352 33.3231L28.4178 33.5454L28.2626 33.411L28.8525 32.9974Z" fill="#D5D5D5" stroke="black" stroke-width="0.25" stroke-miterlimit="2"/>
<path d="M28.837 32.9561L29.3131 33.1628L29.5564 33.2455L29.8099 33.3179L30.2033 33.3903L30.5966 33.4213L30.9951 33.4058L31.3884 33.3386L31.6471 33.2766L31.8956 33.199L32.3769 32.9974L32.8219 32.7648L33.2411 32.5115L33.6396 32.2427L33.6758 32.3409L33.7224 32.4391L33.7793 32.5322L33.8414 32.62L33.9087 32.7028L33.976 32.7803L34.0536 32.8475L34.1313 32.9095L34.1934 32.9509V44.5769H28.3247V33.7056L28.837 32.9561Z" fill="#D5D5D5" stroke="black" stroke-width="0.25" stroke-miterlimit="2"/>
<path d="M34.1934 32.9509L33.6397 32.2427L33.8622 32.1083L34.0899 32.0204L34.3124 31.9894L34.3797 31.9946L34.447 32.0049L34.5453 32.0359L34.5402 32.1445L34.5453 32.2479L34.5609 32.3512L34.5919 32.4443L34.6281 32.5373L34.6592 32.589L34.5712 32.62L34.478 32.6717L34.3849 32.7493L34.1934 32.9509V44.5769L34.3021 44.5717L34.4056 44.5407L34.5091 44.4993L34.5971 44.4373L34.6592 44.3856V32.6821V32.589" fill="#D5D5D5"/>
<path d="M34.1934 32.9509L33.6397 32.2427L33.8622 32.1083L34.0899 32.0204L34.3124 31.9894L34.3797 31.9946L34.447 32.0049L34.5453 32.0359L34.5402 32.1445L34.5453 32.2479L34.5609 32.3512L34.5919 32.4443L34.6281 32.5373L34.6592 32.589L34.5712 32.62L34.478 32.6717L34.3849 32.7493L34.1934 32.9509ZM34.1934 32.9509V44.5769L34.3021 44.5717L34.4056 44.5407L34.5091 44.4993L34.5971 44.4373L34.6592 44.3856V32.6821V32.589" stroke="black" stroke-width="0.25" stroke-miterlimit="2"/>
<path d="M35.3371 31.3999L35.2646 31.4723L35.187 31.5498L35.1094 31.6222L35.0317 31.6997L34.9489 31.7721L34.8713 31.8496L34.7885 31.922L34.7109 31.9996L34.6332 32.0719L34.6539 32.1753L34.6902 32.2787L34.7367 32.3769L34.7937 32.47L34.8609 32.5579L34.9023 32.6095L35.1042 32.7956L35.2801 32.9145L36.2117 32.2735L36.1444 32.2684L36.0409 32.258L35.9322 32.227L35.8339 32.1857L35.7356 32.134L35.6476 32.0668L35.5699 31.9944L35.5027 31.9117L35.4457 31.8186L35.3992 31.7204L35.3629 31.617L35.3422 31.5085L35.3371 31.3999Z" fill="#D5D5D5" stroke="black" stroke-width="0.25" stroke-miterlimit="2"/>
<path d="M35.3372 31.3999L34.6333 32.0719" stroke="black" stroke-width="0.25" stroke-miterlimit="2"/>
<path d="M56.9901 25.0314H61.741V27.7815H59.7433" fill="#EBEBEB"/>
<path d="M56.9901 25.0314H61.741V27.7815H59.7433" stroke="black" stroke-width="0.25"/>
<path d="M58.5479 27.7815H47.9128C44.8749 27.7815 42.4063 25.3208 42.4063 22.2864V21.4386H45.1596V22.2864C45.1596 23.8062 46.3913 25.0365 47.9128 25.0365H55.7946" fill="#EBEBEB"/>
<path d="M58.5376 27.7815H47.9129C44.875 27.7815 42.4064 25.3208 42.4064 22.2864V21.4386H45.1597V22.2864C45.1597 23.8062 46.3914 25.0365 47.9129 25.0365H55.7947" stroke="black" stroke-width="0.26" stroke-miterlimit="3.86"/>
<path d="M52.7309 21.9709L61.741 30.9709M53.9316 21.9709L62.9417 30.9709" stroke="black" stroke-width="0.13" stroke-linecap="round" stroke-linejoin="round"/>
<path d="M40.9264 19.5361V20.8026C40.9264 21.1542 41.211 21.4385 41.563 21.4385H46.0085C46.3604 21.4385 46.645 21.1542 46.645 20.8026V19.5361" fill="#787878"/>
<path d="M40.9264 19.5361V20.8026C40.9264 21.1542 41.211 21.4385 41.563 21.4385H46.0085C46.3604 21.4385 46.645 21.1542 46.645 20.8026V19.5361H40.9316H40.9264Z" stroke="black" stroke-width="0.26" stroke-linecap="round" stroke-linejoin="round"/>
<path d="M54.1749 0.125122H54.2215L54.3302 0.130291L54.4389 0.14063L54.5476 0.156139L54.6511 0.176816L54.7597 0.202663L54.8632 0.23368L54.9668 0.275035L55.0703 0.31639L55.1634 0.362915L55.2617 0.414609L55.3549 0.471472L55.4429 0.533505L55.5309 0.595538L55.6137 0.66791L55.6965 0.745451L55.7689 0.817823L55.8465 0.900533L55.9086 0.988413L55.9759 1.07112L56.0328 1.16417L56.0898 1.25722L56.1415 1.35544L56.1829 1.45366L56.2243 1.55705L56.2606 1.66044L56.2864 1.76382L56.3123 1.87238L56.3278 1.98094L56.3434 2.08433L56.3537 2.19289L56.3589 2.30144V19.5104H46.438H17.8087H15.8421V2.30144V2.25492L15.8525 2.15153L15.8576 2.0378L15.8732 1.93441L15.899 1.82586L15.9249 1.72247L15.956 1.61391L15.9922 1.51052L16.0336 1.4123L16.0802 1.31409L16.1371 1.22104L16.1889 1.12799L16.251 1.04011L16.3182 0.947058L16.3855 0.869517L16.4631 0.786806L16.5408 0.709265L16.6184 0.636893L16.7064 0.569691L16.7944 0.502489L16.8823 0.445625L16.9755 0.388762L17.0738 0.342237L17.1773 0.295713L17.2756 0.259527L17.3791 0.223341L17.4878 0.192324L17.5913 0.171647L17.7 0.150969L17.8087 0.135461L17.9174 0.125122H18.026H46.438H54.1749Z" fill="#EBEBEB"/>
<path d="M46.438 19.5104H56.3589" stroke="black" stroke-width="0.25" stroke-miterlimit="2"/>
<path d="M17.8087 19.5104H46.438" stroke="black" stroke-width="0.25" stroke-miterlimit="2"/>
<path d="M15.842 19.5104H17.8086" stroke="black" stroke-width="0.25" stroke-miterlimit="2"/>
<path d="M56.3589 19.5104V2.30139" stroke="#1D1D1B" stroke-width="0.25" stroke-miterlimit="2"/>
<path d="M15.842 19.5104V2.30139" stroke="#1D1D1B" stroke-width="0.25" stroke-miterlimit="2"/>
<path d="M56.3589 2.30144L56.3537 2.19289L56.3434 2.08433L56.3278 1.98094L56.3123 1.87238L56.2864 1.76382L56.2606 1.66044L56.2243 1.55705L56.1829 1.45366L56.1415 1.35544L56.0898 1.25722L56.0328 1.16417L55.9759 1.07112L55.9086 0.988413L55.8465 0.900533L55.7689 0.817823L55.6965 0.745451L55.6137 0.66791L55.5309 0.595538L55.4429 0.533505L55.3549 0.471472L55.2617 0.414609L55.1634 0.362915L55.0703 0.31639L54.9668 0.275035L54.8632 0.23368L54.7597 0.202663L54.6511 0.176816L54.5476 0.156139L54.4389 0.14063L54.3302 0.130291L54.2215 0.125122H54.1749" stroke="#1D1D1B" stroke-width="0.25" stroke-miterlimit="2"/>
<path d="M46.4381 0.125122H54.175" stroke="#1D1D1B" stroke-width="0.25" stroke-miterlimit="2"/>
<path d="M46.438 0.125122H18.026" stroke="#1D1D1B" stroke-width="0.25" stroke-miterlimit="2"/>
<path d="M18.0261 0.125122H17.9174L17.8088 0.135461L17.7001 0.150969L17.5914 0.171647L17.4879 0.192324L17.3792 0.223341L17.2757 0.259527L17.1774 0.295713L17.0739 0.342237L16.9756 0.388762L16.8824 0.445625L16.7944 0.502489L16.7064 0.569691L16.6185 0.636893L16.5408 0.709265L16.4632 0.786806L16.3856 0.869517L16.3183 0.947058L16.251 1.04011L16.1889 1.12799L16.1372 1.22104L16.0802 1.31409L16.0337 1.4123L15.9923 1.51052L15.956 1.61391L15.925 1.72247L15.8991 1.82586L15.8732 1.93441L15.8577 2.0378L15.8525 2.15153L15.8422 2.25492V2.30144" stroke="#1D1D1B" stroke-width="0.25" stroke-miterlimit="2"/>
<path d="M72.0854 15.275V18.9989H71.6479L69.6135 16.075H69.5771V18.9989H69.125V15.275H69.5625L71.6042 18.2061H71.6406V15.275H72.0854Z" fill="black"/>
<path d="M68.125 35.359C68.125 34.2099 69.076 33.275 70.2368 33.275C71.3976 33.275 72.3351 34.2142 72.3351 35.3634C72.3351 36.5301 71.3886 37.4613 70.201 37.4474C69.0358 37.4386 68.1206 36.4855 68.125 35.359ZM68.3661 35.3546C68.3661 36.3699 69.1965 37.2075 70.2189 37.2119C71.2547 37.2119 72.094 36.3875 72.0985 35.359C72.0985 34.3613 71.2636 33.5201 70.2636 33.5157C69.2099 33.5157 68.3661 34.3262 68.3616 35.3546H68.3661Z" fill="black"/>
<path d="M70.1071 35.4973C70.1071 35.457 70.1071 35.4256 70.1071 35.3905C70.1071 34.9136 70.1071 34.433 70.1071 33.956C70.1071 33.9253 70.0982 33.8895 70.1071 33.8675C70.1339 33.8273 70.1696 33.7783 70.2143 33.7651C70.2768 33.7468 70.3214 33.7915 70.3393 33.8536C70.3482 33.8807 70.3393 33.9121 70.3393 33.9429C70.3393 34.4242 70.3393 34.9048 70.3393 35.3861C70.3393 35.4168 70.3393 35.4527 70.3393 35.4929C70.3795 35.4929 70.4107 35.4973 70.442 35.4973C70.7456 35.4973 71.0492 35.4973 71.3528 35.4973C71.384 35.4973 71.4287 35.4885 71.451 35.506C71.4867 35.5331 71.5358 35.577 71.5358 35.6128C71.5358 35.6531 71.4912 35.6977 71.4554 35.724C71.4331 35.7423 71.3929 35.7335 71.3572 35.7335C70.6161 35.7335 69.875 35.7335 69.1383 35.7335C69.1115 35.7335 69.0847 35.7335 69.058 35.7335C68.9955 35.7196 68.9463 35.675 68.9597 35.6128C68.9687 35.5682 69.0178 35.5331 69.058 35.5017C69.0803 35.4885 69.116 35.4973 69.1472 35.4929C69.4285 35.4929 69.7098 35.4929 69.9955 35.4929C70.0268 35.4929 70.058 35.4929 70.1027 35.4885L70.1071 35.4973Z" fill="black"/>
<path d="M70.2322 36.1966C70.0402 36.1966 69.8483 36.1966 69.6608 36.1966C69.5581 36.1966 69.4911 36.1293 69.5179 36.0452C69.5402 35.9735 69.5938 35.9515 69.6652 35.9515C69.8081 35.9515 69.9509 35.9515 70.0938 35.9515C70.317 35.9515 70.5358 35.9515 70.759 35.9515C70.7814 35.9515 70.8081 35.9515 70.8305 35.9515C70.9108 35.9603 70.9599 36.0137 70.9555 36.0803C70.951 36.1564 70.8974 36.1922 70.826 36.1966C70.7189 36.1966 70.6072 36.1966 70.5001 36.1966C70.4108 36.1966 70.326 36.1966 70.2367 36.1966H70.2322Z" fill="black"/>
<path d="M70.2233 36.6414C70.1741 36.6414 70.125 36.6414 70.0759 36.6414C70.009 36.6414 69.9688 36.6019 69.9599 36.5346C69.9509 36.4681 69.9866 36.4147 70.0536 36.4103C70.1697 36.4015 70.2858 36.4015 70.3974 36.4103C70.4643 36.4147 70.5045 36.4681 70.4956 36.539C70.4867 36.6063 70.4465 36.6414 70.3795 36.6414C70.3259 36.6414 70.2768 36.6414 70.2233 36.6414Z" fill="black"/>
<rect class="RELAY-IN-1" x="71.625" y="23.775" width="1" height="1" rx="0.5" fill="transparent"/>
<rect class="RELAY-IN-2" x="71.625" y="27.775" width="1" height="1" rx="0.5" fill="transparent"/>
</svg>
