<svg width="71" height="75" viewBox="0 0 71 75" fill="none" xmlns="http://www.w3.org/2000/svg">
<path d="M35.2803 50.3526V63.1624H25.9597V50.3526H35.2803Z" fill="#D5D5D5"/>
<path d="M50.5886 72.9583L50.2729 72.4104V59.3421L50.5886 58.7993" fill="#D5D5D5"/>
<path d="M50.5886 72.9583L50.2729 72.4104V59.3421L50.5886 58.7993" stroke="black" stroke-width="0.25" stroke-miterlimit="2"/>
<path d="M49.4035 72.4105H50.2729V59.3423H49.4035" fill="#D5D5D5"/>
<path d="M49.4035 72.4105H50.2729V59.3423H49.4035" stroke="black" stroke-width="0.25" stroke-miterlimit="2"/>
<path d="M48.8342 71.4335L49.4034 72.4105V62.7438V59.3423L48.8342 60.3245" fill="#D5D5D5"/>
<path d="M48.8342 71.4335L49.4034 72.4105V62.7438V59.3423L48.8342 60.3245" stroke="black" stroke-width="0.25" stroke-miterlimit="2"/>
<path d="M47.354 71.4333H48.8341V60.3242H47.354" fill="#D5D5D5"/>
<path d="M47.354 71.4333H48.8341V60.3242H47.354" stroke="black" stroke-width="0.25" stroke-miterlimit="2"/>
<path d="M40.1553 73.0876H39.8241V58.6702H40.1553" fill="#D5D5D5"/>
<path d="M40.1553 73.0876H39.8241V58.6702H40.1553" stroke="black" stroke-width="0.25" stroke-miterlimit="2"/>
<path d="M39.2393 59.673L39.8086 58.6908L39.8241 58.6702V59.549V69.3347V73.0876L39.8086 73.067L39.2393 72.0848" fill="#D5D5D5"/>
<path d="M39.2393 59.673L39.8086 58.6908L39.8241 58.6702V59.549V69.3347V73.0876L39.8086 73.067L39.2393 72.0848" stroke="black" stroke-width="0.25" stroke-miterlimit="2"/>
<path d="M40.1553 58.9028V74.044L40.2226 74.1525H40.7246H46.7847H47.2867L47.354 74.044V58.9028V57.7087L47.2867 57.6001H46.7847H40.7246H40.2226L40.1553 57.7087V58.9028Z" fill="#D5D5D5" stroke="black" stroke-width="0.25" stroke-miterlimit="2"/>
<path d="M38.6752 59.9985L38.7839 59.9882L38.8874 59.9623L38.9857 59.9158L39.0789 59.8589L39.1565 59.7866L39.2238 59.6987L39.2393 59.6729V60.4328V72.0846L39.1772 71.9967L39.1048 71.9192L39.0168 71.8571L38.9185 71.8055L38.815 71.7744L38.7063 71.7589H38.6752" fill="#D5D5D5"/>
<path d="M38.6752 59.9985L38.7839 59.9882L38.8874 59.9623L38.9857 59.9158L39.0789 59.8589L39.1565 59.7866L39.2238 59.6987L39.2393 59.6729V60.4328V72.0846L39.1772 71.9967L39.1048 71.9192L39.0168 71.8571L38.9185 71.8055L38.815 71.7744L38.7063 71.7589H38.6752" stroke="black" stroke-width="0.25" stroke-miterlimit="2"/>
<path d="M35.2802 60.6395L35.3734 60.5827L35.4614 60.5206L35.5545 60.4586L35.6425 60.3966L35.7305 60.3345L35.8236 60.2725L35.9116 60.2105L35.9996 60.1484L36.0876 60.0864L36.1755 60.0192L36.2118 59.9985H38.6752V60.7171V71.7589H35.2802" fill="#D5D5D5"/>
<path d="M35.2802 60.6395L35.3734 60.5827L35.4614 60.5206L35.5545 60.4586L35.6425 60.3966L35.7305 60.3345L35.8236 60.2725L35.9116 60.2105L35.9996 60.1484L36.0876 60.0864L36.1755 60.0192L36.2118 59.9985H38.6752V60.7171V71.7589H35.2802" stroke="black" stroke-width="0.25" stroke-miterlimit="2"/>
<path d="M26.2495 57.2537H25.6389L25.6647 57.264L25.7631 57.3106L25.8459 57.3779L25.908 57.471L25.9494 57.5694L25.9597 57.678H26.5342H35.3372V57.647L35.3579 57.5435L35.4045 57.4451L35.4718 57.3572L35.5598 57.2951L35.6581 57.2537" fill="#EBEBEB"/>
<path d="M26.2495 57.2537H25.6389L25.6647 57.264L25.7631 57.3106L25.8459 57.3779L25.908 57.471L25.9494 57.5694L25.9597 57.678H26.5342H35.3372V57.647L35.3579 57.5435L35.4045 57.4451L35.4718 57.3572L35.5598 57.2951L35.6581 57.2537" stroke="black" stroke-width="0.25" stroke-miterlimit="2"/>
<path d="M28.1074 59.8489L28.2471 59.9419L28.3765 60.0557L28.5162 60.2004L28.6404 60.3555L28.8371 60.6811L28.775 60.7432L28.6922 60.8156L28.6094 60.8828L28.5214 60.95L28.4334 61.0068L28.3403 61.0689L28.2471 61.1206H28.2368L28.154 61.1567L28.0763 61.1826L28.0039 61.2033L27.9418 61.2188L27.8797 61.0068L27.7969 60.8156L27.7193 60.6656L27.6364 60.5416" fill="#D5D5D5"/>
<path d="M28.1074 59.8489L28.2471 59.9419L28.3765 60.0557L28.5162 60.2004L28.6404 60.3555L28.8371 60.6811L28.775 60.7432L28.6922 60.8156L28.6094 60.8828L28.5214 60.95L28.4334 61.0068L28.3403 61.0689L28.2471 61.1206H28.2368L28.154 61.1567L28.0763 61.1826L28.0039 61.2033L27.9418 61.2188L27.8797 61.0068L27.7969 60.8156L27.7193 60.6656L27.6364 60.5416" stroke="black" stroke-width="0.25" stroke-miterlimit="2"/>
<path d="M25.0903 59.1251L25.1989 59.1199L25.3025 59.0992L25.406 59.063L25.5043 59.0217L25.5974 58.9648L25.6854 58.8924L25.7579 58.8149L25.8251 58.727L25.8769 58.634L25.9183 58.5306L25.9442 58.4272L25.9597 58.3186V58.2566L26.0425 58.3238L26.1253 58.3962L26.2133 58.4685L26.2961 58.5357L26.3789 58.6081L26.4617 58.6753L26.5342 58.7373L26.6221 58.8045L26.7049 58.8718L26.7929 58.939L26.8757 59.0062L26.9637 59.0734L27.0517 59.1354L27.119 59.1871L27.2069 59.2543L27.2949 59.3163L27.3829 59.3784L27.476 59.4404L27.564 59.5024L27.652 59.5645L27.7452 59.6265L27.8383 59.6833L27.9315 59.7402L28.0194 59.7971L28.1074 59.8488L28.0971 59.8746L28.0557 59.9728L28.0091 60.0711L27.9573 60.1693L27.9004 60.2572L27.8331 60.3399L27.771 60.4174L27.7038 60.4846L27.6365 60.5415" fill="#D5D5D5"/>
<path d="M25.0903 59.1251L25.1989 59.1199L25.3025 59.0992L25.406 59.063L25.5043 59.0217L25.5974 58.9648L25.6854 58.8924L25.7579 58.8149L25.8251 58.727L25.8769 58.634L25.9183 58.5306L25.9442 58.4272L25.9597 58.3186V58.2566L26.0425 58.3238L26.1253 58.3962L26.2133 58.4685L26.2961 58.5357L26.3789 58.6081L26.4617 58.6753L26.5342 58.7373L26.6221 58.8045L26.7049 58.8718L26.7929 58.939L26.8757 59.0062L26.9637 59.0734L27.0517 59.1354L27.119 59.1871L27.2069 59.2543L27.2949 59.3163L27.3829 59.3784L27.476 59.4404L27.564 59.5024L27.652 59.5645L27.7452 59.6265L27.8383 59.6833L27.9315 59.7402L28.0194 59.7971L28.1074 59.8488L28.0971 59.8746L28.0557 59.9728L28.0091 60.0711L27.9573 60.1693L27.9004 60.2572L27.8331 60.3399L27.771 60.4174L27.7038 60.4846L27.6365 60.5415" stroke="black" stroke-width="0.25" stroke-miterlimit="2"/>
<path d="M22.5803 59.3421L22.8028 59.125H25.0903L25.1834 59.187L25.2714 59.2439L25.3646 59.3008L25.4577 59.3628L25.5509 59.4197L25.644 59.4765L25.7372 59.5334L25.7682 59.5489L25.8614 59.6058L25.9597 59.6626L26.0529 59.7195L26.146 59.7712L26.2392 59.828L26.3323 59.8797L26.4307 59.9366L26.4617 59.9521L26.56 60.0038L26.6532 60.0555L26.7515 60.1072L26.8447 60.1589L26.943 60.2106L27.0413 60.2571L27.1397 60.3088L27.238 60.3553L27.3363 60.4018L27.4346 60.4484L27.533 60.4949L27.6313 60.5414H27.6365V72.6275H22.8028L22.5803 72.4104" fill="#D5D5D5"/>
<path d="M22.5803 59.3421L22.8028 59.125H25.0903L25.1834 59.187L25.2714 59.2439L25.3646 59.3008L25.4577 59.3628L25.5509 59.4197L25.644 59.4765L25.7372 59.5334L25.7682 59.5489L25.8614 59.6058L25.9597 59.6626L26.0529 59.7195L26.146 59.7712L26.2392 59.828L26.3323 59.8797L26.4307 59.9366L26.4617 59.9521L26.56 60.0038L26.6532 60.0555L26.7515 60.1072L26.8447 60.1589L26.943 60.2106L27.0413 60.2571L27.1397 60.3088L27.238 60.3553L27.3363 60.4018L27.4346 60.4484L27.533 60.4949L27.6313 60.5414H27.6365V72.6275H22.8028L22.5803 72.4104" stroke="black" stroke-width="0.25" stroke-miterlimit="2"/>
<path d="M22.5803 59.3423H21.9282V72.4105H22.5803" fill="#D5D5D5"/>
<path d="M22.5803 59.3423H21.9282V72.4105H22.5803" stroke="black" stroke-width="0.25" stroke-miterlimit="2"/>
<path d="M21.9282 72.4105L21.5349 73.0876H21.1416V58.6702H21.5349L21.9282 59.3422" fill="#D5D5D5"/>
<path d="M21.9282 72.4105L21.5349 73.0876H21.1416V58.6702H21.5349L21.9282 59.3422" stroke="black" stroke-width="0.25" stroke-miterlimit="2"/>
<path d="M11.024 59.3421L10.7135 58.7993H0.254361V72.9583H10.7135L11.024 72.4104V69.0089" fill="#EBEBEB"/>
<path d="M11.024 59.3421L10.7135 58.7993H0.254361V72.9583H10.7135L11.024 72.4104V69.0089" stroke="black" stroke-width="0.25" stroke-miterlimit="2"/>
<path d="M13.948 72.855V57.7087L14.0101 57.6001H14.5121H20.5774H21.0794L21.1415 57.7087V72.855V74.044L21.0794 74.1525H20.5774H14.5121H14.0101L13.948 74.044V72.855Z" fill="#D5D5D5" stroke="black" stroke-width="0.25" stroke-miterlimit="2"/>
<path d="M12.4627 71.4335L11.8986 72.4105H11.024V59.3423H11.8986L12.4627 60.3245" fill="#D5D5D5"/>
<path d="M12.4627 71.4335L11.8986 72.4105H11.024V59.3423H11.8986L12.4627 60.3245" stroke="black" stroke-width="0.25" stroke-miterlimit="2"/>
<path d="M23.5635 56.9487V54.1624H37.7333V56.9487" fill="#EBEBEB"/>
<path d="M23.5635 56.9487V54.1624H37.7333V56.9487" stroke="black" stroke-width="0.25" stroke-miterlimit="2"/>
<path d="M29.8049 57.2641L29.7578 57.2537" stroke="black" stroke-width="0.25" stroke-miterlimit="2"/>
<path d="M29.8044 57.2639V57.2744L29.8096 57.2796L29.8253 57.2953L29.8567 57.3005" fill="#EBEBEB"/>
<path d="M29.8044 57.2639V57.2744L29.8096 57.2796L29.8253 57.2953L29.8567 57.3005" stroke="black" stroke-width="0.25" stroke-miterlimit="2"/>
<path d="M29.867 57.3159L29.8565 57.3" stroke="black" stroke-width="0.25" stroke-miterlimit="2"/>
<path d="M29.7583 57.2537V57.264L29.779 57.2899L29.8256 57.3158H29.867" fill="#EBEBEB"/>
<path d="M29.7583 57.2537V57.264L29.779 57.2899L29.8256 57.3158H29.867" stroke="black" stroke-width="0.25" stroke-miterlimit="2"/>
<path d="M29.8204 57.1762L29.7733 57.1658" stroke="black" stroke-width="0.25" stroke-miterlimit="2"/>
<path d="M29.8048 57.264L29.8204 57.176" stroke="black" stroke-width="0.25" stroke-miterlimit="2"/>
<path d="M29.7583 57.2538L29.7739 57.1658" stroke="black" stroke-width="0.25" stroke-miterlimit="2"/>
<path d="M29.8204 57.1764V57.1609L29.8048 57.1299L29.7583 57.0108L29.7531 56.9487" fill="#EBEBEB"/>
<path d="M29.8204 57.1764V57.1609L29.8048 57.1299L29.7583 57.0108L29.7531 56.9487" stroke="black" stroke-width="0.25" stroke-miterlimit="2"/>
<path d="M29.7739 57.1661V57.1609V57.1557L29.7687 57.1506L29.7532 57.1299L29.6859 57.0471L29.6497 56.9487" fill="#EBEBEB"/>
<path d="M29.7739 57.1661V57.1609V57.1557L29.7687 57.1506L29.7532 57.1299L29.6859 57.0471L29.6497 56.9487" stroke="black" stroke-width="0.25" stroke-miterlimit="2"/>
<path d="M31.4609 56.9331V56.9437" stroke="black" stroke-width="0.25" stroke-miterlimit="2"/>
<path d="M31.4609 56.9437L31.4556 56.9331" stroke="black" stroke-width="0.25" stroke-miterlimit="2"/>
<path d="M31.4299 57.1658L31.3881 57.171" stroke="black" stroke-width="0.25" stroke-miterlimit="2"/>
<path d="M31.4609 56.9436L31.4506 57.0057L31.4144 57.104L31.3937 57.1454L31.3885 57.161V57.1713" fill="#EBEBEB"/>
<path d="M31.4609 56.9436L31.4506 57.0057L31.4144 57.104L31.3937 57.1454L31.3885 57.161V57.1713" stroke="black" stroke-width="0.25" stroke-miterlimit="2"/>
<path d="M31.5645 56.9487L31.5489 57.0005L31.492 57.0885L31.4402 57.1454L31.4299 57.1557V57.1609V57.1661" fill="#EBEBEB"/>
<path d="M31.5645 56.9487L31.5489 57.0005L31.492 57.0885L31.4402 57.1454L31.4299 57.1557V57.1609V57.1661" stroke="black" stroke-width="0.25" stroke-miterlimit="2"/>
<path d="M31.4454 57.2537L31.4036 57.2641" stroke="black" stroke-width="0.25" stroke-miterlimit="2"/>
<path d="M31.3885 57.1709L31.404 57.2641" stroke="black" stroke-width="0.25" stroke-miterlimit="2"/>
<path d="M31.4299 57.1658L31.4454 57.2538" stroke="black" stroke-width="0.25" stroke-miterlimit="2"/>
<path d="M31.3574 57.2949L31.3469 57.3107" stroke="black" stroke-width="0.25" stroke-miterlimit="2"/>
<path d="M31.3569 57.2953L31.3831 57.2901L31.3988 57.2744L31.404 57.2691V57.2639" fill="#EBEBEB"/>
<path d="M31.3569 57.2953L31.3831 57.2901L31.3988 57.2744L31.404 57.2691V57.2639" stroke="black" stroke-width="0.25" stroke-miterlimit="2"/>
<path d="M31.3471 57.3106L31.3989 57.3002L31.4351 57.2692L31.4454 57.2588V57.2537" fill="#EBEBEB"/>
<path d="M31.3471 57.3106L31.3989 57.3002L31.4351 57.2692L31.4454 57.2588V57.2537" stroke="black" stroke-width="0.25" stroke-miterlimit="2"/>
<path d="M29.8566 57.3003L30.4828 57.2693L31.021 57.2745L31.3574 57.2952" fill="#EBEBEB"/>
<path d="M29.8566 57.3003L30.4828 57.2693L31.021 57.2745L31.3574 57.2952" stroke="black" stroke-width="0.25" stroke-miterlimit="2"/>
<path d="M29.867 57.3159L30.4518 57.2745L30.752 57.2693L31.2022 57.2952L31.3471 57.3107" fill="#EBEBEB"/>
<path d="M29.867 57.3159L30.4518 57.2745L30.752 57.2693L31.2022 57.2952L31.3471 57.3107" stroke="black" stroke-width="0.25" stroke-miterlimit="2"/>
<path d="M29.7739 57.1658H25.9597" stroke="black" stroke-width="0.25" stroke-miterlimit="2"/>
<path d="M35.9944 57.1658H31.4299" stroke="black" stroke-width="0.25" stroke-miterlimit="2"/>
<path d="M29.7583 57.2537H26.2495" stroke="black" stroke-width="0.25" stroke-miterlimit="2"/>
<path d="M35.6581 57.2537H31.4455" stroke="black" stroke-width="0.25" stroke-miterlimit="2"/>
<path d="M25.3024 57.1658H25.9597" stroke="black" stroke-width="0.25" stroke-miterlimit="2"/>
<path d="M39.8085 59.5696V73.0669" stroke="black" stroke-width="0.25" stroke-miterlimit="2"/>
<path d="M39.8085 59.5697V58.6909" stroke="black" stroke-width="0.25" stroke-miterlimit="2"/>
<path d="M38.6752 71.7591V60.7173" stroke="black" stroke-width="0.25" stroke-miterlimit="2"/>
<path d="M28.3248 61.4309L28.3403 61.3377L28.3714 61.2911L28.4024 61.2653L28.3196 61.198L28.2471 61.1204L28.1178 61.2083L28.0557 61.2756L28.0143 61.3429" fill="#D5D5D5"/>
<path d="M28.3248 61.4309L28.3403 61.3377L28.3714 61.2911L28.4024 61.2653L28.3196 61.198L28.2471 61.1204L28.1178 61.2083L28.0557 61.2756L28.0143 61.3429" stroke="black" stroke-width="0.25" stroke-miterlimit="2"/>
<path d="M34.7783 60.3603L34.8818 60.3396L34.9025 60.3345" fill="#EBEBEB"/>
<path d="M34.7783 60.3603L34.8818 60.3396L34.9025 60.3345" stroke="black" stroke-width="0.25" stroke-miterlimit="2"/>
<path d="M34.6334 59.7971L34.6282 59.854L34.6592 60.0969L34.7058 60.2313L34.7783 60.3606" fill="#EBEBEB"/>
<path d="M34.6334 59.7971L34.6282 59.854L34.6592 60.0969L34.7058 60.2313L34.7783 60.3606" stroke="black" stroke-width="0.25" stroke-miterlimit="2"/>
<path d="M27.9418 61.2185L28.0142 61.3427" stroke="black" stroke-width="0.25" stroke-miterlimit="2"/>
<path d="M34.5454 59.7607L34.6334 59.797" stroke="black" stroke-width="0.25" stroke-miterlimit="2"/>
<path d="M29.9963 56.6282H31.285" stroke="black" stroke-width="0.25" stroke-miterlimit="2"/>
<path d="M31.285 56.6281V55.4805" stroke="black" stroke-width="0.25" stroke-miterlimit="2"/>
<path d="M31.285 55.4805H31.2797" stroke="black" stroke-width="0.25" stroke-miterlimit="2"/>
<path d="M29.9964 55.4805H31.2798" stroke="black" stroke-width="0.25" stroke-miterlimit="2"/>
<path d="M29.9964 56.6281V55.4805" stroke="black" stroke-width="0.25" stroke-miterlimit="2"/>
<path d="M29.9964 55.2271V55.3202" stroke="black" stroke-width="0.25" stroke-miterlimit="2"/>
<path d="M30.1102 55.2065L29.9964 55.3204" stroke="black" stroke-width="0.25" stroke-miterlimit="2"/>
<path d="M30.1102 55.2065H30.0171" stroke="black" stroke-width="0.25" stroke-miterlimit="2"/>
<path d="M30.017 55.2065L29.9961 55.2275" stroke="black" stroke-width="0.25" stroke-miterlimit="2"/>
<path d="M31.2847 55.4805H31.3057" stroke="black" stroke-width="0.25" stroke-miterlimit="2"/>
<path d="M31.3057 56.6282H31.2847" stroke="black" stroke-width="0.25" stroke-miterlimit="2"/>
<path d="M31.3057 56.6281V55.4805" stroke="black" stroke-width="0.25" stroke-miterlimit="2"/>
<path d="M31.3057 55.4548L31.2795 55.481" stroke="black" stroke-width="0.25" stroke-miterlimit="2"/>
<path d="M31.3057 55.4651L31.2847 55.4808" stroke="black" stroke-width="0.25" stroke-miterlimit="2"/>
<path d="M31.3057 55.4548V55.4655" stroke="black" stroke-width="0.25" stroke-miterlimit="2"/>
<path d="M31.2798 55.4807V55.3823" stroke="black" stroke-width="0.25" stroke-miterlimit="2"/>
<path d="M29.9964 55.3823H31.2798" stroke="black" stroke-width="0.25" stroke-miterlimit="2"/>
<path d="M29.9964 55.3823V55.4807" stroke="black" stroke-width="0.25" stroke-miterlimit="2"/>
<path d="M29.9963 56.7573H31.285" stroke="black" stroke-width="0.25" stroke-miterlimit="2"/>
<path d="M31.285 56.7576V56.6282" stroke="black" stroke-width="0.25" stroke-miterlimit="2"/>
<path d="M29.9964 56.6282V56.7576" stroke="black" stroke-width="0.25" stroke-miterlimit="2"/>
<path d="M31.1039 55.2065L31.2798 55.3825" stroke="black" stroke-width="0.25" stroke-miterlimit="2"/>
<path d="M30.1102 55.2065H31.1039" stroke="black" stroke-width="0.25" stroke-miterlimit="2"/>
<path d="M29.9964 55.3824V55.3203" stroke="black" stroke-width="0.25" stroke-miterlimit="2"/>
<path d="M31.3057 55.4651V55.4809" stroke="black" stroke-width="0.25" stroke-miterlimit="2"/>
<path d="M31.2847 56.7573H31.3057" stroke="black" stroke-width="0.25" stroke-miterlimit="2"/>
<path d="M31.3057 56.7576V56.6282" stroke="black" stroke-width="0.25" stroke-miterlimit="2"/>
<path d="M31.3057 55.377L31.2795 55.3822" stroke="black" stroke-width="0.25" stroke-miterlimit="2"/>
<path d="M31.3057 55.377V55.4552" stroke="black" stroke-width="0.25" stroke-miterlimit="2"/>
<path d="M31.3057 55.3152V55.3773" stroke="black" stroke-width="0.25" stroke-miterlimit="2"/>
<path d="M31.1918 55.2065L31.3057 55.3152" stroke="black" stroke-width="0.25" stroke-miterlimit="2"/>
<path d="M31.1918 55.2065H31.1039" stroke="black" stroke-width="0.25" stroke-miterlimit="2"/>
<path d="M29.9964 55.2271L29.9755 55.248" stroke="black" stroke-width="0.25" stroke-miterlimit="2"/>
<path d="M29.8877 57.0312L29.8566 57.3004" stroke="black" stroke-width="0.25" stroke-miterlimit="2"/>
<path d="M29.7687 56.9487L29.8359 57.0212L29.8877 57.0315" fill="#EBEBEB"/>
<path d="M29.7687 56.9487L29.8359 57.0212L29.8877 57.0315" stroke="black" stroke-width="0.25" stroke-miterlimit="2"/>
<path d="M31.3057 56.8867L31.285 56.7573" stroke="black" stroke-width="0.25" stroke-miterlimit="2"/>
<path d="M29.9964 57.0316V56.7573" stroke="black" stroke-width="0.25" stroke-miterlimit="2"/>
<path d="M29.9964 57.0312H29.8877" stroke="black" stroke-width="0.25" stroke-miterlimit="2"/>
<path d="M31.3574 57.2952L31.3212 57.0312" stroke="black" stroke-width="0.25" stroke-miterlimit="2"/>
<path d="M31.3054 57.0312H31.3212" stroke="black" stroke-width="0.25" stroke-miterlimit="2"/>
<path d="M31.3057 57.0316V56.8867" stroke="black" stroke-width="0.25" stroke-miterlimit="2"/>
<path d="M31.4609 56.9437L31.4556 56.9331" stroke="black" stroke-width="0.25" stroke-miterlimit="2"/>
<path d="M31.3055 55.3152L31.3264 55.3361" stroke="black" stroke-width="0.25" stroke-miterlimit="2"/>
<path d="M31.3057 56.7573V56.8867" stroke="black" stroke-width="0.25" stroke-miterlimit="2"/>
<path d="M31.3212 57.0315L31.4144 56.9953L31.4506 56.928" fill="#EBEBEB"/>
<path d="M31.3212 57.0315L31.4144 56.9953L31.4506 56.928" stroke="black" stroke-width="0.25" stroke-miterlimit="2"/>
<path d="M31.1919 55.2065H31.3264" stroke="black" stroke-width="0.25" stroke-miterlimit="2"/>
<path d="M30.017 55.2065H29.9752" stroke="black" stroke-width="0.25" stroke-miterlimit="2"/>
<path d="M32.8272 54.0742H28.4697" stroke="black" stroke-width="0.25" stroke-miterlimit="2"/>
<path d="M32.8272 53.8574H28.4697" stroke="black" stroke-width="0.25" stroke-miterlimit="2"/>
<path d="M32.8272 53.635H28.4697" stroke="black" stroke-width="0.25" stroke-miterlimit="2"/>
<path d="M22.8029 59.9521V59.125" stroke="black" stroke-width="0.25" stroke-miterlimit="2"/>
<path d="M22.8029 72.6275V59.9521" stroke="black" stroke-width="0.25" stroke-miterlimit="2"/>
<path d="M22.5803 60.1435V59.3423" stroke="black" stroke-width="0.25" stroke-miterlimit="2"/>
<path d="M22.5803 72.4103V60.1433" stroke="black" stroke-width="0.25" stroke-miterlimit="2"/>
<path d="M35.6581 57.2538L35.9944 57.1658" stroke="black" stroke-width="0.25" stroke-miterlimit="2"/>
<path d="M25.0333 56.9487L25.0903 57.0367L25.1731 57.1092L25.2714 57.1557L25.3025 57.1661H35.9945L36.098 57.1247L36.1808 57.0626L36.2532 56.9746L36.2687 56.9487" fill="#EBEBEB"/>
<path d="M25.0333 56.9487L25.0903 57.0367L25.1731 57.1092L25.2714 57.1557L25.3025 57.1661H35.9945L36.098 57.1247L36.1808 57.0626L36.2532 56.9746L36.2687 56.9487" stroke="black" stroke-width="0.25" stroke-miterlimit="2"/>
<path d="M25.6389 57.2538L25.3025 57.1658" stroke="black" stroke-width="0.25" stroke-miterlimit="2"/>
<path d="M34.8197 71.9502L34.8766 71.8986L34.9698 71.8365L35.0681 71.7952L35.1716 71.7693L35.2803 71.759V60.7171V60.6396H35.2026L35.0991 60.6189L34.9956 60.5827L34.9025 60.5362L34.8197 60.469" fill="#D5D5D5"/>
<path d="M34.8197 71.9502L34.8766 71.8986L34.9698 71.8365L35.0681 71.7952L35.1716 71.7693L35.2803 71.759V60.7171V60.6396H35.2026L35.0991 60.6189L34.9956 60.5827L34.9025 60.5362L34.8197 60.469" stroke="black" stroke-width="0.25" stroke-miterlimit="2"/>
<path d="M34.6592 72.1106L34.8196 71.9503V60.5414V60.4587L34.7886 60.3605L34.7731 60.3502L34.7575 60.345L34.6592 60.314" fill="#D5D5D5"/>
<path d="M34.6592 72.1106L34.8196 71.9503V60.5414V60.4587L34.7886 60.3605L34.7731 60.3502L34.7575 60.345L34.6592 60.314" stroke="black" stroke-width="0.25" stroke-miterlimit="2"/>
<path d="M28.0143 61.3428L28.1022 61.3893L28.2006 61.4203L28.3041 61.4307H28.3248V72.3019L28.2161 72.3174L28.1126 72.3588L28.0246 72.4208L28.0143 72.4312V61.3428Z" fill="#D5D5D5" stroke="black" stroke-width="0.25" stroke-miterlimit="2"/>
<path d="M28.0142 72.4312L27.9412 72.5042" stroke="black" stroke-width="0.25" stroke-miterlimit="2"/>
<path d="M25.9597 58.2565V57.6775" stroke="black" stroke-width="0.25" stroke-miterlimit="2"/>
<path d="M35.3372 59.1249V57.6775" stroke="black" stroke-width="0.25" stroke-miterlimit="2"/>
<path d="M39.8084 58.6911L39.8241 58.6702" stroke="black" stroke-width="0.25" stroke-miterlimit="2"/>
<path d="M39.8241 73.0878L39.8084 73.0669" stroke="black" stroke-width="0.25" stroke-miterlimit="2"/>
<path d="M39.4928 59.2334H39.8085" stroke="black" stroke-width="0.25" stroke-miterlimit="2"/>
<path d="M39.8083 59.2334H39.8241" stroke="black" stroke-width="0.25" stroke-miterlimit="2"/>
<path d="M39.8241 59.2334H40.1553" stroke="black" stroke-width="0.25" stroke-miterlimit="2"/>
<path d="M40.1553 72.5188H39.8241" stroke="black" stroke-width="0.25" stroke-miterlimit="2"/>
<path d="M39.8241 72.5188H39.8083" stroke="black" stroke-width="0.25" stroke-miterlimit="2"/>
<path d="M39.8085 72.5188H39.4928" stroke="black" stroke-width="0.25" stroke-miterlimit="2"/>
<path d="M22.5803 72.4105V69.009" stroke="black" stroke-width="0.25" stroke-miterlimit="2"/>
<path d="M21.9282 72.4105V69.009" stroke="black" stroke-width="0.25" stroke-miterlimit="2"/>
<path d="M22.5803 69.0091V59.3423" stroke="black" stroke-width="0.25" stroke-miterlimit="2"/>
<path d="M21.9282 69.0091V59.3423" stroke="black" stroke-width="0.25" stroke-miterlimit="2"/>
<path d="M21.5349 73.0875V69.3345" stroke="black" stroke-width="0.25" stroke-miterlimit="2"/>
<path d="M21.5349 69.3347V58.6702" stroke="black" stroke-width="0.25" stroke-miterlimit="2"/>
<path d="M21.4935 73.0875V59.5488" stroke="black" stroke-width="0.25" stroke-miterlimit="2"/>
<path d="M21.4935 59.549V58.6702" stroke="black" stroke-width="0.25" stroke-miterlimit="2"/>
<path d="M21.4935 72.5188H21.1416" stroke="black" stroke-width="0.25" stroke-miterlimit="2"/>
<path d="M21.4935 59.2334H21.1416" stroke="black" stroke-width="0.25" stroke-miterlimit="2"/>
<path d="M21.4935 59.2336L21.5349 58.6702" stroke="black" stroke-width="0.25" stroke-miterlimit="2"/>
<path d="M21.4935 72.5188L21.5349 73.0874" stroke="black" stroke-width="0.25" stroke-miterlimit="2"/>
<path d="M12.4627 71.4332V68.5383" stroke="black" stroke-width="0.25" stroke-miterlimit="2"/>
<path d="M12.4627 68.5384V60.3242" stroke="black" stroke-width="0.25" stroke-miterlimit="2"/>
<path d="M11.8986 72.4105V69.009" stroke="black" stroke-width="0.25" stroke-miterlimit="2"/>
<path d="M11.8986 69.0091V59.3423" stroke="black" stroke-width="0.25" stroke-miterlimit="2"/>
<path d="M11.024 69.0091V59.3423" stroke="black" stroke-width="0.25" stroke-miterlimit="2"/>
<path d="M10.7135 72.9585V69.2727" stroke="black" stroke-width="0.25" stroke-miterlimit="2"/>
<path d="M10.7135 69.2725V58.7993" stroke="black" stroke-width="0.25" stroke-miterlimit="2"/>
<path d="M0.254395 72.9585V69.2727" stroke="black" stroke-width="0.25" stroke-miterlimit="2"/>
<path d="M0.254395 69.2725V58.7993" stroke="black" stroke-width="0.25" stroke-miterlimit="2"/>
<path d="M0.125 72.8239V69.2104" stroke="black" stroke-width="0.25" stroke-miterlimit="2"/>
<path d="M0.125 69.2104V58.9285" stroke="black" stroke-width="0.25" stroke-miterlimit="2"/>
<path d="M13.948 60.3242H12.4627V71.4333H13.948" fill="#D5D5D5"/>
<path d="M13.948 60.3242H12.4627V71.4333H13.948" stroke="black" stroke-width="0.25" stroke-miterlimit="2"/>
<path d="M0.125014 72.824L0.254395 72.9585" stroke="black" stroke-width="0.25" stroke-miterlimit="2"/>
<path d="M0.125014 58.9287L0.254395 58.7993" stroke="black" stroke-width="0.25" stroke-miterlimit="2"/>
<path d="M48.8341 60.3242V63.2139" stroke="black" stroke-width="0.25" stroke-miterlimit="2"/>
<path d="M48.8341 63.2139V71.4332" stroke="black" stroke-width="0.25" stroke-miterlimit="2"/>
<path d="M50.2729 59.3423V62.7438" stroke="black" stroke-width="0.25" stroke-miterlimit="2"/>
<path d="M50.2729 62.7437V72.4104" stroke="black" stroke-width="0.25" stroke-miterlimit="2"/>
<path d="M50.5886 58.7993V62.4851" stroke="black" stroke-width="0.25" stroke-miterlimit="2"/>
<path d="M50.5886 62.4851V72.9583" stroke="black" stroke-width="0.25" stroke-miterlimit="2"/>
<path d="M61.0477 58.7993V62.4851" stroke="black" stroke-width="0.25" stroke-miterlimit="2"/>
<path d="M61.0477 62.4851V72.9583" stroke="black" stroke-width="0.25" stroke-miterlimit="2"/>
<path d="M50.5886 72.9583H61.0477V58.7993H50.5886" fill="#EBEBEB"/>
<path d="M50.5886 72.9583H61.0477V58.7993H50.5886" stroke="black" stroke-width="0.25" stroke-miterlimit="2"/>
<path d="M61.1771 58.9287L61.0477 58.7993" stroke="black" stroke-width="0.25" stroke-miterlimit="2"/>
<path d="M61.1771 72.824L61.0477 72.9585" stroke="black" stroke-width="0.25" stroke-miterlimit="2"/>
<path d="M46.7848 58.365H40.7246" stroke="black" stroke-width="0.25" stroke-miterlimit="2"/>
<path d="M40.7246 58.365L40.5021 59.2335L40.3416 60.0967L40.2537 60.8618L40.2226 61.6217L40.2381 62.3868L40.2951 63.0433L40.3934 63.705L40.5331 64.3667L40.7246 65.1111" stroke="black" stroke-width="0.25" stroke-miterlimit="2"/>
<path d="M46.7848 65.1111H40.7246" stroke="black" stroke-width="0.25" stroke-miterlimit="2"/>
<path d="M46.7847 65.1111L47.0021 64.2478L47.1625 63.3845L47.2505 62.6194L47.2867 61.8595L47.2712 61.0944L47.2091 60.4379L47.1108 59.7762L46.9762 59.1146L46.7847 58.365" stroke="black" stroke-width="0.25" stroke-miterlimit="2"/>
<path d="M46.7848 66.6414H40.7246" stroke="black" stroke-width="0.25" stroke-miterlimit="2"/>
<path d="M40.7246 66.6414L40.5021 67.5098L40.3416 68.3731L40.2537 69.1382L40.2226 69.8981L40.2381 70.6632L40.2951 71.3197L40.3934 71.9814L40.5331 72.643L40.7246 73.3926" stroke="black" stroke-width="0.25" stroke-miterlimit="2"/>
<path d="M46.7848 73.3926H40.7246" stroke="black" stroke-width="0.25" stroke-miterlimit="2"/>
<path d="M46.7847 73.3926L47.0021 72.5241L47.1625 71.6609L47.2505 70.8958L47.2867 70.1359L47.2712 69.3708L47.2091 68.7143L47.1108 68.0526L46.9762 67.3858L46.7847 66.6414" stroke="black" stroke-width="0.25" stroke-miterlimit="2"/>
<path d="M46.7848 57.6001V58.0659" stroke="black" stroke-width="0.25" stroke-miterlimit="2"/>
<path d="M40.7246 57.6001V58.0659" stroke="black" stroke-width="0.25" stroke-miterlimit="2"/>
<path d="M46.7848 65.1111V66.6412" stroke="black" stroke-width="0.25" stroke-miterlimit="2"/>
<path d="M46.7848 73.3926V74.1525" stroke="black" stroke-width="0.25" stroke-miterlimit="2"/>
<path d="M46.7848 58.0649V58.3651" stroke="black" stroke-width="0.25" stroke-miterlimit="2"/>
<path d="M40.7246 58.0649V58.3651" stroke="black" stroke-width="0.25" stroke-miterlimit="2"/>
<path d="M40.7246 65.1111V66.6412" stroke="black" stroke-width="0.25" stroke-miterlimit="2"/>
<path d="M40.7246 73.3926V74.1525" stroke="black" stroke-width="0.25" stroke-miterlimit="2"/>
<path d="M14.5121 65.1111H20.5775" stroke="black" stroke-width="0.25" stroke-miterlimit="2"/>
<path d="M20.5774 65.1111L20.7948 64.2478L20.9552 63.3845L21.0432 62.6194L21.0794 61.8595L21.0587 61.0944L21.0018 60.4379L20.9035 59.7762L20.7689 59.1146L20.5774 58.365" stroke="black" stroke-width="0.25" stroke-miterlimit="2"/>
<path d="M14.5121 58.365H20.5775" stroke="black" stroke-width="0.25" stroke-miterlimit="2"/>
<path d="M14.5121 58.365L14.2947 59.2335L14.1343 60.0967L14.0463 60.8618L14.0101 61.6217L14.0308 62.3868L14.0877 63.0433L14.186 63.705L14.3206 64.3667L14.5121 65.1111" stroke="black" stroke-width="0.25" stroke-miterlimit="2"/>
<path d="M14.5121 73.3926H20.5775" stroke="black" stroke-width="0.25" stroke-miterlimit="2"/>
<path d="M20.5774 73.3926L20.7948 72.5241L20.9552 71.6609L21.0432 70.8958L21.0794 70.1359L21.0587 69.3708L21.0018 68.7143L20.9035 68.0526L20.7689 67.3858L20.5774 66.6414" stroke="black" stroke-width="0.25" stroke-miterlimit="2"/>
<path d="M14.5121 66.6414H20.5775" stroke="black" stroke-width="0.25" stroke-miterlimit="2"/>
<path d="M14.5121 66.6414L14.2947 67.5098L14.1343 68.3731L14.0463 69.1382L14.0101 69.8981L14.0308 70.6632L14.0877 71.3197L14.186 71.9814L14.3206 72.643L14.5121 73.3926" stroke="black" stroke-width="0.25" stroke-miterlimit="2"/>
<path d="M14.5121 66.6412V65.1111" stroke="black" stroke-width="0.25" stroke-miterlimit="2"/>
<path d="M14.5121 58.3652V57.6001" stroke="black" stroke-width="0.25" stroke-miterlimit="2"/>
<path d="M14.5121 73.6927V73.3926" stroke="black" stroke-width="0.25" stroke-miterlimit="2"/>
<path d="M20.5775 66.6412V65.1111" stroke="black" stroke-width="0.25" stroke-miterlimit="2"/>
<path d="M20.5775 58.3652V57.6001" stroke="black" stroke-width="0.25" stroke-miterlimit="2"/>
<path d="M14.5121 74.153V73.6924" stroke="black" stroke-width="0.25" stroke-miterlimit="2"/>
<path d="M20.5775 73.6927V73.3926" stroke="black" stroke-width="0.25" stroke-miterlimit="2"/>
<path d="M20.5775 74.153V73.6924" stroke="black" stroke-width="0.25" stroke-miterlimit="2"/>
<path d="M25.6337 47.2354V47.4527" stroke="black" stroke-width="0.25" stroke-miterlimit="2"/>
<path d="M23.8896 47.2354V47.4527" stroke="black" stroke-width="0.25" stroke-miterlimit="2"/>
<path d="M23.8896 47.4526H25.6337" stroke="black" stroke-width="0.25" stroke-miterlimit="2"/>
<path d="M46.5674 47.2354H56.1623" stroke="black" stroke-width="0.25" stroke-miterlimit="2"/>
<path d="M46.5674 47.2354H23.8896" stroke="black" stroke-width="0.25" stroke-miterlimit="2"/>
<path d="M31.0883 47.2354L31.078 47.2457L31.0728 47.2871L31.0676 47.3492L31.0624 47.432V47.5303V47.6338V47.6701" fill="#EBEBEB"/>
<path d="M31.0883 47.2354L31.078 47.2457L31.0728 47.2871L31.0676 47.3492L31.0624 47.432V47.5303V47.6338V47.6701" stroke="black" stroke-width="0.25" stroke-miterlimit="2"/>
<path d="M31.523 47.6701L31.5075 47.5614L31.4713 47.4631L31.404 47.3751L31.3212 47.3026L31.228 47.2561L31.1193 47.2354H31.0883" fill="#EBEBEB"/>
<path d="M31.523 47.6701L31.5075 47.5614L31.4713 47.4631L31.404 47.3751L31.3212 47.3026L31.228 47.2561L31.1193 47.2354H31.0883" stroke="black" stroke-width="0.25" stroke-miterlimit="2"/>
<path d="M35.8857 47.2354L35.7771 47.2457L35.6736 47.2871L35.5856 47.3492L35.5183 47.432L35.4717 47.5303L35.4458 47.6338V47.6701" fill="#EBEBEB"/>
<path d="M35.8857 47.2354L35.7771 47.2457L35.6736 47.2871L35.5856 47.3492L35.5183 47.432L35.4717 47.5303L35.4458 47.6338V47.6701" stroke="black" stroke-width="0.25" stroke-miterlimit="2"/>
<path d="M35.8857 47.2354L35.8081 47.2457L35.7408 47.2871L35.6787 47.3492L35.627 47.432L35.5959 47.5303L35.5804 47.6338V47.6701" fill="#EBEBEB"/>
<path d="M35.8857 47.2354L35.8081 47.2457L35.7408 47.2871L35.6787 47.3492L35.627 47.432L35.5959 47.5303L35.5804 47.6338V47.6701" stroke="black" stroke-width="0.25" stroke-miterlimit="2"/>
<path d="M31.0625 49.1944V47.6694" stroke="black" stroke-width="0.25" stroke-miterlimit="2"/>
<path d="M31.0625 49.1946H35.5804" stroke="black" stroke-width="0.25" stroke-miterlimit="2"/>
<path d="M35.5804 49.1944V47.6694" stroke="black" stroke-width="0.25" stroke-miterlimit="2"/>
<path d="M31.523 47.6694V48.3259" stroke="black" stroke-width="0.25" stroke-miterlimit="2"/>
<path d="M35.4458 47.6694V48.3259" stroke="black" stroke-width="0.25" stroke-miterlimit="2"/>
<path d="M31.523 48.3259H35.4458" stroke="black" stroke-width="0.25" stroke-miterlimit="2"/>
<path d="M35.4458 48.5433V48.3259" stroke="black" stroke-width="0.25" stroke-miterlimit="2"/>
<path d="M31.523 48.3259H31.5177" stroke="black" stroke-width="0.25" stroke-miterlimit="2"/>
<path d="M31.0625 49.1944L31.3005 48.693L31.404 48.5069L31.492 48.3466L31.5127 48.3259H31.5179" fill="#EBEBEB"/>
<path d="M31.0625 49.1944L31.3005 48.693L31.404 48.5069L31.492 48.3466L31.5127 48.3259H31.5179" stroke="black" stroke-width="0.25" stroke-miterlimit="2"/>
<path d="M35.4459 48.5432L35.4511 48.6259L35.4718 48.7965L35.5183 48.993L35.5804 49.1946" fill="#EBEBEB"/>
<path d="M35.4459 48.5432L35.4511 48.6259L35.4718 48.7965L35.5183 48.993L35.5804 49.1946" stroke="black" stroke-width="0.25" stroke-miterlimit="2"/>
<path d="M31.0624 49.195L31.5644 48.9466L31.8439 48.8068L31.9474 48.7603H31.9526" fill="#EBEBEB"/>
<path d="M31.0624 49.195L31.5644 48.9466L31.8439 48.8068L31.9474 48.7603H31.9526" stroke="black" stroke-width="0.25" stroke-miterlimit="2"/>
<path d="M35.1923 48.8689L35.1043 48.7861L35.0111 48.7603" fill="#EBEBEB"/>
<path d="M35.1923 48.8689L35.1043 48.7861L35.0111 48.7603" stroke="black" stroke-width="0.25" stroke-miterlimit="2"/>
<path d="M35.1923 48.8689L35.2492 48.931L35.3993 49.0604L35.5804 49.1949" fill="#EBEBEB"/>
<path d="M35.1923 48.8689L35.2492 48.931L35.3993 49.0604L35.5804 49.1949" stroke="black" stroke-width="0.25" stroke-miterlimit="2"/>
<path d="M31.523 48.3259L31.5334 48.4294L31.5748 48.5329L31.6369 48.6209L31.7197 48.6882L31.818 48.7348L31.9215 48.7555L31.9578 48.7606" fill="#EBEBEB"/>
<path d="M31.523 48.3259L31.5334 48.4294L31.5748 48.5329L31.6369 48.6209L31.7197 48.6882L31.818 48.7348L31.9215 48.7555L31.9578 48.7606" stroke="black" stroke-width="0.25" stroke-miterlimit="2"/>
<path d="M35.0111 48.7606L35.1146 48.7451L35.2181 48.7089L35.3061 48.6416L35.3733 48.5588L35.4251 48.4657L35.4458 48.357V48.3259" fill="#EBEBEB"/>
<path d="M35.0111 48.7606L35.1146 48.7451L35.2181 48.7089L35.3061 48.6416L35.3733 48.5588L35.4251 48.4657L35.4458 48.357V48.3259" stroke="black" stroke-width="0.25" stroke-miterlimit="2"/>
<path d="M31.9578 48.7603H35.0112" stroke="black" stroke-width="0.25" stroke-miterlimit="2"/>
<path d="M35.1922 48.8693L35.2854 48.8227L35.3578 48.7554L35.4148 48.6778L35.4406 48.595L35.4458 48.5432" fill="#EBEBEB"/>
<path d="M35.1922 48.8693L35.2854 48.8227L35.3578 48.7554L35.4148 48.6778L35.4406 48.595L35.4458 48.5432" stroke="black" stroke-width="0.25" stroke-miterlimit="2"/>
<path d="M31.5179 48.3259L31.5334 48.4294L31.5696 48.5329L31.6317 48.6209L31.7145 48.6882L31.8128 48.7348L31.9163 48.7555L31.9526 48.7606" fill="#EBEBEB"/>
<path d="M31.5179 48.3259L31.5334 48.4294L31.5696 48.5329L31.6317 48.6209L31.7145 48.6882L31.8128 48.7348L31.9163 48.7555L31.9526 48.7606" stroke="black" stroke-width="0.25" stroke-miterlimit="2"/>
<path d="M31.9578 48.7603H31.9524" stroke="black" stroke-width="0.25" stroke-miterlimit="2"/>
<path d="M29.9757 55.2065H31.3264" stroke="black" stroke-width="0.25" stroke-miterlimit="2"/>
<path d="M36.869 54.1624H37.7333" stroke="black" stroke-width="0.25" stroke-miterlimit="2"/>
<path d="M23.5636 54.1624H36.8691" stroke="black" stroke-width="0.25" stroke-miterlimit="2"/>
<path d="M29.9756 55.2065V56.7315" stroke="black" stroke-width="0.25" stroke-miterlimit="2"/>
<path d="M36.869 56.9487H37.7333" stroke="black" stroke-width="0.25" stroke-miterlimit="2"/>
<path d="M31.3264 56.7315V55.2065" stroke="black" stroke-width="0.25" stroke-miterlimit="2"/>
<path d="M29.7531 56.949L29.8566 56.9232L29.9394 56.8507L29.9705 56.7524L29.9756 56.7317" fill="#EBEBEB"/>
<path d="M29.7531 56.949L29.8566 56.9232L29.9394 56.8507L29.9705 56.7524L29.9756 56.7317" stroke="black" stroke-width="0.25" stroke-miterlimit="2"/>
<path d="M23.5636 56.9487H29.7531" stroke="black" stroke-width="0.25" stroke-miterlimit="2"/>
<path d="M31.5438 56.9487H36.8691" stroke="black" stroke-width="0.25" stroke-miterlimit="2"/>
<path d="M31.3264 56.7317L31.3523 56.83L31.4196 56.9128L31.5231 56.949H31.5438" fill="#EBEBEB"/>
<path d="M31.3264 56.7317L31.3523 56.83L31.4196 56.9128L31.5231 56.949H31.5438" stroke="black" stroke-width="0.25" stroke-miterlimit="2"/>
<path d="M36.869 56.9487H36.9725" stroke="black" stroke-width="0.25" stroke-miterlimit="2"/>
<path d="M16.0388 47.4527V47.2354" stroke="black" stroke-width="0.25" stroke-miterlimit="2"/>
<path d="M17.7828 47.4527V47.2354" stroke="black" stroke-width="0.25" stroke-miterlimit="2"/>
<path d="M23.8896 47.4526H17.7828" stroke="black" stroke-width="0.25" stroke-miterlimit="2"/>
<path d="M16.0388 47.4526H17.7828" stroke="black" stroke-width="0.25" stroke-miterlimit="2"/>
<path d="M23.5636 47.67L23.5481 47.5613L23.5118 47.463L23.5067 47.4526" fill="#EBEBEB"/>
<path d="M23.5636 47.67L23.5481 47.5613L23.5118 47.463L23.5067 47.4526" stroke="black" stroke-width="0.25" stroke-miterlimit="2"/>
<path d="M38.1732 47.2354L38.0645 47.2457L37.9662 47.2871L37.8731 47.3492L37.8058 47.432L37.7592 47.5303L37.7385 47.6338L37.7333 47.6701" fill="#EBEBEB"/>
<path d="M38.1732 47.2354L38.0645 47.2457L37.9662 47.2871L37.8731 47.3492L37.8058 47.432L37.7592 47.5303L37.7385 47.6338L37.7333 47.6701" stroke="black" stroke-width="0.25" stroke-miterlimit="2"/>
<path d="M36.869 47.6694H37.7385V53.5522H36.869H23.5635V47.6694H31.0624H31.523H35.4458H35.5804H36.869Z" fill="#EBEBEB"/>
<path d="M35.5804 47.6694H35.4459" stroke="black" stroke-width="0.25" stroke-miterlimit="2"/>
<path d="M36.869 53.5522H37.7385" stroke="black" stroke-width="0.25" stroke-miterlimit="2"/>
<path d="M35.5805 47.6694H36.8691" stroke="black" stroke-width="0.25" stroke-miterlimit="2"/>
<path d="M31.0624 47.6694H31.523" stroke="black" stroke-width="0.25" stroke-miterlimit="2"/>
<path d="M23.5636 47.6694H31.0624" stroke="black" stroke-width="0.25" stroke-miterlimit="2"/>
<path d="M31.523 47.6694H35.4459" stroke="black" stroke-width="0.25" stroke-miterlimit="2"/>
<path d="M36.869 47.6694H37.7385" stroke="black" stroke-width="0.25" stroke-miterlimit="2"/>
<path d="M23.5636 53.5522H36.8691" stroke="black" stroke-width="0.25" stroke-miterlimit="2"/>
<path d="M23.5636 47.6694V53.5522" stroke="black" stroke-width="0.25" stroke-miterlimit="2"/>
<path d="M37.7385 47.6694V53.5522" stroke="black" stroke-width="0.25" stroke-miterlimit="2"/>
<path d="M37.1899 54.1622V53.5522H32.8272V54.1622" fill="#EBEBEB"/>
<path d="M37.1899 54.1622V53.5522H32.8272V54.1622" stroke="black" stroke-width="0.25" stroke-miterlimit="2"/>
<path d="M24.107 54.1622V53.5522H28.4697V54.1622" fill="#EBEBEB"/>
<path d="M24.107 54.1622V53.5522H28.4697V54.1622" stroke="black" stroke-width="0.25" stroke-miterlimit="2"/>
<path d="M23.8896 47.2148V47.4736" stroke="black" stroke-width="0.25" stroke-miterlimit="2"/>
<path d="M17.7828 47.2148V47.4736" stroke="black" stroke-width="0.25" stroke-miterlimit="2"/>
<path d="M27.6364 72.6273L27.7399 72.617L27.8434 72.5756L27.9314 72.5136L27.9418 72.5033V61.2185L27.6364 60.5413V72.6273Z" fill="#D5D5D5" stroke="black" stroke-width="0.25" stroke-miterlimit="2"/>
<path d="M28.8527 60.7224L28.8164 60.7844L28.6353 61.0481L28.4179 61.2704L28.2627 61.136L28.8527 60.7224Z" fill="#D5D5D5" stroke="black" stroke-width="0.25" stroke-miterlimit="2"/>
<path d="M28.8371 60.6812L29.3133 60.8879L29.5565 60.9706L29.8101 61.043L30.2034 61.1154L30.5967 61.1464L30.9952 61.1309L31.3885 61.0637L31.6473 61.0017L31.8957 60.9241L32.377 60.7225L32.822 60.4899L33.2412 60.2366L33.6397 59.9678L33.676 60.066L33.7225 60.1642L33.7795 60.2573L33.8416 60.3451L33.9088 60.4279L33.9761 60.5054L34.0537 60.5726L34.1314 60.6346L34.1935 60.676V72.302H28.3248V61.4307L28.8371 60.6812Z" fill="#D5D5D5" stroke="black" stroke-width="0.25" stroke-miterlimit="2"/>
<path d="M34.1934 60.6759L33.6397 59.9677L33.8622 59.8333L34.0899 59.7454L34.3124 59.7144L34.3797 59.7195L34.447 59.7299L34.5453 59.7609L34.5402 59.8694L34.5453 59.9728L34.5609 60.0762L34.5919 60.1693L34.6281 60.2623L34.6592 60.314L34.5712 60.345L34.478 60.3967L34.3849 60.4743L34.1934 60.6759V72.3019L34.3021 72.2967L34.4056 72.2657L34.5091 72.2243L34.5971 72.1623L34.6592 72.1106V60.4071V60.314" fill="#D5D5D5"/>
<path d="M34.1934 60.6759L33.6397 59.9677L33.8622 59.8333L34.0899 59.7454L34.3124 59.7144L34.3797 59.7195L34.447 59.7299L34.5453 59.7609L34.5402 59.8694L34.5453 59.9728L34.5609 60.0762L34.5919 60.1693L34.6281 60.2623L34.6592 60.314L34.5712 60.345L34.478 60.3967L34.3849 60.4743L34.1934 60.6759ZM34.1934 60.6759V72.3019L34.3021 72.2967L34.4056 72.2657L34.5091 72.2243L34.5971 72.1623L34.6592 72.1106V60.4071V60.314" stroke="black" stroke-width="0.25" stroke-miterlimit="2"/>
<path d="M35.3372 59.125L35.2647 59.1974L35.1871 59.2749L35.1095 59.3473L35.0318 59.4248L34.949 59.4972L34.8714 59.5747L34.7886 59.6471L34.711 59.7247L34.6334 59.797L34.6541 59.9004L34.6903 60.0038L34.7369 60.102L34.7938 60.1951L34.8611 60.2829L34.9025 60.3346L35.1043 60.5207L35.2803 60.6396L36.2118 59.9986L36.1445 59.9935L36.041 59.9831L35.9323 59.9521L35.834 59.9108L35.7357 59.8591L35.6477 59.7919L35.5701 59.7195L35.5028 59.6368L35.4459 59.5437L35.3993 59.4455L35.3631 59.3421L35.3424 59.2336L35.3372 59.125Z" fill="#D5D5D5" stroke="black" stroke-width="0.25" stroke-miterlimit="2"/>
<path d="M35.3372 59.125L34.6333 59.797" stroke="black" stroke-width="0.25" stroke-miterlimit="2"/>
<path d="M56.9903 52.7563H61.7411V55.5065H59.7435" fill="#EBEBEB"/>
<path d="M61.7505 53.0665C62.6717 53.0665 63.5152 52.5703 63.9655 51.769L66.3254 47.5714C66.9205 46.5531 68.0177 45.9172 69.1976 45.9172H70.036V46.6358H69.1925C68.2661 46.6358 67.4122 47.1269 66.9464 47.923L64.9643 51.4485M64.5813 52.8546L68.4783 50.8489C68.8405 50.6628 69.239 50.5697 69.6427 50.5697H70.036V51.2883H69.8135C69.4098 51.2883 69.0113 51.3865 68.6491 51.5674L63.8568 54.0332C63.3859 54.2762 62.8683 54.4261 62.3405 54.4829H61.6522M64.5813 53.6765L68.4783 52.8081C68.8561 52.684 69.239 52.5289 69.6427 52.5289H70.036V53.2475H69.8135C69.503 53.2423 69.208 53.3302 68.6491 53.5266L63.8568 54.6846C63.3859 54.9275 62.8683 55.0774 62.3405 55.1343H61.6522M59.6545 55.5065H61.6522V52.7564H56.8806M61.6522 53.0665H62.2473C62.9253 53.0665 63.5825 52.8081 64.0742 52.3428L67.733 48.9C68.1833 48.4502 68.7474 48.2435 69.3891 48.2435H70.036V48.962H69.3891C68.9389 48.962 68.5093 49.1378 68.1885 49.4583L64.5762 52.8546C63.95 53.4439 63.1064 53.7851 62.2421 53.7851H61.647V53.0665H61.6522Z" stroke="black" stroke-width="0.26" stroke-miterlimit="3.86"/>
<path d="M58.548 55.5064H47.913C44.8751 55.5064 42.4065 53.0458 42.4065 50.0114V49.1636H45.1597V50.0114C45.1597 51.5312 46.3914 52.7615 47.913 52.7615H55.7948" fill="#EBEBEB"/>
<path d="M58.5377 55.5064H47.9129C44.8751 55.5064 42.4065 53.0458 42.4065 50.0114V49.1636H45.1597V50.0114C45.1597 51.5312 46.3914 52.7615 47.9129 52.7615H55.7948" stroke="black" stroke-width="0.26" stroke-miterlimit="3.86"/>
<path d="M52.7311 49.696L61.7411 58.696M53.9317 49.696L62.9418 58.696" stroke="black" stroke-width="0.13" stroke-linecap="round" stroke-linejoin="round"/>
<path d="M40.9264 47.261V48.5275C40.9264 48.879 41.211 49.1633 41.563 49.1633H46.0085C46.3604 49.1633 46.645 48.879 46.645 48.5275V47.261" fill="#787878"/>
<path d="M40.9264 47.261V48.5275C40.9264 48.879 41.211 49.1633 41.563 49.1633H46.0085C46.3604 49.1633 46.645 48.879 46.645 48.5275V47.261H40.9316H40.9264Z" stroke="black" stroke-width="0.26" stroke-linecap="round" stroke-linejoin="round"/>
<path d="M54.175 27.8501H54.2216L54.3303 27.8553L54.4389 27.8656L54.5476 27.8811L54.6511 27.9018L54.7598 27.9276L54.8633 27.9587L54.9668 28L55.0703 28.0414L55.1635 28.0879L55.2618 28.1396L55.355 28.1964L55.4429 28.2585L55.5309 28.3205L55.6137 28.3929L55.6965 28.4704L55.769 28.5428L55.8466 28.6255L55.9087 28.7134L55.976 28.7961L56.0329 28.8891L56.0898 28.9822L56.1416 29.0804L56.183 29.1786L56.2244 29.282L56.2606 29.3854L56.2865 29.4888L56.3124 29.5974L56.3279 29.7059L56.3434 29.8093L56.3538 29.9179L56.3589 30.0264V47.2354H46.4381H17.8088H15.8422V30.0264V29.9799L15.8525 29.8765L15.8577 29.7628L15.8732 29.6594L15.8991 29.5508L15.925 29.4474L15.956 29.3389L15.9923 29.2355L16.0337 29.1373L16.0802 29.0391L16.1372 28.946L16.1889 28.853L16.251 28.7651L16.3183 28.672L16.3856 28.5945L16.4632 28.5118L16.5408 28.4342L16.6185 28.3619L16.7064 28.2947L16.7944 28.2275L16.8824 28.1706L16.9755 28.1137L17.0739 28.0672L17.1774 28.0207L17.2757 27.9845L17.3792 27.9483L17.4879 27.9173L17.5914 27.8966L17.7001 27.8759L17.8088 27.8604L17.9174 27.8501H18.0261H46.4381H54.175Z" fill="#EBEBEB"/>
<path d="M46.4381 47.2354H56.3589" stroke="black" stroke-width="0.25" stroke-miterlimit="2"/>
<path d="M17.8087 47.2354H46.438" stroke="black" stroke-width="0.25" stroke-miterlimit="2"/>
<path d="M15.8422 47.2354H17.8088" stroke="black" stroke-width="0.25" stroke-miterlimit="2"/>
<path d="M56.3589 47.2353V30.0264" stroke="#1D1D1B" stroke-width="0.25" stroke-miterlimit="2"/>
<path d="M15.8422 47.2353V30.0264" stroke="#1D1D1B" stroke-width="0.25" stroke-miterlimit="2"/>
<path d="M56.3589 30.0264L56.3538 29.9179L56.3434 29.8093L56.3279 29.7059L56.3124 29.5974L56.2865 29.4888L56.2606 29.3854L56.2244 29.282L56.183 29.1786L56.1416 29.0804L56.0898 28.9822L56.0329 28.8891L55.976 28.7961L55.9087 28.7134L55.8466 28.6255L55.769 28.5428L55.6965 28.4704L55.6137 28.3929L55.5309 28.3205L55.4429 28.2585L55.355 28.1964L55.2618 28.1396L55.1635 28.0879L55.0703 28.0414L54.9668 28L54.8633 27.9587L54.7598 27.9276L54.6511 27.9018L54.5476 27.8811L54.4389 27.8656L54.3303 27.8553L54.2216 27.8501H54.175" stroke="#1D1D1B" stroke-width="0.25" stroke-miterlimit="2"/>
<path d="M46.438 27.8501H54.175" stroke="#1D1D1B" stroke-width="0.25" stroke-miterlimit="2"/>
<path d="M46.438 27.8501H18.0261" stroke="#1D1D1B" stroke-width="0.25" stroke-miterlimit="2"/>
<path d="M18.0261 27.8501H17.9174L17.8088 27.8604L17.7001 27.8759L17.5914 27.8966L17.4879 27.9173L17.3792 27.9483L17.2757 27.9845L17.1774 28.0207L17.0739 28.0672L16.9756 28.1137L16.8824 28.1706L16.7944 28.2275L16.7064 28.2947L16.6185 28.3619L16.5408 28.4342L16.4632 28.5118L16.3856 28.5945L16.3183 28.672L16.251 28.7651L16.1889 28.853L16.1372 28.946L16.0802 29.0391L16.0337 29.1373L15.9923 29.2355L15.956 29.3389L15.925 29.4474L15.8991 29.5508L15.8732 29.6594L15.8577 29.7628L15.8525 29.8765L15.8422 29.9799V30.0264" stroke="#1D1D1B" stroke-width="0.25" stroke-miterlimit="2"/>
<rect x="69.125" y="46" width="0.9" height="0.6" fill="black"/>
<rect class="RELAY-IN-2" x="69.125" y="48.3" width="0.9" height="0.6" fill="black"/>
<rect class="RELAY-IN-1" x="69.125" y="50.7" width="0.9" height="0.6" fill="black"/>
<rect x="69.125" y="52.6001" width="0.9" height="0.6" fill="black"/>
</svg>
