<svg width="81" height="201" viewBox="0 0 81 201" fill="none" xmlns="http://www.w3.org/2000/svg">
<path d="M79.869 0.25H0.125V200.25H79.869V0.25Z" fill="white"/>
<path d="M0.390808 0.25V200.25" stroke="#212830" stroke-width="0.5" stroke-miterlimit="10" stroke-linecap="square"/>
<path d="M0.394897 200.25H80.0746" stroke="#212830" stroke-width="0.5" stroke-miterlimit="10" stroke-linecap="square"/>
<path d="M80.125 200.25V0.25" stroke="#212830" stroke-width="0.5" stroke-miterlimit="10" stroke-linecap="square"/>
<path d="M79.869 0.25H49.9943" stroke="#212830" stroke-width="0.5" stroke-miterlimit="10" stroke-linecap="square"/>
<path d="M32.0604 0.25H0.617249" stroke="#212830" stroke-width="0.5" stroke-miterlimit="10" stroke-linecap="square"/>
<path d="M0.125 172.214H80.103" stroke="#212830" stroke-width="0.25" stroke-miterlimit="10" stroke-linecap="square"/>
<path d="M0.334076 155.722H80.1179" stroke="#212830" stroke-width="0.25" stroke-miterlimit="10" stroke-linecap="square"/>
<path d="M0.305359 48.0811H79.869" stroke="#212830" stroke-width="0.25" stroke-miterlimit="10" stroke-linecap="square"/>
<path d="M2.58624 31.5283H78.5872" stroke="#212830" stroke-width="0.25" stroke-miterlimit="10" stroke-linecap="square"/>
<path d="M78.599 4.25V31.4984" stroke="#212830" stroke-width="0.25" stroke-miterlimit="10" stroke-linecap="square"/>
<path d="M2.38208 4.03723V31.5283" stroke="#212830" stroke-width="0.25" stroke-miterlimit="10" stroke-linecap="square"/>
<path d="M1.69034 172.214V195.543" stroke="#212830" stroke-width="0.25" stroke-miterlimit="10" stroke-linecap="square"/>
<path d="M1.69034 195.543H78.909" stroke="#212830" stroke-width="0.25" stroke-miterlimit="10" stroke-linecap="square"/>
<path d="M78.909 195.543V172.214" stroke="#212830" stroke-width="0.25" stroke-miterlimit="10" stroke-linecap="square"/>
<path d="M38.6356 191.26V178.942H3.40231V191.26" fill="#AFD5A9"/>
<path d="M38.6356 191.26V178.942H3.40231V191.26" stroke="#212830" stroke-width="0.25" stroke-miterlimit="10"/>
<path d="M38.6356 174.392H3.40231V178.954H38.6356V174.392Z" fill="#5EB34A" stroke="#1D1D1B" stroke-width="0.25" stroke-miterlimit="10"/>
<path d="M38.6356 191.26H3.40231V193.232H38.6356V191.26Z" fill="#5EB34A" stroke="#1D1D1B" stroke-width="0.25" stroke-miterlimit="10"/>
<path class="1-WIRE-V+ IN" d="M22.8925 182.983L23.4193 182.56L23.9461 182.294L24.5806 182.076L25.2151 182.027L25.8496 182.076L26.4841 182.294L27.0109 182.56L27.5376 182.983L27.9566 183.516L28.22 184.048L28.4355 184.689L28.4834 185.331L28.4355 185.972L28.22 186.613L27.9566 187.146L27.5376 187.678L27.0109 188.114L26.4841 188.38L25.8496 188.586L25.2151 188.646L24.5806 188.586L23.9461 188.38L23.4193 188.114L22.8925 187.678L22.4615 187.146L22.1982 186.613L21.9946 185.972L21.9348 185.331L21.9946 184.689L22.1982 184.048L22.4615 183.516L22.8925 182.983ZM27.5376 187.678L22.8925 182.983" stroke="#212830" stroke-width="0.25" stroke-miterlimit="10" stroke-linecap="square"/>
<path d="M31.4165 182.983L31.9553 182.56L32.482 182.294L33.1166 182.076L33.7511 182.027L34.3856 182.076L35.0081 182.294L35.5468 182.56L36.0736 182.983L36.4926 183.516L36.756 184.048L36.9715 184.689L37.0194 185.331L36.9715 185.972L36.756 186.613L36.4926 187.146L36.0736 187.678L35.5468 188.114L35.0081 188.38L34.3856 188.586L33.7511 188.646L33.1166 188.586L32.482 188.38L31.9553 188.114L31.4165 187.678L30.9975 187.146L30.7341 186.613L30.5187 185.972L30.4708 185.331L30.5187 184.689L30.7341 184.048L30.9975 183.516L31.4165 182.983ZM31.4165 182.983L36.0616 187.678" stroke="#212830" stroke-width="0.25" stroke-miterlimit="10" stroke-linecap="square"/>
<path class="1-WIRE-DAT IN" d="M14.3566 182.983L14.8833 182.56L15.4101 182.294L16.0446 182.076L16.6791 182.027L17.3136 182.076L17.9482 182.294L18.4749 182.56L19.0017 182.983L19.4207 183.516L19.6841 184.048L19.8996 184.689L19.9594 185.331L19.8996 185.972L19.6841 186.613L19.4207 187.146L19.0017 187.678L18.4749 188.114L17.9482 188.38L17.3136 188.586L16.6791 188.646L16.0446 188.586L15.4101 188.38L14.8833 188.114L14.3566 187.678L13.9376 187.146L13.6622 186.613L13.4587 185.972L13.3988 185.331L13.4587 184.689L13.6622 184.048L13.9376 183.516L14.3566 182.983ZM19.0017 187.678L14.3566 182.983" stroke="#212830" stroke-width="0.25" stroke-miterlimit="10" stroke-linecap="square"/>
<path class="1-WIRE-GND IN" d="M5.58119 182.983L6.11992 182.56L6.64668 182.294L7.28119 182.076L7.9157 182.027L8.55021 182.076L9.17275 182.294L9.71149 182.56L10.2382 182.983L10.6573 183.516L10.9206 184.048L11.1361 184.689L11.184 185.331L11.1361 185.972L10.9206 186.613L10.6573 187.146L10.2382 187.678L9.71149 188.114L9.17275 188.38L8.55021 188.586L7.9157 188.646L7.28119 188.586L6.64668 188.38L6.11992 188.114L5.58119 187.678L5.16217 187.146L4.89879 186.613L4.68329 185.972L4.63541 185.331L4.68329 184.689L4.89879 184.048L5.16217 183.516L5.58119 182.983ZM5.58119 182.983L10.2263 187.678" stroke="#212830" stroke-width="0.25" stroke-miterlimit="10" stroke-linecap="square"/>
<path d="M6.15585 174.392V178.131H9.59178V174.392" fill="#0C9B47"/>
<path d="M6.15585 174.392V178.131H9.59178V174.392" stroke="#212830" stroke-width="0.25" stroke-miterlimit="10"/>
<path d="M15.027 174.392V178.131H18.463V174.392" fill="#0C9B47"/>
<path d="M15.027 174.392V178.131H18.463V174.392" stroke="#212830" stroke-width="0.25" stroke-miterlimit="10"/>
<path d="M23.7426 174.392V178.131H27.1785V174.392" fill="#0C9B47"/>
<path d="M23.7426 174.392V178.131H27.1785V174.392" stroke="#212830" stroke-width="0.25" stroke-miterlimit="10"/>
<path d="M32.4581 174.392V178.131H35.894V174.392" fill="#0C9B47"/>
<path d="M32.4581 174.392V178.131H35.894V174.392" stroke="#212830" stroke-width="0.25" stroke-miterlimit="10"/>
<path d="M77.197 191.405V179.087H41.9637V191.405" fill="#AFD5A9"/>
<path d="M77.197 191.405V179.087H41.9637V191.405" stroke="#212830" stroke-width="0.25" stroke-miterlimit="10"/>
<path d="M77.197 174.526H41.9637V179.087H77.197V174.526Z" fill="#5EB34A" stroke="#1D1D1B" stroke-width="0.25" stroke-miterlimit="10"/>
<path d="M77.197 191.405H41.9637V193.377H77.197V191.405Z" fill="#5EB34A" stroke="#1D1D1B" stroke-width="0.25" stroke-miterlimit="10"/>
<path class="1-WIRE-V+ OUT" d="M61.442 183.129L61.9688 182.693L62.4955 182.427L63.1301 182.221L63.7646 182.161L64.3991 182.221L65.0336 182.427L65.5604 182.693L66.0871 183.129L66.5181 183.661L66.7815 184.193L66.985 184.835L67.0449 185.476L66.985 186.117L66.7815 186.758L66.5181 187.291L66.0871 187.823L65.5604 188.247L65.0336 188.513L64.3991 188.731L63.7646 188.779L63.1301 188.731L62.4955 188.513L61.9688 188.247L61.442 187.823L61.023 187.291L60.7596 186.758L60.5441 186.117L60.4962 185.476L60.5441 184.835L60.7596 184.193L61.023 183.661L61.442 183.129ZM66.0871 187.823L61.442 183.129" stroke="#212830" stroke-width="0.25" stroke-miterlimit="10" stroke-linecap="square"/>
<path d="M69.978 183.129L70.5047 182.693L71.0315 182.427L71.666 182.221L72.3005 182.161L72.935 182.221L73.5695 182.427L74.0963 182.693L74.6231 183.129L75.0421 183.661L75.3055 184.193L75.521 184.835L75.5808 185.476L75.521 186.117L75.3055 186.758L75.0421 187.291L74.6231 187.823L74.0963 188.247L73.5695 188.513L72.935 188.731L72.3005 188.779L71.666 188.731L71.0315 188.513L70.5047 188.247L69.978 187.823L69.559 187.291L69.2956 186.758L69.0801 186.117L69.0202 185.476L69.0801 184.835L69.2956 184.193L69.559 183.661L69.978 183.129ZM74.6231 187.823L69.978 183.129" stroke="#212830" stroke-width="0.25" stroke-miterlimit="10" stroke-linecap="square"/>
<path class="1-WIRE-DAT OUT" d="M52.9061 183.129L53.4329 182.693L53.9716 182.427L54.5941 182.221L55.2286 182.161L55.8631 182.221L56.4977 182.427L57.0244 182.693L57.5632 183.129L57.9822 183.661L58.2456 184.193L58.461 184.835L58.5089 185.476L58.461 186.117L58.2456 186.758L57.9822 187.291L57.5632 187.823L57.0244 188.247L56.4977 188.513L55.8631 188.731L55.2286 188.779L54.5941 188.731L53.9716 188.513L53.4329 188.247L52.9061 187.823L52.4871 187.291L52.2237 186.758L52.0082 186.117L51.9603 185.476L52.0082 184.835L52.2237 184.193L52.4871 183.661L52.9061 183.129ZM52.9061 183.129L57.5511 187.823" stroke="#212830" stroke-width="0.25" stroke-miterlimit="10" stroke-linecap="square"/>
<path class="1-WIRE-GND OUT" d="M44.1427 183.129L44.6694 182.693L45.1962 182.427L45.8307 182.221L46.4652 182.161L47.0997 182.221L47.7342 182.427L48.261 182.693L48.7877 183.129L49.2068 183.661L49.4701 184.193L49.6856 184.835L49.7455 185.476L49.6856 186.117L49.4701 186.758L49.2068 187.291L48.7877 187.823L48.261 188.247L47.7342 188.513L47.0997 188.731L46.4652 188.779L45.8307 188.731L45.1962 188.513L44.6694 188.247L44.1427 187.823L43.7236 187.291L43.4603 186.758L43.2448 186.117L43.1849 185.476L43.2448 184.835L43.4603 184.193L43.7236 183.661L44.1427 183.129ZM48.7877 187.823L44.1427 183.129" stroke="#212830" stroke-width="0.25" stroke-miterlimit="10" stroke-linecap="square"/>
<path d="M44.7053 174.526V178.264H48.1413V174.526" fill="#0C9B47"/>
<path d="M44.7053 174.526V178.264H48.1413V174.526" stroke="#212830" stroke-width="0.25" stroke-miterlimit="10"/>
<path d="M53.5885 174.526V178.264H57.0124V174.526" fill="#0C9B47"/>
<path d="M53.5885 174.526V178.264H57.0124V174.526" stroke="#212830" stroke-width="0.25" stroke-miterlimit="10"/>
<path d="M62.292 174.526V178.264H65.728V174.526" fill="#0C9B47"/>
<path d="M62.292 174.526V178.264H65.728V174.526" stroke="#212830" stroke-width="0.25" stroke-miterlimit="10"/>
<path d="M71.0076 174.526V178.264H74.4435V174.526" fill="#0C9B47"/>
<path d="M71.0076 174.526V178.264H74.4435V174.526" stroke="#212830" stroke-width="0.25" stroke-miterlimit="10"/>
<path d="M48.6754 24.2683H31.1366V8.29639H32.6211V23.143H47.2986V8.29639H48.6754V24.2683Z" fill="#FDCC67"/>
<path d="M45.0499 13.6083L38.8365 19.8277L38.7527 19.985C38.1182 19.6099 37.5794 19.1017 37.1724 18.5088L37.2442 18.4362L43.733 11.9628L43.8048 11.8781C44.4154 12.2894 44.9182 12.846 45.2654 13.4873L45.0619 13.6083H45.0499Z" fill="#FDCC67"/>
<path d="M38.8245 19.8277L45.0379 13.6083L45.2415 13.4873C45.6126 14.1891 45.8281 14.9635 45.8281 15.8105C45.8281 18.4604 43.7091 20.6021 41.0872 20.6021C40.2252 20.6021 39.4231 20.3843 38.7288 19.9729L38.8126 19.8156L38.8245 19.8277Z" fill="#FDCC67"/>
<path d="M41.0991 11.0189C42.0927 11.0189 43.0146 11.3214 43.7928 11.8659L43.7209 11.9506L37.2322 18.4241L37.1603 18.4967C36.6575 17.7344 36.3582 16.8148 36.3582 15.8105C36.3582 13.1606 38.4772 11.0189 41.0991 11.0189Z" fill="#FDCC67"/>
<path d="M2.58624 4.03723H31.2409" stroke="#212830" stroke-width="0.25" stroke-miterlimit="10" stroke-linecap="square"/>
<path d="M48.7678 4.03723H78.6137" stroke="#212830" stroke-width="0.25" stroke-miterlimit="10" stroke-linecap="square"/>
<path d="M21.6993 10.9463H7.70419V24.6192H21.6993V10.9463Z" fill="#939598"/>
<path d="M21.6993 10.9463H7.70419V24.6192H21.6993V10.9463Z" stroke="#212830" stroke-width="0.25" stroke-miterlimit="10" stroke-linecap="square"/>
<path d="M19.281 14.0197C19.6579 14.0197 19.9634 13.7109 19.9634 13.33C19.9634 12.949 19.6579 12.6403 19.281 12.6403C18.9042 12.6403 18.5986 12.949 18.5986 13.33C18.5986 13.7109 18.9042 14.0197 19.281 14.0197Z" fill="#1D1D1B" stroke="#212830" stroke-width="0.25" stroke-miterlimit="10" stroke-linecap="square"/>
<path d="M19.281 22.8043C19.6579 22.8043 19.9634 22.4955 19.9634 22.1146C19.9634 21.7337 19.6579 21.4249 19.281 21.4249C18.9042 21.4249 18.5986 21.7337 18.5986 22.1146C18.5986 22.4955 18.9042 22.8043 19.281 22.8043Z" fill="#1D1D1B" stroke="#212830" stroke-width="0.25" stroke-miterlimit="10" stroke-linecap="square"/>
<path d="M10.1225 22.8043C10.4994 22.8043 10.8049 22.4955 10.8049 22.1146C10.8049 21.7337 10.4994 21.4249 10.1225 21.4249C9.74561 21.4249 9.44009 21.7337 9.44009 22.1146C9.44009 22.4955 9.74561 22.8043 10.1225 22.8043Z" fill="#1D1D1B" stroke="#212830" stroke-width="0.25" stroke-miterlimit="10" stroke-linecap="square"/>
<path d="M10.1225 14.0197C10.4994 14.0197 10.8049 13.7109 10.8049 13.33C10.8049 12.949 10.4994 12.6403 10.1225 12.6403C9.74561 12.6403 9.44009 12.949 9.44009 13.33C9.44009 13.7109 9.74561 14.0197 10.1225 14.0197Z" fill="#1D1D1B" stroke="#212830" stroke-width="0.25" stroke-miterlimit="10" stroke-linecap="square"/>
<path d="M14.7078 20.5657C16.2285 20.5657 17.4613 19.3197 17.4613 17.7827C17.4613 16.2457 16.2285 14.9998 14.7078 14.9998C13.187 14.9998 11.9542 16.2457 11.9542 17.7827C11.9542 19.3197 13.187 20.5657 14.7078 20.5657Z" fill="#1D1D1B" stroke="#212830" stroke-width="0.25" stroke-miterlimit="10" stroke-linecap="square"/>
<path d="M47.4748 8.3811V23.2277H32.7973H32.7494V8.3811H47.4748Z" fill="#FDCC67"/>
<path class="AERIAL" d="M32.7973 23.2277H47.4748V8.3811H32.7494V23.2277" stroke="#212830" stroke-width="0.25" stroke-miterlimit="10" stroke-linecap="square"/>
<path d="M48.7797 8.29639H47.403V23.143H32.7254V8.29639H31.2409V24.2683H48.7797V8.29639Z" stroke="#1D1D1B" stroke-width="0.25" stroke-miterlimit="10" stroke-linecap="square"/>
<path d="M48.7677 3.92834V8.29643H31.2409V3.92834" stroke="#212830" stroke-width="0.25" stroke-miterlimit="10" stroke-linecap="square"/>
<path d="M36.2451 18.424L42.7339 11.9626" stroke="#212830" stroke-width="0.25" stroke-miterlimit="10" stroke-linecap="square"/>
<path d="M37.8374 19.8276L44.0628 13.6083" stroke="#212830" stroke-width="0.25" stroke-miterlimit="10" stroke-linecap="square"/>
<path d="M42.7938 11.8781C42.0156 11.3336 41.0938 11.0311 40.1001 11.0311C37.4783 11.0311 35.3593 13.1728 35.3593 15.8227C35.3593 16.827 35.6585 17.7466 36.1614 18.5089C36.5684 19.1018 37.1071 19.61 37.7417 19.9851C38.436 20.3965 39.2381 20.6143 40.1001 20.6143C42.722 20.6143 44.841 18.4726 44.841 15.8227C44.841 14.9757 44.6255 14.1892 44.2544 13.4995C43.9072 12.8582 43.3924 12.2895 42.7938 11.8902V11.8781Z" stroke="#1D1D1B" stroke-width="0.25" stroke-miterlimit="10"/>
<path d="M69.037 9.01025H71.4194V14.8908H69.037V9.01025Z" stroke="#212830" stroke-width="0.25" stroke-miterlimit="10" stroke-linecap="square"/>
<path d="M71.4194 13.318V10.777H69.037V13.1849H71.4194" fill="#2CA637"/>
<path d="M71.4194 13.318V10.777H69.037V13.1849H71.4194" stroke="#1D1D1B" stroke-width="0.25" stroke-miterlimit="10"/>
<path d="M18.8622 113.554V107.25H19.6045V113.554H18.8622ZM19.3291 111.11V110.432H20.6461C20.8376 110.432 20.9813 110.372 21.089 110.251C21.1968 110.13 21.2446 109.96 21.2446 109.743V108.641C21.2446 108.412 21.1968 108.242 21.089 108.109C20.9813 107.976 20.8376 107.928 20.6461 107.928H19.3291V107.25H20.6101C20.8975 107.25 21.1489 107.298 21.3524 107.407C21.5559 107.516 21.7116 107.674 21.8193 107.879C21.927 108.085 21.9749 108.339 21.9749 108.629V109.755C21.9749 110.033 21.9151 110.287 21.8073 110.481C21.6996 110.686 21.5439 110.844 21.3404 110.94C21.1369 111.037 20.8855 111.098 20.5982 111.098H19.3172L19.3291 111.11Z" fill="#3C3C3B"/>
<path d="M23.8067 113.615C23.4116 113.615 23.1243 113.506 22.9208 113.3C22.7172 113.094 22.6215 112.78 22.6215 112.356C22.6215 111.848 22.7412 111.473 22.9806 111.219C23.2201 110.965 23.5792 110.844 24.0581 110.844H24.7764L24.8363 111.437H24.0581C23.8067 111.437 23.6271 111.509 23.5074 111.666C23.3877 111.824 23.3278 112.042 23.3278 112.356C23.3278 112.586 23.3757 112.743 23.4954 112.852C23.6032 112.961 23.7708 113.01 23.9863 113.01C24.2377 113.01 24.4292 112.949 24.5489 112.816C24.6687 112.683 24.7405 112.489 24.7405 112.223L24.8363 112.622C24.8363 112.84 24.7884 113.022 24.7165 113.179C24.6447 113.324 24.525 113.433 24.3813 113.506C24.2257 113.578 24.0461 113.615 23.8186 113.615H23.8067ZM24.7285 113.554V110.251C24.7285 110.045 24.6687 109.876 24.5489 109.755C24.4292 109.634 24.2616 109.585 24.0461 109.585C23.8546 109.585 23.7109 109.646 23.6032 109.755C23.4954 109.876 23.4475 110.033 23.4475 110.251H22.7172C22.7172 109.839 22.837 109.525 23.0764 109.295C23.3158 109.065 23.6391 108.956 24.0701 108.956C24.501 108.956 24.8482 109.065 25.0877 109.295C25.3271 109.525 25.4468 109.839 25.4468 110.239V113.542H24.7405L24.7285 113.554Z" fill="#3C3C3B"/>
<path d="M26.0574 113.554V112.876H29.4694V113.554H26.0574ZM26.0574 114.679V112.864H26.7996V114.679H26.0574ZM26.1891 113.397V112.876H26.2968C26.4046 112.876 26.4884 112.84 26.5602 112.755C26.632 112.671 26.6919 112.562 26.7278 112.405C26.7637 112.247 26.7877 112.066 26.7877 111.848V109.053H27.5299V111.969C27.5299 112.453 27.4341 112.816 27.2306 113.046C27.0271 113.276 26.7517 113.397 26.3926 113.397H26.1891ZM27.2785 109.73V109.053H28.8229V109.73H27.2785ZM28.5595 113.554V109.053H29.3137V113.554H28.5595ZM29.218 114.679V112.864H29.9602V114.679H29.218Z" fill="#3C3C3B"/>
<path d="M33.2524 113.542H32.5461V110.299L32.6538 110.408L31.1574 113.542H30.5707V109.041H31.2771V112.344L31.1693 112.235L32.6778 109.041H33.2644V113.542H33.2524Z" fill="#3C3C3B"/>
<path d="M35.4912 113.615C35.0722 113.615 34.7369 113.506 34.5095 113.276C34.27 113.046 34.1623 112.719 34.1623 112.308V110.263C34.1623 109.851 34.282 109.537 34.5095 109.307C34.7489 109.077 35.0722 108.968 35.4912 108.968C35.9102 108.968 36.2454 109.077 36.4729 109.307C36.7003 109.537 36.8201 109.851 36.8201 110.263V112.32C36.8201 112.731 36.7003 113.046 36.4729 113.276C36.2454 113.506 35.9102 113.615 35.4912 113.615ZM35.4792 112.925C35.6707 112.925 35.8144 112.876 35.9102 112.768C36.0179 112.659 36.0658 112.513 36.0658 112.308V110.275C36.0658 110.081 36.0179 109.936 35.9102 109.827C35.8024 109.718 35.6588 109.67 35.4792 109.67C35.2996 109.67 35.156 109.718 35.0482 109.827C34.9405 109.936 34.8926 110.081 34.8926 110.275V112.308C34.8926 112.501 34.9405 112.659 35.0482 112.768C35.156 112.876 35.2996 112.925 35.4792 112.925Z" fill="#3C3C3B"/>
<path d="M39.2384 111.57L40.0525 109.053H40.7588V113.554H40.1004V110.045L40.1602 110.323L39.4659 112.513H39.0109L38.3046 110.372L38.3764 110.045V113.554H37.718V109.053H38.4243L39.2384 111.57Z" fill="#3C3C3B"/>
<path d="M42.9976 113.615C42.5785 113.615 42.2433 113.506 42.0159 113.276C41.7764 113.046 41.6687 112.719 41.6687 112.308V110.263C41.6687 109.851 41.7884 109.537 42.0159 109.307C42.2553 109.077 42.5785 108.968 42.9976 108.968C43.4166 108.968 43.7518 109.077 43.9792 109.307C44.2067 109.537 44.3264 109.851 44.3264 110.263V112.32C44.3264 112.731 44.2067 113.046 43.9792 113.276C43.7518 113.506 43.4166 113.615 42.9976 113.615ZM42.9856 112.925C43.1771 112.925 43.3208 112.876 43.4166 112.768C43.5243 112.659 43.5722 112.513 43.5722 112.308V110.275C43.5722 110.081 43.5243 109.936 43.4166 109.827C43.3088 109.718 43.1652 109.67 42.9856 109.67C42.806 109.67 42.6623 109.718 42.5546 109.827C42.4468 109.936 42.399 110.081 42.399 110.275V112.308C42.399 112.501 42.4468 112.659 42.5546 112.768C42.6623 112.876 42.806 112.925 42.9856 112.925Z" fill="#3C3C3B"/>
<path d="M44.6257 113.554V112.876H48.0377V113.554H44.6257ZM44.6257 114.679V112.864H45.368V114.679H44.6257ZM44.7574 113.397V112.876H44.8652C44.9729 112.876 45.0567 112.84 45.1285 112.755C45.2004 112.671 45.2602 112.562 45.2962 112.405C45.3321 112.247 45.356 112.066 45.356 111.848V109.053H46.0983V111.969C46.0983 112.453 46.0025 112.816 45.799 113.046C45.5955 113.276 45.3201 113.397 44.9609 113.397H44.7574ZM45.8588 109.73V109.053H47.4032V109.73H45.8588ZM47.1279 113.554V109.053H47.8821V113.554H47.1279ZM47.7863 114.679V112.864H48.5286V114.679H47.7863Z" fill="#3C3C3B"/>
<path d="M50.073 113.881L48.6124 109.053H49.3786L50.4082 112.925L50.073 113.881ZM51.0187 109.053H51.7849L50.3244 114.607C50.2525 114.885 50.1089 115.091 49.8814 115.224C49.6659 115.357 49.3666 115.43 48.9835 115.43H48.8997V114.74H48.9835C49.2229 114.74 49.4025 114.691 49.5222 114.583C49.642 114.474 49.7377 114.328 49.7856 114.123L51.0187 109.041V109.053Z" fill="#3C3C3B"/>
<path d="M52.0483 113.59V112.925C52.18 112.925 52.2758 112.889 52.3476 112.804C52.4195 112.719 52.4434 112.61 52.4434 112.453V109.053H53.1857V112.513C53.1857 112.864 53.0899 113.143 52.9103 113.324C52.7307 113.506 52.4673 113.602 52.1202 113.602H52.0244L52.0483 113.59ZM53.0181 109.73V109.053H54.5744V109.73H53.0181ZM54.2512 113.554V109.053H54.9934V113.554H54.2512Z" fill="#3C3C3B"/>
<path d="M55.9871 113.554V109.053H56.7293V113.554H55.9871ZM56.3702 113.554V112.876H57.3878C57.5913 112.876 57.735 112.816 57.8427 112.707C57.9504 112.598 57.9983 112.441 57.9983 112.247V111.908C57.9983 111.703 57.9504 111.545 57.8427 111.437C57.735 111.328 57.5793 111.267 57.3878 111.267H56.3702V110.59H57.5314C57.9145 110.59 58.2138 110.698 58.4293 110.904C58.6448 111.11 58.7526 111.412 58.7526 111.787V112.356C58.7526 112.731 58.6448 113.034 58.4174 113.239C58.1899 113.445 57.8666 113.554 57.4476 113.554H56.3702Z" fill="#3C3C3B"/>
<path d="M8.98544 124.214V123.537H12.3974V124.214H8.98544ZM8.98544 125.352V123.537H9.7277V125.352H8.98544ZM9.11713 124.057V123.537H9.22488C9.33263 123.537 9.41643 123.5 9.48826 123.416C9.56009 123.331 9.61995 123.222 9.65587 123.065C9.69178 122.907 9.71573 122.726 9.71573 122.508V119.713H10.458V122.629C10.458 123.113 10.3622 123.476 10.1587 123.706C9.95517 123.936 9.67981 124.057 9.32066 124.057H9.11713ZM10.2185 120.391V119.713H11.7629V120.391H10.2185ZM11.4876 124.214V119.713H12.2418V124.214H11.4876ZM12.146 125.352V123.537H12.8883V125.352H12.146Z" fill="#3C3C3B"/>
<path d="M13.1875 124.25V123.585C13.3192 123.585 13.415 123.549 13.4868 123.464C13.5587 123.379 13.5826 123.27 13.5826 123.113V119.713H14.3249V123.174C14.3249 123.524 14.2291 123.803 14.0495 123.984C13.8699 124.166 13.6066 124.263 13.2594 124.263H13.1636L13.1875 124.25ZM14.1573 120.391V119.713H15.7136V120.391H14.1573ZM15.3904 124.214V119.713H16.1326V124.214H15.3904Z" fill="#3C3C3B"/>
<path d="M19.3771 122.714H18.2158C17.8327 122.714 17.5214 122.605 17.3179 122.399C17.1144 122.194 16.9947 121.891 16.9947 121.516V120.911C16.9947 120.536 17.1144 120.233 17.3418 120.028C17.5693 119.822 17.8926 119.713 18.3116 119.713H19.389V120.391H18.3714C18.1799 120.391 18.0242 120.451 17.9165 120.56C17.8087 120.669 17.7609 120.826 17.7609 121.02V121.407C17.7609 121.613 17.8087 121.758 17.9285 121.879C18.0362 121.988 18.1918 122.048 18.3834 122.048H19.401V122.726L19.3771 122.714ZM17.8327 124.214H17.0306L17.8686 122.278L18.5869 122.472L17.8327 124.202V124.214ZM19.7602 124.214H19.0179V119.713H19.7602V124.214Z" fill="#3C3C3B"/>
<path d="M22.5855 126.041V119.701H23.3278V126.041H22.5855ZM24.2616 124.275C24.0341 124.275 23.8186 124.202 23.639 124.069C23.4595 123.936 23.3397 123.742 23.2679 123.5L23.3278 122.811C23.3278 122.98 23.3517 123.125 23.3996 123.246C23.4475 123.367 23.5193 123.464 23.6151 123.524C23.7109 123.585 23.8306 123.621 23.9623 123.621C24.1658 123.621 24.3334 123.549 24.4531 123.403C24.5728 123.258 24.6207 123.053 24.6207 122.786V121.08C24.6207 120.826 24.5609 120.621 24.4531 120.487C24.3454 120.354 24.1778 120.27 23.9623 120.27C23.8186 120.27 23.7109 120.294 23.6151 120.366C23.5193 120.439 23.4475 120.512 23.3996 120.633C23.3517 120.754 23.3278 120.899 23.3278 121.068L23.232 120.451C23.3278 120.185 23.4714 119.979 23.663 119.834C23.8545 119.689 24.07 119.616 24.2975 119.616C24.6447 119.616 24.9081 119.737 25.0996 119.991C25.2912 120.245 25.3869 120.596 25.3869 121.056V122.798C25.3869 123.258 25.2912 123.621 25.0996 123.875C24.9081 124.129 24.6327 124.263 24.2735 124.263L24.2616 124.275Z" fill="#3C3C3B"/>
<path d="M27.3982 124.275C27.0032 124.275 26.7158 124.166 26.5123 123.96C26.3088 123.754 26.213 123.44 26.213 123.016C26.213 122.508 26.3327 122.133 26.5722 121.879C26.8116 121.625 27.1708 121.504 27.6496 121.504H28.368L28.4278 122.097H27.6496C27.3982 122.097 27.2187 122.169 27.0989 122.327C26.9792 122.484 26.9194 122.702 26.9194 123.016C26.9194 123.246 26.9672 123.403 27.087 123.512C27.1947 123.621 27.3623 123.67 27.5778 123.67C27.8292 123.67 28.0208 123.609 28.1405 123.476C28.2602 123.343 28.332 123.149 28.332 122.883L28.4278 123.282C28.4278 123.5 28.3799 123.682 28.3081 123.839C28.2363 123.984 28.1165 124.093 27.9729 124.166C27.8172 124.238 27.6377 124.275 27.4102 124.275H27.3982ZM28.3201 124.214V120.911C28.3201 120.705 28.2602 120.536 28.1405 120.415C28.0208 120.294 27.8532 120.245 27.6377 120.245C27.4461 120.245 27.3025 120.306 27.1947 120.415C27.087 120.536 27.0391 120.693 27.0391 120.911H26.3088C26.3088 120.499 26.4285 120.185 26.6679 119.955C26.9074 119.725 27.2306 119.616 27.6616 119.616C28.0926 119.616 28.4398 119.725 28.6792 119.955C28.9187 120.185 29.0384 120.5 29.0384 120.899V124.202H28.332L28.3201 124.214Z" fill="#3C3C3B"/>
<path d="M29.649 124.214V123.537H33.0609V124.214H29.649ZM29.649 125.352V123.537H30.3912V125.352H29.649ZM29.7687 124.057V123.537H29.8764C29.9842 123.537 30.068 123.5 30.1398 123.416C30.2116 123.331 30.2715 123.222 30.3074 123.065C30.3433 122.907 30.3673 122.726 30.3673 122.508V119.713H31.1095V122.629C31.1095 123.113 31.0138 123.476 30.8102 123.706C30.6067 123.936 30.3314 124.057 29.9722 124.057H29.7687ZM30.8701 120.391V119.713H32.4145V120.391H30.8701ZM32.1511 124.214V119.713H32.9053V124.214H32.1511ZM32.7976 125.352V123.537H33.5398V125.352H32.7976Z" fill="#3C3C3B"/>
<path d="M36.844 124.214H36.1377V120.971L36.2454 121.08L34.7489 124.214H34.1623V119.713H34.8686V123.016L34.7609 122.907L36.2693 119.713H36.856V124.214H36.844Z" fill="#3C3C3B"/>
<path d="M39.0708 124.275C38.6517 124.275 38.3165 124.166 38.0891 123.936C37.8496 123.706 37.7419 123.379 37.7419 122.968V120.923C37.7419 120.511 37.8616 120.197 38.0891 119.967C38.3285 119.737 38.6517 119.628 39.0708 119.628C39.4898 119.628 39.825 119.737 40.0525 119.967C40.2799 120.197 40.3996 120.511 40.3996 120.923V122.98C40.3996 123.391 40.2799 123.706 40.0525 123.936C39.825 124.166 39.4898 124.275 39.0708 124.275ZM39.0708 123.585C39.2623 123.585 39.406 123.536 39.5017 123.428C39.6095 123.319 39.6574 123.173 39.6574 122.968V120.935C39.6574 120.741 39.6095 120.596 39.5017 120.487C39.394 120.378 39.2503 120.33 39.0708 120.33C38.8912 120.33 38.7475 120.378 38.6398 120.487C38.532 120.596 38.4841 120.741 38.4841 120.935V122.968C38.4841 123.161 38.532 123.319 38.6398 123.428C38.7475 123.536 38.8912 123.585 39.0708 123.585Z" fill="#3C3C3B"/>
<path d="M42.2673 124.541L40.8067 119.713H41.5729L42.6025 123.585L42.2673 124.541ZM43.225 119.713H43.9912L42.5307 125.267C42.4588 125.545 42.3152 125.751 42.0877 125.884C41.8722 126.017 41.5729 126.09 41.1898 126.09H41.106V125.4H41.1898C41.4292 125.4 41.6088 125.351 41.7285 125.243C41.8483 125.134 41.944 124.988 41.9919 124.783L43.225 119.701V119.713Z" fill="#3C3C3B"/>
<path d="M45.787 124.275C45.3441 124.275 44.9969 124.154 44.7455 123.924C44.4941 123.694 44.3743 123.355 44.3743 122.932V121.044C44.3743 120.596 44.4941 120.245 44.7455 120.003C44.9849 119.761 45.3321 119.64 45.787 119.64C46.242 119.64 46.5891 119.761 46.8286 120.003C47.08 120.245 47.1997 120.596 47.1997 121.056V121.153H46.4694V121.056C46.4694 120.814 46.4096 120.633 46.2898 120.512C46.1701 120.391 46.0025 120.318 45.787 120.318C45.5715 120.318 45.4159 120.378 45.2962 120.512C45.1765 120.633 45.1166 120.814 45.1166 121.056V122.944C45.1166 123.161 45.1765 123.319 45.2962 123.44C45.4159 123.561 45.5835 123.609 45.787 123.609C45.9905 123.609 46.1701 123.549 46.2898 123.428C46.4096 123.307 46.4694 123.137 46.4694 122.919V122.823H47.1997V122.919C47.1997 123.355 47.08 123.682 46.8286 123.924C46.5772 124.166 46.23 124.287 45.7751 124.287L45.787 124.275Z" fill="#3C3C3B"/>
<path d="M47.3075 120.391V119.713H49.8216V120.391H47.3075ZM48.1934 124.214V119.713H48.9237V124.214H48.1934Z" fill="#3C3C3B"/>
<path d="M50.5399 126.041V119.701H51.2821V126.041H50.5399ZM52.2039 124.275C51.9765 124.275 51.761 124.202 51.5814 124.069C51.4018 123.936 51.2821 123.742 51.2103 123.5L51.2701 122.811C51.2701 122.98 51.2941 123.125 51.342 123.246C51.3899 123.367 51.4617 123.464 51.5575 123.524C51.6532 123.585 51.773 123.621 51.9047 123.621C52.1082 123.621 52.2758 123.549 52.3955 123.403C52.5152 123.258 52.5631 123.053 52.5631 122.786V121.08C52.5631 120.826 52.5032 120.621 52.3955 120.487C52.2878 120.354 52.1201 120.27 51.9047 120.27C51.761 120.27 51.6532 120.294 51.5575 120.366C51.4617 120.439 51.3899 120.512 51.342 120.633C51.2941 120.754 51.2701 120.899 51.2701 121.068L51.1744 120.451C51.2701 120.185 51.4138 119.979 51.6054 119.834C51.7969 119.689 52.0124 119.616 52.2399 119.616C52.587 119.616 52.8504 119.737 53.042 119.991C53.2335 120.245 53.3293 120.596 53.3293 121.056V122.798C53.3293 123.258 53.2335 123.621 53.042 123.875C52.8504 124.129 52.5751 124.263 52.2159 124.263L52.2039 124.275Z" fill="#3C3C3B"/>
<path d="M55.4723 124.275C55.0533 124.275 54.7181 124.166 54.4906 123.936C54.2512 123.706 54.1434 123.379 54.1434 122.968V120.923C54.1434 120.511 54.2631 120.197 54.4906 119.967C54.73 119.737 55.0533 119.628 55.4723 119.628C55.8913 119.628 56.2265 119.737 56.454 119.967C56.6814 120.197 56.8012 120.511 56.8012 120.923V122.98C56.8012 123.391 56.6814 123.706 56.454 123.936C56.2265 124.166 55.8913 124.275 55.4723 124.275ZM55.4603 123.585C55.6519 123.585 55.7955 123.536 55.8913 123.428C55.999 123.319 56.0469 123.173 56.0469 122.968V120.935C56.0469 120.741 55.999 120.596 55.8913 120.487C55.7836 120.378 55.6399 120.33 55.4603 120.33C55.2807 120.33 55.1371 120.378 55.0293 120.487C54.9216 120.596 54.8737 120.741 54.8737 120.935V122.968C54.8737 123.161 54.9216 123.319 55.0293 123.428C55.1371 123.536 55.2807 123.585 55.4603 123.585Z" fill="#3C3C3B"/>
<path d="M60.3808 124.214H59.6744V120.971L59.7822 121.08L58.2857 124.214H57.6991V119.713H58.4054V123.016L58.2976 122.907L59.8061 119.713H60.3927V124.214H60.3808ZM58.9681 118.83C58.6329 118.83 58.3695 118.733 58.1779 118.551C57.9864 118.358 57.9026 118.091 57.9026 117.753V117.45H58.5371V117.765C58.5371 118.104 58.6807 118.273 58.9681 118.273H59.0519C59.3392 118.273 59.4829 118.104 59.4829 117.765V117.45H60.1174V117.753C60.1174 118.091 60.0216 118.358 59.842 118.551C59.6505 118.745 59.3991 118.83 59.0519 118.83H58.9681Z" fill="#3C3C3B"/>
<path d="M62.6793 124.275C62.2364 124.275 61.8892 124.154 61.6378 123.924C61.3864 123.694 61.2667 123.355 61.2667 122.932V121.044C61.2667 120.596 61.3864 120.245 61.6378 120.003C61.8772 119.761 62.2244 119.64 62.6793 119.64C63.1343 119.64 63.4815 119.761 63.7209 120.003C63.9723 120.245 64.092 120.596 64.092 121.056V121.153H63.3617V121.056C63.3617 120.814 63.3019 120.633 63.1822 120.512C63.0624 120.391 62.8948 120.318 62.6793 120.318C62.4639 120.318 62.3082 120.378 62.1885 120.512C62.0688 120.633 62.0089 120.814 62.0089 121.056V122.944C62.0089 123.161 62.0688 123.319 62.1885 123.44C62.3082 123.561 62.4758 123.609 62.6793 123.609C62.8829 123.609 63.0624 123.549 63.1822 123.428C63.3019 123.307 63.3617 123.137 63.3617 122.919V122.823H64.092V122.919C64.092 123.355 63.9723 123.682 63.7209 123.924C63.4695 124.166 63.1223 124.287 62.6674 124.287L62.6793 124.275Z" fill="#3C3C3B"/>
<path d="M64.1878 120.391V119.713H66.7019V120.391H64.1878ZM65.0857 124.214V119.713H65.816V124.214H65.0857Z" fill="#3C3C3B"/>
<path d="M67.4202 124.214V119.713H68.1625V124.214H67.4202ZM67.9589 124.214V123.537H69.0364C69.1442 123.537 69.228 123.5 69.2878 123.44C69.3477 123.379 69.3716 123.282 69.3716 123.161V122.69C69.3716 122.532 69.3237 122.411 69.2399 122.327C69.1442 122.242 69.0244 122.193 68.8568 122.193H67.9589V121.504H68.8568C69.1442 121.504 69.2878 121.359 69.2878 121.08V120.681C69.2878 120.487 69.1801 120.391 68.9526 120.391H67.947V119.713H69.0364C69.3597 119.713 69.5991 119.786 69.7787 119.943C69.9463 120.1 70.0301 120.306 70.0301 120.584V121.104C70.0301 121.31 69.9702 121.468 69.8625 121.601C69.7547 121.734 69.5991 121.818 69.4075 121.855C69.635 121.891 69.8146 121.976 69.9343 122.121C70.054 122.266 70.1259 122.448 70.1259 122.677V123.258C70.1259 123.561 70.0301 123.803 69.8505 123.972C69.6709 124.142 69.4075 124.226 69.0723 124.226H67.9589V124.214Z" fill="#3C3C3B"/>
<path d="M31.1214 132.853L32.5222 128.57H33.2165V134.874H32.5222V129.949L32.582 130.228L31.3968 133.918H30.8461L29.6729 130.312L29.7447 129.949V134.874H29.0264V128.57H29.7327L31.1214 132.853Z" fill="#3C3C3B"/>
<path d="M35.2997 135.201L33.8391 130.373H34.6053L35.6349 134.245L35.2997 135.201ZM36.2574 130.373H37.0236L35.563 135.927C35.4912 136.205 35.3475 136.411 35.1201 136.544C34.9046 136.677 34.6053 136.75 34.2222 136.75H34.1384V136.06H34.2222C34.4616 136.06 34.6412 136.012 34.7609 135.903C34.8806 135.794 34.9764 135.649 35.0243 135.443L36.2574 130.361V130.373Z" fill="#3C3C3B"/>
<path d="M37.5504 134.874V128.57H38.3046V134.874H37.5504ZM38.1131 132.115V131.438H40.1124V132.115H38.1131ZM39.8011 134.874V128.57H40.5434V134.874H39.8011Z" fill="#3C3C3B"/>
<path d="M42.818 134.947C42.375 134.947 42.0278 134.814 41.7764 134.56C41.525 134.293 41.4053 133.93 41.4053 133.458V131.898C41.4053 131.389 41.525 131.002 41.7644 130.724C42.0039 130.446 42.3391 130.312 42.782 130.312C43.225 130.312 43.5722 130.446 43.8116 130.7C44.0511 130.954 44.1708 131.317 44.1708 131.777V132.926H41.8961V132.297H43.4405V131.789C43.4405 131.522 43.3806 131.329 43.2729 131.184C43.1651 131.038 42.9975 130.966 42.782 130.966C42.5665 130.966 42.4109 131.038 42.3032 131.196C42.1954 131.353 42.1356 131.559 42.1356 131.837V133.471C42.1356 133.725 42.1954 133.918 42.3151 134.063C42.4349 134.209 42.6025 134.269 42.818 134.269C43.0215 134.269 43.1771 134.221 43.2968 134.112C43.4046 134.003 43.4644 133.846 43.4644 133.652V133.628H44.1947V133.652C44.1947 134.063 44.075 134.378 43.8356 134.608C43.5961 134.838 43.2609 134.947 42.818 134.947Z" fill="#3C3C3B"/>
<path d="M46.1941 134.947C45.799 134.947 45.5117 134.838 45.3081 134.632C45.1046 134.427 45.0089 134.112 45.0089 133.688C45.0089 133.18 45.1286 132.805 45.368 132.551C45.6074 132.297 45.9666 132.176 46.4455 132.176H47.1638L47.2236 132.769H46.4455C46.1941 132.769 46.0145 132.841 45.8948 132.999C45.775 133.156 45.7152 133.374 45.7152 133.688C45.7152 133.918 45.7631 134.076 45.8828 134.185C45.9905 134.293 46.1582 134.342 46.3736 134.342C46.6251 134.342 46.8166 134.281 46.9363 134.148C47.056 134.015 47.1279 133.822 47.1279 133.555L47.2236 133.955C47.2236 134.172 47.1758 134.354 47.1039 134.511C47.0321 134.656 46.9124 134.765 46.7687 134.838C46.6131 134.911 46.4335 134.947 46.206 134.947H46.1941ZM47.1159 134.874V131.571C47.1159 131.365 47.056 131.196 46.9363 131.075C46.8166 130.954 46.649 130.905 46.4335 130.905C46.242 130.905 46.0983 130.966 45.9905 131.075C45.8828 131.196 45.8349 131.353 45.8349 131.571H45.1046C45.1046 131.16 45.2243 130.845 45.4638 130.615C45.7032 130.385 46.0265 130.276 46.4574 130.276C46.8884 130.276 47.2356 130.385 47.4751 130.615C47.7145 130.845 47.8342 131.16 47.8342 131.559V134.862H47.1279L47.1159 134.874Z" fill="#3C3C3B"/>
<path d="M48.4567 131.051V130.373H50.456V131.051H48.4567ZM50.0251 134.898C49.642 134.898 49.3666 134.802 49.199 134.596C49.0314 134.39 48.9476 134.1 48.9476 133.713V129.066H49.6898V133.713C49.6898 133.87 49.7258 134.003 49.7976 134.088C49.8694 134.172 49.9772 134.221 50.1208 134.221H50.468V134.898H50.0251Z" fill="#3C3C3B"/>
<path d="M18.0446 81.7069V76.6613H18.5594V81.7069H18.0446ZM18.4157 81.7069V81.2471H19.5291C19.6848 81.2471 19.8165 81.1987 19.9003 81.0898C19.9841 80.993 20.0319 80.8478 20.0319 80.6663V79.7588C20.0319 79.5652 19.9841 79.42 19.9003 79.3111C19.8165 79.2143 19.6848 79.1538 19.5291 79.1538H18.4157V78.694H19.5052C19.7327 78.694 19.9122 78.7303 20.0679 78.815C20.2235 78.8997 20.3432 79.0207 20.427 79.178C20.5108 79.3353 20.5467 79.5289 20.5467 79.7588V80.6663C20.5467 80.8841 20.4989 81.0777 20.427 81.235C20.3432 81.3923 20.2235 81.5012 20.0679 81.5859C19.9122 81.6706 19.7207 81.7069 19.5052 81.7069H18.4157ZM18.4995 77.1332V76.6733H20.2474V77.1332H18.4995Z" fill="#3C3C3B"/>
<path d="M20.9658 81.7433V81.2835C21.0615 81.2835 21.1453 81.2472 21.2052 81.1867C21.2651 81.1262 21.289 81.0294 21.289 80.9084V78.1133H21.8038V80.9326C21.8038 81.1867 21.732 81.3924 21.6003 81.5376C21.4686 81.6828 21.277 81.7554 21.0376 81.7554H20.9658V81.7433ZM21.732 78.5731V78.1133H22.977V78.5731H21.732ZM22.8094 81.707V78.1012H23.3242V81.707H22.8094Z" fill="#3C3C3B"/>
<path d="M25.108 81.7554C24.7728 81.7554 24.5094 81.6587 24.3179 81.4772C24.1263 81.2957 24.0425 81.0416 24.0425 80.7028V79.0693C24.0425 78.7426 24.1383 78.4885 24.3179 78.307C24.5094 78.1255 24.7728 78.0408 25.108 78.0408C25.4433 78.0408 25.7066 78.1255 25.8982 78.307C26.0897 78.4885 26.1735 78.7426 26.1735 79.0693V80.7149C26.1735 81.0416 26.0778 81.2957 25.8982 81.4772C25.7066 81.6587 25.4433 81.7554 25.108 81.7554ZM25.108 81.2957C25.2876 81.2957 25.4193 81.2472 25.5151 81.1504C25.6109 81.0536 25.6587 80.9085 25.6587 80.727V79.0814C25.6587 78.8999 25.6109 78.7668 25.5151 78.67C25.4193 78.5732 25.2876 78.5248 25.108 78.5248C24.9285 78.5248 24.7968 78.5732 24.701 78.67C24.6052 78.7668 24.5573 78.912 24.5573 79.0814V80.727C24.5573 80.9085 24.6052 81.0536 24.701 81.1504C24.7968 81.2472 24.9285 81.2957 25.108 81.2957Z" fill="#3C3C3B"/>
<path d="M26.8918 81.707V78.1012H27.4066V81.707H26.8918ZM27.239 80.1461V79.6984H28.4961V80.1461H27.239ZM28.7834 81.707L28.0172 80.0372L28.4362 79.7347L29.3581 81.707H28.7834ZM28.4242 80.1461L28.0292 79.8073L28.6757 78.1012H29.2144L28.4123 80.134L28.4242 80.1461Z" fill="#3C3C3B"/>
<path d="M13.627 88.8701L14.8002 85.1918H15.303V90.2374H14.8002V86.184L14.8361 86.4018L13.8425 89.5356H13.3995L12.4058 86.4744L12.4418 86.184V90.2374H11.9389V85.1918H12.4418L13.615 88.8701H13.627Z" fill="#3C3C3B"/>
<path d="M17.0031 90.4795L15.8059 86.6317H16.3326L17.1826 89.7051L16.9911 90.4674L17.0031 90.4795ZM17.8172 86.6317H18.3439L17.1228 91.0724C17.0629 91.2902 16.9432 91.4596 16.7756 91.5685C16.596 91.6774 16.3566 91.7379 16.0573 91.7379H16.0214V91.266H16.0573C16.2608 91.266 16.4164 91.2176 16.5242 91.1208C16.6319 91.024 16.7157 90.8909 16.7636 90.6973L17.8172 86.6317Z" fill="#3C3C3B"/>
<path d="M18.7749 90.2374V85.1918H19.2897V90.2374H18.7749ZM19.2298 87.9869V87.5271H20.834V87.9869H19.2298ZM20.6545 90.2374V85.1918H21.1692V90.2374H20.6545Z" fill="#3C3C3B"/>
<path d="M22.989 90.2858C22.6299 90.2858 22.3545 90.1769 22.151 89.9712C21.9475 89.7655 21.8517 89.4631 21.8517 89.088V87.8417C21.8517 87.4424 21.9475 87.1278 22.139 86.8979C22.3306 86.6801 22.6059 86.5712 22.9531 86.5712C23.3003 86.5712 23.5876 86.668 23.7792 86.8737C23.9707 87.0794 24.0665 87.3698 24.0665 87.7449V88.6402H22.163V88.1805H23.5517V87.769C23.5517 87.5392 23.5038 87.3577 23.3961 87.2367C23.2883 87.1157 23.1446 87.0431 22.9531 87.0431C22.7615 87.0431 22.6179 87.1157 22.5221 87.2488C22.4144 87.3819 22.3665 87.5755 22.3665 87.8175V89.1243C22.3665 89.3542 22.4144 89.5236 22.5221 89.6567C22.6299 89.7777 22.7855 89.8502 22.977 89.8502C23.1566 89.8502 23.3003 89.8018 23.408 89.705C23.5038 89.6082 23.5637 89.463 23.5637 89.2815V89.2574H24.0785V89.2815C24.0785 89.6082 23.9827 89.8623 23.7911 90.0438C23.5996 90.2253 23.3362 90.3221 22.977 90.3221L22.989 90.2858Z" fill="#3C3C3B"/>
<path d="M25.7186 90.2858C25.3954 90.2858 25.1559 90.2012 24.9883 90.0318C24.8207 89.8624 24.7489 89.6082 24.7489 89.2694C24.7489 88.8702 24.8447 88.5677 25.0362 88.362C25.2278 88.1563 25.5151 88.0595 25.8982 88.0595H26.5567L26.6045 88.4225H25.8982C25.6707 88.4225 25.5031 88.4951 25.3954 88.6282C25.2876 88.7613 25.2278 88.9791 25.2278 89.2574C25.2278 89.4752 25.2757 89.6324 25.3834 89.7413C25.4912 89.8502 25.6348 89.8987 25.8503 89.8987C26.0778 89.8987 26.2454 89.8382 26.3651 89.7293C26.4848 89.6083 26.5327 89.4389 26.5327 89.1969L26.6045 89.4994C26.6045 89.6688 26.5686 89.814 26.4968 89.935C26.4369 90.0559 26.3292 90.1406 26.2095 90.189C26.0898 90.2374 25.9221 90.2737 25.7306 90.2737L25.7186 90.2858ZM26.5207 90.2374V87.5997C26.5207 87.4061 26.4609 87.2488 26.3531 87.152C26.2454 87.0552 26.0898 86.9947 25.8862 86.9947C25.7067 86.9947 25.563 87.0431 25.4672 87.152C25.3714 87.2609 25.3236 87.4061 25.3236 87.5997H24.8207C24.8207 87.273 24.9165 87.0189 25.1081 86.8374C25.2996 86.6559 25.563 86.5712 25.9102 86.5712C26.2574 86.5712 26.5327 86.6559 26.7243 86.8374C26.9158 87.0189 27.0116 87.273 27.0116 87.5997V90.2374H26.5327H26.5207Z" fill="#3C3C3B"/>
<path d="M27.5024 87.1035V86.6437H29.1066V87.1035H27.5024ZM28.7595 90.2616C28.4602 90.2616 28.2327 90.1769 28.101 90.0196C27.9573 89.8502 27.8975 89.6203 27.8975 89.3178V85.6031H28.4123V89.3299C28.4123 89.4872 28.4482 89.5961 28.52 89.6808C28.5919 89.7655 28.6996 89.8018 28.8433 89.8018H29.1186V90.2616H28.7714H28.7595Z" fill="#3C3C3B"/>
<path d="M39.3426 89.7293V77.0969H41.282V89.7293H39.3426ZM40.2405 84.3932V82.5782H42.6229C42.994 82.5782 43.2933 82.4814 43.4968 82.2878C43.7004 82.0942 43.8081 81.8159 43.8201 81.465V80.1219C43.8201 79.7468 43.7123 79.4564 43.5088 79.2386C43.3053 79.0208 43.006 78.924 42.6349 78.924H40.2525V77.109H42.4912C43.1856 77.109 43.7842 77.2179 44.287 77.4478C44.7778 77.6656 45.1609 77.9923 45.4243 78.4279C45.6877 78.8635 45.8194 79.3717 45.8194 79.9767V81.4529C45.8194 82.0821 45.6877 82.6145 45.4243 83.0501C45.1609 83.4857 44.7778 83.8245 44.287 84.0544C43.7961 84.2843 43.1975 84.4053 42.4912 84.4053H40.2525L40.2405 84.3932ZM44.0356 89.7293L42.2637 84.006L44.0835 83.6067L46.1666 89.7293H44.0356Z" fill="#3C3C3B"/>
<path d="M47.6271 89.7294V77.1091H49.5905V89.7294H47.6271ZM48.9081 89.7294V87.9144H50.9314C51.2307 87.9144 51.4701 87.8297 51.6377 87.6482C51.8053 87.4667 51.8891 87.2247 51.8891 86.898V79.9405C51.8891 79.6138 51.8053 79.3597 51.6377 79.1903C51.4701 79.0209 51.2426 78.9241 50.9314 78.9241H48.9081V77.1091H51.0152C51.9131 77.1091 52.6194 77.3511 53.1103 77.823C53.6011 78.2949 53.8525 78.9725 53.8525 79.8437V86.9948C53.8525 87.5756 53.7448 88.0717 53.5173 88.471C53.2898 88.8824 52.9666 89.1849 52.5476 89.4027C52.1166 89.6205 51.6138 89.7294 51.0152 89.7294H48.9081Z" fill="#3C3C3B"/>
<path d="M54.6426 78.9241V77.1091H61.0715V78.9241H54.6426ZM56.8814 89.7294V78.1497H58.8328V89.7294H56.8814Z" fill="#3C3C3B"/>
<path d="M61.7539 89.7293V88.0353L64.5314 83.3042C64.9265 82.6387 65.2138 82.0337 65.4054 81.5013C65.5969 80.9689 65.6927 80.4971 65.6927 80.0857V80.0009C65.6927 79.6137 65.6209 79.3233 65.4652 79.1297C65.3096 78.9362 65.0821 78.8394 64.7709 78.8394C64.3997 78.8394 64.1244 78.9725 63.9568 79.2266C63.7772 79.4806 63.6934 79.8799 63.6934 80.4002V80.6422H61.6941V80.4002C61.6941 79.2508 61.9455 78.3917 62.4483 77.823C62.9511 77.2543 63.6934 76.9639 64.699 76.9639C65.7047 76.9639 66.4469 77.218 66.9497 77.7262C67.4526 78.2344 67.704 78.9846 67.704 80.0009V80.0857C67.704 80.5697 67.5962 81.1141 67.3927 81.7433C67.1892 82.3604 66.8659 83.0501 66.4469 83.8003L64.1842 87.878H67.68V89.7172H61.7539V89.7293Z" fill="#3C3C3B"/>
<path d="M35.0567 76.25H33.5961V91.5322H35.0567V76.25Z" fill="#EE7203"/>
<path fill-rule="evenodd" clip-rule="evenodd" d="M42.907 56.9622C42.5358 57.2042 42.1887 57.5672 41.8774 58.0512C41.6619 58.3658 41.4344 58.7893 41.195 59.3217C41.0513 59.6363 40.8239 60.1687 40.5246 60.931C40.333 61.4029 40.1654 61.7659 40.0098 62.0079C39.8302 62.3346 39.5668 62.6734 39.2316 63.0122C38.7647 63.4962 38.214 63.8713 37.6034 64.1254C37.1964 64.2948 36.8252 64.3916 36.502 64.44H36.1069L36.4541 64.1738L37.2682 63.3631C37.6154 62.988 37.9027 62.6008 38.1302 62.2136C38.2858 61.9474 38.3936 61.7296 38.4654 61.5481L38.7767 60.7374C39.04 60.0477 39.4231 59.3822 39.926 58.753C40.3929 58.1722 40.8837 57.7245 41.3746 57.4099C41.7936 57.1558 42.1647 56.9985 42.5239 56.9501C42.7034 56.9259 42.8232 56.938 42.907 56.9501V56.9622Z" fill="#EE7203"/>
<path fill-rule="evenodd" clip-rule="evenodd" d="M45.409 56.9746C45.0379 57.2166 44.6907 57.5796 44.3795 58.0636C44.164 58.3782 43.9365 58.8016 43.6971 59.334C43.5534 59.6486 43.3259 60.181 43.0266 60.9433C42.8351 61.4152 42.6675 61.7782 42.5118 62.0202C42.3323 62.3469 42.0689 62.6857 41.7337 63.0245C41.2668 63.5085 40.7161 63.8836 40.1055 64.1377C39.6985 64.3071 39.3273 64.4039 39.0041 64.4523H38.609L38.9562 64.1861L39.7703 63.3754C40.1175 63.0003 40.4048 62.6131 40.6323 62.2259C40.7879 61.9597 40.8956 61.7419 40.9675 61.5604L41.2787 60.7497C41.5421 60.0601 41.9252 59.3946 42.428 58.7654C42.8949 58.1846 43.3858 57.7369 43.8766 57.4223C44.2957 57.1682 44.6668 57.0109 45.0259 56.9625C45.2055 56.9383 45.3252 56.9504 45.409 56.9625V56.9746Z" fill="#2E2D2C"/>
<path fill-rule="evenodd" clip-rule="evenodd" d="M47.8872 56.9623C47.5161 57.2043 47.1689 57.5673 46.8576 58.0513C46.6421 58.3659 46.4147 58.7894 46.1752 59.3218C46.0316 59.6364 45.8041 60.1688 45.5048 60.9311C45.3133 61.403 45.1457 61.766 44.99 62.008C44.8104 62.3347 44.5471 62.6735 44.2119 63.0123C43.7449 63.4963 43.1942 63.8714 42.5837 64.1255C42.1766 64.2949 41.8055 64.3917 41.4823 64.4401H41.0872L41.4344 64.1739L42.2485 63.3632C42.5956 62.9881 42.883 62.6009 43.1104 62.2137C43.2661 61.9475 43.3738 61.7297 43.4457 61.5482L43.7569 60.7375C44.0203 60.0478 44.4034 59.3823 44.9062 58.7531C45.3731 58.1723 45.864 57.7246 46.3548 57.41C46.7738 57.1559 47.145 56.9987 47.5041 56.9503C47.6837 56.9261 47.8034 56.9382 47.8872 56.9503V56.9623Z" fill="#EE7203"/>
<path d="M52.3528 64.428H51.2633V58.1118H50.4373V64.428H49.3239V57.9424C49.3239 57.6157 49.4077 57.3616 49.5633 57.1922C49.719 57.0228 49.9464 56.926 50.2218 56.926H51.1676C51.3711 56.926 51.5267 56.9865 51.6464 57.1196C51.7542 57.2406 51.814 57.4221 51.814 57.652C51.814 57.4221 51.8739 57.2406 51.9816 57.1196C52.0894 56.9986 52.245 56.926 52.4485 56.926H53.3943C53.6816 56.926 53.8971 57.0107 54.0647 57.1922C54.2204 57.3737 54.3042 57.6278 54.3042 57.9424V64.428H53.1788V58.1118H52.3647V64.428H52.3528Z" fill="#2E2D2C"/>
<path d="M55.0943 56.9139H56.2077V60.1446L57.0218 59.6848V56.9139H58.1472V63.339C58.1472 63.702 58.0753 63.9803 57.9197 64.1618C57.7641 64.3433 57.5246 64.428 57.2134 64.428H56.0042C55.7169 64.428 55.5014 64.3433 55.3458 64.1618C55.1901 63.9803 55.1063 63.7262 55.1063 63.3995V63.1333L56.2197 62.492V63.2422H57.0338V61.0279L55.1063 62.1411V56.9139H55.0943Z" fill="#2E2D2C"/>
<path d="M62.0141 56.9139V64.428H60.9127V60.9432L60.0627 61.4151V64.428H58.9613V56.9139H60.0627V60.0599L60.9127 59.6001V56.9139H62.0141Z" fill="#EE7203"/>
<path d="M65.5218 64.428H62.8282V56.9139H65.5218V58.1118H63.9416V60.0478L65.5218 59.1645V60.5076L63.9416 61.3909V63.2059H65.5218V64.4038V64.428Z" fill="#EE7203"/>
<path d="M69.269 64.4281H68.1557V61.2458L67.3296 61.7056V64.4281H66.2162V57.9425C66.2162 57.6158 66.3 57.3617 66.4556 57.1923C66.6113 57.0229 66.8387 56.9261 67.1141 56.9261H68.3592C68.6465 56.9261 68.862 57.0108 69.0296 57.1923C69.1852 57.3738 69.269 57.6279 69.269 57.9425V64.4281ZM68.1557 59.9148V58.0998H67.3296V60.3625L68.1557 59.9148Z" fill="#EE7203"/>
<path d="M70.8493 64.428V58.1118H69.7479V56.9139H73.0641V58.1118H71.9627V64.428H70.8493Z" fill="#EE7203"/>
<path d="M19.047 38.2195C19.8251 39.006 20.5913 39.7925 21.3575 40.5669C21.0942 40.8331 20.8188 41.1114 20.5435 41.3897C20.5315 41.3776 20.4956 41.3534 20.4716 41.3292C19.7294 40.579 18.9991 39.8409 18.2568 39.0907C18.2089 39.0423 18.173 39.0302 18.1012 39.0665C16.1618 40.2281 13.6836 39.1149 13.2286 36.8885C12.8695 35.1099 14.0188 33.3554 15.7787 32.9803C17.5505 32.6173 19.2744 33.7668 19.6336 35.5576C19.8132 36.4892 19.6336 37.3483 19.0949 38.1227C19.0709 38.1469 19.0589 38.1832 19.035 38.2074L19.047 38.2195ZM16.4371 33.6942C15.0603 33.6942 13.935 34.8316 13.935 36.223C13.935 37.6145 15.0603 38.7519 16.4371 38.7519C17.8139 38.7519 18.9392 37.6145 18.9392 36.223C18.9392 34.8316 17.8139 33.6942 16.4371 33.7063V33.6942Z" fill="#0D0D0D"/>
<path d="M13.2406 46.0483V43.0839H13.5878V46.0483H13.2406ZM13.492 43.4106V43.096H14.4498V43.4106H13.492ZM14.3061 46.0483V43.0839H14.6533V46.0483H14.3061Z" fill="#3C3C3B"/>
<path d="M15.6829 46.0846C15.4793 46.0846 15.3357 46.0362 15.2159 45.9273C15.1082 45.8184 15.0483 45.6732 15.0483 45.4675V44.5116C15.0483 44.318 15.1082 44.1728 15.2159 44.0639C15.3237 43.955 15.4793 43.9066 15.6829 43.9066C15.8864 43.9066 16.03 43.955 16.1378 44.0639C16.2455 44.1728 16.3054 44.318 16.3054 44.5116V45.4796C16.3054 45.6732 16.2575 45.8184 16.1378 45.9273C16.03 46.0362 15.8744 46.0846 15.6829 46.0846ZM15.6709 45.7579C15.7547 45.7579 15.8265 45.7337 15.8744 45.6853C15.9223 45.6369 15.9462 45.5643 15.9462 45.4675V44.5116C15.9462 44.4269 15.9223 44.3543 15.8744 44.3059C15.8265 44.2575 15.7547 44.2333 15.6709 44.2333C15.5871 44.2333 15.5152 44.2575 15.4674 44.3059C15.4195 44.3543 15.3955 44.4269 15.3955 44.5116V45.4675C15.3955 45.5643 15.4195 45.6369 15.4674 45.6853C15.5152 45.7337 15.5871 45.7579 15.6709 45.7579Z" fill="#3C3C3B"/>
<path d="M17.9815 46.0482H17.6462V44.5236L17.6941 44.572L16.9878 46.0361H16.7124V43.9186H17.0476V45.4674L16.9998 45.419L17.7061 43.9186H17.9815V46.0361V46.0482Z" fill="#3C3C3B"/>
<path d="M19.0589 46.0846C18.8434 46.0846 18.6878 46.0241 18.5681 45.9152C18.4484 45.8063 18.4005 45.649 18.4005 45.4433V44.56C18.4005 44.3543 18.4603 44.1849 18.5681 44.076C18.6878 43.955 18.8434 43.9066 19.0589 43.9066C19.2744 43.9066 19.4301 43.9671 19.5498 44.076C19.6695 44.197 19.7174 44.3543 19.7174 44.5721V44.6205H19.3822V44.5721C19.3822 44.4632 19.3582 44.3785 19.2984 44.318C19.2385 44.2575 19.1667 44.2333 19.0589 44.2333C18.9512 44.2333 18.8794 44.2575 18.8315 44.318C18.7716 44.3785 18.7477 44.4632 18.7477 44.5721V45.4554C18.7477 45.5522 18.7716 45.6369 18.8315 45.6853C18.8913 45.7337 18.9632 45.77 19.0589 45.77C19.1547 45.77 19.2385 45.7458 19.2984 45.6853C19.3582 45.6248 19.3822 45.5522 19.3822 45.4433V45.3949H19.7294V45.4433C19.7294 45.649 19.6695 45.8063 19.5498 45.9152C19.4301 46.0241 19.2744 46.0846 19.0589 46.0846Z" fill="#3C3C3B"/>
<path d="M20.0646 46.0483V43.9308H20.4118V46.0483H20.0646ZM20.2681 45.1529V44.8383H20.9984V45.1529H20.2681ZM21.1301 46.0483L20.6991 45.1166L20.9625 44.8867L21.5012 46.0362H21.1181L21.1301 46.0483ZM20.9625 45.1287L20.6991 44.8867L21.0582 43.9308H21.4174L20.9505 45.1287H20.9625Z" fill="#3C3C3B"/>
<path d="M16.9532 161.191H16.2262H7.77847V163.055H8.31742H8.61823V162.014H16.1009V163.055H16.2262H16.4017H16.7652H16.9532H17.0785V162.014H24.5486V163.055H24.8494H25.4009V161.82V161.191H16.9532Z" fill="#2E2D2C"/>
<path d="M26.9722 169.347C26.9123 168.439 26.182 167.713 25.2722 167.713H25.2363C24.3264 167.713 23.5961 168.439 23.5363 169.347V169.468V171.21H26.9961V169.347H26.9722Z" fill="#BE1622"/>
<path d="M24.6976 167.06L24.087 164.144H24.4462L24.8891 166.564L25.3321 164.144H25.6912L25.0807 167.06H24.6736H24.6976Z" fill="#3C3C3B"/>
<path d="M25.8349 165.559H27.0201V165.874H25.8349V165.559ZM26.5891 164.906V166.54H26.2539V164.906H26.5891Z" fill="#3C3C3B"/>
<path d="M18.4951 169.347C18.4352 168.439 17.7049 167.713 16.7951 167.713H16.7591C15.8493 167.713 15.119 168.439 15.0591 169.347V171.21H18.519V169.347H18.4951ZM17.9324 170.629H15.6218V169.383C15.6577 168.778 16.1486 168.294 16.7591 168.294H16.7831C17.3817 168.294 17.8725 168.778 17.9204 169.383V170.629H17.9324Z" fill="#C8A30D"/>
<path d="M17.9204 169.395C17.8845 168.79 17.3937 168.306 16.7831 168.306H16.7592C16.1606 168.306 15.6697 168.79 15.6218 169.395V170.641H17.9324V169.395H17.9204Z" fill="#FBD312"/>
<path d="M14.5085 167.06V164.144H14.8556V167.06H14.5085ZM14.712 167.06V166.745H15.3585C15.4303 166.745 15.4901 166.721 15.5261 166.685C15.562 166.648 15.5859 166.588 15.5859 166.503V164.688C15.5859 164.615 15.562 164.555 15.5261 164.507C15.4901 164.47 15.4303 164.446 15.3585 164.446H14.712V164.131H15.3465C15.538 164.131 15.6817 164.18 15.7775 164.277C15.8732 164.373 15.9331 164.519 15.9331 164.7V166.491C15.9331 166.612 15.9092 166.709 15.8613 166.793C15.8134 166.878 15.7535 166.939 15.6578 166.987C15.574 167.035 15.4662 167.048 15.3345 167.048H14.712V167.06Z" fill="#3C3C3B"/>
<path d="M16.0648 167.06L16.7592 164.144H17.1183L17.8127 167.06H17.4296L16.9268 164.603L16.424 167.06H16.0409H16.0648ZM16.4838 166.394V166.08H17.4416V166.394H16.4838Z" fill="#3C3C3B"/>
<path d="M17.8007 164.458V164.144H19.2613V164.458H17.8007ZM18.3514 167.06V164.386H18.6986V167.06H18.3514Z" fill="#3C3C3B"/>
<path d="M12.6989 156.775V159.691H12.3517V157.089L11.8489 157.392V157.041L12.2679 156.763H12.6989V156.775Z" fill="#3C3C3B"/>
<path d="M13.1299 158.493H14.1954V158.808H13.1299V158.493Z" fill="#3C3C3B"/>
<path d="M15.0215 159.703L14.5306 157.622H14.8539L15.1651 159.231L15.5003 157.622H15.7517L16.087 159.231L16.3982 157.622H16.7215L16.2306 159.703H15.9313L15.6201 158.263L15.3088 159.703H15.0095H15.0215Z" fill="#3C3C3B"/>
<path d="M17.0806 157.186V156.848H17.4278V157.186H17.0806ZM17.0806 159.703V157.622H17.4278V159.703H17.0806Z" fill="#3C3C3B"/>
<path d="M17.9067 159.703V157.622H18.2539V159.703H17.9067ZM18.8884 157.9H18.8405C18.6609 157.9 18.5172 157.948 18.4095 158.021C18.3017 158.106 18.2539 158.227 18.2419 158.372L18.194 157.973C18.2658 157.852 18.3616 157.743 18.4813 157.682C18.601 157.622 18.7327 157.573 18.8764 157.573V157.9H18.8884Z" fill="#3C3C3B"/>
<path d="M19.7982 159.727C19.5947 159.727 19.4271 159.667 19.3194 159.546C19.1997 159.425 19.1518 159.255 19.1518 159.037V158.311C19.1518 158.082 19.2116 157.9 19.3194 157.767C19.4271 157.634 19.5828 157.573 19.7863 157.573C19.9898 157.573 20.1454 157.634 20.2651 157.755C20.3729 157.876 20.4328 158.045 20.4328 158.251V158.783H19.3792V158.493H20.0975V158.263C20.0975 158.142 20.0736 158.045 20.0137 157.985C19.9539 157.924 19.882 157.888 19.7863 157.888C19.6905 157.888 19.6187 157.924 19.5588 157.997C19.5109 158.069 19.475 158.166 19.475 158.299V159.062C19.475 159.183 19.4989 159.267 19.5588 159.328C19.6187 159.388 19.6905 159.425 19.7982 159.425C19.894 159.425 19.9659 159.4 20.0137 159.352C20.0616 159.304 20.0975 159.231 20.0856 159.146H20.4208C20.4208 159.352 20.3609 159.497 20.2532 159.606C20.1454 159.715 19.9898 159.763 19.7863 159.763L19.7982 159.727Z" fill="#3C3C3B"/>
<path d="M9.54232 169.347C9.48246 168.439 8.75217 167.713 7.84231 167.713H7.80639C6.89653 167.713 6.16624 168.439 6.10638 169.347V169.468V171.21H9.56626V169.347H9.54232Z" fill="#2E2D2C"/>
<path d="M5.97467 165.487H6.70496V166.334C6.70496 166.491 6.68101 166.624 6.62115 166.745C6.56129 166.854 6.47749 166.939 6.36974 166.999C6.26199 167.06 6.1303 167.084 5.97467 167.084C5.81903 167.084 5.68734 167.06 5.5796 166.999C5.47185 166.939 5.38805 166.866 5.32819 166.757C5.26833 166.648 5.24438 166.527 5.24438 166.37V164.845C5.24438 164.688 5.26833 164.555 5.32819 164.446C5.38805 164.337 5.47185 164.253 5.5796 164.192C5.68734 164.132 5.81903 164.107 5.97467 164.107C6.1303 164.107 6.25002 164.132 6.35777 164.192C6.46552 164.253 6.54932 164.337 6.59721 164.446C6.65707 164.555 6.68101 164.688 6.68101 164.845V164.991H6.30988V164.845C6.30988 164.712 6.28594 164.615 6.22608 164.543C6.16622 164.47 6.08242 164.434 5.97467 164.434C5.85495 164.434 5.75918 164.47 5.69932 164.543C5.63946 164.615 5.60354 164.724 5.60354 164.858V166.382C5.60354 166.503 5.63946 166.6 5.71129 166.66C5.78312 166.733 5.87889 166.757 5.99861 166.757C6.11833 166.757 6.21411 166.721 6.27397 166.648C6.33383 166.576 6.36974 166.467 6.36974 166.346V165.801H5.98664V165.487H5.97467Z" fill="#3C3C3B"/>
<path d="M7.08807 167.06V164.144H7.39934L8.28526 166.455L8.2254 166.503V164.132H8.56062V167.048H8.24935L7.36343 164.761L7.42329 164.712V167.048H7.08807V167.06Z" fill="#3C3C3B"/>
<path d="M8.97961 167.06V164.144H9.3268V167.06H8.97961ZM9.18314 167.06V166.745H9.82962C9.90145 166.745 9.96131 166.721 9.99723 166.685C10.0331 166.648 10.0571 166.588 10.0571 166.503V164.688C10.0571 164.616 10.0331 164.555 9.99723 164.507C9.96131 164.47 9.90145 164.446 9.82962 164.446H9.18314V164.132H9.81765C10.0092 164.132 10.1529 164.18 10.2486 164.277C10.3444 164.374 10.4043 164.519 10.4043 164.7V166.491C10.4043 166.612 10.3803 166.709 10.3324 166.794C10.2845 166.878 10.2247 166.939 10.1289 166.987C10.0451 167.036 9.93737 167.048 9.80568 167.048H9.18314V167.06Z" fill="#3C3C3B"/>
<path d="M55.5453 161.191H54.8184H46.3706V163.055H46.9096H47.2104V162.014H54.693V163.055H54.8184H54.9938H55.3573H55.5453H55.6707V162.014H63.1408V163.055H63.4416H63.9931V161.82V161.191H55.5453Z" fill="#2E2D2C"/>
<path d="M65.5644 169.347C65.5045 168.439 64.7742 167.713 63.8643 167.713H63.8284C62.9186 167.713 62.1883 168.439 62.1284 169.347V169.468V171.21H65.5883V169.347H65.5644Z" fill="#BE1622"/>
<path d="M63.2897 167.06L62.6792 164.144H63.0383L63.4813 166.564L63.9242 164.144H64.2834L63.6728 167.06H63.2658H63.2897Z" fill="#3C3C3B"/>
<path d="M64.427 165.559H65.6123V165.874H64.427V165.559ZM65.1813 164.906V166.54H64.8461V164.906H65.1813Z" fill="#3C3C3B"/>
<path d="M57.0873 169.347C57.0274 168.439 56.2971 167.713 55.3872 167.713H55.3513C54.4415 167.713 53.7112 168.439 53.6513 169.347V171.21H57.1112V169.347H57.0873ZM56.5246 170.629H54.214V169.383C54.2499 168.778 54.7408 168.294 55.3513 168.294H55.3753C55.9739 168.294 56.4647 168.778 56.5126 169.383V170.629H56.5246Z" fill="#C8A30D"/>
<path d="M56.5126 169.395C56.4767 168.79 55.9858 168.306 55.3753 168.306H55.3513C54.7527 168.306 54.2619 168.79 54.214 169.395V170.641H56.5246V169.395H56.5126Z" fill="#FBD312"/>
<path d="M53.1006 167.06V164.144H53.4478V167.06H53.1006ZM53.3041 167.06V166.745H53.9506C54.0225 166.745 54.0823 166.721 54.1182 166.685C54.1541 166.648 54.1781 166.588 54.1781 166.503V164.688C54.1781 164.615 54.1541 164.555 54.1182 164.507C54.0823 164.47 54.0225 164.446 53.9506 164.446H53.3041V164.131H53.9386C54.1302 164.131 54.2739 164.18 54.3696 164.277C54.4654 164.373 54.5253 164.519 54.5253 164.7V166.491C54.5253 166.612 54.5013 166.709 54.4534 166.793C54.4056 166.878 54.3457 166.939 54.2499 166.987C54.1661 167.035 54.0584 167.048 53.9267 167.048H53.3041V167.06Z" fill="#3C3C3B"/>
<path d="M54.657 167.06L55.3513 164.144H55.7105L56.4048 167.06H56.0217L55.5189 164.603L55.0161 167.06H54.633H54.657ZM55.076 166.394V166.08H56.0337V166.394H55.076Z" fill="#3C3C3B"/>
<path d="M56.3929 164.458V164.144H57.8534V164.458H56.3929ZM56.9436 167.06V164.386H57.2908V167.06H56.9436Z" fill="#3C3C3B"/>
<path d="M51.2911 156.775V159.691H50.9439V157.089L50.4411 157.392V157.041L50.8601 156.763H51.2911V156.775Z" fill="#3C3C3B"/>
<path d="M51.7221 158.493H52.7876V158.808H51.7221V158.493Z" fill="#3C3C3B"/>
<path d="M53.6136 159.703L53.1228 157.622H53.446L53.7573 159.231L54.0925 157.622H54.3439L54.6791 159.231L54.9904 157.622H55.3136L54.8228 159.703H54.5235L54.2122 158.263L53.9009 159.703H53.6016H53.6136Z" fill="#3C3C3B"/>
<path d="M55.6728 157.186V156.848H56.02V157.186H55.6728ZM55.6728 159.703V157.622H56.02V159.703H55.6728Z" fill="#3C3C3B"/>
<path d="M56.4988 159.703V157.622H56.846V159.703H56.4988ZM57.4805 157.9H57.4326C57.2531 157.9 57.1094 157.948 57.0016 158.021C56.8939 158.106 56.846 158.227 56.834 158.372L56.7862 157.973C56.858 157.852 56.9538 157.743 57.0735 157.682C57.1932 157.622 57.3249 157.573 57.4685 157.573V157.9H57.4805Z" fill="#3C3C3B"/>
<path d="M58.3904 159.727C58.1869 159.727 58.0193 159.667 57.9115 159.546C57.7918 159.425 57.7439 159.255 57.7439 159.037V158.311C57.7439 158.082 57.8038 157.9 57.9115 157.767C58.0193 157.634 58.1749 157.573 58.3784 157.573C58.582 157.573 58.7376 157.634 58.8573 157.755C58.9651 157.876 59.0249 158.045 59.0249 158.251V158.783H57.9714V158.493H58.6897V158.263C58.6897 158.142 58.6658 158.045 58.6059 157.985C58.546 157.924 58.4742 157.888 58.3784 157.888C58.2827 157.888 58.2108 157.924 58.151 157.997C58.1031 158.069 58.0672 158.166 58.0672 158.299V159.062C58.0672 159.183 58.0911 159.267 58.151 159.328C58.2108 159.388 58.2827 159.425 58.3904 159.425C58.4862 159.425 58.558 159.4 58.6059 159.352C58.6538 159.304 58.6897 159.231 58.6777 159.146H59.0129C59.0129 159.352 58.9531 159.497 58.8453 159.606C58.7376 159.715 58.582 159.763 58.3784 159.763L58.3904 159.727Z" fill="#3C3C3B"/>
<path d="M48.1344 169.347C48.0746 168.439 47.3443 167.713 46.4344 167.713H46.3985C45.4887 167.713 44.7584 168.439 44.6985 169.347V169.468V171.21H48.1584V169.347H48.1344Z" fill="#2E2D2C"/>
<path d="M44.5668 165.487H45.2971V166.334C45.2971 166.491 45.2731 166.624 45.2133 166.745C45.1534 166.854 45.0696 166.939 44.9619 166.999C44.8541 167.06 44.7224 167.084 44.5668 167.084C44.4112 167.084 44.2795 167.06 44.1717 166.999C44.064 166.939 43.9802 166.866 43.9203 166.757C43.8605 166.648 43.8365 166.527 43.8365 166.37V164.845C43.8365 164.688 43.8605 164.555 43.9203 164.446C43.9802 164.337 44.064 164.253 44.1717 164.192C44.2795 164.132 44.4112 164.107 44.5668 164.107C44.7224 164.107 44.8422 164.132 44.9499 164.192C45.0577 164.253 45.1415 164.337 45.1893 164.446C45.2492 164.555 45.2731 164.688 45.2731 164.845V164.991H44.902V164.845C44.902 164.712 44.8781 164.615 44.8182 164.543C44.7584 164.47 44.6745 164.434 44.5668 164.434C44.4471 164.434 44.3513 164.47 44.2914 164.543C44.2316 164.615 44.1957 164.724 44.1957 164.858V166.382C44.1957 166.503 44.2316 166.6 44.3034 166.66C44.3753 166.733 44.471 166.757 44.5907 166.757C44.7105 166.757 44.8062 166.721 44.8661 166.648C44.926 166.576 44.9619 166.467 44.9619 166.346V165.801H44.5788V165.487H44.5668Z" fill="#3C3C3B"/>
<path d="M45.6802 167.06V164.144H45.9915L46.8774 166.455L46.8175 166.503V164.132H47.1527V167.048H46.8415L45.9556 164.761L46.0154 164.712V167.048H45.6802V167.06Z" fill="#3C3C3B"/>
<path d="M47.5718 167.06V164.144H47.9189V167.06H47.5718ZM47.7753 167.06V166.745H48.4218C48.4936 166.745 48.5535 166.721 48.5894 166.685C48.6253 166.648 48.6492 166.588 48.6492 166.503V164.688C48.6492 164.616 48.6253 164.555 48.5894 164.507C48.5535 164.47 48.4936 164.446 48.4218 164.446H47.7753V164.132H48.4098C48.6013 164.132 48.745 164.18 48.8408 164.277C48.9366 164.374 48.9964 164.519 48.9964 164.7V166.491C48.9964 166.612 48.9725 166.709 48.9246 166.794C48.8767 166.878 48.8168 166.939 48.7211 166.987C48.6373 167.036 48.5295 167.048 48.3978 167.048H47.7753V167.06Z" fill="#3C3C3B"/>
<path d="M35.8523 169.347C35.7925 168.439 35.0622 167.713 34.1523 167.713H34.1164C33.2065 167.713 32.4762 168.439 32.4164 169.347V171.21H35.8763V169.347H35.8523ZM35.2896 170.629H32.9791V169.383C33.015 168.778 33.5058 168.294 34.1164 168.294H34.1403C34.7389 168.294 35.2298 168.778 35.2777 169.383V170.629H35.2896Z" fill="#9D9D9C"/>
<path d="M34.5234 161.191H33.7213V167.06H34.5234V161.191Z" fill="#2E2D2C"/>
<path d="M32.5002 159.703V156.787H32.8114L33.6973 159.098L33.6375 159.146V156.775H33.9727V159.691H33.6614L32.7755 157.404L32.8354 157.356V159.691H32.5002V159.703Z" fill="#3C3C3B"/>
<path d="M35.0981 159.727C34.9544 159.727 34.8227 159.703 34.715 159.642C34.6072 159.582 34.5354 159.497 34.4755 159.388C34.4157 159.279 34.3917 159.146 34.3917 158.989V157.501C34.3917 157.343 34.4157 157.21 34.4755 157.101C34.5354 156.993 34.6072 156.908 34.715 156.847C34.8227 156.787 34.9424 156.763 35.0981 156.763C35.2537 156.763 35.3734 156.787 35.4812 156.847C35.5889 156.908 35.6607 156.993 35.7206 157.101C35.7685 157.21 35.8044 157.343 35.8044 157.501V157.622H35.4572V157.501C35.4572 157.416 35.4452 157.331 35.4213 157.271C35.3974 157.21 35.3495 157.162 35.3016 157.126C35.2537 157.089 35.1819 157.077 35.11 157.077C35.0023 157.077 34.9185 157.114 34.8467 157.186C34.7868 157.259 34.7509 157.368 34.7509 157.501V158.989C34.7509 159.122 34.7868 159.231 34.8467 159.304C34.9065 159.376 34.9903 159.413 35.11 159.413C35.2298 159.413 35.3136 159.376 35.3734 159.304C35.4333 159.231 35.4692 159.122 35.4692 158.989V158.868H35.8164V158.989C35.8164 159.146 35.7924 159.279 35.7326 159.388C35.6727 159.497 35.6009 159.582 35.4931 159.642C35.3854 159.703 35.2657 159.727 35.11 159.727H35.0981Z" fill="#3C3C3B"/>
<path d="M74.4544 169.347C74.3945 168.439 73.6642 167.713 72.7544 167.713H72.7184C71.8086 167.713 71.0783 168.439 71.0184 169.347V171.21H74.4783V169.347H74.4544ZM73.8917 170.629H71.5811V169.383C71.617 168.778 72.1079 168.294 72.7184 168.294H72.7424C73.341 168.294 73.8318 168.778 73.8797 169.383V170.629H73.8917Z" fill="#9D9D9C"/>
<path d="M73.1375 161.191H72.3353V167.06H73.1375V161.191Z" fill="#2E2D2C"/>
<path d="M71.1022 159.703V156.787H71.4135L72.2994 159.098L72.2396 159.146V156.775H72.5748V159.691H72.2635L71.3776 157.404L71.4375 157.356V159.691H71.1022V159.703Z" fill="#3C3C3B"/>
<path d="M73.7002 159.727C73.5565 159.727 73.4248 159.703 73.3171 159.642C73.2093 159.582 73.1375 159.497 73.0776 159.388C73.0178 159.279 72.9938 159.146 72.9938 158.989V157.501C72.9938 157.343 73.0178 157.21 73.0776 157.101C73.1375 156.993 73.2093 156.908 73.3171 156.847C73.4248 156.787 73.5445 156.763 73.7002 156.763C73.8558 156.763 73.9755 156.787 74.0833 156.847C74.191 156.908 74.2628 156.993 74.3227 157.101C74.3706 157.21 74.4065 157.343 74.4065 157.501V157.622H74.0593V157.501C74.0593 157.416 74.0473 157.331 74.0234 157.271C73.9995 157.21 73.9516 157.162 73.9037 157.126C73.8558 157.089 73.784 157.077 73.7121 157.077C73.6044 157.077 73.5206 157.114 73.4488 157.186C73.3889 157.259 73.353 157.368 73.353 157.501V158.989C73.353 159.122 73.3889 159.231 73.4488 159.304C73.5086 159.376 73.5924 159.413 73.7121 159.413C73.8319 159.413 73.9157 159.376 73.9755 159.304C74.0354 159.231 74.0713 159.122 74.0713 158.989V158.868H74.4185V158.989C74.4185 159.146 74.3945 159.279 74.3347 159.388C74.2748 159.497 74.203 159.582 74.0952 159.642C73.9875 159.703 73.8678 159.727 73.7121 159.727H73.7002Z" fill="#3C3C3B"/>
<path d="M2.98712 51.3024H76.9871" stroke="#212830" stroke-width="0.25" stroke-miterlimit="10"/>
<path d="M2.98712 151.302H76.9871" stroke="#212830" stroke-width="0.25" stroke-miterlimit="10"/>
<path d="M76.9871 51.3024V151.302" stroke="#212830" stroke-width="0.25" stroke-miterlimit="10"/>
<path d="M2.98712 51.3024V151.302" stroke="#212830" stroke-width="0.25" stroke-miterlimit="10"/>
</svg>
