<svg width="41" height="201" viewBox="0 0 41 201" fill="none" xmlns="http://www.w3.org/2000/svg">
<path d="M40.25 0.25H0.25V200.238H40.25V0.25Z" fill="white"/>
<path d="M0.25 0.25V200.25" stroke="black" stroke-width="0.5" stroke-linecap="round" stroke-linejoin="round"/>
<path d="M40.25 200.25H0.25" stroke="black" stroke-width="0.5" stroke-linecap="round" stroke-linejoin="round"/>
<path d="M0.25 26.3348H40.25" stroke="black" stroke-width="0.25" stroke-linecap="round" stroke-linejoin="round"/>
<path d="M0.25 171.058H40.25" stroke="black" stroke-width="0.25" stroke-linecap="round" stroke-linejoin="round"/>
<path d="M0.25 43.5467H40.25" stroke="black" stroke-width="0.25" stroke-linecap="round" stroke-linejoin="round"/>
<path d="M0.25 154.344H40.25" stroke="black" stroke-width="0.25" stroke-linecap="round" stroke-linejoin="round"/>
<path d="M40.25 0.25V200.25" stroke="black" stroke-width="0.5" stroke-linecap="round" stroke-linejoin="round"/>
<path d="M9.70784 7.61786H30.7801C33.8886 7.61786 36.4187 10.1547 36.4187 13.2985C36.4187 16.4301 33.9006 18.9791 30.7801 18.9791H9.70784C6.59941 18.9791 4.06929 16.4423 4.06929 13.2985C4.06929 10.1547 6.58736 7.61786 9.70784 7.61786Z" fill="#AFD5A9" stroke="#212830" stroke-width="0.25" stroke-miterlimit="10"/>
<path class="12VDC-OUT-GND" d="M26.1777 15.5926L31.009 10.7252M28.7319 16.7579C30.6283 16.7579 32.1657 15.2091 32.1657 13.2985C32.1657 11.388 30.6283 9.83914 28.7319 9.83914C26.8355 9.83914 25.2982 11.388 25.2982 13.2985C25.2982 15.2091 26.8355 16.7579 28.7319 16.7579Z" stroke="black" stroke-width="0.25" stroke-linecap="round"/>
<path class="12VDC-OUT-V+" d="M9.23793 15.5926L14.0693 10.7252M11.7922 16.7579C13.6886 16.7579 15.2259 15.2091 15.2259 13.2985C15.2259 11.388 13.6886 9.83914 11.7922 9.83914C9.89578 9.83914 8.35844 11.388 8.35844 13.2985C8.35844 15.2091 9.89578 16.7579 11.7922 16.7579Z" stroke="black" stroke-width="0.25" stroke-linecap="round"/>
<path d="M36.4187 185.648C36.4187 188.779 33.9006 191.328 30.7801 191.328H9.70784C6.59941 191.328 4.06929 188.792 4.06929 185.648C4.06929 182.504 6.58736 179.967 9.70784 179.967H30.7801C33.8886 179.967 36.4187 182.504 36.4187 185.648Z" fill="#AFD5A9" stroke="#212830" stroke-width="0.25" stroke-miterlimit="10"/>
<path class="N" d="M28.7319 189.107C30.6283 189.107 32.1657 187.558 32.1657 185.648C32.1657 183.737 30.6283 182.188 28.7319 182.188C26.8355 182.188 25.2982 183.737 25.2982 185.648C25.2982 187.558 26.8355 189.107 28.7319 189.107Z" fill="#C8C8CA"/>
<path d="M26.1777 187.954L31.009 183.087M32.1657 185.648C32.1657 187.558 30.6283 189.107 28.7319 189.107C26.8355 189.107 25.2982 187.558 25.2982 185.648C25.2982 183.737 26.8355 182.188 28.7319 182.188C30.6283 182.188 32.1657 183.737 32.1657 185.648Z" stroke="#212830" stroke-width="0.25" stroke-miterlimit="10"/>
<path class="L-IN" d="M11.7922 189.107C13.6886 189.107 15.2259 187.558 15.2259 185.648C15.2259 183.737 13.6886 182.188 11.7922 182.188C9.89578 182.188 8.35844 183.737 8.35844 185.648C8.35844 187.558 9.89578 189.107 11.7922 189.107Z" fill="#C8C8CA"/>
<path d="M9.23793 187.954L14.0693 183.087M15.2259 185.648C15.2259 187.558 13.6886 189.107 11.7922 189.107C9.89578 189.107 8.35844 187.558 8.35844 185.648C8.35844 183.737 9.89578 182.188 11.7922 182.188C13.6886 182.188 15.2259 183.737 15.2259 185.648Z" stroke="#212830" stroke-width="0.25" stroke-miterlimit="10"/>
<path d="M10.1295 159.332H11.0331V165.583H14.009V166.348H10.1295V159.332Z" fill="#1D1D1B"/>
<path d="M26.1536 166.348V159.781H27.0813L29.1657 163.107C29.6355 163.872 30.0211 164.564 30.3223 165.244H30.3464C30.2741 164.358 30.25 163.556 30.25 162.537V159.794H31.0452V166.36H30.1898L28.1175 163.022C27.6596 162.294 27.2259 161.541 26.9126 160.825H26.8886C26.9367 161.663 26.9488 162.452 26.9488 163.544V166.348H26.1536Z" fill="#1D1D1B"/>
<path d="M12.1175 32.1976V34.6495H14.4548V35.2685H12.1175V37.7326H11.4548V35.2685H9.11745V34.6495H11.4548V32.1976H12.1175Z" fill="#1D1D1B"/>
<path d="M30.009 34.5888V35.2564H27.4548V34.5888H30.009Z" fill="#1D1D1B"/>
<path d="M3.84035 80.2038L3.21385 80.5437L3.11746 80.1674L3.91264 79.7426H4.33433V83.4083H3.86445V80.216L3.84035 80.2038Z" fill="#1D1D1B"/>
<path d="M5.64761 83.4083V83.1049L6.03316 82.7286C6.96087 81.8425 7.38255 81.3691 7.38255 80.8107C7.38255 80.4345 7.21388 80.0946 6.67171 80.0946C6.34641 80.0946 6.0693 80.2645 5.90063 80.3981L5.744 80.046C5.99701 79.8397 6.35846 79.6698 6.76809 79.6698C7.55123 79.6698 7.87653 80.216 7.87653 80.7379C7.87653 81.4177 7.3946 81.9639 6.62352 82.7043L6.33436 82.9713H7.96087V83.384H5.64761V83.4083Z" fill="#1D1D1B"/>
<path d="M9.31025 83.4083L8.35844 79.6091H8.87652L9.3223 81.5269C9.43073 82.0003 9.53917 82.4737 9.59941 82.8378C9.65965 82.4616 9.78013 82.0124 9.91266 81.5148L10.4187 79.597H10.9247L11.3825 81.5269C11.491 81.976 11.5874 82.4251 11.6476 82.8257C11.7199 82.413 11.8283 81.9882 11.9488 81.5148L12.4428 79.597H12.9368L11.8645 83.3962H11.3584L10.8886 81.4177C10.7681 80.9321 10.6958 80.5559 10.6476 80.1796C10.5874 80.5559 10.503 80.9321 10.3584 81.4177L9.81627 83.3962H9.31025V83.4083Z" fill="#1D1D1B"/>
<path d="M12.997 83.6268L14.5512 79.5484H14.9368L13.3705 83.6268H12.997Z" fill="#1D1D1B"/>
<path d="M16.238 80.2038L15.6115 80.5437L15.5151 80.1674L16.3103 79.7426H16.7319V83.4083H16.2621V80.216L16.238 80.2038Z" fill="#1D1D1B"/>
<path d="M18.0452 83.4083V83.1049L18.4307 82.7286C19.3584 81.8425 19.7801 81.3691 19.7801 80.8107C19.7801 80.4345 19.6115 80.0946 19.0693 80.0946C18.744 80.0946 18.4669 80.2645 18.2982 80.3981L18.1416 80.046C18.3825 79.8397 18.744 79.6698 19.1657 79.6698C19.9488 79.6698 20.2741 80.216 20.2741 80.7379C20.2741 81.4177 19.7922 81.9639 19.0211 82.7043L18.7319 82.9713H20.3584V83.384H18.0452V83.4083Z" fill="#1D1D1B"/>
<path d="M22.2139 81.709V82.0732H20.8283V81.709H22.2139Z" fill="#1D1D1B"/>
<path d="M22.6356 83.4083V83.1049L23.0211 82.7286C23.9488 81.8425 24.3705 81.3691 24.3705 80.8107C24.3705 80.4345 24.2018 80.0946 23.6597 80.0946C23.3344 80.0946 23.0572 80.2645 22.8886 80.3981L22.7319 80.046C22.985 79.8397 23.3464 79.6698 23.756 79.6698C24.5392 79.6698 24.8645 80.216 24.8645 80.7379C24.8645 81.4177 24.3825 81.9639 23.6115 82.7043L23.3223 82.9713H24.9488V83.384H22.6356V83.4083Z" fill="#1D1D1B"/>
<path d="M27.0211 83.4083V82.4008H25.3343V82.0852L26.9608 79.7426H27.491V82.0124H27.997V82.4008H27.491V83.4083H27.0331H27.0211ZM27.0211 82.0245V80.7986C27.0211 80.6044 27.0211 80.4102 27.0331 80.2281H27.0211C26.9126 80.4466 26.8163 80.6044 26.7199 80.7743L25.8283 82.0245H27.0211Z" fill="#1D1D1B"/>
<path d="M28.1175 83.6268L29.6717 79.5484H30.0572L28.491 83.6268H28.1175Z" fill="#1D1D1B"/>
<path d="M30.4669 79.6698C30.7681 79.6212 31.1175 79.5848 31.503 79.5848C32.2018 79.5848 32.6958 79.7547 33.0331 80.0582C33.3705 80.3616 33.5753 80.8108 33.5753 81.4177C33.5753 82.0246 33.3825 82.5465 33.0331 82.8985C32.6717 83.2505 32.0934 83.4447 31.3584 83.4447C31.009 83.4447 30.7199 83.4326 30.4789 83.3962V79.6698H30.4669ZM30.9608 83.0199C31.0813 83.032 31.2621 83.0442 31.4548 83.0442C32.503 83.0442 33.0572 82.4615 33.0572 81.4298C33.0572 80.5316 32.5633 79.9611 31.5271 79.9611C31.2741 79.9611 31.0813 79.9854 30.9608 80.0096V83.0078V83.0199Z" fill="#1D1D1B"/>
<path d="M34.6837 79.6091V83.4083H34.1898V79.6091H34.6837Z" fill="#1D1D1B"/>
<path d="M35.5392 83.4083V79.6091H36.0813L37.2861 81.5269C37.5632 81.976 37.7801 82.3766 37.9608 82.765H37.9729C37.9247 82.2552 37.9126 81.794 37.9126 81.1992V79.6091H38.3705V83.4083H37.8765L36.6837 81.4784C36.4187 81.0535 36.1657 80.6166 35.9849 80.216H35.9729C35.997 80.7015 36.009 81.1506 36.009 81.7818V83.4083H35.5512H35.5392Z" fill="#1D1D1B"/>
<path class="POWER-INDICATOR" d="M33.9608 60.7707C35.2983 60.7707 36.3825 59.6784 36.3825 58.331C36.3825 56.9835 35.2983 55.8912 33.9608 55.8912C32.6234 55.8912 31.5392 56.9835 31.5392 58.331C31.5392 59.6784 32.6234 60.7707 33.9608 60.7707Z" fill="#c8c8c8" stroke="#1D1D1B" stroke-width="0.25" stroke-miterlimit="10"/>
<path d="M20.25 76.2347C22.4591 76.2347 24.25 74.4305 24.25 72.2049C24.25 69.9792 22.4591 68.175 20.25 68.175C18.0408 68.175 16.25 69.9792 16.25 72.2049C16.25 74.4305 18.0408 76.2347 20.25 76.2347Z" fill="#C8C8CA" stroke="#212830" stroke-width="0.25" stroke-miterlimit="10"/>
<path d="M17.3946 75.0209L23.0452 69.3281" stroke="#1D1D1B" stroke-width="0.25" stroke-miterlimit="10"/>
<path d="M25.9849 72.8967L26.7922 70.7118L24.8765 71.1367L25.9849 72.8967Z" fill="#212830"/>
<path d="M14.5994 71.0274C14.5994 68.2235 16.9729 65.9416 19.9126 65.9416C23.1295 65.9416 25.7319 68.2114 25.7319 71.0274" stroke="#212830" stroke-width="0.25" stroke-miterlimit="10"/>
<path d="M25.5753 75.8341L25.0211 74.1469H25.262L25.5271 74.9723C25.5994 75.203 25.6596 75.4093 25.7078 75.6035C25.756 75.4093 25.8163 75.1908 25.9006 74.9723L26.1777 74.1348H26.4066L25.8042 75.822H25.5632L25.5753 75.8341Z" fill="#1D1D1B"/>
<path d="M27.2138 74.499V75.0816H27.7801V75.2273H27.2138V75.8221H27.0572V75.2273H26.4909V75.0816H27.0572V74.499H27.2138Z" fill="#1D1D1B"/>
<path d="M8.35838 136.658L7.76802 136.974L7.68369 136.622L8.41862 136.221H8.80417V139.62H8.35838V136.658Z" fill="#1D1D1B"/>
<path d="M12.2741 137.896C12.2741 139.05 11.8403 139.693 11.1054 139.693C10.4427 139.693 9.99696 139.074 9.98492 137.945C9.98492 136.804 10.4789 136.185 11.1656 136.185C11.8524 136.185 12.2741 136.816 12.2741 137.909V137.896ZM10.4427 137.945C10.4427 138.831 10.7078 139.329 11.1295 139.329C11.5873 139.329 11.8162 138.783 11.8162 137.909C11.8162 137.035 11.6114 136.525 11.1295 136.525C10.7319 136.525 10.4427 137.01 10.4427 137.945Z" fill="#1D1D1B"/>
<path d="M14.9247 137.896C14.9247 139.05 14.4909 139.693 13.756 139.693C13.0934 139.693 12.6476 139.074 12.6355 137.945C12.6355 136.804 13.1295 136.185 13.8162 136.185C14.503 136.185 14.9247 136.816 14.9247 137.909V137.896ZM13.0934 137.945C13.0934 138.831 13.3584 139.329 13.7801 139.329C14.2379 139.329 14.4668 138.783 14.4668 137.909C14.4668 137.035 14.262 136.525 13.7801 136.525C13.3825 136.525 13.0934 137.01 13.0934 137.945Z" fill="#1D1D1B"/>
<path d="M16.5391 138.042V138.382H15.262V138.042H16.5391Z" fill="#1D1D1B"/>
<path d="M16.9247 139.62V139.341L17.2861 138.989C18.1415 138.163 18.5391 137.727 18.5391 137.217C18.5391 136.877 18.3825 136.549 17.8765 136.549C17.5753 136.549 17.3222 136.707 17.1656 136.84L17.021 136.513C17.25 136.318 17.5873 136.173 17.9729 136.173C18.6957 136.173 19.009 136.67 19.009 137.156C19.009 137.787 18.5632 138.285 17.8524 138.977L17.5873 139.232H19.0933V139.608H16.9367L16.9247 139.62Z" fill="#1D1D1B"/>
<path d="M20.9969 139.62V138.685H19.4307V138.382L20.9367 136.209H21.4307V138.321H21.9005V138.673H21.4307V139.608H20.9969V139.62ZM20.9969 138.346V137.217C20.9969 137.035 20.9969 136.865 21.009 136.683H20.9969C20.8885 136.877 20.8042 137.022 20.7198 137.18L19.9006 138.333H21.009L20.9969 138.346Z" fill="#1D1D1B"/>
<path d="M24.4909 137.896C24.4909 139.05 24.0572 139.693 23.3223 139.693C22.6596 139.693 22.2138 139.074 22.2018 137.945C22.2018 136.804 22.6958 136.185 23.3825 136.185C24.0693 136.185 24.4909 136.816 24.4909 137.909V137.896ZM22.6596 137.945C22.6596 138.831 22.9247 139.329 23.3464 139.329C23.8042 139.329 24.0331 138.783 24.0331 137.909C24.0331 137.035 23.8283 136.525 23.3464 136.525C22.9488 136.525 22.6596 137.01 22.6596 137.945Z" fill="#1D1D1B"/>
<path d="M25.8283 139.62L24.6837 136.1H25.1777L25.7198 137.836C25.8644 138.309 25.997 138.734 26.0933 139.147C26.1897 138.734 26.3343 138.297 26.4909 137.836L27.0813 136.1H27.5632L26.3102 139.62H25.8162H25.8283Z" fill="#1D1D1B"/>
<path d="M28.2259 138.516L27.8644 139.62H27.3945L28.5873 136.1H29.1295L30.3223 139.62H29.8403L29.4668 138.516H28.2259ZM29.3704 138.163L29.021 137.156C28.9488 136.925 28.8885 136.719 28.8403 136.513C28.7921 136.719 28.7319 136.938 28.6596 137.144L28.3223 138.163H29.3825H29.3704Z" fill="#1D1D1B"/>
<path d="M33.1897 139.511C33.0331 139.596 32.6957 139.681 32.262 139.681C31.274 139.681 30.5391 139.05 30.5391 137.896C30.5391 136.743 31.2861 136.051 32.3584 136.051C32.7921 136.051 33.0692 136.149 33.1897 136.209L33.0813 136.585C32.9126 136.501 32.6716 136.44 32.3825 136.44C31.5632 136.44 31.021 136.962 31.021 137.896C31.021 138.758 31.515 139.317 32.3584 139.317C32.6355 139.317 32.9126 139.256 33.1054 139.171L33.1897 139.535V139.511Z" fill="#1D1D1B"/>
<path d="M6.74394 144.148C6.74394 145.301 6.31021 145.944 5.57527 145.944C4.91262 145.944 4.46684 145.325 4.45479 144.196C4.45479 143.055 4.94876 142.436 5.63551 142.436C6.32226 142.436 6.74394 143.067 6.74394 144.16V144.148ZM4.91262 144.208C4.91262 145.094 5.17768 145.592 5.59937 145.592C6.0572 145.592 6.28611 145.046 6.28611 144.172C6.28611 143.298 6.08129 142.788 5.59937 142.788C5.20178 142.788 4.91262 143.274 4.91262 144.208Z" fill="#1D1D1B"/>
<path d="M7.18972 145.616C7.18972 145.434 7.32225 145.289 7.50297 145.289C7.6837 145.289 7.80418 145.422 7.80418 145.616C7.80418 145.81 7.6837 145.944 7.49092 145.944C7.3102 145.944 7.18972 145.798 7.18972 145.616Z" fill="#1D1D1B"/>
<path d="M8.22588 145.883V145.604L8.58732 145.252C9.44274 144.427 9.84033 143.99 9.84033 143.48C9.84033 143.14 9.68371 142.812 9.17768 142.812C8.87648 142.812 8.62347 142.97 8.46684 143.104L8.32226 142.776C8.55118 142.582 8.88853 142.436 9.27407 142.436C9.99696 142.436 10.3102 142.934 10.3102 143.419C10.3102 144.05 9.86443 144.548 9.15359 145.24L8.88853 145.495H10.3946V145.871H8.23792L8.22588 145.883Z" fill="#1D1D1B"/>
<path d="M11.8765 142.922L11.2861 143.237L11.2018 142.885L11.9367 142.485H12.3223V145.883H11.8765V142.922Z" fill="#1D1D1B"/>
<path d="M14.2741 144.779L13.9126 145.883H13.4427L14.6355 142.363H15.1777L16.3704 145.883H15.8885L15.515 144.779H14.2741ZM15.4186 144.427L15.0692 143.419C14.9969 143.189 14.9367 142.982 14.8885 142.776C14.8403 142.982 14.7801 143.201 14.7078 143.407L14.3704 144.427H15.4307H15.4186Z" fill="#1D1D1B"/>
<path d="M19.8283 142.873H18.5391L18.4066 143.747C18.4789 143.747 18.5512 143.735 18.6837 143.735C18.9488 143.735 19.2018 143.783 19.4066 143.917C19.6717 144.063 19.8885 144.366 19.8885 144.779C19.8885 145.446 19.3705 145.944 18.6355 145.944C18.262 145.944 17.9608 145.835 17.7921 145.738L17.9006 145.386C18.0452 145.471 18.3102 145.568 18.6235 145.568C19.0452 145.568 19.4186 145.289 19.4186 144.827C19.4186 144.39 19.1174 144.075 18.4548 144.075C18.262 144.075 18.1054 144.087 17.9849 144.111L18.2018 142.485H19.8162V142.873H19.8283Z" fill="#1D1D1B"/>
<path d="M22.7199 144.148C22.7199 145.301 22.2861 145.944 21.5512 145.944C20.8885 145.944 20.4428 145.325 20.4307 144.196C20.4307 143.055 20.9247 142.436 21.6114 142.436C22.2982 142.436 22.7199 143.067 22.7199 144.16V144.148ZM20.8885 144.208C20.8885 145.094 21.1536 145.592 21.5753 145.592C22.0331 145.592 22.262 145.046 22.262 144.172C22.262 143.298 22.0572 142.788 21.5753 142.788C21.1777 142.788 20.8885 143.274 20.8885 144.208Z" fill="#1D1D1B"/>
<path d="M22.8885 146.09L24.3343 142.303H24.6957L23.2379 146.09H22.8885Z" fill="#1D1D1B"/>
<path d="M26.8283 142.812C26.7319 142.812 26.6114 142.812 26.491 142.837C25.7681 142.946 25.3946 143.468 25.3223 144.038C25.4789 143.82 25.7681 143.638 26.1416 143.638C26.744 143.638 27.1536 144.075 27.1536 144.73C27.1536 145.386 26.7319 145.932 26.0331 145.932C25.3343 145.932 24.8403 145.373 24.8403 144.487C24.8403 143.82 25.0693 143.286 25.4066 142.958C25.6837 142.679 26.0572 142.509 26.4789 142.46C26.6114 142.436 26.7319 142.436 26.8162 142.436V142.812H26.8283ZM26.6958 144.779C26.6958 144.293 26.4187 144.002 25.997 144.002C25.7199 144.002 25.4669 144.172 25.3343 144.415C25.3102 144.463 25.2861 144.524 25.2861 144.609C25.2861 145.167 25.5512 145.58 26.0331 145.58C26.4187 145.58 26.6837 145.252 26.6837 144.767L26.6958 144.779Z" fill="#1D1D1B"/>
<path d="M29.8042 144.148C29.8042 145.301 29.3705 145.944 28.6355 145.944C27.9729 145.944 27.5271 145.325 27.515 144.196C27.515 143.055 28.009 142.436 28.6958 142.436C29.3825 142.436 29.8042 143.067 29.8042 144.16V144.148ZM27.9729 144.208C27.9729 145.094 28.2379 145.592 28.6596 145.592C29.1174 145.592 29.3464 145.046 29.3464 144.172C29.3464 143.298 29.1415 142.788 28.6596 142.788C28.262 142.788 27.9729 143.274 27.9729 144.208Z" fill="#1D1D1B"/>
<path d="M30.8283 142.363V143.832H32.515V142.363H32.9729V145.883H32.515V144.233H30.8283V145.883H30.3705V142.363H30.8283Z" fill="#1D1D1B"/>
<path d="M33.515 145.616L35.4548 142.764L33.6837 142.752V142.375H36.0451V142.655L34.1174 145.507L36.0692 145.519V145.895H33.515V145.628V145.616Z" fill="#1D1D1B"/>
<path d="M13.9247 45.4159L13.3343 45.7315L13.25 45.3795L13.9849 44.979H14.3705V48.3776H13.9247V45.4159Z" fill="#1D1D1B"/>
<path d="M15.5874 48.3898V48.1106L15.9488 47.7586C16.8042 46.9332 17.2018 46.4962 17.2018 45.9864C17.2018 45.6465 17.0452 45.3188 16.5392 45.3188C16.238 45.3188 15.9849 45.4766 15.8283 45.6101L15.6837 45.2824C15.9127 45.0882 16.25 44.9425 16.6356 44.9425C17.3584 44.9425 17.6717 45.4402 17.6717 45.9257C17.6717 46.5569 17.2139 47.0546 16.5151 47.7464L16.25 48.0013H17.756V48.3776H15.5994L15.5874 48.3898Z" fill="#1D1D1B"/>
<path d="M19.4428 46.8119V47.1517H18.1656V46.8119H19.4428Z" fill="#1D1D1B"/>
<path d="M19.8283 48.3898V48.1106L20.1897 47.7586C21.0452 46.9332 21.4428 46.4962 21.4428 45.9864C21.4428 45.6465 21.2861 45.3188 20.7801 45.3188C20.4789 45.3188 20.2259 45.4766 20.0693 45.6101L19.9247 45.2824C20.1536 45.0882 20.4909 44.9425 20.8765 44.9425C21.5994 44.9425 21.9126 45.4402 21.9126 45.9257C21.9126 46.5569 21.4548 47.0546 20.756 47.7464L20.4909 48.0013H21.997V48.3776H19.8403L19.8283 48.3898Z" fill="#1D1D1B"/>
<path d="M23.9006 48.3898V47.4552H22.3343V47.1517L23.8403 44.979H24.3343V47.091H24.8042V47.443H24.3343V48.3776H23.9006V48.3898ZM23.9006 47.1031V45.9743C23.9006 45.7922 23.9006 45.6223 23.9126 45.4402H23.9006C23.7921 45.6344 23.7198 45.7801 23.6235 45.9379L22.8042 47.091H23.9126L23.9006 47.1031Z" fill="#1D1D1B"/>
<path d="M26.0693 48.3898L24.9247 44.8697H25.4187L25.9608 46.6055C26.1054 47.0789 26.2379 47.5037 26.3343 47.9164C26.4307 47.5037 26.5753 47.0667 26.7319 46.6055L27.3223 44.8697H27.8042L26.5512 48.3898H26.0572H26.0693Z" fill="#1D1D1B"/>
<path d="M12.7078 51.6792L12.1175 51.9948L12.0331 51.6428L12.7681 51.2422H13.1536V54.6409H12.7078V51.6792Z" fill="#1D1D1B"/>
<path d="M14.4066 54.3738C14.4066 54.1918 14.5391 54.0461 14.7199 54.0461C14.9006 54.0461 15.0211 54.1796 15.0211 54.3738C15.0211 54.5681 14.9006 54.7016 14.7078 54.7016C14.5271 54.7016 14.4066 54.5559 14.4066 54.3738Z" fill="#1D1D1B"/>
<path d="M17.6837 52.9173C17.6837 54.0704 17.25 54.7138 16.5151 54.7138C15.8644 54.7138 15.4066 54.0947 15.3946 52.9659C15.3946 51.8249 15.8885 51.2058 16.5753 51.2058C17.262 51.2058 17.6837 51.837 17.6837 52.9295V52.9173ZM15.8644 52.9659C15.8644 53.852 16.1295 54.3496 16.5512 54.3496C17.009 54.3496 17.2379 53.8034 17.2379 52.9295C17.2379 52.0555 17.0331 51.5457 16.5512 51.5457C16.1536 51.5457 15.8644 52.0312 15.8644 52.9659Z" fill="#1D1D1B"/>
<path d="M19.3102 53.075V53.4149H18.0331V53.075H19.3102Z" fill="#1D1D1B"/>
<path d="M21.9367 52.9173C21.9367 54.0704 21.503 54.7138 20.7681 54.7138C20.1175 54.7138 19.6596 54.0947 19.6476 52.9659C19.6476 51.8249 20.1416 51.2058 20.8283 51.2058C21.515 51.2058 21.9367 51.837 21.9367 52.9295V52.9173ZM20.1054 52.9659C20.1054 53.852 20.3705 54.3496 20.7922 54.3496C21.25 54.3496 21.4789 53.8034 21.4789 52.9295C21.4789 52.0555 21.2741 51.5457 20.7922 51.5457C20.3946 51.5457 20.1054 52.0312 20.1054 52.9659Z" fill="#1D1D1B"/>
<path d="M22.3825 54.3738C22.3825 54.1918 22.515 54.0461 22.6958 54.0461C22.8765 54.0461 22.997 54.1796 22.997 54.3738C22.997 54.5681 22.8765 54.7016 22.6837 54.7016C22.503 54.7016 22.3825 54.5559 22.3825 54.3738Z" fill="#1D1D1B"/>
<path d="M25.4307 51.6428H24.1416L24.009 52.5167C24.0813 52.5167 24.1536 52.5046 24.2861 52.5046C24.5512 52.5046 24.8042 52.5531 25.009 52.6867C25.2741 52.8323 25.4909 53.1358 25.4909 53.5485C25.4909 54.2161 24.9729 54.7137 24.2379 54.7137C23.8765 54.7137 23.5632 54.6045 23.3946 54.5074L23.515 54.1554C23.6596 54.2403 23.9247 54.3374 24.2379 54.3374C24.6596 54.3374 25.0331 54.0583 25.0331 53.597C25.0331 53.16 24.744 52.8445 24.0693 52.8445C23.8765 52.8445 23.7199 52.8566 23.5994 52.8809L23.8162 51.2544H25.4307V51.6428Z" fill="#1D1D1B"/>
<path d="M26.8042 53.5485L26.4428 54.6531H25.9729L27.1657 51.133H27.7078L28.9006 54.6531H28.4187L28.0452 53.5485H26.8042ZM27.9608 53.1844L27.6114 52.1769C27.5391 51.9463 27.4789 51.7399 27.4307 51.5336C27.3825 51.7399 27.3223 51.9584 27.25 52.1648L26.9006 53.1844H27.9608Z" fill="#1D1D1B"/>
<path d="M14.8644 97.8163V98.4839H12.2138V100.147C12.4066 100.122 12.7681 100.098 12.9729 100.098C13.5512 100.098 14.1295 100.232 14.5512 100.511C15.0211 100.814 15.3343 101.3 15.3343 102.016C15.3343 102.599 15.1295 103.048 14.8283 103.363C14.3223 103.861 13.503 104.055 12.6596 104.055C12.1054 104.055 11.6837 104.019 11.4187 103.982V97.8163H14.8524H14.8644ZM12.2138 103.376C12.3946 103.412 12.5994 103.424 12.8765 103.424C13.3705 103.424 13.8644 103.266 14.1656 102.951C14.3705 102.732 14.503 102.429 14.503 102.04C14.503 101.567 14.2982 101.239 13.997 101.033C13.6837 100.814 13.2741 100.717 12.8283 100.717C12.6596 100.717 12.4066 100.742 12.2018 100.754V103.376H12.2138Z" fill="#1D1D1B"/>
<path d="M19.7078 99.552V103.995H18.9006V100.195H17.3946V101.336C17.3946 102.587 17.2741 103.412 16.7078 103.788C16.4909 103.958 16.2379 104.067 15.8283 104.067L15.744 103.436C15.9006 103.412 16.0693 103.339 16.1777 103.254C16.5873 102.951 16.6355 102.332 16.6355 101.336V99.5642H19.7078V99.552Z" fill="#1D1D1B"/>
<path d="M24.997 101.737C24.997 103.376 23.8644 104.092 22.8042 104.092C21.6235 104.092 20.6958 103.206 20.6958 101.81C20.6958 100.329 21.6717 99.4671 22.8765 99.4671C24.0813 99.4671 24.997 100.39 24.997 101.737ZM21.515 101.785C21.515 102.757 22.0572 103.485 22.8403 103.485C23.6235 103.485 24.1777 102.757 24.1777 101.761C24.1777 101.009 23.8042 100.062 22.8644 100.062C21.9247 100.062 21.515 100.948 21.515 101.773V101.785Z" fill="#1D1D1B"/>
<path d="M26.8042 99.552V101.482H26.997L28.6476 99.552H29.6235L27.7078 101.555C28.4187 101.64 28.8404 102.113 29.1898 102.914C29.3102 103.206 29.4548 103.643 29.6476 103.995H28.8163C28.6958 103.8 28.5512 103.448 28.4066 103.084C28.1054 102.368 27.6958 102.04 26.9608 102.04H26.8042V103.995H26.009V99.552H26.8042Z" fill="#1D1D1B"/>
<path d="M8.64759 108.826V115.004H7.85241V109.493H5.00904V115.004H4.20181V108.826H8.64759Z" fill="#1D1D1B"/>
<path d="M10.7319 110.561V112.431C10.7319 113.122 10.7199 113.572 10.6837 114.215H10.7078C10.9849 113.681 11.1295 113.377 11.4307 112.855L12.8042 110.561H13.744V115.004H12.9849V113.122C12.9849 112.394 12.997 112.018 13.0331 111.302H13.0211C12.7319 111.884 12.5512 112.236 12.2861 112.685C11.8644 113.377 11.3825 114.227 10.9126 115.004H9.98493V110.561H10.744H10.7319Z" fill="#1D1D1B"/>
<path d="M17.9849 110.561V111.192H16.6114V114.992H15.8042V111.192H14.4307V110.561H17.9849Z" fill="#1D1D1B"/>
<path d="M21.7199 113.936C21.7199 114.324 21.744 114.7 21.7801 115.004H21.0572L20.997 114.446H20.9729C20.7319 114.798 20.25 115.101 19.6235 115.101C18.7319 115.101 18.2741 114.47 18.2741 113.826C18.2741 112.758 19.2259 112.164 20.9247 112.176V112.079C20.9247 111.727 20.8283 111.047 19.9247 111.059C19.503 111.059 19.0813 111.18 18.7681 111.387L18.5873 110.84C18.9488 110.61 19.4909 110.452 20.0452 110.452C21.3946 110.452 21.7199 111.375 21.7199 112.261V113.924V113.936ZM20.9488 112.734C20.0693 112.71 19.0813 112.868 19.0813 113.729C19.0813 114.263 19.4307 114.494 19.8283 114.494C20.4066 114.494 20.7801 114.13 20.9126 113.754C20.9367 113.657 20.9488 113.572 20.9488 113.499V112.734Z" fill="#1D1D1B"/>
<path d="M23.7922 110.561V112.346H25.8765V110.561H26.6837V115.004H25.8765V113.001H23.7922V115.004H22.9849V110.561H23.7922Z" fill="#1D1D1B"/>
<path d="M28.7319 110.561V112.431C28.7319 113.122 28.7198 113.572 28.6837 114.215H28.7078C28.9849 113.681 29.1295 113.377 29.4307 112.855L30.8042 110.561H31.7439V115.004H30.9849V113.122C30.9849 112.394 30.997 112.018 31.0331 111.302H31.0211C30.7319 111.884 30.5512 112.236 30.2861 112.685C29.8644 113.377 29.3825 114.227 28.9126 115.004H27.9849V110.561H28.7439H28.7319Z" fill="#1D1D1B"/>
<path d="M36.2861 115.004H35.4909V113.147H34.9006C34.5632 113.147 34.3343 113.244 34.1777 113.402C33.8403 113.669 33.7199 114.203 33.5512 114.64C33.4909 114.773 33.4307 114.895 33.3705 115.004H32.515C32.6114 114.858 32.7078 114.688 32.7922 114.494C32.9849 114.069 33.0934 113.487 33.4789 113.159C33.6114 113.038 33.7801 112.953 33.9849 112.904V112.88C33.4066 112.819 32.8162 112.455 32.8162 111.775C32.8162 111.314 33.0572 111.01 33.3946 110.816C33.756 110.598 34.2982 110.513 34.8765 110.513C35.3946 110.513 35.9006 110.549 36.2861 110.61V115.016V115.004ZM35.4909 111.095C35.2861 111.071 35.1054 111.047 34.8283 111.047C34.2861 111.047 33.6355 111.205 33.6355 111.812C33.6355 112.382 34.3343 112.588 34.8042 112.588H35.4909V111.083V111.095Z" fill="#1D1D1B"/>
<path d="M0.25 0.25H40.25" stroke="black" stroke-width="0.5" stroke-linecap="round" stroke-linejoin="round"/>
</svg>
