<svg width="81" height="201" viewBox="0 0 81 201" fill="none" xmlns="http://www.w3.org/2000/svg">
<path d="M80.2501 0.25H0.358002V200.25H80.2501V0.25Z" fill="white"/>
<path d="M35.6508 0.25H53.1327" stroke="#212830" stroke-width="0.5" stroke-miterlimit="10" stroke-linecap="square"/>
<path d="M0.25 0.25V200.25" stroke="#212830" stroke-width="0.5" stroke-miterlimit="10" stroke-linecap="square"/>
<path d="M0.358002 200.25H80.2501" stroke="#212830" stroke-width="0.5" stroke-miterlimit="10" stroke-linecap="square"/>
<path d="M80.25 200.25V0.25" stroke="#212830" stroke-width="0.5" stroke-miterlimit="10" stroke-linecap="square"/>
<path d="M80.25 0.25H53.1327" stroke="#212830" stroke-width="0.5" stroke-miterlimit="10" stroke-linecap="square"/>
<path d="M35.6508 0.25H0.25" stroke="#212830" stroke-width="0.5" stroke-miterlimit="10" stroke-linecap="square"/>
<path d="M0.25 153.872H80.25" stroke="#212830" stroke-width="0.5" stroke-miterlimit="10" stroke-linecap="square"/>
<path d="M0.25 48.0825H80.25" stroke="#212830" stroke-width="0.5" stroke-miterlimit="10" stroke-linecap="square"/>
<path d="M0.25 30.2104H80.25" stroke="#212830" stroke-width="0.5" stroke-miterlimit="10" stroke-linecap="square"/>
<path d="M2.35516 4.03497V29.75" stroke="#212830" stroke-width="0.5" stroke-miterlimit="10" stroke-linecap="square"/>
<path d="M4.35248 53.25H77.2541V151.25H4.35248V53.25Z" stroke="#212830" stroke-width="0.25" stroke-miterlimit="10" stroke-linecap="square"/>
<path d="M2.35516 195.554H78.752" stroke="#212830" stroke-width="0.5" stroke-miterlimit="10" stroke-linecap="square"/>
<path d="M0.25 171.307H80.25" stroke="#212830" stroke-width="0.5" stroke-miterlimit="10" stroke-linecap="square"/>
<path d="M1.85583 171.307V195.554" stroke="#212830" stroke-width="0.5" stroke-miterlimit="10" stroke-linecap="square"/>
<path d="M78.752 195.554V171.307" stroke="#212830" stroke-width="0.5" stroke-miterlimit="10" stroke-linecap="square"/>
<path d="M39.1465 191.261V178.948H3.61581V191.261" fill="#AFD5A9"/>
<path d="M39.1465 191.261V178.948H3.61581V191.261" stroke="#212830" stroke-width="0.25" stroke-miterlimit="10"/>
<path d="M39.1465 174.394H3.61581V178.948H39.1465V174.394Z" fill="#5EB34A" stroke="#1D1D1B" stroke-width="0.25" stroke-miterlimit="10"/>
<path d="M39.1465 191.261H3.61581V193.236H39.1465V191.261Z" fill="#5EB34A" stroke="#1D1D1B" stroke-width="0.25" stroke-miterlimit="10"/>
<path class="EXT-IN-A" d="M23.2711 182.993L23.8027 182.555L24.3342 182.295L24.972 182.082L25.6099 182.023L26.2478 182.082L26.8856 182.295L27.4171 182.555L27.9487 182.993L28.3739 183.525L28.6456 184.057L28.8582 184.696L28.9173 185.335L28.8582 185.974L28.6456 186.612L28.3739 187.145L27.9487 187.677L27.4171 188.114L26.8856 188.375L26.2478 188.588L25.6099 188.647L24.972 188.588L24.3342 188.375L23.8027 188.114L23.2711 187.677L22.8341 187.145L22.5742 186.612L22.3616 185.974L22.3025 185.335L22.3616 184.696L22.5742 184.057L22.8341 183.525L23.2711 182.993ZM23.2711 182.993L27.9605 187.689" stroke="#212830" stroke-width="0.25" stroke-miterlimit="10" stroke-linecap="square"/>
<path class="EXT-IN-B" d="M31.8703 182.993L32.4019 182.555L32.9334 182.295L33.5831 182.082L34.2209 182.023L34.8588 182.082L35.4966 182.295L36.0282 182.555L36.5597 182.993L36.9849 183.525L37.2566 184.057L37.4692 184.696L37.5165 185.335L37.4692 185.974L37.2566 186.612L36.9849 187.145L36.5597 187.677L36.0282 188.114L35.4966 188.375L34.8588 188.588L34.2209 188.647L33.5831 188.588L32.9334 188.375L32.4019 188.114L31.8703 187.677L31.4451 187.145L31.1852 186.612L30.9726 185.974L30.9135 185.335L30.9726 184.696L31.1852 184.057L31.4451 183.525L31.8703 182.993ZM31.8703 182.993L36.5597 187.689" stroke="#212830" stroke-width="0.25" stroke-miterlimit="10" stroke-linecap="square"/>
<path class="12VDC-IN-GND" d="M14.6601 182.993L15.1917 182.555L15.7232 182.295L16.3611 182.082L16.9989 182.023L17.6368 182.082L18.2864 182.295L18.818 182.555L19.3495 182.993L19.7747 183.525L20.0346 184.057L20.2472 184.696L20.3063 185.335L20.2472 185.974L20.0346 186.612L19.7747 187.145L19.3495 187.677L18.818 188.114L18.2864 188.375L17.6368 188.588L16.9989 188.647L16.3611 188.588L15.7232 188.375L15.1917 188.114L14.6601 187.677L14.2349 187.145L13.9632 186.612L13.7506 185.974L13.7033 185.335L13.7506 184.696L13.9632 184.057L14.2349 183.525L14.6601 182.993ZM14.6601 182.993L19.3495 187.689" stroke="#212830" stroke-width="0.25" stroke-miterlimit="10" stroke-linecap="square"/>
<path class="12VDC-IN-V+" d="M5.81286 182.993L6.3444 182.555L6.87594 182.295L7.52561 182.082L8.16346 182.023L8.80131 182.082L9.43916 182.295L9.97071 182.555L10.5023 182.993L10.9275 183.525L11.1992 184.057L11.4118 184.696L11.459 185.335L11.4118 185.974L11.1992 186.612L10.9275 187.145L10.5023 187.677L9.97071 188.114L9.43916 188.375L8.80131 188.588L8.16346 188.647L7.52561 188.588L6.87594 188.375L6.3444 188.114L5.81286 187.677L5.38762 187.145L5.12776 186.612L4.91514 185.974L4.85608 185.335L4.91514 184.696L5.12776 184.057L5.38762 183.525L5.81286 182.993ZM5.81286 182.993L10.5022 187.689" stroke="#212830" stroke-width="0.25" stroke-miterlimit="10" stroke-linecap="square"/>
<path d="M6.39166 174.394V178.132H9.8526V174.394" fill="#0C9B47"/>
<path d="M6.39166 174.394V178.132H9.8526V174.394" stroke="#212830" stroke-width="0.25" stroke-miterlimit="10"/>
<path d="M15.3334 174.394V178.132H18.8062V174.394" fill="#0C9B47"/>
<path d="M15.3334 174.394V178.132H18.8062V174.394" stroke="#212830" stroke-width="0.25" stroke-miterlimit="10"/>
<path d="M24.1334 174.394V178.132H27.5943V174.394" fill="#0C9B47"/>
<path d="M24.1334 174.394V178.132H27.5943V174.394" stroke="#212830" stroke-width="0.25" stroke-miterlimit="10"/>
<path d="M32.9216 174.394V178.132H36.3825V174.394" fill="#0C9B47"/>
<path d="M32.9216 174.394V178.132H36.3825V174.394" stroke="#212830" stroke-width="0.25" stroke-miterlimit="10"/>
<path d="M76.8333 191.391V179.09H41.3026V191.391" fill="#AFD5A9"/>
<path d="M76.8333 191.391V179.09H41.3026V191.391" stroke="#212830" stroke-width="0.25" stroke-miterlimit="10"/>
<path d="M76.8333 174.536H41.3026V179.09H76.8333V174.536Z" fill="#5EB34A" stroke="#1D1D1B" stroke-width="0.25" stroke-miterlimit="10"/>
<path d="M76.8333 191.391H41.3026V193.366H76.8333V191.391Z" fill="#5EB34A" stroke="#1D1D1B" stroke-width="0.25" stroke-miterlimit="10"/>
<path class="EXT-OUT-A" d="M60.9579 183.123L61.4894 182.697L62.021 182.437L62.6588 182.224L63.2967 182.165L63.9345 182.224L64.5724 182.437L65.1039 182.697L65.6355 183.123L66.0725 183.655L66.3324 184.199L66.545 184.838L66.604 185.477L66.545 186.115L66.3324 186.754L66.0725 187.286L65.6355 187.819L65.1039 188.245L64.5724 188.517L63.9345 188.729L63.2967 188.777L62.6588 188.729L62.021 188.517L61.4894 188.245L60.9579 187.819L60.5326 187.286L60.261 186.754L60.0483 186.115L59.9893 185.477L60.0483 184.838L60.261 184.199L60.5326 183.655L60.9579 183.123ZM60.9579 183.123L65.6472 187.819" stroke="#212830" stroke-width="0.25" stroke-miterlimit="10" stroke-linecap="square"/>
<path class="EXT-OUT-B" d="M69.557 183.123L70.0886 182.697L70.6201 182.437L71.2698 182.224L71.9076 182.165L72.5455 182.224L73.1833 182.437L73.7149 182.697L74.2464 183.123L74.6717 183.655L74.9433 184.199L75.156 184.838L75.2032 185.477L75.156 186.115L74.9433 186.754L74.6717 187.286L74.2464 187.819L73.7149 188.245L73.1833 188.517L72.5455 188.729L71.9076 188.777L71.2698 188.729L70.6201 188.517L70.0886 188.245L69.557 187.819L69.1318 187.286L68.8719 186.754L68.6593 186.115L68.6003 185.477L68.6593 184.838L68.8719 184.199L69.1318 183.655L69.557 183.123ZM74.2464 187.819L69.557 183.123" stroke="#212830" stroke-width="0.25" stroke-miterlimit="10" stroke-linecap="square"/>
<path class="12VDC-OUT-GND" d="M52.3469 183.123L52.8784 182.697L53.4099 182.437L54.0478 182.224L54.6856 182.165L55.3353 182.224L55.9732 182.437L56.5047 182.697L57.0362 183.123L57.4615 183.655L57.7213 184.199L57.934 184.838L57.993 185.477L57.934 186.115L57.7213 186.754L57.4615 187.286L57.0362 187.819L56.5047 188.245L55.9732 188.517L55.3353 188.729L54.6856 188.777L54.0478 188.729L53.4099 188.517L52.8784 188.245L52.3469 187.819L51.9216 187.286L51.6499 186.754L51.4373 186.115L51.3901 185.477L51.4373 184.838L51.6499 184.199L51.9216 183.655L52.3469 183.123ZM57.0362 187.819L52.3469 183.123" stroke="#212830" stroke-width="0.25" stroke-miterlimit="10" stroke-linecap="square"/>
<path class="12VDC-OUT-V+" d="M43.4996 183.123L44.0311 182.697L44.5627 182.437L45.2123 182.224L45.8502 182.165L46.488 182.224L47.1259 182.437L47.6574 182.697L48.189 183.123L48.6142 183.655L48.8859 184.199L49.0985 184.838L49.1458 185.477L49.0985 186.115L48.8859 186.754L48.6142 187.286L48.189 187.819L47.6574 188.245L47.1259 188.517L46.488 188.729L45.8502 188.777L45.2123 188.729L44.5627 188.517L44.0311 188.245L43.4996 187.819L43.0744 187.286L42.8145 186.754L42.6019 186.115L42.5428 185.477L42.6019 184.838L42.8145 184.199L43.0744 183.655L43.4996 183.123ZM48.189 187.819L43.4996 183.123" stroke="#212830" stroke-width="0.25" stroke-miterlimit="10" stroke-linecap="square"/>
<path d="M44.0784 174.536V178.273H47.5393V174.536" fill="#0C9B47"/>
<path d="M44.0784 174.536V178.273H47.5393V174.536" stroke="#212830" stroke-width="0.25" stroke-miterlimit="10"/>
<path d="M53.0202 174.536V178.273H56.493V174.536" fill="#0C9B47"/>
<path d="M53.0202 174.536V178.273H56.493V174.536" stroke="#212830" stroke-width="0.25" stroke-miterlimit="10"/>
<path d="M61.8201 174.536V178.273H65.2811V174.536" fill="#0C9B47"/>
<path d="M61.8201 174.536V178.273H65.2811V174.536" stroke="#212830" stroke-width="0.25" stroke-miterlimit="10"/>
<path d="M70.6084 174.536V178.273H74.0693V174.536" fill="#0C9B47"/>
<path d="M70.6084 174.536V178.273H74.0693V174.536" stroke="#212830" stroke-width="0.25" stroke-miterlimit="10"/>
<path d="M32.4931 4.03497H49.975" stroke="#212830" stroke-width="0.5" stroke-miterlimit="10" stroke-linecap="square"/>
<path d="M2.35516 4.03497H32.4931" stroke="#212830" stroke-width="0.5" stroke-miterlimit="10" stroke-linecap="square"/>
<path d="M49.975 4.03497H78.2527" stroke="#212830" stroke-width="0.5" stroke-miterlimit="10" stroke-linecap="square"/>
<path d="M78.2527 4.25V29.834" stroke="#212830" stroke-width="0.5" stroke-miterlimit="10" stroke-linecap="square"/>
<path d="M41.1385 9.00275V21.3039H76.6692V9.00275" fill="#AFD5A9"/>
<path d="M41.1385 9.00275V21.3039H76.6692V9.00275" stroke="#212830" stroke-width="0.25" stroke-miterlimit="10"/>
<path d="M76.6692 21.3039H41.1385V25.8577H76.6692V21.3039Z" fill="#5EB34A" stroke="#1D1D1B" stroke-width="0.25" stroke-miterlimit="10"/>
<path d="M76.6692 7.0274H41.1385V9.00268H76.6692V7.0274Z" fill="#5EB34A" stroke="#1D1D1B" stroke-width="0.25" stroke-miterlimit="10"/>
<path class="DI-IN-4" d="M57.0258 17.2706L56.4942 17.6964L55.9627 17.9684L55.3248 18.1813L54.687 18.2286L54.0491 18.1813L53.3994 17.9684L52.8679 17.6964L52.3364 17.2706L51.9111 16.7383L51.6513 16.206L51.4386 15.5673L51.3796 14.9286L51.4386 14.2781L51.6513 13.6394L51.9111 13.1071L52.3364 12.5748L52.8679 12.149L53.3994 11.877L54.0491 11.6641L54.687 11.6168L55.3248 11.6641L55.9627 11.877L56.4942 12.149L57.0258 12.5748L57.451 13.1071L57.7227 13.6394L57.9353 14.2781L57.9825 14.9286L57.9353 15.5673L57.7227 16.206L57.451 16.7383L57.0258 17.2706ZM52.3364 12.5748L57.0258 17.2706" stroke="#212830" stroke-width="0.25" stroke-miterlimit="10" stroke-linecap="square"/>
<path class="DI-IN-4-5-6-COM" d="M48.4148 17.2706L47.8832 17.6964L47.3517 17.9684L46.7138 18.1813L46.076 18.2286L45.4381 18.1813L44.8003 17.9684L44.2687 17.6964L43.7372 17.2706L43.3002 16.7383L43.0403 16.206L42.8277 15.5673L42.7686 14.9286L42.8277 14.2781L43.0403 13.6394L43.3002 13.1071L43.7372 12.5748L44.2687 12.149L44.8003 11.877L45.4381 11.6641L46.076 11.6168L46.7138 11.6641L47.3517 11.877L47.8832 12.149L48.4148 12.5748L48.8518 13.1071L49.1117 13.6394L49.3243 14.2781L49.3834 14.9286L49.3243 15.5673L49.1117 16.206L48.8518 16.7383L48.4148 17.2706ZM48.4148 17.2706L43.7254 12.5748" stroke="#212830" stroke-width="0.25" stroke-miterlimit="10" stroke-linecap="square"/>
<path class="DI-IN-5" d="M65.6367 17.2706L65.1052 17.6964L64.5737 17.9684L63.924 18.1813L63.2861 18.2286L62.6483 18.1813L62.0104 17.9684L61.4789 17.6964L60.9473 17.2706L60.5221 16.7383L60.2504 16.206L60.0378 15.5673L59.9906 14.9286L60.0378 14.2781L60.2504 13.6394L60.5221 13.1071L60.9473 12.5748L61.4789 12.149L62.0104 11.877L62.6483 11.6641L63.2861 11.6168L63.924 11.6641L64.5737 11.877L65.1052 12.149L65.6367 12.5748L66.062 13.1071L66.3218 13.6394L66.5345 14.2781L66.5935 14.9286L66.5345 15.5673L66.3218 16.206L66.062 16.7383L65.6367 17.2706ZM60.9473 12.5748L65.6367 17.2706" stroke="#212830" stroke-width="0.25" stroke-miterlimit="10" stroke-linecap="square"/>
<path class="DI-IN-6" d="M74.4722 17.2706L73.9407 17.6964L73.4091 17.9684L72.7713 18.1813L72.1334 18.2286L71.4956 18.1813L70.8577 17.9684L70.3262 17.6964L69.7946 17.2706L69.3576 16.7383L69.0977 16.206L68.8851 15.5673L68.826 14.9286L68.8851 14.2781L69.0977 13.6394L69.3576 13.1071L69.7946 12.5748L70.3262 12.149L70.8577 11.877L71.4956 11.6641L72.1334 11.6168L72.7713 11.6641L73.4091 11.877L73.9407 12.149L74.4722 12.5748L74.9093 13.1071L75.1691 13.6394L75.3818 14.2781L75.4408 14.9286L75.3818 15.5673L75.1691 16.206L74.9093 16.7383L74.4722 17.2706ZM74.4722 17.2706L69.7828 12.5748" stroke="#212830" stroke-width="0.25" stroke-miterlimit="10" stroke-linecap="square"/>
<path d="M73.9052 25.8576V22.12H70.4443V25.8576" fill="#0C9B47"/>
<path d="M73.9052 25.8576V22.12H70.4443V25.8576" stroke="#212830" stroke-width="0.25" stroke-miterlimit="10"/>
<path d="M64.9516 25.8576V22.12H61.4907V25.8576" fill="#0C9B47"/>
<path d="M64.9516 25.8576V22.12H61.4907V25.8576" stroke="#212830" stroke-width="0.25" stroke-miterlimit="10"/>
<path d="M56.1635 25.8576V22.12H52.7025V25.8576" fill="#0C9B47"/>
<path d="M56.1635 25.8576V22.12H52.7025V25.8576" stroke="#212830" stroke-width="0.25" stroke-miterlimit="10"/>
<path d="M47.3753 25.8576V22.12H43.9143V25.8576" fill="#0C9B47"/>
<path d="M47.3753 25.8576V22.12H43.9143V25.8576" stroke="#212830" stroke-width="0.25" stroke-miterlimit="10"/>
<path d="M4.11279 8.86084V21.162H39.6435V8.86084" fill="#AFD5A9"/>
<path d="M4.11279 8.86084V21.162H39.6435V8.86084" stroke="#212830" stroke-width="0.25" stroke-miterlimit="10"/>
<path d="M39.6435 21.1619H4.11279V25.7157H39.6435V21.1619Z" fill="#5EB34A" stroke="#1D1D1B" stroke-width="0.25" stroke-miterlimit="10"/>
<path d="M39.6435 6.8855H4.11279V8.86078H39.6435V6.8855Z" fill="#5EB34A" stroke="#1D1D1B" stroke-width="0.25" stroke-miterlimit="10"/>
<path class="DI-IN-2" d="M20.0001 17.1286L19.4685 17.5544L18.937 17.8264L18.2991 18.0393L17.6613 18.0867L17.0116 18.0393L16.3737 17.8264L15.8422 17.5544L15.3107 17.1286L14.8854 16.5963L14.6137 16.0641L14.4011 15.4254L14.3539 14.7866L14.4011 14.1479L14.6137 13.4974L14.8854 12.9651L15.3107 12.4329L15.8422 12.0071L16.3737 11.7468L17.0116 11.5339L17.6613 11.4748L18.2991 11.5339L18.937 11.7468L19.4685 12.0071L20.0001 12.4329L20.4253 12.9651L20.697 13.4974L20.9096 14.1479L20.9568 14.7866L20.9096 15.4254L20.697 16.0641L20.4253 16.5963L20.0001 17.1286ZM15.3107 12.4329L20.0001 17.1286" stroke="#212830" stroke-width="0.25" stroke-miterlimit="10" stroke-linecap="square"/>
<path class="DI-IN-1" d="M11.3891 17.1286L10.8575 17.5544L10.326 17.8264L9.68812 18.0393L9.05027 18.0867L8.41242 18.0393L7.77457 17.8264L7.24302 17.5544L6.69967 17.1286L6.27443 16.5963L6.01457 16.0641L5.80195 15.4254L5.74289 14.7866L5.80195 14.1479L6.01457 13.4974L6.27443 12.9651L6.69967 12.4329L7.24302 12.0071L7.77457 11.7468L8.41242 11.5339L9.05027 11.4748L9.68812 11.5339L10.326 11.7468L10.8575 12.0071L11.3891 12.4329L11.8143 12.9651L12.086 13.4974L12.2986 14.1479L12.3577 14.7866L12.2986 15.4254L12.086 16.0641L11.8143 16.5963L11.3891 17.1286ZM6.69967 12.4329L11.3891 17.1286" stroke="#212830" stroke-width="0.25" stroke-miterlimit="10" stroke-linecap="square"/>
<path class="DI-IN-3" d="M28.611 17.1286L28.0795 17.5544L27.5361 17.8264L26.8983 18.0393L26.2604 18.0867L25.6226 18.0393L24.9847 17.8264L24.4532 17.5544L23.9217 17.1286L23.4964 16.5963L23.2247 16.0641L23.0121 15.4254L22.9649 14.7866L23.0121 14.1479L23.2247 13.4974L23.4964 12.9651L23.9217 12.4329L24.4532 12.0071L24.9847 11.7468L25.6226 11.5339L26.2604 11.4748L26.8983 11.5339L27.5361 11.7468L28.0795 12.0071L28.611 12.4329L29.0363 12.9651L29.2961 13.4974L29.5088 14.1479L29.5678 14.7866L29.5088 15.4254L29.2961 16.0641L29.0363 16.5963L28.611 17.1286ZM23.9217 12.4329L28.611 17.1286" stroke="#212830" stroke-width="0.25" stroke-miterlimit="10" stroke-linecap="square"/>
<path class="DI-1-2-3-COM" d="M37.4465 17.1286L36.9149 17.5544L36.3834 17.8264L35.7455 18.0393L35.1077 18.0867L34.4698 18.0393L33.832 17.8264L33.3004 17.5544L32.7571 17.1286L32.3318 16.5963L32.072 16.0641L31.8594 15.4254L31.8003 14.7866L31.8594 14.1479L32.072 13.4974L32.3318 12.9651L32.7571 12.4329L33.3004 12.0071L33.832 11.7468L34.4698 11.5339L35.1077 11.4748L35.7455 11.5339L36.3834 11.7468L36.9149 12.0071L37.4465 12.4329L37.8717 12.9651L38.1434 13.4974L38.356 14.1479L38.4151 14.7866L38.356 15.4254L38.1434 16.0641L37.8717 16.5963L37.4465 17.1286ZM32.7571 12.4329L37.4465 17.1286" stroke="#212830" stroke-width="0.25" stroke-miterlimit="10" stroke-linecap="square"/>
<path d="M36.8795 25.7158V21.9899H33.4186V25.7158" fill="#0C9B47"/>
<path d="M36.8795 25.7158V21.9899H33.4186V25.7158" stroke="#212830" stroke-width="0.25" stroke-miterlimit="10"/>
<path d="M27.926 25.7158V21.9899H24.465V25.7158" fill="#0C9B47"/>
<path d="M27.926 25.7158V21.9899H24.465V25.7158" stroke="#212830" stroke-width="0.25" stroke-miterlimit="10"/>
<path d="M19.1378 25.7158V21.9899H15.6768V25.7158" fill="#0C9B47"/>
<path d="M19.1378 25.7158V21.9899H15.6768V25.7158" stroke="#212830" stroke-width="0.25" stroke-miterlimit="10"/>
<path d="M10.3496 25.7158V21.9899H6.88864V25.7158" fill="#0C9B47"/>
<path d="M10.3496 25.7158V21.9899H6.88864V25.7158" stroke="#212830" stroke-width="0.25" stroke-miterlimit="10"/>
<path d="M9.91974 168.137C9.8843 167.557 9.57719 167.037 9.12833 166.729C8.83303 166.528 8.49048 166.41 8.11249 166.41H8.07706C7.12028 166.41 6.34068 167.167 6.26981 168.125H6.258V170.089H9.93155V168.125H9.91974V168.137Z" fill="#BE1622"/>
<path d="M18.4953 168.137C18.4363 167.179 17.6567 166.422 16.6881 166.422H16.6526C15.6959 166.422 14.9045 167.179 14.8454 168.137H14.8336V168.255V170.1H18.5071V168.137H18.4953Z" fill="#2E2D2C"/>
<path d="M7.72266 159.55V161.513H7.73447H8.27782H8.58494V160.401H16.1801V161.513H16.4872H17.0306V160.212V159.55H7.72266Z" fill="#2E2D2C"/>
<path d="M9.10469 154.901V157.977H8.73851V155.244L8.20697 155.564V155.197L8.65583 154.901H9.10469Z" fill="#3C3C3B"/>
<path d="M9.51816 157.977V157.681L10.2859 156.403C10.3804 156.25 10.4513 156.108 10.4986 155.966C10.5458 155.824 10.5694 155.706 10.5694 155.599C10.5694 155.469 10.5458 155.374 10.4867 155.303C10.4277 155.233 10.3568 155.197 10.2505 155.197C10.1324 155.197 10.0379 155.244 9.97883 155.339C9.91977 155.434 9.88433 155.564 9.88433 155.741H9.50635C9.50635 155.457 9.56541 155.233 9.69534 155.091C9.82527 154.937 10.0025 154.866 10.2387 154.866C10.4749 154.866 10.6521 154.925 10.7821 155.055C10.912 155.185 10.971 155.363 10.971 155.599C10.971 155.729 10.9474 155.871 10.9002 156.025C10.8529 156.179 10.7702 156.344 10.6757 156.522L10.0025 157.634H10.971V157.965H9.54178L9.51816 157.977Z" fill="#3C3C3B"/>
<path d="M11.786 157.977L11.1364 154.901H11.5262L11.9987 157.444L12.4711 154.901H12.8609L12.2113 157.977H11.7742H11.786Z" fill="#3C3C3B"/>
<path d="M13.1326 157.977V154.901H13.4988V157.977H13.1326ZM13.3452 157.977V157.645H14.0303C14.113 157.645 14.1721 157.622 14.2075 157.574C14.243 157.527 14.2666 157.468 14.2666 157.385V155.481C14.2666 155.398 14.243 155.339 14.2075 155.292C14.1721 155.244 14.113 155.221 14.0303 155.221H13.3452V154.89H14.0185C14.2193 154.89 14.3729 154.937 14.4792 155.043C14.5855 155.15 14.6446 155.292 14.6446 155.481V157.362C14.6446 157.492 14.621 157.598 14.5737 157.681C14.5265 157.776 14.4556 157.835 14.3611 157.882C14.2666 157.929 14.1603 157.953 14.0185 157.953H13.3571L13.3452 157.977Z" fill="#3C3C3B"/>
<path d="M15.7313 158.012C15.5777 158.012 15.4359 157.977 15.3296 157.917C15.2233 157.858 15.1288 157.764 15.0698 157.645C15.0107 157.527 14.9871 157.385 14.9871 157.22V155.658C14.9871 155.493 15.0107 155.351 15.0698 155.233C15.1288 155.114 15.2115 155.031 15.3296 154.96C15.4359 154.901 15.5777 154.866 15.7313 154.866C15.8848 154.866 16.0266 154.901 16.1329 154.96C16.2392 155.02 16.3337 155.114 16.3809 155.233C16.4282 155.351 16.4636 155.493 16.4636 155.658V155.777H16.0974V155.658C16.0974 155.564 16.0856 155.481 16.0502 155.422C16.0266 155.351 15.9793 155.303 15.9202 155.268C15.8612 155.233 15.7903 155.209 15.7194 155.209C15.6013 155.209 15.5068 155.244 15.4478 155.327C15.3887 155.41 15.3533 155.516 15.3533 155.658V157.22C15.3533 157.362 15.3887 157.468 15.4478 157.551C15.5068 157.634 15.6013 157.669 15.7194 157.669C15.8376 157.669 15.9321 157.634 15.9911 157.551C16.062 157.468 16.0856 157.362 16.0856 157.22V157.101H16.4518V157.22C16.4518 157.385 16.4282 157.527 16.3691 157.645C16.31 157.764 16.2274 157.847 16.121 157.917C16.0147 157.977 15.873 158.012 15.7194 158.012H15.7313Z" fill="#3C3C3B"/>
<path d="M7.1439 165.724L6.49423 162.649H6.88403L7.35651 165.192L7.829 162.649H8.2188L7.56913 165.724H7.13208H7.1439Z" fill="#3C3C3B"/>
<path d="M8.34872 164.139H9.61262V164.47H8.34872V164.139ZM9.15195 163.453V165.168H8.79758V163.453H9.15195Z" fill="#3C3C3B"/>
<path d="M14.7036 164.068H15.4832V164.967C15.4832 165.133 15.4478 165.275 15.3887 165.393C15.3297 165.511 15.2352 165.606 15.1289 165.665C15.0108 165.724 14.8808 165.76 14.7155 165.76C14.5501 165.76 14.4083 165.736 14.2902 165.677C14.1721 165.618 14.0894 165.535 14.0185 165.428C13.9595 165.322 13.924 165.18 13.924 165.026V163.418C13.924 163.252 13.9595 163.11 14.0185 162.992C14.0776 162.874 14.1721 162.791 14.2784 162.72C14.3965 162.661 14.5265 162.625 14.6918 162.625C14.8572 162.625 14.9871 162.661 15.1052 162.72C15.2234 162.779 15.3061 162.862 15.3651 162.98C15.4242 163.098 15.4596 163.228 15.4596 163.394V163.548H15.0698V163.394C15.0698 163.264 15.0344 163.157 14.9753 163.086C14.9163 163.015 14.8218 162.98 14.7036 162.98C14.5737 162.98 14.4792 163.015 14.4083 163.098C14.3375 163.181 14.302 163.288 14.302 163.429V165.038C14.302 165.168 14.3375 165.263 14.4083 165.334C14.4792 165.405 14.5855 165.44 14.7155 165.44C14.8454 165.44 14.9399 165.405 15.0108 165.322C15.0816 165.251 15.1171 165.133 15.1171 165.003V164.423H14.7036V164.092V164.068Z" fill="#3C3C3B"/>
<path d="M15.8848 165.724V162.649H16.2156L17.1605 165.085L17.1015 165.145V162.649H17.4558V165.724H17.1133L16.1683 163.323L16.2274 163.264V165.724H15.873H15.8848Z" fill="#3C3C3B"/>
<path d="M17.8929 165.724V162.649H18.2591V165.724H17.8929ZM18.1055 165.724V165.393H18.7906C18.8733 165.393 18.9323 165.369 18.9678 165.322C19.0032 165.275 19.0268 165.215 19.0268 165.133V163.228C19.0268 163.146 19.0032 163.086 18.9678 163.039C18.9323 162.992 18.8733 162.968 18.7906 162.968H18.1055V162.637H18.7788C18.9796 162.637 19.1332 162.684 19.2395 162.791C19.3458 162.897 19.4048 163.039 19.4048 163.228V165.109C19.4048 165.239 19.3812 165.346 19.334 165.428C19.2867 165.523 19.2158 165.582 19.1213 165.629C19.0268 165.677 18.9205 165.7 18.7788 165.7H18.1173L18.1055 165.724Z" fill="#3C3C3B"/>
<path d="M36.3453 168.137C36.2863 167.179 35.5067 166.422 34.5381 166.422H34.5027C33.5459 166.422 32.7663 167.179 32.6954 168.137H32.6836V170.1H36.3571V168.137H36.3453ZM35.7429 169.485H33.2978V168.172C33.3451 167.534 33.8648 167.025 34.5027 167.025H34.5263C35.1641 167.025 35.6839 167.534 35.7311 168.172V169.485H35.7429Z" fill="#2E2D2C"/>
<path d="M27.7697 168.137C27.7107 167.179 26.9311 166.422 25.9625 166.422H25.9271C24.9703 166.422 24.1789 167.179 24.1198 168.137H24.108V170.1H27.7816V168.137H27.7697ZM27.1673 169.485H24.7222V168.172C24.7695 167.534 25.2892 167.025 25.9271 167.025H25.9507C26.5885 167.025 27.1083 167.534 27.1555 168.172V169.485H27.1673Z" fill="#C8A30D"/>
<path d="M27.1555 168.172C27.1083 167.534 26.5886 167.025 25.9507 167.025H25.9271C25.2892 167.025 24.7695 167.534 24.7223 168.172V169.485H27.1674V168.172H27.1555Z" fill="#FBD312"/>
<path d="M25.5609 159.55V161.513H26.1161H26.4232V160.401H34.0184V161.513H34.3137H34.8688V160.212V159.55H25.5609Z" fill="#2E2D2C"/>
<path d="M27.8406 157.977V154.901H28.2068V157.977H27.8406ZM28.0533 155.233V154.901H29.2108V155.233H28.0533ZM28.0533 156.616V156.285H29.0927V156.616H28.0533ZM28.0533 157.977V157.645H29.2108V157.977H28.0533Z" fill="#3C3C3B"/>
<path d="M29.3171 157.977L30.1085 156.226L30.6401 154.913H31.0417L30.3094 156.581L29.7306 157.988H29.329L29.3171 157.977ZM30.6873 157.977L30.1322 156.628L30.0613 156.522L29.3408 154.901H29.7424L30.2385 156.143L30.3212 156.262L31.0889 157.965H30.6873V157.977Z" fill="#3C3C3B"/>
<path d="M31.2662 155.233V154.901H32.8136V155.233H31.2662ZM31.8568 157.977V155.162H32.223V157.977H31.8568Z" fill="#3C3C3B"/>
<path d="M24.9939 165.724L25.7381 162.649H26.1161L26.8602 165.724H26.4586L25.9271 163.134L25.3955 165.724H24.9939ZM25.4428 165.014V164.683H26.4586V165.014H25.4428Z" fill="#3C3C3B"/>
<path d="M33.7821 165.724V162.649H34.1483V165.724H33.7821ZM34.042 165.724V165.393H34.6208C34.7153 165.393 34.7862 165.369 34.8452 165.322C34.8925 165.275 34.9279 165.215 34.9279 165.133V164.66C34.9279 164.541 34.8925 164.447 34.8334 164.387C34.7743 164.328 34.6917 164.293 34.609 164.293H34.0538V163.962H34.609C34.6917 163.962 34.7625 163.938 34.8098 163.879C34.857 163.82 34.8807 163.737 34.8807 163.63V163.252C34.8807 163.169 34.857 163.11 34.8098 163.063C34.7625 163.015 34.6917 162.992 34.609 162.992H34.0538V162.661H34.5972C34.8098 162.661 34.9633 162.708 35.0815 162.814C35.1996 162.909 35.2468 163.051 35.2468 163.24V163.607C35.2468 163.749 35.2114 163.867 35.1523 163.962C35.0933 164.056 34.9988 164.115 34.8925 164.139C35.0224 164.163 35.1169 164.222 35.1878 164.316C35.2586 164.411 35.2941 164.541 35.2941 164.695V165.144C35.2941 165.334 35.235 165.476 35.1287 165.582C35.0224 165.689 34.857 165.736 34.6562 165.736H34.0538L34.042 165.724Z" fill="#3C3C3B"/>
<path d="M47.8098 168.137C47.7507 167.179 46.9711 166.422 46.0025 166.422H45.9671C45.0103 166.422 44.2307 167.179 44.1598 168.137H44.148V170.1H47.8216V168.137H47.8098Z" fill="#BE1622"/>
<path d="M56.3854 168.137C56.3263 167.179 55.5467 166.422 54.5781 166.422H54.5427C53.5859 166.422 52.7945 167.179 52.7354 168.137H52.7236V168.255V170.1H56.3972V168.137H56.3854Z" fill="#2E2D2C"/>
<path d="M45.6127 159.55V161.513H46.1561H46.4632V160.401H54.0584V161.513H54.3655H54.9206V160.212V159.55H45.6127Z" fill="#2E2D2C"/>
<path d="M46.983 154.901V157.977H46.6168V155.244L46.0852 155.564V155.197L46.5341 154.901H46.983Z" fill="#3C3C3B"/>
<path d="M47.3964 157.977V157.681L48.1641 156.403C48.2586 156.25 48.3295 156.108 48.3768 155.966C48.424 155.824 48.4476 155.706 48.4476 155.599C48.4476 155.469 48.424 155.374 48.365 155.303C48.3059 155.233 48.235 155.197 48.1287 155.197C48.0106 155.197 47.9161 155.244 47.857 155.339C47.798 155.434 47.7625 155.564 47.7625 155.741H47.3846C47.3846 155.457 47.4436 155.233 47.5735 155.091C47.7035 154.937 47.8807 154.866 48.1169 154.866C48.3531 154.866 48.5303 154.925 48.6603 155.055C48.7902 155.185 48.8492 155.363 48.8492 155.599C48.8492 155.729 48.8256 155.871 48.7784 156.025C48.7311 156.179 48.6484 156.344 48.5539 156.522L47.8807 157.634H48.8492V157.965H47.42L47.3964 157.977Z" fill="#3C3C3B"/>
<path d="M49.6761 157.977L49.0265 154.901H49.4163L49.8887 157.444L50.3612 154.901H50.751L50.1014 157.977H49.6643H49.6761Z" fill="#3C3C3B"/>
<path d="M51.0108 157.977V154.901H51.377V157.977H51.0108ZM51.2353 157.977V157.645H51.9204C52.003 157.645 52.0621 157.622 52.0975 157.574C52.133 157.527 52.1566 157.468 52.1566 157.385V155.481C52.1566 155.398 52.133 155.339 52.0975 155.292C52.0621 155.244 52.003 155.221 51.9204 155.221H51.2353V154.89H51.9085C52.1094 154.89 52.2629 154.937 52.3692 155.043C52.4755 155.15 52.5346 155.292 52.5346 155.481V157.362C52.5346 157.492 52.511 157.598 52.4637 157.681C52.4165 157.776 52.3456 157.835 52.2511 157.882C52.1566 157.929 52.0503 157.953 51.9085 157.953H51.2471L51.2353 157.977Z" fill="#3C3C3B"/>
<path d="M53.6095 158.012C53.4559 158.012 53.3142 157.977 53.2079 157.917C53.1016 157.858 53.0071 157.764 52.948 157.645C52.8889 157.527 52.8653 157.385 52.8653 157.22V155.658C52.8653 155.493 52.8889 155.351 52.948 155.233C53.0071 155.114 53.0898 155.031 53.2079 154.96C53.3142 154.901 53.4559 154.866 53.6095 154.866C53.763 154.866 53.9048 154.901 54.0111 154.96C54.1174 155.02 54.2119 155.114 54.2592 155.233C54.3064 155.351 54.3418 155.493 54.3418 155.658V155.777H53.9757V155.658C53.9757 155.564 53.9639 155.481 53.9284 155.422C53.9048 155.351 53.8575 155.303 53.7985 155.268C53.7394 155.233 53.6685 155.209 53.5977 155.209C53.4796 155.209 53.3851 155.244 53.326 155.327C53.2669 155.41 53.2315 155.516 53.2315 155.658V157.22C53.2315 157.362 53.2669 157.468 53.326 157.551C53.3851 157.634 53.4796 157.669 53.5977 157.669C53.7158 157.669 53.8103 157.634 53.8694 157.551C53.9402 157.468 53.9638 157.362 53.9638 157.22V157.101H54.33V157.22C54.33 157.385 54.3064 157.527 54.2473 157.645C54.1883 157.764 54.1056 157.847 53.9993 157.917C53.893 157.977 53.7512 158.012 53.5977 158.012H53.6095Z" fill="#3C3C3B"/>
<path d="M45.0222 165.724L44.3725 162.649H44.7623L45.2348 165.192L45.7073 162.649H46.0971L45.4474 165.724H45.0103H45.0222Z" fill="#3C3C3B"/>
<path d="M46.227 164.139H47.4909V164.47H46.227V164.139ZM47.0302 163.453V165.168H46.6758V163.453H47.0302Z" fill="#3C3C3B"/>
<path d="M52.5937 164.068H53.3732V164.967C53.3732 165.133 53.3378 165.275 53.2788 165.393C53.2197 165.511 53.1252 165.606 53.0189 165.665C52.9008 165.724 52.7708 165.76 52.6055 165.76C52.4401 165.76 52.2983 165.736 52.1802 165.677C52.0621 165.618 51.9794 165.535 51.9086 165.428C51.8495 165.322 51.8141 165.18 51.8141 165.026V163.418C51.8141 163.252 51.8495 163.11 51.9086 162.992C51.9676 162.874 52.0621 162.791 52.1684 162.72C52.2865 162.661 52.4165 162.625 52.5818 162.625C52.7472 162.625 52.8771 162.661 52.9953 162.72C53.1134 162.779 53.1961 162.862 53.2551 162.98C53.3142 163.098 53.3496 163.228 53.3496 163.394V163.548H52.9598V163.394C52.9598 163.264 52.9244 163.157 52.8653 163.086C52.8063 163.015 52.7118 162.98 52.5937 162.98C52.4637 162.98 52.3692 163.015 52.2984 163.098C52.2275 163.181 52.192 163.288 52.192 163.429V165.038C52.192 165.168 52.2275 165.263 52.2984 165.334C52.3692 165.405 52.4755 165.44 52.6055 165.44C52.7354 165.44 52.8299 165.405 52.9008 165.322C52.9716 165.251 53.0071 165.133 53.0071 165.003V164.423H52.5937V164.092V164.068Z" fill="#3C3C3B"/>
<path d="M53.7631 165.724V162.649H54.0939L55.0388 165.085L54.9798 165.145V162.649H55.3341V165.724H54.9916L54.0466 163.323L54.1057 163.264V165.724H53.7513H53.7631Z" fill="#3C3C3B"/>
<path d="M55.7711 165.724V162.649H56.1373V165.724H55.7711ZM55.9955 165.724V165.393H56.6806C56.7633 165.393 56.8224 165.369 56.8578 165.322C56.8932 165.275 56.9169 165.215 56.9169 165.133V163.228C56.9169 163.146 56.8932 163.086 56.8578 163.039C56.8224 162.992 56.7633 162.968 56.6806 162.968H55.9955V162.637H56.6688C56.8696 162.637 57.0232 162.684 57.1295 162.791C57.2358 162.897 57.2948 163.039 57.2948 163.228V165.109C57.2948 165.239 57.2712 165.346 57.224 165.428C57.1767 165.523 57.1059 165.582 57.0114 165.629C56.9169 165.677 56.8106 165.7 56.6688 165.7H56.0073L55.9955 165.724Z" fill="#3C3C3B"/>
<path d="M74.1353 168.137C74.0763 167.179 73.2967 166.422 72.3281 166.422H72.2926C71.3359 166.422 70.5563 167.179 70.4854 168.137H70.4736V170.1H74.1471V168.137H74.1353ZM73.5329 169.485H71.0878V168.172C71.135 167.534 71.6548 167.025 72.2926 167.025H72.3163C72.9541 167.025 73.4738 167.534 73.5211 168.172V169.485H73.5329Z" fill="#2E2D2C"/>
<path d="M65.5598 168.137C65.5007 167.179 64.7211 166.422 63.7525 166.422H63.7171C62.7603 166.422 61.9689 167.179 61.9098 168.137H61.898V170.1H65.5716V168.137H65.5598ZM64.9573 169.485H62.5122V168.172C62.5595 167.534 63.0792 167.025 63.7171 167.025H63.7407C64.3785 167.025 64.8983 167.534 64.9455 168.172V169.485H64.9573Z" fill="#C8A30D"/>
<path d="M64.9455 168.172C64.8983 167.534 64.3785 167.025 63.7407 167.025H63.7171C63.0792 167.025 62.5595 167.534 62.5122 168.172V169.485H64.9573V168.172H64.9455Z" fill="#FBD312"/>
<path d="M63.3981 159.55V161.513H63.9415H64.2486V160.401H71.8438V161.513H72.1509H72.706V160.212V159.55H63.3981Z" fill="#2E2D2C"/>
<path d="M65.666 157.977V154.901H66.0322V157.977H65.666ZM65.8905 155.233V154.901H67.0481V155.233H65.8905ZM65.8905 156.616V156.285H66.9299V156.616H65.8905ZM65.8905 157.977V157.645H67.0481V157.977H65.8905Z" fill="#3C3C3B"/>
<path d="M67.1544 157.977L67.9458 156.226L68.4773 154.913H68.8789L68.1466 156.581L67.5678 157.988H67.1662L67.1544 157.977ZM68.5127 157.977L67.9576 156.628L67.8867 156.522L67.1662 154.901H67.5678L68.0639 156.143L68.1466 156.262L68.9144 157.965H68.5127V157.977Z" fill="#3C3C3B"/>
<path d="M69.0915 155.233V154.901H70.6389V155.233H69.0915ZM69.6821 157.977V155.162H70.0483V157.977H69.6821Z" fill="#3C3C3B"/>
<path d="M62.8311 165.724L63.5753 162.649H63.9533L64.6974 165.724H64.2958L63.7643 163.134L63.2327 165.724H62.8311ZM63.2682 165.014V164.683H64.284V165.014H63.2682Z" fill="#3C3C3B"/>
<path d="M71.6075 165.724V162.649H71.9737V165.724H71.6075ZM71.8674 165.724V165.393H72.4462C72.5407 165.393 72.6115 165.369 72.6706 165.322C72.7179 165.275 72.7533 165.215 72.7533 165.133V164.66C72.7533 164.541 72.7178 164.447 72.6588 164.387C72.5997 164.328 72.517 164.293 72.4344 164.293H71.8792V163.962H72.4344C72.517 163.962 72.5879 163.938 72.6352 163.879C72.6824 163.82 72.706 163.737 72.706 163.63V163.252C72.706 163.169 72.6824 163.11 72.6352 163.063C72.5879 163.015 72.517 162.992 72.4344 162.992H71.8792V162.661H72.4225C72.6352 162.661 72.7887 162.708 72.9068 162.814C73.025 162.909 73.0722 163.051 73.0722 163.24V163.607C73.0722 163.749 73.0368 163.867 72.9777 163.962C72.9186 164.056 72.8242 164.115 72.7179 164.139C72.8478 164.163 72.9423 164.222 73.0132 164.316C73.084 164.411 73.1195 164.541 73.1195 164.695V165.144C73.1195 165.334 73.0604 165.476 72.9541 165.582C72.8478 165.689 72.6824 165.736 72.4816 165.736H71.8792L71.8674 165.724Z" fill="#3C3C3B"/>
<path d="M14.358 113.113V112.427H18.1497V113.113H14.358ZM14.358 114.331V112.427H15.114V114.331H14.358ZM14.4761 112.924V112.439H14.5824C14.7832 112.439 14.925 112.32 15.0195 112.096C15.114 111.871 15.1612 111.54 15.1612 111.114V106.809H15.9172V111.102C15.9172 111.492 15.8699 111.812 15.7873 112.084C15.7046 112.356 15.5628 112.557 15.3857 112.711C15.2085 112.853 14.9604 112.924 14.6651 112.924H14.4643H14.4761ZM15.7518 107.495V106.809H17.5591V107.495H15.7518ZM17.2283 113.113V106.809H17.9725V113.113H17.2283ZM17.8544 114.331V112.427H18.6103V114.331H17.8544Z" fill="#3C3C3B"/>
<path d="M21.9649 113.113H21.2562V109.872L21.3625 109.99L19.8506 113.125H19.26V108.63H19.9687V111.942L19.8624 111.824L21.3862 108.63H21.9768V113.125L21.9649 113.113Z" fill="#3C3C3B"/>
<path d="M24.292 113.184C23.8431 113.184 23.4887 113.066 23.2407 112.829C22.9926 112.593 22.8745 112.261 22.8745 111.836V109.943C22.8745 109.494 22.9926 109.151 23.2407 108.902C23.4887 108.654 23.8313 108.536 24.292 108.536C24.7526 108.536 25.0952 108.654 25.3432 108.902C25.5913 109.151 25.7212 109.494 25.7212 109.955V110.05H24.9889V109.955C24.9889 109.718 24.9298 109.529 24.8117 109.411C24.6936 109.281 24.5282 109.222 24.3038 109.222C24.0793 109.222 23.9258 109.281 23.8077 109.411C23.6895 109.541 23.6305 109.718 23.6305 109.955V111.847C23.6305 112.06 23.6895 112.226 23.8077 112.344C23.9258 112.462 24.0912 112.522 24.3038 112.522C24.5164 112.522 24.6936 112.462 24.8117 112.344C24.9298 112.226 24.9889 112.06 24.9889 111.836V111.741H25.733V111.836C25.733 112.261 25.6031 112.604 25.355 112.841C25.107 113.077 24.7526 113.196 24.292 113.196V113.184Z" fill="#3C3C3B"/>
<path d="M26.4535 113.113V108.607H27.2095V113.113H26.4535ZM26.9024 111.22V110.558H28.4852V111.22H26.9024ZM28.7451 113.113L27.8237 111.126L28.4025 110.653L29.5601 113.113H28.7451ZM28.3907 111.161L27.8355 110.653L28.6151 108.618H29.3947L28.3907 111.161Z" fill="#3C3C3B"/>
<path d="M30.009 114.946V108.607H30.765V114.946H30.009ZM31.6981 113.184C31.4619 113.184 31.2611 113.113 31.0721 112.983C30.8949 112.853 30.765 112.664 30.7059 112.415L30.765 111.729C30.765 111.895 30.7886 112.048 30.8477 112.167C30.8949 112.285 30.9776 112.38 31.0721 112.451C31.1666 112.51 31.2847 112.545 31.4265 112.545C31.6391 112.545 31.8044 112.474 31.9226 112.332C32.0407 112.19 32.0997 111.977 32.0997 111.717V110.002C32.0997 109.742 32.0407 109.541 31.9226 109.399C31.8044 109.257 31.6391 109.186 31.4265 109.186C31.2847 109.186 31.1666 109.222 31.0721 109.281C30.9776 109.34 30.8949 109.434 30.8477 109.553C30.8004 109.671 30.765 109.813 30.765 109.99L30.6705 109.375C30.765 109.103 30.9067 108.902 31.1075 108.76C31.2965 108.618 31.5091 108.547 31.7454 108.547C32.0879 108.547 32.3596 108.677 32.5486 108.926C32.7376 109.174 32.8321 109.529 32.8321 109.99V111.729C32.8321 112.19 32.7376 112.557 32.5368 112.805C32.336 113.066 32.0643 113.196 31.6981 113.196V113.184Z" fill="#3C3C3B"/>
<path d="M35.0764 113.184C34.6275 113.184 34.2731 113.054 34.0251 112.794C33.777 112.533 33.6471 112.167 33.6471 111.694V110.132C33.6471 109.624 33.7652 109.245 34.0133 108.961C34.2613 108.689 34.6039 108.547 35.0409 108.547C35.478 108.547 35.8323 108.677 36.0804 108.926C36.3284 109.186 36.4466 109.541 36.4466 110.014V111.161H34.155V110.534H35.7142V110.026C35.7142 109.766 35.6551 109.565 35.537 109.423C35.4189 109.281 35.2535 109.21 35.0409 109.21C34.8283 109.21 34.6747 109.281 34.5566 109.434C34.4385 109.588 34.3794 109.801 34.3794 110.073V111.705C34.3794 111.954 34.4385 112.155 34.5566 112.297C34.6747 112.439 34.8519 112.51 35.0645 112.51C35.2653 112.51 35.4307 112.451 35.5488 112.344C35.667 112.238 35.7142 112.084 35.7142 111.883V111.847H36.4466V111.883C36.4466 112.297 36.3284 112.616 36.0804 112.841C35.8441 113.066 35.5016 113.184 35.0645 113.184H35.0764Z" fill="#3C3C3B"/>
<path d="M36.7301 109.293V108.607H39.2697V109.293H36.7301ZM37.6278 113.113V108.607H38.3601V113.113H37.6278Z" fill="#3C3C3B"/>
<path d="M39.9902 113.113V108.607H40.7462V113.113H39.9902ZM40.4981 111.244V110.57H42.3644V111.244H40.4981ZM41.9392 113.113V108.607H42.6952V113.113H41.9392Z" fill="#3C3C3B"/>
<path d="M43.6874 113.113V108.607H44.4434V113.113H43.6874ZM44.1481 113.113V112.427H44.9868C45.1876 112.427 45.3411 112.368 45.4474 112.261C45.5537 112.155 45.6128 112.001 45.6128 111.8V111.457C45.6128 111.256 45.5537 111.102 45.4474 110.984C45.3411 110.866 45.1876 110.818 44.9868 110.818H44.1481V110.132H45.1403C45.5301 110.132 45.8372 110.239 46.0499 110.452C46.2625 110.665 46.3688 110.96 46.3688 111.339V111.907C46.3688 112.285 46.2507 112.581 46.0262 112.794C45.8018 113.007 45.4711 113.113 45.0458 113.113H44.1481ZM46.8176 113.113V108.607H47.5736V113.113H46.8176Z" fill="#3C3C3B"/>
<path d="M51.2825 113.113H50.5738V109.872L50.6801 109.99L49.1681 113.125H48.5775V108.63H49.2863V111.942L49.18 111.824L50.6919 108.63H51.2825V113.125V113.113ZM49.8533 107.731C49.5107 107.731 49.2508 107.637 49.0618 107.447C48.8728 107.258 48.7784 106.986 48.7784 106.643V106.336H49.4162V106.643C49.4162 106.974 49.5579 107.152 49.8533 107.152H49.9359C50.2312 107.152 50.373 106.986 50.373 106.643V106.336H51.0108V106.643C51.0108 106.986 50.9163 107.258 50.7273 107.447C50.5383 107.637 50.2785 107.731 49.9359 107.731H49.8533Z" fill="#3C3C3B"/>
<path d="M54.1292 110.712V108.808C54.1292 108.417 54.2356 108.122 54.4482 107.909C54.6608 107.696 54.9679 107.53 55.3577 107.4C55.5821 107.329 55.7475 107.246 55.8538 107.163C55.9601 107.081 56.0192 106.962 56.0192 106.809H56.7633C56.7633 107.104 56.6925 107.341 56.5389 107.506C56.3853 107.672 56.1609 107.802 55.8656 107.897C55.5467 107.991 55.2986 108.11 55.1333 108.252C54.9679 108.394 54.8852 108.595 54.8852 108.867V110.712H54.1292ZM55.4758 113.184C55.0506 113.184 54.7198 113.066 54.4836 112.841C54.2474 112.616 54.1292 112.297 54.1292 111.883V110.014L54.7317 109.375C54.8262 109.162 54.9679 108.997 55.1451 108.89C55.3223 108.772 55.5231 108.725 55.7475 108.725C56.09 108.725 56.3499 108.831 56.5389 109.056C56.7279 109.281 56.8224 109.6 56.8224 110.002V111.895C56.8224 112.309 56.7043 112.628 56.468 112.853C56.2318 113.077 55.9011 113.196 55.4758 113.196V113.184ZM55.4758 112.474C55.6648 112.474 55.8066 112.415 55.9129 112.309C56.0192 112.202 56.0664 112.048 56.0664 111.847V110.026C56.0664 109.837 56.0192 109.683 55.9129 109.576C55.8066 109.47 55.6648 109.411 55.4758 109.411C55.2868 109.411 55.1451 109.47 55.0388 109.576C54.9325 109.683 54.8852 109.837 54.8852 110.026V111.847C54.8852 112.048 54.9325 112.202 55.0388 112.309C55.1451 112.415 55.2868 112.474 55.4758 112.474Z" fill="#3C3C3B"/>
<path d="M57.1886 113.16V112.498C57.3185 112.498 57.4248 112.462 57.4839 112.38C57.543 112.297 57.5902 112.179 57.5902 112.025V108.618H58.3462V112.072C58.3462 112.427 58.2517 112.699 58.0745 112.876C57.8973 113.054 57.6256 113.148 57.2831 113.148H57.1886V113.16ZM58.1572 109.293V108.607H59.7282V109.293H58.1572ZM59.4093 113.113V108.607H60.1652V113.113H59.4093Z" fill="#3C3C3B"/>
<path d="M62.4213 113.184C61.996 113.184 61.6653 113.066 61.4291 112.841C61.1928 112.616 61.0747 112.285 61.0747 111.871V109.825C61.0747 109.411 61.1928 109.091 61.4291 108.879C61.6653 108.654 61.996 108.547 62.4213 108.547C62.8465 108.547 63.1773 108.654 63.4135 108.879C63.6497 109.103 63.7679 109.423 63.7679 109.825V111.883C63.7679 112.297 63.6497 112.616 63.4135 112.841C63.1773 113.066 62.8465 113.184 62.4213 113.184ZM62.4095 112.486C62.5985 112.486 62.752 112.427 62.8465 112.321C62.941 112.214 63.0001 112.06 63.0001 111.859V109.825C63.0001 109.636 62.9528 109.482 62.8465 109.375C62.7402 109.269 62.5985 109.21 62.4095 109.21C62.2205 109.21 62.0787 109.269 61.9724 109.375C61.8661 109.482 61.8189 109.636 61.8189 109.825V111.859C61.8189 112.06 61.8661 112.202 61.9724 112.321C62.0787 112.427 62.2205 112.486 62.4095 112.486Z" fill="#3C3C3B"/>
<path d="M64.6657 113.113V108.607H65.4217V113.113H64.6657ZM65.1145 111.22V110.558H66.6974V111.22H65.1145ZM66.9572 113.113L66.0359 111.126L66.6147 110.653L67.7723 113.113H66.9572ZM66.6029 111.161L66.0477 110.653L66.8273 108.618H67.6069L66.6029 111.161Z" fill="#3C3C3B"/>
<path d="M22.7091 125.615V119.275H23.4651V125.615H22.7091ZM24.3865 123.841C24.1502 123.841 23.9494 123.77 23.7604 123.64C23.5832 123.51 23.4533 123.321 23.3942 123.072L23.4533 122.386C23.4533 122.552 23.4769 122.705 23.536 122.824C23.5832 122.942 23.6659 123.037 23.7604 123.108C23.8549 123.179 23.973 123.202 24.1148 123.202C24.3274 123.202 24.4928 123.131 24.6109 122.989C24.729 122.847 24.7881 122.635 24.7881 122.374V120.659C24.7881 120.399 24.729 120.198 24.6109 120.056C24.4928 119.914 24.3274 119.843 24.1148 119.843C23.973 119.843 23.8549 119.879 23.7604 119.938C23.6659 119.997 23.5832 120.092 23.536 120.21C23.4887 120.328 23.4533 120.47 23.4533 120.647L23.3588 120.032C23.4533 119.76 23.595 119.559 23.7958 119.417C23.9967 119.275 24.1975 119.204 24.4337 119.204C24.7763 119.204 25.0479 119.335 25.2369 119.583C25.4259 119.831 25.5204 120.186 25.5204 120.647V122.386C25.5204 122.847 25.4259 123.214 25.2251 123.462C25.0243 123.723 24.7526 123.853 24.3865 123.853V123.841Z" fill="#3C3C3B"/>
<path d="M27.5521 123.841C27.1623 123.841 26.8552 123.735 26.6544 123.522C26.4536 123.309 26.3591 123.001 26.3591 122.575C26.3591 122.067 26.4772 121.688 26.7252 121.44C26.9733 121.192 27.3277 121.061 27.812 121.061H28.5325L28.5916 121.653H27.812C27.5639 121.653 27.3749 121.724 27.2568 121.878C27.1387 122.031 27.0678 122.256 27.0678 122.564C27.0678 122.788 27.1269 122.954 27.2332 123.06C27.3395 123.167 27.5048 123.226 27.7293 123.226C27.9773 123.226 28.1663 123.155 28.2963 123.025C28.4262 122.895 28.4852 122.694 28.4852 122.434L28.5797 122.824C28.5797 123.049 28.5325 123.226 28.4616 123.38C28.3907 123.522 28.2726 123.64 28.1191 123.711C27.9655 123.782 27.7765 123.817 27.5521 123.817V123.841ZM28.4852 123.782V120.482C28.4852 120.269 28.4262 120.103 28.3081 119.997C28.1899 119.879 28.0128 119.82 27.8001 119.82C27.6112 119.82 27.4576 119.879 27.3513 119.997C27.245 120.115 27.1859 120.281 27.1977 120.494H26.4654C26.4654 120.08 26.5835 119.76 26.8197 119.547C27.056 119.323 27.3985 119.216 27.8238 119.216C28.249 119.216 28.6034 119.323 28.8514 119.547C29.0995 119.772 29.2176 120.092 29.2176 120.494V123.794H28.4971L28.4852 123.782Z" fill="#3C3C3B"/>
<path d="M31.5327 123.841C31.0839 123.841 30.7295 123.723 30.4815 123.486C30.2334 123.25 30.1153 122.918 30.1153 122.493V120.6C30.1153 120.151 30.2334 119.808 30.4815 119.559C30.7295 119.311 31.0839 119.193 31.5327 119.193C31.9816 119.193 32.336 119.311 32.584 119.559C32.8321 119.808 32.962 120.151 32.962 120.612V120.707H32.2297V120.612C32.2297 120.375 32.1706 120.186 32.0525 120.068C31.9344 119.938 31.769 119.879 31.5446 119.879C31.3201 119.879 31.1666 119.938 31.0485 120.068C30.9303 120.198 30.8713 120.375 30.8713 120.612V122.504C30.8713 122.717 30.9303 122.883 31.0485 123.001C31.1666 123.119 31.3319 123.179 31.5446 123.179C31.7572 123.179 31.9344 123.119 32.0525 123.001C32.1706 122.883 32.2297 122.717 32.2297 122.493V122.398H32.9738V122.493C32.9738 122.918 32.8439 123.261 32.5958 123.498C32.3478 123.735 31.9934 123.853 31.5327 123.853V123.841Z" fill="#3C3C3B"/>
<path d="M33.6943 123.782V119.275H34.4503V123.782H33.6943ZM34.2023 123.782V123.119H36.9308V123.782H34.2023ZM35.0645 123.782V119.275H35.8205V123.782H35.0645ZM36.4465 123.782V119.275H37.2025V123.782H36.4465Z" fill="#3C3C3B"/>
<path d="M40.8998 123.77H40.191V120.529L40.2973 120.647L38.7854 123.782H38.1948V119.287H38.9035V122.599L38.7972 122.481L40.321 119.287H40.9116V123.782L40.8998 123.77Z" fill="#3C3C3B"/>
<path d="M41.8919 125.615V119.275H42.6479V125.615H41.8919ZM43.5811 123.841C43.3448 123.841 43.144 123.77 42.955 123.64C42.7778 123.51 42.6479 123.321 42.5888 123.072L42.6479 122.386C42.6479 122.552 42.6715 122.705 42.7306 122.824C42.7778 122.942 42.8605 123.037 42.955 123.108C43.0495 123.179 43.1676 123.202 43.3094 123.202C43.522 123.202 43.6874 123.131 43.8055 122.989C43.9236 122.847 43.9827 122.635 43.9827 122.374V120.659C43.9827 120.399 43.9236 120.198 43.8055 120.056C43.6874 119.914 43.522 119.843 43.3094 119.843C43.1676 119.843 43.0495 119.879 42.955 119.938C42.8605 119.997 42.7778 120.092 42.7306 120.21C42.6833 120.328 42.6479 120.47 42.6479 120.647L42.5534 120.032C42.6479 119.76 42.7897 119.559 42.9905 119.417C43.1913 119.275 43.3921 119.204 43.6283 119.204C43.9709 119.204 44.2425 119.335 44.4315 119.583C44.6205 119.831 44.715 120.186 44.715 120.647V122.386C44.715 122.847 44.6205 123.214 44.4197 123.462C44.2189 123.723 43.9472 123.853 43.5811 123.853V123.841Z" fill="#3C3C3B"/>
<path d="M46.9475 123.841C46.4987 123.841 46.1443 123.711 45.8962 123.451C45.6482 123.19 45.5182 122.824 45.5182 122.351V120.789C45.5182 120.281 45.6364 119.902 45.8844 119.618C46.1325 119.346 46.475 119.204 46.9121 119.204C47.3491 119.204 47.7035 119.335 47.9515 119.583C48.1996 119.843 48.3177 120.198 48.3177 120.671V121.818H46.0262V121.192H47.5854V120.683C47.5854 120.423 47.5263 120.222 47.4082 120.08C47.2901 119.938 47.1247 119.867 46.9121 119.867C46.6995 119.867 46.5459 119.938 46.4278 120.092C46.3097 120.245 46.2506 120.458 46.2506 120.73V122.362C46.2506 122.611 46.3097 122.812 46.4278 122.954C46.5459 123.096 46.7231 123.167 46.9357 123.167C47.1365 123.167 47.3019 123.108 47.42 123.001C47.5381 122.895 47.5854 122.741 47.5854 122.54V122.504H48.3177V122.54C48.3177 122.954 48.1996 123.273 47.9515 123.498C47.7153 123.723 47.3727 123.841 46.9357 123.841H46.9475Z" fill="#3C3C3B"/>
<path d="M49.239 123.782V119.275H49.995V123.782H49.239ZM49.7469 121.901V121.227H51.6132V121.901H49.7469ZM51.1762 123.782V119.275H51.9322V123.782H51.1762Z" fill="#3C3C3B"/>
<path d="M55.6294 123.77H54.9207V120.529L55.027 120.647L53.5151 123.782H52.9245V119.287H53.6332V122.599L53.5269 122.481L55.0388 119.287H55.6294V123.782V123.77Z" fill="#3C3C3B"/>
<path d="M58.9013 122.28H57.7319C57.3421 122.28 57.035 122.173 56.8224 121.96C56.6098 121.747 56.5035 121.452 56.5035 121.073V120.47C56.5035 120.092 56.6216 119.796 56.846 119.583C57.0823 119.37 57.4012 119.264 57.8146 119.264H58.9013V119.95H57.8737C57.6729 119.95 57.5193 120.009 57.413 120.115C57.3067 120.222 57.2476 120.375 57.2476 120.576V120.955C57.2476 121.156 57.3067 121.31 57.413 121.416C57.5193 121.523 57.6729 121.582 57.8737 121.582H58.9013V122.268V122.28ZM57.3421 123.782H56.5389L57.3894 121.842L58.1099 122.043L57.3539 123.782H57.3421ZM59.2911 123.782H58.5352V119.275H59.2911V123.782Z" fill="#3C3C3B"/>
<path d="M17.2638 134.439V133.753H20.7011V134.439H17.2638ZM17.2638 135.574V133.765H18.0197V135.574H17.2638ZM17.3937 134.285V133.765H17.5C17.6063 133.765 17.7008 133.729 17.7717 133.646C17.8426 133.564 17.9016 133.445 17.9371 133.292C17.9725 133.138 17.9961 132.949 17.9961 132.736V129.932H18.7403V132.854C18.7403 133.339 18.634 133.694 18.4332 133.93C18.2324 134.167 17.9489 134.285 17.5827 134.285H17.3819H17.3937ZM18.504 130.618V129.932H20.0632V130.618H18.504ZM19.7915 134.439V129.932H20.5475V134.439H19.7915ZM20.453 135.574V133.765H21.209V135.574H20.453Z" fill="#3C3C3B"/>
<path d="M21.5043 134.486V133.824C21.6342 133.824 21.7405 133.788 21.7996 133.706C21.8586 133.623 21.9059 133.504 21.9059 133.351V129.944H22.6619V133.398C22.6619 133.753 22.5674 134.025 22.3902 134.202C22.213 134.38 21.9413 134.474 21.5988 134.474H21.5043V134.486ZM22.4847 130.618V129.932H24.0557V130.618H22.4847ZM23.7368 134.439V129.932H24.4927V134.439H23.7368Z" fill="#3C3C3B"/>
<path d="M27.7529 132.949H26.5835C26.1937 132.949 25.8866 132.842 25.674 132.629C25.4613 132.416 25.355 132.121 25.355 131.742V131.139C25.355 130.76 25.4732 130.465 25.6976 130.252C25.9338 130.039 26.2528 129.932 26.6662 129.932H27.7529V130.618H26.7252C26.5244 130.618 26.3709 130.678 26.2646 130.784C26.1583 130.891 26.0992 131.044 26.0992 131.245V131.624C26.0992 131.825 26.1583 131.979 26.2646 132.085C26.3709 132.192 26.5244 132.251 26.7252 132.251H27.7529V132.937V132.949ZM26.1937 134.439H25.3905L26.2409 132.499L26.9615 132.7L26.2055 134.439H26.1937ZM28.1427 134.439H27.3867V129.932H28.1427V134.439Z" fill="#3C3C3B"/>
<path d="M33.0683 132.416L34.4858 128.135H35.1827V134.439H34.474V129.518L34.533 129.79L33.34 133.481H32.7849L31.5918 129.873L31.6627 129.507V134.427H30.9422V128.123H31.6509L33.0565 132.404L33.0683 132.416Z" fill="#3C3C3B"/>
<path d="M37.2852 134.77L35.8087 129.944H36.5765L37.6159 133.812L37.2852 134.77ZM38.2538 129.944H39.0216L37.5451 135.503C37.4742 135.775 37.3206 135.988 37.108 136.118C36.8836 136.26 36.5883 136.32 36.1985 136.32H36.1158V135.634H36.1985C36.4347 135.634 36.6237 135.586 36.7418 135.48C36.8718 135.373 36.9545 135.22 37.0135 135.018L38.2656 129.932L38.2538 129.944Z" fill="#3C3C3B"/>
<path d="M39.5531 134.439V128.135H40.3091V134.439H39.5531ZM40.1319 131.683V130.997H42.1518V131.683H40.1319ZM41.8329 134.439V128.135H42.5888V134.439H41.8329Z" fill="#3C3C3B"/>
<path d="M44.8686 134.51C44.4197 134.51 44.0654 134.38 43.8173 134.12C43.5693 133.859 43.4393 133.493 43.4393 133.02V131.458C43.4393 130.95 43.5575 130.571 43.8055 130.287C44.0536 130.015 44.3961 129.873 44.8332 129.873C45.2702 129.873 45.6246 130.003 45.8726 130.252C46.1207 130.512 46.2388 130.867 46.2388 131.34V132.487H43.9473V131.86H45.5064V131.352C45.5064 131.092 45.4474 130.891 45.3293 130.749C45.2111 130.607 45.0458 130.536 44.8332 130.536C44.6205 130.536 44.467 130.607 44.3489 130.76C44.2307 130.914 44.1717 131.127 44.1717 131.399V133.031C44.1717 133.28 44.2307 133.481 44.3489 133.623C44.467 133.765 44.6442 133.836 44.8568 133.836C45.0576 133.836 45.223 133.777 45.3411 133.67C45.4592 133.564 45.5064 133.41 45.5064 133.209V133.173H46.2388V133.209C46.2388 133.623 46.1207 133.942 45.8726 134.167C45.6364 134.392 45.2938 134.51 44.8568 134.51H44.8686Z" fill="#3C3C3B"/>
<path d="M48.2823 134.51C47.8925 134.51 47.5853 134.403 47.3963 134.191C47.1955 133.978 47.101 133.67 47.101 133.244C47.101 132.736 47.2192 132.357 47.4672 132.109C47.7035 131.86 48.0696 131.73 48.5539 131.73H49.2745L49.3335 132.322H48.5539C48.3059 132.322 48.1169 132.393 47.9988 132.546C47.8806 132.7 47.8098 132.925 47.8098 133.232C47.8098 133.457 47.8688 133.623 47.9751 133.729C48.0814 133.836 48.2468 133.895 48.4712 133.895C48.7193 133.895 48.9083 133.824 49.0382 133.694C49.1682 133.564 49.2272 133.363 49.2272 133.102L49.3217 133.493C49.3217 133.717 49.2745 133.895 49.2036 134.049C49.1327 134.202 49.0146 134.309 48.861 134.38C48.7075 134.451 48.5185 134.486 48.2941 134.486L48.2823 134.51ZM49.2154 134.439V131.139C49.2154 130.926 49.1563 130.76 49.0382 130.654C48.9201 130.547 48.7429 130.477 48.5303 130.477C48.3413 130.477 48.1878 130.536 48.0814 130.654C47.9751 130.772 47.9161 130.938 47.9279 131.151H47.1955C47.1955 130.737 47.3137 130.417 47.5499 130.204C47.7861 129.98 48.1287 129.873 48.5539 129.873C48.9792 129.873 49.3335 129.98 49.5816 130.204C49.8296 130.429 49.9478 130.749 49.9478 131.151V134.451H49.2272L49.2154 134.439Z" fill="#3C3C3B"/>
<path d="M50.5738 130.619V129.932H52.5937V130.619H50.5738ZM52.1448 134.463C51.755 134.463 51.4833 134.356 51.3061 134.155C51.129 133.954 51.0463 133.658 51.0463 133.268V128.62H51.8022V133.268C51.8022 133.434 51.8377 133.552 51.9086 133.646C51.9794 133.729 52.0857 133.777 52.2393 133.777H52.5818V134.463H52.1448Z" fill="#3C3C3B"/>
<path d="M55.1805 134.439V128.135H55.9365V134.439H55.1805ZM55.653 132.002V131.316H56.976C57.165 131.316 57.3185 131.257 57.413 131.139C57.5193 131.021 57.5666 130.843 57.5666 130.63V129.53C57.5666 129.306 57.5193 129.128 57.413 128.998C57.3067 128.88 57.165 128.809 56.9642 128.809H55.6412V128.123H56.9405C57.2358 128.123 57.4839 128.182 57.6965 128.288C57.9091 128.395 58.0627 128.549 58.169 128.761C58.2753 128.974 58.3344 129.223 58.3344 129.507V130.63C58.3344 130.914 58.2753 131.163 58.169 131.364C58.0627 131.565 57.8973 131.718 57.6965 131.825C57.4957 131.931 57.2358 131.991 56.9405 131.991H55.6412L55.653 132.002Z" fill="#3C3C3B"/>
<path d="M59.0431 134.439V129.932H59.7991V134.439H59.0431ZM61.1811 130.559H61.0866C60.6968 130.559 60.3779 130.654 60.1535 130.831C59.929 131.009 59.7991 131.269 59.7873 131.588L59.6928 130.713C59.8582 130.441 60.0708 130.228 60.3188 130.074C60.5787 129.921 60.8622 129.85 61.1693 129.85V130.547L61.1811 130.559Z" fill="#3C3C3B"/>
<path d="M63.1064 134.51C62.6812 134.51 62.3505 134.392 62.1142 134.167C61.878 133.942 61.7599 133.611 61.7599 133.197V131.151C61.7599 130.737 61.878 130.417 62.1142 130.204C62.3505 129.98 62.6812 129.873 63.1064 129.873C63.5317 129.873 63.8624 129.98 64.0986 130.204C64.3349 130.429 64.453 130.749 64.453 131.151V133.209C64.453 133.623 64.3349 133.942 64.0986 134.167C63.8624 134.392 63.5317 134.51 63.1064 134.51ZM63.0946 133.812C63.2836 133.812 63.4372 133.753 63.5317 133.646C63.6262 133.54 63.6852 133.386 63.6852 133.185V131.151C63.6852 130.961 63.638 130.808 63.5317 130.701C63.4254 130.595 63.2836 130.536 63.0946 130.536C62.9056 130.536 62.7639 130.595 62.6576 130.701C62.5513 130.808 62.504 130.961 62.504 131.151V133.185C62.504 133.386 62.5513 133.528 62.6576 133.646C62.7639 133.753 62.9056 133.812 63.0946 133.812Z" fill="#3C3C3B"/>
<path d="M8.39908 39.9211V40.7728V41.8846H9.19049V39.9211H8.39908Z" fill="#2E2D2C"/>
<path d="M6.96982 32.8363C7.02888 33.7943 7.80848 34.5513 8.77707 34.5513H8.8125C9.76928 34.5513 10.5489 33.7943 10.6198 32.8363H10.6316V32.718V30.8846H8.8125H6.95801V32.8481H6.96982V32.8363ZM7.57224 31.4879H8.8125H10.0173V32.789C9.97009 33.4277 9.45036 33.9363 8.8125 33.9363H8.78888C8.15103 33.9363 7.6313 33.4277 7.58405 32.789V31.4879H7.57224Z" fill="#1D71B8"/>
<path d="M9.17866 42.9137V45.9772H8.81249V43.2449L8.28094 43.5642V43.1976L8.7298 42.9137H9.17866Z" fill="#3C3C3B"/>
<path d="M7.6431 38.4427V35.3793H8.00927V38.4427H7.6431ZM7.85571 38.4427V38.1115H8.54081C8.6235 38.1115 8.68256 38.0879 8.718 38.0406C8.75343 37.9933 8.77706 37.9341 8.77706 37.8513V35.947C8.77706 35.8642 8.75343 35.8051 8.718 35.7578C8.68256 35.7104 8.6235 35.6986 8.54081 35.6986H7.85571V35.3674H8.51719C8.718 35.3674 8.87155 35.4147 8.97786 35.5212C9.08417 35.6276 9.14323 35.7696 9.14323 35.9588V37.8395C9.14323 37.9696 9.11961 38.076 9.07236 38.1588C9.02511 38.2535 8.95424 38.3126 8.85974 38.3599C8.76524 38.4072 8.65894 38.4309 8.51719 38.4309H7.85571V38.4427Z" fill="#3C3C3B"/>
<path d="M9.92331 35.3793V38.4427H9.55664V35.3793H9.92331Z" fill="#3C3C3B"/>
<path d="M15.5898 32.8125C15.6489 33.7706 16.4285 34.5276 17.3971 34.5276H17.4325C18.3893 34.5276 19.1689 33.7706 19.2397 32.8125H19.2516V32.6942V30.8609H17.4325H15.578V32.8244H15.5898V32.8125ZM16.1922 31.476H17.4325H18.6373V32.777C18.5901 33.4158 18.0704 33.9244 17.4325 33.9244H17.4089C16.771 33.9244 16.2513 33.4158 16.204 32.777V31.476H16.1922Z" fill="#1D71B8"/>
<path d="M17.0191 39.9211V40.7728V41.8846H17.7987V39.9211H17.0191Z" fill="#2E2D2C"/>
<path d="M16.7001 45.989V45.6933L17.4679 44.4277C17.5624 44.2739 17.6333 44.132 17.6805 43.99C17.7278 43.8481 17.7514 43.7298 17.7514 43.6234C17.7514 43.4932 17.7278 43.3986 17.6687 43.3277C17.6097 43.2567 17.5388 43.2212 17.4325 43.2212C17.3144 43.2212 17.2199 43.2685 17.1608 43.3631C17.1017 43.4578 17.0663 43.5879 17.0663 43.7653H16.6883C16.6883 43.4814 16.7474 43.2567 16.8773 43.1147C17.0073 42.961 17.1844 42.89 17.4207 42.89C17.6569 42.89 17.8341 42.9492 17.964 43.0793C18.094 43.2094 18.153 43.3868 18.153 43.6234C18.153 43.7535 18.1294 43.8954 18.0822 44.0492C18.0349 44.2029 17.9522 44.3685 17.8577 44.5459L17.1844 45.6578H18.153V45.989H16.7238H16.7001Z" fill="#3C3C3B"/>
<path d="M16.2631 38.4427V35.3793H16.6293V38.4427H16.2631ZM16.4757 38.4427V38.1115H17.1608C17.2435 38.1115 17.3026 38.0879 17.338 38.0406C17.3735 37.9933 17.3971 37.9341 17.3971 37.8513V35.947C17.3971 35.8642 17.3735 35.8051 17.338 35.7578C17.3026 35.7104 17.2435 35.6986 17.1608 35.6986H16.4757V35.3674H17.1372C17.338 35.3674 17.4916 35.4147 17.5979 35.5212C17.7042 35.6276 17.7633 35.7696 17.7633 35.9588V37.8395C17.7633 37.9696 17.7396 38.076 17.6924 38.1588C17.6451 38.2535 17.5743 38.3126 17.4798 38.3599C17.3853 38.4072 17.279 38.4309 17.1372 38.4309H16.4757V38.4427Z" fill="#3C3C3B"/>
<path d="M18.5433 35.3793V38.4427H18.1766V35.3793H18.5433Z" fill="#3C3C3B"/>
<path d="M24.4898 32.8363C24.5489 33.7943 25.3285 34.5513 26.2971 34.5513H26.3325C27.2893 34.5513 28.0689 33.7943 28.1397 32.8363H28.1516V32.718V30.8846H26.3325H24.478V32.8481H24.4898V32.8363ZM25.0804 31.4879H26.3207H27.5255V32.789C27.4783 33.4277 26.9585 33.9363 26.3207 33.9363H26.2971C25.6592 33.9363 25.1395 33.4277 25.0922 32.789V31.4879H25.0804Z" fill="#1D71B8"/>
<path d="M25.9073 39.9211V40.7728V41.8846H26.6987V39.9211H25.9073Z" fill="#2E2D2C"/>
<path d="M26.2852 46.0126C26.1316 46.0126 25.9899 45.989 25.8836 45.9416C25.7773 45.8943 25.6946 45.8234 25.6355 45.7287C25.5764 45.6341 25.5528 45.5277 25.5528 45.3857V45.1373H25.919V45.3621C25.919 45.4685 25.9544 45.5395 26.0135 45.5986C26.0726 45.6578 26.1671 45.6814 26.2852 45.6814C26.4033 45.6814 26.486 45.6459 26.545 45.5868C26.6041 45.5277 26.6395 45.4449 26.6395 45.3384V44.9126C26.6395 44.8062 26.6159 44.7115 26.5569 44.6524C26.4978 44.5933 26.4269 44.5578 26.3324 44.5578H26.108V44.2266H26.3324C26.4151 44.2266 26.4742 44.2029 26.5214 44.1556C26.5687 44.1083 26.5923 44.0373 26.5923 43.9545V43.5287C26.5923 43.4341 26.5687 43.3631 26.5096 43.3158C26.4505 43.2685 26.3797 43.2449 26.2852 43.2449C26.1907 43.2449 26.108 43.2685 26.0489 43.3158C25.9899 43.3631 25.9662 43.4341 25.9662 43.5287V43.7771H25.6001V43.5169C25.6001 43.3158 25.6591 43.1621 25.7891 43.0556C25.919 42.9492 26.0844 42.89 26.3088 42.89C26.5096 42.89 26.675 42.9492 26.7813 43.0556C26.8994 43.1621 26.9467 43.3158 26.9467 43.5169V43.9427C26.9467 44.0137 26.923 44.0965 26.8758 44.1674C26.8285 44.2384 26.7577 44.3094 26.675 44.3803C26.7813 44.4158 26.8522 44.4868 26.9112 44.5814C26.9703 44.676 26.9939 44.7825 26.9939 44.9008V45.3384C26.9939 45.5513 26.9348 45.7169 26.8049 45.8352C26.675 45.9535 26.4978 46.0126 26.2734 46.0126H26.2852Z" fill="#3C3C3B"/>
<path d="M25.1512 38.4427V35.3793H25.5174V38.4427H25.1512ZM25.3757 38.4427V38.1115H26.0608C26.1435 38.1115 26.2025 38.0879 26.238 38.0406C26.2734 37.9933 26.297 37.9341 26.297 37.8513V35.947C26.297 35.8642 26.2734 35.8051 26.238 35.7578C26.2025 35.7104 26.1435 35.6986 26.0608 35.6986H25.3757V35.3674H26.0372C26.238 35.3674 26.3915 35.4147 26.4978 35.5212C26.6041 35.6276 26.6632 35.7696 26.6632 35.9588V37.8395C26.6632 37.9696 26.6396 38.076 26.5923 38.1588C26.5451 38.2535 26.4742 38.3126 26.3797 38.3599C26.2852 38.4072 26.1789 38.4309 26.0372 38.4309H25.3757V38.4427Z" fill="#3C3C3B"/>
<path d="M27.4433 35.3793V38.4427H27.0766V35.3793H27.4433Z" fill="#3C3C3B"/>
<path d="M33.4447 32.8362C33.4802 33.4158 33.7873 33.9244 34.2361 34.2319C34.5314 34.433 34.874 34.5513 35.252 34.5513H35.2874C36.2442 34.5513 37.0238 33.7943 37.0947 32.8362H37.1065V30.8727H35.2874H35.252H33.4329V32.8362H33.4447Z" fill="#1D71B8"/>
<path d="M33.0903 38.4782C32.9368 38.4782 32.795 38.4427 32.6887 38.3835C32.5824 38.3244 32.4879 38.2298 32.4407 38.1115C32.3816 37.9932 32.358 37.8513 32.358 37.6857V36.1244C32.358 35.9588 32.3816 35.8169 32.4407 35.6986C32.4997 35.5803 32.5824 35.4975 32.6887 35.4265C32.795 35.3674 32.9368 35.3319 33.0903 35.3319C33.2439 35.3319 33.3857 35.3674 33.492 35.4265C33.5983 35.4857 33.681 35.5803 33.74 35.6986C33.7991 35.8169 33.8227 35.9588 33.8227 36.1244V36.2427H33.4565V36.1244C33.4565 36.0298 33.4447 35.947 33.4093 35.8878C33.3857 35.8169 33.3384 35.7695 33.2793 35.7341C33.2203 35.6986 33.1612 35.6867 33.0785 35.6867C32.9604 35.6867 32.8659 35.7222 32.8069 35.805C32.7478 35.8878 32.7124 35.9943 32.7124 36.1362V37.6975C32.7124 37.8394 32.7478 37.9459 32.8069 38.0287C32.8659 38.1115 32.9604 38.147 33.0785 38.147C33.1967 38.147 33.2912 38.1115 33.3502 38.0287C33.4093 37.9459 33.4447 37.8394 33.4447 37.6975V37.5792H33.8109V37.6975C33.8109 37.8631 33.7873 38.005 33.7282 38.1233C33.6691 38.2416 33.5865 38.3244 33.4801 38.3954C33.3738 38.4545 33.2321 38.49 33.0785 38.49L33.0903 38.4782Z" fill="#3C3C3B"/>
<path d="M34.933 38.4781C34.7677 38.4781 34.6259 38.4426 34.5078 38.3835C34.3897 38.3244 34.2952 38.2416 34.2361 38.1233C34.1771 38.005 34.1416 37.8749 34.1416 37.7093V36.1243C34.1416 35.9587 34.1771 35.8168 34.2361 35.6985C34.2952 35.5802 34.3897 35.4975 34.5078 35.4383C34.6259 35.3792 34.7677 35.3437 34.933 35.3437C35.0984 35.3437 35.2402 35.3673 35.3583 35.4383C35.4764 35.5093 35.5709 35.5802 35.63 35.6985C35.689 35.8168 35.7244 35.9587 35.7244 36.1243V37.7093C35.7244 37.8749 35.689 38.0168 35.63 38.1233C35.5709 38.2297 35.4764 38.3244 35.3583 38.3835C35.2402 38.4426 35.0984 38.4781 34.933 38.4781ZM34.933 38.1351C35.063 38.1351 35.1693 38.0996 35.252 38.0286C35.3228 37.9577 35.3583 37.8512 35.3583 37.7211V36.1007C35.3583 35.9706 35.3228 35.8641 35.252 35.7932C35.1811 35.7222 35.0748 35.6867 34.933 35.6867C34.7913 35.6867 34.6968 35.7222 34.6141 35.7932C34.5432 35.8641 34.5078 35.9706 34.5078 36.1007V37.7211C34.5078 37.8512 34.5432 37.9459 34.6141 38.0286C34.685 38.0996 34.7913 38.1351 34.933 38.1351Z" fill="#3C3C3B"/>
<path d="M37.1537 37.4609L37.8388 35.3792H38.1813V38.4426H37.8388V36.0533L37.8624 36.1835L37.2836 37.9813H37.0119L36.4331 36.2308L36.4686 36.0533V38.4426H36.1142V35.3792H36.4567L37.1419 37.4609H37.1537Z" fill="#3C3C3B"/>
<path d="M52.7698 32.8244C52.8289 33.7824 53.6085 34.5394 54.5771 34.5394H54.6125C55.5693 34.5394 56.3489 33.7824 56.4197 32.8244H56.4316V32.7061V30.8727H54.6125H52.758V32.8362H52.7698V32.8244ZM53.3722 31.476H54.6125H55.8173V32.7771C55.7701 33.4158 55.2503 33.9244 54.6125 33.9244H54.5889C53.951 33.9244 53.4313 33.4158 53.384 32.7771V31.476H53.3722Z" fill="#1D71B8"/>
<path d="M54.2109 39.9448V40.7964V41.8964H55.0023V39.9448H54.2109Z" fill="#2E2D2C"/>
<path d="M53.821 45.5277V45.232L54.5179 42.9373H54.8959L54.2226 45.2083H55.4747V45.5395H53.821V45.5277ZM54.8723 46.0008V44.2029H55.2267V46.0008H54.8723Z" fill="#3C3C3B"/>
<path d="M53.4549 38.4663V35.4029H53.8211V38.4663H53.4549ZM53.6793 38.4663V38.1352H54.3644C54.4471 38.1352 54.5062 38.1115 54.5416 38.0642C54.577 38.0169 54.6007 37.9577 54.6007 37.8749V35.9706C54.6007 35.8878 54.577 35.8287 54.5416 35.7814C54.5062 35.7341 54.4471 35.7222 54.3644 35.7222H53.6793V35.3911H54.3408C54.5416 35.3911 54.6952 35.4384 54.8015 35.5448C54.9078 35.6513 54.9668 35.7932 54.9668 35.9825V37.8631C54.9668 37.9932 54.9432 38.0997 54.896 38.1825C54.8487 38.2771 54.7778 38.3362 54.6834 38.3835C54.5889 38.4309 54.4825 38.4545 54.3408 38.4545H53.6793V38.4663Z" fill="#3C3C3B"/>
<path d="M55.7469 35.3911V38.4545H55.3802V35.3911H55.7469Z" fill="#3C3C3B"/>
<path d="M61.4698 32.8125C61.5289 33.7706 62.3085 34.5276 63.2771 34.5276H63.3125C64.2693 34.5276 65.0489 33.7706 65.1197 32.8125H65.1316V32.6942V30.8609H63.3125H61.458V32.8244H61.4698V32.8125ZM62.0604 31.4641H63.3007H64.5055V32.7652C64.4583 33.4039 63.9385 33.9125 63.3007 33.9125H63.2771C62.6392 33.9125 62.1195 33.4039 62.0722 32.7652V31.4641H62.0604Z" fill="#1D71B8"/>
<path d="M62.9109 39.9448V40.7964V41.8964H63.7023V39.9448H62.9109Z" fill="#2E2D2C"/>
<path d="M63.3006 46.0363C63.0762 46.0363 62.9108 45.9771 62.7927 45.8588C62.6746 45.7406 62.6155 45.575 62.6155 45.3739V45.2438H62.9817V45.3739C62.9817 45.4803 63.0053 45.5631 63.0644 45.6223C63.1235 45.6814 63.2061 45.7051 63.3006 45.7051C63.3951 45.7051 63.4896 45.6814 63.5487 45.6223C63.6078 45.5631 63.6314 45.4803 63.6314 45.3739V44.5696C63.6314 44.4631 63.6078 44.3803 63.5487 44.3212C63.4896 44.2621 63.4188 44.2384 63.3125 44.2384C63.2061 44.2384 63.1353 44.2621 63.0762 44.3212C63.0171 44.3803 62.9935 44.4513 62.9935 44.5578H62.6628V42.9373H63.9621V43.2685H63.029V44.061C63.029 44.061 63.1235 43.9664 63.1825 43.9427C63.2416 43.919 63.3125 43.8954 63.3833 43.8954C63.5723 43.8954 63.7259 43.9545 63.8322 44.0728C63.9385 44.1911 63.9857 44.3567 63.9857 44.5578V45.3621C63.9857 45.575 63.9267 45.7406 63.7967 45.8588C63.6786 45.9771 63.5014 46.0363 63.277 46.0363H63.3006Z" fill="#3C3C3B"/>
<path d="M62.1548 38.4663V35.4029H62.521V38.4663H62.1548ZM62.3674 38.4663V38.1352H63.0525C63.1352 38.1352 63.1943 38.1115 63.2297 38.0642C63.2652 38.0169 63.2888 37.9577 63.2888 37.8749V35.9706C63.2888 35.8878 63.2652 35.8287 63.2297 35.7814C63.1943 35.7341 63.1352 35.7222 63.0525 35.7222H62.3674V35.3911H63.0289C63.2297 35.3911 63.3833 35.4384 63.4896 35.5448C63.5959 35.6513 63.6549 35.7932 63.6549 35.9825V37.8631C63.6549 37.9932 63.6313 38.0997 63.5841 38.1825C63.5368 38.2771 63.466 38.3362 63.3715 38.3835C63.277 38.4309 63.1707 38.4545 63.0289 38.4545H62.3674V38.4663Z" fill="#3C3C3B"/>
<path d="M64.4351 35.3911V38.4545H64.0684V35.3911H64.4351Z" fill="#3C3C3B"/>
<path d="M70.3698 32.8244C70.4289 33.7824 71.2085 34.5394 72.1771 34.5394H72.2125C73.1693 34.5394 73.9489 33.7824 74.0197 32.8244H74.0316V32.7061V30.8727H72.2125H70.358V32.8362H70.3698V32.8244ZM70.9722 31.476H72.2125H73.4173V32.7771C73.3701 33.4158 72.8503 33.9244 72.2125 33.9244H72.1889C71.551 33.9244 71.0313 33.4158 70.984 32.7771V31.476H70.9722Z" fill="#1D71B8"/>
<path d="M71.8228 39.9448V40.7964V41.8964H72.6024V39.9448H71.8228Z" fill="#2E2D2C"/>
<path d="M72.2125 46.0363C71.9881 46.0363 71.8109 45.9771 71.681 45.847C71.5511 45.7169 71.492 45.5395 71.492 45.3029V44.9008C71.492 44.747 71.5156 44.6051 71.5629 44.4986C71.6101 44.3922 71.6574 44.2739 71.7164 44.1438L72.2362 42.9373H72.6378L71.9527 44.4631L71.8582 44.3922C71.9763 44.2502 72.118 44.1793 72.2834 44.1793C72.4842 44.1793 72.6496 44.2384 72.7559 44.3567C72.8622 44.475 72.9213 44.6406 72.9213 44.8416V45.2793C72.9213 45.5158 72.8622 45.7051 72.7323 45.8352C72.6023 45.9653 72.4252 46.0363 72.2007 46.0363H72.2125ZM72.2125 45.6932C72.3189 45.6932 72.4133 45.6578 72.4724 45.5986C72.5315 45.5395 72.5669 45.433 72.5669 45.3147V44.8889C72.5669 44.7707 72.5315 44.676 72.4724 44.6051C72.4133 44.5459 72.3307 44.5104 72.2125 44.5104C72.0944 44.5104 72.0117 44.5459 71.9527 44.6051C71.8936 44.6642 71.8582 44.7588 71.8582 44.8889V45.3147C71.8582 45.433 71.8936 45.5277 71.9527 45.5986C72.0117 45.6696 72.0944 45.6932 72.2125 45.6932Z" fill="#3C3C3B"/>
<path d="M71.0667 38.4663V35.4029H71.4329V38.4663H71.0667ZM71.2794 38.4663V38.1352H71.9645C72.0471 38.1352 72.1062 38.1115 72.1416 38.0642C72.1771 38.0169 72.2007 37.9577 72.2007 37.8749V35.9706C72.2007 35.8878 72.1771 35.8287 72.1416 35.7814C72.1062 35.7341 72.0471 35.7222 71.9645 35.7222H71.2794V35.3911H71.9408C72.1416 35.3911 72.2952 35.4384 72.4015 35.5448C72.5078 35.6513 72.5669 35.7932 72.5669 35.9825V37.8631C72.5669 37.9932 72.5433 38.0997 72.496 38.1825C72.4488 38.2771 72.3779 38.3362 72.2834 38.3835C72.1889 38.4309 72.0826 38.4545 71.9408 38.4545H71.2794V38.4663Z" fill="#3C3C3B"/>
<path d="M73.347 35.3911V38.4545H72.9803V35.3911H73.347Z" fill="#3C3C3B"/>
<path d="M43.8448 32.8362C43.8802 33.4158 44.1873 33.9244 44.6362 34.2319C44.9315 34.433 45.274 34.5513 45.652 34.5513H45.6874C46.6442 34.5513 47.4238 33.7943 47.4947 32.8362H47.5065V30.8727H45.6874H45.652H43.8329V32.8362H43.8448Z" fill="#1D71B8"/>
<path d="M43.4903 38.4899C43.3368 38.4899 43.195 38.4545 43.0887 38.3953C42.9824 38.3362 42.8879 38.2416 42.8407 38.1233C42.7816 38.005 42.758 37.8631 42.758 37.6975V36.1362C42.758 35.9706 42.7816 35.8286 42.8407 35.7104C42.8997 35.5921 42.9824 35.5093 43.0887 35.4383C43.195 35.3792 43.3368 35.3437 43.4903 35.3437C43.6439 35.3437 43.7856 35.3792 43.892 35.4383C43.9983 35.4975 44.081 35.5921 44.14 35.7104C44.1991 35.8286 44.2227 35.9706 44.2227 36.1362V36.2544H43.8565V36.1362C43.8565 36.0415 43.8447 35.9587 43.8093 35.8996C43.7856 35.8286 43.7384 35.7813 43.6793 35.7458C43.6203 35.7104 43.5612 35.6985 43.4785 35.6985C43.3604 35.6985 43.2659 35.734 43.2069 35.8168C43.1478 35.8996 43.1124 36.0061 43.1124 36.148V37.7093C43.1124 37.8512 43.1478 37.9577 43.2069 38.0405C43.2659 38.1233 43.3604 38.1588 43.4785 38.1588C43.5967 38.1588 43.6911 38.1233 43.7502 38.0405C43.8093 37.9577 43.8447 37.8512 43.8447 37.7093V37.591H44.2109V37.7093C44.2109 37.8749 44.1873 38.0168 44.1282 38.1351C44.0691 38.2534 43.9865 38.3362 43.8801 38.4071C43.7738 38.4663 43.6321 38.5018 43.4785 38.5018L43.4903 38.4899Z" fill="#3C3C3B"/>
<path d="M45.3331 38.49C45.1677 38.49 45.026 38.4545 44.9078 38.3953C44.7897 38.3362 44.6952 38.2534 44.6362 38.1351C44.5771 38.0168 44.5417 37.8867 44.5417 37.7211V36.1362C44.5417 35.9706 44.5771 35.8286 44.6362 35.7104C44.6952 35.5921 44.7897 35.5093 44.9078 35.4502C45.026 35.391 45.1677 35.3555 45.3331 35.3555C45.4984 35.3555 45.6402 35.3792 45.7583 35.4502C45.8764 35.5211 45.9709 35.5921 46.03 35.7104C46.089 35.8286 46.1245 35.9706 46.1245 36.1362V37.7211C46.1245 37.8867 46.089 38.0287 46.03 38.1351C45.9709 38.2416 45.8764 38.3362 45.7583 38.3953C45.6402 38.4545 45.4984 38.49 45.3331 38.49ZM45.3331 38.1469C45.463 38.1469 45.5693 38.1115 45.652 38.0405C45.7229 37.9695 45.7583 37.8631 45.7583 37.733V36.1125C45.7583 35.9824 45.7229 35.876 45.652 35.805C45.5811 35.734 45.4748 35.6985 45.3331 35.6985C45.1913 35.6985 45.0968 35.734 45.0141 35.805C44.9433 35.876 44.9078 35.9824 44.9078 36.1125V37.733C44.9078 37.8631 44.9433 37.9577 45.0141 38.0405C45.085 38.1115 45.1913 38.1469 45.3331 38.1469Z" fill="#3C3C3B"/>
<path d="M47.5537 37.4727L48.2388 35.391H48.5814V38.4544H48.2388V36.0652L48.2624 36.1953L47.6836 37.9932H47.412L46.8332 36.2426L46.8686 36.0652V38.4544H46.5143V35.391H46.8568L47.5419 37.4727H47.5537Z" fill="#3C3C3B"/>
<path d="M24.5003 81.7806V76.73H25.02V81.7806H24.5003ZM24.8901 81.7806V81.3193H26.0123C26.1776 81.3193 26.2957 81.272 26.3902 81.1655C26.4847 81.0591 26.5202 80.9171 26.5202 80.7397V79.8289C26.5202 79.6397 26.4729 79.4859 26.3902 79.3913C26.3076 79.2849 26.1776 79.2375 26.0123 79.2375H24.8901V78.7763H25.9886C26.2131 78.7763 26.402 78.8236 26.5556 78.9064C26.7092 78.9892 26.8273 79.1074 26.91 79.273C26.9927 79.4386 27.0399 79.6279 27.0399 79.8526V80.7634C27.0399 80.9881 26.9927 81.1773 26.91 81.3311C26.8273 81.4849 26.7092 81.6031 26.5438 81.6859C26.3784 81.7687 26.2012 81.8042 25.9768 81.8042H24.8783L24.8901 81.7806ZM24.961 77.2031V76.7418H26.721V77.2031H24.961Z" fill="#3C3C3B"/>
<path d="M27.4533 81.816V81.3547C27.5596 81.3547 27.6305 81.3192 27.6895 81.2601C27.7486 81.2009 27.7722 81.1063 27.7722 80.9762V78.1848H28.2919V80.9998C28.2919 81.2601 28.2211 81.4611 28.0911 81.6031C27.9612 81.745 27.7722 81.816 27.5242 81.816H27.4533ZM28.2329 78.6461V78.1848H29.485V78.6461H28.2329ZM29.3078 81.7805V78.1729H29.8275V81.7805H29.3078Z" fill="#3C3C3B"/>
<path d="M31.6347 81.8397C31.2922 81.8397 31.0323 81.7451 30.8433 81.5677C30.6543 81.3902 30.5598 81.13 30.5598 80.7988V79.1547C30.5598 78.8236 30.6543 78.5752 30.8433 78.3978C31.0323 78.2203 31.2922 78.1257 31.6347 78.1257C31.9773 78.1257 32.2372 78.2203 32.4262 78.3978C32.6151 78.5752 32.7096 78.8354 32.7096 79.1547V80.7988C32.7096 81.13 32.6151 81.3784 32.4262 81.5677C32.2372 81.7569 31.9773 81.8397 31.6347 81.8397ZM31.6347 81.3666C31.8119 81.3666 31.9537 81.3193 32.0482 81.2128C32.1427 81.1064 32.1899 80.9763 32.1899 80.787V79.1429C32.1899 78.9655 32.1427 78.8236 32.0482 78.7289C31.9537 78.6343 31.8119 78.5752 31.6347 78.5752C31.4576 78.5752 31.3276 78.6225 31.2213 78.7289C31.115 78.8354 31.0796 78.9655 31.0796 79.1429V80.787C31.0796 80.9644 31.1268 81.1064 31.2213 81.2128C31.3158 81.3193 31.4576 81.3666 31.6347 81.3666Z" fill="#3C3C3B"/>
<path d="M33.4302 81.7805V78.1729H33.9499V81.7805H33.4302ZM33.7964 80.2192V79.7697H35.0603V80.2192H33.7964ZM35.3556 81.7805L34.576 80.1127L35.0012 79.817L35.9226 81.7805H35.3438H35.3556ZM34.9894 80.2192L34.5878 79.888L35.2375 78.1848H35.7926L34.9894 80.2192Z" fill="#3C3C3B"/>
<path d="M20.0471 88.9483L21.2283 85.2698H21.7363V90.3204H21.2401V86.2634L21.2756 86.4881L20.2716 89.6225H19.8345L18.8305 86.5591L18.8659 86.2634V90.3204H18.358V85.2698H18.8659L20.0471 88.9483Z" fill="#3C3C3B"/>
<path d="M23.449 90.557L22.2442 86.7129H22.7757L23.638 89.7881L23.449 90.557ZM24.2759 86.7129H24.8074L23.5672 91.1602C23.5081 91.3849 23.39 91.5505 23.2128 91.657C23.0356 91.7634 22.7994 91.8226 22.4804 91.8226H22.445V91.3494H22.4804C22.6931 91.3494 22.8466 91.3021 22.9529 91.2075C23.0592 91.1129 23.1419 90.971 23.201 90.7935L24.2641 86.7247L24.2759 86.7129Z" fill="#3C3C3B"/>
<path d="M25.2444 90.3086V85.258H25.7641V90.3086H25.2444ZM25.7051 88.0613V87.6H27.3233V88.0613H25.7051ZM27.1462 90.3086V85.258H27.6659V90.3086H27.1462Z" fill="#3C3C3B"/>
<path d="M29.4968 90.3677C29.1306 90.3677 28.8589 90.2612 28.6581 90.0483C28.4573 89.8354 28.3628 89.5397 28.3628 89.1612V87.9075C28.3628 87.5053 28.4573 87.186 28.6581 86.9731C28.8589 86.7483 29.1306 86.6419 29.4732 86.6419C29.8157 86.6419 30.111 86.7483 30.3 86.9494C30.5008 87.1505 30.5953 87.4462 30.5953 87.8128V88.7118H28.6699V88.2505H30.0638V87.8365C30.0638 87.6118 30.0165 87.4344 29.9102 87.3042C29.8039 87.1741 29.6622 87.115 29.4613 87.115C29.2605 87.115 29.1306 87.186 29.0243 87.3161C28.918 87.4462 28.8707 87.6354 28.8707 87.8838V89.1849C28.8707 89.4096 28.9298 89.5871 29.0361 89.7172C29.1424 89.8473 29.296 89.9064 29.4968 89.9064C29.6858 89.9064 29.8275 89.8591 29.9338 89.7526C30.0401 89.6462 30.0874 89.5161 30.0874 89.3268V89.3032H30.6071V89.3268C30.6071 89.658 30.5126 89.9064 30.3118 90.0957C30.1228 90.2731 29.8511 90.3677 29.4968 90.3677Z" fill="#3C3C3B"/>
<path d="M32.249 90.3677C31.9182 90.3677 31.6702 90.2849 31.5166 90.1193C31.3631 89.9537 31.2686 89.6935 31.2686 89.3623C31.2686 88.9602 31.3631 88.6526 31.5639 88.4516C31.7529 88.2505 32.0482 88.1559 32.4262 88.1559H33.0995L33.1467 88.5225H32.4262C32.2017 88.5225 32.0246 88.5935 31.9182 88.7354C31.8119 88.8774 31.7411 89.0903 31.7411 89.3741C31.7411 89.5871 31.7883 89.7526 31.8946 89.8591C32.0009 89.9656 32.1545 90.0129 32.3553 90.0129C32.5915 90.0129 32.7569 89.9537 32.875 89.8354C32.9931 89.7172 33.0522 89.5397 33.0522 89.3032L33.1231 89.5989C33.1231 89.7645 33.0876 89.9182 33.0168 90.0247C32.9459 90.143 32.8514 90.2258 32.7215 90.2849C32.5915 90.344 32.4262 90.3677 32.2372 90.3677H32.249ZM33.064 90.3086V87.6709C33.064 87.4817 33.005 87.3279 32.8987 87.2214C32.7923 87.115 32.627 87.0677 32.4262 87.0677C32.249 87.0677 32.1072 87.115 32.0009 87.2214C31.8946 87.3279 31.8474 87.4817 31.8474 87.6709H31.3395C31.3395 87.3397 31.434 87.0913 31.6229 86.9139C31.8119 86.7365 32.0836 86.6419 32.4262 86.6419C32.7687 86.6419 33.0522 86.7365 33.2412 86.9139C33.4302 87.0913 33.5365 87.3516 33.5365 87.6709V90.3086H33.0522H33.064Z" fill="#3C3C3B"/>
<path d="M34.0563 87.1741V86.7128H35.6745V87.1741H34.0563ZM35.3202 90.3322C35.0131 90.3322 34.7886 90.2494 34.6469 90.0838C34.5051 89.9182 34.4343 89.6817 34.4343 89.3741V85.6601H34.954V89.386C34.954 89.5397 34.9894 89.658 35.0603 89.7408C35.1312 89.8236 35.2375 89.8709 35.3792 89.8709H35.6627V90.3322H35.3084H35.3202Z" fill="#3C3C3B"/>
<path d="M41.6869 76.3278H40.2104V91.6096H41.6869V76.3278Z" fill="#EE7203"/>
<path d="M46.01 90.3204V77.6999H47.9944V90.3204H46.01ZM47.3093 90.3204V88.5107H49.3528C49.6599 88.5107 49.8962 88.4279 50.0616 88.2505C50.2269 88.0731 50.3096 87.8247 50.3096 87.5053V80.5504C50.3096 80.2193 50.2269 79.9709 50.0616 79.7934C49.8962 79.616 49.6599 79.5332 49.3528 79.5332H47.3093V77.7235H49.4473C50.3569 77.7235 51.0656 77.9601 51.5617 78.4332C52.0578 78.9063 52.3177 79.5805 52.3177 80.4558V87.6118C52.3177 88.1913 52.1995 88.6881 51.9751 89.0903C51.7507 89.4924 51.4199 89.8118 50.9947 90.0247C50.5695 90.2376 50.0497 90.344 49.4473 90.344H47.3212L47.3093 90.3204Z" fill="#3C3C3B"/>
<path d="M55.7078 77.6999V90.3204H53.7233V77.6999H55.7078Z" fill="#3C3C3B"/>
<path d="M60.031 90.4505C59.086 90.4505 58.3537 90.1903 57.8221 89.658C57.3024 89.1257 57.0307 88.3924 57.0307 87.4225V85.7784C57.0307 85.116 57.1134 84.5601 57.2788 84.0988C57.4442 83.6375 57.645 83.1526 57.8576 82.6322L59.9483 77.688H62.0627L59.405 83.9806L58.8262 83.673C59.2632 83.1053 59.7948 82.8096 60.4208 82.8096C61.2476 82.8096 61.8855 83.0461 62.3344 83.5311C62.7832 84.0042 63.0076 84.6902 63.0076 85.5655V87.3989C63.0076 88.3569 62.7478 89.1021 62.2162 89.6462C61.6847 90.1784 60.9523 90.4505 60.0074 90.4505H60.031ZM60.031 88.5935C60.3617 88.5935 60.6216 88.4989 60.7988 88.3096C60.976 88.1204 61.0705 87.8365 61.0705 87.4698V85.7429C61.0705 85.3881 60.976 85.116 60.7988 84.9386C60.6216 84.7494 60.3617 84.6666 60.031 84.6666C59.7003 84.6666 59.464 84.7612 59.275 84.9505C59.086 85.1397 59.0033 85.4117 59.0033 85.7548V87.4816C59.0033 87.8483 59.0978 88.1204 59.275 88.3096C59.4522 88.4989 59.7121 88.5935 60.031 88.5935Z" fill="#3C3C3B"/>
<path fill-rule="evenodd" clip-rule="evenodd" d="M42.1972 56.9653C41.8192 57.2137 41.4767 57.5804 41.1577 58.0535C40.9451 58.3729 40.7207 58.7868 40.4726 59.3191C40.3309 59.6385 40.1065 60.1707 39.7993 60.9277C39.6103 61.4008 39.4332 61.7557 39.2796 62.0041C39.1024 62.3352 38.8308 62.6664 38.5 62.9976C38.0275 63.4826 37.4724 63.8492 36.8581 64.1213C36.4447 64.2869 36.0785 64.3933 35.7478 64.4288L35.358 64.4525L35.7005 64.1686L36.5274 63.3643C36.8699 62.9858 37.1652 62.6073 37.3897 62.217C37.5432 61.9567 37.6614 61.732 37.7204 61.5546L38.0393 60.7385C38.2992 60.0524 38.689 59.3901 39.1969 58.7514C39.6694 58.1718 40.1537 57.7223 40.6616 57.403C41.075 57.1427 41.4648 56.989 41.8192 56.9417C41.9964 56.918 42.1263 56.9298 42.209 56.9417L42.1972 56.9653Z" fill="#EE7203"/>
<path fill-rule="evenodd" clip-rule="evenodd" d="M44.7249 56.9772C44.3469 57.2256 44.0044 57.5923 43.6855 58.0654C43.4729 58.3847 43.2484 58.7987 43.0004 59.331C42.8586 59.6503 42.6342 60.1826 42.3271 60.9396C42.1381 61.4127 41.9609 61.7675 41.8074 62.0159C41.6302 62.3471 41.3585 62.6783 41.0278 63.0095C40.5553 63.4944 40.0001 63.8611 39.3859 64.1331C38.9725 64.2987 38.6063 64.4052 38.2755 64.4407L37.8857 64.4643L38.2283 64.1805L39.0551 63.3762C39.3977 62.9977 39.693 62.6192 39.9174 62.2288C40.071 61.9686 40.1891 61.7439 40.2482 61.5665L40.5671 60.7503C40.8269 60.0643 41.2167 59.4019 41.7247 58.7632C42.1971 58.1837 42.6814 57.7342 43.1894 57.4148C43.6028 57.1546 43.9926 57.0009 44.3469 56.9535C44.5241 56.9299 44.6541 56.9417 44.7367 56.9535L44.7249 56.9772Z" fill="#2E2D2C"/>
<path fill-rule="evenodd" clip-rule="evenodd" d="M47.2173 56.9654C46.8393 57.2138 46.4968 57.5805 46.1779 58.0536C45.9653 58.3729 45.7408 58.7869 45.4928 59.3192C45.351 59.6385 45.1266 60.1708 44.8195 60.9278C44.6305 61.4009 44.4533 61.7558 44.2998 62.0041C44.1226 62.3353 43.8509 62.6665 43.5202 62.9977C43.0477 63.4827 42.4925 63.8493 41.8783 64.1214C41.4649 64.287 41.0987 64.3934 40.7679 64.4289L40.3781 64.4525L40.7207 64.1687L41.5475 63.3644C41.8901 62.9859 42.1854 62.6074 42.4098 62.2171C42.5634 61.9568 42.6815 61.7321 42.7406 61.5547L43.0595 60.7386C43.3194 60.0525 43.7091 59.3902 44.2171 58.7514C44.6896 58.1719 45.1738 57.7224 45.6818 57.4031C46.0952 57.1428 46.485 56.9891 46.8393 56.9418C47.0165 56.9181 47.1465 56.9299 47.2291 56.9418L47.2173 56.9654Z" fill="#EE7203"/>
<path d="M51.7296 64.4289H50.6192V58.1127H49.7806V64.4289H48.6584V57.9471C48.6584 57.6277 48.7411 57.3675 48.8947 57.1901C49.0482 57.0127 49.2726 56.9181 49.5679 56.9181H50.5129C50.7137 56.9181 50.8791 56.9772 50.9972 57.1073C51.1153 57.2374 51.1626 57.4148 51.1626 57.6396C51.1626 57.403 51.2216 57.2256 51.3279 57.1073C51.4461 56.9772 51.5996 56.9181 51.8004 56.9181H52.7454C53.0289 56.9181 53.2533 57.0127 53.4187 57.1901C53.5841 57.3675 53.6667 57.6277 53.6667 57.9471V64.4289H52.5328V58.1127H51.7177V64.4289H51.7296Z" fill="#2E2D2C"/>
<path d="M54.4936 56.9181H55.6157V60.159L56.4307 59.6977V56.9299H57.5647V63.3525C57.5647 63.7192 57.482 63.9912 57.3285 64.1687C57.1749 64.3461 56.9387 64.4407 56.6079 64.4407H55.3795C55.096 64.4407 54.8716 64.3461 54.7062 64.1687C54.5408 63.9912 54.4699 63.731 54.4699 63.4117V63.1396L55.5921 62.5009V63.2461H56.4071V61.0342L54.4581 62.1461V56.9181H54.4936Z" fill="#2E2D2C"/>
<path d="M61.4746 56.9181V64.4289H60.3642V60.9396L59.5137 61.4127V64.417H58.4034V56.9062H59.5137V60.0525L60.3642 59.5912V56.9062H61.4746V56.9181Z" fill="#EE7203"/>
<path d="M65.0181 64.4289H62.3013V56.9181H65.0181V58.1127H63.4235V60.0525L65.0181 59.1772V60.5256L63.4235 61.4127V63.2343H65.0181V64.4289Z" fill="#EE7203"/>
<path d="M68.798 64.4289H67.6759V61.2471L66.8372 61.7084V64.4289H65.7151V57.9471C65.7151 57.6278 65.7977 57.3676 65.9513 57.1901C66.1049 57.0127 66.3293 56.9181 66.6246 56.9181H67.8885C68.172 56.9181 68.3964 57.0127 68.5618 57.1901C68.7271 57.3676 68.8098 57.6278 68.8098 57.9471V64.4289H68.798ZM67.6759 59.9224V58.1009H66.8372V60.36L67.6759 59.9106V59.9224Z" fill="#EE7203"/>
<path d="M70.3926 64.4289V58.1127H69.2823V56.9181H72.6251V58.1127H71.5148V64.4289H70.3926Z" fill="#EE7203"/>
</svg>
