<svg width="121" height="201" viewBox="0 0 121 201" fill="none" xmlns="http://www.w3.org/2000/svg">
<path d="M120.25 0.25H0.25V200.25H120.25V0.25Z" fill="white" stroke="white" stroke-width="0.5" stroke-miterlimit="10" stroke-linecap="square"/>
<path d="M0.25 0.25H120.25" stroke="#1D1D1B" stroke-width="0.5" stroke-miterlimit="10" stroke-linecap="square"/>
<path d="M0.25 200.25H120.182" stroke="#1D1D1B" stroke-width="0.5" stroke-miterlimit="10" stroke-linecap="square"/>
<path d="M0.25 0.380371V200.25" stroke="#1D1D1B" stroke-width="0.5" stroke-miterlimit="10" stroke-linecap="square"/>
<path d="M120.25 0.25V200.25" stroke="#1D1D1B" stroke-width="0.5" stroke-miterlimit="10" stroke-linecap="square"/>
<path d="M0.25 30.2488H120.193" stroke="#1D1D1B" stroke-width="0.5" stroke-miterlimit="10" stroke-linecap="square"/>
<path d="M0.25 48.0328H120.25" stroke="#1D1D1B" stroke-width="0.5" stroke-miterlimit="10" stroke-linecap="square"/>
<path d="M0.25 153.519H120.138" stroke="#1D1D1B" stroke-width="0.5" stroke-miterlimit="10" stroke-linecap="square"/>
<path d="M0.309326 171.315L120.25 171.25" stroke="#1D1D1B" stroke-width="0.5" stroke-miterlimit="10" stroke-linecap="square"/>
<path d="M3.11212 51.7457H117.379" stroke="#212830" stroke-width="0.25" stroke-miterlimit="10"/>
<path d="M3.11212 150.859H117.355" stroke="#212830" stroke-width="0.25" stroke-miterlimit="10"/>
<path d="M117.25 51.7457V150.859" stroke="#212830" stroke-width="0.25" stroke-miterlimit="10"/>
<path d="M3.11212 51.7457V150.859" stroke="#212830" stroke-width="0.25" stroke-miterlimit="10"/>
<path d="M3.11212 30.2488V4.90881" stroke="#3C3C3B" stroke-width="0.5" stroke-miterlimit="10"/>
<path d="M116.25 30.09V4.75" stroke="#3C3C3B" stroke-width="0.5" stroke-miterlimit="10"/>
<path d="M116.454 4.90881H3.11212" stroke="#3C3C3B" stroke-width="0.5" stroke-miterlimit="10"/>
<path d="M3.11212 171.315V196.88" stroke="#1D1D1B" stroke-width="0.5" stroke-miterlimit="10"/>
<path d="M117.32 171.315V196.88" stroke="#1D1D1B" stroke-width="0.5" stroke-miterlimit="10"/>
<path d="M2.87109 196.88H117.566" stroke="#1D1D1B" stroke-width="0.5" stroke-miterlimit="10"/>
<path d="M41.183 191.476V179.179H5.60759V191.476" fill="#AFD5A9"/>
<path d="M41.183 191.476V179.179H5.60759V191.476" stroke="#212830" stroke-width="0.25" stroke-miterlimit="10"/>
<path d="M41.183 174.626H5.60759V179.179H41.183V174.626Z" fill="#5EB34A" stroke="#1D1D1B" stroke-width="0.25" stroke-miterlimit="10"/>
<path d="M41.183 191.476H5.60759V193.451H41.183V191.476Z" fill="#5EB34A" stroke="#1D1D1B" stroke-width="0.25" stroke-miterlimit="10"/>
<path class="1-WIRE-V+ IN" d="M25.2758 183.211L25.808 182.785L26.3402 182.513L26.9789 182.3L27.6293 182.253L28.268 182.3L28.9066 182.513L29.4389 182.785L29.9711 183.211L30.3968 183.743L30.6689 184.275L30.8817 184.914L30.929 185.552L30.8817 186.191L30.6689 186.841L30.3968 187.373L29.9711 187.905L29.4389 188.331L28.9066 188.591L28.268 188.804L27.6293 188.863L26.9789 188.804L26.3402 188.591L25.808 188.331L25.2758 187.905L24.85 187.373L24.578 186.841L24.3651 186.191L24.3178 185.552L24.3651 184.914L24.578 184.275L24.85 183.743L25.2758 183.211ZM29.9711 187.905L25.2758 183.211" stroke="#212830" stroke-width="0.25" stroke-miterlimit="10" stroke-linecap="square"/>
<path d="M33.8976 183.211L34.4298 182.785L34.962 182.513L35.6007 182.3L36.2393 182.253L36.878 182.3L37.5166 182.513L38.0607 182.785L38.5929 183.211L39.0186 183.743L39.2788 184.275L39.4917 184.914L39.5509 185.552L39.4917 186.191L39.2788 186.841L39.0186 187.373L38.5929 187.905L38.0607 188.331L37.5166 188.591L36.878 188.816L36.2393 188.863L35.6007 188.816L34.962 188.591L34.4298 188.331L33.8976 187.905L33.4718 187.373L33.1998 186.841L32.9869 186.191L32.9396 185.552L32.9869 184.914L33.1998 184.275L33.4718 183.743L33.8976 183.211ZM38.5929 187.905L33.8976 183.211" stroke="#212830" stroke-width="0.25" stroke-miterlimit="10" stroke-linecap="square"/>
<path class="1-WIRE-DAT IN" d="M16.6539 183.211L17.198 182.785L17.7302 182.513L18.3689 182.3L19.0075 182.253L19.6462 182.3L20.2848 182.513L20.817 182.785L21.3492 183.211L21.775 183.743L22.047 184.275L22.2599 184.914L22.319 185.552L22.2599 186.191L22.047 186.841L21.775 187.373L21.3492 187.905L20.817 188.331L20.2848 188.591L19.6462 188.816L19.0075 188.863L18.3689 188.816L17.7302 188.591L17.198 188.331L16.6539 187.905L16.2282 187.373L15.968 186.841L15.7551 186.191L15.696 185.552L15.7551 184.914L15.968 184.275L16.2282 183.743L16.6539 183.211ZM21.3492 187.905L16.6539 183.211" stroke="#212830" stroke-width="0.25" stroke-miterlimit="10" stroke-linecap="square"/>
<path class="1-WIRE-GND IN" d="M6.84943 185.552L6.89673 186.191L7.10962 186.841L7.38164 187.373L7.80741 187.905L8.33962 188.331L8.87183 188.591L9.51048 188.816L10.1491 188.863L10.7878 188.816L11.4264 188.591L11.9705 188.331L12.5027 187.905L12.9285 187.373L13.1887 186.841L13.4015 186.191L13.4607 185.552L13.4015 184.914L13.1887 184.275L12.9285 183.743L12.5027 183.211L11.9705 182.785L11.4264 182.513L10.7878 182.3L10.1491 182.253L9.51048 182.3L8.87183 182.513L8.33962 182.785L7.80741 183.211L7.38164 183.743L7.10962 184.275L6.89673 184.914L6.84943 185.552Z" fill="#C8C8CA"/>
<path d="M7.80741 183.211L8.33962 182.785L8.87183 182.513L9.51048 182.3L10.1491 182.253L10.7878 182.3L11.4264 182.513L11.9705 182.785L12.5027 183.211L12.9285 183.743L13.1887 184.275L13.4015 184.914L13.4607 185.552L13.4015 186.191L13.1887 186.841L12.9285 187.373L12.5027 187.905L11.9705 188.331L11.4264 188.591L10.7878 188.816L10.1491 188.863L9.51048 188.816L8.87183 188.591L8.33962 188.331L7.80741 187.905L7.38164 187.373L7.10962 186.841L6.89673 186.191L6.84943 185.552L6.89673 184.914L7.10962 184.275L7.38164 183.743L7.80741 183.211ZM12.5027 187.905L7.80741 183.211" stroke="#212830" stroke-width="0.25" stroke-miterlimit="10" stroke-linecap="square"/>
<path d="M8.37509 174.626V178.351H11.8404V174.626" fill="#0C9B47"/>
<path d="M8.37509 174.626V178.351H11.8404V174.626" stroke="#212830" stroke-width="0.25" stroke-miterlimit="10"/>
<path d="M17.3399 174.626V178.351H20.8052V174.626" fill="#0C9B47"/>
<path d="M17.3399 174.626V178.351H20.8052V174.626" stroke="#212830" stroke-width="0.25" stroke-miterlimit="10"/>
<path d="M26.1391 174.626V178.351H29.6044V174.626" fill="#0C9B47"/>
<path d="M26.1391 174.626V178.351H29.6044V174.626" stroke="#212830" stroke-width="0.25" stroke-miterlimit="10"/>
<path d="M34.9384 174.626V178.351H38.4036V174.626" fill="#0C9B47"/>
<path d="M34.9384 174.626V178.351H38.4036V174.626" stroke="#212830" stroke-width="0.25" stroke-miterlimit="10"/>
<path d="M114.835 191.476V179.179H79.26V191.476" fill="#AFD5A9"/>
<path d="M114.835 191.476V179.179H79.26V191.476" stroke="#212830" stroke-width="0.25" stroke-miterlimit="10"/>
<path d="M114.835 174.626H79.26V179.179H114.835V174.626Z" fill="#5EB34A" stroke="#1D1D1B" stroke-width="0.25" stroke-miterlimit="10"/>
<path d="M114.835 191.476H79.26V193.451H114.835V191.476Z" fill="#5EB34A" stroke="#1D1D1B" stroke-width="0.25" stroke-miterlimit="10"/>
<path class="1-WIRE-V+ OUT" d="M98.9282 183.211L99.4604 182.785L99.9926 182.513L100.631 182.3L101.27 182.253L101.909 182.3L102.559 182.513L103.091 182.785L103.623 183.211L104.049 183.743L104.309 184.275L104.522 184.914L104.581 185.552L104.522 186.191L104.309 186.841L104.049 187.373L103.623 187.905L103.091 188.331L102.559 188.591L101.909 188.804L101.27 188.863L100.631 188.804L99.9926 188.591L99.4604 188.331L98.9282 187.905L98.5024 187.373L98.2304 186.841L98.0175 186.191L97.9702 185.552L98.0175 184.914L98.2304 184.275L98.5024 183.743L98.9282 183.211ZM103.623 187.905L98.9282 183.211" stroke="#212830" stroke-width="0.25" stroke-miterlimit="10" stroke-linecap="square"/>
<path d="M107.55 183.211L108.082 182.785L108.614 182.513L109.253 182.3L109.892 182.253L110.53 182.3L111.169 182.513L111.701 182.785L112.233 183.211L112.671 183.743L112.931 184.275L113.144 184.914L113.203 185.552L113.144 186.191L112.931 186.841L112.671 187.373L112.233 187.905L111.701 188.331L111.169 188.591L110.53 188.816L109.892 188.863L109.253 188.816L108.614 188.591L108.082 188.331L107.55 187.905L107.112 187.373L106.852 186.841L106.639 186.191L106.58 185.552L106.639 184.914L106.852 184.275L107.112 183.743L107.55 183.211ZM107.55 183.211L112.245 187.905" stroke="#212830" stroke-width="0.25" stroke-miterlimit="10" stroke-linecap="square"/>
<path class="1-WIRE-DAT OUT" d="M90.3063 183.211L90.8386 182.785L91.3708 182.513L92.0212 182.3L92.6599 182.253L93.2986 182.3L93.9372 182.513L94.4694 182.785L95.0016 183.211L95.4274 183.743L95.6994 184.275L95.9123 184.914L95.9596 185.552L95.9123 186.191L95.6994 186.841L95.4274 187.373L95.0016 187.905L94.4694 188.331L93.9372 188.591L93.2986 188.816L92.6599 188.863L92.0212 188.816L91.3708 188.591L90.8386 188.331L90.3063 187.905L89.8806 187.373L89.6204 186.841L89.4075 186.191L89.3484 185.552L89.4075 184.914L89.6204 184.275L89.8806 183.743L90.3063 183.211ZM95.0016 187.905L90.3063 183.211" stroke="#212830" stroke-width="0.25" stroke-miterlimit="10" stroke-linecap="square"/>
<path class="1-WIRE-GND OUT" d="M81.4598 183.211L81.992 182.785L82.5242 182.513L83.1629 182.3L83.8015 182.253L84.4402 182.3L85.0788 182.513L85.6111 182.785L86.1433 183.211L86.5809 183.743L86.8411 184.275L87.0539 184.914L87.1131 185.552L87.0539 186.191L86.8411 186.841L86.5809 187.373L86.1433 187.905L85.6111 188.331L85.0788 188.591L84.4402 188.816L83.8015 188.863L83.1629 188.816L82.5242 188.591L81.992 188.331L81.4598 187.905L81.034 187.373L80.762 186.841L80.5491 186.191L80.49 185.552L80.5491 184.914L80.762 184.275L81.034 183.743L81.4598 183.211ZM81.4598 183.211L86.1551 187.905" stroke="#212830" stroke-width="0.25" stroke-miterlimit="10" stroke-linecap="square"/>
<path d="M82.0275 174.626V178.351H85.4928V174.626" fill="#0C9B47"/>
<path d="M82.0275 174.626V178.351H85.4928V174.626" stroke="#212830" stroke-width="0.25" stroke-miterlimit="10"/>
<path d="M90.9923 174.626V178.351H94.4576V174.626" fill="#0C9B47"/>
<path d="M90.9923 174.626V178.351H94.4576V174.626" stroke="#212830" stroke-width="0.25" stroke-miterlimit="10"/>
<path d="M99.7915 174.626V178.351H103.257V174.626" fill="#0C9B47"/>
<path d="M99.7915 174.626V178.351H103.257V174.626" stroke="#212830" stroke-width="0.25" stroke-miterlimit="10"/>
<path d="M108.591 174.626V178.351H112.056V174.626" fill="#0C9B47"/>
<path d="M108.591 174.626V178.351H112.056V174.626" stroke="#212830" stroke-width="0.25" stroke-miterlimit="10"/>
<path d="M79.12 10.1353V22.4446H114.695V10.1353" fill="#AFD5A9"/>
<path d="M79.12 10.1353V22.4446H114.695V10.1353" stroke="#212830" stroke-width="0.25" stroke-miterlimit="10"/>
<path d="M114.695 22.4446H79.12V26.997H114.695V22.4446Z" fill="#5EB34A" stroke="#1D1D1B" stroke-width="0.25" stroke-miterlimit="10"/>
<path d="M114.695 8.17249H79.12V10.1472H114.695V8.17249Z" fill="#5EB34A" stroke="#1D1D1B" stroke-width="0.25" stroke-miterlimit="10"/>
<path class="NTC-5-B" d="M95.0272 18.4125L94.4832 18.8382L93.951 19.0983L93.3123 19.3112L92.6737 19.3703L92.035 19.3112L91.3963 19.0983L90.8641 18.8382L90.3319 18.4125L89.9062 17.8804L89.6341 17.3365L89.4213 16.6979L89.3739 16.0594L89.4213 15.4209L89.6341 14.7824L89.9062 14.2503L90.3319 13.7182L90.8641 13.2925L91.3963 13.0205L92.035 12.8077L92.6737 12.7604L93.3123 12.8077L93.951 13.0205L94.4832 13.2925L95.0272 13.7182L95.453 14.2503L95.7132 14.7824L95.9261 15.4209L95.9852 16.0594L95.9261 16.6979L95.7132 17.3365L95.453 17.8804L95.0272 18.4125ZM90.3319 13.7182L95.0272 18.4125" stroke="#212830" stroke-width="0.25" stroke-miterlimit="10" stroke-linecap="square"/>
<path class="NTC-5-A" d="M86.4054 18.4125L85.8732 18.8382L85.341 19.0983L84.7023 19.3112L84.0518 19.3703L83.4132 19.3112L82.7745 19.0983L82.2423 18.8382L81.7101 18.4125L81.2843 17.8804L81.0123 17.3365L80.7994 16.6979L80.7521 16.0594L80.7994 15.4209L81.0123 14.7824L81.2843 14.2503L81.7101 13.7182L82.2423 13.2925L82.7745 13.0205L83.4132 12.8077L84.0518 12.7604L84.7023 12.8077L85.341 13.0205L85.8732 13.2925L86.4054 13.7182L86.8312 14.2503L87.1032 14.7824L87.3161 15.4209L87.3634 16.0594L87.3161 16.6979L87.1032 17.3365L86.8312 17.8804L86.4054 18.4125ZM81.7101 13.7182L86.4054 18.4125" stroke="#212830" stroke-width="0.25" stroke-miterlimit="10" stroke-linecap="square"/>
<path class="NTC-6-A" d="M103.637 18.4125L103.105 18.8382L102.573 19.0983L101.934 19.3111L101.295 19.3703L100.657 19.3111L100.018 19.0983L99.4741 18.8382L98.9419 18.4125L98.5162 17.8804L98.256 17.3365L98.0431 16.6979L97.9839 16.0594L98.0431 15.4209L98.256 14.7824L98.5162 14.2503L98.9419 13.7181L99.4741 13.2925L100.018 13.0205L100.657 12.8077L101.295 12.7485L101.934 12.8077L102.573 13.0205L103.105 13.2925L103.637 13.7181L104.063 14.2503L104.335 14.7824L104.548 15.4209L104.595 16.0594L104.548 16.6979L104.335 17.3365L104.063 17.8804L103.637 18.4125ZM98.9419 13.7181L103.637 18.4125" stroke="#212830" stroke-width="0.25" stroke-miterlimit="10" stroke-linecap="square"/>
<path class="NTC-6-B" d="M112.496 18.4125L111.963 18.8382L111.431 19.0983L110.793 19.3111L110.142 19.3703L109.503 19.3111L108.865 19.0983L108.333 18.8382L107.8 18.4125L107.375 17.8804L107.103 17.3365L106.89 16.6979L106.842 16.0594L106.89 15.4209L107.103 14.7824L107.375 14.2503L107.8 13.7181L108.333 13.2925L108.865 13.0205L109.503 12.8077L110.142 12.7485L110.793 12.8077L111.431 13.0205L111.963 13.2925L112.496 13.7181L112.921 14.2503L113.193 14.7824L113.406 15.4209L113.454 16.0594L113.406 16.6979L113.193 17.3365L112.921 17.8804L112.496 18.4125ZM107.8 13.7181L112.496 18.4125" stroke="#212830" stroke-width="0.25" stroke-miterlimit="10" stroke-linecap="square"/>
<path d="M111.916 26.997V23.2605H108.451V26.997" fill="#0C9B47"/>
<path d="M111.916 26.997V23.2605H108.451V26.997" stroke="#212830" stroke-width="0.25" stroke-miterlimit="10"/>
<path d="M102.963 26.997V23.2605H99.4978V26.997" fill="#0C9B47"/>
<path d="M102.963 26.997V23.2605H99.4978V26.997" stroke="#212830" stroke-width="0.25" stroke-miterlimit="10"/>
<path d="M94.1639 26.997V23.2605H90.6867V26.997" fill="#0C9B47"/>
<path d="M94.1639 26.997V23.2605H90.6867V26.997" stroke="#212830" stroke-width="0.25" stroke-miterlimit="10"/>
<path d="M85.3528 26.997V23.2605H81.8875V26.997" fill="#0C9B47"/>
<path d="M85.3528 26.997V23.2605H81.8875V26.997" stroke="#212830" stroke-width="0.25" stroke-miterlimit="10"/>
<path d="M41.75 10.1353V22.4446H77.3254V10.1353" fill="#AFD5A9"/>
<path d="M41.75 10.1353V22.4446H77.3254V10.1353" stroke="#212830" stroke-width="0.25" stroke-miterlimit="10"/>
<path d="M77.3254 22.4446H41.75V26.997H77.3254V22.4446Z" fill="#5EB34A" stroke="#1D1D1B" stroke-width="0.25" stroke-miterlimit="10"/>
<path d="M77.3254 8.17249H41.75V10.1472H77.3254V8.17249Z" fill="#5EB34A" stroke="#1D1D1B" stroke-width="0.25" stroke-miterlimit="10"/>
<path class="NTC-3-B" d="M57.6572 18.4125L57.1132 18.8382L56.581 19.0983L55.9423 19.3112L55.3036 19.3703L54.665 19.3112L54.0263 19.0983L53.4941 18.8382L52.9619 18.4125L52.5361 17.8804L52.2641 17.3365L52.0512 16.6979L52.0039 16.0594L52.0512 15.4209L52.2641 14.7824L52.5361 14.2503L52.9619 13.7182L53.4941 13.2925L54.0263 13.0205L54.665 12.8077L55.3036 12.7604L55.9423 12.8077L56.581 13.0205L57.1132 13.2925L57.6572 13.7182L58.083 14.2503L58.3432 14.7824L58.5561 15.4209L58.6152 16.0594L58.5561 16.6979L58.3432 17.3365L58.083 17.8804L57.6572 18.4125ZM52.9619 13.7182L57.6572 18.4125" stroke="#212830" stroke-width="0.25" stroke-miterlimit="10" stroke-linecap="square"/>
<path class="NTC-3-A" d="M49.0354 18.4125L48.5032 18.8382L47.971 19.0983L47.3323 19.3112L46.6818 19.3703L46.0432 19.3112L45.4045 19.0983L44.8723 18.8382L44.3401 18.4125L43.9143 17.8804L43.6423 17.3365L43.4294 16.6979L43.3821 16.0594L43.4294 15.4209L43.6423 14.7824L43.9143 14.2503L44.3401 13.7182L44.8723 13.2925L45.4045 13.0205L46.0432 12.8077L46.6818 12.7604L47.3323 12.8077L47.971 13.0205L48.5032 13.2925L49.0354 13.7182L49.4611 14.2503L49.7332 14.7824L49.9461 15.4209L49.9934 16.0594L49.9461 16.6979L49.7332 17.3365L49.4611 17.8804L49.0354 18.4125ZM44.3401 13.7182L49.0354 18.4125" stroke="#212830" stroke-width="0.25" stroke-miterlimit="10" stroke-linecap="square"/>
<path class="NTC-4-A" d="M66.2672 18.4125L65.735 18.8382L65.2028 19.0983L64.5641 19.3111L63.9255 19.3703L63.2868 19.3111L62.6482 19.0983L62.1041 18.8382L61.5719 18.4125L61.1462 17.8804L60.886 17.3365L60.6731 16.6979L60.614 16.0594L60.6731 15.4209L60.886 14.7824L61.1462 14.2503L61.5719 13.7181L62.1041 13.2925L62.6482 13.0205L63.2868 12.8077L63.9255 12.7485L64.5641 12.8077L65.2028 13.0205L65.735 13.2925L66.2672 13.7181L66.693 14.2503L66.965 14.7824L67.1779 15.4209L67.2252 16.0594L67.1779 16.6979L66.965 17.3365L66.693 17.8804L66.2672 18.4125ZM61.5719 13.7181L66.2672 18.4125" stroke="#212830" stroke-width="0.25" stroke-miterlimit="10" stroke-linecap="square"/>
<path class="NTC-4-B" d="M75.1256 18.4125L74.5934 18.8382L74.0612 19.0983L73.4225 19.3111L72.772 19.3703L72.1334 19.3111L71.4947 19.0983L70.9625 18.8382L70.4303 18.4125L70.0045 17.8804L69.7325 17.3365L69.5196 16.6979L69.4723 16.0594L69.5196 15.4209L69.7325 14.7824L70.0045 14.2503L70.4303 13.7181L70.9625 13.2925L71.4947 13.0205L72.1334 12.8077L72.772 12.7485L73.4225 12.8077L74.0612 13.0205L74.5934 13.2925L75.1256 13.7181L75.5514 14.2503L75.8234 14.7824L76.0362 15.4209L76.0836 16.0594L76.0362 16.6979L75.8234 17.3365L75.5514 17.8804L75.1256 18.4125ZM70.4303 13.7181L75.1256 18.4125" stroke="#212830" stroke-width="0.25" stroke-miterlimit="10" stroke-linecap="square"/>
<path d="M74.5461 26.997V23.2605H71.0808V26.997" fill="#0C9B47"/>
<path d="M74.5461 26.997V23.2605H71.0808V26.997" stroke="#212830" stroke-width="0.25" stroke-miterlimit="10"/>
<path d="M65.5931 26.997V23.2605H62.1278V26.997" fill="#0C9B47"/>
<path d="M65.5931 26.997V23.2605H62.1278V26.997" stroke="#212830" stroke-width="0.25" stroke-miterlimit="10"/>
<path d="M56.7939 26.997V23.2605H53.3167V26.997" fill="#0C9B47"/>
<path d="M56.7939 26.997V23.2605H53.3167V26.997" stroke="#212830" stroke-width="0.25" stroke-miterlimit="10"/>
<path d="M47.9828 26.997V23.2605H44.5175V26.997" fill="#0C9B47"/>
<path d="M47.9828 26.997V23.2605H44.5175V26.997" stroke="#212830" stroke-width="0.25" stroke-miterlimit="10"/>
<path d="M4.47 10.1353V22.4446H40.0454V10.1353" fill="#AFD5A9"/>
<path d="M4.47 10.1353V22.4446H40.0454V10.1353" stroke="#212830" stroke-width="0.25" stroke-miterlimit="10"/>
<path d="M40.0454 22.4446H4.47V26.997H40.0454V22.4446Z" fill="#5EB34A" stroke="#1D1D1B" stroke-width="0.25" stroke-miterlimit="10"/>
<path d="M40.0454 8.17249H4.47V10.1472H40.0454V8.17249Z" fill="#5EB34A" stroke="#1D1D1B" stroke-width="0.25" stroke-miterlimit="10"/>
<path class="NTC-1-B" d="M20.3772 18.4125L19.845 18.8382L19.3128 19.0983L18.6623 19.3112L18.0237 19.3703L17.385 19.3112L16.7463 19.0983L16.2141 18.8382L15.6819 18.4125L15.2561 17.8804L14.9841 17.3365L14.7712 16.6979L14.7239 16.0594L14.7712 15.4209L14.9841 14.7824L15.2561 14.2503L15.6819 13.7182L16.2141 13.2925L16.7463 13.0205L17.385 12.8077L18.0237 12.7604L18.6623 12.8077L19.3128 13.0205L19.845 13.2925L20.3772 13.7182L20.803 14.2503L21.0632 14.7824L21.2761 15.4209L21.3352 16.0594L21.2761 16.6979L21.0632 17.3365L20.803 17.8804L20.3772 18.4125ZM15.6819 13.7182L20.3772 18.4125" stroke="#212830" stroke-width="0.25" stroke-miterlimit="10" stroke-linecap="square"/>
<path class="NTC-1-A" d="M11.7554 18.4125L11.2232 18.8382L10.691 19.0983L10.0523 19.3112L9.41365 19.3703L8.775 19.3112L8.12452 19.0983L7.5923 18.8382L7.06009 18.4125L6.63432 17.8804L6.37413 17.3365L6.16125 16.6979L6.10211 16.0594L6.16125 15.4209L6.37413 14.7824L6.63432 14.2503L7.06009 13.7182L7.5923 13.2925L8.12452 13.0205L8.775 12.8077L9.41365 12.7604L10.0523 12.8077L10.691 13.0205L11.2232 13.2925L11.7554 13.7182L12.1812 14.2503L12.4532 14.7824L12.6661 15.4209L12.7134 16.0594L12.6661 16.6979L12.4532 17.3365L12.1812 17.8804L11.7554 18.4125ZM7.06009 13.7182L11.7554 18.4125" stroke="#212830" stroke-width="0.25" stroke-miterlimit="10" stroke-linecap="square"/>
<path class="NTC-2-A" d="M28.9872 18.4125L28.455 18.8382L27.9228 19.0983L27.2841 19.3111L26.6455 19.3703L26.0068 19.3111L25.3682 19.0983L24.836 18.8382L24.3037 18.4125L23.8661 17.8804L23.606 17.3365L23.3931 16.6979L23.3339 16.0594L23.3931 15.4209L23.606 14.7824L23.8661 14.2503L24.3037 13.7181L24.836 13.2925L25.3682 13.0205L26.0068 12.8077L26.6455 12.7485L27.2841 12.8077L27.9228 13.0205L28.455 13.2925L28.9872 13.7181L29.4248 14.2503L29.685 14.7824L29.8979 15.4209L29.957 16.0594L29.8979 16.6979L29.685 17.3365L29.4248 17.8804L28.9872 18.4125ZM28.9872 18.4125L24.2919 13.7181" stroke="#212830" stroke-width="0.25" stroke-miterlimit="10" stroke-linecap="square"/>
<path class="NTC-2-B" d="M37.8456 18.4125L37.3134 18.8382L36.7812 19.0983L36.1425 19.3111L35.5038 19.3703L34.8652 19.3111L34.2147 19.0983L33.6825 18.8382L33.1503 18.4125L32.7245 17.8804L32.4643 17.3365L32.2514 16.6979L32.1923 16.0594L32.2514 15.4209L32.4643 14.7824L32.7245 14.2503L33.1503 13.7181L33.6825 13.2925L34.2147 13.0205L34.8652 12.8077L35.5038 12.7485L36.1425 12.8077L36.7812 13.0205L37.3134 13.2925L37.8456 13.7181L38.2713 14.2503L38.5434 14.7824L38.7562 15.4209L38.8036 16.0594L38.7562 16.6979L38.5434 17.3365L38.2713 17.8804L37.8456 18.4125ZM33.1503 13.7181L37.8456 18.4125" stroke="#212830" stroke-width="0.25" stroke-miterlimit="10" stroke-linecap="square"/>
<path d="M37.2779 26.997V23.2605H33.8008V26.997" fill="#0C9B47"/>
<path d="M37.2779 26.997V23.2605H33.8008V26.997" stroke="#212830" stroke-width="0.25" stroke-miterlimit="10"/>
<path d="M28.3131 26.997V23.2605H24.8478V26.997" fill="#0C9B47"/>
<path d="M28.3131 26.997V23.2605H24.8478V26.997" stroke="#212830" stroke-width="0.25" stroke-miterlimit="10"/>
<path d="M19.5138 26.997V23.2605H16.0486V26.997" fill="#0C9B47"/>
<path d="M19.5138 26.997V23.2605H16.0486V26.997" stroke="#212830" stroke-width="0.25" stroke-miterlimit="10"/>
<path d="M10.7146 26.997V23.2605H7.23749V26.997" fill="#0C9B47"/>
<path d="M10.7146 26.997V23.2605H7.23749V26.997" stroke="#212830" stroke-width="0.25" stroke-miterlimit="10"/>
<path d="M39.3025 168.229C39.2315 167.224 38.4155 166.432 37.4102 166.432H37.3747C36.3694 166.432 35.5415 167.224 35.4824 168.229H35.4706V170.287H39.3262V168.229H39.3143H39.3025ZM38.6638 169.636H36.0856V168.265C36.1329 167.591 36.6769 167.059 37.3511 167.059H37.3747C38.0488 167.059 38.5929 167.591 38.6402 168.265V169.636H38.6638Z" fill="#2E2D2C"/>
<path d="M29.6517 168.265C29.6044 167.591 29.0604 167.059 28.3862 167.059H28.3626C27.6885 167.059 27.1444 167.591 27.0971 168.265V169.636H29.6754V168.265H29.6517Z" fill="#FBD312"/>
<path d="M39.3025 168.229C39.2315 167.224 38.4155 166.432 37.4102 166.432H37.3747C36.3694 166.432 35.5415 167.224 35.4824 168.229H35.4706V170.287H39.3262V168.229H39.3143H39.3025ZM38.6638 169.636H36.0856V168.265C36.1329 167.591 36.6769 167.059 37.3511 167.059H37.3747C38.0488 167.059 38.5929 167.591 38.6402 168.265V169.636H38.6638Z" fill="#9D9D9C"/>
<path d="M37.8241 159.219H36.9253V165.699H37.8241V159.219Z" fill="#2E2D2C"/>
<path d="M12.1819 168.229C12.111 167.224 11.2949 166.432 10.2896 166.432H10.2541C9.24885 166.432 8.42097 167.224 8.36183 168.229H8.35001V168.359V170.287H12.2056V168.229H12.1938H12.1819Z" fill="#2E2D2C"/>
<path d="M19.3509 159.219H18.5821H9.57001V161.276H9.58183H10.1495H10.4807V160.118H18.452V161.276H18.5821H18.7714H19.1616H19.3509H19.481V160.118H27.4523V161.276H27.7835H28.363V159.917V159.219H19.3509Z" fill="#2E2D2C"/>
<path d="M29.6919 168.229C29.621 167.224 28.8049 166.432 27.7996 166.432H27.7641C26.7588 166.432 25.931 167.224 25.8718 168.229H25.86V168.359V170.287H29.7156V168.229H29.7038H29.6919Z" fill="#BE1622"/>
<path d="M26.7707 165.699L26.0965 162.483H26.4987L26.9954 165.143L27.4921 162.483H27.8942L27.2201 165.699H26.7707Z" fill="#3C3C3B"/>
<path d="M28.0362 164.043H29.3608V164.398H28.0362V164.043ZM28.8877 163.31V165.108H28.5211V163.31H28.8877Z" fill="#3C3C3B"/>
<path d="M20.7088 168.229C20.6378 167.224 19.8217 166.432 18.8164 166.432H18.781C17.7757 166.432 16.9478 167.224 16.8887 168.229H16.8768V170.287H20.7324V168.229H20.7206H20.7088ZM20.0701 169.636H17.4918V168.265C17.5391 167.591 18.0832 167.059 18.7573 167.059H18.781C19.4551 167.059 19.9991 167.591 20.0464 168.265V169.636H20.0701Z" fill="#C8A30D"/>
<path d="M20.0583 168.265C20.011 167.591 19.4669 167.059 18.7928 167.059H18.7691C18.095 167.059 17.551 167.591 17.5036 168.265V169.636H20.0819V168.265H20.0583Z" fill="#FBD312"/>
<path d="M16.25 165.699V162.483H16.6403V165.699H16.25ZM16.4747 165.699V165.356H17.1962C17.2789 165.356 17.3381 165.332 17.3854 165.285C17.4327 165.238 17.4445 165.179 17.4445 165.096V163.097C17.4445 163.015 17.4209 162.944 17.3854 162.908C17.3381 162.861 17.2789 162.837 17.1962 162.837H16.4747V162.494H17.1725C17.3854 162.494 17.5391 162.554 17.6574 162.66C17.7757 162.766 17.823 162.92 17.823 163.121V165.096C17.823 165.226 17.7993 165.344 17.752 165.439C17.7047 165.533 17.6337 165.604 17.5273 165.652C17.4209 165.699 17.3144 165.722 17.1725 165.722H16.4747V165.699Z" fill="#3C3C3B"/>
<path d="M17.9886 165.699L18.7691 162.483H19.1712L19.9518 165.699H19.5261L18.9702 162.979L18.4143 165.699H17.9886ZM18.4498 164.954V164.611H19.5142V164.954H18.4498Z" fill="#3C3C3B"/>
<path d="M19.9163 162.825V162.483H21.5485V162.825H19.9163ZM20.5432 165.699V162.743H20.9334V165.699H20.5432Z" fill="#3C3C3B"/>
<path d="M15.4712 154.347V157.564H15.081V154.702L14.5133 155.033V154.643L14.9863 154.335H15.4594L15.4712 154.347Z" fill="#3C3C3B"/>
<path d="M15.9561 156.239H17.1388V156.595H15.9561V156.239Z" fill="#3C3C3B"/>
<path d="M18.0613 157.575L17.5055 155.27H17.8721L18.2151 157.055L18.5936 155.27H18.8656L19.244 157.055L19.587 155.27H19.9537L19.3978 157.575H19.0666L18.7237 155.991L18.3807 157.575H18.0495H18.0613Z" fill="#3C3C3B"/>
<path d="M20.3558 154.797V154.43H20.746V154.797H20.3558ZM20.3558 157.576V155.27H20.746V157.576H20.3558Z" fill="#3C3C3B"/>
<path d="M21.2783 157.575V155.27H21.6685V157.575H21.2783ZM22.3663 155.589H22.319C22.118 155.589 21.9524 155.636 21.846 155.731C21.7277 155.825 21.6685 155.955 21.6567 156.121L21.6094 155.672C21.6922 155.53 21.7986 155.423 21.9287 155.341C22.0588 155.258 22.2008 155.222 22.3663 155.222V155.577V155.589Z" fill="#3C3C3B"/>
<path d="M23.3953 157.599C23.1706 157.599 22.9813 157.528 22.8512 157.398C22.7211 157.268 22.662 157.079 22.662 156.83V156.026C22.662 155.766 22.7211 155.565 22.8512 155.435C22.9813 155.305 23.1469 155.222 23.3716 155.222C23.5963 155.222 23.7737 155.293 23.9038 155.423C24.0339 155.553 24.0931 155.743 24.0931 155.979V156.57H22.9222V156.251H23.7146V155.991C23.7146 155.861 23.6909 155.754 23.6318 155.683C23.5727 155.612 23.4899 155.577 23.3834 155.577C23.277 155.577 23.1942 155.613 23.1351 155.695C23.0759 155.778 23.0523 155.884 23.0523 156.026V156.866C23.0523 156.996 23.0878 157.091 23.1469 157.162C23.206 157.232 23.3007 157.268 23.4071 157.268C23.5135 157.268 23.5963 157.244 23.6555 157.185C23.7146 157.126 23.7383 157.055 23.7383 156.949L24.1167 156.937C24.1167 157.162 24.0576 157.327 23.9275 157.433C23.7974 157.54 23.6318 157.611 23.4071 157.611L23.3953 157.599Z" fill="#3C3C3B"/>
<path d="M8.30414 163.961H9.1202V164.895C9.1202 165.072 9.08472 165.226 9.02558 165.344C8.96645 165.462 8.87183 165.557 8.75356 165.628C8.63529 165.699 8.49337 165.722 8.31597 165.722C8.13856 165.722 7.99664 165.687 7.86654 165.628C7.73645 165.569 7.65366 165.474 7.5827 165.368C7.52356 165.249 7.48808 165.108 7.48808 164.942V163.263C7.48808 163.086 7.52356 162.944 7.5827 162.814C7.64183 162.683 7.73645 162.601 7.85472 162.53C7.97299 162.459 8.11491 162.435 8.29231 162.435C8.46972 162.435 8.59981 162.471 8.71808 162.53C8.83635 162.589 8.93097 162.683 8.9901 162.802C9.04924 162.92 9.08472 163.062 9.08472 163.239V163.393H8.67078V163.239C8.67078 163.097 8.63529 162.991 8.57616 162.908C8.51703 162.837 8.42241 162.79 8.29231 162.79C8.16222 162.79 8.05578 162.825 7.98481 162.908C7.91385 162.991 7.87837 163.109 7.87837 163.251V164.93C7.87837 165.06 7.91385 165.167 7.99664 165.238C8.07943 165.309 8.18587 165.344 8.31597 165.344C8.44606 165.344 8.55251 165.309 8.62347 165.226C8.69443 165.143 8.72991 165.037 8.72991 164.883V164.28H8.29231V163.937L8.30414 163.961Z" fill="#3C3C3B"/>
<path d="M9.53413 165.699V162.483H9.88894L10.8824 165.037L10.8233 165.096V162.483H11.2017V165.699H10.8469L9.86529 163.18L9.92442 163.121V165.699H9.54596H9.53413Z" fill="#3C3C3B"/>
<path d="M11.6512 165.699V162.483H12.0414V165.699H11.6512ZM11.8759 165.699V165.356H12.5973C12.6801 165.356 12.7392 165.332 12.7865 165.285C12.8338 165.238 12.8457 165.179 12.8457 165.096V163.097C12.8457 163.015 12.822 162.944 12.7865 162.908C12.7511 162.873 12.6801 162.837 12.5973 162.837H11.8759V162.494H12.5737C12.7865 162.494 12.9403 162.554 13.0586 162.66C13.165 162.766 13.2241 162.92 13.2241 163.121V165.096C13.2241 165.226 13.2005 165.344 13.1532 165.439C13.1059 165.533 13.0349 165.604 12.9285 165.652C12.8338 165.699 12.7156 165.722 12.5737 165.722H11.8759V165.699Z" fill="#3C3C3B"/>
<path d="M85.7438 168.229C85.6729 167.224 84.8568 166.432 83.8515 166.432H83.8161C82.8108 166.432 81.9829 167.224 81.9238 168.229H81.9119V168.359V170.287H85.7675V168.229H85.7557H85.7438Z" fill="#2E2D2C"/>
<path d="M92.9128 159.219H92.144H83.1319V161.276H83.1438H83.7114H84.0426V160.118H92.0139V161.276H92.144H92.3333H92.7236H92.9128H93.0429V160.118H101.014V161.276H101.345H101.925V159.917V159.219H92.9128Z" fill="#2E2D2C"/>
<path d="M103.254 168.229C103.183 167.224 102.367 166.432 101.362 166.432H101.326C100.321 166.432 99.4929 167.224 99.4337 168.229H99.4219V168.359V170.287H103.277V168.229H103.266H103.254Z" fill="#BE1622"/>
<path d="M100.333 165.699L99.6585 162.483H100.061L100.557 165.143L101.054 162.483H101.456L100.782 165.699H100.333Z" fill="#3C3C3B"/>
<path d="M101.598 164.043H102.923V164.398H101.598V164.043ZM102.45 163.31V165.108H102.083V163.31H102.45Z" fill="#3C3C3B"/>
<path d="M94.2707 168.229C94.1997 167.224 93.3837 166.432 92.3784 166.432H92.3429C91.3376 166.432 90.5097 167.224 90.4506 168.229H90.4388V170.287H94.2943V168.229H94.2825H94.2707ZM93.632 169.636H91.0538V168.265C91.1011 167.591 91.6451 167.059 92.3192 167.059H92.3429C93.017 167.059 93.5611 167.591 93.6084 168.265V169.636H93.632Z" fill="#C8A30D"/>
<path d="M93.6202 168.265C93.5729 167.591 93.0288 167.059 92.3547 167.059H92.331C91.6569 167.059 91.1129 167.591 91.0656 168.265V169.636H93.6438V168.265H93.6202Z" fill="#FBD312"/>
<path d="M89.8119 165.699V162.483H90.2022V165.699H89.8119ZM90.0366 165.699V165.356H90.7581C90.8409 165.356 90.9 165.332 90.9473 165.285C90.9946 165.238 91.0064 165.179 91.0064 165.096V163.097C91.0064 163.015 90.9828 162.944 90.9473 162.908C90.9 162.861 90.8409 162.837 90.7581 162.837H90.0366V162.494H90.7344C90.9473 162.494 91.1011 162.554 91.2193 162.66C91.3376 162.766 91.3849 162.92 91.3849 163.121V165.096C91.3849 165.226 91.3612 165.344 91.3139 165.439C91.2666 165.533 91.1957 165.604 91.0892 165.652C90.9828 165.699 90.8763 165.722 90.7344 165.722H90.0366V165.699Z" fill="#3C3C3B"/>
<path d="M91.5505 165.699L92.3311 162.483H92.7332L93.5137 165.699H93.088L92.5321 162.979L91.9762 165.699H91.5505ZM92.0117 164.954V164.611H93.0762V164.954H92.0117Z" fill="#3C3C3B"/>
<path d="M93.4783 162.825V162.483H95.1104V162.825H93.4783ZM94.1051 165.699V162.743H94.4954V165.699H94.1051Z" fill="#3C3C3B"/>
<path d="M89.0332 154.347V157.564H88.6429V154.702L88.0752 155.033V154.643L88.5483 154.335H89.0213L89.0332 154.347Z" fill="#3C3C3B"/>
<path d="M89.5181 156.239H90.7008V156.595H89.5181V156.239Z" fill="#3C3C3B"/>
<path d="M91.6233 157.575L91.0674 155.27H91.434L91.777 157.055L92.1555 155.27H92.4275L92.806 157.055L93.1489 155.27H93.5156L92.9597 157.575H92.6286L92.2856 155.991L91.9426 157.575H91.6114H91.6233Z" fill="#3C3C3B"/>
<path d="M93.9177 154.797V154.43H94.308V154.797H93.9177ZM93.9177 157.576V155.27H94.308V157.576H93.9177Z" fill="#3C3C3B"/>
<path d="M94.8402 157.575V155.27H95.2305V157.575H94.8402ZM95.9283 155.589H95.881C95.6799 155.589 95.5143 155.636 95.4079 155.731C95.2896 155.825 95.2305 155.955 95.2186 156.121L95.1713 155.672C95.2541 155.53 95.3606 155.423 95.4907 155.341C95.6208 155.258 95.7627 155.222 95.9283 155.222V155.577V155.589Z" fill="#3C3C3B"/>
<path d="M96.9572 157.599C96.7325 157.599 96.5433 157.528 96.4132 157.398C96.2831 157.268 96.2239 157.079 96.2239 156.83V156.026C96.2239 155.766 96.2831 155.565 96.4132 155.435C96.5433 155.305 96.7088 155.222 96.9335 155.222C97.1583 155.222 97.3357 155.293 97.4658 155.423C97.5959 155.553 97.655 155.743 97.655 155.979V156.57H96.4841V156.251H97.2765V155.991C97.2765 155.861 97.2529 155.754 97.1937 155.683C97.1346 155.612 97.0518 155.577 96.9454 155.577C96.8389 155.577 96.7561 155.613 96.697 155.695C96.6379 155.778 96.6142 155.884 96.6142 156.026V156.866C96.6142 156.996 96.6497 157.091 96.7088 157.162C96.768 157.232 96.8626 157.268 96.969 157.268C97.0755 157.268 97.1583 157.244 97.2174 157.185C97.2765 157.126 97.3002 157.055 97.3002 156.949L97.6786 156.937C97.6786 157.162 97.6195 157.327 97.4894 157.433C97.3593 157.54 97.1937 157.611 96.969 157.611L96.9572 157.599Z" fill="#3C3C3B"/>
<path d="M81.8661 163.961H82.6821V164.895C82.6821 165.072 82.6466 165.226 82.5875 165.344C82.5284 165.462 82.4338 165.557 82.3155 165.628C82.1972 165.699 82.0553 165.722 81.8779 165.722C81.7005 165.722 81.5586 165.687 81.4285 165.628C81.2984 165.569 81.2156 165.474 81.1446 165.368C81.0855 165.249 81.05 165.108 81.05 164.942V163.263C81.05 163.086 81.0855 162.944 81.1446 162.814C81.2038 162.683 81.2984 162.601 81.4166 162.53C81.5349 162.459 81.6768 162.435 81.8542 162.435C82.0316 162.435 82.1617 162.471 82.28 162.53C82.3983 162.589 82.4929 162.683 82.552 162.802C82.6112 162.92 82.6466 163.062 82.6466 163.239V163.393H82.2327V163.239C82.2327 163.097 82.1972 162.991 82.1381 162.908C82.0789 162.837 81.9843 162.79 81.8542 162.79C81.7241 162.79 81.6177 162.825 81.5467 162.908C81.4758 162.991 81.4403 163.109 81.4403 163.251V164.93C81.4403 165.06 81.4758 165.167 81.5586 165.238C81.6413 165.309 81.7478 165.344 81.8779 165.344C82.008 165.344 82.1144 165.309 82.1854 165.226C82.2563 165.143 82.2918 165.037 82.2918 164.883V164.28H81.8542V163.937L81.8661 163.961Z" fill="#3C3C3B"/>
<path d="M83.0961 165.699V162.483H83.4509L84.4443 165.037L84.3852 165.096V162.483H84.7637V165.699H84.4088L83.4272 163.18L83.4863 163.121V165.699H83.1079H83.0961Z" fill="#3C3C3B"/>
<path d="M85.2131 165.699V162.483H85.6034V165.699H85.2131ZM85.4378 165.699V165.356H86.1592C86.242 165.356 86.3012 165.332 86.3485 165.285C86.3958 165.238 86.4076 165.179 86.4076 165.096V163.097C86.4076 163.015 86.3839 162.944 86.3485 162.908C86.313 162.873 86.242 162.837 86.1592 162.837H85.4378V162.494H86.1356C86.3485 162.494 86.5022 162.554 86.6205 162.66C86.7269 162.766 86.7861 162.92 86.7861 163.121V165.096C86.7861 165.226 86.7624 165.344 86.7151 165.439C86.6678 165.533 86.5968 165.604 86.4904 165.652C86.3958 165.699 86.2775 165.722 86.1356 165.722H85.4378V165.699Z" fill="#3C3C3B"/>
<path d="M35.5652 157.575V154.359H35.9082L36.9016 156.913L36.8425 156.972V154.359H37.221V157.575H36.8661L35.8845 155.057L35.9436 154.998V157.575H35.5652Z" fill="#3C3C3B"/>
<path d="M38.4628 157.611C38.2972 157.611 38.1553 157.575 38.037 157.516C37.9187 157.445 37.836 157.362 37.765 157.232C37.7059 157.114 37.6704 156.96 37.6704 156.783V155.139C37.6704 154.962 37.7059 154.808 37.765 154.69C37.8241 154.572 37.9187 154.477 38.037 154.406C38.1553 154.335 38.2972 154.312 38.4628 154.312C38.6284 154.312 38.7703 154.347 38.8886 154.406C39.0068 154.465 39.0896 154.56 39.1487 154.69C39.2079 154.82 39.2434 154.962 39.2434 155.139V155.269H38.8531V155.139C38.8531 155.045 38.8412 154.95 38.8058 154.891C38.7703 154.82 38.7348 154.773 38.6757 154.737C38.6165 154.702 38.5456 154.678 38.4628 154.678C38.3445 154.678 38.2381 154.714 38.1789 154.796C38.1198 154.879 38.0725 154.997 38.0725 155.139V156.783C38.0725 156.925 38.108 157.043 38.1789 157.126C38.2499 157.209 38.3445 157.244 38.4628 157.244C38.5811 157.244 38.6875 157.209 38.7585 157.126C38.8294 157.043 38.8649 156.925 38.8649 156.783V156.653H39.2552V156.783C39.2552 156.96 39.2197 157.102 39.1606 157.232C39.1014 157.362 39.0068 157.445 38.9004 157.516C38.7821 157.575 38.6402 157.611 38.4746 157.611H38.4628Z" fill="#3C3C3B"/>
<path d="M112.082 168.229C112.011 167.224 111.195 166.432 110.19 166.432H110.154C109.149 166.432 108.321 167.224 108.262 168.229H108.25V170.287H112.106V168.229H112.094H112.082ZM111.455 169.636H108.877V168.265C108.924 167.591 109.468 167.059 110.142 167.059H110.166C110.84 167.059 111.384 167.591 111.431 168.265V169.636H111.455Z" fill="#9D9D9C"/>
<path d="M110.615 159.219H109.717V165.699H110.615V159.219Z" fill="#2E2D2C"/>
<path d="M108.345 157.575V154.359H108.688L109.681 156.913L109.622 156.972V154.359H110V157.575H109.646L108.664 155.057L108.723 154.998V157.575H108.345Z" fill="#3C3C3B"/>
<path d="M111.242 157.611C111.077 157.611 110.935 157.575 110.816 157.516C110.698 157.445 110.615 157.362 110.544 157.232C110.485 157.114 110.45 156.96 110.45 156.783V155.139C110.45 154.962 110.485 154.808 110.544 154.69C110.604 154.572 110.698 154.477 110.816 154.406C110.935 154.335 111.077 154.312 111.242 154.312C111.408 154.312 111.55 154.347 111.668 154.406C111.786 154.465 111.869 154.56 111.928 154.69C111.987 154.82 112.023 154.962 112.023 155.139V155.269H111.632V155.139C111.632 155.045 111.621 154.95 111.585 154.891C111.55 154.82 111.514 154.773 111.455 154.737C111.396 154.702 111.325 154.678 111.242 154.678C111.124 154.678 111.017 154.714 110.958 154.796C110.899 154.879 110.852 154.997 110.852 155.139V156.783C110.852 156.925 110.887 157.043 110.958 157.126C111.029 157.209 111.124 157.244 111.242 157.244C111.36 157.244 111.467 157.209 111.538 157.126C111.609 157.043 111.644 156.925 111.644 156.783V156.653H112.035V156.783C112.035 156.96 111.999 157.102 111.94 157.232C111.881 157.362 111.786 157.445 111.68 157.516C111.562 157.575 111.42 157.611 111.254 157.611H111.242Z" fill="#3C3C3B"/>
<path d="M18.44 39.7085V37.7456H18.4275H17.8544H17.5305V38.8453H9.50704V37.7456H9.19556H8.61V39.0345V39.7085H18.44Z" fill="#2E2D2C"/>
<path d="M7.27182 34.3045C7.33096 35.2623 8.11153 36.0191 9.08134 36.0191H9.11682C10.0866 36.0191 10.8672 35.2623 10.9263 34.3045H10.9382V34.1863V32.3417H9.11682H7.25999V34.3045H7.27182ZM7.87499 32.9566H9.11682H10.335V34.2691C10.2877 34.9076 9.7673 35.4161 9.12865 35.4161H9.10499C8.46634 35.4161 7.94596 34.9076 7.89865 34.2691V32.9566H7.87499Z" fill="#1D71B8"/>
<path d="M16.1618 34.3047C16.1973 34.8841 16.5048 35.4044 16.9542 35.7118C17.2499 35.9128 17.5929 36.0311 17.9713 36.0311H18.0068C18.9766 36.0311 19.7572 35.2743 19.8163 34.3165H19.8282V32.3536H18.0068H17.9713H16.15V34.3165H16.1618V34.3047Z" fill="#1D71B8"/>
<path d="M36.0293 39.7085V37.7456H36.0171H35.4557H35.1383V38.8453H27.2903V37.7456H26.973H26.3993V39.0345V39.7085H36.0293Z" fill="#2E2D2C"/>
<path d="M27.1089 44.0481V40.9738H27.4401L28.3862 43.4096L28.3271 43.4687V40.9738H28.6819V44.0481H28.3389L27.3928 41.6478L27.4519 41.5886V44.0481H27.0971H27.1089Z" fill="#3C3C3B"/>
<path d="M29.0722 41.3048V40.9738H30.6334V41.3048H29.0722ZM29.6636 44.0481V41.2221H30.0302V44.0481H29.6636Z" fill="#3C3C3B"/>
<path d="M31.6032 44.0836C31.4494 44.0836 31.3075 44.0481 31.201 43.989C31.0946 43.9298 31 43.8352 30.9409 43.717C30.8817 43.5987 30.8581 43.4569 30.8581 43.2913V41.7305C30.8581 41.5649 30.8817 41.423 30.9409 41.3048C31 41.1865 31.0828 41.1038 31.201 41.0328C31.3075 40.9737 31.4494 40.9382 31.6032 40.9382C31.7569 40.9382 31.8988 40.9737 32.0053 41.0328C32.1117 41.092 32.2063 41.1865 32.2536 41.3048C32.3009 41.423 32.3364 41.5649 32.3364 41.7305V41.8487H31.9698V41.7305C31.9698 41.6359 31.958 41.5531 31.9225 41.494C31.8988 41.423 31.8515 41.3757 31.7924 41.3403C31.7333 41.3048 31.6623 41.2811 31.5913 41.2811C31.4731 41.2811 31.3784 41.3166 31.3193 41.3994C31.2602 41.4822 31.2247 41.5886 31.2247 41.7305V43.2913C31.2247 43.4332 31.2602 43.5396 31.3193 43.6224C31.3784 43.7052 31.4731 43.7406 31.5913 43.7406C31.7096 43.7406 31.8042 43.7052 31.8634 43.6224C31.9343 43.5396 31.958 43.4332 31.958 43.2913V43.1731H32.3246V43.2913C32.3246 43.4569 32.3009 43.5987 32.2418 43.717C32.1827 43.8352 32.0999 43.918 31.9934 43.989C31.887 44.0481 31.7451 44.0836 31.5913 44.0836H31.6032Z" fill="#3C3C3B"/>
<path d="M33.6256 44.0481V43.7525L34.3943 42.4754C34.4889 42.3217 34.5599 42.1798 34.6072 42.0379C34.6545 41.896 34.6782 41.7778 34.6782 41.6714C34.6782 41.5413 34.6545 41.4467 34.5954 41.3757C34.5362 41.3048 34.4653 41.2693 34.3588 41.2693C34.2406 41.2693 34.146 41.3166 34.0868 41.4112C34.0277 41.5058 33.9922 41.6359 33.9922 41.8132H33.6137C33.6137 41.5295 33.6729 41.3048 33.803 41.1629C33.9331 41.0092 34.1105 40.9382 34.347 40.9382C34.5835 40.9382 34.761 40.9974 34.891 41.1274C35.0211 41.2575 35.0803 41.4349 35.0803 41.6714C35.0803 41.8014 35.0566 41.9433 35.0093 42.097C34.962 42.2508 34.8792 42.4163 34.7846 42.5937L34.1105 43.7052H35.0803V44.0363H33.6492L33.6256 44.0481Z" fill="#3C3C3B"/>
<path d="M24.9683 34.3045C25.0274 35.2623 25.808 36.0191 26.7778 36.0191H26.8133C27.7831 36.0191 28.5636 35.2623 28.6228 34.3045H28.6346V34.1863V32.3417H26.8133H24.9564V34.3045H24.9683ZM25.5596 32.9566H26.8014H28.0196V34.2691C27.9723 34.9076 27.4519 35.4161 26.8133 35.4161H26.7896C26.151 35.4161 25.6306 34.9076 25.5833 34.2691V32.9566H25.5596Z" fill="#1D71B8"/>
<path d="M33.8518 34.3047C33.8873 34.8841 34.1948 35.4044 34.6442 35.7118C34.9399 35.9128 35.2829 36.0311 35.6613 36.0311H35.6968C36.6666 36.0311 37.4472 35.2743 37.5063 34.3165H37.5182V32.3536H35.6968H35.6613H33.84V34.3165H33.8518V34.3047Z" fill="#1D71B8"/>
<path d="M55.5114 39.7085V37.7456H54.9556H54.6481V38.8453H47.0434V37.7456H46.7359H46.18V39.0345V39.7085H55.5114Z" fill="#2E2D2C"/>
<path d="M46.9018 44.0481V40.9738H47.233L48.1791 43.4096L48.12 43.4687V40.9738H48.4748V44.0481H48.1318L47.1857 41.6478L47.2448 41.5886V44.0481H46.89H46.9018Z" fill="#3C3C3B"/>
<path d="M48.8651 41.3048V40.9738H50.4263V41.3048H48.8651ZM49.4564 44.0481V41.2221H49.8231V44.0481H49.4564Z" fill="#3C3C3B"/>
<path d="M51.396 44.0836C51.2423 44.0836 51.1004 44.0481 50.9939 43.989C50.8875 43.9298 50.7929 43.8352 50.7337 43.717C50.6746 43.5987 50.651 43.4569 50.651 43.2913V41.7305C50.651 41.5649 50.6746 41.423 50.7337 41.3048C50.7929 41.1865 50.8757 41.1038 50.9939 41.0328C51.1004 40.9737 51.2423 40.9382 51.396 40.9382C51.5498 40.9382 51.6917 40.9737 51.7982 41.0328C51.9046 41.092 51.9992 41.1865 52.0465 41.3048C52.0938 41.423 52.1293 41.5649 52.1293 41.7305V41.8487H51.7627V41.7305C51.7627 41.6359 51.7509 41.5531 51.7154 41.494C51.6917 41.423 51.6444 41.3757 51.5853 41.3403C51.5261 41.3048 51.4552 41.2811 51.3842 41.2811C51.266 41.2811 51.1713 41.3166 51.1122 41.3994C51.0531 41.4822 51.0176 41.5886 51.0176 41.7305V43.2913C51.0176 43.4332 51.0531 43.5396 51.1122 43.6224C51.1713 43.7052 51.266 43.7406 51.3842 43.7406C51.5025 43.7406 51.5971 43.7052 51.6562 43.6224C51.7272 43.5396 51.7509 43.4332 51.7509 43.2913V43.1731H52.1175V43.2913C52.1175 43.4569 52.0938 43.5987 52.0347 43.717C51.9756 43.8352 51.8928 43.918 51.7863 43.989C51.6799 44.0481 51.538 44.0836 51.3842 44.0836H51.396Z" fill="#3C3C3B"/>
<path d="M54.0926 44.0836C53.9388 44.0836 53.7969 44.0599 53.6905 44.0126C53.584 43.9653 53.5012 43.8944 53.4421 43.7998C53.383 43.7052 53.3593 43.5869 53.3593 43.4569V43.2086H53.7378V43.4332C53.7378 43.5396 53.7733 43.6106 53.8324 43.6697C53.8915 43.7288 53.9861 43.7525 54.1044 43.7525C54.2227 43.7525 54.3055 43.717 54.3646 43.6579C54.4237 43.5988 54.4592 43.516 54.4592 43.4096V42.9839C54.4592 42.8656 54.4356 42.7829 54.3764 42.7238C54.3173 42.6646 54.2463 42.6292 54.1517 42.6292H53.927V42.2981H54.1517C54.2345 42.2981 54.2936 42.2744 54.341 42.2271C54.3883 42.1798 54.4119 42.1089 54.4119 42.0143V41.5886C54.4119 41.494 54.3883 41.4231 54.3291 41.3758C54.27 41.3285 54.199 41.3048 54.1044 41.3048C54.0098 41.3048 53.927 41.3285 53.8679 41.3758C53.8087 41.4231 53.7851 41.494 53.7851 41.5886V41.8369H53.4185V41.5768C53.4185 41.3758 53.4776 41.222 53.6077 41.1156C53.7378 41.0092 53.9034 40.9501 54.1281 40.9501C54.3291 40.9501 54.4947 41.0092 54.6011 41.1156C54.7194 41.222 54.7667 41.3758 54.7667 41.5768V42.0025C54.7667 42.0734 54.7431 42.1562 54.6958 42.2271C54.6484 42.2981 54.5775 42.3808 54.4947 42.44C54.6011 42.4873 54.6839 42.5464 54.7312 42.641C54.7904 42.7356 54.8259 42.842 54.8259 42.9602V43.3978C54.8259 43.6106 54.7667 43.7761 54.6366 43.8944C54.5065 44.0126 54.3291 44.0718 54.1044 44.0718L54.0926 44.0836Z" fill="#3C3C3B"/>
<path d="M44.5518 34.3045C44.611 35.2623 45.3915 36.0191 46.3614 36.0191H46.3968C47.3666 36.0191 48.1472 35.2623 48.2064 34.3045H48.2182V34.1863V32.3417H46.3968H44.54V34.3045H44.5518ZM45.155 32.9566H46.3968H47.615V34.2691C47.5677 34.9076 47.0473 35.4161 46.4087 35.4161H46.385C45.7464 35.4161 45.226 34.9076 45.1787 34.2691V32.9566H45.155Z" fill="#1D71B8"/>
<path d="M53.3418 34.3047C53.3773 34.8841 53.6848 35.4044 54.1342 35.7118C54.4299 35.9128 54.7729 36.0311 55.1513 36.0311H55.1868C56.1566 36.0311 56.9372 35.2743 56.9963 34.3165H57.0082V32.3536H55.1868H55.1513H53.33V34.3165H53.3418V34.3047Z" fill="#1D71B8"/>
<path d="M73.3 39.7085V37.7456H72.7085H72.3813V38.8453H64.2887V37.7456H63.9615H63.37V39.0345V39.7085H73.3Z" fill="#2E2D2C"/>
<path d="M64.5118 44.0481V40.9738H64.843L65.7891 43.4096L65.73 43.4687V40.9738H66.0848V44.0481H65.7418L64.7957 41.6478L64.8548 41.5886V44.0481H64.5H64.5118Z" fill="#3C3C3B"/>
<path d="M66.4869 41.3048V40.9738H68.0481V41.3048H66.4869ZM67.0783 44.0481V41.2221H67.4449V44.0481H67.0783Z" fill="#3C3C3B"/>
<path d="M69.0061 44.0836C68.8523 44.0836 68.7104 44.0481 68.6039 43.989C68.4975 43.9298 68.4029 43.8352 68.3438 43.717C68.2846 43.5987 68.261 43.4569 68.261 43.2913V41.7305C68.261 41.5649 68.2846 41.423 68.3438 41.3048C68.4029 41.1865 68.4857 41.1038 68.6039 41.0328C68.7104 40.9737 68.8523 40.9382 69.0061 40.9382C69.1598 40.9382 69.3017 40.9737 69.4082 41.0328C69.5146 41.092 69.6092 41.1865 69.6565 41.3048C69.7038 41.423 69.7393 41.5649 69.7393 41.7305V41.8487H69.3727V41.7305C69.3727 41.6359 69.3609 41.5531 69.3254 41.494C69.3017 41.423 69.2544 41.3757 69.1953 41.3403C69.1362 41.3048 69.0652 41.2811 68.9942 41.2811C68.876 41.2811 68.7813 41.3166 68.7222 41.3994C68.6631 41.4822 68.6276 41.5886 68.6276 41.7305V43.2913C68.6276 43.4332 68.6631 43.5396 68.7222 43.6224C68.7813 43.7052 68.876 43.7406 68.9942 43.7406C69.1125 43.7406 69.2071 43.7052 69.2663 43.6224C69.3372 43.5396 69.3609 43.4332 69.3609 43.2913V43.1731H69.7275V43.2913C69.7275 43.4569 69.7038 43.5987 69.6447 43.717C69.5856 43.8352 69.5028 43.918 69.3963 43.989C69.2899 44.0481 69.148 44.0836 68.9942 44.0836H69.0061Z" fill="#3C3C3B"/>
<path d="M71.0166 43.5752V43.2677L71.7144 40.9738H72.0929L71.4188 43.2441H72.6724V43.5752H71.0048H71.0166ZM72.0811 44.0481V42.239H72.4477V44.0481H72.0811Z" fill="#3C3C3B"/>
<path d="M62.0418 34.3045C62.101 35.2623 62.8815 36.0191 63.8513 36.0191H63.8868C64.8566 36.0191 65.6372 35.2623 65.6963 34.3045H65.7082V34.1863V32.3417H63.8868H62.03V34.3045H62.0418ZM62.645 32.9566H63.8868H65.105V34.2691C65.0577 34.9076 64.5373 35.4161 63.8987 35.4161H63.875C63.2363 35.4161 62.716 34.9076 62.6687 34.2691V32.9566H62.645Z" fill="#1D71B8"/>
<path d="M71.0318 34.3047C71.0673 34.8841 71.3748 35.4044 71.8242 35.7118C72.1199 35.9128 72.4629 36.0311 72.8413 36.0311H72.8768C73.8466 36.0311 74.6272 35.2743 74.6863 34.3165H74.6982V32.3536H72.8768H72.8413H71.02V34.3165H71.0318V34.3047Z" fill="#1D71B8"/>
<path d="M93.09 39.7085V37.7456H92.5109H92.1836V38.8453H84.0764V37.7456H83.7491H83.17V39.0345V39.7085H93.09Z" fill="#2E2D2C"/>
<path d="M84.2618 44.0481V40.9738H84.593L85.5391 43.4096L85.48 43.4687V40.9738H85.8348V44.0481H85.4918L84.5457 41.6478L84.6048 41.5886V44.0481H84.25H84.2618Z" fill="#3C3C3B"/>
<path d="M86.2369 41.3048V40.9738H87.7981V41.3048H86.2369ZM86.8283 44.0481V41.2221H87.1949V44.0481H86.8283Z" fill="#3C3C3B"/>
<path d="M88.7561 44.0836C88.6023 44.0836 88.4604 44.0481 88.3539 43.989C88.2475 43.9298 88.1529 43.8352 88.0938 43.717C88.0346 43.5987 88.011 43.4569 88.011 43.2913V41.7305C88.011 41.5649 88.0346 41.423 88.0938 41.3048C88.1529 41.1865 88.2357 41.1038 88.3539 41.0328C88.4604 40.9737 88.6023 40.9382 88.7561 40.9382C88.9098 40.9382 89.0517 40.9737 89.1582 41.0328C89.2646 41.092 89.3592 41.1865 89.4065 41.3048C89.4538 41.423 89.4893 41.5649 89.4893 41.7305V41.8487H89.1227V41.7305C89.1227 41.6359 89.1109 41.5531 89.0754 41.494C89.0517 41.423 89.0044 41.3757 88.9453 41.3403C88.8862 41.3048 88.8152 41.2811 88.7442 41.2811C88.626 41.2811 88.5313 41.3166 88.4722 41.3994C88.4131 41.4822 88.3776 41.5886 88.3776 41.7305V43.2913C88.3776 43.4332 88.4131 43.5396 88.4722 43.6224C88.5313 43.7052 88.626 43.7406 88.7442 43.7406C88.8625 43.7406 88.9571 43.7052 89.0163 43.6224C89.0872 43.5396 89.1109 43.4332 89.1109 43.2913V43.1731H89.4775V43.2913C89.4775 43.4569 89.4538 43.5987 89.3947 43.717C89.3356 43.8352 89.2528 43.918 89.1463 43.989C89.0399 44.0481 88.898 44.0836 88.7442 44.0836H88.7561Z" fill="#3C3C3B"/>
<path d="M91.4999 44.0836C91.2752 44.0836 91.1096 44.0245 90.9913 43.9062C90.8731 43.788 90.8139 43.6224 90.8139 43.4096V43.2795H91.1806V43.4096C91.1806 43.516 91.2042 43.5988 91.2634 43.6579C91.3225 43.717 91.4053 43.7407 91.4999 43.7407C91.5945 43.7407 91.6891 43.7052 91.7483 43.6579C91.8074 43.5988 91.8429 43.516 91.8429 43.4096V42.6055C91.8429 42.4991 91.8192 42.4163 91.7601 42.3572C91.701 42.2981 91.63 42.2745 91.5236 42.2745C91.4171 42.2745 91.3462 42.2981 91.287 42.3572C91.2279 42.4163 91.2042 42.4873 91.2042 42.5937H90.8731V40.9738H92.174V41.3048H91.2397V42.0971C91.2397 42.0971 91.3343 42.0025 91.3935 41.9788C91.4644 41.9552 91.5236 41.9315 91.5945 41.9315C91.7838 41.9315 91.9375 41.9907 92.044 42.1089C92.1504 42.2272 92.1977 42.3927 92.1977 42.6055V43.4096C92.1977 43.6224 92.1386 43.788 92.0085 43.9062C91.8902 44.0245 91.7128 44.0836 91.4881 44.0836H91.4999Z" fill="#3C3C3B"/>
<path d="M81.9218 34.3045C81.981 35.2623 82.7615 36.0191 83.7314 36.0191H83.7668C84.7366 36.0191 85.5172 35.2623 85.5763 34.3045H85.5882V34.1863V32.3417H83.7668H81.91V34.3045H81.9218ZM82.525 32.9566H83.7668H84.985V34.2691C84.9377 34.9076 84.4173 35.4161 83.7787 35.4161H83.755C83.1163 35.4161 82.596 34.9076 82.5487 34.2691V32.9566H82.525Z" fill="#1D71B8"/>
<path d="M90.7218 34.3047C90.7573 34.8841 91.0648 35.4044 91.5142 35.7118C91.8099 35.9128 92.1529 36.0311 92.5313 36.0311H92.5668C93.5366 36.0311 94.3172 35.2743 94.3763 34.3165H94.3882V32.3536H92.5668H92.5313H90.71V34.3165H90.7218V34.3047Z" fill="#1D71B8"/>
<path d="M111.08 39.7085V37.7456H111.067H110.488H110.161V38.8453H102.056V37.7456H101.742H101.15V39.0345V39.7085H111.08Z" fill="#2E2D2C"/>
<path d="M102.482 44.0481V40.9738H102.813L103.759 43.4096L103.7 43.4687V40.9738H104.055V44.0481H103.712L102.766 41.6478L102.825 41.5886V44.0481H102.47H102.482Z" fill="#3C3C3B"/>
<path d="M104.457 41.3048V40.9738H106.018V41.3048H104.457ZM105.048 44.0481V41.2221H105.415V44.0481H105.048Z" fill="#3C3C3B"/>
<path d="M106.976 44.0836C106.822 44.0836 106.68 44.0481 106.574 43.989C106.468 43.9298 106.373 43.8352 106.314 43.717C106.255 43.5987 106.231 43.4569 106.231 43.2913V41.7305C106.231 41.5649 106.255 41.423 106.314 41.3048C106.373 41.1865 106.456 41.1038 106.574 41.0328C106.68 40.9737 106.822 40.9382 106.976 40.9382C107.13 40.9382 107.272 40.9737 107.378 41.0328C107.485 41.092 107.579 41.1865 107.627 41.3048C107.674 41.423 107.709 41.5649 107.709 41.7305V41.8487H107.343V41.7305C107.343 41.6359 107.331 41.5531 107.295 41.494C107.272 41.423 107.224 41.3757 107.165 41.3403C107.106 41.3048 107.035 41.2811 106.964 41.2811C106.846 41.2811 106.751 41.3166 106.692 41.3994C106.633 41.4822 106.598 41.5886 106.598 41.7305V43.2913C106.598 43.4332 106.633 43.5396 106.692 43.6224C106.751 43.7052 106.846 43.7406 106.964 43.7406C107.083 43.7406 107.177 43.7052 107.236 43.6224C107.307 43.5396 107.331 43.4332 107.331 43.2913V43.1731H107.698V43.2913C107.698 43.4569 107.674 43.5987 107.615 43.717C107.556 43.8352 107.473 43.918 107.366 43.989C107.26 44.0481 107.118 44.0836 106.964 44.0836H106.976Z" fill="#3C3C3B"/>
<path d="M109.684 44.0836C109.46 44.0836 109.282 44.0127 109.152 43.8944C109.022 43.7644 108.963 43.587 108.963 43.3505V42.9485C108.963 42.7829 108.987 42.6529 109.034 42.5464C109.081 42.44 109.129 42.3218 109.188 42.1917L109.708 40.9856H110.11L109.424 42.5228L109.33 42.4518C109.448 42.3099 109.59 42.239 109.755 42.239C109.956 42.239 110.122 42.2981 110.228 42.4164C110.335 42.5346 110.394 42.7002 110.394 42.9012V43.3387C110.394 43.5752 110.335 43.7644 110.205 43.8944C110.075 44.0245 109.897 44.0954 109.673 44.0954L109.684 44.0836ZM109.684 43.7407C109.791 43.7407 109.885 43.7052 109.945 43.6343C110.004 43.5633 110.039 43.4687 110.039 43.3505V42.9248C110.039 42.8066 110.004 42.712 109.945 42.641C109.885 42.5819 109.803 42.5464 109.684 42.5464C109.566 42.5464 109.483 42.5819 109.424 42.641C109.365 42.712 109.33 42.7947 109.33 42.9248V43.3505C109.33 43.4687 109.365 43.5633 109.424 43.6343C109.483 43.7052 109.566 43.7289 109.684 43.7289V43.7407Z" fill="#3C3C3B"/>
<path d="M99.5118 34.3045C99.571 35.2623 100.352 36.0191 101.321 36.0191H101.357C102.327 36.0191 103.107 35.2623 103.166 34.3045H103.178V34.1863V32.3417H101.357H99.5V34.3045H99.5118ZM100.115 32.9566H101.357H102.575V34.2691C102.528 34.9076 102.007 35.4161 101.369 35.4161H101.345C100.706 35.4161 100.186 34.9076 100.139 34.2691V32.9566H100.115Z" fill="#1D71B8"/>
<path d="M108.602 34.3047C108.637 34.8841 108.945 35.4044 109.394 35.7118C109.69 35.9128 110.033 36.0311 110.411 36.0311H110.447C111.417 36.0311 112.197 35.2743 112.256 34.3165H112.268V32.3536H110.447H110.411H108.59V34.3165H108.602V34.3047Z" fill="#1D71B8"/>
<path d="M10.2201 44.0481V40.9738H10.5512L11.4974 43.4096L11.4383 43.4687V40.9738H11.7931V44.0481H11.4501L10.5039 41.6478L10.5631 41.5886V44.0481H10.2083H10.2201Z" fill="#3C3C3B"/>
<path d="M12.1834 41.3048V40.9738H13.7445V41.3048H12.1834ZM12.7747 44.0481V41.2221H13.1413V44.0481H12.7747Z" fill="#3C3C3B"/>
<path d="M14.7025 44.0836C14.5488 44.0836 14.4068 44.0481 14.3004 43.989C14.194 43.9298 14.0993 43.8352 14.0402 43.717C13.9811 43.5987 13.9574 43.4569 13.9574 43.2913V41.7305C13.9574 41.5649 13.9811 41.423 14.0402 41.3048C14.0993 41.1865 14.1821 41.1038 14.3004 41.0328C14.4068 40.9737 14.5488 40.9382 14.7025 40.9382C14.8563 40.9382 14.9982 40.9737 15.1046 41.0328C15.2111 41.092 15.3057 41.1865 15.353 41.3048C15.4003 41.423 15.4358 41.5649 15.4358 41.7305V41.8487H15.0691V41.7305C15.0691 41.6359 15.0573 41.5531 15.0218 41.494C14.9982 41.423 14.9509 41.3757 14.8917 41.3403C14.8326 41.3048 14.7616 41.2811 14.6907 41.2811C14.5724 41.2811 14.4778 41.3166 14.4187 41.3994C14.3595 41.4822 14.324 41.5886 14.324 41.7305V43.2913C14.324 43.4332 14.3595 43.5396 14.4187 43.6224C14.4778 43.7052 14.5724 43.7406 14.6907 43.7406C14.809 43.7406 14.9036 43.7052 14.9627 43.6224C15.0337 43.5396 15.0573 43.4332 15.0573 43.2913V43.1731H15.424V43.2913C15.424 43.4569 15.4003 43.5987 15.3412 43.717C15.282 43.8352 15.1992 43.918 15.0928 43.989C14.9864 44.0481 14.8444 44.0836 14.6907 44.0836H14.7025Z" fill="#3C3C3B"/>
<path d="M17.5291 40.9738V44.0481H17.1625V41.3167L16.6303 41.6359V41.2694L17.0797 40.9738H17.5291Z" fill="#3C3C3B"/>
<path d="M34.7491 110.833V104.448H35.5179V110.833H34.7491ZM35.2222 110.833V110.147H36.5705C36.7597 110.147 36.9135 110.088 37.0199 109.97C37.1263 109.851 37.1855 109.674 37.1855 109.449V108.432C37.1855 108.196 37.1263 108.019 37.0199 107.9C36.9135 107.782 36.7597 107.711 36.5705 107.711H35.2222V107.025H36.535C36.8307 107.025 37.0909 107.085 37.3037 107.191C37.5166 107.297 37.6704 107.463 37.7886 107.676C37.8951 107.889 37.9542 108.137 37.9542 108.432V109.473C37.9542 109.769 37.8951 110.017 37.7886 110.218C37.6822 110.419 37.5166 110.573 37.3037 110.679C37.0909 110.786 36.8425 110.845 36.5468 110.845H35.234L35.2222 110.833ZM35.3286 105.145V104.459H37.5521V105.145H35.3286Z" fill="#3C3C3B"/>
<path d="M38.4746 110.88V110.206C38.6047 110.206 38.7112 110.171 38.7821 110.088C38.8531 110.005 38.8886 109.887 38.8886 109.733V106.292H39.6573V109.792C39.6573 110.147 39.5627 110.431 39.3853 110.608C39.1961 110.797 38.9359 110.892 38.5811 110.892H38.4865L38.4746 110.88ZM39.4681 106.966V106.281H41.0529V106.966H39.4681ZM40.7217 110.833V106.281H41.4905V110.833H40.7217Z" fill="#3C3C3B"/>
<path d="M43.7731 110.904C43.3355 110.904 43.0043 110.786 42.7678 110.561C42.5313 110.336 42.413 110.005 42.413 109.579V107.51C42.413 107.096 42.5313 106.777 42.7678 106.552C43.0043 106.328 43.3473 106.209 43.7731 106.209C44.1989 106.209 44.5418 106.328 44.7784 106.552C45.0149 106.777 45.1332 107.096 45.1332 107.51V109.591C45.1332 110.005 45.0149 110.324 44.7784 110.561C44.5418 110.786 44.2107 110.904 43.7731 110.904ZM43.7613 110.206C43.9505 110.206 44.1042 110.147 44.2107 110.041C44.3171 109.934 44.3644 109.78 44.3644 109.579V107.522C44.3644 107.333 44.3171 107.179 44.2107 107.073C44.1042 106.966 43.9623 106.907 43.7613 106.907C43.5602 106.907 43.4301 106.966 43.3237 107.073C43.2172 107.179 43.1699 107.333 43.1699 107.522V109.579C43.1699 109.78 43.2172 109.934 43.3237 110.041C43.4301 110.147 43.572 110.206 43.7613 110.206Z" fill="#3C3C3B"/>
<path d="M46.0439 110.833V106.281H46.8126V110.833H46.0439ZM46.5051 108.917V108.243H48.1017V108.917H46.5051ZM48.3738 110.833L47.4394 108.823L48.0308 108.338L49.2016 110.821H48.3738V110.833ZM48.0189 108.858L47.4513 108.35L48.2437 106.292H49.0361L48.0189 108.87V108.858Z" fill="#3C3C3B"/>
<path d="M51.5434 112.689V106.28H52.3121V112.689H51.5434ZM53.2583 110.904C53.0217 110.904 52.8088 110.833 52.6314 110.703C52.4422 110.573 52.3239 110.372 52.253 110.123L52.3121 109.426C52.3121 109.603 52.3358 109.745 52.3949 109.875C52.4422 109.993 52.525 110.088 52.6196 110.159C52.7142 110.23 52.8325 110.253 52.9744 110.253C53.1873 110.253 53.3529 110.183 53.4712 110.029C53.5894 109.875 53.6486 109.674 53.6486 109.402V107.676C53.6486 107.416 53.5894 107.215 53.4712 107.073C53.3529 106.931 53.1873 106.86 52.9744 106.86C52.8325 106.86 52.7142 106.895 52.6196 106.954C52.525 107.014 52.4422 107.108 52.3949 107.226C52.3476 107.345 52.3121 107.498 52.3121 107.664L52.2175 107.037C52.3121 106.765 52.4659 106.564 52.6551 106.422C52.8443 106.28 53.069 106.209 53.2937 106.209C53.6486 106.209 53.9206 106.34 54.1098 106.588C54.299 106.836 54.3937 107.203 54.3937 107.664V109.426C54.3937 109.899 54.299 110.265 54.098 110.525C53.8969 110.786 53.6131 110.916 53.2464 110.916L53.2583 110.904Z" fill="#3C3C3B"/>
<path d="M56.4515 110.904C56.0494 110.904 55.7537 110.797 55.5527 110.585C55.3516 110.372 55.2452 110.052 55.2452 109.627C55.2452 109.118 55.3635 108.728 55.6118 108.48C55.8602 108.231 56.2268 108.101 56.7117 108.101H57.445L57.5041 108.704H56.7117C56.4634 108.704 56.2741 108.775 56.144 108.941C56.0139 109.095 55.9548 109.331 55.9548 109.639C55.9548 109.863 56.0139 110.041 56.1204 110.147C56.2268 110.253 56.4042 110.313 56.6289 110.313C56.8891 110.313 57.0784 110.242 57.2085 110.112C57.3386 109.981 57.3977 109.78 57.3977 109.52L57.4923 109.922C57.4923 110.147 57.445 110.336 57.374 110.478C57.2913 110.632 57.1848 110.738 57.0311 110.809C56.8773 110.88 56.6881 110.916 56.4515 110.916V110.904ZM57.4095 110.833V107.498C57.4095 107.285 57.3504 107.12 57.2321 107.002C57.1138 106.883 56.9364 106.824 56.7117 106.824C56.5225 106.824 56.3687 106.883 56.2505 107.002C56.1322 107.12 56.0849 107.285 56.0849 107.498H55.3398C55.3398 107.084 55.4581 106.765 55.7064 106.541C55.943 106.316 56.286 106.198 56.7236 106.198C57.1612 106.198 57.516 106.316 57.7643 106.541C58.0127 106.765 58.131 107.084 58.131 107.498V110.833H57.3977H57.4095Z" fill="#3C3C3B"/>
<path d="M60.4845 110.904C60.0233 110.904 59.6685 110.786 59.4201 110.549C59.1717 110.313 59.0416 109.981 59.0416 109.544V107.628C59.0416 107.179 59.1717 106.824 59.4201 106.576C59.6685 106.328 60.0233 106.198 60.4845 106.198C60.9458 106.198 61.3006 106.328 61.549 106.576C61.7973 106.824 61.9274 107.179 61.9274 107.64V107.735H61.1823V107.64C61.1823 107.404 61.1232 107.215 61.0049 107.084C60.8866 106.954 60.7092 106.895 60.4964 106.895C60.2835 106.895 60.1061 106.954 59.9878 107.084C59.8695 107.215 59.8104 107.392 59.8104 107.628V109.544C59.8104 109.757 59.8695 109.922 59.9878 110.041C60.1061 110.159 60.2716 110.218 60.4964 110.218C60.7211 110.218 60.8866 110.159 61.0049 110.041C61.1232 109.922 61.1823 109.745 61.1823 109.532V109.438H61.9274V109.532C61.9274 109.97 61.7973 110.313 61.549 110.549C61.3006 110.786 60.9339 110.916 60.4727 110.916L60.4845 110.904Z" fill="#3C3C3B"/>
<path d="M62.6725 110.833V106.281H63.4413V110.833H62.6725ZM63.1929 110.833V110.159H65.9486V110.833H63.1929ZM64.0681 110.833V106.281H64.8368V110.833H64.0681ZM65.4637 110.833V106.281H66.2324V110.833H65.4637Z" fill="#3C3C3B"/>
<path d="M69.9697 110.833H69.2483V107.546L69.3547 107.664L67.829 110.833H67.2259V106.281H67.9473V109.627L67.8409 109.509L69.3784 106.281H69.9697V110.833Z" fill="#3C3C3B"/>
<path d="M70.975 112.689V106.28H71.7438V112.689H70.975ZM72.6899 110.904C72.4534 110.904 72.2405 110.833 72.0631 110.703C71.8739 110.573 71.7556 110.372 71.6846 110.123L71.7438 109.426C71.7438 109.603 71.7674 109.745 71.8265 109.875C71.8739 109.993 71.9566 110.088 72.0513 110.159C72.1459 110.23 72.2641 110.253 72.4061 110.253C72.6189 110.253 72.7845 110.183 72.9028 110.029C73.0211 109.875 73.0802 109.674 73.0802 109.402V107.676C73.0802 107.416 73.0211 107.215 72.9028 107.073C72.7845 106.931 72.6189 106.86 72.4061 106.86C72.2641 106.86 72.1459 106.895 72.0513 106.954C71.9566 107.014 71.8739 107.108 71.8265 107.226C71.7792 107.345 71.7438 107.498 71.7438 107.664L71.6491 107.037C71.7438 106.765 71.8975 106.564 72.0867 106.422C72.276 106.28 72.5007 106.209 72.7254 106.209C73.0802 106.209 73.3522 106.34 73.5415 106.588C73.7307 106.836 73.8253 107.203 73.8253 107.664V109.426C73.8253 109.899 73.7307 110.265 73.5296 110.525C73.3286 110.786 73.0447 110.916 72.6781 110.916L72.6899 110.904Z" fill="#3C3C3B"/>
<path d="M76.1079 110.904C75.6466 110.904 75.2918 110.774 75.0435 110.502C74.7951 110.242 74.665 109.863 74.665 109.39V107.806C74.665 107.297 74.7833 106.907 75.0316 106.623C75.28 106.34 75.623 106.209 76.0724 106.209C76.5218 106.209 76.8766 106.34 77.125 106.6C77.3734 106.86 77.4916 107.226 77.4916 107.699V108.858H75.1617V108.22H76.7465V107.711C76.7465 107.451 76.6874 107.238 76.5691 107.096C76.4509 106.954 76.2853 106.883 76.0724 106.883C75.8595 106.883 75.694 106.954 75.5875 107.12C75.4692 107.274 75.4101 107.487 75.4101 107.77V109.426C75.4101 109.686 75.4692 109.875 75.5993 110.017C75.7176 110.159 75.895 110.23 76.1197 110.23C76.3326 110.23 76.4864 110.171 76.6046 110.064C76.7229 109.958 76.782 109.804 76.7702 109.603V109.568H77.5153V109.603C77.5153 110.017 77.397 110.336 77.1487 110.573C76.9003 110.797 76.5573 110.916 76.1197 110.916L76.1079 110.904Z" fill="#3C3C3B"/>
<path d="M78.426 110.833V106.281H79.1947V110.833H78.426ZM78.9345 108.941V108.255H80.8268V108.941H78.9345ZM80.3892 110.833V106.281H81.158V110.833H80.3892Z" fill="#3C3C3B"/>
<path d="M84.9071 110.833H84.1857V107.546L84.2921 107.664L82.7664 110.833H82.1633V106.281H82.8847V109.627L82.7783 109.509L84.3158 106.281H84.9071V110.833Z" fill="#3C3C3B"/>
<path d="M88.2068 109.319H87.0123C86.6102 109.319 86.3145 109.213 86.0898 109C85.8769 108.787 85.7705 108.492 85.7705 108.101V107.487C85.7705 107.108 85.8888 106.801 86.1253 106.588C86.3618 106.375 86.693 106.269 87.1069 106.269H88.2068V106.954H87.1661C86.965 106.954 86.8112 107.014 86.7048 107.12C86.5984 107.226 86.5392 107.392 86.5392 107.593V107.983C86.5392 108.184 86.5984 108.338 86.7048 108.456C86.8112 108.574 86.965 108.622 87.1661 108.622H88.2068V109.308V109.319ZM86.6338 110.833H85.8178L86.6693 108.87L87.4026 109.071L86.6338 110.821V110.833ZM88.6089 110.833H87.8402V106.28H88.6089V110.833Z" fill="#3C3C3B"/>
<path d="M39.9766 121.617V115.243H40.6626L42.6259 120.304L42.4958 120.423V115.243H43.2409V121.617H42.5431L40.5916 116.627L40.7217 116.509V121.617H39.9766Z" fill="#3C3C3B"/>
<path d="M44.0688 115.929V115.243H47.2975V115.929H44.0688ZM45.3106 121.629V115.776H46.0793V121.629H45.3106Z" fill="#3C3C3B"/>
<path d="M49.3081 121.688C48.9769 121.688 48.7049 121.629 48.4684 121.499C48.2437 121.369 48.0663 121.179 47.9362 120.943C47.8061 120.706 47.7588 120.411 47.7588 120.056V116.816C47.7588 116.473 47.8179 116.178 47.9362 115.929C48.0544 115.681 48.2318 115.504 48.4684 115.374C48.7049 115.243 48.9769 115.184 49.3081 115.184C49.6392 115.184 49.9231 115.243 50.1478 115.374C50.3843 115.504 50.5499 115.693 50.68 115.929C50.8101 116.166 50.8574 116.461 50.8574 116.816V117.076H50.0887V116.816C50.0887 116.615 50.0532 116.45 49.9941 116.319C49.9349 116.178 49.8521 116.083 49.7339 116C49.6156 115.929 49.4737 115.894 49.3081 115.894C49.0597 115.894 48.8705 115.977 48.7404 116.13C48.6103 116.284 48.5393 116.521 48.5393 116.816V120.056C48.5393 120.352 48.6103 120.576 48.7404 120.742C48.8705 120.907 49.0715 120.978 49.3081 120.978C49.5446 120.978 49.7457 120.896 49.8876 120.742C50.0295 120.588 50.0887 120.352 50.0887 120.056V119.796H50.8574V120.056C50.8574 120.399 50.7983 120.695 50.68 120.943C50.5617 121.191 50.3843 121.369 50.1478 121.499C49.9231 121.629 49.6392 121.688 49.3081 121.688Z" fill="#3C3C3B"/>
<path d="M53.2346 121.629V120.943H56.7117V121.629H53.2346ZM53.2346 122.764V120.931H54.0034V122.764H53.2346ZM53.3647 121.463V120.931H53.4712C53.5776 120.931 53.6722 120.896 53.7432 120.813C53.8141 120.73 53.8733 120.612 53.9088 120.458C53.9442 120.304 53.9679 120.115 53.9679 119.891V117.064H54.7248V120.021C54.7248 120.505 54.6184 120.872 54.4173 121.108C54.2163 121.345 53.9206 121.463 53.5539 121.463H53.3529H53.3647ZM54.4883 117.762V117.076H56.0731V117.762H54.4883ZM55.7892 121.629V117.076H56.558V121.629H55.7892ZM56.4634 122.764V120.931H57.2321V122.764H56.4634Z" fill="#3C3C3B"/>
<path d="M58.9943 121.688C58.5922 121.688 58.2966 121.581 58.0955 121.369C57.8944 121.156 57.788 120.836 57.788 120.411C57.788 119.902 57.9063 119.512 58.1546 119.264C58.403 119.016 58.7696 118.885 59.2545 118.885H59.9878L60.0469 119.488H59.2545C59.0062 119.488 58.8169 119.559 58.6868 119.725C58.5567 119.879 58.4976 120.115 58.4976 120.423C58.4976 120.647 58.5567 120.825 58.6632 120.931C58.7696 121.038 58.947 121.097 59.1717 121.097C59.4319 121.097 59.6212 121.026 59.7513 120.896C59.8814 120.766 59.9405 120.565 59.9405 120.304L60.0351 120.706C60.0351 120.931 59.9878 121.12 59.9168 121.262C59.8459 121.404 59.7276 121.522 59.5739 121.593C59.4201 121.664 59.2309 121.7 58.9943 121.7V121.688ZM59.9405 121.629V118.294C59.9405 118.081 59.8814 117.916 59.7513 117.798C59.6212 117.679 59.4556 117.62 59.2309 117.62C59.0298 117.62 58.8879 117.679 58.7696 117.798C58.6632 117.916 58.6041 118.081 58.6041 118.294H57.859C57.859 117.88 57.9772 117.561 58.2256 117.336C58.4621 117.112 58.8051 116.994 59.2427 116.994C59.6803 116.994 60.0351 117.112 60.2835 117.336C60.5318 117.561 60.6501 117.88 60.6501 118.294V121.629H59.9168H59.9405Z" fill="#3C3C3B"/>
<path d="M61.0759 117.762V117.076H63.6423V117.762H61.0759ZM61.9984 121.629V117.076H62.7435V121.629H61.9984Z" fill="#3C3C3B"/>
<path d="M65.5701 120.281C65.1916 120.281 64.896 120.174 64.6949 119.961C64.482 119.749 64.3874 119.453 64.3874 119.075V117.064H65.1562V119.063C65.1562 119.24 65.2035 119.37 65.3099 119.477C65.4163 119.583 65.5583 119.619 65.7593 119.619C65.9604 119.619 66.1023 119.559 66.2088 119.453C66.3152 119.335 66.3743 119.181 66.3743 118.98V118.188H66.67V118.992C66.67 119.406 66.5754 119.725 66.3862 119.95C66.1969 120.174 65.9367 120.293 65.5938 120.293L65.5701 120.281ZM66.3507 121.629V117.076H67.1194V121.629H66.3507Z" fill="#3C3C3B"/>
<path d="M70.8686 121.617H70.1471V118.33L70.2536 118.448L68.7279 121.617H68.1247V117.064H68.8462V120.411L68.7397 120.293L70.2772 117.064H70.8686V121.617Z" fill="#3C3C3B"/>
<path d="M71.8739 121.629V117.076H72.6426V121.629H71.8739ZM72.3233 119.701V119.027H73.9199V119.701H72.3233ZM74.2038 121.629L73.2694 119.619L73.8608 119.134L75.0316 121.617H74.2038V121.629ZM73.8489 119.642L73.2813 119.134L74.0737 117.076H74.8661L73.8489 119.654V119.642Z" fill="#3C3C3B"/>
<path d="M76.6283 121.688C76.1907 121.688 75.8595 121.57 75.623 121.345C75.3864 121.12 75.2682 120.789 75.2682 120.364V118.294C75.2682 117.88 75.3864 117.561 75.623 117.336C75.8595 117.112 76.2025 116.994 76.6283 116.994C77.054 116.994 77.397 117.112 77.6336 117.336C77.8701 117.561 77.9884 117.88 77.9884 118.294V120.375C77.9884 120.789 77.8701 121.108 77.6336 121.345C77.397 121.57 77.0659 121.688 76.6283 121.688ZM76.6164 120.99C76.8057 120.99 76.9594 120.931 77.0659 120.825C77.1723 120.718 77.2196 120.565 77.2196 120.364V118.306C77.2196 118.117 77.1723 117.963 77.0659 117.857C76.9594 117.75 76.8175 117.691 76.6164 117.691C76.4154 117.691 76.2853 117.75 76.1788 117.857C76.0724 117.963 76.0251 118.117 76.0251 118.306V120.364C76.0251 120.565 76.0724 120.718 76.1788 120.825C76.2853 120.931 76.4272 120.99 76.6164 120.99Z" fill="#3C3C3B"/>
<path d="M78.899 121.629V117.076H79.6678V121.629H78.899ZM79.4549 121.629V120.943H80.5666C80.6849 120.943 80.7677 120.907 80.8268 120.848C80.886 120.789 80.9096 120.683 80.9096 120.565V120.08C80.9096 119.914 80.8623 119.796 80.7677 119.713C80.6731 119.63 80.543 119.583 80.3774 119.583H79.4549V118.885H80.3774C80.6731 118.885 80.815 118.744 80.815 118.46V118.058C80.815 117.869 80.6967 117.774 80.472 117.774H79.4431V117.088H80.5548C80.886 117.088 81.1343 117.171 81.3117 117.313C81.4891 117.466 81.5719 117.679 81.5719 117.963V118.483C81.5719 118.684 81.5128 118.85 81.4063 118.992C81.2881 119.122 81.1343 119.217 80.9333 119.252C81.1698 119.287 81.3472 119.382 81.4655 119.524C81.5956 119.666 81.6547 119.855 81.6547 120.092V120.671C81.6547 120.978 81.5601 121.227 81.3709 121.392C81.1816 121.558 80.9214 121.652 80.5785 121.652H79.4312L79.4549 121.629Z" fill="#3C3C3B"/>
<path d="M21.503 132.413V131.727H24.9801V132.413H21.503ZM21.503 133.56V131.727H22.2717V133.56H21.503ZM21.6449 132.247V131.715H21.7514C21.8578 131.715 21.9524 131.68 22.0234 131.597C22.0943 131.514 22.1535 131.396 22.189 131.242C22.2244 131.088 22.2481 130.899 22.2481 130.674V127.848H23.005V130.805C23.005 131.289 22.8986 131.656 22.6975 131.892C22.4965 132.129 22.2126 132.247 21.8341 132.247H21.6331H21.6449ZM22.7566 128.546V127.86H24.3415V128.546H22.7566ZM24.0694 132.413V127.86H24.8382V132.413H24.0694ZM24.7317 133.56V131.727H25.5005V133.56H24.7317Z" fill="#3C3C3B"/>
<path d="M25.808 132.448V131.774C25.9381 131.774 26.0445 131.739 26.1155 131.656C26.1865 131.573 26.2219 131.455 26.2219 131.301V127.86H26.9907V131.36C26.9907 131.715 26.8961 131.999 26.7187 132.176C26.5294 132.365 26.2692 132.46 25.9144 132.46H25.8198L25.808 132.448ZM26.7896 128.546V127.86H28.3744V128.546H26.7896ZM28.0551 132.413V127.86H28.8239V132.413H28.0551Z" fill="#3C3C3B"/>
<path d="M32.1236 130.899H30.929C30.5269 130.899 30.2312 130.793 30.0065 130.58C29.7937 130.367 29.6872 130.071 29.6872 129.681V129.066C29.6872 128.688 29.8055 128.38 30.042 128.168C30.2786 127.955 30.6097 127.848 31.0237 127.848H32.1236V128.534H31.0828C30.8817 128.534 30.728 128.593 30.6215 128.7C30.5151 128.806 30.456 128.972 30.456 129.173V129.563C30.456 129.764 30.5151 129.918 30.6215 130.036C30.728 130.154 30.8817 130.201 31.0828 130.201H32.1236V130.887V130.899ZM30.5506 132.413H29.7345L30.5861 130.45L31.3193 130.651L30.5506 132.401V132.413ZM32.5257 132.413H31.7569V127.86H32.5257V132.413Z" fill="#3C3C3B"/>
<path d="M35.4115 132.413V127.86H36.1802V132.413H35.4115ZM35.8727 130.485V129.811H37.4693V130.485H35.8727ZM37.7414 132.413L36.807 130.403L37.3984 129.918L38.5692 132.401H37.7414V132.413ZM37.3865 130.426L36.8189 129.918L37.6113 127.86H38.4037L37.3865 130.438V130.426Z" fill="#3C3C3B"/>
<path d="M40.1659 132.472C39.7283 132.472 39.3971 132.354 39.1606 132.129C38.924 131.904 38.8058 131.573 38.8058 131.147V129.078C38.8058 128.664 38.924 128.345 39.1606 128.12C39.3971 127.896 39.7401 127.777 40.1659 127.777C40.5916 127.777 40.9346 127.896 41.1712 128.12C41.4077 128.345 41.526 128.664 41.526 129.078V131.159C41.526 131.573 41.4077 131.892 41.1712 132.129C40.9346 132.354 40.6035 132.472 40.1659 132.472ZM40.154 131.774C40.3433 131.774 40.497 131.715 40.6035 131.609C40.7099 131.502 40.7572 131.348 40.7572 131.147V129.09C40.7572 128.901 40.7099 128.747 40.6035 128.641C40.497 128.534 40.3551 128.475 40.154 128.475C39.953 128.475 39.8229 128.534 39.7164 128.641C39.61 128.747 39.5627 128.901 39.5627 129.09V131.147C39.5627 131.348 39.61 131.502 39.7164 131.609C39.8229 131.715 39.9648 131.774 40.154 131.774Z" fill="#3C3C3B"/>
<path d="M42.4366 132.413V127.86H43.2054V132.413H42.4366ZM42.957 130.509V129.823H44.8493V130.509H42.957ZM44.4117 132.413V127.86H45.1805V132.413H44.4117Z" fill="#3C3C3B"/>
<path d="M45.5826 128.546V127.86H48.1491V128.546H45.5826ZM46.5051 132.413V127.86H47.2502V132.413H46.5051Z" fill="#3C3C3B"/>
<path d="M48.8941 134.257V127.848H49.6629V134.257H48.8941ZM50.5972 132.472C50.3607 132.472 50.1478 132.401 49.9704 132.271C49.793 132.141 49.6629 131.94 49.5919 131.691L49.6511 130.994C49.6511 131.171 49.6747 131.313 49.7338 131.443C49.7812 131.561 49.8639 131.656 49.9586 131.727C50.0532 131.786 50.1714 131.821 50.3134 131.821C50.5263 131.821 50.6918 131.751 50.8101 131.597C50.9284 131.443 50.9875 131.242 50.9875 130.97V129.244C50.9875 128.984 50.9284 128.783 50.8101 128.641C50.6918 128.499 50.5263 128.428 50.3134 128.428C50.1714 128.428 50.0532 128.463 49.9586 128.522C49.8639 128.582 49.7812 128.676 49.7338 128.794C49.6865 128.913 49.6511 129.066 49.6511 129.232L49.5564 128.605C49.6511 128.333 49.8048 128.132 49.994 127.99C50.1951 127.848 50.408 127.777 50.6327 127.777C50.9875 127.777 51.2595 127.908 51.4487 128.156C51.638 128.404 51.7326 128.771 51.7326 129.232V130.994C51.7326 131.467 51.638 131.833 51.4369 132.093C51.2359 132.354 50.952 132.484 50.5854 132.484L50.5972 132.472Z" fill="#3C3C3B"/>
<path d="M53.9442 132.472C53.5066 132.472 53.1755 132.354 52.9389 132.129C52.7024 131.904 52.5841 131.573 52.5841 131.147V129.078C52.5841 128.664 52.7024 128.345 52.9389 128.12C53.1755 127.896 53.5185 127.777 53.9442 127.777C54.37 127.777 54.713 127.896 54.9495 128.12C55.1861 128.345 55.3043 128.664 55.3043 129.078V131.159C55.3043 131.573 55.1861 131.892 54.9495 132.129C54.713 132.354 54.3818 132.472 53.9442 132.472ZM53.9324 131.774C54.1216 131.774 54.2754 131.715 54.3818 131.609C54.4883 131.502 54.5356 131.348 54.5356 131.147V129.09C54.5356 128.901 54.4883 128.747 54.3818 128.641C54.2754 128.534 54.1216 128.475 53.9324 128.475C53.7432 128.475 53.6013 128.534 53.4948 128.641C53.3884 128.747 53.3411 128.901 53.3411 129.09V131.147C53.3411 131.348 53.3884 131.502 53.4948 131.609C53.6013 131.715 53.7432 131.774 53.9324 131.774Z" fill="#3C3C3B"/>
<path d="M55.6591 132.448V131.774C55.7892 131.774 55.8957 131.739 55.9666 131.656C56.0376 131.573 56.0731 131.455 56.0731 131.301V127.86H56.8418V131.36C56.8418 131.715 56.7472 131.999 56.5698 132.176C56.3806 132.365 56.1204 132.46 55.7656 132.46H55.671L55.6591 132.448ZM56.6526 128.546V127.86H58.2374V128.546H56.6526ZM57.9181 132.413V127.86H58.6868V132.413H57.9181Z" fill="#3C3C3B"/>
<path d="M59.3728 132.448V131.774C59.5029 131.774 59.6093 131.739 59.6803 131.656C59.7513 131.573 59.7867 131.455 59.7867 131.301V127.86H60.5555V131.36C60.5555 131.715 60.4609 131.999 60.2835 132.176C60.0942 132.365 59.8341 132.46 59.4792 132.46H59.3846L59.3728 132.448ZM60.3544 128.546V127.86H61.9392V128.546H60.3544ZM61.6199 132.413V127.86H62.3887V132.413H61.6199Z" fill="#3C3C3B"/>
<path d="M64.7422 132.472C64.281 132.472 63.9262 132.342 63.6778 132.07C63.4294 131.81 63.2993 131.431 63.2993 130.958V129.374C63.2993 128.865 63.4176 128.475 63.666 128.191C63.9143 127.908 64.2573 127.777 64.7067 127.777C65.1562 127.777 65.511 127.908 65.7593 128.168C66.0077 128.428 66.126 128.794 66.126 129.267V130.426H63.7961V129.788H65.3691V129.279C65.3691 129.019 65.3099 128.806 65.1917 128.664C65.0734 128.522 64.9078 128.451 64.6949 128.451C64.482 128.451 64.3165 128.522 64.21 128.688C64.0918 128.842 64.0326 129.055 64.0326 129.338V130.994C64.0326 131.254 64.0918 131.443 64.21 131.585C64.3283 131.727 64.5057 131.798 64.7304 131.798C64.9433 131.798 65.097 131.739 65.2153 131.632C65.3336 131.526 65.3927 131.372 65.3809 131.171V131.136H66.126V131.171C66.126 131.585 66.0077 131.904 65.7593 132.141C65.511 132.365 65.168 132.484 64.7186 132.484L64.7422 132.472Z" fill="#3C3C3B"/>
<path d="M67.0603 134.257V127.848H67.8291V134.257H67.0603ZM68.7634 132.472C68.5268 132.472 68.314 132.401 68.1366 132.271C67.9591 132.141 67.8291 131.94 67.7581 131.691L67.8172 130.994C67.8172 131.171 67.8409 131.313 67.9 131.443C67.9473 131.561 68.0301 131.656 68.1247 131.727C68.2193 131.786 68.3376 131.821 68.4795 131.821C68.6924 131.821 68.858 131.751 68.9763 131.597C69.0945 131.443 69.1537 131.242 69.1537 130.97V129.244C69.1537 128.984 69.0945 128.783 68.9763 128.641C68.858 128.499 68.6924 128.428 68.4795 128.428C68.3376 128.428 68.2193 128.463 68.1247 128.522C68.0301 128.582 67.9473 128.676 67.9 128.794C67.8527 128.913 67.8172 129.066 67.8172 129.232L67.7226 128.605C67.8172 128.333 67.971 128.132 68.1602 127.99C68.3613 127.848 68.5741 127.777 68.7989 127.777C69.1537 127.777 69.4257 127.908 69.6149 128.156C69.8041 128.404 69.8988 128.771 69.8988 129.232V130.994C69.8988 131.467 69.8041 131.833 69.6031 132.093C69.402 132.354 69.1182 132.484 68.7515 132.484L68.7634 132.472Z" fill="#3C3C3B"/>
<path d="M72.1104 132.472C71.6728 132.472 71.3416 132.354 71.1051 132.129C70.8686 131.904 70.7503 131.573 70.7503 131.147V129.078C70.7503 128.664 70.8686 128.345 71.1051 128.12C71.3416 127.896 71.6846 127.777 72.1104 127.777C72.5362 127.777 72.8791 127.896 73.1157 128.12C73.3522 128.345 73.4705 128.664 73.4705 129.078V131.159C73.4705 131.573 73.3522 131.892 73.1157 132.129C72.8791 132.354 72.548 132.472 72.1104 132.472ZM72.0986 131.774C72.2878 131.774 72.4415 131.715 72.548 131.609C72.6544 131.502 72.7017 131.348 72.7017 131.147V129.09C72.7017 128.901 72.6544 128.747 72.548 128.641C72.4415 128.534 72.2878 128.475 72.0986 128.475C71.9093 128.475 71.7674 128.534 71.661 128.641C71.5545 128.747 71.5072 128.901 71.5072 129.09V131.147C71.5072 131.348 71.5545 131.502 71.661 131.609C71.7674 131.715 71.9093 131.774 72.0986 131.774Z" fill="#3C3C3B"/>
<path d="M74.3812 132.413V127.86H75.1499V132.413H74.3812ZM74.937 132.413V131.727H76.0488C76.167 131.727 76.2498 131.691 76.3089 131.632C76.3681 131.573 76.3917 131.467 76.3917 131.348V130.864C76.3917 130.698 76.3444 130.58 76.2498 130.497C76.1552 130.414 76.0251 130.367 75.8595 130.367H74.937V129.669H75.8595C76.1552 129.669 76.2971 129.527 76.2971 129.244V128.842C76.2971 128.652 76.1789 128.558 75.9541 128.558H74.9252V127.872H76.0369C76.3681 127.872 76.6165 127.955 76.7939 128.097C76.9713 128.25 77.0541 128.463 77.0541 128.747V129.267C77.0541 129.468 76.9949 129.634 76.8885 129.776C76.7702 129.906 76.6165 130 76.4154 130.036C76.6519 130.071 76.8293 130.166 76.9476 130.308C77.0777 130.45 77.1368 130.639 77.1368 130.875V131.455C77.1368 131.762 77.0422 132.011 76.853 132.176C76.6638 132.342 76.4036 132.436 76.0606 132.436H74.9134L74.937 132.413Z" fill="#3C3C3B"/>
<path d="M81.9504 130.355L83.3933 126.027H84.1029V132.413H83.3933V127.435L83.4524 127.718L82.2461 131.455H81.6902L80.4838 127.813L80.5548 127.446V132.425H79.8215V126.039H80.543L81.9622 130.367L81.9504 130.355Z" fill="#3C3C3B"/>
<path d="M86.2317 132.744L84.7297 127.86H85.5103L86.5629 131.774L86.2199 132.744H86.2317ZM87.2015 127.848H87.9821L86.4801 133.465C86.4091 133.749 86.2554 133.95 86.0307 134.092C85.806 134.234 85.4985 134.305 85.1082 134.305H85.0254V133.607H85.1082C85.3447 133.607 85.534 133.56 85.664 133.453C85.7941 133.347 85.8769 133.193 85.9361 132.992L87.2015 127.848Z" fill="#3C3C3B"/>
<path d="M88.5262 132.413V126.027H89.2949V132.413H88.5262ZM89.1175 129.61V128.924H91.1636V129.61H89.1175ZM90.8324 132.413V126.027H91.6012V132.413H90.8324Z" fill="#3C3C3B"/>
<path d="M93.9074 132.472C93.4462 132.472 93.0913 132.342 92.843 132.07C92.5946 131.81 92.4645 131.431 92.4645 130.958V129.374C92.4645 128.865 92.5828 128.475 92.8312 128.191C93.0795 127.908 93.4225 127.777 93.8719 127.777C94.3214 127.777 94.6762 127.908 94.9245 128.168C95.1729 128.428 95.2912 128.794 95.2912 129.267V130.426H92.9613V129.788H94.5342V129.279C94.5342 129.019 94.4751 128.806 94.3568 128.664C94.2386 128.522 94.073 128.451 93.8601 128.451C93.6472 128.451 93.4816 128.522 93.3752 128.688C93.2569 128.842 93.1978 129.055 93.1978 129.338V130.994C93.1978 131.254 93.2569 131.443 93.3752 131.585C93.4935 131.727 93.6709 131.798 93.8956 131.798C94.1085 131.798 94.2622 131.739 94.3805 131.632C94.4987 131.526 94.5579 131.372 94.5461 131.171V131.136H95.2912V131.171C95.2912 131.585 95.1729 131.904 94.9245 132.141C94.6762 132.365 94.3332 132.484 93.8838 132.484L93.9074 132.472Z" fill="#3C3C3B"/>
<path d="M97.3727 132.472C96.9706 132.472 96.6749 132.365 96.4739 132.153C96.2728 131.94 96.1664 131.62 96.1664 131.195C96.1664 130.686 96.2846 130.296 96.533 130.048C96.7814 129.799 97.148 129.669 97.6329 129.669H98.3662L98.4253 130.272H97.6329C97.3845 130.272 97.1953 130.343 97.0652 130.509C96.9351 130.663 96.876 130.899 96.876 131.207C96.876 131.431 96.9351 131.609 97.0415 131.715C97.148 131.821 97.3254 131.881 97.5501 131.881C97.8103 131.881 97.9995 131.81 98.1296 131.68C98.2597 131.549 98.3189 131.348 98.3189 131.088L98.4135 131.49C98.4135 131.715 98.3662 131.904 98.2952 132.046C98.2242 132.188 98.106 132.306 97.9522 132.377C97.7985 132.448 97.6092 132.484 97.3727 132.484V132.472ZM98.3189 132.413V129.078C98.3189 128.865 98.2597 128.7 98.1296 128.582C97.9995 128.463 97.8339 128.404 97.6092 128.404C97.4082 128.404 97.2663 128.463 97.148 128.582C97.0415 128.7 96.9824 128.865 96.9824 129.078H96.2373C96.2373 128.664 96.3556 128.345 96.604 128.12C96.8405 127.896 97.1835 127.777 97.6211 127.777C98.0587 127.777 98.4135 127.896 98.6618 128.12C98.9102 128.345 99.0285 128.664 99.0285 129.078V132.413H98.2952H98.3189Z" fill="#3C3C3B"/>
<path d="M99.6908 128.546V127.86H101.737V128.546H99.6908ZM101.287 132.436C100.897 132.436 100.613 132.33 100.436 132.129C100.258 131.928 100.176 131.62 100.176 131.23V126.536H100.944V131.242C100.944 131.408 100.98 131.538 101.063 131.62C101.134 131.703 101.252 131.75 101.394 131.75H101.749V132.436H101.299H101.287Z" fill="#3C3C3B"/>
<path fill-rule="evenodd" clip-rule="evenodd" d="M83.547 55.8724C83.1686 56.1207 82.8138 56.4873 82.4944 56.9721C82.2815 57.2913 82.045 57.717 81.7966 58.2491C81.6547 58.5684 81.4182 59.1123 81.1107 59.8809C80.9214 60.3539 80.744 60.7204 80.5785 60.9688C80.3892 61.2998 80.129 61.6428 79.7861 61.9738C79.3012 62.4586 78.7453 62.837 78.1185 63.109C77.7045 63.2745 77.3261 63.381 76.9949 63.4164L76.5928 63.4401L76.9476 63.1563L77.7873 62.3404C78.1421 61.962 78.4378 61.5718 78.6625 61.1816C78.8163 60.9215 78.9345 60.6968 79.0055 60.5076L79.3248 59.6799C79.5968 58.9822 79.9871 58.3201 80.4957 57.6697C80.9688 57.0785 81.4655 56.6292 81.9859 56.3099C82.4116 56.0498 82.8019 55.896 83.1567 55.8487C83.3341 55.8251 83.4642 55.8369 83.547 55.8487V55.8724Z" fill="#EE7203"/>
<path fill-rule="evenodd" clip-rule="evenodd" d="M86.1135 55.8843C85.735 56.1327 85.3802 56.4992 85.0609 56.984C84.848 57.3033 84.6114 57.729 84.3631 58.2611C84.2212 58.5803 83.9846 59.1243 83.6771 59.8929C83.4879 60.3658 83.3105 60.7324 83.1449 60.9807C82.9557 61.3118 82.6955 61.6547 82.3525 61.9858C81.8676 62.4706 81.3117 62.849 80.6849 63.121C80.271 63.2865 79.8925 63.3929 79.5613 63.4284L79.1592 63.452L79.514 63.1683L80.3537 62.3524C80.7086 61.974 81.0042 61.5838 81.2289 61.1936C81.3827 60.9216 81.501 60.7088 81.5719 60.5196L81.8912 59.6918C82.1633 58.9942 82.5535 58.332 83.0621 57.6817C83.5352 57.0905 84.0319 56.6411 84.5523 56.3219C84.9781 56.0617 85.3684 55.908 85.7232 55.8607C85.9006 55.8371 86.0307 55.8489 86.1135 55.8607V55.8843Z" fill="#2E2D2C"/>
<path fill-rule="evenodd" clip-rule="evenodd" d="M88.6444 55.8725C88.266 56.1208 87.9112 56.4874 87.5918 56.9722C87.3789 57.2915 87.1424 57.7171 86.894 58.2492C86.7521 58.5685 86.5156 59.1124 86.2081 59.881C86.0188 60.354 85.8414 60.7206 85.6759 60.9689C85.4866 61.3 85.2264 61.6429 84.8835 61.974C84.3986 62.4588 83.8427 62.8372 83.2159 63.1091C82.8019 63.2747 82.4235 63.3811 82.0923 63.4166L81.6902 63.4402L82.045 63.1564L82.8847 62.3405C83.2395 61.9621 83.5352 61.5719 83.7599 61.1817C83.9137 60.9216 84.0319 60.6969 84.1029 60.5077L84.4222 59.68C84.6942 58.9824 85.0845 58.3202 85.5931 57.6698C86.0662 57.0786 86.5629 56.6293 87.0833 56.31C87.509 56.0499 87.8993 55.8962 88.2541 55.8489C88.4315 55.8252 88.5616 55.837 88.6444 55.8489V55.8725Z" fill="#EE7203"/>
<path d="M93.2096 63.4165H92.0861V57.0313H91.2463V63.4165H90.111V56.8539C90.111 56.5228 90.1937 56.2745 90.3475 56.0853C90.5012 55.8961 90.7378 55.8134 91.0216 55.8134H91.9796C92.1925 55.8134 92.3462 55.8725 92.4645 56.0025C92.5828 56.1326 92.6419 56.31 92.6419 56.5465C92.6419 56.31 92.7011 56.1326 92.8075 56.0025C92.9258 55.8725 93.0795 55.8134 93.2806 55.8134H94.2386C94.5342 55.8134 94.7589 55.908 94.9245 56.0853C95.0901 56.2627 95.1729 56.5228 95.1729 56.8539V63.4165H94.0257V57.0313H93.1978V63.4165H93.2096Z" fill="#2E2D2C"/>
<path d="M96.0126 55.8134H97.148V59.0887L97.9759 58.6158V55.8134H99.1231V62.3168C99.1231 62.6834 99.0403 62.9672 98.8865 63.1446C98.7328 63.3219 98.4844 63.4165 98.1651 63.4165H96.9233C96.6276 63.4165 96.4029 63.3219 96.2491 63.1446C96.0954 62.9672 96.0126 62.7071 96.0126 62.376V62.104L97.148 61.4536V62.2104H97.9759V59.9756L96.0126 61.0989V55.8134Z" fill="#2E2D2C"/>
<path d="M103.085 55.8134V63.4165H101.962V59.8928L101.098 60.3776V63.4165H99.9746V55.8134H101.098V59.006L101.962 58.533V55.8134H103.085Z" fill="#EE7203"/>
<path d="M106.68 63.4165H103.925V55.8134H106.68V57.0313H105.072V58.9941L106.68 58.1073V59.4671L105.072 60.3658V62.2104H106.68V63.4283V63.4165Z" fill="#EE7203"/>
<path d="M110.501 63.4165H109.365V60.2003L108.525 60.6732V63.4165H107.39V56.8539C107.39 56.5228 107.473 56.2745 107.627 56.0853C107.78 55.8961 108.017 55.8134 108.301 55.8134H109.578C109.874 55.8134 110.098 55.908 110.264 56.0853C110.43 56.2627 110.512 56.5228 110.512 56.8539V63.4165H110.501ZM109.365 58.8641V57.0195H108.525V59.3134L109.365 58.8641Z" fill="#EE7203"/>
<path d="M112.121 63.4165V57.0313H110.997V55.8134H114.38V57.0313H113.256V63.4165H112.121Z" fill="#EE7203"/>
<path d="M23.2534 77.7952V72.687H23.7856V77.7952H23.2534ZM23.6437 77.7952V77.3222H24.779C24.9446 77.3222 25.0747 77.2749 25.1575 77.1685C25.2403 77.0621 25.2876 76.9202 25.2876 76.731V75.8205C25.2876 75.6313 25.2403 75.4776 25.1575 75.3712C25.0747 75.2648 24.9446 75.2175 24.779 75.2175H23.6437V74.7445H24.7554C24.9801 74.7445 25.1693 74.7918 25.3349 74.8746C25.5005 74.9573 25.6188 75.0756 25.7015 75.2411C25.7843 75.4067 25.8316 75.5959 25.8316 75.8205V76.7428C25.8316 76.9675 25.7843 77.1567 25.7015 77.3104C25.6188 77.4641 25.5005 77.5824 25.3349 77.6651C25.1693 77.7479 24.9801 77.7834 24.7554 77.7834H23.6437V77.7952ZM23.7264 73.16V72.687H25.5123V73.16H23.7264Z" fill="#3C3C3B"/>
<path d="M26.2456 77.8188V77.3458C26.352 77.3458 26.4348 77.3103 26.4821 77.2512C26.5294 77.1921 26.5649 77.0857 26.5649 76.9674V74.1414H27.0971V76.9911C27.0971 77.2512 27.0262 77.4522 26.8961 77.6059C26.766 77.7597 26.5649 77.8188 26.3166 77.8188H26.2456ZM27.038 74.6143V74.1414H28.3035V74.6143H27.038ZM28.1261 77.7951V74.1532H28.6583V77.7951H28.1261Z" fill="#3C3C3B"/>
<path d="M30.4796 77.8425C30.1366 77.8425 29.8646 77.7479 29.6754 77.5705C29.4862 77.3932 29.3915 77.1212 29.3915 76.7901V75.1347C29.3915 74.8036 29.4862 74.5434 29.6754 74.3661C29.8646 74.1887 30.1366 74.0941 30.4796 74.0941C30.8226 74.0941 31.0946 74.1887 31.2838 74.3661C31.4731 74.5434 31.5677 74.8036 31.5677 75.1347V76.8019C31.5677 77.133 31.4731 77.3932 31.2838 77.5705C31.0946 77.7479 30.8226 77.8425 30.4796 77.8425ZM30.4796 77.3695C30.657 77.3695 30.7989 77.3222 30.8936 77.2158C30.9882 77.1094 31.0473 76.9675 31.0473 76.7901V75.1228C31.0473 74.9455 31 74.8036 30.8936 74.6972C30.7871 74.5907 30.657 74.5434 30.4796 74.5434C30.3022 74.5434 30.1603 74.5907 30.0657 74.6972C29.9711 74.8036 29.9238 74.9337 29.9238 75.1228V76.7901C29.9238 76.9793 29.9711 77.1212 30.0657 77.2158C30.1603 77.3104 30.3022 77.3695 30.4796 77.3695Z" fill="#3C3C3B"/>
<path d="M32.301 77.7951V74.1532H32.8332V77.7951H32.301ZM32.6676 76.2106V75.7613H33.9449V76.2106H32.6676ZM34.2406 77.7951L33.4482 76.1042L33.8858 75.7968L34.8201 77.7833H34.2406V77.7951ZM33.8739 76.2106L33.4718 75.8677L34.1341 74.1414H34.69L33.8739 76.1988V76.2106Z" fill="#3C3C3B"/>
<path d="M18.7355 85.0318L19.93 81.3071H20.4504V86.4153H19.9418V82.3122L19.9773 82.5369L18.9602 85.7058H18.5108L17.4937 82.6078L17.5291 82.3122V86.4153H17.0206V81.3071H17.541L18.7355 85.0318Z" fill="#3C3C3B"/>
<path d="M22.189 86.6636L20.9708 82.7733H21.5148L22.39 85.8832L22.2008 86.6636H22.189ZM23.0168 82.7733H23.5609L22.3072 87.2666C22.2481 87.4913 22.1298 87.6568 21.9524 87.7633C21.775 87.8697 21.5266 87.9288 21.2191 87.9288H21.1837V87.4558H21.2191C21.432 87.4558 21.5858 87.4085 21.704 87.3139C21.8223 87.2193 21.8933 87.0774 21.9524 86.8882L23.0287 82.7733H23.0168Z" fill="#3C3C3B"/>
<path d="M23.9985 86.4153V81.3071H24.5307V86.4153H23.9985ZM24.4716 84.145V83.672H26.1037V84.145H24.4716ZM25.9263 86.4153V81.3071H26.4585V86.4153H25.9263Z" fill="#3C3C3B"/>
<path d="M28.3153 86.4743C27.9487 86.4743 27.6648 86.3679 27.4638 86.1551C27.2627 85.9422 27.1563 85.6466 27.1563 85.2564V83.9912C27.1563 83.5773 27.2509 83.2699 27.4519 83.0452C27.653 82.8205 27.925 82.7141 28.2798 82.7141C28.6346 82.7141 28.9185 82.8205 29.1195 83.0216C29.3206 83.2344 29.4152 83.5182 29.4152 83.8966V84.8071H27.4756V84.3341H28.8948V83.9084C28.8948 83.6719 28.8357 83.4945 28.7292 83.3645C28.6228 83.2344 28.4691 83.1753 28.2798 83.1753C28.0906 83.1753 27.9368 83.2462 27.8422 83.3763C27.7358 83.5064 27.6885 83.7074 27.6885 83.9557V85.2682C27.6885 85.4929 27.7476 85.6821 27.8541 85.8003C27.9605 85.9186 28.1142 85.9895 28.3153 85.9895C28.5045 85.9895 28.6465 85.9422 28.7529 85.8358C28.8593 85.7294 28.9066 85.5875 28.9066 85.4101V85.3865H29.4389V85.4101C29.4389 85.7412 29.3442 86.0013 29.1432 86.1787C28.954 86.3679 28.6701 86.4507 28.3153 86.4507V86.4743Z" fill="#3C3C3B"/>
<path d="M31.1065 86.4744C30.7753 86.4744 30.5269 86.3916 30.3614 86.2143C30.1958 86.0369 30.113 85.7886 30.113 85.4457C30.113 85.0318 30.2076 84.7362 30.4087 84.5234C30.5979 84.3223 30.8936 84.2159 31.2839 84.2159H31.958L32.0053 84.5825H31.2839C31.0591 84.5825 30.8817 84.6534 30.7635 84.7953C30.6452 84.9372 30.5861 85.1501 30.5861 85.4339C30.5861 85.6467 30.6334 85.8122 30.7398 85.9187C30.8463 86.0251 31 86.0842 31.2129 86.0842C31.4494 86.0842 31.6268 86.0251 31.7451 85.9068C31.8634 85.7886 31.9225 85.6112 31.9225 85.3747L32.0053 85.6822C32.0053 85.8595 31.9698 86.0014 31.8989 86.1197C31.8279 86.2379 31.7333 86.3207 31.6032 86.3798C31.4731 86.4389 31.3075 86.4626 31.1065 86.4626V86.4744ZM31.9225 86.4153V83.7429C31.9225 83.5419 31.8634 83.4 31.7569 83.2818C31.6387 83.1754 31.4849 83.1162 31.272 83.1162C31.0828 83.1162 30.9409 83.1754 30.8463 83.2818C30.7398 83.3882 30.6925 83.5419 30.6925 83.7429H30.184C30.184 83.4119 30.2786 83.1517 30.4678 82.9744C30.657 82.797 30.929 82.7024 31.2839 82.7024C31.6387 82.7024 31.9107 82.797 32.1117 82.9744C32.3128 83.1517 32.4074 83.4119 32.4074 83.7429V86.4153H31.9225Z" fill="#3C3C3B"/>
<path d="M32.9278 83.2463V82.7733H34.5717V83.2463H32.9278ZM34.2051 86.4389C33.8976 86.4389 33.6611 86.3561 33.531 86.1906C33.4009 86.0251 33.3181 85.7886 33.3181 85.4693V81.7091H33.8503V85.4693C33.8503 85.623 33.8858 85.7413 33.9567 85.824C34.0277 85.9068 34.1341 85.9541 34.2879 85.9541H34.5717V86.4271H34.2169L34.2051 86.4389Z" fill="#3C3C3B"/>
<path d="M45.0149 86.4154V73.6567H46.6707L50.0532 82.8089L49.793 83.0927V73.6567H51.6616V86.4154H49.9822L46.6234 77.6653L46.8836 77.3815V86.4272H45.0031L45.0149 86.4154Z" fill="#3C3C3B"/>
<path d="M53.1991 75.4895V73.6567H59.7749V75.4895H53.1991ZM55.4817 86.4154V74.7091H57.4805V86.4154H55.4817Z" fill="#3C3C3B"/>
<path d="M63.7251 86.5454C63.0628 86.5454 62.5069 86.4153 62.0338 86.167C61.5608 85.9069 61.206 85.5403 60.9576 85.0555C60.7092 84.5707 60.5791 83.9795 60.5791 83.2937V76.7902C60.5791 76.0925 60.7092 75.5013 60.9576 75.0165C61.206 74.5317 61.5726 74.1651 62.0338 73.905C62.5069 73.6448 63.0628 73.5148 63.7251 73.5148C64.3874 73.5148 64.9669 73.6448 65.4282 73.905C65.8894 74.1651 66.2561 74.5317 66.5044 75.0165C66.7528 75.5013 66.8711 76.0925 66.8711 76.7783V77.5588H64.8368V76.7783C64.8368 76.4946 64.7895 76.2462 64.7067 76.0452C64.6239 75.8442 64.4938 75.6905 64.3283 75.5841C64.1627 75.4776 63.9616 75.4185 63.7133 75.4185C63.3585 75.4185 63.0864 75.5368 62.8854 75.7733C62.6962 76.0097 62.5897 76.3408 62.5897 76.7783V83.2818C62.5897 83.7075 62.6843 84.0386 62.8854 84.2751C63.0864 84.5116 63.3585 84.6298 63.7133 84.6298C64.0681 84.6298 64.3519 84.5116 64.5412 84.2751C64.7304 84.0386 64.825 83.7075 64.825 83.2818V82.5014H66.8592V83.2818C66.8592 83.9795 66.7291 84.5707 66.4808 85.0555C66.2324 85.5403 65.8776 85.9069 65.4163 86.167C64.9551 86.4272 64.3756 86.5572 63.7133 86.5572L63.7251 86.5454Z" fill="#3C3C3B"/>
<path d="M68.5032 80.9287H73.3049V82.7497H68.5032V80.9287Z" fill="#3C3C3B"/>
<path d="M78.1658 73.6567V86.4154H76.1552V75.7615L74.2984 76.7429V74.6973L76.0606 73.6567H78.1658Z" fill="#3C3C3B"/>
<path d="M81.5601 86.4153L79.4194 77.2986H81.3827L82.3407 83.672L83.5943 77.2986H85.0964L86.35 83.672L87.308 77.2986H89.2713L87.1306 86.4153H85.5576L84.3513 80.2429L83.1686 86.4153H81.5719H81.5601Z" fill="#3C3C3B"/>
<path d="M90.5367 75.6314V73.7158H92.5355V75.6314H90.5367ZM90.5367 86.4154V77.2987H92.5355V86.4154H90.5367Z" fill="#3C3C3B"/>
<path d="M94.345 86.4153V77.2986H96.3556V86.4153H94.345ZM98.8038 79.1196C98.8038 79.1196 98.6855 79.1196 98.6145 79.1196H98.3543C97.7275 79.1196 97.2426 79.2851 96.8996 79.6044C96.5566 79.9237 96.3792 80.3612 96.3674 80.9169L96.1782 78.8831C96.462 78.3392 96.8405 77.9135 97.2899 77.6061C97.7512 77.2986 98.2597 77.1449 98.8038 77.1449V79.1196Z" fill="#3C3C3B"/>
<path d="M102.789 86.5454C101.855 86.5454 101.134 86.2971 100.613 85.7886C100.093 85.2802 99.8327 84.5589 99.8327 83.6366V80.2311C99.8327 79.2497 100.081 78.4929 100.59 77.949C101.098 77.405 101.808 77.1449 102.718 77.1449C103.629 77.1449 104.362 77.405 104.871 77.9135C105.38 78.4219 105.628 79.1432 105.628 80.0774V82.5724H101.358V81.0825H103.688V80.0537C103.688 79.6753 103.605 79.3916 103.428 79.1787C103.263 78.9659 103.014 78.8713 102.707 78.8713C102.399 78.8713 102.174 78.9777 102.009 79.2024C101.843 79.427 101.76 79.7345 101.76 80.1365V83.6957C101.76 84.0504 101.843 84.3224 102.021 84.5116C102.198 84.7008 102.446 84.7954 102.778 84.7954C103.073 84.7954 103.31 84.7244 103.475 84.5707C103.641 84.417 103.724 84.216 103.724 83.944V83.7548H105.64V83.9204C105.64 84.7481 105.391 85.3984 104.895 85.8596C104.398 86.3207 103.688 86.5454 102.778 86.5454H102.789Z" fill="#3C3C3B"/>
<path d="M40.6508 72.2732H39.1606V87.7278H40.6508V72.2732Z" fill="#EE7203"/>
</svg>
