<svg width="18" height="83" viewBox="0 0 18 83" fill="none" xmlns="http://www.w3.org/2000/svg">
<path d="M8.61795 0.0499878C13.827 0.110324 16.3747 4.15657 16.9998 6.18768V10.9103H0.236115V6.18768C0.861165 4.1566 3.40893 0.110371 8.61795 0.0499878Z" fill="url(#paint0_linear_182_4577)"/>
<path d="M8.61795 0.0499878L8.61853 -2.2281e-05L8.61737 -8.84756e-06L8.61795 0.0499878ZM16.9998 6.18768H17.0498V6.18016L17.0476 6.17298L16.9998 6.18768ZM16.9998 10.9103V10.9603H17.0498V10.9103H16.9998ZM0.236115 10.9103H0.186115V10.9603H0.236115V10.9103ZM0.236115 6.18768L0.188326 6.17298L0.186115 6.18016V6.18768H0.236115ZM8.61795 0.0499878L8.61737 0.0999844C13.7964 0.159973 16.3305 4.18291 16.952 6.20239L16.9998 6.18768L17.0476 6.17298C16.4189 4.13024 13.8575 0.0606741 8.61853 -8.85502e-06L8.61795 0.0499878ZM16.9998 6.18768H16.9498V10.9103H16.9998H17.0498V6.18768H16.9998ZM16.9998 10.9103V10.8603H0.236115V10.9103V10.9603H16.9998V10.9103ZM0.236115 10.9103H0.286115V6.18768H0.236115H0.186115V10.9103H0.236115ZM0.236115 6.18768L0.283903 6.20239C0.905375 4.18294 3.43949 0.16002 8.61853 0.0999844L8.61795 0.0499878L8.61737 -8.84756e-06C3.37837 0.0607218 0.816955 4.13027 0.188326 6.17298L0.236115 6.18768Z" fill="#B4B4B4"/>
<path d="M1.35001 18.0998H16.35C16.8747 18.0998 17.3002 18.5253 17.3002 19.05V80.05C17.3002 80.5747 16.8747 81.0002 16.35 81.0002H1.35001C0.825336 81.0002 0.399811 80.5747 0.399811 80.05V19.05C0.399811 18.5253 0.825336 18.0998 1.35001 18.0998Z" fill="url(#paint1_linear_182_4577)" stroke="#B4B4B4" stroke-width="0.1"/>
<rect x="1.70001" y="81.05" width="14.3" height="1" fill="#FDCC67"/>
<rect x="1.75001" y="81.1" width="14.2" height="0.9" stroke="black" stroke-opacity="0.2" stroke-width="0.1"/>
<path d="M1 12.3766H16C16.5247 12.3766 16.9502 12.8022 16.9502 13.3268V16.0495C16.95 16.574 16.5245 16.9987 16 16.9987H1C0.475474 16.9987 0.0500391 16.574 0.0498047 16.0495V13.3268C0.0498047 12.8022 0.475329 12.3766 1 12.3766Z" fill="url(#paint2_linear_182_4577)" stroke="#B4B4B4" stroke-width="0.1"/>
<g filter="url(#filter0_i_182_4577)">
<rect x="0.944458" y="10.9291" width="15.1111" height="1.41667" fill="url(#paint3_linear_182_4577)"/>
</g>
<g filter="url(#filter1_i_182_4577)">
<rect x="0.944458" y="17.049" width="15.1111" height="1.41667" fill="url(#paint4_linear_182_4577)"/>
</g>
<defs>
<filter id="filter0_i_182_4577" x="0.944458" y="10.9291" width="15.1111" height="2.41669" filterUnits="userSpaceOnUse" color-interpolation-filters="sRGB">
<feFlood flood-opacity="0" result="BackgroundImageFix"/>
<feBlend mode="normal" in="SourceGraphic" in2="BackgroundImageFix" result="shape"/>
<feColorMatrix in="SourceAlpha" type="matrix" values="0 0 0 0 0 0 0 0 0 0 0 0 0 0 0 0 0 0 127 0" result="hardAlpha"/>
<feOffset dy="1"/>
<feGaussianBlur stdDeviation="0.5"/>
<feComposite in2="hardAlpha" operator="arithmetic" k2="-1" k3="1"/>
<feColorMatrix type="matrix" values="0 0 0 0 0 0 0 0 0 0 0 0 0 0 0 0 0 0 0.25 0"/>
<feBlend mode="normal" in2="shape" result="effect1_innerShadow_182_4577"/>
</filter>
<filter id="filter1_i_182_4577" x="0.944458" y="17.049" width="15.1111" height="2.41669" filterUnits="userSpaceOnUse" color-interpolation-filters="sRGB">
<feFlood flood-opacity="0" result="BackgroundImageFix"/>
<feBlend mode="normal" in="SourceGraphic" in2="BackgroundImageFix" result="shape"/>
<feColorMatrix in="SourceAlpha" type="matrix" values="0 0 0 0 0 0 0 0 0 0 0 0 0 0 0 0 0 0 127 0" result="hardAlpha"/>
<feOffset dy="1"/>
<feGaussianBlur stdDeviation="0.5"/>
<feComposite in2="hardAlpha" operator="arithmetic" k2="-1" k3="1"/>
<feColorMatrix type="matrix" values="0 0 0 0 0 0 0 0 0 0 0 0 0 0 0 0 0 0 0.25 0"/>
<feBlend mode="normal" in2="shape" result="effect1_innerShadow_182_4577"/>
</filter>
<linearGradient id="paint0_linear_182_4577" x1="1.61395" y1="10.2316" x2="14.3791" y2="2.82815" gradientUnits="userSpaceOnUse">
<stop stop-color="#B3B3B3"/>
<stop offset="1" stop-color="#FDFCFD"/>
</linearGradient>
<linearGradient id="paint1_linear_182_4577" x1="1.76667" y1="46.2091" x2="16.8778" y2="46.2091" gradientUnits="userSpaceOnUse">
<stop stop-color="#BBBBBB"/>
<stop offset="1" stop-color="#FBFBFB"/>
</linearGradient>
<linearGradient id="paint2_linear_182_4577" x1="0" y1="14.688" x2="17" y2="14.688" gradientUnits="userSpaceOnUse">
<stop stop-color="#C2C1C2"/>
<stop offset="1" stop-color="#FAF9FA"/>
</linearGradient>
<linearGradient id="paint3_linear_182_4577" x1="0.944458" y1="11.6374" x2="16.0556" y2="11.6374" gradientUnits="userSpaceOnUse">
<stop stop-color="#D9D9D9"/>
<stop offset="1" stop-color="#FAFAFA"/>
</linearGradient>
<linearGradient id="paint4_linear_182_4577" x1="0.944458" y1="17.7573" x2="16.0556" y2="17.7573" gradientUnits="userSpaceOnUse">
<stop stop-color="#D9D9D9"/>
<stop offset="1" stop-color="#FAFAFA"/>
</linearGradient>
</defs>
</svg>
