<svg width="27" height="47" viewBox="0 0 27 47" fill="none" xmlns="http://www.w3.org/2000/svg">
<path d="M0.904419 9.45558H1.36008V8.41406H0.904419V9.45558Z" stroke="#1D1D1B" stroke-width="0.5" stroke-miterlimit="10" stroke-linecap="square"/>
<path d="M0.904419 11.6796H1.36008V10.6381H0.904419V11.6796Z" stroke="#1D1D1B" stroke-width="0.5" stroke-miterlimit="10" stroke-linecap="square"/>
<path d="M0.904419 35.9653H1.36008V34.9238H0.904419V35.9653Z" stroke="#1D1D1B" stroke-width="0.5" stroke-miterlimit="10" stroke-linecap="square"/>
<path d="M0.904419 38.1841H1.36008V37.1425H0.904419V38.1841Z" stroke="#1D1D1B" stroke-width="0.5" stroke-miterlimit="10" stroke-linecap="square"/>
<path d="M2.27148 34.875L3.39979 36.0033" stroke="#1D1D1B" stroke-width="0.5" stroke-miterlimit="10" stroke-linecap="square"/>
<path d="M5.01627 34.3325H0.356567" stroke="#1D1D1B" stroke-width="0.5" stroke-miterlimit="10" stroke-linecap="square"/>
<path d="M0.351074 34.3324V38.7751" stroke="#1D1D1B" stroke-width="0.5" stroke-miterlimit="10" stroke-linecap="square"/>
<path d="M0.904419 35.9653H1.36008V34.9238H0.904419V35.9653Z" stroke="#1D1D1B" stroke-width="0.5" stroke-miterlimit="10" stroke-linecap="square"/>
<path d="M2.27148 34.875L3.39979 36.0033" stroke="#1D1D1B" stroke-width="0.5" stroke-miterlimit="10" stroke-linecap="square"/>
<path d="M6.79549 46.3805H24.5717C25.5544 46.3805 26.351 45.5839 26.351 44.6012V2.02926C26.351 1.0466 25.5544 0.250002 24.5717 0.250002L6.7955 0.25C5.81284 0.25 5.01624 1.0466 5.01624 2.02926V44.6012C5.01624 45.5839 5.81284 46.3805 6.79549 46.3805Z" fill="#C7C8CB" stroke="#1D1D1B" stroke-width="0.5" stroke-miterlimit="10"/>
<path d="M6.19336 42.4802H25.1847V4.14479L6.19336 4.14478V42.4802Z" fill="#EBECED" stroke="#1D1D1B" stroke-width="0.5" stroke-miterlimit="10" stroke-linecap="square"/>
<path d="M15.7569 17.3534V16.5343H20.0369V15.9159H15.7569V15.0805H20.1617C20.2543 15.0748 20.3472 15.0876 20.4348 15.1184C20.5223 15.1491 20.6029 15.1971 20.6716 15.2595C20.7346 15.3258 20.7835 15.4042 20.8152 15.4901C20.8469 15.5759 20.8608 15.6672 20.856 15.7586V16.4638C20.8619 16.5299 20.8532 16.5964 20.8304 16.6587C20.8076 16.721 20.7713 16.7775 20.7242 16.8242C20.677 16.8708 20.6201 16.9065 20.5576 16.9286C20.495 16.9507 20.4284 16.9587 20.3624 16.952C20.4291 16.947 20.4961 16.9555 20.5595 16.9769C20.6229 16.9984 20.6813 17.0323 20.7312 17.0768C20.774 17.1235 20.8071 17.1782 20.8285 17.2378C20.8499 17.2974 20.8593 17.3607 20.856 17.4239V18.1346C20.8612 18.2255 20.8481 18.3166 20.8173 18.4023C20.7866 18.4881 20.7388 18.5667 20.677 18.6336C20.6045 18.7006 20.5188 18.7516 20.4253 18.7834C20.3319 18.8152 20.2328 18.827 20.1345 18.8181H15.7352V17.9718H20.0369V17.3643H15.7569V17.3534Z" fill="#989898"/>
<path d="M20.856 19.4148V20.2502H18.6862L19.0008 20.8577H20.856V21.7039H16.5164C16.3199 21.7186 16.1254 21.6564 15.9739 21.5304C15.9079 21.4574 15.8578 21.3715 15.827 21.2781C15.7962 21.1846 15.7852 21.0858 15.7949 20.9879V20.0711C15.7895 19.981 15.8026 19.8907 15.8333 19.8058C15.8641 19.7209 15.912 19.6432 15.9739 19.5775C16.0466 19.5112 16.1326 19.461 16.226 19.4301C16.3195 19.3993 16.4184 19.3885 16.5164 19.3985H16.6954L17.1293 20.2339H16.6194V20.8523H18.0624L17.3029 19.4093H20.856V19.4148Z" fill="#989898"/>
<path d="M20.8561 24.6062H15.757V23.7762H18.1113L17.7858 23.1416H15.7462V22.3116H20.8453V23.1416H18.708L19.0226 23.7762H20.8561V24.6062Z" fill="#989898"/>
<path d="M15.757 27.2424V25.2191H20.8561V27.2424H20.037V26.0545H18.7188L19.3155 27.2424H18.4042L17.8021 26.0545H16.5707V27.2424H15.757Z" fill="#989898"/>
<path d="M15.7568 30.0472V29.2119H17.9266L17.612 28.5935H15.7677V27.7581H20.1615C20.2538 27.7482 20.347 27.7588 20.4346 27.7891C20.5223 27.8194 20.6021 27.8687 20.6685 27.9335C20.7348 27.9983 20.786 28.077 20.8184 28.1639C20.8508 28.2508 20.8636 28.3437 20.8559 28.4362V29.3692C20.8604 29.4605 20.8464 29.5518 20.8147 29.6376C20.783 29.7233 20.7343 29.8018 20.6715 29.8682C20.6027 29.9306 20.5222 29.9786 20.4346 30.0094C20.3471 30.0401 20.2542 30.053 20.1615 30.0472H15.7568ZM18.8108 29.2119H20.0422V28.5935H18.5071L18.8108 29.2119Z" fill="#989898"/>
<path d="M15.757 31.2296H20.037V30.405H20.8561V32.8949H20.037V32.0704H15.757V31.2296Z" fill="#989898"/>
<path d="M13.0175 10.7193C12.9469 10.8277 12.9075 10.9534 12.9036 11.0827C12.9036 11.2834 13.0067 11.3756 13.1314 11.3756C13.2562 11.3756 13.3321 11.2997 13.4027 11.0936C13.4732 10.8874 13.6522 10.6921 13.8312 10.6921C13.8974 10.6942 13.9624 10.7105 14.0217 10.74C14.0811 10.7694 14.1334 10.8113 14.1751 10.8628C14.2168 10.9143 14.2469 10.9741 14.2634 11.0383C14.2798 11.1024 14.2823 11.1694 14.2706 11.2346C14.2721 11.3634 14.2403 11.4905 14.1784 11.6035L13.9777 11.5384C14.038 11.4486 14.0701 11.3428 14.0699 11.2346C14.0699 11.0719 13.9722 10.9796 13.8637 10.9796C13.7552 10.9796 13.6793 11.0664 13.6088 11.2617C13.5383 11.457 13.3755 11.6577 13.1531 11.6577C12.9307 11.6577 12.7029 11.457 12.7029 11.1153C12.6995 10.9676 12.735 10.8217 12.806 10.6921L13.0121 10.7572L13.0175 10.7193Z" fill="black"/>
<path d="M13.8367 11.9886C13.994 11.9886 14.1242 11.9886 14.249 11.9886V12.2273H13.9994C14.0832 12.2744 14.153 12.3429 14.2016 12.4258C14.2502 12.5087 14.2759 12.6031 14.2761 12.6992C14.2775 12.7936 14.2488 12.8861 14.1942 12.9631C14.1396 13.0402 14.0619 13.0978 13.9723 13.1278C14.052 13.1666 14.1209 13.2243 14.173 13.2959C14.2438 13.3935 14.2801 13.5118 14.2761 13.6322C14.2761 13.8275 14.1459 14.1259 13.6252 14.1259H12.7301V13.8709H13.5872C13.8747 13.8709 14.0483 13.7679 14.0483 13.5454C14.045 13.4722 14.0194 13.4017 13.9747 13.3434C13.9301 13.2852 13.8687 13.2421 13.7987 13.22C13.754 13.2108 13.7079 13.2108 13.6631 13.22H12.7301V12.9487H13.636C13.8747 12.9487 14.0483 12.8457 14.0483 12.6341C14.045 12.5564 14.0169 12.4818 13.9681 12.4213C13.9192 12.3607 13.8523 12.3175 13.777 12.2978C13.7324 12.2874 13.686 12.2874 13.6414 12.2978H12.7301V12.0266H13.815L13.8367 11.9886Z" fill="black"/>
<path d="M12.7353 15.4279H12.9306C12.8529 15.3768 12.7896 15.3065 12.7468 15.2239C12.7041 15.1412 12.6833 15.049 12.6865 14.956C12.6812 14.8966 12.6884 14.8367 12.7076 14.7803C12.7267 14.7238 12.7574 14.672 12.7978 14.6281C12.8381 14.5842 12.8872 14.5492 12.9418 14.5253C12.9964 14.5014 13.0554 14.4892 13.1151 14.4894C13.4785 14.4894 13.6575 14.8149 13.6575 15.4008C13.7041 15.4068 13.7514 15.4022 13.7959 15.3873C13.8404 15.3723 13.8809 15.3475 13.9144 15.3145C13.9479 15.2816 13.9734 15.2415 13.989 15.1972C14.0047 15.1529 14.01 15.1057 14.0047 15.059C14.0037 14.9198 13.9663 14.7833 13.8962 14.663L14.0752 14.6034C14.165 14.7523 14.212 14.9231 14.2108 15.097C14.2108 15.5581 13.8962 15.672 13.5924 15.672H13.05C12.9291 15.6602 12.8074 15.6602 12.6865 15.672L12.7353 15.4279ZM13.5056 15.3845C13.5056 15.0861 13.4622 14.7444 13.1693 14.7444C13.1341 14.7412 13.0985 14.7456 13.0652 14.7575C13.0318 14.7694 13.0015 14.7883 12.9762 14.8131C12.9509 14.8379 12.9313 14.8678 12.9187 14.9009C12.9062 14.934 12.901 14.9695 12.9035 15.0048C12.9017 15.0846 12.9254 15.163 12.9713 15.2284C13.0172 15.2938 13.0827 15.3428 13.1585 15.3682C13.1889 15.3738 13.2202 15.3738 13.2507 15.3682H13.5056V15.3845Z" fill="black"/>
<path d="M13.7716 16.095C13.9452 16.095 14.0971 16.095 14.2435 16.095V16.3336H13.9452C14.037 16.3592 14.1182 16.4136 14.1768 16.4888C14.2354 16.564 14.2683 16.656 14.2707 16.7513C14.2738 16.7765 14.2738 16.8021 14.2707 16.8273H14.0103C14.0133 16.7966 14.0133 16.7657 14.0103 16.7351C14.0055 16.6415 13.9673 16.5528 13.9025 16.4851C13.8378 16.4174 13.7509 16.3752 13.6577 16.3662C13.6143 16.3629 13.5708 16.3629 13.5275 16.3662H12.7192V16.095H13.7716Z" fill="black"/>
<path d="M14.6774 17.5217H14.2489V17.9122H14.0373V17.5217H13.229C13.0392 17.5217 12.9361 17.5759 12.9361 17.7224C12.9287 17.7764 12.9287 17.8311 12.9361 17.8851H12.73C12.7036 17.8157 12.689 17.7424 12.6866 17.6681C12.6831 17.6131 12.6915 17.5581 12.7112 17.5066C12.7308 17.4551 12.7613 17.4085 12.8005 17.3698C12.9126 17.2864 13.0525 17.2495 13.1911 17.2667H14.0373V17.028H14.2489V17.2667H14.6069L14.6774 17.5325V17.5217Z" fill="black"/>
<path d="M12.7355 18.8669C12.8385 18.8669 12.9904 18.8669 13.1315 18.8669H14.9541V19.1381H14.0048C14.0999 19.1905 14.1771 19.2701 14.2265 19.3669C14.2758 19.4636 14.2949 19.5728 14.2815 19.6806C14.2815 20.0549 13.9723 20.3207 13.5112 20.3152C13.4115 20.3315 13.3095 20.3263 13.2119 20.3C13.1144 20.2737 13.0236 20.2269 12.9455 20.1627C12.8675 20.0986 12.8041 20.0185 12.7594 19.9279C12.7148 19.8372 12.69 19.7381 12.6867 19.6372C12.6813 19.535 12.705 19.4335 12.7549 19.3442C12.8048 19.255 12.8789 19.1816 12.9687 19.1327H12.7192V18.894L12.7355 18.8669ZM13.343 19.1544H13.2454C13.1541 19.1783 13.0732 19.2316 13.0154 19.3062C12.9575 19.3807 12.9259 19.4723 12.9253 19.5666C12.9253 19.8487 13.1586 20.0223 13.5003 20.0223C13.8421 20.0223 14.0428 19.8704 14.0428 19.5775C14.041 19.4798 14.0071 19.3855 13.9463 19.309C13.8855 19.2325 13.8012 19.1782 13.7065 19.1544C13.6739 19.1544 13.636 19.1544 13.5926 19.1544H13.3213H13.343Z" fill="black"/>
<path d="M13.5002 22.008C13.3967 22.0188 13.2921 22.0075 13.1932 21.9749C13.0944 21.9423 13.0036 21.8891 12.9267 21.819C12.8499 21.7488 12.7887 21.6631 12.7473 21.5676C12.7059 21.4721 12.6852 21.3689 12.6865 21.2649C12.6846 21.1649 12.7038 21.0657 12.7428 20.9736C12.7818 20.8815 12.8399 20.7988 12.9131 20.7307C12.9863 20.6626 13.073 20.6107 13.1677 20.5784C13.2623 20.5462 13.3627 20.5342 13.4623 20.5434C13.565 20.5351 13.6683 20.5483 13.7655 20.5823C13.8628 20.6163 13.9519 20.6703 14.027 20.7409C14.1021 20.8114 14.1616 20.8969 14.2017 20.9918C14.2418 21.0867 14.2615 21.189 14.2597 21.292C14.2591 21.3896 14.2387 21.486 14.1998 21.5755C14.1608 21.6649 14.1041 21.7456 14.0332 21.8125C13.9622 21.8794 13.8783 21.9313 13.7867 21.9649C13.6951 21.9985 13.5977 22.0132 13.5002 22.008ZM13.5002 20.8092C13.1693 20.8092 12.9198 20.9991 12.9198 21.2649C12.9198 21.5307 13.1693 21.726 13.5111 21.726C13.766 21.726 14.0915 21.5958 14.0915 21.2703C14.0915 20.9448 13.7715 20.8201 13.484 20.8201L13.5002 20.8092Z" fill="black"/>
<path d="M14.6718 22.6696C14.6486 22.6712 14.6253 22.6678 14.6035 22.6597C14.5817 22.6515 14.562 22.6388 14.5455 22.6223C14.5291 22.6059 14.5163 22.5861 14.5082 22.5643C14.5 22.5425 14.4966 22.5192 14.4982 22.496C14.4982 22.4737 14.5027 22.4516 14.5116 22.4311C14.5204 22.4107 14.5334 22.3922 14.5497 22.377C14.5659 22.3617 14.5852 22.3499 14.6062 22.3424C14.6272 22.3349 14.6496 22.3318 14.6718 22.3333C14.7179 22.3333 14.762 22.3516 14.7946 22.3841C14.8271 22.4167 14.8454 22.4608 14.8454 22.5069C14.8462 22.5297 14.8422 22.5523 14.8337 22.5735C14.8252 22.5946 14.8124 22.6137 14.796 22.6296C14.7796 22.6454 14.7601 22.6577 14.7387 22.6655C14.7173 22.6733 14.6945 22.6766 14.6718 22.675V22.6696ZM12.7352 22.3658H14.2487V22.6425H12.7352V22.3658Z" fill="black"/>
<path d="M14.9488 23.0929V23.3695H12.7355V23.0929H14.9488Z" fill="black"/>
<path d="M13.4407 23.9825C13.3673 23.9737 13.293 23.9818 13.2232 24.006C13.1534 24.0301 13.09 24.0698 13.0378 24.122C12.9856 24.1743 12.9459 24.2377 12.9217 24.3074C12.8975 24.3772 12.8895 24.4516 12.8982 24.5249C12.8958 24.6678 12.9216 24.8097 12.9742 24.9426L12.7789 24.986C12.7137 24.8279 12.6823 24.6579 12.6867 24.487C12.6801 24.386 12.6954 24.2849 12.7314 24.1903C12.7674 24.0958 12.8233 24.0101 12.8953 23.9391C12.9674 23.8681 13.0538 23.8134 13.1489 23.7788C13.2439 23.7442 13.3453 23.7304 13.4461 23.7384C13.5471 23.727 13.6493 23.7369 13.7463 23.7672C13.8433 23.7975 13.9329 23.8477 14.0094 23.9145C14.0859 23.9814 14.1477 24.0634 14.1908 24.1554C14.2339 24.2474 14.2574 24.3474 14.2598 24.449C14.2589 24.5382 14.2392 24.6262 14.202 24.7073C14.1648 24.7884 14.1109 24.8608 14.0439 24.9197C13.9768 24.9785 13.8981 25.0226 13.8128 25.049C13.7276 25.0754 13.6378 25.0835 13.5492 25.0728H13.419V24.015L13.4407 23.9825ZM13.636 24.7853C13.6907 24.793 13.7465 24.789 13.7995 24.7735C13.8526 24.758 13.9018 24.7315 13.9439 24.6956C13.9859 24.6597 14.0198 24.6153 14.0435 24.5653C14.0671 24.5153 14.0798 24.4609 14.0808 24.4056C14.0714 24.2933 14.0208 24.1884 13.9386 24.1113C13.8565 24.0341 13.7486 23.9902 13.636 23.9879V24.7853Z" fill="black"/>
<path d="M13.7714 25.3928C13.9286 25.4014 14.0862 25.4014 14.2434 25.3928V25.6369H13.945C14.0369 25.6625 14.1181 25.7169 14.1767 25.7921C14.2353 25.8673 14.2682 25.9593 14.2705 26.0546C14.2733 26.0817 14.2733 26.1089 14.2705 26.136H14.0101C14.0131 26.1053 14.0131 26.0744 14.0101 26.0438C14.0055 25.9496 13.9674 25.8602 13.9028 25.7916C13.8382 25.723 13.7512 25.6797 13.6575 25.6695H13.5273H12.7191V25.3982H13.7714V25.3928Z" fill="black"/>
<path d="M13.8367 27.0691C13.994 27.0691 14.1242 27.0691 14.249 27.0691V27.3078H13.9994C14.0832 27.3549 14.153 27.4234 14.2016 27.5064C14.2502 27.5893 14.2759 27.6836 14.2761 27.7798C14.2775 27.8742 14.2488 27.9666 14.1942 28.0437C14.1396 28.1207 14.0619 28.1784 13.9723 28.2083C14.0492 28.2512 14.1173 28.3083 14.173 28.3765C14.2438 28.474 14.2801 28.5923 14.2761 28.7128C14.2761 28.9135 14.1459 29.2064 13.6252 29.2064H12.7301V28.9406H13.5872C13.8747 28.9406 14.0483 28.8321 14.0483 28.6097C14.045 28.5364 14.0194 28.4659 13.9747 28.4077C13.9301 28.3495 13.8687 28.3064 13.7987 28.2842C13.754 28.275 13.7079 28.275 13.6631 28.2842H12.7301V28.0184H13.636C13.8747 28.0184 14.0483 27.91 14.0483 27.6984C14.0442 27.6209 14.0157 27.5467 13.967 27.4864C13.9184 27.426 13.8519 27.3825 13.777 27.3621C13.7322 27.3543 13.6863 27.3543 13.6414 27.3621H12.7301V27.0963H13.815L13.8367 27.0691Z" fill="black"/>
<path d="M13.5001 31.0398C13.3957 31.0506 13.2901 31.039 13.1905 31.0058C13.0909 30.9726 12.9995 30.9185 12.9225 30.8471C12.8454 30.7757 12.7845 30.6887 12.7438 30.5919C12.7031 30.4951 12.6836 30.3907 12.6864 30.2857C12.6845 30.1858 12.7037 30.0865 12.7427 29.9945C12.7817 29.9024 12.8398 29.8196 12.913 29.7515C12.9862 29.6834 13.0729 29.6316 13.1676 29.5993C13.2622 29.567 13.3626 29.5551 13.4622 29.5643C13.5649 29.5559 13.6682 29.5692 13.7654 29.6032C13.8627 29.6372 13.9518 29.6912 14.0269 29.7617C14.102 29.8322 14.1615 29.9177 14.2016 30.0126C14.2417 30.1076 14.2614 30.2098 14.2596 30.3129C14.2604 30.4113 14.2412 30.509 14.2029 30.5997C14.1646 30.6904 14.1081 30.7724 14.037 30.8405C13.9658 30.9086 13.8815 30.9614 13.7892 30.9957C13.6969 31.0299 13.5985 31.0449 13.5001 31.0398ZM13.5001 29.8409C13.1692 29.8409 12.9197 30.0308 12.9197 30.2966C12.9197 30.5624 13.1692 30.7577 13.511 30.7577C13.7659 30.7577 14.0914 30.6275 14.0914 30.302C14.0914 29.9765 13.7714 29.8409 13.4839 29.8409H13.5001Z" fill="black"/>
<path d="M14.9487 32.6835H13.126C12.9941 32.6748 12.8619 32.6748 12.73 32.6835V32.4394H12.9958C12.9012 32.3919 12.8226 32.3179 12.7696 32.2263C12.7166 32.1347 12.6915 32.0297 12.6975 31.924C12.7028 31.8305 12.7271 31.739 12.769 31.6552C12.8108 31.5714 12.8694 31.497 12.9409 31.4366C13.0125 31.3762 13.0957 31.331 13.1853 31.3038C13.275 31.2767 13.3692 31.268 13.4623 31.2785C13.5605 31.2665 13.6602 31.2748 13.7551 31.3029C13.8499 31.331 13.938 31.3783 14.0138 31.4419C14.0896 31.5055 14.1515 31.584 14.1957 31.6725C14.2399 31.7611 14.2654 31.8578 14.2706 31.9566C14.2759 32.0458 14.2576 32.1349 14.2177 32.2149C14.1777 32.2949 14.1173 32.3629 14.0428 32.4122H14.9432V32.6835H14.9487ZM13.6305 32.4122C13.6699 32.4201 13.7104 32.4201 13.7498 32.4122C13.8397 32.3923 13.9201 32.3421 13.9773 32.27C14.0346 32.1979 14.0654 32.1083 14.0645 32.0163C14.0645 31.7287 13.8149 31.5606 13.4786 31.5606C13.1423 31.5606 12.9361 31.7125 12.9361 32.0054C12.9357 32.1004 12.9686 32.1926 13.0291 32.2659C13.0895 32.3392 13.1737 32.3891 13.267 32.4068C13.3066 32.4132 13.3469 32.4132 13.3864 32.4068H13.6413L13.6305 32.4122Z" fill="black"/>
<path d="M13.1477 34.4032C13.0105 34.3943 12.8728 34.3943 12.7355 34.4032V34.1591H12.9796C12.8917 34.1098 12.8192 34.037 12.7703 33.9489C12.7215 33.8607 12.6981 33.7607 12.7029 33.66C12.7029 33.4268 12.8331 33.1176 13.3647 33.1176H14.2489V33.3996H13.4081C13.126 33.3996 12.9308 33.4919 12.9308 33.7414C12.932 33.8191 12.9564 33.8947 13.0009 33.9585C13.0453 34.0223 13.1078 34.0713 13.1803 34.0994C13.2269 34.1086 13.2748 34.1086 13.3213 34.0994H14.2489V34.3761H13.164L13.1477 34.4032Z" fill="black"/>
<path d="M14.9488 34.8586V35.1353H12.7355V34.8586H14.9488Z" fill="black"/>
<path d="M13.4407 35.743C13.3673 35.7342 13.293 35.7423 13.2232 35.7664C13.1534 35.7906 13.09 35.8303 13.0378 35.8825C12.9856 35.9348 12.9459 35.9982 12.9217 36.0679C12.8975 36.1377 12.8895 36.2121 12.8982 36.2854C12.8958 36.4283 12.9216 36.5702 12.9742 36.7031L12.7789 36.7465C12.7137 36.5865 12.6823 36.4147 12.6867 36.242C12.68 36.1413 12.6952 36.0403 12.7313 35.9461C12.7673 35.8518 12.8234 35.7664 12.8955 35.6958C12.9676 35.6252 13.0542 35.5711 13.1492 35.5371C13.2443 35.5031 13.3456 35.49 13.4461 35.4989C13.5471 35.4875 13.6493 35.4974 13.7463 35.5277C13.8433 35.558 13.9329 35.6082 14.0094 35.675C14.0859 35.7419 14.1477 35.8239 14.1908 35.9159C14.2339 36.0079 14.2574 36.1079 14.2598 36.2095C14.2589 36.2987 14.2392 36.3867 14.202 36.4678C14.1648 36.5489 14.1109 36.6213 14.0439 36.6802C13.9768 36.739 13.8981 36.7831 13.8128 36.8095C13.7276 36.8359 13.6378 36.844 13.5492 36.8333H13.419V35.7484L13.4407 35.743ZM13.636 36.5512C13.6907 36.5589 13.7465 36.5549 13.7995 36.5394C13.8526 36.524 13.9018 36.4974 13.9439 36.4615C13.9859 36.4256 14.0198 36.3812 14.0435 36.3312C14.0671 36.2812 14.0798 36.2268 14.0808 36.1715C14.0727 36.0582 14.0226 35.9521 13.9403 35.8738C13.858 35.7955 13.7495 35.7508 13.636 35.7484V36.5512Z" fill="black"/>
<path d="M4.15369 27.4702H5.0162V25.3492H4.15369V27.4702Z" fill="#020000"/>
<path d="M5.40977 10.2059L1.77083 10.1685L1.71277 15.8233L5.3517 15.8607" fill="#AFD5A9"/>
<path d="M5.40977 10.2059L1.77083 10.1685L1.71277 15.8233L5.3517 15.8607" stroke="#212830" stroke-width="0.25" stroke-miterlimit="10"/>
<path d="M6.03974 15.8677L6.0978 10.2129L5.41365 10.2059L5.35559 15.8606L6.03974 15.8677Z" fill="#5EB34A" stroke="#1D1D1B" stroke-width="0.25" stroke-miterlimit="10"/>
<path d="M1.71283 15.8232L1.77089 10.1685L0.184403 10.1522L0.126343 15.8069L1.71283 15.8232Z" fill="#5EB34A" stroke="#1D1D1B" stroke-width="0.25" stroke-miterlimit="10"/>
<path d="M0.171632 11.0371L1.35872 11.0493L1.34754 12.1381L0.160452 12.1259L0.142772 13.8478L1.32986 13.86L1.31868 14.9488L0.131592 14.9366" fill="#0C9B47"/>
<path d="M0.171632 11.0371L1.35872 11.0493L1.34754 12.1381L0.160452 12.1259L0.142772 13.8478L1.32986 13.86L1.31868 14.9488L0.131592 14.9366" stroke="#212830" stroke-width="0.25" stroke-miterlimit="10"/>
<path class="BUS-OUT-A" d="M3.57667 13.3313L3.37309 13.3477L3.1727 13.4124L3.00545 13.4921L2.83767 13.6237L2.70279 13.7927L2.61602 13.9585L2.5474 14.1578L2.52686 14.3575L2.54329 14.5577L2.60777 14.7621L2.69111 14.9296L2.82253 15.0976L2.98758 15.2326L3.15312 15.3195L3.35213 15.3882L3.55538 15.4051L3.75523 15.3923L3.95561 15.3277L4.1229 15.2443L4.29068 15.1127L4.42553 14.9474L4.51229 14.7816L4.58095 14.5786L4.60149 14.3788L4.58506 14.1787L4.52054 13.978L4.4372 13.8105L4.30582 13.6388L4.14077 13.5038L3.97519 13.4206L3.77618 13.3519L3.57667 13.3313Z" fill="#C8C8CA"/>
<path d="M2.81494 15.105L4.31667 13.6501M3.57667 13.3313L3.37309 13.3477L3.1727 13.4124L3.00545 13.4921L2.83767 13.6237L2.70279 13.7927L2.61602 13.9585L2.5474 14.1578L2.52686 14.3575L2.54329 14.5577L2.60777 14.7621L2.69111 14.9296L2.82253 15.0976L2.98758 15.2326L3.15312 15.3195L3.35213 15.3882L3.55538 15.4051L3.75523 15.3923L3.95561 15.3277L4.1229 15.2443L4.29068 15.1127L4.42553 14.9474L4.51229 14.7816L4.58095 14.5786L4.60149 14.3788L4.58506 14.1787L4.52054 13.978L4.4372 13.8105L4.30582 13.6388L4.14077 13.5038L3.97519 13.4206L3.77618 13.3519L3.57667 13.3313Z" stroke="#212830" stroke-width="0.25" stroke-miterlimit="10"/>
<path class="BUS-OUT-B" d="M3.58509 10.7203L3.3852 10.7368L3.18482 10.8014L3.01383 10.8848L2.84605 11.0164L2.71121 11.1817L2.62814 11.3475L2.55582 11.5468L2.53894 11.7503L2.55168 11.9504L2.61989 12.1511L2.69953 12.3186L2.83095 12.4866L2.996 12.6216L3.16524 12.7086L3.36425 12.7773L3.56376 12.7978L3.76365 12.7814L3.96403 12.7168L4.13502 12.6333L4.3028 12.5017L4.43764 12.3364L4.52071 12.1706L4.59303 11.9714L4.60988 11.7716L4.59717 11.5677L4.52896 11.367L4.44932 11.1996L4.3179 11.0316L4.15285 10.8965L3.98361 10.8096L3.7846 10.7409L3.58509 10.7203Z" fill="#C8C8CA"/>
<path d="M2.82339 12.4977L4.32512 11.0428M3.58509 10.7203L3.3852 10.7368L3.18482 10.8014L3.01383 10.8848L2.84605 11.0164L2.71121 11.1817L2.62814 11.3475L2.55582 11.5468L2.53894 11.7503L2.55168 11.9504L2.61989 12.1511L2.69953 12.3186L2.83095 12.4866L2.996 12.6216L3.16524 12.7086L3.36425 12.7773L3.56376 12.7978L3.76365 12.7814L3.96403 12.7168L4.13502 12.6333L4.3028 12.5017L4.43764 12.3364L4.52071 12.1706L4.59303 11.9714L4.60988 11.7716L4.59717 11.5677L4.52896 11.367L4.44932 11.1996L4.3179 11.0316L4.15285 10.8965L3.98361 10.8096L3.7846 10.7409L3.58509 10.7203Z" stroke="#212830" stroke-width="0.25" stroke-miterlimit="10"/>
<path d="M5.40964 33.2056L1.77071 33.1682L1.71265 38.823L5.35158 38.8603" fill="#AFD5A9"/>
<path d="M5.40964 33.2056L1.77071 33.1682L1.71265 38.823L5.35158 38.8603" stroke="#212830" stroke-width="0.25" stroke-miterlimit="10"/>
<path d="M6.03962 38.8674L6.09768 33.2126L5.41353 33.2056L5.35547 38.8604L6.03962 38.8674Z" fill="#5EB34A" stroke="#1D1D1B" stroke-width="0.25" stroke-miterlimit="10"/>
<path d="M1.7127 38.823L1.77077 33.1682L0.184281 33.1519L0.126221 38.8067L1.7127 38.823Z" fill="#5EB34A" stroke="#1D1D1B" stroke-width="0.25" stroke-miterlimit="10"/>
<path d="M0.17151 34.0369L1.3586 34.0491L1.34742 35.1378L0.16033 35.1256L0.14265 36.8476L1.32974 36.8598L1.31856 37.9485L0.13147 37.9363" fill="#0C9B47"/>
<path d="M0.17151 34.0369L1.3586 34.0491L1.34742 35.1378L0.16033 35.1256L0.14265 36.8476L1.32974 36.8598L1.31856 37.9485L0.13147 37.9363" stroke="#212830" stroke-width="0.25" stroke-miterlimit="10"/>
<path class="BUS-IN" d="M3.57655 36.3311L3.37296 36.3475L3.17258 36.4121L3.00533 36.4919L2.83755 36.6235L2.70267 36.7925L2.6159 36.9582L2.54728 37.1575L2.52673 37.3573L2.54317 37.5575L2.60765 37.7618L2.69099 37.9293L2.82241 38.0973L2.98746 38.2324L3.153 38.3193L3.35201 38.388L3.55526 38.4049L3.75511 38.3921L3.95549 38.3275L4.12278 38.244L4.29056 38.1124L4.4254 37.9471L4.51217 37.7814L4.58083 37.5784L4.60137 37.3786L4.58493 37.1784L4.52042 36.9778L4.43708 36.8103L4.30569 36.6386L4.14065 36.5035L3.97507 36.4204L3.77606 36.3516L3.57655 36.3311Z" fill="#C8C8CA"/>
<path d="M2.81481 38.1048L4.31655 36.6499M3.57655 36.3311L3.37296 36.3475L3.17258 36.4121L3.00533 36.4919L2.83755 36.6235L2.70267 36.7925L2.6159 36.9582L2.54728 37.1575L2.52673 37.3573L2.54317 37.5575L2.60765 37.7618L2.69099 37.9293L2.82241 38.0973L2.98746 38.2324L3.153 38.3193L3.35201 38.388L3.55526 38.4049L3.75511 38.3921L3.95549 38.3275L4.12278 38.244L4.29056 38.1124L4.4254 37.9471L4.51217 37.7814L4.58083 37.5784L4.60137 37.3786L4.58493 37.1784L4.52042 36.9778L4.43708 36.8103L4.30569 36.6386L4.14065 36.5035L3.97507 36.4204L3.77606 36.3516L3.57655 36.3311Z" stroke="#212830" stroke-width="0.25" stroke-miterlimit="10"/>
<path class="BUS-IN" d="M3.58486 33.7201L3.38497 33.7366L3.18459 33.8012L3.0136 33.8846L2.84582 34.0162L2.71097 34.1815L2.62791 34.3473L2.55559 34.5465L2.5387 34.7501L2.55144 34.9502L2.61965 35.1509L2.6993 35.3184L2.83072 35.4864L2.99577 35.6214L3.16501 35.7083L3.36402 35.777L3.56353 35.7976L3.76341 35.7811L3.9638 35.7165L4.13478 35.6331L4.30257 35.5015L4.43741 35.3362L4.52048 35.1704L4.5928 34.9711L4.60964 34.7713L4.59694 34.5675L4.52873 34.3668L4.44908 34.1993L4.31766 34.0313L4.15262 33.8963L3.98338 33.8094L3.78437 33.7407L3.58486 33.7201Z" fill="#C8C8CA"/>
<path d="M2.82315 35.4974L4.32489 34.0425M3.58486 33.7201L3.38497 33.7366L3.18459 33.8012L3.0136 33.8846L2.84582 34.0162L2.71097 34.1815L2.62791 34.3473L2.55559 34.5465L2.5387 34.7501L2.55144 34.9502L2.61965 35.1509L2.6993 35.3184L2.83072 35.4864L2.99577 35.6214L3.16501 35.7083L3.36402 35.777L3.56353 35.7976L3.76341 35.7811L3.9638 35.7165L4.13478 35.6331L4.30257 35.5015L4.43741 35.3362L4.52048 35.1704L4.5928 34.9711L4.60964 34.7713L4.59694 34.5675L4.52873 34.3668L4.44908 34.1993L4.31766 34.0313L4.15262 33.8963L3.98338 33.8094L3.78437 33.7407L3.58486 33.7201Z" stroke="#212830" stroke-width="0.25" stroke-miterlimit="10"/>
</svg>
