<svg width="70" height="60" viewBox="0 0 70 60" fill="none" xmlns="http://www.w3.org/2000/svg">
<mask id="mask0_319_282" style="mask-type:alpha" maskUnits="userSpaceOnUse" x="0" y="0" width="70" height="60">
<rect width="70" height="60" fill="#D9D9D9"/>
</mask>
<g mask="url(#mask0_319_282)">
<g clip-path="url(#clip0_319_282)">
<path d="M11 42.2241V2.98713C11 1.88317 11.882 1 12.9846 1H68.1182C69.2207 1 70.1027 1.88317 70.1027 2.98713V42.2241C70.1027 43.3281 69.2207 44.2113 68.1182 44.2113H12.9917C11.8891 44.2113 11.0071 43.3281 11.0071 42.2241H11Z" fill="#B3B2B2" stroke="#010101" stroke-miterlimit="10"/>
<path d="M51.442 34.3198C57.7865 34.3198 62.9297 29.1699 62.9297 22.8172C62.9297 16.4645 57.7865 11.3146 51.442 11.3146C45.0975 11.3146 39.9543 16.4645 39.9543 22.8172C39.9543 29.1699 45.0975 34.3198 51.442 34.3198Z" fill="#585857" stroke="#010101" stroke-width="2" stroke-miterlimit="10"/>
<path d="M35.3167 22.8173H51.442" stroke="#010101" stroke-width="4" stroke-miterlimit="10"/>
<path d="M32.7771 44.6686V46.2141C32.7771 46.613 33.083 46.9691 33.5311 46.9691H38.873C39.2714 46.9691 39.627 46.6628 39.627 46.2141V44.6686" fill="#797879"/>
<path d="M32.7771 44.6686V46.2141C32.7771 46.613 33.083 46.9691 33.5311 46.9691H38.873C39.2714 46.9691 39.627 46.6628 39.627 46.2141V44.6686H32.7771Z" stroke="#020303" stroke-width="0.26" stroke-linecap="round" stroke-linejoin="round"/>
<path d="M23.5515 51.9192H11.6157V55.7083H19.7673" fill="#EBEBEB"/>
<path d="M11.4806 52.7881C10.2145 52.7881 9.05503 52.1043 8.43619 51.0004L5.19262 45.217C4.37461 43.8139 2.86664 42.9379 1.24485 42.9379H0.0925293V43.9279H1.25196C2.52521 43.9279 3.69887 44.6045 4.33905 45.7013L7.06336 50.5588M7.58973 52.5032L2.23357 49.7397C1.73565 49.4833 1.18795 49.3551 0.633125 49.3551H0.0925293V50.3451H0.398392C0.953214 50.3451 1.50092 50.4804 1.99884 50.7297L8.58557 54.1271C9.23286 54.4618 9.94417 54.6684 10.6697 54.7467H11.6157M19.7674 55.7082H11.6086V51.9192H23.5729M11.6157 52.7881H10.7977C9.86593 52.7881 8.96256 52.432 8.28682 51.7909L3.25786 47.0475C2.63902 46.4278 1.86369 46.1429 0.981666 46.1429H0.0925293V47.1329H0.981666C1.60051 47.1329 2.19089 47.3751 2.63191 47.8167L7.59685 52.4961C8.45753 53.308 9.61697 53.7781 10.8049 53.7781H11.6229V52.7881H11.6157Z" stroke="black" stroke-width="0.26" stroke-miterlimit="3.86"/>
<path d="M21.4175 55.7082H30.5578C34.7332 55.7082 38.1261 52.318 38.1261 48.1372V46.9691H34.342V48.1372C34.342 50.2312 32.6491 51.9263 30.5578 51.9263H25.2016" fill="#EBEBEB"/>
<path d="M21.4248 55.7082H30.5509C34.7263 55.7082 38.1192 52.318 38.1192 48.1372V46.9691H34.3351V48.1372C34.3351 50.2312 32.6422 51.9263 30.5509 51.9263H25.1947" stroke="black" stroke-width="0.26" stroke-miterlimit="3.86"/>
<path d="M29.4057 47.7098L17.0218 60.1098M27.7626 47.7098L15.3787 60.1098" stroke="black" stroke-width="0.13" stroke-linecap="round" stroke-linejoin="round"/>
</g>
<rect y="43" width="1" height="1" fill="black"/>
<rect class="CHANNEL-IN" y="46" width="1" height="1" fill="black"/>
<rect y="49.3005" width="1" height="1" fill="black"/>
</g>
<defs>
<clipPath id="clip0_319_282">
<rect width="70" height="59.322" fill="white" transform="translate(0 0.830566)"/>
</clipPath>
</defs>
</svg>
