<svg width="70" height="60" viewBox="0 0 70 60" fill="none" xmlns="http://www.w3.org/2000/svg">
<g clip-path="url(#clip0_314_218)">
<path d="M59.4653 41.5802V2.34321C59.4653 1.23925 58.5833 0.356079 57.4808 0.356079H2.34715C1.24462 0.356079 0.362599 1.23925 0.362599 2.34321V41.5802C0.362599 42.6842 1.24462 43.5674 2.34715 43.5674H57.4737C58.5762 43.5674 59.4582 42.6842 59.4582 41.5802H59.4653Z" fill="#B3B2B2" stroke="#010101" stroke-miterlimit="10"/>
<path d="M18.558 33.4892C12.2135 33.4892 7.07035 28.3393 7.07035 21.9866C7.07035 15.6339 12.2135 10.484 18.558 10.484C24.9025 10.484 30.0457 15.6339 30.0457 21.9866C30.0457 28.3393 24.9025 33.4892 18.558 33.4892Z" fill="#585857" stroke="#010101" stroke-width="2" stroke-miterlimit="10"/>
<path d="M34.6833 21.9867H18.558" stroke="#010101" stroke-width="4" stroke-miterlimit="10"/>
<path d="M37.2229 43.838V45.3836C37.2229 45.7824 36.917 46.1385 36.4689 46.1385H31.127C30.7286 46.1385 30.373 45.8323 30.373 45.3836V43.838" fill="#797879"/>
<path d="M37.2229 43.838V45.3836C37.2229 45.7824 36.917 46.1385 36.4689 46.1385H31.127C30.7286 46.1385 30.373 45.8323 30.373 45.3836V43.838H37.2229Z" stroke="#020303" stroke-width="0.26" stroke-linecap="round" stroke-linejoin="round"/>
<path d="M46.4485 51.0886H58.3843V54.8777H50.2327" fill="#EBEBEB"/>
<path d="M58.5194 51.9575C59.7855 51.9575 60.945 51.2738 61.5638 50.1698L64.8074 44.3865C65.6254 42.9833 67.1334 42.1073 68.7551 42.1073H69.9075V43.0973H68.748C67.4748 43.0973 66.3011 43.7739 65.661 44.8708L62.9366 49.7282M62.4103 51.6726L67.7664 48.9091C68.2643 48.6527 68.8121 48.5245 69.3669 48.5245H69.9075V49.5145H69.6016C69.0468 49.5145 68.4991 49.6499 68.0012 49.8991L61.4144 53.2965C60.7671 53.6313 60.0558 53.8378 59.3303 53.9162H58.3843M50.2326 54.8777H58.3914V51.0886H46.4271M58.3843 51.9575H59.2023C60.1341 51.9575 61.0374 51.6014 61.7132 50.9604L66.7421 46.2169C67.361 45.5973 68.1363 45.3124 69.0183 45.3124H69.9075V46.3024H69.0183C68.3995 46.3024 67.8091 46.5445 67.3681 46.9861L62.4032 51.6655C61.5425 52.4774 60.383 52.9475 59.1951 52.9475H58.3771V51.9575H58.3843Z" stroke="black" stroke-width="0.26" stroke-miterlimit="3.86"/>
<path d="M48.5825 54.8777H39.4422C35.2668 54.8777 31.8739 51.4874 31.8739 47.3066V46.1385H35.658V47.3066C35.658 49.4006 37.3509 51.0957 39.4422 51.0957H44.7984" fill="#EBEBEB"/>
<path d="M48.5752 54.8777H39.4491C35.2737 54.8777 31.8808 51.4874 31.8808 47.3066V46.1385H35.6649V47.3066C35.6649 49.4006 37.3578 51.0957 39.4491 51.0957H44.8053" stroke="black" stroke-width="0.26" stroke-miterlimit="3.86"/>
<path d="M40.5943 46.8793L52.9782 59.2793M42.2374 46.8793L54.6213 59.2793" stroke="black" stroke-width="0.13" stroke-linecap="round" stroke-linejoin="round"/>
<rect x="69" y="42.1694" width="1" height="1" fill="black"/>
<rect class="CHANNEL-IN" x="69" y="45.1694" width="1" height="1" fill="black"/>
<rect x="69" y="48.47" width="1" height="1" fill="black"/>
</g>
<defs>
<clipPath id="clip0_314_218">
<rect width="70" height="59.322" fill="white" transform="matrix(-1 0 0 1 70 0)"/>
</clipPath>
</defs>
</svg>
