<svg width="71" height="65" viewBox="0 0 71 65" fill="none" xmlns="http://www.w3.org/2000/svg">
<path d="M13.1833 53.4999L1.48242 47" stroke="black" stroke-linecap="round"/>
<path d="M13.1831 53.4999L1.68335 59.4999" stroke="#CFF400" stroke-linecap="round"/>
<path d="M13.1831 53.4999L1.48242 53.4999" stroke="#464EE3" stroke-linecap="round"/>
<g clip-path="url(#clip0_1081_79)">
<mask id="mask0_1081_79" style="mask-type:alpha" maskUnits="userSpaceOnUse" x="0" y="0" width="71" height="60">
<path d="M71 0H0V60H71V0Z" fill="#D9D9D9"/>
</mask>
<g mask="url(#mask0_1081_79)">
<mask id="mask1_1081_79" style="mask-type:luminance" maskUnits="userSpaceOnUse" x="0" y="0" width="71" height="61">
<path d="M71 0.830566H0V60.1526H71V0.830566Z" fill="white"/>
</mask>
<g mask="url(#mask1_1081_79)">
<path d="M11 42.2241V2.98713C11 1.88317 11.882 1 12.9846 1H68.1182C69.2207 1 70.1027 1.88317 70.1027 2.98713V42.2241C70.1027 43.3281 69.2207 44.2113 68.1182 44.2113H12.9917C11.8891 44.2113 11.0071 43.3281 11.0071 42.2241H11Z" fill="#B3B2B2" stroke="#010101" stroke-miterlimit="10"/>
<path d="M51.442 34.3198C57.7865 34.3198 62.9297 29.1699 62.9297 22.8172C62.9297 16.4645 57.7865 11.3146 51.442 11.3146C45.0975 11.3146 39.9543 16.4645 39.9543 22.8172C39.9543 29.1699 45.0975 34.3198 51.442 34.3198Z" fill="#585857" stroke="#010101" stroke-width="2" stroke-miterlimit="10"/>
<path d="M35.3167 22.8173H51.442" stroke="#010101" stroke-width="4" stroke-miterlimit="10"/>
<path d="M32.7771 44.6686V46.2141C32.7771 46.613 33.083 46.9691 33.5311 46.9691H38.873C39.2714 46.9691 39.627 46.6628 39.627 46.2141V44.6686" fill="#797879"/>
<path d="M32.7771 44.6686V46.2141C32.7771 46.613 33.083 46.9691 33.5311 46.9691H38.873C39.2714 46.9691 39.627 46.6628 39.627 46.2141V44.6686H32.7771Z" stroke="#020303" stroke-width="0.26" stroke-linecap="round" stroke-linejoin="round"/>
<path d="M23.5515 51.9192H11.6157V55.7083H19.7673" fill="#EBEBEB"/>
<path d="M23.5515 51.9192H11.6157V55.7083H19.7673" stroke="black" stroke-width="0.25"/>
<path d="M21.4175 55.7082H30.5578C34.7332 55.7082 38.1261 52.318 38.1261 48.1372V46.9691H34.342V48.1372C34.342 50.2312 32.6491 51.9263 30.5578 51.9263H25.2016" fill="#EBEBEB"/>
<path d="M21.4248 55.7082H30.5509C34.7263 55.7082 38.1192 52.318 38.1192 48.1372V46.9691H34.3351V48.1372C34.3351 50.2312 32.6422 51.9263 30.5509 51.9263H25.1947" stroke="black" stroke-width="0.26" stroke-miterlimit="3.86"/>
<path d="M29.4057 47.7098L17.0218 60.1098M27.7626 47.7098L15.3787 60.1098" stroke="black" stroke-width="0.13" stroke-linecap="round" stroke-linejoin="round"/>
</g>
</g>
<path d="M3.96042 42V45.7239H3.52292L1.48854 42.8H1.45208V45.7239H1V42H1.4375L3.47917 44.9311H3.51563V42H3.96042Z" fill="black"/>
</g>
<path d="M1.00002 62.084C1.00002 60.9348 1.95098 60 3.11177 60C4.27256 60 5.21012 60.9392 5.21012 62.0884C5.21012 63.2551 4.26363 64.1863 3.07605 64.1724C1.91079 64.1636 0.995552 63.2105 1.00002 62.084ZM1.2411 62.0796C1.2411 63.0949 2.07151 63.9324 3.09391 63.9368C4.1297 63.9368 4.96903 63.1125 4.9735 62.084C4.9735 61.0862 4.13862 60.245 3.13855 60.2407C2.08491 60.2407 1.2411 61.0511 1.23664 62.0796H1.2411Z" fill="black"/>
<path d="M2.98213 62.2222C2.98213 62.182 2.98213 62.1506 2.98213 62.1155C2.98213 61.6385 2.98213 61.1579 2.98213 60.681C2.98213 60.6503 2.9732 60.6145 2.98213 60.5925C3.00892 60.5523 3.04464 60.5033 3.08928 60.4901C3.15179 60.4718 3.19644 60.5164 3.21429 60.5786C3.22322 60.6057 3.21429 60.6371 3.21429 60.6678C3.21429 61.1492 3.21429 61.6297 3.21429 62.1111C3.21429 62.1418 3.21429 62.1776 3.21429 62.2179C3.25447 62.2179 3.28573 62.2222 3.31698 62.2222C3.62057 62.2222 3.92416 62.2222 4.22775 62.2222C4.25901 62.2222 4.30365 62.2135 4.32597 62.231C4.36169 62.2581 4.4108 62.302 4.4108 62.3378C4.4108 62.3781 4.36615 62.4227 4.33044 62.449C4.30812 62.4673 4.26794 62.4585 4.23222 62.4585C3.4911 62.4585 2.74997 62.4585 2.01332 62.4585C1.98653 62.4585 1.95974 62.4585 1.93295 62.4585C1.87045 62.4446 1.82134 62.4 1.83474 62.3378C1.84366 62.2932 1.89277 62.2581 1.93295 62.2266C1.95528 62.2135 1.991 62.2222 2.02224 62.2179C2.30351 62.2179 2.58478 62.2179 2.87052 62.2179C2.90177 62.2179 2.93302 62.2179 2.97767 62.2135L2.98213 62.2222Z" fill="black"/>
<path d="M3.10722 62.9216C2.91524 62.9216 2.72327 62.9216 2.53575 62.9216C2.43306 62.9216 2.3661 62.8543 2.39289 62.7701C2.41521 62.6985 2.46878 62.6765 2.54021 62.6765C2.68308 62.6765 2.82595 62.6765 2.96882 62.6765C3.19204 62.6765 3.41081 62.6765 3.63404 62.6765C3.65636 62.6765 3.68315 62.6765 3.70547 62.6765C3.78584 62.6853 3.83495 62.7387 3.83048 62.8053C3.82602 62.8813 3.77244 62.9172 3.70101 62.9216C3.59386 62.9216 3.48224 62.9216 3.37509 62.9216C3.2858 62.9216 3.20097 62.9216 3.11168 62.9216H3.10722Z" fill="black"/>
<path d="M3.09826 63.3664C3.04914 63.3664 3.00003 63.3664 2.95093 63.3664C2.88395 63.3664 2.84377 63.3269 2.83485 63.2596C2.82592 63.193 2.86163 63.1396 2.9286 63.1352C3.04468 63.1265 3.16076 63.1265 3.27238 63.1352C3.33935 63.1396 3.37953 63.193 3.37059 63.264C3.36167 63.3313 3.32149 63.3664 3.25451 63.3664C3.20094 63.3664 3.15183 63.3664 3.09826 63.3664Z" fill="black"/>
<rect class="CHANNEL-IN" x="1" y="53" width="1" height="1" rx="0.5" fill="transparent"/>
<defs>
<clipPath id="clip0_1081_79">
<rect width="71" height="60" fill="white"/>
</clipPath>
</defs>
</svg>
