<svg width="70" height="65" viewBox="0 0 70 65" fill="none" xmlns="http://www.w3.org/2000/svg">
<g clip-path="url(#clip0_1039_1054)">
<mask id="mask0_1039_1054" style="mask-type:luminance" maskUnits="userSpaceOnUse" x="0" y="0" width="70" height="60">
<path d="M0 0H70V60H0V0Z" fill="white"/>
</mask>
<g mask="url(#mask0_1039_1054)">
<path d="M14 53L1 47" stroke="black" stroke-linecap="round"/>
<path d="M14 53L1 59" stroke="#EBEB72" stroke-linecap="round"/>
<path d="M13.5 53L1 51" stroke="#D20000" stroke-linecap="round"/>
<path d="M13.5 53L1 55" stroke="#D20000" stroke-linecap="round"/>
<mask id="mask1_1039_1054" style="mask-type:luminance" maskUnits="userSpaceOnUse" x="0" y="0" width="70" height="60">
<path d="M70 0H0V59.322H70V0Z" fill="white"/>
</mask>
<g mask="url(#mask1_1039_1054)">
<path d="M10.5347 41.5802V2.34321C10.5347 1.23925 11.4167 0.356079 12.5192 0.356079H67.6529C68.7554 0.356079 69.6375 1.23925 69.6375 2.34321V41.5802C69.6375 42.6842 68.7554 43.5674 67.6529 43.5674H12.5263C11.4238 43.5674 10.5419 42.6842 10.5419 41.5802H10.5347Z" fill="#B3B2B2" stroke="#010101" stroke-miterlimit="10"/>
<path d="M51.442 33.4892C57.7865 33.4892 62.9297 28.3393 62.9297 21.9866C62.9297 15.6339 57.7865 10.484 51.442 10.484C45.0975 10.484 39.9543 15.6339 39.9543 21.9866C39.9543 28.3393 45.0975 33.4892 51.442 33.4892Z" fill="#585857" stroke="#010101" stroke-width="2" stroke-miterlimit="10"/>
<path d="M35.3168 21.9867H51.4421" stroke="#010101" stroke-width="4" stroke-miterlimit="10"/>
<path d="M32.7771 43.838V45.3836C32.7771 45.7824 33.083 46.1385 33.5311 46.1385H38.873C39.2714 46.1385 39.627 45.8323 39.627 45.3836V43.838" fill="#797879"/>
<path d="M32.7771 43.838V45.3836C32.7771 45.7824 33.083 46.1385 33.5311 46.1385H38.873C39.2714 46.1385 39.627 45.8323 39.627 45.3836V43.838H32.7771Z" stroke="#020303" stroke-width="0.26" stroke-linecap="round" stroke-linejoin="round"/>
<path d="M23.5515 51.0886H11.6157V54.8777H19.7673" fill="#EBEBEB"/>
<path d="M21.4176 54.8778H30.5579C34.7333 54.8778 38.1262 51.4874 38.1262 47.3066V46.1385H34.3421V47.3066C34.3421 49.4006 32.6492 51.0957 30.5579 51.0957H25.2017" fill="#EBEBEB"/>
<path d="M21.4247 54.8778H30.5508C34.7262 54.8778 38.1191 51.4874 38.1191 47.3066V46.1385H34.335V47.3066C34.335 49.4006 32.6421 51.0957 30.5508 51.0957H25.1946" stroke="black" stroke-width="0.26" stroke-miterlimit="3.86"/>
<path d="M29.4058 46.8793L17.0219 59.2793M27.7627 46.8793L15.3788 59.2793" stroke="black" stroke-width="0.13" stroke-linecap="round" stroke-linejoin="round"/>
</g>
<path class="RELAY-IN RELAY-IN-V+" d="M0 47C0 46.4477 0.447715 46 1 46C1.55228 46 2 46.4477 2 47C2 47.5523 1.55228 48 1 48C0.447715 48 0 47.5523 0 47Z" fill="transparent"/>
<path class="RELAY-IN RELAY-IN-1" d="M0 51C0 50.4477 0.447715 50 1 50C1.55228 50 2 50.4477 2 51C2 51.5523 1.55228 52 1 52C0.447715 52 0 51.5523 0 51Z" fill="transparent"/>
<path class="RELAY-IN RELAY-IN-2" d="M0 55C0 54.4477 0.447715 54 1 54C1.55228 54 2 54.4477 2 55C2 55.5523 1.55228 56 1 56C0.447715 56 0 55.5523 0 55Z" fill="transparent"/>
<path class="RELAY-IN-GND"  d="M0 59C0 58.4477 0.447715 58 1 58C1.55228 58 2 58.4477 2 59C2 59.5523 1.55228 60 1 60C0.447715 60 0 59.5523 0 59Z" fill="transparent"/>
</g>
<path d="M2.96042 42V45.7239H2.52292L0.488539 42.8H0.452078V45.7239H0V42H0.437499L2.47917 44.9311H2.51563V42H2.96042Z" fill="black"/>
</g>
<path d="M1.62638e-05 62.084C1.62638e-05 60.9348 0.950977 60 2.11177 60C3.27256 60 4.21012 60.9392 4.21012 62.0884C4.21012 63.2551 3.26363 64.1863 2.07605 64.1724C0.91079 64.1636 -0.00444827 63.2105 1.62638e-05 62.084ZM0.241102 62.0796C0.241102 63.0949 1.07151 63.9324 2.09391 63.9368C3.1297 63.9368 3.96903 63.1125 3.9735 62.084C3.9735 61.0862 3.13862 60.245 2.13855 60.2407C1.08491 60.2407 0.241103 61.0511 0.236637 62.0796H0.241102Z" fill="black"/>
<path d="M1.98213 62.2222C1.98213 62.182 1.98213 62.1506 1.98213 62.1155C1.98213 61.6385 1.98213 61.1579 1.98213 60.681C1.98213 60.6503 1.9732 60.6145 1.98213 60.5925C2.00892 60.5523 2.04464 60.5033 2.08928 60.4901C2.15179 60.4718 2.19644 60.5164 2.21429 60.5786C2.22322 60.6057 2.21429 60.6371 2.21429 60.6678C2.21429 61.1492 2.21429 61.6297 2.21429 62.1111C2.21429 62.1418 2.21429 62.1776 2.21429 62.2179C2.25447 62.2179 2.28573 62.2222 2.31698 62.2222C2.62057 62.2222 2.92416 62.2222 3.22775 62.2222C3.25901 62.2222 3.30365 62.2135 3.32597 62.231C3.36169 62.2581 3.4108 62.302 3.4108 62.3378C3.4108 62.3781 3.36615 62.4227 3.33044 62.449C3.30812 62.4673 3.26794 62.4585 3.23222 62.4585C2.4911 62.4585 1.74997 62.4585 1.01332 62.4585C0.986531 62.4585 0.959742 62.4585 0.932953 62.4585C0.870451 62.4446 0.82134 62.4 0.834738 62.3378C0.843663 62.2932 0.892774 62.2581 0.932953 62.2266C0.955276 62.2135 0.990997 62.2222 1.02224 62.2179C1.30351 62.2179 1.58478 62.2179 1.87052 62.2179C1.90177 62.2179 1.93302 62.2179 1.97767 62.2135L1.98213 62.2222Z" fill="black"/>
<path d="M2.10722 62.9216C1.91524 62.9216 1.72327 62.9216 1.53575 62.9216C1.43306 62.9216 1.3661 62.8543 1.39289 62.7701C1.41521 62.6985 1.46878 62.6765 1.54021 62.6765C1.68308 62.6765 1.82595 62.6765 1.96882 62.6765C2.19204 62.6765 2.41081 62.6765 2.63404 62.6765C2.65636 62.6765 2.68315 62.6765 2.70547 62.6765C2.78584 62.6853 2.83495 62.7387 2.83048 62.8053C2.82602 62.8813 2.77244 62.9172 2.70101 62.9216C2.59386 62.9216 2.48224 62.9216 2.37509 62.9216C2.2858 62.9216 2.20097 62.9216 2.11168 62.9216H2.10722Z" fill="black"/>
<path d="M2.09826 63.3664C2.04914 63.3664 2.00003 63.3664 1.95093 63.3664C1.88395 63.3664 1.84377 63.3269 1.83485 63.2596C1.82592 63.193 1.86163 63.1396 1.9286 63.1352C2.04468 63.1265 2.16076 63.1265 2.27238 63.1352C2.33935 63.1396 2.37953 63.193 2.37059 63.264C2.36167 63.3313 2.32149 63.3664 2.25451 63.3664C2.20094 63.3664 2.15183 63.3664 2.09826 63.3664Z" fill="black"/>
<defs>
<clipPath id="clip0_1039_1054">
<rect width="70" height="60" fill="white" transform="matrix(-1 0 0 1 70 0)"/>
</clipPath>
</defs>
</svg>
