<svg width="70" height="65" viewBox="0 0 70 65" fill="none" xmlns="http://www.w3.org/2000/svg">
<g clip-path="url(#clip0_1039_1045)">
<path d="M56 53L69 47" stroke="black" stroke-linecap="round"/>
<path d="M56 53L69 59" stroke="#EBEB72" stroke-linecap="round"/>
<path d="M56.5 53L69 51" stroke="#D20000" stroke-linecap="round"/>
<path d="M56.5 53L69 55" stroke="#D20000" stroke-linecap="round"/>
<mask id="mask0_1039_1045" style="mask-type:luminance" maskUnits="userSpaceOnUse" x="0" y="0" width="70" height="60">
<path d="M0 0H70V59.322H0V0Z" fill="white"/>
</mask>
<g mask="url(#mask0_1039_1045)">
<path d="M59.4653 41.5802V2.34321C59.4653 1.23925 58.5833 0.356079 57.4808 0.356079H2.3471C1.24457 0.356079 0.362549 1.23925 0.362549 2.34321V41.5802C0.362549 42.6842 1.24457 43.5674 2.3471 43.5674H57.4737C58.5762 43.5674 59.4581 42.6842 59.4581 41.5802H59.4653Z" fill="#B3B2B2" stroke="#010101" stroke-miterlimit="10"/>
<path d="M18.558 33.4892C12.2135 33.4892 7.07031 28.3393 7.07031 21.9866C7.07031 15.6339 12.2135 10.484 18.558 10.484C24.9025 10.484 30.0457 15.6339 30.0457 21.9866C30.0457 28.3393 24.9025 33.4892 18.558 33.4892Z" fill="#585857" stroke="#010101" stroke-width="2" stroke-miterlimit="10"/>
<path d="M34.6832 21.9867H18.5579" stroke="#010101" stroke-width="4" stroke-miterlimit="10"/>
<path d="M37.2229 43.838V45.3836C37.2229 45.7824 36.917 46.1385 36.4689 46.1385H31.127C30.7286 46.1385 30.373 45.8323 30.373 45.3836V43.838" fill="#797879"/>
<path d="M37.2229 43.838V45.3836C37.2229 45.7824 36.917 46.1385 36.4689 46.1385H31.127C30.7286 46.1385 30.373 45.8323 30.373 45.3836V43.838H37.2229Z" stroke="#020303" stroke-width="0.26" stroke-linecap="round" stroke-linejoin="round"/>
<path d="M46.4485 51.0886H58.3843V54.8777H50.2327" fill="#EBEBEB"/>
<path d="M48.5824 54.8778H39.4421C35.2667 54.8778 31.8738 51.4874 31.8738 47.3066V46.1385H35.6579V47.3066C35.6579 49.4006 37.3508 51.0957 39.4421 51.0957H44.7983" fill="#EBEBEB"/>
<path d="M48.5753 54.8778H39.4492C35.2738 54.8778 31.8809 51.4874 31.8809 47.3066V46.1385H35.665V47.3066C35.665 49.4006 37.3579 51.0957 39.4492 51.0957H44.8054" stroke="black" stroke-width="0.26" stroke-miterlimit="3.86"/>
<path d="M40.5942 46.8793L52.9781 59.2793M42.2373 46.8793L54.6212 59.2793" stroke="black" stroke-width="0.13" stroke-linecap="round" stroke-linejoin="round"/>
</g>
<rect class="RELAY-IN-GND" x="68" y="46" width="2" height="2" rx="1" fill="transparent"/>
<rect class="RELAY-IN-1" x="68" y="50" width="2" height="2" rx="1" fill="transparent"/>
<rect class="RELAY-IN-2" x="68" y="54" width="2" height="2" rx="1" fill="transparent"/>
<rect class="RELAY-IN-V+" x="68" y="58" width="2" height="2" rx="1" fill="transparent"/>
</g>
<path d="M68.9604 41V44.7239H68.5229L66.4885 41.8H66.4521V44.7239H66V41H66.4375L68.4792 43.9311H68.5156V41H68.9604Z" fill="black"/>
<path d="M65 62.084C65 60.9348 65.951 60 67.1118 60C68.2726 60 69.2101 60.9392 69.2101 62.0884C69.2101 63.2551 68.2636 64.1863 67.076 64.1724C65.9108 64.1636 64.9956 63.2105 65 62.084ZM65.2411 62.0796C65.2411 63.0949 66.0715 63.9324 67.0939 63.9368C68.1297 63.9368 68.969 63.1125 68.9735 62.084C68.9735 61.0862 68.1386 60.245 67.1386 60.2407C66.0849 60.2407 65.2411 61.0511 65.2366 62.0796H65.2411Z" fill="black"/>
<path d="M66.9821 62.2222C66.9821 62.182 66.9821 62.1506 66.9821 62.1155C66.9821 61.6385 66.9821 61.1579 66.9821 60.681C66.9821 60.6503 66.9732 60.6145 66.9821 60.5925C67.0089 60.5523 67.0446 60.5033 67.0893 60.4901C67.1518 60.4718 67.1964 60.5164 67.2143 60.5786C67.2232 60.6057 67.2143 60.6371 67.2143 60.6678C67.2143 61.1492 67.2143 61.6297 67.2143 62.1111C67.2143 62.1418 67.2143 62.1776 67.2143 62.2179C67.2545 62.2179 67.2857 62.2222 67.317 62.2222C67.6206 62.2222 67.9242 62.2222 68.2278 62.2222C68.259 62.2222 68.3037 62.2135 68.326 62.231C68.3617 62.2581 68.4108 62.302 68.4108 62.3378C68.4108 62.3781 68.3662 62.4227 68.3304 62.449C68.3081 62.4673 68.2679 62.4585 68.2322 62.4585C67.4911 62.4585 66.75 62.4585 66.0133 62.4585C65.9865 62.4585 65.9597 62.4585 65.933 62.4585C65.8705 62.4446 65.8213 62.4 65.8347 62.3378C65.8437 62.2932 65.8928 62.2581 65.933 62.2266C65.9553 62.2135 65.991 62.2222 66.0222 62.2179C66.3035 62.2179 66.5848 62.2179 66.8705 62.2179C66.9018 62.2179 66.933 62.2179 66.9777 62.2135L66.9821 62.2222Z" fill="black"/>
<path d="M67.1072 62.9216C66.9152 62.9216 66.7233 62.9216 66.5358 62.9216C66.4331 62.9216 66.3661 62.8543 66.3929 62.7701C66.4152 62.6985 66.4688 62.6765 66.5402 62.6765C66.6831 62.6765 66.8259 62.6765 66.9688 62.6765C67.192 62.6765 67.4108 62.6765 67.634 62.6765C67.6564 62.6765 67.6831 62.6765 67.7055 62.6765C67.7858 62.6853 67.8349 62.7387 67.8305 62.8053C67.826 62.8813 67.7724 62.9172 67.701 62.9216C67.5939 62.9216 67.4822 62.9216 67.3751 62.9216C67.2858 62.9216 67.201 62.9216 67.1117 62.9216H67.1072Z" fill="black"/>
<path d="M67.0983 63.3664C67.0491 63.3664 67 63.3664 66.9509 63.3664C66.884 63.3664 66.8438 63.3269 66.8349 63.2596C66.8259 63.193 66.8616 63.1396 66.9286 63.1352C67.0447 63.1265 67.1608 63.1265 67.2724 63.1352C67.3393 63.1396 67.3795 63.193 67.3706 63.264C67.3617 63.3313 67.3215 63.3664 67.2545 63.3664C67.2009 63.3664 67.1518 63.3664 67.0983 63.3664Z" fill="black"/>
<defs>
<clipPath id="clip0_1039_1045">
<rect width="70" height="60" fill="white"/>
</clipPath>
</defs>
</svg>
