<svg width="71" height="75" viewBox="0 0 71 75" fill="none" xmlns="http://www.w3.org/2000/svg">
<path d="M43.4177 52.2828V25.0648H8.10332V52.2828" fill="#D5D5D5"/>
<path d="M43.4177 52.2828V25.0648H8.10332V52.2828" stroke="black" stroke-width="0.5" stroke-miterlimit="10"/>
<path d="M18.2178 18.2499H17.8678C17.0966 18.2499 16.3195 18.2499 15.5483 18.2499L15.139 18.2916L14.7475 18.4109L14.3797 18.6076L14.0593 18.87L8.5602 24.397L8.29918 24.713L8.10935 25.0708H8.15087C19.8907 25.0708 31.6365 25.0708 43.3822 25.0708H43.4297L43.2399 24.713L42.9788 24.397L37.4738 18.87L37.1534 18.6076L36.7916 18.4109L36.4 18.2916L35.9907 18.2499H33.6712H33.3034H18.2416H18.2178Z" fill="#EBEBEB" stroke="black" stroke-width="0.5" stroke-miterlimit="10"/>
<path d="M18.3897 18.2499V15.8829C18.3897 14.9707 21.688 14.2373 25.7635 14.2373C29.8389 14.2373 33.4575 14.9707 33.4575 15.8829V18.2499" fill="#575756"/>
<path d="M18.3897 18.2499V15.8829C18.3897 14.9707 21.688 14.2373 25.7635 14.2373C29.8389 14.2373 33.4575 14.9707 33.4575 15.8829V18.2499" stroke="black" stroke-width="0.5" stroke-miterlimit="10"/>
<path d="M35.0238 42.6715H16.4857C16.0205 42.6715 15.6433 42.2925 15.6433 41.8249L15.6433 31.1642C15.6433 30.6967 16.0205 30.3176 16.4857 30.3176H35.0238C35.489 30.3176 35.8662 30.6967 35.8662 31.1642V41.8249C35.8662 42.2925 35.489 42.6715 35.0238 42.6715Z" fill="#EBEBEB" stroke="black" stroke-width="0.5" stroke-miterlimit="10"/>
<path d="M43.9993 61.5422L7.84843 61.5422C7.61582 61.5422 7.42725 61.3527 7.42725 61.1189L7.42725 52.7001C7.42725 52.4663 7.61582 52.2768 7.84843 52.2768L43.9993 52.2768C44.2319 52.2768 44.4205 52.4663 44.4205 52.7001V61.1189C44.4205 61.3527 44.2319 61.5422 43.9993 61.5422Z" fill="#D5D5D5" stroke="black" stroke-width="0.5" stroke-miterlimit="10"/>
<path d="M11.9414 61.5483V62.8899" stroke="black" stroke-width="0.32" stroke-linejoin="round"/>
<path d="M39.5559 61.5483V62.8899" stroke="black" stroke-width="0.32" stroke-linejoin="round"/>
<path d="M11.9415 62.8898L12.7068 64.1896H38.7135L39.5559 62.8898H11.9415Z" stroke="black" stroke-width="0.32" stroke-linejoin="round"/>
<path d="M29.7678 57.5237H21.7356C21.503 57.5237 21.3145 57.3342 21.3145 57.1004V47.3102C21.3145 47.0764 21.503 46.8869 21.7356 46.8869H29.7678C30.0005 46.8869 30.189 47.0764 30.189 47.3102V57.1004C30.189 57.3342 30.0005 57.5237 29.7678 57.5237Z" fill="#3C3C3B" stroke="black" stroke-width="0.5" stroke-miterlimit="10"/>
<path d="M12.1907 61.7034L39.5559 62.8899" stroke="black" stroke-width="0.25" stroke-miterlimit="10"/>
<path d="M11.9414 62.8898L38.7075 64.1836" stroke="black" stroke-width="0.25" stroke-miterlimit="10"/>
<path d="M51.622 66.3777H59.0254V69.9789H55.1991" fill="#EBEBEB"/>
<path d="M62.8279 66.8785L67.894 64.255C68.3627 64.0106 68.8788 63.8854 69.4067 63.8854H69.9229V64.8274H69.6322C69.1042 64.8274 68.5881 64.9526 68.1195 65.1971L61.8847 68.4227C61.2678 68.7387 60.6034 68.9414 59.9152 69.007H59.0195M55.1991 69.9789H59.0195V66.3836H51.5923M59.0254 67.1527H59.7966C60.6805 67.1527 61.5288 66.8129 62.1754 66.2047L66.933 61.7032C67.5203 61.1129 68.25 60.8446 69.0864 60.8446H69.9229V61.7867H69.0805C68.4932 61.7867 67.9356 62.0192 67.5203 62.4365L62.822 66.8785C62.0034 67.6536 60.9118 68.0948 59.7906 68.0948H59.0195V67.1527H59.0254Z" stroke="black" stroke-width="0.26" stroke-miterlimit="3.86"/>
<path d="M53.6331 69.979H47.3568C43.4059 69.979 40.2025 66.7593 40.2025 62.7884V61.6794H43.7797V62.7884C43.7797 64.7739 45.3814 66.3837 47.3568 66.3837H50.0559" fill="#EBEBEB"/>
<path d="M53.6331 69.979H47.3568C43.4059 69.979 40.2025 66.7593 40.2025 62.7884V61.6794H43.7797V62.7884C43.7797 64.7739 45.3814 66.3837 47.3568 66.3837H50.0559" stroke="black" stroke-width="0.26" stroke-miterlimit="3.86"/>
<path d="M46.0754 62.377L57.7915 74.1525M47.6296 62.377L59.3457 74.1525" stroke="black" stroke-width="0.13" stroke-linecap="round" stroke-linejoin="round"/>
<rect class="RELAY-IN" x="69" y="60.8" width="1" height="1" fill="black"/>
<rect x="69" y="64" width="1" height="1" fill="black"/>
</svg>
