<svg width="71" height="75" viewBox="0 0 71 75" fill="none" xmlns="http://www.w3.org/2000/svg">
<path d="M26.635 52.2828V25.0648H61.9494V52.2828" fill="#D5D5D5"/>
<path d="M26.635 52.2828V25.0648H61.9494V52.2828" stroke="black" stroke-width="0.5" stroke-miterlimit="10"/>
<path d="M51.8349 18.2499H52.1849C52.9561 18.2499 53.7332 18.2499 54.5044 18.2499L54.9137 18.2916L55.3053 18.4109L55.673 18.6076L55.9934 18.87L61.4925 24.397L61.7536 24.713L61.9434 25.0708H61.9019C50.162 25.0708 38.4163 25.0708 26.6705 25.0708H26.623L26.8129 24.713L27.0739 24.397L32.579 18.87L32.8993 18.6076L33.2612 18.4109L33.6527 18.2916L34.062 18.2499H36.3815H36.7493H51.8112H51.8349Z" fill="#EBEBEB" stroke="black" stroke-width="0.5" stroke-miterlimit="10"/>
<path d="M51.663 18.2499V15.8829C51.663 14.9707 48.3647 14.2373 44.2893 14.2373C40.2139 14.2373 36.5952 14.9707 36.5952 15.8829V18.2499" fill="#575756"/>
<path d="M51.663 18.2499V15.8829C51.663 14.9707 48.3647 14.2373 44.2893 14.2373C40.2139 14.2373 36.5952 14.9707 36.5952 15.8829V18.2499" stroke="black" stroke-width="0.5" stroke-miterlimit="10"/>
<path d="M35.0289 42.6715H53.567C54.0323 42.6715 54.4094 42.2925 54.4094 41.8249V31.1642C54.4094 30.6967 54.0323 30.3176 53.567 30.3176H35.0289C34.5637 30.3176 34.1865 30.6967 34.1865 31.1642V41.8249C34.1865 42.2925 34.5637 42.6715 35.0289 42.6715Z" fill="#EBEBEB" stroke="black" stroke-width="0.5" stroke-miterlimit="10"/>
<path d="M26.0535 61.5422L62.2043 61.5422C62.4369 61.5422 62.6255 61.3527 62.6255 61.1189V52.7001C62.6255 52.4663 62.4369 52.2768 62.2043 52.2768L26.0535 52.2768C25.8208 52.2768 25.6323 52.4663 25.6323 52.7001V61.1189C25.6323 61.3527 25.8208 61.5422 26.0535 61.5422Z" fill="#D5D5D5" stroke="black" stroke-width="0.5" stroke-miterlimit="10"/>
<path d="M58.1113 61.5483V62.8899" stroke="black" stroke-width="0.32" stroke-linejoin="round"/>
<path d="M30.4968 61.5483V62.8899" stroke="black" stroke-width="0.32" stroke-linejoin="round"/>
<path d="M58.1112 62.8898L57.346 64.1896H31.3392L30.4968 62.8898H58.1112Z" stroke="black" stroke-width="0.32" stroke-linejoin="round"/>
<path d="M40.2849 57.5237H48.3171C48.5497 57.5237 48.7383 57.3342 48.7383 57.1004V47.3102C48.7383 47.0764 48.5497 46.8869 48.3171 46.8869H40.2849C40.0523 46.8869 39.8637 47.0764 39.8637 47.3102V57.1004C39.8637 57.3342 40.0523 57.5237 40.2849 57.5237Z" fill="#3C3C3B" stroke="black" stroke-width="0.5" stroke-miterlimit="10"/>
<path d="M57.8621 61.7034L30.4968 62.8899" stroke="black" stroke-width="0.25" stroke-miterlimit="10"/>
<path d="M58.1113 62.8898L31.3452 64.1836" stroke="black" stroke-width="0.25" stroke-miterlimit="10"/>
<path d="M18.4307 66.3777H11.0273V69.9789H14.8536" fill="#EBEBEB"/>
<path d="M7.2248 66.8785L2.1587 64.255C1.69005 64.0106 1.17395 63.8854 0.645985 63.8854H0.129883V64.8274H0.420561C0.948527 64.8274 1.46463 64.9526 1.93327 65.1971L8.16802 68.4227C8.78497 68.7387 9.44938 68.9414 10.1375 69.007H11.0333M14.8536 69.9789H11.0333V66.3836H18.4604M11.0273 67.1527H10.2562C9.37226 67.1527 8.52395 66.8129 7.87734 66.2047L3.11971 61.7032C2.53243 61.1129 1.80276 60.8446 0.966323 60.8446H0.129883V61.7867H0.972256C1.55954 61.7867 2.11717 62.0192 2.53243 62.4365L7.23073 66.8785C8.04937 67.6536 9.1409 68.0948 10.2621 68.0948H11.0333V67.1527H11.0273Z" stroke="black" stroke-width="0.26" stroke-miterlimit="3.86"/>
<path d="M16.4197 69.979H22.6959C26.6468 69.979 29.8502 66.7593 29.8502 62.7884V61.6794H26.2731V62.7884C26.2731 64.7739 24.6714 66.3837 22.6959 66.3837H19.9968" fill="#EBEBEB"/>
<path d="M16.4197 69.979H22.6959C26.6468 69.979 29.8502 66.7593 29.8502 62.7884V61.6794H26.2731V62.7884C26.2731 64.7739 24.6714 66.3837 22.6959 66.3837H19.9968" stroke="black" stroke-width="0.26" stroke-miterlimit="3.86"/>
<path d="M23.9774 62.377L12.2613 74.1525M22.4231 62.377L10.707 74.1525" stroke="black" stroke-width="0.13" stroke-linecap="round" stroke-linejoin="round"/>
<rect class="RELAY-IN" x="0.0527344" y="60.8" width="1" height="1" fill="black"/>
<rect x="0.0527344" y="64" width="1" height="1" fill="black"/>
</svg>
