<svg width="71" height="80" viewBox="0 0 71 80" fill="none" xmlns="http://www.w3.org/2000/svg">
<path d="M58.5001 68L70 61" stroke="#CFF400" stroke-linecap="round"/>
<path d="M58.5002 68L70 74" stroke="black" stroke-linecap="round"/>
<path d="M58.5002 68L70 68" stroke="#FE0000" stroke-linecap="round"/>
<rect class="RELAY-IN" x="69.5" y="67.5" width="1" height="1" rx="0.5" fill="transparent"/>
<path d="M43.4177 52.2828V25.0648H8.10332V52.2828" fill="#D5D5D5"/>
<path d="M43.4177 52.2828V25.0648H8.10332V52.2828" stroke="black" stroke-width="0.5" stroke-miterlimit="10"/>
<path d="M18.2178 18.2499H17.8678C17.0966 18.2499 16.3195 18.2499 15.5483 18.2499L15.139 18.2916L14.7475 18.4109L14.3797 18.6076L14.0593 18.87L8.5602 24.397L8.29918 24.713L8.10935 25.0708H8.15087C19.8907 25.0708 31.6365 25.0708 43.3822 25.0708H43.4297L43.2399 24.713L42.9788 24.397L37.4738 18.87L37.1534 18.6076L36.7916 18.4109L36.4 18.2916L35.9907 18.2499H33.6712H33.3034H18.2416H18.2178Z" fill="#EBEBEB" stroke="black" stroke-width="0.5" stroke-miterlimit="10"/>
<path d="M18.3897 18.2499V15.8829C18.3897 14.9707 21.688 14.2373 25.7635 14.2373C29.8389 14.2373 33.4575 14.9707 33.4575 15.8829V18.2499" fill="#575756"/>
<path d="M18.3897 18.2499V15.8829C18.3897 14.9707 21.688 14.2373 25.7635 14.2373C29.8389 14.2373 33.4575 14.9707 33.4575 15.8829V18.2499" stroke="black" stroke-width="0.5" stroke-miterlimit="10"/>
<path d="M35.0238 42.6715H16.4857C16.0205 42.6715 15.6433 42.2925 15.6433 41.8249L15.6433 31.1642C15.6433 30.6967 16.0205 30.3176 16.4857 30.3176H35.0238C35.489 30.3176 35.8662 30.6967 35.8662 31.1642V41.8249C35.8662 42.2925 35.489 42.6715 35.0238 42.6715Z" fill="#EBEBEB" stroke="black" stroke-width="0.5" stroke-miterlimit="10"/>
<path d="M43.9993 61.5422L7.84843 61.5422C7.61582 61.5422 7.42725 61.3527 7.42725 61.1189L7.42725 52.7001C7.42725 52.4663 7.61582 52.2768 7.84843 52.2768L43.9993 52.2768C44.2319 52.2768 44.4205 52.4663 44.4205 52.7001V61.1189C44.4205 61.3527 44.2319 61.5422 43.9993 61.5422Z" fill="#D5D5D5" stroke="black" stroke-width="0.5" stroke-miterlimit="10"/>
<path d="M11.9414 61.5483V62.8899" stroke="black" stroke-width="0.32" stroke-linejoin="round"/>
<path d="M39.5559 61.5483V62.8899" stroke="black" stroke-width="0.32" stroke-linejoin="round"/>
<path d="M11.9415 62.8898L12.7068 64.1896H38.7135L39.5559 62.8898H11.9415Z" stroke="black" stroke-width="0.32" stroke-linejoin="round"/>
<path d="M29.7678 57.5237H21.7356C21.503 57.5237 21.3145 57.3342 21.3145 57.1004V47.3102C21.3145 47.0764 21.503 46.8869 21.7356 46.8869H29.7678C30.0005 46.8869 30.189 47.0764 30.189 47.3102V57.1004C30.189 57.3342 30.0005 57.5237 29.7678 57.5237Z" fill="#3C3C3B" stroke="black" stroke-width="0.5" stroke-miterlimit="10"/>
<path d="M12.1907 61.7034L39.5559 62.8899" stroke="black" stroke-width="0.25" stroke-miterlimit="10"/>
<path d="M11.9414 62.8898L38.7075 64.1836" stroke="black" stroke-width="0.25" stroke-miterlimit="10"/>
<path d="M51.622 66.3777H59.0254V69.9789H55.1991" fill="#EBEBEB"/>
<path d="M51.622 66.3777H59.0254V69.9789H55.1991" stroke="black" stroke-width="0.25" stroke-linecap="round"/>
<path d="M53.6331 69.979H47.3568C43.4059 69.979 40.2025 66.7593 40.2025 62.7884V61.6794H43.7797V62.7884C43.7797 64.7739 45.3814 66.3837 47.3568 66.3837H50.0559" fill="#EBEBEB"/>
<path d="M53.6331 69.979H47.3568C43.4059 69.979 40.2025 66.7593 40.2025 62.7884V61.6794H43.7797V62.7884C43.7797 64.7739 45.3814 66.3837 47.3568 66.3837H50.0559" stroke="black" stroke-width="0.26" stroke-miterlimit="3.86"/>
<path d="M46.0754 62.377L57.7915 74.1525M47.6296 62.377L59.3457 74.1525" stroke="black" stroke-width="0.13" stroke-linecap="round" stroke-linejoin="round"/>
<path d="M69.9604 56V59.7239H69.5229L67.4885 56.8H67.4521V59.7239H67V56H67.4375L69.4792 58.9311H69.5156V56H69.9604Z" fill="black"/>
<path d="M66 77.084C66 75.9348 66.951 75 68.1118 75C69.2726 75 70.2101 75.9392 70.2101 77.0884C70.2101 78.2551 69.2636 79.1863 68.076 79.1724C66.9108 79.1636 65.9956 78.2105 66 77.084ZM66.2411 77.0796C66.2411 78.0949 67.0715 78.9324 68.0939 78.9368C69.1297 78.9368 69.969 78.1125 69.9735 77.084C69.9735 76.0862 69.1386 75.245 68.1386 75.2407C67.0849 75.2407 66.2411 76.0511 66.2366 77.0796H66.2411Z" fill="black"/>
<path d="M67.9821 77.2222C67.9821 77.182 67.9821 77.1506 67.9821 77.1155C67.9821 76.6385 67.9821 76.1579 67.9821 75.681C67.9821 75.6503 67.9732 75.6145 67.9821 75.5925C68.0089 75.5523 68.0446 75.5033 68.0893 75.4901C68.1518 75.4718 68.1964 75.5164 68.2143 75.5786C68.2232 75.6057 68.2143 75.6371 68.2143 75.6678C68.2143 76.1492 68.2143 76.6297 68.2143 77.1111C68.2143 77.1418 68.2143 77.1776 68.2143 77.2179C68.2545 77.2179 68.2857 77.2222 68.317 77.2222C68.6206 77.2222 68.9242 77.2222 69.2278 77.2222C69.259 77.2222 69.3037 77.2135 69.326 77.231C69.3617 77.2581 69.4108 77.302 69.4108 77.3378C69.4108 77.3781 69.3662 77.4227 69.3304 77.449C69.3081 77.4673 69.2679 77.4585 69.2322 77.4585C68.4911 77.4585 67.75 77.4585 67.0133 77.4585C66.9865 77.4585 66.9597 77.4585 66.933 77.4585C66.8705 77.4446 66.8213 77.4 66.8347 77.3378C66.8437 77.2932 66.8928 77.2581 66.933 77.2266C66.9553 77.2135 66.991 77.2222 67.0222 77.2179C67.3035 77.2179 67.5848 77.2179 67.8705 77.2179C67.9018 77.2179 67.933 77.2179 67.9777 77.2135L67.9821 77.2222Z" fill="black"/>
<path d="M68.1072 77.9216C67.9152 77.9216 67.7233 77.9216 67.5358 77.9216C67.4331 77.9216 67.3661 77.8543 67.3929 77.7701C67.4152 77.6985 67.4688 77.6765 67.5402 77.6765C67.6831 77.6765 67.8259 77.6765 67.9688 77.6765C68.192 77.6765 68.4108 77.6765 68.634 77.6765C68.6564 77.6765 68.6831 77.6765 68.7055 77.6765C68.7858 77.6853 68.8349 77.7387 68.8305 77.8053C68.826 77.8813 68.7724 77.9172 68.701 77.9216C68.5939 77.9216 68.4822 77.9216 68.3751 77.9216C68.2858 77.9216 68.201 77.9216 68.1117 77.9216H68.1072Z" fill="black"/>
<path d="M68.0983 78.3664C68.0491 78.3664 68 78.3664 67.9509 78.3664C67.884 78.3664 67.8438 78.3269 67.8349 78.2596C67.8259 78.193 67.8616 78.1396 67.9286 78.1352C68.0447 78.1265 68.1608 78.1265 68.2724 78.1352C68.3393 78.1396 68.3795 78.193 68.3706 78.264C68.3617 78.3313 68.3215 78.3664 68.2545 78.3664C68.2009 78.3664 68.1518 78.3664 68.0983 78.3664Z" fill="black"/>
</svg>
