<svg width="74" height="85" viewBox="0 0 74 85" fill="none" xmlns="http://www.w3.org/2000/svg">
<path d="M13.7429 71.9128L1.5 79" stroke="black" stroke-linecap="round"/>
<path d="M13.7424 71.9128L1.5 66" stroke="#CFF400" stroke-linecap="round"/>
<path d="M13.7424 71.9728L1.58555 71.9728" stroke="#FE0000" stroke-linecap="round"/>
<path d="M28.1013 55.2704V26.4972H65.4337V55.2704" fill="#D5D5D5"/>
<path d="M28.1013 55.2704V26.4972H65.4337V55.2704" stroke="black" stroke-width="0.5" stroke-miterlimit="10"/>
<path d="M54.7412 19.2927H55.1112C55.9264 19.2927 56.7479 19.2927 57.5632 19.2927L57.9959 19.3368L58.4098 19.4629L58.7986 19.6709L59.1373 19.9482L64.9507 25.7911L65.2266 26.1252L65.4273 26.5034H65.3834C52.9727 26.5034 40.5557 26.5034 28.1388 26.5034H28.0886L28.2893 26.1252L28.5652 25.7911L34.3849 19.9482L34.7235 19.6709L35.1061 19.4629L35.52 19.3368L35.9527 19.2927H38.4047H38.7935H54.7161H54.7412Z" fill="#EBEBEB" stroke="black" stroke-width="0.5" stroke-miterlimit="10"/>
<path d="M54.5594 19.2928V16.7905C54.5594 15.8262 51.0727 15.0509 46.7643 15.0509C42.456 15.0509 38.6306 15.8262 38.6306 16.7905V19.2928" fill="#575756"/>
<path d="M54.5594 19.2928V16.7905C54.5594 15.8262 51.0727 15.0509 46.7643 15.0509C42.456 15.0509 38.6306 15.8262 38.6306 16.7905V19.2928" stroke="black" stroke-width="0.5" stroke-miterlimit="10"/>
<path d="M36.9747 45.1099H56.5721C57.064 45.1099 57.4626 44.7091 57.4626 44.2148V32.945C57.4626 32.4507 57.064 32.05 56.5721 32.05H36.9747C36.4829 32.05 36.0842 32.4507 36.0842 32.945V44.2148C36.0842 44.7091 36.4829 45.1099 36.9747 45.1099Z" fill="#EBEBEB" stroke="black" stroke-width="0.5" stroke-miterlimit="10"/>
<path d="M27.4866 65.059H65.7032C65.9491 65.059 66.1484 64.8586 66.1484 64.6114V55.7116C66.1484 55.4644 65.9491 55.2641 65.7032 55.2641L27.4866 55.2641C27.2407 55.2641 27.0413 55.4644 27.0413 55.7116V64.6114C27.0413 64.8586 27.2407 65.059 27.4866 65.059Z" fill="#D5D5D5" stroke="black" stroke-width="0.5" stroke-miterlimit="10"/>
<path d="M61.3762 65.0654V66.4836" stroke="black" stroke-width="0.32" stroke-linejoin="round"/>
<path d="M32.1838 65.0654V66.4836" stroke="black" stroke-width="0.32" stroke-linejoin="round"/>
<path d="M61.3762 66.4834L60.5672 67.8575H33.0743L32.1838 66.4834H61.3762Z" stroke="black" stroke-width="0.32" stroke-linejoin="round"/>
<path d="M42.5311 60.8108H51.0223C51.2682 60.8108 51.4675 60.6104 51.4675 60.3633V50.0137C51.4675 49.7666 51.2682 49.5662 51.0223 49.5662H42.5311C42.2852 49.5662 42.0858 49.7666 42.0858 50.0137V60.3633C42.0858 60.6104 42.2852 60.8108 42.5311 60.8108Z" fill="#3C3C3B" stroke="black" stroke-width="0.5" stroke-miterlimit="10"/>
<path d="M61.1128 65.2292L32.1838 66.4835" stroke="black" stroke-width="0.25" stroke-miterlimit="10"/>
<path d="M61.3762 66.4834L33.0806 67.8512" stroke="black" stroke-width="0.25" stroke-miterlimit="10"/>
<path d="M19.4282 70.1707H11.6018V73.9777H15.6467" fill="#EBEBEB"/>
<path d="M19.4282 70.1707H11.6018V73.9777H15.6467" stroke="black" stroke-width="0.25" stroke-linecap="round"/>
<path d="M17.3022 73.9778H23.9372C28.1138 73.9778 31.5002 70.5741 31.5002 66.3763V65.204H27.7187V66.3763C27.7187 68.4752 26.0255 70.1771 23.9372 70.1771H21.0838" fill="#EBEBEB"/>
<path d="M17.3022 73.9778H23.9372C28.1138 73.9778 31.5002 70.5741 31.5002 66.3763V65.204H27.7187V66.3763C27.7187 68.4752 26.0255 70.1771 23.9372 70.1771H21.0838" stroke="black" stroke-width="0.26" stroke-miterlimit="3.86"/>
<path d="M25.2918 65.9413L12.9062 78.3897M23.6488 65.9413L11.2632 78.3897" stroke="black" stroke-width="0.13" stroke-linecap="round" stroke-linejoin="round"/>
<path d="M3.96042 61V64.7239H3.52292L1.48854 61.8H1.45208V64.7239H1V61H1.4375L3.47917 63.9311H3.51563V61H3.96042Z" fill="black"/>
<path d="M1.00002 82.084C1.00002 80.9348 1.95098 80 3.11177 80C4.27256 80 5.21012 80.9392 5.21012 82.0884C5.21012 83.2551 4.26363 84.1863 3.07605 84.1724C1.91079 84.1636 0.995552 83.2105 1.00002 82.084ZM1.2411 82.0796C1.2411 83.0949 2.07151 83.9324 3.09391 83.9368C4.1297 83.9368 4.96903 83.1125 4.9735 82.084C4.9735 81.0862 4.13862 80.245 3.13855 80.2407C2.08491 80.2407 1.2411 81.0511 1.23664 82.0796H1.2411Z" fill="black"/>
<path d="M2.98213 82.2222C2.98213 82.182 2.98213 82.1506 2.98213 82.1155C2.98213 81.6385 2.98213 81.1579 2.98213 80.681C2.98213 80.6503 2.9732 80.6145 2.98213 80.5925C3.00892 80.5523 3.04464 80.5033 3.08928 80.4901C3.15179 80.4718 3.19644 80.5164 3.21429 80.5786C3.22322 80.6057 3.21429 80.6371 3.21429 80.6678C3.21429 81.1492 3.21429 81.6297 3.21429 82.1111C3.21429 82.1418 3.21429 82.1776 3.21429 82.2179C3.25447 82.2179 3.28573 82.2222 3.31698 82.2222C3.62057 82.2222 3.92416 82.2222 4.22775 82.2222C4.25901 82.2222 4.30365 82.2135 4.32597 82.231C4.36169 82.2581 4.4108 82.302 4.4108 82.3378C4.4108 82.3781 4.36615 82.4227 4.33044 82.449C4.30812 82.4673 4.26794 82.4585 4.23222 82.4585C3.4911 82.4585 2.74997 82.4585 2.01332 82.4585C1.98653 82.4585 1.95974 82.4585 1.93295 82.4585C1.87045 82.4446 1.82134 82.4 1.83474 82.3378C1.84366 82.2932 1.89277 82.2581 1.93295 82.2266C1.95528 82.2135 1.991 82.2222 2.02224 82.2179C2.30351 82.2179 2.58478 82.2179 2.87052 82.2179C2.90177 82.2179 2.93302 82.2179 2.97767 82.2135L2.98213 82.2222Z" fill="black"/>
<path d="M3.10722 82.9216C2.91524 82.9216 2.72327 82.9216 2.53575 82.9216C2.43306 82.9216 2.3661 82.8543 2.39289 82.7701C2.41521 82.6985 2.46878 82.6765 2.54021 82.6765C2.68308 82.6765 2.82595 82.6765 2.96882 82.6765C3.19204 82.6765 3.41081 82.6765 3.63404 82.6765C3.65636 82.6765 3.68315 82.6765 3.70547 82.6765C3.78584 82.6853 3.83495 82.7387 3.83048 82.8053C3.82602 82.8813 3.77244 82.9172 3.70101 82.9216C3.59386 82.9216 3.48224 82.9216 3.37509 82.9216C3.2858 82.9216 3.20097 82.9216 3.11168 82.9216H3.10722Z" fill="black"/>
<path d="M3.09826 83.3664C3.04914 83.3664 3.00003 83.3664 2.95093 83.3664C2.88395 83.3664 2.84377 83.3269 2.83485 83.2596C2.82592 83.193 2.86163 83.1396 2.9286 83.1352C3.04468 83.1265 3.16076 83.1265 3.27238 83.1352C3.33935 83.1396 3.37953 83.193 3.37059 83.264C3.36167 83.3313 3.32149 83.3664 3.25451 83.3664C3.20094 83.3664 3.15183 83.3664 3.09826 83.3664Z" fill="black"/>
<rect class="RELAY-IN" x="1" y="71.5" width="1" height="1" rx="0.5" fill="transparent"/>
</svg>
