<svg width="47" height="83" viewBox="0 0 47 83" fill="none" xmlns="http://www.w3.org/2000/svg">
<g clip-path="url(#clip0_600_80)">
<mask id="mask0_600_80" style="mask-type:luminance" maskUnits="userSpaceOnUse" x="0" y="0" width="47" height="83">
<path d="M47 0H0V83H47V0Z" fill="white"/>
</mask>
<g mask="url(#mask0_600_80)">
<mask id="mask1_600_80" style="mask-type:luminance" maskUnits="userSpaceOnUse" x="0" y="0" width="47" height="83">
<path d="M47 0H0V83H47V0Z" fill="white"/>
</mask>
<g mask="url(#mask1_600_80)">
<path d="M47 0H0V83H47V0Z" fill="#C7C8CB" stroke="#1D1D1B" stroke-width="0.5" stroke-miterlimit="10"/>
<path d="M40.5729 68.3873C40.5729 67.5069 32.9606 66.8152 23.5434 66.8152C14.1261 66.8152 6.47461 67.5069 6.47461 68.3873C6.47461 73.0172 6.8199 76.7588 7.25938 76.7588C7.25938 77.7178 14.542 78.4881 23.5434 78.4881C32.5447 78.4881 39.8274 77.7021 39.8274 76.7588C40.2276 76.7824 40.5729 73.0408 40.5729 68.3873Z" fill="#939498" stroke="#1D1D1B" stroke-width="0.5" stroke-miterlimit="10"/>
<path d="M23.5435 68.1748H16.9043C16.7703 68.1789 16.6384 68.2094 16.5162 68.2645C16.3939 68.3197 16.2838 68.3984 16.1919 68.4962C16.1001 68.594 16.0284 68.709 15.981 68.8346C15.9335 68.9602 15.9113 69.0939 15.9155 69.2281C15.9155 73.6851 16.8023 77.2931 17.8852 77.2931H29.1624C30.2533 77.2931 31.1322 73.6851 31.1322 69.2281C31.1407 68.9584 31.0423 68.6963 30.8585 68.4989C30.6747 68.3016 30.4205 68.1851 30.1512 68.1748H23.5435Z" fill="#C7C8CB" stroke="#1D1D1B" stroke-width="0.5" stroke-miterlimit="10"/>
<path d="M6.57666 72.6006H14.3929" stroke="#1D1D1B" stroke-width="0.5" stroke-miterlimit="10"/>
<path d="M18.8813 74.5261H18.3005C17.9191 74.5261 17.6099 74.8341 17.6099 75.2139C17.6099 75.5938 17.9191 75.9017 18.3005 75.9017H18.8813C19.2627 75.9017 19.5719 75.5938 19.5719 75.2139C19.5719 74.8341 19.2627 74.5261 18.8813 74.5261Z" fill="#939498" stroke="#1D1D1B" stroke-width="0.4" stroke-miterlimit="10"/>
<path d="M18.9055 70.4861H18.2777C17.8702 70.4861 17.54 70.8169 17.54 71.225C17.54 71.633 17.8702 71.9639 18.2777 71.9639H18.9055C19.3129 71.9639 19.6432 71.633 19.6432 71.225C19.6432 70.8169 19.3129 70.4861 18.9055 70.4861Z" fill="#939498" stroke="#1D1D1B" stroke-width="0.4" stroke-miterlimit="10"/>
<path d="M21.4871 74.5261H20.9064C20.525 74.5261 20.2158 74.8341 20.2158 75.2139C20.2158 75.5938 20.525 75.9017 20.9064 75.9017H21.4871C21.8685 75.9017 22.1777 75.5938 22.1777 75.2139C22.1777 74.8341 21.8685 74.5261 21.4871 74.5261Z" fill="#939498" stroke="#1D1D1B" stroke-width="0.4" stroke-miterlimit="10"/>
<path d="M15.209 73.8188C15.209 76.3735 16.8805 78.4487 18.9445 78.4487" stroke="#1D1D1B" stroke-width="0.5" stroke-miterlimit="10"/>
<path d="M15.209 73.819C15.209 73.1429 14.8402 72.6006 14.4243 72.6006" stroke="#1D1D1B" stroke-width="0.5" stroke-miterlimit="10"/>
<path d="M7.24334 11.7123C7.24334 8.25364 4.01793 5.42383 0.0234375 5.42383" stroke="#1D1D1B" stroke-width="0.25" stroke-miterlimit="10"/>
<path d="M7.24365 11.7124L11.4421 67.2632" stroke="#1D1D1B" stroke-width="0.25" stroke-miterlimit="10"/>
<path d="M40.4706 72.6006H32.6621" stroke="#1D1D1B" stroke-width="0.5" stroke-miterlimit="10"/>
<path d="M28.1657 75.8939H28.7465C29.1279 75.8939 29.4371 75.586 29.4371 75.2061C29.4371 74.8263 29.1279 74.5183 28.7465 74.5183H28.1657C27.7843 74.5183 27.4751 74.8263 27.4751 75.2061C27.4751 75.586 27.7843 75.8939 28.1657 75.8939Z" fill="#939498" stroke="#1D1D1B" stroke-width="0.4" stroke-miterlimit="10"/>
<path d="M28.1498 71.9717H28.7776C29.185 71.9717 29.5153 71.6408 29.5153 71.2328C29.5153 70.8247 29.185 70.4939 28.7776 70.4939H28.1498C27.7423 70.4939 27.4121 70.8247 27.4121 71.2328C27.4121 71.6408 27.7423 71.9717 28.1498 71.9717Z" fill="#939498" stroke="#1D1D1B" stroke-width="0.4" stroke-miterlimit="10"/>
<path d="M25.568 75.8939H26.1487C26.5301 75.8939 26.8393 75.586 26.8393 75.2061C26.8393 74.8263 26.5301 74.5183 26.1487 74.5183H25.568C25.1866 74.5183 24.8774 74.8263 24.8774 75.2061C24.8774 75.586 25.1866 75.8939 25.568 75.8939Z" fill="#939498" stroke="#1D1D1B" stroke-width="0.4" stroke-miterlimit="10"/>
<path d="M23.2292 75.8939H23.8099C24.1913 75.8939 24.5005 75.586 24.5005 75.2061C24.5005 74.8263 24.1913 74.5183 23.8099 74.5183H23.2292C22.8478 74.5183 22.5386 74.8263 22.5386 75.2061C22.5386 75.586 22.8478 75.8939 23.2292 75.8939Z" fill="#939498" stroke="#1D1D1B" stroke-width="0.4" stroke-miterlimit="10"/>
<path d="M25.2538 77.2303V76.688C25.1622 76.6743 25.0794 76.6259 25.0224 76.5527C24.9654 76.4795 24.9387 76.3873 24.9478 76.2949H22.0991C22.1102 76.3876 22.0842 76.481 22.0269 76.5546C21.9695 76.6282 21.8855 76.6762 21.793 76.688V77.2303" fill="#939498"/>
<path d="M25.2538 77.2303V76.688C25.1622 76.6743 25.0794 76.6259 25.0224 76.5527C24.9654 76.4795 24.9387 76.3873 24.9478 76.2949H22.0991C22.1102 76.3876 22.0842 76.481 22.0269 76.5546C21.9695 76.6282 21.8855 76.6762 21.793 76.688V77.2303" stroke="#1D1D1B" stroke-width="0.5" stroke-miterlimit="10"/>
<path d="M26.3446 68.9924V73.6538H23.5273H20.71V68.9924H23.5273H26.3446Z" fill="#AED5A9" stroke="#1D1D1B" stroke-width="0.5" stroke-miterlimit="10"/>
<path d="M31.8459 73.8188C31.8459 76.3814 30.1272 78.4487 28.0005 78.4487" stroke="#1D1D1B" stroke-width="0.5" stroke-miterlimit="10"/>
<path d="M31.8462 73.819C31.8462 73.1429 32.2072 72.6006 32.6309 72.6006" stroke="#1D1D1B" stroke-width="0.5" stroke-miterlimit="10"/>
<path d="M39.8113 11.7124L35.6128 67.2632" stroke="#1D1D1B" stroke-width="0.25" stroke-miterlimit="10"/>
<path d="M39.8115 11.7123C39.8115 8.25364 43.0369 5.42383 47.0236 5.42383" stroke="#1D1D1B" stroke-width="0.25" stroke-miterlimit="10"/>
</g>
<path d="M24.3438 76.3093L24.4029 76.9593L24.616 77.5976L24.8763 78.1294L25.3024 78.6613L25.8468 79.0868L26.3794 79.3586L27.0185 79.5713L27.6576 79.6304L28.2966 79.5713L28.9475 79.3586L29.4802 79.0868L30.0128 78.6613L30.4389 78.1294L30.7111 77.5976L30.9241 76.9593L30.9715 76.3093L30.9241 75.6711L30.7111 75.0329L30.4389 74.501L30.0128 73.9692L29.4802 73.5437L28.9475 73.2718L28.2966 73.0591L27.6576 73L27.0185 73.0591L26.3794 73.2718L25.8468 73.5437L25.3024 73.9692L24.8763 74.501L24.616 75.0329L24.4029 75.6711L24.3438 76.3093Z" fill="#C8C8CA" fill-opacity="0.01"/>
<path class="BUS-A" d="M24.3989 76.9593L24.3398 76.3093L24.3989 75.6711L24.612 75.0329L24.8723 74.501L25.2984 73.9692L25.3383 73.9381L25.8428 73.5437L26.3754 73.2718L27.0145 73.0591L27.6536 73L28.2927 73.0591L28.9436 73.2718L29.4762 73.5437L30.0088 73.9692L30.4349 74.501L30.7071 75.0329L30.9201 75.6711L30.9675 76.3093L30.9201 76.9593L30.7071 77.5976L30.4349 78.1294L30.009 78.6611L30.0088 78.6613L29.4762 79.0868L28.9436 79.3586L28.2927 79.5713L27.6536 79.6304L27.0145 79.5713L26.3754 79.3586L25.8428 79.0868L25.2984 78.6613L24.8723 78.1294L24.612 77.5976L24.3989 76.9593Z" fill="#C8C8CA" fill-opacity="0.01"/>
<path d="M30.0325 78.6849L25.3339 73.9337M24.3398 76.3093L24.3989 76.9593L24.612 77.5976L24.8723 78.1294L25.2984 78.6613L25.8428 79.0868L26.3754 79.3586L27.0145 79.5713L27.6536 79.6304L28.2927 79.5713L28.9436 79.3586L29.4762 79.0868L30.0088 78.6613L30.4349 78.1294L30.7071 77.5976L30.9201 76.9593L30.9675 76.3093L30.9201 75.6711L30.7071 75.0329L30.4349 74.501L30.0088 73.9692L29.4762 73.5437L28.9436 73.2718L28.2927 73.0591L27.6536 73L27.0145 73.0591L26.3754 73.2718L25.8428 73.5437L25.2984 73.9692L24.8723 74.501L24.612 75.0329L24.3989 75.6711L24.3398 76.3093Z" stroke="#212830" stroke-opacity="0.01" stroke-width="0.25" stroke-miterlimit="10"/>
<path d="M15 76.3684L15.0592 77.0066L15.2722 77.6448L15.5444 78.1885L15.9705 78.7204L16.5031 79.1458L17.0356 79.4058L17.6747 79.6304L18.3257 79.6777L18.9648 79.6304L19.6039 79.4058L20.1365 79.1458L20.6691 78.7204L21.0951 78.1885L21.3673 77.6448L21.5804 77.0066L21.6395 76.3684L21.5804 75.7302L21.3673 75.0919L21.0951 74.5483L20.6691 74.0164L20.1365 73.5909L19.6039 73.3309L18.9648 73.1064L18.3257 73.0591L17.6747 73.1064L17.0356 73.3309L16.5031 73.5909L15.9705 74.0164L15.5444 74.5483L15.2722 75.0919L15.0592 75.7302L15 76.3684Z" fill="#C8C8CA" fill-opacity="0.01"/>
<path class="BUS-B" d="M15.0592 77.0066L15 76.3684L15.0592 75.7302L15.2722 75.0919L15.5444 74.5483L15.9705 74.0164L16.5031 73.5909L17.0356 73.3309L17.6747 73.1064L18.3257 73.0591L18.9648 73.1064L19.6039 73.3309L20.1365 73.5909L20.6691 74.0164L21.0951 74.5483L21.3673 75.0919L21.5804 75.7302L21.6395 76.3684L21.5804 77.0066L21.3673 77.6448L21.0951 78.1885L20.6745 78.7136L20.6691 78.7204L20.1365 79.1458L19.6039 79.4058L18.9648 79.6304L18.3257 79.6777L17.6747 79.6304L17.0356 79.4058L16.5031 79.1458L15.9705 78.7204L15.5444 78.1885L15.2722 77.6448L15.0592 77.0066Z" fill="#C8C8CA" fill-opacity="0.01"/>
<path d="M20.7045 78.744L16.006 73.9928M15 76.3684L15.0592 77.0066L15.2722 77.6448L15.5444 78.1885L15.9705 78.7204L16.5031 79.1458L17.0356 79.4058L17.6747 79.6304L18.3257 79.6777L18.9648 79.6304L19.6039 79.4058L20.1365 79.1458L20.6691 78.7204L21.0951 78.1885L21.3673 77.6448L21.5804 77.0066L21.6395 76.3684L21.5804 75.7302L21.3673 75.0919L21.0951 74.5483L20.6691 74.0164L20.1365 73.5909L19.6039 73.3309L18.9648 73.1064L18.3257 73.0591L17.6747 73.1064L17.0356 73.3309L16.5031 73.5909L15.9705 74.0164L15.5444 74.5483L15.2722 75.0919L15.0592 75.7302L15 76.3684Z" stroke="#212830" stroke-opacity="0.01" stroke-width="0.25" stroke-miterlimit="10"/>
</g>
</g>
<defs>
<clipPath id="clip0_600_80">
<rect width="47" height="83" fill="white"/>
</clipPath>
</defs>
</svg>
