<svg width="243" height="265" viewBox="0 0 243 265" fill="none" xmlns="http://www.w3.org/2000/svg">
<rect width="243" height="243" rx="16" fill="#E5E3ED"/>
<path d="M91.174 205.544H89.3077V194.913H87.8966V205.544H86V194.617C86 194.072 86.1366 193.647 86.4021 193.344C86.6676 193.041 87.0469 192.889 87.5325 192.889H89.1332C89.4822 192.889 89.7477 192.995 89.945 193.208C90.1346 193.42 90.2332 193.723 90.2332 194.109C90.2332 193.715 90.3319 193.42 90.5215 193.208C90.7112 192.995 90.9767 192.889 91.3181 192.889H92.9188C93.4044 192.889 93.7837 193.041 94.0568 193.344C94.3299 193.647 94.4665 194.072 94.4665 194.617V205.544H92.5547V194.913H91.174V205.544Z" fill="#898C9B"/>
<path d="M95.8393 192.897H97.7359V198.345L99.1167 197.565V192.897H101.036V203.725C101.036 204.339 100.907 204.801 100.642 205.104C100.376 205.408 99.9739 205.552 99.4353 205.552H97.3642C96.8787 205.552 96.5069 205.4 96.2338 205.097C95.9607 204.794 95.8318 204.369 95.8318 203.816V203.362L97.7284 202.286V203.551H99.1091V199.83L95.8242 201.71V192.904L95.8393 192.897Z" fill="#898C9B"/>
<path d="M107.629 192.897V205.552H105.748V199.686L104.306 200.49V205.559H102.425V192.904H104.306V198.209L105.748 197.428V192.904H107.629V192.897Z" fill="#898C9B"/>
<path d="M113.615 205.544H109.032V192.889H113.615V194.913H110.929V198.179L113.615 196.701V198.959L110.929 200.452V203.513H113.615V205.537V205.544Z" fill="#898C9B"/>
<path d="M119.995 205.544H118.098V200.187L116.687 200.967V205.544H114.79V194.617C114.79 194.072 114.927 193.647 115.193 193.344C115.458 193.041 115.837 192.889 116.323 192.889H118.447C118.933 192.889 119.312 193.041 119.585 193.344C119.858 193.647 119.995 194.072 119.995 194.617V205.544ZM118.098 197.959V194.897H116.687V198.709L118.098 197.959Z" fill="#898C9B"/>
<path d="M122.681 205.544V194.913H120.807V192.889H126.451V194.913H124.577V205.544H122.681Z" fill="#898C9B"/>
<rect x="65.05" y="10.2192" width="111.654" height="6.97692" rx="3.48846" stroke="black" stroke-width="0.5"/>
<rect class="POWER-INDICATOR" x="73.3997" y="11.4654" width="4.48462" height="4.48462" rx="2.24231" stroke="#797878" stroke-width="0.5"/>
<rect class="WI-FI-INDICATOR" x="103.681" y="11.4654" width="4.48462" height="4.48462" rx="2.24231" stroke="#797878" stroke-width="0.5"/>
<rect class="ALERT-INDICATOR" x="164.742" y="11.4654" width="4.48462" height="4.48462" rx="2.24231" stroke="#797878" stroke-width="0.5"/>
<rect class="BUS-INDICATOR" x="134.212" y="11.4654" width="4.48462" height="4.48462" rx="2.24231" stroke="#797878" stroke-width="0.5"/>
<g clip-path="url(#clip0_176_174)">
<path d="M127.492 192.303C127.492 191.031 128.565 190 129.889 190H149.096C150.419 190 151.492 191.031 151.492 192.303V205.697C151.492 206.969 150.419 208 149.096 208H129.889C128.565 208 127.492 206.969 127.492 205.697V192.303Z" fill="#FA5800"/>
<path d="M135.161 192.764C136.107 192.764 136.873 193.501 136.873 194.409V196.227L136.849 196.237L134.794 197.115V194.821H133.176V203.048H135.093V199.862L135.068 199.874L134.028 200.388V198.287L136.863 197.024L136.873 197.02V205.203H132.867C131.922 205.203 131.156 204.466 131.156 203.558V194.409C131.156 193.501 131.922 192.764 132.867 192.764H135.161Z" fill="#E5E3ED"/>
<path d="M145.535 192.863C145.535 192.827 145.566 192.797 145.603 192.797H147.76C147.798 192.797 147.829 192.827 147.829 192.863V202.439C147.829 202.475 147.798 202.505 147.76 202.505H145.603C145.566 202.505 145.535 202.475 145.535 202.439V192.863Z" fill="#E5E3ED"/>
<path d="M145.535 202.998C145.535 202.962 145.566 202.932 145.603 202.932H147.76C147.798 202.932 147.829 202.962 147.829 202.998V205.137C147.829 205.173 147.798 205.203 147.76 205.203H145.603C145.566 205.203 145.535 205.173 145.535 205.137V202.998Z" fill="#E5E3ED"/>
<path d="M142.282 192.764C143.228 192.764 143.994 193.501 143.994 194.409V203.558C143.994 204.466 143.228 205.203 142.282 205.203H139.989C139.043 205.203 138.277 204.466 138.277 203.558V194.409C138.277 193.501 139.043 192.764 139.989 192.764H142.282ZM140.365 194.574C140.327 194.574 140.297 194.603 140.297 194.64V202.998C140.297 203.035 140.327 203.064 140.365 203.064H141.906C141.944 203.064 141.974 203.035 141.974 202.998V194.64C141.974 194.603 141.944 194.574 141.906 194.574H140.365Z" fill="#E5E3ED"/>
</g>
<path d="M116.789 238.409C116.743 237.645 116.094 237.049 115.307 237.049H115.272C114.485 237.049 113.848 237.656 113.791 238.409V239.959H116.8V238.409H116.789ZM116.291 239.476H114.288V238.442C114.323 237.937 114.751 237.532 115.272 237.532H115.296C115.816 237.532 116.245 237.937 116.28 238.442V239.476H116.291Z" fill="#C8A30D"/>
<path d="M100.141 261.876V247.443H131.645V262.019" fill="#AFD5A9"/>
<path d="M100.141 261.876V247.443H131.645V262.019" stroke="#212830" stroke-width="0.25" stroke-miterlimit="10"/>
<path d="M131.645 261.612H100.141V264.279H131.645V261.612Z" fill="#5EB34A" stroke="#1D1D1B" stroke-width="0.25" stroke-miterlimit="10"/>
<path d="M131.645 242.031H100.141V247.442H131.645V242.031Z" fill="#5EB34A" stroke="#1D1D1B" stroke-width="0.25" stroke-miterlimit="10"/>
<path d="M103.405 242.031V245.884H107.493V242.031H113.976V245.884H118.063V242.031H124.349V245.884H128.437V242.031" fill="#0C9B47"/>
<path d="M103.405 242.031V245.884H107.493V242.031H113.976V245.884H118.063V242.031H124.349V245.884H128.437V242.031" stroke="#212830" stroke-width="0.25" stroke-miterlimit="10"/>
<path class="1-WIRE-V+" d="M123.723 251.8L129.442 257.518M122.425 254.654L122.482 255.444L122.744 256.223L123.074 256.871L123.597 257.518L124.246 258.034L124.895 258.363L125.68 258.627L126.465 258.693L127.239 258.627L128.024 258.363L128.673 258.034L129.322 257.518L129.845 256.871L130.175 256.223L130.437 255.444L130.494 254.654L130.437 253.874L130.175 253.095L129.845 252.447L129.322 251.8L128.673 251.284L128.024 250.955L127.239 250.691L126.465 250.625L125.68 250.691L124.895 250.955L124.246 251.284L123.597 251.8L123.074 252.447L122.744 253.095L122.482 253.874L122.425 254.654Z" stroke="#212830" stroke-width="0.25" stroke-miterlimit="10" stroke-linecap="square"/>
<path class="1-WIRE-DAT" d="M113.118 251.8L118.838 257.518M111.986 254.665L112.054 255.444L112.316 256.223L112.645 256.871L113.157 257.518L113.816 258.034L114.464 258.363L115.248 258.627L116.021 258.693L116.805 258.627L117.589 258.363L118.237 258.034L118.884 257.518L119.407 256.871L119.725 256.223L119.987 255.444L120.055 254.665L119.987 253.874L119.725 253.095L119.407 252.447L118.884 251.8L118.237 251.284L117.589 250.955L116.805 250.691L116.021 250.625L115.248 250.691L114.464 250.955L113.816 251.284L113.157 251.8L112.645 252.447L112.316 253.095L112.054 253.874L111.986 254.665Z" stroke="#212830" stroke-width="0.25" stroke-miterlimit="10" stroke-linecap="square"/>
<path class="1-WIRE-GND" d="M102.679 251.8L108.399 257.518M101.548 254.665L101.616 255.444L101.877 256.223L102.207 256.871L102.718 257.518L103.378 258.034L104.025 258.363L104.798 258.627L105.582 258.693L106.366 258.627L107.15 258.363L107.798 258.034L108.446 257.518L108.969 256.871L109.287 256.223L109.548 255.444L109.617 254.665L109.548 253.874L109.287 253.095L108.969 252.447L108.446 251.8L107.798 251.284L107.15 250.955L106.366 250.691L105.582 250.625L104.798 250.691L104.025 250.955L103.378 251.284L102.718 251.8L102.207 252.447L101.877 253.095L101.616 253.874L101.548 254.665Z" stroke="#212830" stroke-width="0.25" stroke-miterlimit="10" stroke-linecap="square"/>
<path d="M116.305 238.387C116.272 237.839 115.821 237.4 115.261 237.4H115.239C114.679 237.4 114.228 237.839 114.195 238.387V239.518H116.316V238.387H116.305Z" fill="#FBD312"/>
<path d="M127.601 238.354C127.546 237.531 126.876 236.873 126.04 236.873H126.007C125.172 236.873 124.502 237.531 124.447 238.354V240.045H127.623V238.354H127.601Z" fill="#BE1622"/>
<path d="M107.009 238.624C106.954 237.801 106.283 237.142 105.448 237.142H105.415C104.58 237.142 103.91 237.801 103.855 238.624V238.733V240.325H107.031V238.635L107.009 238.624Z" fill="#2E2D2C"/>
<path d="M115.829 230.643H115.093H104.783V232.5H105.446V231.458H115.093V232.5H115.177H115.745H115.829V231.458H125.477V232.5H126.139V230.643H115.829Z" fill="#2E2D2C"/>
<path d="M125.161 236.269L124.601 233.613H124.931L125.337 235.808L125.744 233.613H126.073L125.513 236.269H125.139H125.161Z" fill="#3C3C3B"/>
<path d="M126.205 234.908H127.293V235.193H126.205V234.908ZM126.898 234.304V235.786H126.59V234.304H126.898Z" fill="#3C3C3B"/>
<path d="M113.118 236.269V233.613H113.437V236.269H113.118ZM113.305 236.269V235.984H113.898C113.964 235.984 114.019 235.962 114.052 235.929C114.085 235.896 114.107 235.841 114.107 235.764V234.118C114.107 234.052 114.085 233.997 114.052 233.953C114.019 233.92 113.964 233.898 113.898 233.898H113.305V233.613H113.887C114.063 233.613 114.195 233.657 114.283 233.745C114.371 233.832 114.426 233.964 114.426 234.129V235.753C114.426 235.863 114.404 235.951 114.36 236.038C114.316 236.115 114.261 236.17 114.173 236.214C114.096 236.258 113.997 236.269 113.876 236.269H113.294H113.305Z" fill="#3C3C3B"/>
<path d="M114.558 236.269L115.195 233.613H115.525L116.162 236.269H115.811L115.349 234.03L114.888 236.269H114.536H114.558ZM114.943 235.654V235.369H115.822V235.654H114.943Z" fill="#3C3C3B"/>
<path d="M116.151 233.909V233.624H117.492V233.909H116.151ZM116.657 236.269V233.833H116.975V236.269H116.657Z" fill="#3C3C3B"/>
<path d="M111.997 226.928V229.585H111.678V227.225L111.217 227.499V227.181L111.612 226.928H112.008H111.997Z" fill="#3C3C3B"/>
<path d="M112.404 228.487H113.382V228.773H112.404V228.487Z" fill="#3C3C3B"/>
<path d="M114.129 229.585L113.679 227.686H113.986L114.272 229.157L114.58 227.686H114.8L115.107 229.157L115.393 227.686H115.701L115.25 229.585H114.975L114.69 228.278L114.404 229.585H114.129Z" fill="#3C3C3B"/>
<path d="M116.03 227.291V226.984H116.348V227.291H116.03ZM116.03 229.585V227.686H116.348V229.585H116.03Z" fill="#3C3C3B"/>
<path d="M116.789 229.585V227.686H117.108V229.585H116.789ZM117.69 227.949H117.646C117.481 227.949 117.349 227.982 117.251 228.059C117.152 228.136 117.108 228.246 117.097 228.377L117.053 228.015C117.119 227.906 117.207 227.807 117.317 227.752C117.426 227.697 117.547 227.653 117.679 227.653V227.949H117.69Z" fill="#3C3C3B"/>
<path d="M118.525 229.607C118.338 229.607 118.184 229.552 118.085 229.442C117.986 229.332 117.931 229.179 117.931 228.981V228.323C117.931 228.114 117.986 227.949 118.085 227.829C118.184 227.708 118.327 227.653 118.514 227.653C118.7 227.653 118.843 227.708 118.953 227.818C119.052 227.927 119.107 228.081 119.107 228.279V228.762H118.14V228.498H118.799V228.29C118.799 228.18 118.777 228.092 118.722 228.037C118.667 227.982 118.601 227.949 118.514 227.949C118.426 227.949 118.36 227.982 118.305 228.048C118.25 228.114 118.228 228.202 118.228 228.323V229.014C118.228 229.124 118.25 229.201 118.305 229.267C118.36 229.332 118.426 229.354 118.525 229.354C118.612 229.354 118.678 229.332 118.722 229.288C118.766 229.245 118.799 229.179 118.788 229.091H119.096C119.096 229.278 119.041 229.409 118.942 229.508C118.843 229.607 118.7 229.651 118.514 229.651L118.525 229.607Z" fill="#3C3C3B"/>
<path d="M103.69 234.69H104.361V235.459C104.361 235.601 104.339 235.722 104.284 235.832C104.229 235.931 104.152 236.007 104.053 236.062C103.954 236.117 103.833 236.139 103.69 236.139C103.547 236.139 103.427 236.117 103.328 236.062C103.229 236.007 103.152 235.942 103.097 235.843C103.042 235.744 103.02 235.634 103.02 235.492V234.109C103.02 233.966 103.042 233.845 103.097 233.735C103.152 233.637 103.229 233.56 103.328 233.505C103.427 233.45 103.547 233.428 103.69 233.428C103.833 233.428 103.943 233.45 104.042 233.505C104.141 233.56 104.218 233.637 104.262 233.735C104.317 233.834 104.339 233.955 104.339 234.098V234.229H103.998V234.098C103.998 233.977 103.976 233.889 103.921 233.823C103.866 233.757 103.789 233.724 103.69 233.724C103.58 233.724 103.493 233.757 103.438 233.823C103.383 233.889 103.35 233.988 103.35 234.109V235.492C103.35 235.601 103.383 235.689 103.449 235.744C103.514 235.81 103.602 235.832 103.712 235.832C103.822 235.832 103.91 235.799 103.965 235.733C104.031 235.667 104.053 235.568 104.053 235.459V234.965H103.701V234.679L103.69 234.69Z" fill="#3C3C3B"/>
<path d="M104.701 236.117V233.461H104.987L105.8 235.568L105.745 235.612V233.461H106.053V236.117H105.756L104.943 234.043L104.998 233.999V236.117H104.69H104.701Z" fill="#3C3C3B"/>
<path d="M106.449 236.117V233.461H106.768V236.117H106.449ZM106.636 236.117V235.832H107.229C107.295 235.832 107.35 235.81 107.383 235.777C107.416 235.744 107.438 235.689 107.438 235.612V233.966C107.438 233.9 107.416 233.845 107.383 233.801C107.35 233.768 107.295 233.746 107.229 233.746H106.636V233.461H107.218C107.394 233.461 107.526 233.505 107.614 233.593C107.702 233.68 107.757 233.812 107.757 233.977V235.601C107.757 235.711 107.735 235.799 107.691 235.887C107.647 235.963 107.592 236.018 107.504 236.062C107.427 236.106 107.328 236.117 107.207 236.117H106.625H106.636Z" fill="#3C3C3B"/>
<path d="M100.241 261.645V247.486H79V261.645" fill="#AFD5A9"/>
<path d="M100.241 261.645V247.486H79V261.645" stroke="#212830" stroke-width="0.25" stroke-miterlimit="10"/>
<path d="M100.241 261.645H79V264.313H100.241V261.645Z" fill="#5EB34A" stroke="#1D1D1B" stroke-width="0.25" stroke-miterlimit="10"/>
<path d="M100.241 242.064H79V247.486H100.241V242.064Z" fill="#5EB34A" stroke="#1D1D1B" stroke-width="0.25" stroke-miterlimit="10"/>
<path d="M96.5 242V246H92.5V242H87V246H83L83 242" fill="#0C9B47"/>
<path d="M96.5 242V246H92.5V242H87V246H83L83 242" stroke="#212830" stroke-width="0.25" stroke-miterlimit="10"/>
<path class="BUS-A" d="M88.6858 254.632L88.6177 253.852L88.3567 253.073L88.0275 252.425L87.5167 251.778L86.8583 251.251L86.2113 250.933L85.4394 250.669L84.6561 250.604L83.8729 250.669L83.101 250.933L82.4426 251.251L81.7956 251.778L81.2735 252.425L80.9556 253.073L80.6945 253.852L80.6264 254.632L80.6945 255.411L80.9556 256.19L81.2735 256.838L81.7956 257.496L82.4426 258.012L83.101 258.331L83.8729 258.594L84.6561 258.66L85.4394 258.594L86.2113 258.331L86.8583 258.012L87.5167 257.496L88.0275 256.838L88.3567 256.19L88.6177 255.411L88.6858 254.632Z" fill="#C8C8CA"/>
<path d="M81.7255 251.745L87.5101 257.529M88.6858 254.632L88.6177 253.852L88.3567 253.073L88.0275 252.425L87.5167 251.778L86.8583 251.251L86.2113 250.933L85.4394 250.669L84.6561 250.604L83.8729 250.669L83.101 250.933L82.4426 251.251L81.7956 251.778L81.2735 252.425L80.9556 253.073L80.6945 253.852L80.6264 254.632L80.6945 255.411L80.9556 256.19L81.2735 256.838L81.7956 257.496L82.4426 258.012L83.101 258.331L83.8729 258.594L84.6561 258.66L85.4394 258.594L86.2113 258.331L86.8583 258.012L87.5167 257.496L88.0275 256.838L88.3567 256.19L88.6177 255.411L88.6858 254.632Z" stroke="#212830" stroke-width="0.25" stroke-miterlimit="10"/>
<path class="BUS-B" d="M98.4987 254.566L98.4305 253.786L98.1691 253.007L97.8508 252.36L97.3279 251.712L96.68 251.196L96.0207 250.867L95.2477 250.603L94.4633 250.538L93.679 250.603L92.906 250.867L92.2581 251.196L91.5988 251.712L91.0873 252.36L90.7576 253.007L90.4962 253.786L90.4393 254.566L90.4962 255.345L90.7576 256.124L91.0873 256.772L91.5988 257.43L92.2581 257.946L92.906 258.276L93.679 258.528L94.4633 258.594L95.2477 258.528L96.0207 258.276L96.68 257.946L97.3279 257.43L97.8508 256.772L98.1691 256.124L98.4305 255.345L98.4987 254.566Z" fill="#C8C8CA"/>
<path d="M91.5384 251.679L97.2951 257.463M98.4987 254.566L98.4305 253.786L98.1691 253.007L97.8508 252.36L97.3279 251.712L96.68 251.196L96.0207 250.867L95.2477 250.603L94.4633 250.538L93.679 250.603L92.906 250.867L92.2581 251.196L91.5988 251.712L91.0873 252.36L90.7576 253.007L90.4962 253.786L90.4393 254.566L90.4962 255.345L90.7576 256.124L91.0873 256.772L91.5988 257.43L92.2581 257.946L92.906 258.276L93.679 258.528L94.4633 258.594L95.2477 258.528L96.0207 258.276L96.68 257.946L97.3279 257.43L97.8508 256.772L98.1691 256.124L98.4305 255.345L98.4987 254.566Z" stroke="#212830" stroke-width="0.25" stroke-miterlimit="10"/>
<path d="M95.3074 238.387C95.2524 237.564 94.5821 236.906 93.747 236.906H93.714C92.8789 236.906 92.2086 237.564 92.1537 238.387V238.497V240.089H95.3294V238.398L95.3074 238.387ZM94.7799 239.551H92.6591V238.42C92.6921 237.872 93.1426 237.432 93.703 237.432H93.725C94.2854 237.432 94.736 237.872 94.7689 238.42V239.551H94.7799Z" fill="#1D71B8"/>
<path d="M82.5278 230.968V232.669H83.2091V231.714H93.3955V232.669H94.0768V230.968H82.5278Z" fill="#2E2D2C"/>
<path d="M84.5277 238.387C84.4728 237.564 83.8025 236.906 82.9673 236.906H82.9344C82.6047 236.906 82.308 237.004 82.0553 237.18C81.6597 237.443 81.4069 237.882 81.374 238.387V240.078H84.5497V238.387H84.5277Z" fill="#1D71B8"/>
<path d="M86.0989 229.617V226.961H86.4176V229.617H86.0989ZM86.3297 229.617V229.331H86.8242C86.9011 229.331 86.967 229.31 87.011 229.277C87.0549 229.244 87.0769 229.178 87.0769 229.112V228.706C87.0769 228.607 87.0549 228.519 87 228.464C86.9451 228.41 86.8791 228.377 86.8022 228.377H86.3187V228.091H86.8022C86.8791 228.091 86.9341 228.069 86.978 228.014C87.022 227.96 87.044 227.894 87.044 227.795V227.466C87.044 227.4 87.022 227.345 86.978 227.301C86.9341 227.257 86.8791 227.246 86.8022 227.246H86.3187V226.961H86.7912C86.967 226.961 87.1099 227.005 87.2088 227.092C87.3077 227.18 87.3516 227.301 87.3516 227.455V227.773C87.3516 227.894 87.3297 228.003 87.2747 228.08C87.2198 228.157 87.1429 228.212 87.044 228.234C87.1538 228.256 87.2418 228.3 87.2967 228.388C87.3516 228.475 87.3846 228.585 87.3846 228.717V229.101C87.3846 229.266 87.3406 229.386 87.2417 229.474C87.1429 229.562 87.011 229.606 86.8352 229.606H86.3077L86.3297 229.617Z" fill="#3C3C3B"/>
<path d="M88.2856 229.64C88.0768 229.64 87.9229 229.585 87.8131 229.486C87.7032 229.376 87.6482 229.222 87.6482 229.025V226.972H87.9669V229.047C87.9669 229.146 87.9889 229.222 88.0438 229.277C88.0988 229.332 88.1757 229.354 88.2746 229.354C88.3735 229.354 88.4614 229.332 88.5053 229.277C88.5493 229.222 88.5823 229.146 88.5823 229.047V226.972H88.9009V229.025C88.9009 229.233 88.846 229.387 88.7361 229.486C88.6262 229.596 88.4724 229.64 88.2636 229.64H88.2856Z" fill="#3C3C3B"/>
<path d="M89.8569 229.64C89.714 229.64 89.5821 229.618 89.4832 229.574C89.3843 229.53 89.3074 229.453 89.2525 229.365C89.1975 229.277 89.1756 229.157 89.1756 229.025V228.893H89.4942V229.014C89.4942 229.124 89.5272 229.211 89.5821 229.266C89.6481 229.321 89.736 229.354 89.8459 229.354C89.9558 229.354 90.0437 229.321 90.1096 229.266C90.1645 229.211 90.1975 229.124 90.1975 229.014V228.816C90.1975 228.729 90.1755 228.663 90.1316 228.608C90.0876 228.553 90.0327 228.509 89.9777 228.476C89.9118 228.443 89.8459 228.399 89.769 228.366C89.703 228.333 89.6261 228.3 89.5602 228.268C89.4942 228.235 89.4283 228.191 89.3734 228.136C89.3184 228.081 89.2745 228.026 89.2305 227.949C89.1866 227.872 89.1756 227.785 89.1756 227.686V227.543C89.1756 227.346 89.2305 227.192 89.3514 227.082C89.4613 226.983 89.6261 226.928 89.8459 226.928C90.0656 226.928 90.2195 226.983 90.3294 227.082C90.4392 227.192 90.4942 227.346 90.4942 227.543V227.686H90.1755V227.554C90.1755 227.444 90.1426 227.357 90.0876 227.302C90.0327 227.247 89.9448 227.214 89.8349 227.214C89.725 227.214 89.6261 227.236 89.5712 227.291C89.5162 227.346 89.4832 227.422 89.4832 227.532V227.675C89.4832 227.763 89.5052 227.828 89.5492 227.883C89.5931 227.938 89.6591 227.982 89.725 228.015C89.8019 228.048 89.8788 228.092 89.9558 228.125C90.0217 228.158 90.0876 228.191 90.1535 228.224C90.2195 228.257 90.2744 228.3 90.3294 228.344C90.3843 228.388 90.4283 228.454 90.4502 228.531C90.4832 228.608 90.4942 228.696 90.4942 228.794V229.003C90.4942 229.211 90.4392 229.365 90.3294 229.464C90.2195 229.574 90.0547 229.618 89.8349 229.618L89.8569 229.64Z" fill="#3C3C3B"/>
<path d="M131.5 261.876V247.443H163.004V262.019" fill="#AFD5A9"/>
<path d="M131.5 261.876V247.443H163.004V262.019" stroke="#212830" stroke-width="0.25" stroke-miterlimit="10"/>
<path d="M163.004 261.612H131.5V264.279H163.004V261.612Z" fill="#5EB34A" stroke="#1D1D1B" stroke-width="0.25" stroke-miterlimit="10"/>
<path d="M163.004 242.031H131.5V247.442H163.004V242.031Z" fill="#5EB34A" stroke="#1D1D1B" stroke-width="0.25" stroke-miterlimit="10"/>
<path d="M134.843 242.031V245.884H138.87V242.031H145.257V245.884H149.284V242.031H155.477V245.884H159.504V242.031" fill="#0C9B47"/>
<path d="M134.843 242.031V245.884H138.87V242.031H145.257V245.884H149.284V242.031H155.477V245.884H159.504V242.031" stroke="#212830" stroke-width="0.25" stroke-miterlimit="10"/>
<path d="M155.082 251.8L160.801 257.518M153.95 254.654L154.007 255.444L154.268 256.223L154.598 256.871L155.122 257.518L155.771 258.034L156.419 258.363L157.204 258.627L157.99 258.693L158.764 258.627L159.549 258.363L160.197 258.034L160.846 257.518L161.37 256.871L161.7 256.223L161.961 255.444L162.018 254.654L161.961 253.874L161.7 253.095L161.37 252.447L160.846 251.8L160.197 251.284L159.549 250.955L158.764 250.691L157.99 250.625L157.204 250.691L156.419 250.955L155.771 251.284L155.122 251.8L154.598 252.447L154.268 253.095L154.007 253.874L153.95 254.654Z" stroke="#212830" stroke-width="0.25" stroke-miterlimit="10" stroke-linecap="square"/>
<path class="RELAY-1-COM" d="M144.478 251.8L150.197 257.518M143.346 254.665L143.414 255.444L143.675 256.223L144.005 256.871L144.516 257.518L145.175 258.034L145.823 258.363L146.607 258.627L147.38 258.693L148.164 258.627L148.948 258.363L149.596 258.034L150.244 257.518L150.767 256.871L151.085 256.223L151.346 255.444L151.414 254.665L151.346 253.874L151.085 253.095L150.767 252.447L150.244 251.8L149.596 251.284L148.948 250.955L148.164 250.691L147.38 250.625L146.607 250.691L145.823 250.955L145.175 251.284L144.516 251.8L144.005 252.447L143.675 253.095L143.414 253.874L143.346 254.665Z" stroke="#212830" stroke-width="0.25" stroke-miterlimit="10" stroke-linecap="square"/>
<path class="RELAY-1-NO" d="M134.039 251.8L139.758 257.518M132.907 254.665L132.975 255.444L133.236 256.223L133.566 256.871L134.077 257.518L134.736 258.034L135.384 258.363L136.157 258.627L136.941 258.693L137.725 258.627L138.509 258.363L139.157 258.034L139.805 257.518L140.328 256.871L140.646 256.223L140.907 255.444L140.976 254.665L140.907 253.874L140.646 253.095L140.328 252.447L139.805 251.8L139.157 251.284L138.509 250.955L137.725 250.691L136.941 250.625L136.157 250.691L135.384 250.955L134.736 251.284L134.077 251.8L133.566 252.447L133.236 253.095L132.975 253.874L132.907 254.665Z" stroke="#212830" stroke-width="0.25" stroke-miterlimit="10" stroke-linecap="square"/>
<path d="M157.367 237.07H157.4C158.071 237.071 158.616 237.6 158.661 238.272L158.68 238.553H158.683V239.643H156.107V238.272C156.151 237.6 156.697 237.07 157.367 237.07Z" stroke="black" stroke-width="0.6"/>
<path d="M135.819 237.173H135.852C136.522 237.173 137.068 237.702 137.113 238.375L137.125 238.547L137.134 238.551V239.756H134.558V238.375C134.603 237.702 135.149 237.173 135.819 237.173Z" stroke="black" stroke-width="0.6"/>
<path d="M147.22 237.271H147.254C147.814 237.271 148.277 237.713 148.315 238.285L148.334 238.571H148.336V239.453H146.16V238.276C146.202 237.709 146.663 237.271 147.22 237.271Z" fill="black" stroke="black"/>
<path d="M146.994 230.935H146.225H135.445V232.636H136.138V231.681L146.906 231.681L146.906 232.636H147.749V231.681L157.082 231.681V232.636H157.774V230.935H146.994Z" fill="#2E2D2C"/>
<path d="M155.92 236.176V233.651H156.189L156.969 235.656L156.923 235.703V233.651H157.22V236.176H156.941L156.171 234.199L156.217 234.152V236.176H155.92Z" fill="#3C3C3B"/>
<path d="M158.195 236.204C158.065 236.204 157.953 236.176 157.86 236.13C157.767 236.074 157.702 236.009 157.647 235.907C157.6 235.814 157.572 235.694 157.572 235.554V234.264C157.572 234.124 157.6 234.004 157.647 233.911C157.693 233.818 157.767 233.744 157.86 233.688C157.953 233.632 158.065 233.614 158.195 233.614C158.325 233.614 158.436 233.642 158.529 233.688C158.622 233.734 158.687 233.809 158.733 233.911C158.78 234.013 158.807 234.124 158.807 234.264V234.366H158.501V234.264C158.501 234.189 158.492 234.115 158.464 234.069C158.436 234.013 158.408 233.976 158.362 233.948C158.315 233.92 158.26 233.902 158.195 233.902C158.102 233.902 158.018 233.929 157.972 233.994C157.925 234.059 157.888 234.152 157.888 234.264V235.554C157.888 235.666 157.916 235.759 157.972 235.824C158.027 235.889 158.102 235.916 158.195 235.916C158.287 235.916 158.371 235.889 158.427 235.824C158.482 235.759 158.51 235.666 158.51 235.554V235.452H158.817V235.554C158.817 235.694 158.789 235.805 158.742 235.907C158.696 236.009 158.622 236.074 158.538 236.13C158.445 236.176 158.334 236.204 158.204 236.204H158.195Z" fill="#3C3C3B"/>
<path d="M142.642 229.183V226H143.027V229.183H142.642ZM142.873 227.954V227.613H143.543C143.642 227.613 143.719 227.581 143.763 227.526C143.818 227.46 143.84 227.383 143.84 227.273V226.724C143.84 226.615 143.818 226.516 143.763 226.461C143.708 226.395 143.631 226.373 143.532 226.373H142.862V226.033H143.521C143.675 226.033 143.796 226.055 143.906 226.121C144.016 226.176 144.093 226.252 144.148 226.362C144.203 226.461 144.236 226.593 144.236 226.735V227.306C144.236 227.449 144.203 227.57 144.148 227.668C144.093 227.767 144.016 227.844 143.906 227.899C143.796 227.954 143.675 227.976 143.521 227.976H142.862L142.873 227.954Z" fill="#3C3C3B"/>
<path d="M145.182 229.216C144.951 229.216 144.775 229.15 144.654 229.018C144.522 228.887 144.467 228.7 144.467 228.459V227.668C144.467 227.416 144.533 227.218 144.654 227.076C144.775 226.933 144.951 226.867 145.171 226.867C145.39 226.867 145.577 226.933 145.698 227.065C145.819 227.196 145.885 227.372 145.885 227.614V228.195H144.72V227.877H145.511V227.625C145.511 227.493 145.478 227.394 145.423 227.317C145.368 227.251 145.281 227.207 145.171 227.207C145.061 227.207 144.984 227.251 144.929 227.317C144.874 227.394 144.841 227.504 144.841 227.646V228.47C144.841 228.601 144.874 228.7 144.929 228.766C144.984 228.832 145.072 228.876 145.182 228.876C145.281 228.876 145.368 228.854 145.423 228.799C145.478 228.744 145.511 228.667 145.511 228.568L145.885 228.557C145.885 228.777 145.819 228.942 145.698 229.051C145.577 229.161 145.401 229.227 145.182 229.227V229.216Z" fill="#3C3C3B"/>
<path d="M146.06 229.205V228.865C146.126 228.865 146.181 228.843 146.214 228.799C146.247 228.755 146.269 228.7 146.269 228.623V226.911H146.654V228.656C146.654 228.832 146.61 228.974 146.511 229.062C146.412 229.15 146.28 229.205 146.115 229.205H146.071H146.06ZM146.555 227.262V226.922H147.346V227.262H146.555ZM147.181 229.183V226.911H147.566V229.183H147.181Z" fill="#3C3C3B"/>
<path d="M148.741 229.216C148.51 229.216 148.335 229.15 148.214 229.018C148.082 228.887 148.027 228.7 148.027 228.459V227.668C148.027 227.416 148.093 227.218 148.214 227.076C148.335 226.933 148.51 226.867 148.73 226.867C148.95 226.867 149.137 226.933 149.258 227.065C149.379 227.196 149.444 227.372 149.444 227.614V228.195H148.28V227.877H149.071V227.625C149.071 227.493 149.038 227.394 148.983 227.317C148.928 227.251 148.84 227.207 148.73 227.207C148.62 227.207 148.543 227.251 148.488 227.317C148.434 227.394 148.401 227.504 148.401 227.646V228.47C148.401 228.601 148.434 228.7 148.488 228.766C148.543 228.832 148.631 228.876 148.741 228.876C148.84 228.876 148.928 228.854 148.983 228.799C149.038 228.744 149.071 228.667 149.071 228.568L149.444 228.557C149.444 228.777 149.379 228.942 149.258 229.051C149.137 229.161 148.961 229.227 148.741 229.227V229.216Z" fill="#3C3C3B"/>
<path d="M134.286 235.991V233.465H134.555L135.335 235.471L135.289 235.517V233.465H135.586V235.991H135.308L134.537 234.013L134.583 233.966V235.991H134.286Z" fill="#3C3C3B"/>
<path d="M145.751 235.922C145.624 235.922 145.508 235.9 145.427 235.844C145.335 235.799 145.265 235.72 145.219 235.63C145.173 235.54 145.149 235.428 145.149 235.293V234.057C145.149 233.922 145.173 233.81 145.219 233.72C145.265 233.63 145.335 233.552 145.427 233.507C145.52 233.462 145.624 233.428 145.751 233.428C145.879 233.428 145.995 233.451 146.087 233.507C146.18 233.552 146.249 233.63 146.296 233.72C146.342 233.81 146.365 233.922 146.365 234.057V234.158H146.064V234.057C146.064 233.979 146.052 233.922 146.029 233.866C146.006 233.81 145.971 233.776 145.925 233.743C145.879 233.72 145.821 233.698 145.763 233.698C145.67 233.698 145.589 233.731 145.543 233.788C145.485 233.844 145.462 233.934 145.462 234.046V235.282C145.462 235.394 145.485 235.484 145.543 235.54C145.601 235.596 145.67 235.63 145.763 235.63C145.856 235.63 145.937 235.596 145.995 235.54C146.052 235.484 146.076 235.394 146.076 235.282V235.181H146.377V235.282C146.377 235.417 146.353 235.529 146.307 235.619C146.261 235.709 146.191 235.787 146.099 235.832C146.006 235.877 145.902 235.911 145.763 235.911L145.751 235.922Z" fill="#3C3C3B"/>
<path d="M147.284 235.911C147.145 235.911 147.029 235.889 146.936 235.844C146.844 235.799 146.763 235.731 146.716 235.63C146.67 235.54 146.635 235.428 146.635 235.293V234.035C146.635 233.9 146.659 233.788 146.716 233.698C146.763 233.608 146.844 233.541 146.936 233.496C147.029 233.451 147.145 233.428 147.284 233.428C147.423 233.428 147.538 233.451 147.631 233.496C147.724 233.541 147.805 233.608 147.851 233.698C147.897 233.788 147.932 233.9 147.932 234.035V235.293C147.932 235.428 147.909 235.54 147.851 235.63C147.805 235.72 147.724 235.788 147.631 235.844C147.538 235.889 147.423 235.911 147.284 235.911ZM147.284 235.641C147.399 235.641 147.481 235.608 147.538 235.552C147.596 235.495 147.631 235.417 147.631 235.316V234.035C147.631 233.934 147.596 233.844 147.538 233.788C147.481 233.732 147.388 233.698 147.284 233.698C147.18 233.698 147.087 233.732 147.029 233.788C146.971 233.844 146.936 233.923 146.936 234.035V235.316C146.936 235.417 146.971 235.495 147.029 235.552C147.087 235.608 147.18 235.641 147.284 235.641Z" fill="#3C3C3B"/>
<path d="M136.513 236C136.374 236 136.258 235.977 136.165 235.931C136.073 235.886 135.992 235.817 135.945 235.714C135.899 235.623 135.864 235.508 135.864 235.371V234.091C135.864 233.954 135.888 233.84 135.945 233.749C135.992 233.657 136.073 233.589 136.165 233.543C136.258 233.497 136.374 233.474 136.513 233.474C136.652 233.474 136.767 233.497 136.86 233.543C136.953 233.589 137.034 233.657 137.08 233.749C137.126 233.84 137.161 233.954 137.161 234.091V235.371C137.161 235.508 137.138 235.623 137.08 235.714C137.034 235.806 136.953 235.874 136.86 235.931C136.767 235.977 136.652 236 136.513 236ZM136.513 235.726C136.628 235.726 136.71 235.691 136.767 235.634C136.825 235.577 136.86 235.497 136.86 235.394V234.091C136.86 233.989 136.825 233.897 136.767 233.84C136.71 233.783 136.617 233.749 136.513 233.749C136.409 233.749 136.316 233.783 136.258 233.84C136.2 233.897 136.165 233.977 136.165 234.091V235.394C136.165 235.497 136.2 235.577 136.258 235.634C136.316 235.691 136.409 235.726 136.513 235.726Z" fill="#3C3C3B"/>
<path d="M149.045 235.11L149.594 233.428H149.868V235.91H149.594V233.972L149.614 234.084L149.147 235.531H148.934L148.467 234.115L148.497 233.972V235.91H148.213V233.428H148.487L149.035 235.11H149.045Z" fill="#3C3C3B"/>
<path fill-rule="evenodd" clip-rule="evenodd" d="M125 99.1616C122.346 100.896 119.927 103.471 117.741 106.86C116.233 109.093 114.646 112.062 112.954 115.793C111.94 118.001 110.379 121.81 108.22 127.17C106.919 130.481 105.696 133.03 104.577 134.764C103.302 137.102 101.481 139.441 99.0878 141.805C95.7577 145.221 91.9333 147.849 87.5626 149.688C84.6748 150.844 82.0732 151.58 79.7577 151.869L77 152L79.4195 149.977L85.1951 144.275C87.6406 141.595 89.6439 138.915 91.2569 136.156C92.3496 134.291 93.1301 132.741 93.5984 131.479L95.8098 125.752C97.6569 120.891 100.363 116.214 103.901 111.773C107.205 107.675 110.639 104.495 114.177 102.288C117.091 100.449 119.797 99.3718 122.294 99.0302C123.543 98.9777 124.454 98.9777 125 99.1616Z" fill="#898C9B"/>
<path fill-rule="evenodd" clip-rule="evenodd" d="M143 99.1732C140.402 100.907 138.033 103.481 135.893 106.87C134.415 109.103 132.861 112.071 131.205 115.801C130.212 118.008 128.683 121.817 126.569 127.176C125.295 130.486 124.098 133.034 123.003 134.768C121.754 137.106 119.971 139.443 117.628 141.808C114.367 145.223 110.622 147.85 106.343 149.688C103.515 150.844 100.967 151.58 98.7003 151.869L96 152L98.3691 149.977L104.024 144.277C106.419 141.598 108.38 138.918 109.96 136.16C111.03 134.295 111.794 132.745 112.253 131.484L114.418 125.757C116.227 120.898 118.876 116.222 122.34 111.782C125.576 107.684 128.938 104.506 132.403 102.299C135.256 100.46 137.905 99.3834 140.351 99.0419C141.573 98.9631 142.44 98.9893 143 99.1732Z" fill="#878C9B"/>
<path fill-rule="evenodd" clip-rule="evenodd" d="M162 99.1616C159.291 100.896 156.821 103.471 154.59 106.86C153.05 109.093 151.43 112.062 149.704 115.793C148.668 118.001 147.074 121.81 144.87 127.17C143.542 130.481 142.294 133.03 141.152 134.764C139.85 137.102 137.991 139.441 135.548 141.805C132.149 145.221 128.244 147.849 123.783 149.688C120.835 150.844 118.179 151.58 115.815 151.869L113 152L115.47 149.977L121.366 144.275C123.862 141.595 125.907 138.915 127.554 136.156C128.669 134.291 129.466 132.741 129.944 131.479L132.202 125.752C134.087 120.891 136.849 116.214 140.461 111.773C143.834 107.675 147.34 104.495 150.952 102.288C153.926 100.449 156.688 99.3718 159.238 99.0302C160.513 98.9777 161.442 98.9777 162 99.1616Z" fill="#898C9B"/>
<g filter="url(#filter0_di_176_174)">
<rect x="177" y="60.5513" width="54.5198" height="20.6375" rx="10.3187" transform="rotate(-45 177 60.5513)" fill="#E5E4EE"/>
</g>
<g filter="url(#filter1_di_176_174)">
<rect x="50.5513" y="74.1443" width="54.5198" height="20.6375" rx="10.3187" transform="rotate(-135 50.5513 74.1443)" fill="#E5E4EE"/>
</g>
<g filter="url(#filter2_di_176_174)">
<rect x="65.144" y="191.593" width="54.5198" height="20.6375" rx="10.3187" transform="rotate(135 65.144 191.593)" fill="#E5E4EE"/>
</g>
<g filter="url(#filter3_di_176_174)">
<rect x="191.593" y="178" width="54.5198" height="20.6375" rx="10.3187" transform="rotate(45 191.593 178)" fill="#E5E4EE"/>
</g>
<g clip-path="url(#clip1_176_174)">
<path d="M75.7046 26.7401V24.2308" stroke="#908A98" stroke-width="0.5" stroke-linecap="round"/>
<path d="M77.3666 24.7146C78.1278 25.2354 78.6251 26.0957 78.6251 27.0689C78.6251 28.6582 77.2987 29.9465 75.6625 29.9465C74.0264 29.9465 72.7 28.6582 72.7 27.0689C72.7 26.0957 73.1973 25.2354 73.9585 24.7146L74.2783 25.0253C73.5952 25.4627 73.1444 26.2146 73.1444 27.0689C73.1444 28.4198 74.2718 29.5149 75.6625 29.5149C77.0533 29.5149 78.1807 28.4198 78.1807 27.0689C78.1807 26.2146 77.7299 25.4627 77.0468 25.0253L77.3666 24.7146Z" fill="#908A98"/>
<mask id="mask0_176_174" style="mask-type:luminance" maskUnits="userSpaceOnUse" x="72" y="24" width="7" height="6">
<path d="M77.3666 24.7146C78.1278 25.2354 78.6251 26.0957 78.6251 27.0689C78.6251 28.6582 77.2987 29.9465 75.6625 29.9465C74.0264 29.9465 72.7 28.6582 72.7 27.0689C72.7 26.0957 73.1973 25.2354 73.9585 24.7146L74.2783 25.0253C73.5952 25.4627 73.1444 26.2146 73.1444 27.0689C73.1444 28.4198 74.2718 29.5149 75.6625 29.5149C77.0533 29.5149 78.1807 28.4198 78.1807 27.0689C78.1807 26.2146 77.7299 25.4627 77.0468 25.0253L77.3666 24.7146Z" fill="white"/>
</mask>
<g mask="url(#mask0_176_174)">
<path d="M77.3666 24.7146L77.6388 24.3369L77.3136 24.1144L77.0322 24.3877L77.3666 24.7146ZM73.9585 24.7146L74.2929 24.3877L74.0115 24.1144L73.6863 24.3369L73.9585 24.7146ZM74.2783 25.0253L74.5385 25.411L75.0254 25.0992L74.6128 24.6984L74.2783 25.0253ZM77.0468 25.0253L76.7123 24.6984L76.2997 25.0992L76.7866 25.411L77.0468 25.0253ZM77.3666 24.7146L77.0944 25.0923C77.735 25.5306 78.1514 26.2528 78.1514 27.0689H78.6251H79.0988C79.0988 25.9386 78.5206 24.9402 77.6388 24.3369L77.3666 24.7146ZM78.6251 27.0689H78.1514C78.1514 28.4019 77.0385 29.485 75.6625 29.485V29.9465V30.4081C77.5589 30.4081 79.0988 28.9144 79.0988 27.0689H78.6251ZM75.6625 29.9465V29.485C74.2866 29.485 73.1737 28.4019 73.1737 27.0689H72.7H72.2263C72.2263 28.9144 73.7662 30.4081 75.6625 30.4081V29.9465ZM72.7 27.0689H73.1737C73.1737 26.2528 73.5901 25.5306 74.2307 25.0923L73.9585 24.7146L73.6863 24.3369C72.8045 24.9402 72.2263 25.9386 72.2263 27.0689H72.7ZM73.9585 24.7146L73.6241 25.0415L73.9439 25.3521L74.2783 25.0253L74.6128 24.6984L74.2929 24.3877L73.9585 24.7146ZM74.2783 25.0253L74.0182 24.6396C73.2078 25.1585 72.6707 26.0523 72.6707 27.0689H73.1444H73.6181C73.6181 26.377 73.9826 25.767 74.5385 25.411L74.2783 25.0253ZM73.1444 27.0689H72.6707C72.6707 28.676 74.0116 29.9764 75.6625 29.9764V29.5149V29.0534C74.532 29.0534 73.6181 28.1635 73.6181 27.0689H73.1444ZM75.6625 29.5149V29.9764C77.3135 29.9764 78.6544 28.676 78.6544 27.0689H78.1807H77.707C77.707 28.1635 76.7931 29.0534 75.6625 29.0534V29.5149ZM78.1807 27.0689H78.6544C78.6544 26.0523 78.1173 25.1585 77.3069 24.6396L77.0468 25.0253L76.7866 25.411C77.3425 25.767 77.707 26.377 77.707 27.0689H78.1807ZM77.0468 25.0253L77.3812 25.3521L77.701 25.0415L77.3666 24.7146L77.0322 24.3877L76.7123 24.6984L77.0468 25.0253Z" fill="#908A98" fill-opacity="0.666667"/>
</g>
</g>
<path d="M104.833 27.9824C105.222 27.5935 106.233 27.0491 107.167 27.9824M103.667 26.8158C104.406 25.9991 106.373 24.8558 108.333 26.8158M102.5 25.6491C103.589 24.4046 106.513 22.6624 109.5 25.6491" stroke="#908A98" stroke-width="0.8" stroke-linecap="round"/>
<rect x="105.533" y="28.6824" width="0.933333" height="0.933333" rx="0.466667" fill="#908A98"/>
<path d="M166.711 25.3684V27.2631M166.711 28.0526V28.1316" stroke="#908A98" stroke-width="0.6" stroke-linecap="round"/>
<path d="M165.876 24.3871L163.953 27.471C163.538 28.1371 164.017 29 164.802 29H168.575C169.353 29 169.833 28.1518 169.433 27.4853L167.582 24.4014C167.197 23.7607 166.271 23.7529 165.876 24.3871Z" stroke="#908A98" stroke-width="0.6" stroke-linecap="round"/>
<path d="M136.89 27.5672H135.141C134.976 27.5672 134.841 27.7015 134.841 27.8672V28.3174C134.841 28.5785 134.531 28.715 134.339 28.5384L132.746 27.0765C132.615 26.9559 132.617 26.748 132.751 26.6302L134.343 25.2292C134.537 25.0588 134.841 25.1964 134.841 25.4545V25.8343C134.841 26 134.976 26.1343 135.141 26.1343H137.663C137.829 26.1343 137.963 26.2686 137.963 26.4343V26.8846C137.963 27.1457 138.274 27.2822 138.466 27.1056L140.254 25.4642C140.386 25.3437 140.384 25.1361 140.25 25.0183L138.462 23.44C138.268 23.269 137.963 23.4066 137.963 23.6649V24.3119C137.963 24.4776 137.829 24.6119 137.663 24.6119H135.622" stroke="#908A98" stroke-width="0.6" stroke-linecap="round"/>
<defs>
<filter id="filter0_di_176_174" x="178.274" y="26.2741" width="49.5959" height="51.5959" filterUnits="userSpaceOnUse" color-interpolation-filters="sRGB">
<feFlood flood-opacity="0" result="BackgroundImageFix"/>
<feColorMatrix in="SourceAlpha" type="matrix" values="0 0 0 0 0 0 0 0 0 0 0 0 0 0 0 0 0 0 127 0" result="hardAlpha"/>
<feMorphology radius="5" operator="erode" in="SourceAlpha" result="effect1_dropShadow_176_174"/>
<feOffset dx="-3" dy="7"/>
<feGaussianBlur stdDeviation="2.5"/>
<feComposite in2="hardAlpha" operator="out"/>
<feColorMatrix type="matrix" values="0 0 0 0 1 0 0 0 0 1 0 0 0 0 1 0 0 0 0.25 0"/>
<feBlend mode="normal" in2="BackgroundImageFix" result="effect1_dropShadow_176_174"/>
<feBlend mode="normal" in="SourceGraphic" in2="effect1_dropShadow_176_174" result="shape"/>
<feColorMatrix in="SourceAlpha" type="matrix" values="0 0 0 0 0 0 0 0 0 0 0 0 0 0 0 0 0 0 127 0" result="hardAlpha"/>
<feMorphology radius="3" operator="dilate" in="SourceAlpha" result="effect2_innerShadow_176_174"/>
<feOffset dx="2" dy="2"/>
<feGaussianBlur stdDeviation="3"/>
<feComposite in2="hardAlpha" operator="arithmetic" k2="-1" k3="1"/>
<feColorMatrix type="matrix" values="0 0 0 0 0 0 0 0 0 0 0 0 0 0 0 0 0 0 0.25 0"/>
<feBlend mode="normal" in2="shape" result="effect2_innerShadow_176_174"/>
</filter>
<filter id="filter1_di_176_174" x="13.2741" y="25.2742" width="47.5959" height="51.5959" filterUnits="userSpaceOnUse" color-interpolation-filters="sRGB">
<feFlood flood-opacity="0" result="BackgroundImageFix"/>
<feColorMatrix in="SourceAlpha" type="matrix" values="0 0 0 0 0 0 0 0 0 0 0 0 0 0 0 0 0 0 127 0" result="hardAlpha"/>
<feMorphology radius="5" operator="erode" in="SourceAlpha" result="effect1_dropShadow_176_174"/>
<feOffset dx="-3" dy="7"/>
<feGaussianBlur stdDeviation="2.5"/>
<feComposite in2="hardAlpha" operator="out"/>
<feColorMatrix type="matrix" values="0 0 0 0 1 0 0 0 0 1 0 0 0 0 1 0 0 0 0.32 0"/>
<feBlend mode="normal" in2="BackgroundImageFix" result="effect1_dropShadow_176_174"/>
<feBlend mode="normal" in="SourceGraphic" in2="effect1_dropShadow_176_174" result="shape"/>
<feColorMatrix in="SourceAlpha" type="matrix" values="0 0 0 0 0 0 0 0 0 0 0 0 0 0 0 0 0 0 127 0" result="hardAlpha"/>
<feMorphology radius="3" operator="dilate" in="SourceAlpha" result="effect2_innerShadow_176_174"/>
<feOffset dx="-2" dy="2"/>
<feGaussianBlur stdDeviation="3"/>
<feComposite in2="hardAlpha" operator="arithmetic" k2="-1" k3="1"/>
<feColorMatrix type="matrix" values="0 0 0 0 0 0 0 0 0 0 0 0 0 0 0 0 0 0 0.25 0"/>
<feBlend mode="normal" in2="shape" result="effect2_innerShadow_176_174"/>
</filter>
<filter id="filter2_di_176_174" x="13.274" y="181.274" width="47.5959" height="51.5959" filterUnits="userSpaceOnUse" color-interpolation-filters="sRGB">
<feFlood flood-opacity="0" result="BackgroundImageFix"/>
<feColorMatrix in="SourceAlpha" type="matrix" values="0 0 0 0 0 0 0 0 0 0 0 0 0 0 0 0 0 0 127 0" result="hardAlpha"/>
<feMorphology radius="5" operator="erode" in="SourceAlpha" result="effect1_dropShadow_176_174"/>
<feOffset dx="-3" dy="7"/>
<feGaussianBlur stdDeviation="2.5"/>
<feComposite in2="hardAlpha" operator="out"/>
<feColorMatrix type="matrix" values="0 0 0 0 1 0 0 0 0 1 0 0 0 0 1 0 0 0 0.32 0"/>
<feBlend mode="normal" in2="BackgroundImageFix" result="effect1_dropShadow_176_174"/>
<feBlend mode="normal" in="SourceGraphic" in2="effect1_dropShadow_176_174" result="shape"/>
<feColorMatrix in="SourceAlpha" type="matrix" values="0 0 0 0 0 0 0 0 0 0 0 0 0 0 0 0 0 0 127 0" result="hardAlpha"/>
<feMorphology radius="3" operator="dilate" in="SourceAlpha" result="effect2_innerShadow_176_174"/>
<feOffset dx="-2" dy="3"/>
<feGaussianBlur stdDeviation="3"/>
<feComposite in2="hardAlpha" operator="arithmetic" k2="-1" k3="1"/>
<feColorMatrix type="matrix" values="0 0 0 0 0 0 0 0 0 0 0 0 0 0 0 0 0 0 0.25 0"/>
<feBlend mode="normal" in2="shape" result="effect2_innerShadow_176_174"/>
</filter>
<filter id="filter3_di_176_174" x="178.274" y="182.274" width="48.5959" height="51.5959" filterUnits="userSpaceOnUse" color-interpolation-filters="sRGB">
<feFlood flood-opacity="0" result="BackgroundImageFix"/>
<feColorMatrix in="SourceAlpha" type="matrix" values="0 0 0 0 0 0 0 0 0 0 0 0 0 0 0 0 0 0 127 0" result="hardAlpha"/>
<feMorphology radius="5" operator="erode" in="SourceAlpha" result="effect1_dropShadow_176_174"/>
<feOffset dx="-3" dy="7"/>
<feGaussianBlur stdDeviation="2.5"/>
<feComposite in2="hardAlpha" operator="out"/>
<feColorMatrix type="matrix" values="0 0 0 0 1 0 0 0 0 1 0 0 0 0 1 0 0 0 0.25 0"/>
<feBlend mode="normal" in2="BackgroundImageFix" result="effect1_dropShadow_176_174"/>
<feBlend mode="normal" in="SourceGraphic" in2="effect1_dropShadow_176_174" result="shape"/>
<feColorMatrix in="SourceAlpha" type="matrix" values="0 0 0 0 0 0 0 0 0 0 0 0 0 0 0 0 0 0 127 0" result="hardAlpha"/>
<feMorphology radius="3" operator="dilate" in="SourceAlpha" result="effect2_innerShadow_176_174"/>
<feOffset dx="1" dy="4"/>
<feGaussianBlur stdDeviation="3"/>
<feComposite in2="hardAlpha" operator="arithmetic" k2="-1" k3="1"/>
<feColorMatrix type="matrix" values="0 0 0 0 0 0 0 0 0 0 0 0 0 0 0 0 0 0 0.25 0"/>
<feBlend mode="normal" in2="shape" result="effect2_innerShadow_176_174"/>
</filter>
<clipPath id="clip0_176_174">
<rect width="24" height="18" fill="white" transform="translate(127.492 190)"/>
</clipPath>
<clipPath id="clip1_176_174">
<rect width="6" height="6" fill="white" transform="translate(72.7 24)"/>
</clipPath>
</defs>
</svg>
