<svg width="71" height="71" viewBox="0 0 71 71" fill="none" xmlns="http://www.w3.org/2000/svg">
<line x1="7.64565" y1="63.128" x2="20.3448" y2="50.3714" stroke="#D8DF00"/>
<path d="M1 56.5L16.4999 54.2241" stroke="black" stroke-linecap="round"/>
<path d="M15 69.7241L16.5 54.2241" stroke="#FF0000" stroke-linecap="round"/>
<path d="M52.7698 13.5094L65.2294 0.994736C65.6387 0.583639 66.8603 1.14424 67.9565 2.2453C69.0527 3.34636 69.6882 4.65109 69.2789 5.06218L56.8193 17.5768" fill="#C2BFBE"/>
<path d="M52.7698 13.5094L52.9462 13.6866L65.4058 1.1719L65.2294 0.994737L65.053 0.817571L52.5934 13.3322L52.7698 13.5094ZM65.2294 0.994737L65.4058 1.1719C65.4391 1.13839 65.5099 1.10255 65.6583 1.11192C65.8063 1.12127 66.0007 1.17492 66.2317 1.28087C66.6919 1.49193 67.2475 1.88747 67.7801 2.42246L67.9565 2.2453L68.1329 2.06813C67.5693 1.50206 66.966 1.06677 66.439 0.825045C66.1764 0.704602 65.9201 0.626364 65.6897 0.611811C65.4597 0.597291 65.2243 0.645533 65.053 0.817571L65.2294 0.994737ZM67.9565 2.2453L67.7801 2.42246C68.3127 2.95743 68.7271 3.53613 68.9571 4.02037C69.0727 4.2636 69.1356 4.47017 69.1509 4.62776C69.1664 4.78833 69.1302 4.85724 69.1025 4.88502L69.2789 5.06218L69.4553 5.23935C69.6323 5.06157 69.6701 4.81323 69.6474 4.57914C69.6244 4.34206 69.5366 4.07655 69.4074 3.80458C69.148 3.25842 68.6965 2.63422 68.1329 2.06813L67.9565 2.2453ZM69.2789 5.06218L69.1025 4.88502L56.6429 17.3997L56.8193 17.5768L56.9957 17.754L69.4553 5.23935L69.2789 5.06218Z" fill="black"/>
<path d="M56.8193 17.5769L56.6429 17.7541L56.8886 18.0009L57.065 17.8237L57.2414 17.6465L56.9957 17.3997L56.8193 17.5769Z" fill="black"/>
<path d="M52.5205 13.259L52.3441 13.4362L52.5941 13.6873L52.7705 13.5101L52.9469 13.333L52.6969 13.0819L52.5205 13.259Z" fill="black"/>
<path d="M41.3229 24.5059L52.5201 13.2591L57.0641 17.8231L45.8668 29.0699" fill="#575756"/>
<path d="M52.5201 13.2591L52.6965 13.0819L52.5201 12.9048L52.3438 13.0819L52.5201 13.2591ZM57.0641 17.8231L57.2405 18.0003L57.4168 17.8231L57.2405 17.6459L57.0641 17.8231ZM41.3229 24.5059L41.4993 24.683L52.6965 13.4363L52.5201 13.2591L52.3438 13.0819L41.1465 24.3287L41.3229 24.5059ZM52.5201 13.2591L52.3438 13.4363L56.8877 18.0003L57.0641 17.8231L57.2405 17.6459L52.6965 13.0819L52.5201 13.2591ZM57.0641 17.8231L56.8877 17.6459L45.6904 28.8927L45.8668 29.0699L46.0432 29.247L57.2405 18.0003L57.0641 17.8231Z" fill="black"/>
<path d="M56.8196 17.5771L56.9959 17.3999L52.9462 13.3322L52.7698 13.5094L52.5934 13.6866L56.6432 17.7542L56.8196 17.5771Z" fill="black"/>
<path d="M43.7705 29.8202L43.9468 29.643L40.6708 26.3525L40.4944 26.5297L40.318 26.7068L43.5941 29.9974L43.7705 29.8202Z" fill="black"/>
<path d="M45.8671 29.0701L43.7703 29.8203L40.4944 26.5299L41.3229 24.5059L45.8671 29.0701Z" fill="#575756" stroke="black" stroke-width="0.5" stroke-miterlimit="10"/>
<path d="M31.1516 41.8646L31.328 41.6875L28.7054 39.0533L28.5291 39.2305L28.3527 39.4076L30.9752 42.0418L31.1516 41.8646Z" fill="black"/>
<path d="M31.1513 41.8644L31.9994 41.643L43.7699 29.8205L40.4941 26.5303L28.7236 38.3528L28.529 39.2305L14.4707 53.3509L28.529 39.2305L31.1513 41.8644L17.093 55.9848Z" fill="#575756"/>
<path d="M31.9994 41.643L32.0621 41.8855L32.1278 41.8684L32.1757 41.8202L31.9994 41.643ZM43.7699 29.8205L43.9462 29.9977L44.1226 29.8205L43.9462 29.6433L43.7699 29.8205ZM40.4941 26.5303L40.6705 26.3531L40.4941 26.1759L40.3177 26.3531L40.4941 26.5303ZM28.7236 38.3528L28.5472 38.1756L28.4959 38.2272L28.4801 38.2983L28.7236 38.3528ZM28.529 39.2305L28.7054 39.4077L28.7567 39.3561L28.7725 39.285L28.529 39.2305ZM28.529 39.2305L28.7054 39.0533L28.529 38.8762L28.3526 39.0533L28.529 39.2305ZM31.1513 41.8644L31.214 42.1069L32.0621 41.8855L31.9994 41.643L31.9366 41.4005L31.0885 41.6219L31.1513 41.8644ZM31.9994 41.643L32.1757 41.8202L43.9462 29.9977L43.7699 29.8205L43.5935 29.6433L31.823 41.4658L31.9994 41.643ZM43.7699 29.8205L43.9462 29.6433L40.6705 26.3531L40.4941 26.5303L40.3177 26.7074L43.5935 29.9977L43.7699 29.8205ZM40.4941 26.5303L40.3177 26.3531L28.5472 38.1756L28.7236 38.3528L28.9 38.5299L40.6705 26.7074L40.4941 26.5303ZM28.7236 38.3528L28.4801 38.2983L28.2855 39.176L28.529 39.2305L28.7725 39.285L28.9671 38.4073L28.7236 38.3528ZM28.529 39.2305L28.3526 39.0533L14.2943 53.1737L14.4707 53.3509L14.6471 53.528L28.7054 39.4077L28.529 39.2305ZM14.4707 53.3509L14.6471 53.528L28.7054 39.4077L28.529 39.2305L28.3526 39.0533L14.2943 53.1737L14.4707 53.3509ZM28.529 39.2305L28.3526 39.4077L30.9749 42.0416L31.1513 41.8644L31.3277 41.6872L28.7054 39.0533L28.529 39.2305ZM31.1513 41.8644L30.9749 41.6872L16.9167 55.8076L17.093 55.9848L17.2694 56.162L31.3277 42.0416L31.1513 41.8644Z" fill="black"/>
<path d="M28.6232 39.3257L31.151 41.8647L17.1447 55.9328L14.6169 53.3939" fill="#EBEBEB"/>
<path d="M31.151 41.8647L31.2392 41.9532L31.3274 41.8647L31.2392 41.7761L31.151 41.8647ZM17.1447 55.9328L17.0565 56.0214L17.1447 56.11L17.2329 56.0214L17.1447 55.9328ZM28.6232 39.3257L28.535 39.4143L31.0628 41.9532L31.151 41.8647L31.2392 41.7761L28.7114 39.2372L28.6232 39.3257ZM31.151 41.8647L31.0628 41.7761L17.0565 55.8443L17.1447 55.9328L17.2329 56.0214L31.2392 41.9532L31.151 41.8647ZM17.1447 55.9328L17.2329 55.8443L14.7051 53.3053L14.6169 53.3939L14.5288 53.4825L17.0565 56.0214L17.1447 55.9328Z" fill="black"/>
<rect class="1-WIRE-GND" y="55.72" width="2" height="2" rx="1" fill="black"/>
<rect class="1-WIRE-DAT" x="6.5" y="62.2241" width="2" height="2" rx="1" fill="#D8DF00"/>
<rect class="1-WIRE-V+" x="14" y="68.5" width="2" height="2" rx="1" fill="#FF0000"/>
</svg>
