<svg width="66" height="40" viewBox="0 0 66 40" fill="none" xmlns="http://www.w3.org/2000/svg">
<path d="M15 21L2 12" stroke="black" stroke-linecap="round"/>
<path d="M15 21L2 30" stroke="#CFF400" stroke-linecap="round"/>
<path d="M15 21H2" stroke="#D32F2F" stroke-linecap="round"/>
<g clip-path="url(#clip0_1040_1089)">
<path d="M30.5869 23.2235H12.5869V18.8279H26.6739" fill="#EBEBEB"/>
<path d="M26.6739 23.2235H12.5869V18.8279H30.6521" stroke="#010202" stroke-width="0.2551" stroke-miterlimit="3.8637"/>
<path d="M25.6956 29.5238C25.6956 35.0916 29.2825 39.6337 33.7173 39.6337L51.2608 39.2674C59.4782 39.2674 66.0651 30.8425 66.0651 20.3663C66.0651 9.8901 59.4129 1.39194 51.1956 1.39194L33.7173 1.02563C29.2825 1.02563 25.6956 5.56776 25.6956 11.1355V29.5238Z" fill="#D5D5D5" stroke="black" stroke-width="0.5" stroke-miterlimit="10"/>
<path d="M33.3914 2.85718H50.8697C58.6306 2.85718 64.8914 10.696 64.8914 20.3663C64.8914 30.0367 58.6306 37.8022 50.8697 37.8022H33.3914C30.0001 37.8022 27.261 34.5788 27.261 30.6227V10.0367C27.261 6.08062 30.0001 2.85718 33.3914 2.85718Z" fill="#EBEBEB" stroke="black" stroke-width="0.25" stroke-miterlimit="10"/>
<path d="M58.9566 34.5787C47.4783 34.5787 38.2174 28.2051 38.2174 20.293C38.2174 12.3809 47.4783 6.08057 58.9566 6.08057C45.9783 6.08057 35.4131 12.4542 35.4131 20.3663C35.4131 28.2784 45.9131 34.5787 58.9566 34.5787Z" fill="#D5D5D5" stroke="black" stroke-width="0.25" stroke-miterlimit="10"/>
<rect class="DI-V+" x="1.5" y="29.5" width="1" height="1" rx="0.5" fill="transparent"/>
<rect class="DI-IN" x="1.5" y="20.5" width="1" height="1" rx="0.5" fill="transparent"/>
<rect class="DI-V+" x="1.5" y="11.5" width="1" height="1" rx="0.5" fill="transparent"/>
</g>
<path d="M4.96042 7V10.7239H4.52292L2.48854 7.80002H2.45208V10.7239H2V7H2.4375L4.47917 9.93112H4.51563V7H4.96042Z" fill="black"/>
<path d="M2.00002 33.084C2.00002 31.9348 2.95098 31 4.11177 31C5.27256 31 6.21012 31.9392 6.21012 33.0884C6.21012 34.2551 5.26363 35.1863 4.07605 35.1724C2.91079 35.1636 1.99555 34.2105 2.00002 33.084ZM2.2411 33.0796C2.2411 34.0949 3.07151 34.9324 4.09391 34.9368C5.1297 34.9368 5.96903 34.1125 5.9735 33.084C5.9735 32.0862 5.13862 31.245 4.13855 31.2407C3.08491 31.2407 2.2411 32.0511 2.23664 33.0796H2.2411Z" fill="black"/>
<path d="M3.98213 33.2222C3.98213 33.182 3.98213 33.1506 3.98213 33.1155C3.98213 32.6385 3.98213 32.1579 3.98213 31.681C3.98213 31.6503 3.9732 31.6145 3.98213 31.5925C4.00892 31.5523 4.04464 31.5033 4.08928 31.4901C4.15179 31.4718 4.19644 31.5164 4.21429 31.5786C4.22322 31.6057 4.21429 31.6371 4.21429 31.6678C4.21429 32.1492 4.21429 32.6297 4.21429 33.1111C4.21429 33.1418 4.21429 33.1776 4.21429 33.2179C4.25447 33.2179 4.28573 33.2222 4.31698 33.2222C4.62057 33.2222 4.92416 33.2222 5.22775 33.2222C5.25901 33.2222 5.30365 33.2135 5.32597 33.231C5.36169 33.2581 5.4108 33.302 5.4108 33.3378C5.4108 33.3781 5.36615 33.4227 5.33044 33.449C5.30812 33.4673 5.26794 33.4585 5.23222 33.4585C4.4911 33.4585 3.74997 33.4585 3.01332 33.4585C2.98653 33.4585 2.95974 33.4585 2.93295 33.4585C2.87045 33.4446 2.82134 33.4 2.83474 33.3378C2.84366 33.2932 2.89277 33.2581 2.93295 33.2266C2.95528 33.2135 2.991 33.2222 3.02224 33.2179C3.30351 33.2179 3.58478 33.2179 3.87052 33.2179C3.90177 33.2179 3.93302 33.2179 3.97767 33.2135L3.98213 33.2222Z" fill="black"/>
<path d="M4.10722 33.9216C3.91524 33.9216 3.72327 33.9216 3.53575 33.9216C3.43306 33.9216 3.3661 33.8543 3.39289 33.7701C3.41521 33.6985 3.46878 33.6765 3.54021 33.6765C3.68308 33.6765 3.82595 33.6765 3.96882 33.6765C4.19204 33.6765 4.41081 33.6765 4.63404 33.6765C4.65636 33.6765 4.68315 33.6765 4.70547 33.6765C4.78584 33.6853 4.83495 33.7387 4.83048 33.8053C4.82602 33.8813 4.77244 33.9172 4.70101 33.9216C4.59386 33.9216 4.48224 33.9216 4.37509 33.9216C4.2858 33.9216 4.20097 33.9216 4.11168 33.9216H4.10722Z" fill="black"/>
<path d="M4.09826 34.3664C4.04914 34.3664 4.00003 34.3664 3.95093 34.3664C3.88395 34.3664 3.84377 34.3269 3.83485 34.2596C3.82592 34.193 3.86163 34.1396 3.9286 34.1352C4.04468 34.1265 4.16076 34.1265 4.27238 34.1352C4.33935 34.1396 4.37953 34.193 4.37059 34.264C4.36167 34.3313 4.32149 34.3664 4.25451 34.3664C4.20094 34.3664 4.15183 34.3664 4.09826 34.3664Z" fill="black"/>
<defs>
<clipPath id="clip0_1040_1089">
<rect width="66" height="40" fill="white"/>
</clipPath>
</defs>
</svg>
