<svg width="67" height="39" viewBox="0 0 67 39" fill="none" xmlns="http://www.w3.org/2000/svg">
<path d="M53 20L66 29" stroke="black" stroke-linecap="round"/>
<path d="M53 20L66 11" stroke="#CFF400" stroke-linecap="round"/>
<path d="M53 20L66 20" stroke="#D32F2F" stroke-linecap="round"/>
<g clip-path="url(#clip0_1040_1123)">
<path d="M35.9497 22.3099H54.2224V18.0872H39.922" fill="#EBEBEB"/>
<path d="M39.922 22.3099H54.2224V18.0872H35.8835" stroke="#010202" stroke-width="0.2551" stroke-miterlimit="3.8637"/>
<path d="M40.915 28.3625C40.915 33.7112 37.2737 38.0747 32.7718 38.0747L14.9625 37.7228C6.62055 37.7228 -0.0662154 29.6293 -0.0662154 19.5652C-0.0662154 9.50111 6.68676 1.33724 15.0287 1.33724L32.7718 0.985352C37.2737 0.985352 40.915 5.3488 40.915 10.6975V28.3625Z" fill="#D5D5D5" stroke="black" stroke-width="0.5" stroke-miterlimit="10"/>
<path d="M33.1028 2.74475H15.3597C7.48129 2.74475 1.12555 10.2752 1.12555 19.5651C1.12555 28.8551 7.48129 36.3152 15.3597 36.3152H33.1028C36.5455 36.3152 39.3262 33.2185 39.3262 29.4181V9.64181C39.3262 5.84139 36.5455 2.74475 33.1028 2.74475Z" fill="#EBEBEB" stroke="black" stroke-width="0.25" stroke-miterlimit="10"/>
<path d="M7.15008 33.2186C18.8023 33.2186 28.2035 27.0956 28.2035 19.4948C28.2035 11.894 18.8023 5.84143 7.15008 5.84143C20.325 5.84143 31.0503 11.9643 31.0503 19.5652C31.0503 27.166 20.3912 33.2186 7.15008 33.2186Z" fill="#D5D5D5" stroke="black" stroke-width="0.25" stroke-miterlimit="10"/>
<rect class="DI-IN" x="65.5" y="19.5" width="1" height="1" rx="0.5" fill="transparent"/>
<rect class="DI-V+" x="65.5" y="28.5" width="1" height="1" rx="0.5" fill="transparent"/>
<rect class="DI-GND" x="65.5" y="10.5" width="1" height="1" rx="0.5" fill="transparent"/>
</g>
<path d="M62 32.084C62 30.9348 62.951 30 64.1118 30C65.2726 30 66.2101 30.9392 66.2101 32.0884C66.2101 33.2551 65.2636 34.1863 64.076 34.1724C62.9108 34.1636 61.9956 33.2105 62 32.084ZM62.2411 32.0796C62.2411 33.0949 63.0715 33.9324 64.0939 33.9368C65.1297 33.9368 65.969 33.1125 65.9735 32.084C65.9735 31.0862 65.1386 30.245 64.1386 30.2407C63.0849 30.2407 62.2411 31.0511 62.2366 32.0796H62.2411Z" fill="black"/>
<path d="M63.9821 32.2222C63.9821 32.182 63.9821 32.1506 63.9821 32.1155C63.9821 31.6385 63.9821 31.1579 63.9821 30.681C63.9821 30.6503 63.9732 30.6145 63.9821 30.5925C64.0089 30.5523 64.0446 30.5033 64.0893 30.4901C64.1518 30.4718 64.1964 30.5164 64.2143 30.5786C64.2232 30.6057 64.2143 30.6371 64.2143 30.6678C64.2143 31.1492 64.2143 31.6297 64.2143 32.1111C64.2143 32.1418 64.2143 32.1776 64.2143 32.2179C64.2545 32.2179 64.2857 32.2222 64.317 32.2222C64.6206 32.2222 64.9242 32.2222 65.2278 32.2222C65.259 32.2222 65.3037 32.2135 65.326 32.231C65.3617 32.2581 65.4108 32.302 65.4108 32.3378C65.4108 32.3781 65.3662 32.4227 65.3304 32.449C65.3081 32.4673 65.2679 32.4585 65.2322 32.4585C64.4911 32.4585 63.75 32.4585 63.0133 32.4585C62.9865 32.4585 62.9597 32.4585 62.933 32.4585C62.8705 32.4446 62.8213 32.4 62.8347 32.3378C62.8437 32.2932 62.8928 32.2581 62.933 32.2266C62.9553 32.2135 62.991 32.2222 63.0222 32.2179C63.3035 32.2179 63.5848 32.2179 63.8705 32.2179C63.9018 32.2179 63.933 32.2179 63.9777 32.2135L63.9821 32.2222Z" fill="black"/>
<path d="M64.1072 32.9216C63.9152 32.9216 63.7233 32.9216 63.5358 32.9216C63.4331 32.9216 63.3661 32.8543 63.3929 32.7701C63.4152 32.6985 63.4688 32.6765 63.5402 32.6765C63.6831 32.6765 63.8259 32.6765 63.9688 32.6765C64.192 32.6765 64.4108 32.6765 64.634 32.6765C64.6564 32.6765 64.6831 32.6765 64.7055 32.6765C64.7858 32.6853 64.8349 32.7387 64.8305 32.8053C64.826 32.8813 64.7724 32.9172 64.701 32.9216C64.5939 32.9216 64.4822 32.9216 64.3751 32.9216C64.2858 32.9216 64.201 32.9216 64.1117 32.9216H64.1072Z" fill="black"/>
<path d="M64.0983 33.3664C64.0491 33.3664 64 33.3664 63.9509 33.3664C63.884 33.3664 63.8438 33.3269 63.8349 33.2596C63.8259 33.193 63.8616 33.1396 63.9286 33.1352C64.0447 33.1265 64.1608 33.1265 64.2724 33.1352C64.3393 33.1396 64.3795 33.193 64.3706 33.264C64.3617 33.3313 64.3215 33.3664 64.2545 33.3664C64.2009 33.3664 64.1518 33.3664 64.0983 33.3664Z" fill="black"/>
<path d="M65.9604 6V9.7239H65.5229L63.4885 6.80002H63.4521V9.7239H63V6H63.4375L65.4792 8.93112H65.5156V6H65.9604Z" fill="black"/>
<defs>
<clipPath id="clip0_1040_1123">
<rect width="67" height="38.4265" fill="white" transform="matrix(-1 0 0 1 67 0)"/>
</clipPath>
</defs>
</svg>
