<svg width="70" height="11" viewBox="0 0 70 11" fill="none" xmlns="http://www.w3.org/2000/svg">
<line x1="60.2785" y1="5.35007" x2="69.3501" y2="1.72146" stroke="#464EE3" stroke-linecap="round"/>
<path d="M60.32 5.74609L69.4326 9.19999" stroke="black" stroke-linecap="round"/>
<path d="M34.2105 3.83222C34.4848 3.83299 34.7218 3.68924 34.8531 3.46781C34.9843 3.24639 35.1897 3.10254 35.4482 3.10327L37.8221 3.10995C38.0753 3.11066 38.2921 3.26601 38.4193 3.47785C38.5465 3.68969 38.7949 3.84513 39.0692 3.8459C39.3435 3.84667 39.5858 3.70293 39.717 3.4815C39.8483 3.26008 40.0589 3.11625 40.3121 3.11696L43.2875 3.12533C43.699 3.12649 44.0375 3.4524 44.0387 3.85988L44.0482 7.25904C44.0494 7.66137 43.718 7.99054 43.3012 7.98937L40.3258 7.981C40.0726 7.98028 39.8559 7.82493 39.7287 7.6131C39.6015 7.40126 39.3531 7.24582 39.0788 7.24505C38.8044 7.24428 38.5622 7.38802 38.4309 7.60945C38.2996 7.83087 38.089 7.9747 37.8358 7.97399L35.4618 7.96731C35.2086 7.96659 34.9972 7.81126 34.8647 7.59941C34.7322 7.38756 34.4944 7.23215 34.22 7.23138C33.9457 7.2306 33.7035 7.37435 33.5722 7.59577C33.4409 7.8172 33.2303 7.96103 32.9771 7.96031L1.70937 7.87231C0.321921 7.86841 0.445411 6.75978 0.441564 5.3929C0.437717 4.02602 0.308245 3.00953 1.69569 3.01343L32.9634 3.10143C33.2166 3.10215 33.4334 3.2575 33.5606 3.46933C33.6878 3.68117 33.9309 3.83659 34.2105 3.83738L34.2105 3.83222Z" fill="#C2BFBE" stroke="black" stroke-width="0.5" stroke-miterlimit="10"/>
<path d="M60.298 3.98836L60.3069 7.13477L44.491 7.09025L44.4822 3.94384L60.298 3.98836Z" fill="#EBEBEB" stroke="#1D1D1B" stroke-width="0.5" stroke-miterlimit="10"/>
<path d="M44.4798 3.12378L44.4935 7.98267L42.8689 7.97809L42.8552 3.11921L44.4798 3.12378Z" fill="#575756" stroke="black" stroke-width="0.5" stroke-miterlimit="10"/>
<rect class="NTC-B" x="68" y="0.899902" width="2" height="2" rx="1" fill="#464EE3"/>
<rect class="NTC-A" x="68" y="8.1001" width="2" height="2" rx="1" fill="black"/>
</svg>
