<svg width="70" height="11" viewBox="0 0 70 11" fill="none" xmlns="http://www.w3.org/2000/svg">
<line x1="9.72146" y1="5.54984" x2="0.649934" y2="9.17845" stroke="#464EE3" stroke-linecap="round"/>
<path d="M9.68255 5.45167L0.569977 1.99776" stroke="black" stroke-linecap="round"/>
<path d="M35.7895 3.83222C35.5152 3.83299 35.2782 3.68924 35.1469 3.46781C35.0157 3.24639 34.8103 3.10254 34.5518 3.10327L32.1779 3.10995C31.9247 3.11066 31.7079 3.26601 31.5807 3.47785C31.4535 3.68969 31.2051 3.84513 30.9308 3.8459C30.6565 3.84667 30.4142 3.70293 30.283 3.4815C30.1517 3.26008 29.9411 3.11625 29.6879 3.11696L26.7125 3.12533C26.301 3.12649 25.9625 3.4524 25.9613 3.85988L25.9518 7.25904C25.9506 7.66137 26.282 7.99054 26.6988 7.98937L29.6742 7.981C29.9274 7.98028 30.1441 7.82493 30.2713 7.6131C30.3985 7.40126 30.6469 7.24582 30.9212 7.24505C31.1956 7.24428 31.4378 7.38802 31.5691 7.60945C31.7004 7.83087 31.911 7.9747 32.1642 7.97399L34.5382 7.96731C34.7914 7.96659 35.0028 7.81126 35.1353 7.59941C35.2678 7.38756 35.5056 7.23215 35.78 7.23138C36.0543 7.2306 36.2965 7.37435 36.4278 7.59577C36.5591 7.8172 36.7697 7.96103 37.0229 7.96031L68.2906 7.87231C69.6781 7.86841 69.5546 6.75978 69.5584 5.3929C69.5623 4.02602 69.6918 3.00953 68.3043 3.01343L37.0366 3.10143C36.7834 3.10215 36.5666 3.2575 36.4394 3.46933C36.3122 3.68117 36.0691 3.83659 35.7895 3.83738L35.7895 3.83222Z" fill="#C2BFBE" stroke="black" stroke-width="0.5" stroke-miterlimit="10"/>
<path d="M9.70197 3.98836L9.69312 7.13477L25.509 7.09025L25.5178 3.94384L9.70197 3.98836Z" fill="#EBEBEB" stroke="#1D1D1B" stroke-width="0.5" stroke-miterlimit="10"/>
<path d="M25.5203 3.12378L25.5066 7.98267L27.1311 7.97809L27.1448 3.11921L25.5203 3.12378Z" fill="#575756" stroke="black" stroke-width="0.5" stroke-miterlimit="10"/>
<rect class="NTC-A" y="1" width="2" height="2" rx="1" fill="transparent"/>
<rect class="NTC-B" y="8" width="2" height="2" rx="1" fill="#transparent"/>
</svg>
