<svg width="49" height="12" viewBox="0 0 49 12" fill="none" xmlns="http://www.w3.org/2000/svg">
<g clip-path="url(#clip0_350_269)">
<path d="M48.6909 9.89589L36.6137 5.97217" stroke="#F8AF3C" stroke-width="2" stroke-miterlimit="10"/>
<path d="M48.6909 2.05835L36.6137 5.96781" stroke="#E42320" stroke-width="2" stroke-miterlimit="10"/>
<path d="M12.9301 10.7142L13.4892 1.17261C13.4892 1.17261 13.7441 1.37686 13.8359 1.37687C13.9276 1.37687 14.1826 1.17261 14.1826 1.17261L13.6236 10.7142C13.6236 10.7142 13.3686 10.5099 13.2768 10.5099C13.1851 10.5099 12.9301 10.7142 12.9301 10.7142Z" stroke="black" stroke-width="0.51849" stroke-linecap="round" stroke-linejoin="round"/>
<path d="M12.3036 10.7142L12.8627 1.17261C12.8627 1.17261 13.1177 1.37686 13.2094 1.37687C13.3012 1.37687 13.5562 1.17261 13.5562 1.17261L12.9971 10.7142C12.9971 10.7142 12.7421 10.5099 12.6504 10.5099C12.5586 10.5099 12.3036 10.7142 12.3036 10.7142Z" stroke="black" stroke-width="0.51849" stroke-linecap="round" stroke-linejoin="round"/>
<path d="M13.5566 10.7142L14.1156 1.17261C14.1156 1.17261 14.3706 1.37686 14.4623 1.37687C14.5541 1.37687 14.8091 1.17261 14.8091 1.17261L14.25 10.7142C14.25 10.7142 13.995 10.5099 13.9033 10.5099C13.8116 10.5099 13.5566 10.7142 13.5566 10.7142Z" stroke="black" stroke-width="0.51849" stroke-linecap="round" stroke-linejoin="round"/>
<path d="M10.7017 10.7142L11.6432 1.17261C11.8285 1.26532 12.0247 1.33395 12.2271 1.37687C12.4295 1.33395 12.6257 1.26532 12.811 1.17261L11.8696 10.7142C11.6843 10.6215 11.488 10.5528 11.2856 10.5099C11.0832 10.5528 10.887 10.6215 10.7017 10.7142Z" stroke="black" stroke-width="0.51849" stroke-linecap="round" stroke-linejoin="round"/>
<path d="M9.4698 10.7142L10.4113 1.17261C10.5965 1.26532 10.7927 1.33395 10.9952 1.37687C11.1976 1.33395 11.3938 1.26532 11.5791 1.17261L10.6376 10.7142C10.4523 10.6215 10.2561 10.5528 10.0537 10.5099C9.8513 10.5528 9.6551 10.6215 9.4698 10.7142Z" stroke="black" stroke-width="0.51849" stroke-linecap="round" stroke-linejoin="round"/>
<path d="M8.29642 10.7142L9.23792 1.17261C9.42322 1.26532 9.61942 1.33395 9.82182 1.37687C10.0242 1.33396 10.2205 1.26532 10.4058 1.17261L9.46432 10.7142C9.27902 10.6215 9.08282 10.5528 8.88032 10.5099C8.67792 10.5528 8.48172 10.6215 8.29642 10.7142Z" stroke="black" stroke-width="0.51849" stroke-linecap="round" stroke-linejoin="round"/>
<path d="M7.11378 10.7142L8.05529 1.17261C8.24059 1.26532 8.43678 1.33395 8.63918 1.37687C8.84158 1.33396 9.03778 1.26532 9.22308 1.17261L8.28168 10.7142C8.09638 10.6215 7.90019 10.5528 7.69769 10.5099C7.49529 10.5528 7.29908 10.6215 7.11378 10.7142Z" stroke="black" stroke-width="0.51849" stroke-linecap="round" stroke-linejoin="round"/>
<path d="M5.94001 10.7142L6.88152 1.17261C7.06682 1.26532 7.26302 1.33395 7.46542 1.37687C7.66782 1.33396 7.86402 1.26532 8.04932 1.17261L7.10781 10.7142C6.92251 10.6215 6.72631 10.5528 6.52391 10.5099C6.32151 10.5528 6.12531 10.6215 5.94001 10.7142Z" stroke="black" stroke-width="0.51849" stroke-linecap="round" stroke-linejoin="round"/>
<path d="M4.78078 10.7142L5.72228 1.17261C5.90758 1.26532 6.10378 1.33395 6.30618 1.37687C6.50858 1.33396 6.70478 1.26532 6.89008 1.17261L5.94868 10.7142C5.76338 10.6215 5.56718 10.5528 5.36468 10.5099C5.16228 10.5528 4.96608 10.6214 4.78078 10.7142Z" stroke="black" stroke-width="0.51849" stroke-linecap="round" stroke-linejoin="round"/>
<path d="M3.60652 10.7142L4.54802 1.17261C4.73332 1.26532 4.92952 1.33395 5.13192 1.37687C5.33432 1.33396 5.53052 1.26532 5.71582 1.17261L4.77432 10.7142C4.58902 10.6215 4.39282 10.5528 4.19042 10.5099C3.98802 10.5528 3.79182 10.6215 3.60652 10.7142Z" stroke="black" stroke-width="0.51849" stroke-linecap="round" stroke-linejoin="round"/>
<path d="M2.44832 10.7142L3.38982 1.17261C3.57512 1.26532 3.77132 1.33395 3.97372 1.37687C4.17612 1.33396 4.37232 1.26532 4.55762 1.17261L3.61612 10.7142C3.43082 10.6215 3.23462 10.5528 3.03222 10.5099C2.82982 10.5528 2.63362 10.6215 2.44832 10.7142Z" stroke="black" stroke-width="0.51849" stroke-linecap="round" stroke-linejoin="round"/>
<path d="M1.27488 10.7142L2.21638 1.17261C2.40168 1.26532 2.59788 1.33395 2.80028 1.37687C3.00278 1.33396 3.19898 1.26532 3.38428 1.17261L2.44278 10.7142C2.25748 10.6215 2.06128 10.5528 1.85888 10.5099C1.65638 10.5528 1.46018 10.6215 1.27488 10.7142Z" stroke="black" stroke-width="0.51849" stroke-linecap="round" stroke-linejoin="round"/>
<path d="M0.690975 10.7142L1.05817 1.17261C1.24347 1.26532 1.43967 1.33395 1.64207 1.37687C1.84457 1.33396 2.04077 1.26532 2.22607 1.17261L1.27487 10.7142H0.690975Z" stroke="black" stroke-width="0.51849" stroke-linecap="round" stroke-linejoin="round"/>
<path d="M17.5457 1.17261H21.0571V10.8283H17.5457V1.17261Z" fill="white" stroke="black" stroke-width="0.51849" stroke-miterlimit="10"/>
<path d="M17.5454 10.8284L17.4664 1.17251L17.2486 0.259277H14.3025L14.0341 1.17251V10.8284L14.3305 11.7416H17.2493L17.5454 10.8284Z" fill="white" stroke="black" stroke-width="0.51849" stroke-miterlimit="10"/>
<path d="M21.0573 6.00053V1.17261L24.0972 1.7601V6.00053V10.2413L21.0573 10.8284V6.00053Z" fill="white" stroke="black" stroke-width="0.51849" stroke-miterlimit="10"/>
<path d="M14.331 3.67358H17.2495" stroke="black" stroke-width="0.51849" stroke-miterlimit="10"/>
<path d="M14.331 8.32764H17.2495" stroke="black" stroke-width="0.51849" stroke-miterlimit="10"/>
<path d="M14.3306 0.150635C14.2388 0.486836 14.1663 0.828107 14.1135 1.17274C14.075 1.79918 14.3432 3.04618 14.3306 3.67369C14.3189 4.26008 14.0341 5.41409 14.0341 6.00061C14.0341 6.58714 14.3189 7.74117 14.3306 8.32758C14.3423 8.91124 14.1003 10.0707 14.1286 10.6538C14.1769 11.0198 14.2444 11.383 14.3306 11.7418" fill="white"/>
<path d="M14.3306 0.150635C14.2388 0.486836 14.1663 0.828107 14.1135 1.17274C14.075 1.79918 14.3432 3.04618 14.3306 3.67369C14.3189 4.26008 14.0341 5.41409 14.0341 6.00061C14.0341 6.58714 14.3189 7.74117 14.3306 8.32758C14.3423 8.91124 14.1003 10.0707 14.1286 10.6538C14.1769 11.0198 14.2444 11.383 14.3306 11.7418" stroke="black" stroke-width="0.51849" stroke-miterlimit="10"/>
<path d="M17.2492 11.7418C17.3731 11.4463 17.4723 11.1407 17.5457 10.8285C17.6072 10.2019 17.2465 8.95724 17.2492 8.32757C17.2518 7.74104 17.5457 6.58714 17.5457 6.00061C17.5457 5.41409 17.261 4.26009 17.2492 3.67369C17.2366 3.04619 17.5048 1.79918 17.4664 1.17275C17.4135 0.828115 17.341 0.486841 17.2492 0.150635" fill="white"/>
<path d="M17.2492 11.7418C17.3731 11.4463 17.4723 11.1407 17.5457 10.8285C17.6072 10.2019 17.2465 8.95724 17.2492 8.32757C17.2518 7.74104 17.5457 6.58714 17.5457 6.00061C17.5457 5.41409 17.261 4.26009 17.2492 3.67369C17.2366 3.04619 17.5048 1.79918 17.4664 1.17275C17.4135 0.828115 17.341 0.486841 17.2492 0.150635" stroke="black" stroke-width="0.51849" stroke-miterlimit="10"/>
<path d="M13.377 10.8284L13.2976 1.17251L13.0802 0.259277H11.477L11.2083 1.17251V10.8284L11.5048 11.7416H13.0805L13.377 10.8284Z" fill="white" stroke="black" stroke-width="0.51849" stroke-miterlimit="10"/>
<path d="M11.505 3.67358H13.0806" stroke="black" stroke-width="0.51849" stroke-miterlimit="10"/>
<path d="M11.505 8.32764H13.0806" stroke="black" stroke-width="0.51849" stroke-miterlimit="10"/>
<path d="M11.5049 0.150635C11.4131 0.486836 11.3406 0.828107 11.2878 1.17274C11.2493 1.79918 11.5175 3.04618 11.5049 3.67369C11.4932 4.26008 11.2085 5.41409 11.2085 6.00061C11.2085 6.58714 11.4932 7.74117 11.5049 8.32758C11.5166 8.91124 11.2747 10.0707 11.3029 10.6538C11.3513 11.0198 11.4187 11.383 11.5049 11.7418" stroke="black" stroke-width="0.51849" stroke-miterlimit="10"/>
<path d="M13.0803 11.7418C13.2042 11.4463 13.3034 11.1407 13.3767 10.8285C13.4382 10.2019 13.0775 8.95724 13.0803 8.32757C13.0828 7.74104 13.3767 6.58714 13.3767 6.00061C13.3767 5.41409 13.092 4.26009 13.0803 3.67369C13.0677 3.04619 13.3359 1.79918 13.2974 1.17275C13.2446 0.828115 13.1721 0.486841 13.0803 0.150635" fill="white"/>
<path d="M13.0803 11.7418C13.2042 11.4463 13.3034 11.1407 13.3767 10.8285C13.4382 10.2019 13.0775 8.95724 13.0803 8.32757C13.0828 7.74104 13.3767 6.58714 13.3767 6.00061C13.3767 5.41409 13.092 4.26009 13.0803 3.67369C13.0677 3.04619 13.3359 1.79918 13.2974 1.17275C13.2446 0.828115 13.1721 0.486841 13.0803 0.150635" stroke="black" stroke-width="0.51849" stroke-miterlimit="10"/>
<path d="M24.0969 6.0004V5.94348V3.67358L31.5347 4.30417V5.94348V6.0004V7.63972L24.0969 8.2703V6.0004Z" fill="#4E4D4D" stroke="black" stroke-width="0.51849" stroke-miterlimit="10"/>
<path d="M37.0321 6.84867C36.9688 6.79439 36.918 6.7269 36.8832 6.65086C36.8483 6.57483 36.8303 6.49206 36.8303 6.40829C36.8303 6.32453 36.8483 6.24176 36.8832 6.16572C36.918 6.08968 36.9688 6.02219 37.0321 5.96791C37.618 5.45711 37.0321 5.08716 37.0321 5.08716H31.5345V6.84867H37.0321Z" fill="#4E4D4D" stroke="black" stroke-width="0.51849" stroke-miterlimit="10"/>
</g>
<path class="4-20-IN-V+" d="M48 2.5C48 2.22386 47.7761 2 47.5 2C47.2239 2 47 2.22386 47 2.5C47 2.77614 47.2239 3 47.5 3C47.7761 3 48 2.77614 48 2.5Z" fill="" fill-opacity="0.1"/>
<path class="4-20-IN-IN" d="M48 9.69995C48 9.42381 47.7761 9.19995 47.5 9.19995C47.2239 9.19995 47 9.42381 47 9.69995C47 9.97609 47.2239 10.2 47.5 10.2C47.7761 10.2 48 9.97609 48 9.69995Z" fill="#D9D9D9" fill-opacity="0.1"/>
<defs>
<clipPath id="clip0_350_269">
<rect width="49" height="12" fill="white" transform="matrix(-1 0 0 1 49 0)"/>
</clipPath>
</defs>
</svg>
