<svg width="49" height="12" viewBox="0 0 49 12" fill="none" xmlns="http://www.w3.org/2000/svg">
<g clip-path="url(#clip0_403_352)">
<path d="M0.599976 9.89589L12.6772 5.97217" stroke="#F8AF3C" stroke-miterlimit="10" stroke-linecap="round"/>
<path d="M0.599976 2.05835L12.6772 5.96781" stroke="#E42320" stroke-miterlimit="10" stroke-linecap="round"/>
<path d="M36.0699 10.7142L35.5108 1.17261C35.5108 1.17261 35.2559 1.37686 35.1641 1.37687C35.0724 1.37687 34.8174 1.17261 34.8174 1.17261L35.3764 10.7142C35.3764 10.7142 35.6314 10.5099 35.7232 10.5099C35.8149 10.5099 36.0699 10.7142 36.0699 10.7142Z" stroke="black" stroke-width="0.51849" stroke-linecap="round" stroke-linejoin="round"/>
<path d="M36.6964 10.7142L36.1373 1.17261C36.1373 1.17261 35.8823 1.37686 35.7906 1.37687C35.6988 1.37687 35.4438 1.17261 35.4438 1.17261L36.0029 10.7142C36.0029 10.7142 36.2579 10.5099 36.3496 10.5099C36.4414 10.5099 36.6964 10.7142 36.6964 10.7142Z" stroke="black" stroke-width="0.51849" stroke-linecap="round" stroke-linejoin="round"/>
<path d="M35.4434 10.7142L34.8844 1.17261C34.8844 1.17261 34.6294 1.37686 34.5377 1.37687C34.4459 1.37687 34.1909 1.17261 34.1909 1.17261L34.75 10.7142C34.75 10.7142 35.005 10.5099 35.0967 10.5099C35.1884 10.5099 35.4434 10.7142 35.4434 10.7142Z" stroke="black" stroke-width="0.51849" stroke-linecap="round" stroke-linejoin="round"/>
<path d="M38.2983 10.7142L37.3568 1.17261C37.1715 1.26532 36.9753 1.33395 36.7729 1.37687C36.5705 1.33395 36.3743 1.26532 36.189 1.17261L37.1304 10.7142C37.3157 10.6215 37.512 10.5528 37.7144 10.5099C37.9168 10.5528 38.113 10.6215 38.2983 10.7142Z" stroke="black" stroke-width="0.51849" stroke-linecap="round" stroke-linejoin="round"/>
<path d="M39.5302 10.7142L38.5887 1.17261C38.4035 1.26532 38.2073 1.33395 38.0048 1.37687C37.8024 1.33395 37.6062 1.26532 37.4209 1.17261L38.3624 10.7142C38.5477 10.6215 38.7439 10.5528 38.9463 10.5099C39.1487 10.5528 39.3449 10.6215 39.5302 10.7142Z" stroke="black" stroke-width="0.51849" stroke-linecap="round" stroke-linejoin="round"/>
<path d="M40.7036 10.7142L39.7621 1.17261C39.5768 1.26532 39.3806 1.33395 39.1782 1.37687C38.9758 1.33396 38.7795 1.26532 38.5942 1.17261L39.5357 10.7142C39.721 10.6215 39.9172 10.5528 40.1197 10.5099C40.3221 10.5528 40.5183 10.6215 40.7036 10.7142Z" stroke="black" stroke-width="0.51849" stroke-linecap="round" stroke-linejoin="round"/>
<path d="M41.8862 10.7142L40.9447 1.17261C40.7594 1.26532 40.5632 1.33395 40.3608 1.37687C40.1584 1.33396 39.9622 1.26532 39.7769 1.17261L40.7183 10.7142C40.9036 10.6215 41.0998 10.5528 41.3023 10.5099C41.5047 10.5528 41.7009 10.6215 41.8862 10.7142Z" stroke="black" stroke-width="0.51849" stroke-linecap="round" stroke-linejoin="round"/>
<path d="M43.06 10.7142L42.1185 1.17261C41.9332 1.26532 41.737 1.33395 41.5346 1.37687C41.3322 1.33396 41.136 1.26532 40.9507 1.17261L41.8922 10.7142C42.0775 10.6215 42.2737 10.5528 42.4761 10.5099C42.6785 10.5528 42.8747 10.6215 43.06 10.7142Z" stroke="black" stroke-width="0.51849" stroke-linecap="round" stroke-linejoin="round"/>
<path d="M44.2192 10.7142L43.2777 1.17261C43.0924 1.26532 42.8962 1.33395 42.6938 1.37687C42.4914 1.33396 42.2952 1.26532 42.1099 1.17261L43.0513 10.7142C43.2366 10.6215 43.4328 10.5528 43.6353 10.5099C43.8377 10.5528 44.0339 10.6214 44.2192 10.7142Z" stroke="black" stroke-width="0.51849" stroke-linecap="round" stroke-linejoin="round"/>
<path d="M45.3935 10.7142L44.452 1.17261C44.2667 1.26532 44.0705 1.33395 43.8681 1.37687C43.6657 1.33396 43.4695 1.26532 43.2842 1.17261L44.2257 10.7142C44.411 10.6215 44.6072 10.5528 44.8096 10.5099C45.012 10.5528 45.2082 10.6215 45.3935 10.7142Z" stroke="black" stroke-width="0.51849" stroke-linecap="round" stroke-linejoin="round"/>
<path d="M46.5517 10.7142L45.6102 1.17261C45.4249 1.26532 45.2287 1.33395 45.0263 1.37687C44.8239 1.33396 44.6277 1.26532 44.4424 1.17261L45.3839 10.7142C45.5692 10.6215 45.7654 10.5528 45.9678 10.5099C46.1702 10.5528 46.3664 10.6215 46.5517 10.7142Z" stroke="black" stroke-width="0.51849" stroke-linecap="round" stroke-linejoin="round"/>
<path d="M47.7251 10.7142L46.7836 1.17261C46.5983 1.26532 46.4021 1.33395 46.1997 1.37687C45.9972 1.33396 45.801 1.26532 45.6157 1.17261L46.5572 10.7142C46.7425 10.6215 46.9387 10.5528 47.1411 10.5099C47.3436 10.5528 47.5398 10.6215 47.7251 10.7142Z" stroke="black" stroke-width="0.51849" stroke-linecap="round" stroke-linejoin="round"/>
<path d="M48.309 10.7142L47.9418 1.17261C47.7565 1.26532 47.5603 1.33395 47.3579 1.37687C47.1554 1.33396 46.9592 1.26532 46.7739 1.17261L47.7251 10.7142H48.309Z" stroke="black" stroke-width="0.51849" stroke-linecap="round" stroke-linejoin="round"/>
<path d="M31.4543 1.17261H27.9429V10.8283H31.4543V1.17261Z" fill="white" stroke="black" stroke-width="0.51849" stroke-miterlimit="10"/>
<path d="M31.4546 10.8284L31.5336 1.17251L31.7514 0.259277H34.6975L34.9659 1.17251V10.8284L34.6695 11.7416H31.7507L31.4546 10.8284Z" fill="white" stroke="black" stroke-width="0.51849" stroke-miterlimit="10"/>
<path d="M27.9427 6.00053V1.17261L24.9028 1.7601V6.00053V10.2413L27.9427 10.8284V6.00053Z" fill="white" stroke="black" stroke-width="0.51849" stroke-miterlimit="10"/>
<path d="M34.669 3.67358H31.7505" stroke="black" stroke-width="0.51849" stroke-miterlimit="10"/>
<path d="M34.669 8.32764H31.7505" stroke="black" stroke-width="0.51849" stroke-miterlimit="10"/>
<path d="M34.6694 0.150635C34.7612 0.486836 34.8337 0.828107 34.8865 1.17274C34.925 1.79918 34.6568 3.04618 34.6694 3.67369C34.6811 4.26008 34.9659 5.41409 34.9659 6.00061C34.9659 6.58714 34.6811 7.74117 34.6694 8.32758C34.6577 8.91124 34.8997 10.0707 34.8714 10.6538C34.8231 11.0198 34.7556 11.383 34.6694 11.7418" fill="white"/>
<path d="M34.6694 0.150635C34.7612 0.486836 34.8337 0.828107 34.8865 1.17274C34.925 1.79918 34.6568 3.04618 34.6694 3.67369C34.6811 4.26008 34.9659 5.41409 34.9659 6.00061C34.9659 6.58714 34.6811 7.74117 34.6694 8.32758C34.6577 8.91124 34.8997 10.0707 34.8714 10.6538C34.8231 11.0198 34.7556 11.383 34.6694 11.7418" stroke="black" stroke-width="0.51849" stroke-miterlimit="10"/>
<path d="M31.7508 11.7418C31.6269 11.4463 31.5277 11.1407 31.4543 10.8285C31.3928 10.2019 31.7535 8.95724 31.7508 8.32757C31.7482 7.74104 31.4543 6.58714 31.4543 6.00061C31.4543 5.41409 31.739 4.26009 31.7508 3.67369C31.7634 3.04619 31.4952 1.79918 31.5336 1.17275C31.5865 0.828115 31.659 0.486841 31.7508 0.150635" fill="white"/>
<path d="M31.7508 11.7418C31.6269 11.4463 31.5277 11.1407 31.4543 10.8285C31.3928 10.2019 31.7535 8.95724 31.7508 8.32757C31.7482 7.74104 31.4543 6.58714 31.4543 6.00061C31.4543 5.41409 31.739 4.26009 31.7508 3.67369C31.7634 3.04619 31.4952 1.79918 31.5336 1.17275C31.5865 0.828115 31.659 0.486841 31.7508 0.150635" stroke="black" stroke-width="0.51849" stroke-miterlimit="10"/>
<path d="M35.623 10.8284L35.7024 1.17251L35.9198 0.259277H37.523L37.7917 1.17251V10.8284L37.4952 11.7416H35.9195L35.623 10.8284Z" fill="white" stroke="black" stroke-width="0.51849" stroke-miterlimit="10"/>
<path d="M37.495 3.67358H35.9194" stroke="black" stroke-width="0.51849" stroke-miterlimit="10"/>
<path d="M37.495 8.32764H35.9194" stroke="black" stroke-width="0.51849" stroke-miterlimit="10"/>
<path d="M37.4951 0.150635C37.5869 0.486836 37.6594 0.828107 37.7122 1.17274C37.7507 1.79918 37.4825 3.04618 37.4951 3.67369C37.5068 4.26008 37.7915 5.41409 37.7915 6.00061C37.7915 6.58714 37.5068 7.74117 37.4951 8.32758C37.4834 8.91124 37.7253 10.0707 37.6971 10.6538C37.6487 11.0198 37.5813 11.383 37.4951 11.7418" stroke="black" stroke-width="0.51849" stroke-miterlimit="10"/>
<path d="M35.9197 11.7418C35.7958 11.4463 35.6966 11.1407 35.6233 10.8285C35.5618 10.2019 35.9225 8.95724 35.9197 8.32757C35.9172 7.74104 35.6233 6.58714 35.6233 6.00061C35.6233 5.41409 35.908 4.26009 35.9197 3.67369C35.9323 3.04619 35.6641 1.79918 35.7026 1.17275C35.7554 0.828115 35.8279 0.486841 35.9197 0.150635" fill="white"/>
<path d="M35.9197 11.7418C35.7958 11.4463 35.6966 11.1407 35.6233 10.8285C35.5618 10.2019 35.9225 8.95724 35.9197 8.32757C35.9172 7.74104 35.6233 6.58714 35.6233 6.00061C35.6233 5.41409 35.908 4.26009 35.9197 3.67369C35.9323 3.04619 35.6641 1.79918 35.7026 1.17275C35.7554 0.828115 35.8279 0.486841 35.9197 0.150635" stroke="black" stroke-width="0.51849" stroke-miterlimit="10"/>
<path d="M24.9031 6.0004V5.94348V3.67358L17.4653 4.30417V5.94348V6.0004V7.63972L24.9031 8.2703V6.0004Z" fill="#4E4D4D" stroke="black" stroke-width="0.51849" stroke-miterlimit="10"/>
<path d="M11.9679 6.84867C12.0312 6.79439 12.082 6.7269 12.1168 6.65086C12.1517 6.57483 12.1697 6.49206 12.1697 6.40829C12.1697 6.32453 12.1517 6.24176 12.1168 6.16572C12.082 6.08968 12.0312 6.02219 11.9679 5.96791C11.382 5.45711 11.9679 5.08716 11.9679 5.08716H17.4655V6.84867H11.9679Z" fill="#4E4D4D" stroke="black" stroke-width="0.51849" stroke-miterlimit="10"/>
<path class="4-20-IN-V+" d="M1.20898 2.15063C1.20898 1.87449 0.985127 1.65063 0.708984 1.65063C0.432842 1.65063 0.208984 1.87449 0.208984 2.15063C0.208984 2.42678 0.432842 2.65063 0.708984 2.65063C0.985127 2.65063 1.20898 2.42678 1.20898 2.15063Z" fill="#D9D9D9" fill-opacity="0.1"/>
<path class="4-20-IN-IN" d="M1.20898 9.95068C1.20898 9.67454 0.985127 9.45068 0.708984 9.45068C0.432842 9.45068 0.208984 9.67454 0.208984 9.95068C0.208984 10.2268 0.432842 10.4507 0.708984 10.4507C0.985127 10.4507 1.20898 10.2268 1.20898 9.95068Z" fill="#D9D9D9" fill-opacity="0.1"/>
</g>
<defs>
<clipPath id="clip0_403_352">
<rect width="49" height="12" fill="white"/>
</clipPath>
</defs>
</svg>
