<svg width="106" height="106" viewBox="0 0 106 106" fill="none" xmlns="http://www.w3.org/2000/svg">
<path d="M41.2809 5.55081L105.536 69.8056L69.8056 105.536L5.55079 41.2809C2.48194 38.2121 2.76479 32.9653 6.18718 29.5429L29.5429 6.18721C32.9653 2.76481 38.2121 2.48197 41.2809 5.55081Z" fill="white"/>
<path d="M46.3154 16.7797L16.7725 46.3227L71.2338 100.784L100.777 71.2411L46.3154 16.7797Z" fill="#EBEBEB" stroke="black" stroke-width="0.5" stroke-miterlimit="10"/>
<path d="M39.202 40.9203L34.4927 40.8072" stroke="black" stroke-width="0.5" stroke-miterlimit="10"/>
<path d="M41.9173 38.5445L41.4082 33.7503" stroke="black" stroke-width="0.5" stroke-miterlimit="10"/>
<path d="M48.9954 43.2043L42.8719 37.0808L37.7524 42.2002L43.876 48.3238L43.7911 48.2389L48.9106 43.1195" fill="#575756"/>
<path d="M48.9954 43.2043L42.8719 37.0808L37.7524 42.2002L43.876 48.3238L43.7911 48.2389L48.9106 43.1195" stroke="black" stroke-width="0.25" stroke-miterlimit="10"/>
<path d="M69.8057 105.536L105.536 69.8056" stroke="black" stroke-width="0.5" stroke-miterlimit="10"/>
<path d="M69.8056 105.536L5.55078 41.2809" stroke="black" stroke-width="0.5" stroke-miterlimit="10"/>
<path d="M105.536 69.8056L41.281 5.55081" stroke="black" stroke-width="0.5" stroke-miterlimit="10"/>
<path d="M5.55079 41.2809C2.48194 38.2121 2.76479 32.9653 6.18718 29.5429" stroke="black" stroke-width="0.5" stroke-miterlimit="10"/>
<path d="M41.2809 5.55076C38.2121 2.48192 32.9583 2.77183 29.543 6.18716" stroke="black" stroke-width="0.5" stroke-miterlimit="10"/>
<path d="M6.18726 29.543L29.543 6.18726" stroke="black" stroke-width="0.5" stroke-miterlimit="10"/>
<path d="M26.0569 26.0215C27.5057 24.5726 27.5057 22.2236 26.0569 20.7747C24.608 19.3259 22.259 19.3259 20.8101 20.7747C19.3613 22.2236 19.3613 24.5726 20.8101 26.0215C22.259 27.4703 24.608 27.4703 26.0569 26.0215Z" fill="white" stroke="black" stroke-width="0.5" stroke-miterlimit="10"/>
<path d="M67.1045 85.5812C69.4875 83.1983 69.8693 79.7334 67.9672 77.8313L58.393 68.2571C56.4908 66.355 53.1533 66.6095 50.9259 68.8369C48.543 71.2199 48.1611 74.6847 50.0632 76.5868L59.6375 86.161C61.5467 88.0561 64.8842 87.8015 67.1045 85.5812Z" fill="white" stroke="black" stroke-width="0.25" stroke-miterlimit="10"/>
<path d="M49.0592 30.4976C50.2738 29.2831 50.2738 27.3139 49.0592 26.0994C47.8447 24.8849 45.8755 24.8849 44.661 26.0994C43.4465 27.3139 43.4465 29.2831 44.661 30.4976C45.8755 31.7121 47.8447 31.7121 49.0592 30.4976Z" fill="#C8C8CA" stroke="#212830" stroke-width="0.25" stroke-miterlimit="10"/>
<path d="M47.0085 31.4027L47.0085 25.1943" stroke="#212830" stroke-width="0.25" stroke-miterlimit="10"/>
<path d="M35.136 41.4506C35.4913 41.0952 35.4913 40.5191 35.136 40.1637C34.7806 39.8083 34.2044 39.8083 33.849 40.1637C33.4937 40.5191 33.4937 41.0952 33.849 41.4506C34.2044 41.806 34.7806 41.806 35.136 41.4506Z" stroke="black" stroke-width="0.25" stroke-miterlimit="10"/>
<path d="M38.5586 37.8868C38.914 37.5314 38.914 36.9552 38.5586 36.5998C38.2032 36.2445 37.627 36.2445 37.2716 36.5998C36.9163 36.9552 36.9163 37.5314 37.2716 37.8868C37.627 38.2422 38.2032 38.2422 38.5586 37.8868Z" stroke="black" stroke-width="0.25" stroke-miterlimit="10"/>
<path d="M42.0517 34.3936C42.4071 34.0382 42.4071 33.4621 42.0517 33.1067C41.6964 32.7513 41.1202 32.7513 40.7648 33.1067C40.4094 33.4621 40.4094 34.0382 40.7648 34.3936C41.1202 34.749 41.6964 34.749 42.0517 34.3936Z" stroke="black" stroke-width="0.25" stroke-miterlimit="10"/>
<path d="M43.8758 48.3237C43.0626 47.5105 43.5505 45.7074 44.9648 44.2932C46.379 42.879 48.1821 42.3911 48.9953 43.2043" stroke="black" stroke-width="0.25" stroke-miterlimit="10"/>
<path d="M42.8719 37.0808C43.4517 37.6606 42.78 39.2799 41.3658 40.6941C39.9515 42.1083 38.3323 42.78 37.7524 42.2002" fill="#575756"/>
<path d="M42.8719 37.0808C43.4517 37.6606 42.78 39.2799 41.3658 40.6941C39.9515 42.1083 38.3323 42.78 37.7524 42.2002" stroke="black" stroke-width="0.25" stroke-miterlimit="10"/>
<path d="M40.3121 39.6404L37.915 37.2433" stroke="black" stroke-width="0.5" stroke-miterlimit="10"/>
<path d="M53.0057 60.3787L53.993 58.4303L54.1979 58.6352L53.7024 59.5852C53.5683 59.8459 53.4453 60.0806 53.3112 60.2893L53.3149 60.293C53.5273 60.1626 53.7694 60.0397 54.0302 59.913L55.0063 59.4361L55.2074 59.6373L53.2143 60.5798L53.0094 60.3749L53.0057 60.3787Z" fill="#BE1622"/>
<path d="M54.9728 62.2487C54.8685 62.2115 54.6934 62.1109 54.5145 61.932C54.101 61.5185 54.0489 60.9448 54.5294 60.4642C54.9877 60.006 55.6135 60.006 56.068 60.4605C56.2506 60.6431 56.3288 60.7958 56.3549 60.874L56.1537 60.9858C56.1165 60.8815 56.0382 60.7511 55.919 60.6319C55.5763 60.2891 55.1255 60.278 54.7418 60.6617C54.3842 61.0193 54.3618 61.4589 54.7157 61.8128C54.8312 61.9283 54.9728 62.0252 55.0845 62.0624L54.9728 62.2487Z" fill="#BE1622"/>
<path d="M56.191 63.467C56.0867 63.4297 55.9116 63.3291 55.7328 63.1503C55.3193 62.7368 55.2671 62.1631 55.7477 61.6825C56.2059 61.2243 56.8318 61.2243 57.2863 61.6788C57.4688 61.8613 57.5471 62.0141 57.5732 62.0923L57.372 62.2041C57.3347 62.0997 57.2565 61.9694 57.1373 61.8501C56.7945 61.5074 56.3438 61.4962 55.9601 61.8799C55.6024 62.2376 55.5801 62.6772 55.934 63.0311C56.0495 63.1466 56.191 63.2434 56.3028 63.2807L56.191 63.467Z" fill="#BE1622"/>
<path d="M63.9056 68.4364C64.0341 68.5292 64.1769 68.6506 64.3197 68.7933C64.5802 69.0539 64.7052 69.3002 64.7159 69.5393C64.7266 69.7785 64.6373 70.0176 64.4089 70.246C64.1805 70.4745 63.9199 70.5922 63.6594 70.5887C63.3952 70.5887 63.1061 70.4423 62.8349 70.1711C62.7064 70.0426 62.6029 69.9248 62.5243 69.8249L63.9092 68.44L63.9056 68.4364ZM62.8384 69.8606C62.8777 69.9141 62.9419 69.9855 63.0098 70.0533C63.3988 70.4423 63.8271 70.4352 64.2055 70.0569C64.541 69.7285 64.5624 69.3287 64.1769 68.9433C64.0841 68.8505 64.0056 68.7862 63.9449 68.7469L62.8349 69.857L62.8384 69.8606Z" fill="black"/>
<path d="M64.5481 70.9706L63.9592 71.2668L63.77 71.0777L65.6546 70.1497L65.8723 70.3674L64.9443 72.2519L64.7516 72.0592L65.0443 71.4667L64.5481 70.9706ZM65.1514 71.2883L65.4155 70.7458C65.4762 70.6208 65.5368 70.5173 65.601 70.4174L65.5975 70.4138C65.494 70.4745 65.3869 70.5387 65.2727 70.5958L64.7266 70.8635L65.1514 71.2883Z" fill="black"/>
<path d="M66.5149 71.3169L66.0865 70.8886L66.24 70.7351L67.2822 71.7773L67.1288 71.9308L66.7005 71.5025L65.4477 72.7553L65.2656 72.5733L66.5184 71.3205L66.5149 71.3169Z" fill="black"/>
<path d="M66.5432 72.9658L65.9543 73.2621L65.7651 73.0729L67.6533 72.1485L67.871 72.3662L66.943 74.2508L66.7502 74.058L67.0429 73.4655L66.5432 72.9658ZM67.1464 73.2835L67.4106 72.741C67.4712 72.616 67.5319 72.5125 67.5962 72.4126L67.5926 72.409C67.4891 72.4697 67.382 72.5339 67.2678 72.5911L66.7217 72.8587L67.1464 73.2835Z" fill="black"/>
<path d="M72.6661 79.778C72.5616 79.7275 72.3627 79.623 72.184 79.4443C71.9817 79.242 71.8671 79.0262 71.8637 78.7733C71.8603 78.5474 71.9648 78.3013 72.1739 78.0923C72.5717 77.7012 73.1314 77.6809 73.5764 78.126C73.7315 78.2811 73.8158 78.4328 73.8462 78.5171L73.6641 78.6182C73.6236 78.5171 73.563 78.4025 73.4281 78.2676C73.1044 77.9439 72.6931 77.9372 72.3627 78.2676C72.0255 78.6047 72.0289 79.006 72.3391 79.3161C72.4503 79.4274 72.5447 79.4881 72.6054 79.5083L72.9999 79.1139L72.7302 78.8441L72.8684 78.7059L73.3067 79.1442L72.6695 79.7814L72.6661 79.778Z" fill="black"/>
<path d="M72.8718 80.0984L74.2002 78.77L74.389 78.9588L74.1362 80.0546C74.0788 80.3075 74.0148 80.5266 73.944 80.7255L73.9507 80.7255C74.1126 80.53 74.271 80.3648 74.4767 80.1591L75.033 79.6028L75.1948 79.7646L73.8664 81.093L73.6945 80.9211L73.9474 79.8253C74.0047 79.5859 74.0654 79.3432 74.1395 79.1342L74.1294 79.1308C73.971 79.3095 73.8159 79.4713 73.5967 79.6905L73.0303 80.2569L72.8718 80.0984Z" fill="black"/>
<path d="M75.4781 80.0882C75.5995 80.1759 75.7343 80.2905 75.8692 80.4254C76.1153 80.6715 76.2333 80.9041 76.2434 81.13C76.2536 81.3559 76.1693 81.5818 75.9535 81.7976C75.7377 82.0134 75.4916 82.1246 75.2455 82.1213C74.996 82.1213 74.7229 81.983 74.4666 81.7268C74.3453 81.6054 74.2475 81.4942 74.1733 81.3997L75.4815 80.0916L75.4781 80.0882ZM74.4734 81.4301C74.5105 81.4807 74.5711 81.5481 74.6352 81.6122C75.0027 81.9797 75.4073 81.9729 75.7647 81.6155C76.0816 81.3053 76.1018 80.9277 75.7377 80.5636C75.65 80.4759 75.5759 80.4153 75.5186 80.3782L74.47 81.4267L74.4734 81.4301Z" fill="black"/>
<path d="M85.2133 59.3274L94.2007 68.3148L96.1744 66.3411L87.187 57.3537L69.2412 39.4079L67.2675 41.3816L85.2133 59.3274Z" fill="#2AA737" stroke="#161818" stroke-width="0.3" stroke-miterlimit="10"/>
<path d="M81.777 80.7098L94.1863 68.3006L67.2676 41.3819L54.8583 53.7911" fill="#C0DAAF"/>
<path d="M81.777 80.7098L94.1863 68.3006L67.2676 41.3819L54.8583 53.7911" stroke="#393B40" stroke-width="0.3" stroke-miterlimit="10"/>
<path class="1-WIRE-GND" d="M87.1407 72.9395L87.7206 72.2436L88.1556 71.4028L88.4165 70.591L88.518 69.6488L88.4311 68.692L88.1557 67.8947L87.7353 67.0395L87.141 66.3582L86.4597 65.7638L85.6044 65.3435L84.8071 65.0681L83.8359 64.9666L82.8936 65.0681L82.0963 65.3436L81.241 65.764L80.5452 66.3439L79.9653 67.0397L79.5449 67.895L79.2839 68.6778L79.1679 69.6346L79.2839 70.5913L79.5593 71.3886L79.9796 72.2439L80.5595 72.9397L81.2552 73.5195L82.1105 73.9399L82.9078 74.2153L83.8501 74.3167L84.8068 74.2007L85.6041 73.9543L86.4449 73.5193L87.1407 72.9395Z" fill="#D4D3D3" stroke="#393B40" stroke-width="0.3" stroke-miterlimit="10"/>
<path d="M83.8359 64.9088L83.8356 74.3024" stroke="#393B40" stroke-width="0.3" stroke-miterlimit="10"/>
<path class="1-WIRE-V+" d="M69.1807 54.9792L69.7606 54.2834L70.1955 53.4425L70.4565 52.6308L70.558 51.6885L70.471 50.7317L70.1956 49.9344L69.7752 49.0792L69.1809 48.3979L68.4996 47.8036L67.6444 47.3832L66.8616 47.1223L65.8903 47.0208L64.948 47.1223L64.1508 47.3978L63.2954 47.8182L62.5996 48.3981L62.0197 49.0939L61.5993 49.9492L61.3384 50.732L61.2224 51.6888L61.3383 52.6455L61.5992 53.4283L62.0196 54.2836L62.5994 54.9794L63.2952 55.5592L64.1505 55.9796L64.9478 56.255L65.89 56.3564L66.8468 56.2404L67.6441 55.994L68.4849 55.5591L69.1807 54.9792Z" fill="#D4D3D3" stroke="#393B40" stroke-width="0.3" stroke-miterlimit="10"/>
<path d="M65.8904 46.9629L65.8901 56.3565" stroke="#393B40" stroke-width="0.3" stroke-miterlimit="10"/>
<path class="1-WIRE-DAT" d="M78.1388 63.8217L78.7187 63.1258L79.1536 62.285L79.4001 61.4877L79.5161 60.531L79.4001 59.5742L79.1537 58.7769L78.7188 57.9362L78.139 57.2404L77.4287 56.646L76.5879 56.2112L75.7907 55.9648L74.8339 55.8488L73.8772 55.9648L73.0798 56.2113L72.239 56.6462L71.5432 57.2261L70.9633 57.9219L70.5284 58.7627L70.2675 59.5745L70.1659 60.5168L70.2819 61.4735L70.5283 62.2708L70.9632 63.1116L71.5575 63.8219L72.2533 64.4017L73.0941 64.8366L73.8913 65.083L74.8481 65.1989L75.7904 65.0974L76.6022 64.8365L77.443 64.4016L78.1388 63.8217Z" fill="#D4D3D3" stroke="#393B40" stroke-width="0.3" stroke-miterlimit="10"/>
<path d="M74.8772 55.8344L74.8769 65.228" stroke="#393B40" stroke-width="0.3" stroke-miterlimit="10"/>
<path d="M81.7914 80.7244L54.8582 53.7912L52.8721 55.7772L79.8053 82.7104L81.7914 80.7244Z" fill="#60AA30" stroke="#32312F" stroke-width="0.3" stroke-miterlimit="10"/>
</svg>
