<svg width="392" height="204" viewBox="0 0 392 204" fill="none" xmlns="http://www.w3.org/2000/svg">
<path d="M66 61.1221C66 54.4692 58.7022 50.3952 53.0391 53.8867L4.53906 83.7891C2.02874 85.3368 0.5 88.0753 0.5 91.0244V110.133C0.500033 113.001 1.94644 115.676 4.34668 117.246L52.8467 148.972C58.4999 152.67 65.9999 148.614 66 141.858V61.1221Z" fill="#F2F2F2" stroke="#B1B1B1"/>
<path d="M326 61.1221C326 54.4692 333.298 50.3952 338.961 53.8867L387.461 83.7891C389.971 85.3368 391.5 88.0753 391.5 91.0244V110.133C391.5 113.001 390.054 115.676 387.653 117.246L339.153 148.972C333.5 152.67 326 148.614 326 141.858V61.1221Z" fill="#F2F2F2" stroke="#B1B1B1"/>
<rect x="51.5" y="0.5" width="289" height="203" rx="16.5" fill="#F2F2F2" stroke="#B1B1B1"/>
<rect x="58.5" y="31.5" width="274" height="149" rx="2.5" fill="white" stroke="#B1B1B1"/>
<path fill-rule="evenodd" clip-rule="evenodd" d="M145.929 54.2212C144.516 55.1491 143.191 56.519 141.998 58.3307C141.203 59.5238 140.319 61.1146 139.436 63.103C138.906 64.2961 138.022 66.3288 136.874 69.201C136.167 70.9685 135.505 72.3384 134.886 73.2663C134.179 74.5036 133.208 75.7851 131.927 77.0223C130.116 78.8341 128.039 80.2481 125.698 81.2644C124.152 81.8831 122.739 82.2808 121.502 82.4133L120 82.5017L121.325 81.4412L124.461 78.3922C125.787 76.9782 126.847 75.52 127.73 74.0617C128.304 73.0896 128.746 72.25 129.011 71.5872L130.204 68.5382C131.22 65.9311 132.678 63.4565 134.577 61.0704C136.344 58.861 138.199 57.1818 140.143 55.9887C141.733 55.0166 143.191 54.4421 144.516 54.2654C145.178 54.177 145.664 54.2212 145.974 54.2654L145.929 54.2212Z" fill="#EE7203"/>
<path fill-rule="evenodd" clip-rule="evenodd" d="M155.471 54.2659C154.057 55.1938 152.732 56.5637 151.539 58.3754C150.744 59.5685 149.861 61.1592 148.977 63.1477C148.447 64.3408 147.564 66.3735 146.415 69.2457C145.709 71.0132 145.046 72.3831 144.428 73.311C143.721 74.5483 142.749 75.8298 141.468 77.067C139.657 78.8788 137.581 80.2928 135.24 81.3091C133.694 81.9277 132.28 82.3254 131.043 82.458L129.542 82.5464L130.867 81.4859L134.003 78.4369C135.328 77.0228 136.388 75.5646 137.272 74.1064C137.846 73.1343 138.288 72.2947 138.553 71.6319L139.745 68.5829C140.761 65.9758 142.219 63.5012 144.118 61.1151C145.885 58.9056 147.741 57.2265 149.684 56.0334C151.274 55.0613 152.732 54.4868 154.057 54.3101C154.72 54.2217 155.206 54.2659 155.515 54.3101L155.471 54.2659Z" fill="#2E2D2C"/>
<path fill-rule="evenodd" clip-rule="evenodd" d="M164.923 54.2212C163.51 55.1491 162.184 56.519 160.992 58.3307C160.197 59.5238 159.313 61.1146 158.43 63.103C157.9 64.2961 157.016 66.3288 155.868 69.201C155.161 70.9685 154.498 72.3384 153.88 73.2663C153.173 74.5036 152.201 75.7851 150.92 77.0223C149.109 78.8341 147.033 80.2481 144.692 81.2644C143.146 81.8831 141.732 82.2808 140.496 82.4133L138.994 82.5017L140.319 81.4412L143.455 78.3922C144.78 76.9782 145.84 75.52 146.724 74.0617C147.298 73.0896 147.74 72.25 148.005 71.5872L149.198 68.5382C150.214 65.9311 151.671 63.4565 153.571 61.0704C155.338 58.861 157.193 57.1818 159.136 55.9887C160.727 55.0166 162.184 54.4421 163.51 54.2654C164.172 54.177 164.658 54.2212 164.967 54.2654L164.923 54.2212Z" fill="#EE7203"/>
<path d="M181.975 82.4131H177.778V58.5514H174.642V82.4131H170.401V57.8886C170.401 56.6513 170.711 55.7233 171.285 55.0163C171.859 54.3093 172.743 54 173.803 54H177.381C178.176 54 178.75 54.2209 179.192 54.707C179.633 55.1931 179.854 55.8559 179.854 56.7397C179.854 55.8559 180.075 55.1931 180.473 54.707C180.914 54.2209 181.489 54 182.24 54H185.818C186.922 54 187.761 54.3535 188.38 55.0163C188.998 55.6792 189.307 56.6513 189.307 57.8886V82.4131H185.023V58.5514H181.93V82.4131H181.975Z" fill="#2E2D2C"/>
<path d="M192.443 54.0437H196.684V66.2839L199.776 64.5163V54.0437H204.061V78.3473C204.061 79.7171 203.752 80.7776 203.177 81.4405C202.603 82.1033 201.676 82.4568 200.483 82.4568H195.845C194.74 82.4568 193.901 82.1033 193.327 81.4405C192.753 80.7776 192.443 79.8055 192.443 78.5682V77.5519L196.684 75.1215V77.9496H199.776V69.598L192.443 73.7959V54.0437Z" fill="#2E2D2C"/>
<path d="M218.859 54.0442V82.4131H214.662V69.245L211.438 71.0567V82.4131H207.241V54.0442H211.438V65.9308L214.662 64.1633V54H218.859V54.0442Z" fill="#EE7203"/>
<path d="M232.247 82.4126H221.996V54.0437H232.247V58.5951H226.238V65.9304L232.247 62.6162V67.6979L226.238 71.0562V77.9054H232.247V82.4568V82.4126Z" fill="#EE7203"/>
<path d="M246.555 82.4131H242.315V70.3939L239.179 72.1614V82.4131H234.938V57.8886C234.938 56.6513 235.247 55.7233 235.821 55.0163C236.396 54.3093 237.279 54 238.339 54H243.11C244.214 54 245.054 54.3535 245.672 55.0163C246.29 55.6792 246.6 56.6513 246.6 57.8886V82.4131H246.555ZM242.271 65.4006V58.5514H239.134V67.0797L242.271 65.4006Z" fill="#EE7203"/>
<path d="M252.563 82.4131V58.5514H248.367V54H261V58.5514H256.804V82.4131H252.563Z" fill="#EE7203"/>
<path d="M188 160C189 161 190.4 163.6 188 166" stroke="#090808" stroke-width="1.2" stroke-linecap="round"/>
<path d="M189 157C191.264 159 194.433 164.2 189 169" stroke="#090808" stroke-width="1.2" stroke-linecap="round"/>
<path d="M173 163.5L175.864 155.384C175.899 155.286 176.043 155.3 176.058 155.403L177.923 168.464C177.939 168.574 178.095 168.58 178.12 168.472L180.416 158.37C180.439 158.27 180.58 158.265 180.609 158.364L181.979 162.929C181.991 162.971 182.03 163 182.074 163H185" stroke="#090808" stroke-width="1.2" stroke-linecap="round"/>
<rect x="185" y="162" width="2" height="2" rx="1" fill="black"/>
<path d="M210.324 150.77V168.442C210.324 168.466 210.315 168.49 210.299 168.509C207.936 171.255 209.328 173.574 210.324 174.392C212.721 176.363 214.986 175.214 215.818 174.392C218.587 172.051 217.015 169.516 215.853 168.509C215.83 168.49 215.818 168.463 215.818 168.433V150.775C215.818 150.753 215.81 150.731 215.797 150.714C213.422 147.617 211.181 149.409 210.339 150.717C210.329 150.733 210.324 150.751 210.324 150.77Z" stroke="#090808" stroke-width="1.2" stroke-linecap="round"/>
<rect x="210.35" y="168.731" width="5.5" height="5.5" rx="2.75" fill="black"/>
<rect x="211.5" y="160.481" width="3" height="9" fill="black"/>
<path d="M126.799 101V93.7273H127.896V96.8878H131.522V93.7273H132.623V101H131.522V97.8288H127.896V101H126.799ZM136.487 101.11C135.949 101.11 135.486 100.995 135.098 100.766C134.712 100.534 134.414 100.208 134.203 99.7891C133.995 99.3677 133.891 98.8741 133.891 98.3082C133.891 97.7495 133.995 97.2571 134.203 96.831C134.414 96.4048 134.707 96.0722 135.084 95.8331C135.463 95.594 135.905 95.4744 136.412 95.4744C136.72 95.4744 137.018 95.5253 137.307 95.6271C137.596 95.7289 137.855 95.8887 138.085 96.1065C138.314 96.3243 138.495 96.6072 138.628 96.9553C138.76 97.3009 138.827 97.7211 138.827 98.2159V98.5923H134.491V97.7969H137.786C137.786 97.5175 137.729 97.2701 137.616 97.0547C137.502 96.8369 137.342 96.6652 137.136 96.5398C136.933 96.4143 136.694 96.3516 136.419 96.3516C136.121 96.3516 135.86 96.425 135.638 96.5717C135.418 96.7161 135.247 96.9055 135.126 97.1399C135.008 97.3719 134.949 97.6241 134.949 97.8963V98.5178C134.949 98.8823 135.013 99.1925 135.141 99.4482C135.271 99.7038 135.452 99.8991 135.684 100.034C135.916 100.167 136.187 100.233 136.497 100.233C136.698 100.233 136.882 100.205 137.048 100.148C137.213 100.089 137.357 100.001 137.477 99.8849C137.598 99.7689 137.69 99.6257 137.754 99.4553L138.759 99.6364C138.679 99.9323 138.534 100.192 138.326 100.414C138.12 100.634 137.861 100.806 137.548 100.929C137.238 101.05 136.884 101.11 136.487 101.11ZM141.592 101.121C141.247 101.121 140.934 101.057 140.655 100.929C140.375 100.799 140.154 100.611 139.991 100.364C139.83 100.118 139.749 99.8163 139.749 99.4588C139.749 99.151 139.808 98.8977 139.927 98.6989C140.045 98.5 140.205 98.3426 140.406 98.2266C140.607 98.1106 140.832 98.023 141.081 97.9638C141.329 97.9046 141.583 97.8596 141.841 97.8288C142.167 97.791 142.433 97.7602 142.636 97.7365C142.84 97.7105 142.988 97.669 143.08 97.6122C143.172 97.5554 143.219 97.4631 143.219 97.3352V97.3104C143.219 97.0002 143.131 96.7599 142.956 96.5895C142.783 96.419 142.525 96.3338 142.182 96.3338C141.824 96.3338 141.542 96.4131 141.336 96.5717C141.133 96.728 140.992 96.902 140.914 97.0938L139.916 96.8665C140.034 96.535 140.207 96.2675 140.434 96.0639C140.664 95.858 140.928 95.7088 141.226 95.6165C141.525 95.5218 141.838 95.4744 142.167 95.4744C142.385 95.4744 142.616 95.5005 142.86 95.5526C143.106 95.6023 143.336 95.6946 143.549 95.8295C143.764 95.9645 143.941 96.1574 144.078 96.4084C144.215 96.657 144.284 96.9801 144.284 97.3778V101H143.247V100.254H143.204C143.136 100.392 143.033 100.527 142.895 100.659C142.758 100.792 142.582 100.902 142.366 100.989C142.151 101.077 141.893 101.121 141.592 101.121ZM141.823 100.268C142.117 100.268 142.367 100.21 142.576 100.094C142.787 99.9785 142.946 99.8269 143.055 99.6399C143.166 99.4505 143.222 99.2481 143.222 99.0327V98.3295C143.184 98.3674 143.111 98.4029 143.002 98.4361C142.895 98.4669 142.773 98.4941 142.636 98.5178C142.499 98.5391 142.365 98.5592 142.235 98.5781C142.105 98.5947 141.996 98.6089 141.908 98.6207C141.702 98.6468 141.514 98.6906 141.344 98.7521C141.175 98.8137 141.041 98.9025 140.939 99.0185C140.839 99.1321 140.79 99.2836 140.79 99.473C140.79 99.7358 140.887 99.9347 141.081 100.07C141.275 100.202 141.522 100.268 141.823 100.268ZM148.244 95.5455V96.3977H145.265V95.5455H148.244ZM146.064 94.2386H147.126V99.3984C147.126 99.6044 147.156 99.7595 147.218 99.8636C147.28 99.9654 147.359 100.035 147.456 100.073C147.555 100.109 147.663 100.126 147.779 100.126C147.864 100.126 147.939 100.121 148.003 100.109C148.067 100.097 148.116 100.087 148.152 100.08L148.344 100.957C148.282 100.981 148.195 101.005 148.081 101.028C147.967 101.054 147.825 101.069 147.655 101.071C147.375 101.076 147.115 101.026 146.874 100.922C146.632 100.818 146.437 100.657 146.288 100.439C146.138 100.221 146.064 99.9477 146.064 99.6186V94.2386ZM149.419 101V95.5455H150.481V101H149.419ZM149.955 94.7038C149.77 94.7038 149.612 94.6423 149.479 94.5192C149.349 94.3937 149.284 94.2446 149.284 94.0717C149.284 93.8965 149.349 93.7474 149.479 93.6243C149.612 93.4988 149.77 93.4361 149.955 93.4361C150.14 93.4361 150.297 93.4988 150.427 93.6243C150.56 93.7474 150.626 93.8965 150.626 94.0717C150.626 94.2446 150.56 94.3937 150.427 94.5192C150.297 94.6423 150.14 94.7038 149.955 94.7038ZM152.971 97.7614V101H151.909V95.5455H152.928V96.4332H152.996C153.121 96.1444 153.318 95.9124 153.585 95.7372C153.855 95.562 154.195 95.4744 154.604 95.4744C154.976 95.4744 155.302 95.5526 155.581 95.7088C155.86 95.8627 156.077 96.0923 156.231 96.3977C156.385 96.7031 156.462 97.0807 156.462 97.5305V101H155.4V97.6584C155.4 97.263 155.297 96.9541 155.091 96.7315C154.885 96.5066 154.602 96.3942 154.242 96.3942C153.996 96.3942 153.777 96.4474 153.585 96.554C153.396 96.6605 153.246 96.8168 153.134 97.0227C153.025 97.2263 152.971 97.4725 152.971 97.7614ZM160.173 103.159C159.739 103.159 159.366 103.102 159.054 102.989C158.744 102.875 158.491 102.725 158.294 102.538C158.098 102.351 157.951 102.146 157.854 101.923L158.766 101.547C158.83 101.651 158.915 101.761 159.022 101.877C159.131 101.996 159.278 102.096 159.462 102.179C159.649 102.262 159.89 102.303 160.183 102.303C160.586 102.303 160.918 102.205 161.181 102.009C161.444 101.814 161.575 101.504 161.575 101.078V100.006H161.508C161.444 100.122 161.352 100.251 161.231 100.393C161.112 100.535 160.949 100.658 160.741 100.762C160.532 100.866 160.261 100.918 159.928 100.918C159.497 100.918 159.108 100.818 158.763 100.616C158.42 100.413 158.147 100.113 157.946 99.718C157.747 99.3203 157.648 98.8314 157.648 98.2514C157.648 97.6714 157.746 97.1742 157.942 96.7599C158.141 96.3456 158.414 96.0284 158.759 95.8082C159.105 95.5857 159.497 95.4744 159.935 95.4744C160.273 95.4744 160.547 95.5312 160.755 95.6449C160.963 95.7562 161.125 95.8864 161.241 96.0355C161.36 96.1847 161.451 96.3161 161.515 96.4297H161.593V95.5455H162.634V101.121C162.634 101.589 162.525 101.974 162.307 102.275C162.089 102.576 161.794 102.798 161.423 102.942C161.053 103.087 160.637 103.159 160.173 103.159ZM160.162 100.038C160.467 100.038 160.725 99.9666 160.936 99.8246C161.149 99.6802 161.31 99.4742 161.419 99.2067C161.53 98.9368 161.586 98.6136 161.586 98.2372C161.586 97.8703 161.531 97.5471 161.423 97.2678C161.314 96.9884 161.154 96.7706 160.943 96.6143C160.732 96.4557 160.472 96.3764 160.162 96.3764C159.842 96.3764 159.576 96.4593 159.363 96.625C159.15 96.7884 158.989 97.0109 158.88 97.2926C158.773 97.5743 158.72 97.8892 158.72 98.2372C158.72 98.5947 158.775 98.9084 158.884 99.1783C158.992 99.4482 159.153 99.6589 159.366 99.8104C159.582 99.9619 159.847 100.038 160.162 100.038ZM168.291 101.121C167.946 101.121 167.633 101.057 167.354 100.929C167.075 100.799 166.853 100.611 166.69 100.364C166.529 100.118 166.448 99.8163 166.448 99.4588C166.448 99.151 166.508 98.8977 166.626 98.6989C166.744 98.5 166.904 98.3426 167.105 98.2266C167.307 98.1106 167.531 98.023 167.78 97.9638C168.029 97.9046 168.282 97.8596 168.54 97.8288C168.867 97.791 169.132 97.7602 169.335 97.7365C169.539 97.7105 169.687 97.669 169.779 97.6122C169.872 97.5554 169.918 97.4631 169.918 97.3352V97.3104C169.918 97.0002 169.83 96.7599 169.655 96.5895C169.482 96.419 169.224 96.3338 168.881 96.3338C168.523 96.3338 168.242 96.4131 168.036 96.5717C167.832 96.728 167.691 96.902 167.613 97.0938L166.615 96.8665C166.734 96.535 166.906 96.2675 167.134 96.0639C167.363 95.858 167.627 95.7088 167.926 95.6165C168.224 95.5218 168.538 95.4744 168.867 95.4744C169.084 95.4744 169.315 95.5005 169.559 95.5526C169.805 95.6023 170.035 95.6946 170.248 95.8295C170.463 95.9645 170.64 96.1574 170.777 96.4084C170.914 96.657 170.983 96.9801 170.983 97.3778V101H169.946V100.254H169.904C169.835 100.392 169.732 100.527 169.595 100.659C169.457 100.792 169.281 100.902 169.066 100.989C168.85 101.077 168.592 101.121 168.291 101.121ZM168.522 100.268C168.816 100.268 169.067 100.21 169.275 100.094C169.486 99.9785 169.646 99.8269 169.754 99.6399C169.866 99.4505 169.921 99.2481 169.921 99.0327V98.3295C169.883 98.3674 169.81 98.4029 169.701 98.4361C169.595 98.4669 169.473 98.4941 169.335 98.5178C169.198 98.5391 169.064 98.5592 168.934 98.5781C168.804 98.5947 168.695 98.6089 168.607 98.6207C168.401 98.6468 168.213 98.6906 168.043 98.7521C167.875 98.8137 167.74 98.9025 167.638 99.0185C167.539 99.1321 167.489 99.2836 167.489 99.473C167.489 99.7358 167.586 99.9347 167.78 100.07C167.974 100.202 168.222 100.268 168.522 100.268ZM175.853 98.7379V95.5455H176.918V101H175.874V100.055H175.817C175.692 100.347 175.49 100.589 175.213 100.783C174.939 100.975 174.597 101.071 174.187 101.071C173.837 101.071 173.527 100.994 173.257 100.84C172.989 100.684 172.779 100.453 172.625 100.148C172.473 99.8423 172.397 99.4647 172.397 99.0149V95.5455H173.459V98.8871C173.459 99.2588 173.562 99.5547 173.768 99.7749C173.974 99.995 174.242 100.105 174.571 100.105C174.77 100.105 174.967 100.055 175.164 99.956C175.363 99.8565 175.527 99.7062 175.657 99.505C175.79 99.3037 175.855 99.0481 175.853 98.7379ZM180.891 95.5455V96.3977H177.911V95.5455H180.891ZM178.71 94.2386H179.772V99.3984C179.772 99.6044 179.803 99.7595 179.865 99.8636C179.926 99.9654 180.005 100.035 180.102 100.073C180.202 100.109 180.31 100.126 180.426 100.126C180.511 100.126 180.585 100.121 180.649 100.109C180.713 100.097 180.763 100.087 180.798 100.08L180.99 100.957C180.929 100.981 180.841 101.005 180.727 101.028C180.614 101.054 180.472 101.069 180.301 101.071C180.022 101.076 179.762 101.026 179.52 100.922C179.279 100.818 179.083 100.657 178.934 100.439C178.785 100.221 178.71 99.9477 178.71 99.6186V94.2386ZM184.304 101.11C183.793 101.11 183.347 100.993 182.966 100.759C182.584 100.524 182.288 100.196 182.078 99.7749C181.867 99.3535 181.762 98.861 181.762 98.2976C181.762 97.7318 181.867 97.237 182.078 96.8132C182.288 96.3894 182.584 96.0604 182.966 95.826C183.347 95.5916 183.793 95.4744 184.304 95.4744C184.816 95.4744 185.262 95.5916 185.643 95.826C186.024 96.0604 186.32 96.3894 186.531 96.8132C186.742 97.237 186.847 97.7318 186.847 98.2976C186.847 98.861 186.742 99.3535 186.531 99.7749C186.32 100.196 186.024 100.524 185.643 100.759C185.262 100.993 184.816 101.11 184.304 101.11ZM184.308 100.219C184.639 100.219 184.914 100.131 185.132 99.956C185.35 99.7808 185.511 99.5476 185.615 99.2564C185.721 98.9652 185.775 98.6444 185.775 98.294C185.775 97.946 185.721 97.6264 185.615 97.3352C185.511 97.0417 185.35 96.8061 185.132 96.6286C184.914 96.451 184.639 96.3622 184.308 96.3622C183.974 96.3622 183.697 96.451 183.477 96.6286C183.259 96.8061 183.097 97.0417 182.99 97.3352C182.886 97.6264 182.834 97.946 182.834 98.294C182.834 98.6444 182.886 98.9652 182.99 99.2564C183.097 99.5476 183.259 99.7808 183.477 99.956C183.697 100.131 183.974 100.219 184.308 100.219ZM188.032 101V95.5455H189.051V96.4332H189.119C189.232 96.1326 189.418 95.8982 189.676 95.7301C189.934 95.5597 190.243 95.4744 190.603 95.4744C190.968 95.4744 191.273 95.5597 191.519 95.7301C191.768 95.9006 191.951 96.1349 192.07 96.4332H192.127C192.257 96.142 192.464 95.91 192.748 95.7372C193.032 95.562 193.371 95.4744 193.764 95.4744C194.258 95.4744 194.662 95.6295 194.975 95.9396C195.289 96.2498 195.447 96.7173 195.447 97.3423V101H194.385V97.4418C194.385 97.0724 194.285 96.8049 194.083 96.6392C193.882 96.4735 193.642 96.3906 193.362 96.3906C193.017 96.3906 192.748 96.4972 192.556 96.7102C192.365 96.9209 192.269 97.192 192.269 97.5234V101H191.21V97.3743C191.21 97.0784 191.118 96.8404 190.933 96.6605C190.749 96.4806 190.508 96.3906 190.213 96.3906C190.011 96.3906 189.825 96.4439 189.655 96.5504C189.487 96.6546 189.351 96.8002 189.247 96.9872C189.145 97.1742 189.094 97.3909 189.094 97.6371V101H188.032ZM198.457 101.121C198.112 101.121 197.799 101.057 197.52 100.929C197.241 100.799 197.019 100.611 196.856 100.364C196.695 100.118 196.614 99.8163 196.614 99.4588C196.614 99.151 196.674 98.8977 196.792 98.6989C196.91 98.5 197.07 98.3426 197.271 98.2266C197.473 98.1106 197.697 98.023 197.946 97.9638C198.195 97.9046 198.448 97.8596 198.706 97.8288C199.033 97.791 199.298 97.7602 199.501 97.7365C199.705 97.7105 199.853 97.669 199.945 97.6122C200.038 97.5554 200.084 97.4631 200.084 97.3352V97.3104C200.084 97.0002 199.996 96.7599 199.821 96.5895C199.648 96.419 199.39 96.3338 199.047 96.3338C198.689 96.3338 198.408 96.4131 198.202 96.5717C197.998 96.728 197.857 96.902 197.779 97.0938L196.781 96.8665C196.9 96.535 197.072 96.2675 197.3 96.0639C197.529 95.858 197.793 95.7088 198.092 95.6165C198.39 95.5218 198.704 95.4744 199.033 95.4744C199.25 95.4744 199.481 95.5005 199.725 95.5526C199.971 95.6023 200.201 95.6946 200.414 95.8295C200.629 95.9645 200.806 96.1574 200.943 96.4084C201.08 96.657 201.149 96.9801 201.149 97.3778V101H200.112V100.254H200.07C200.001 100.392 199.898 100.527 199.761 100.659C199.623 100.792 199.447 100.902 199.232 100.989C199.016 101.077 198.758 101.121 198.457 101.121ZM198.688 100.268C198.982 100.268 199.233 100.21 199.441 100.094C199.652 99.9785 199.812 99.8269 199.92 99.6399C200.032 99.4505 200.087 99.2481 200.087 99.0327V98.3295C200.049 98.3674 199.976 98.4029 199.867 98.4361C199.761 98.4669 199.639 98.4941 199.501 98.5178C199.364 98.5391 199.23 98.5592 199.1 98.5781C198.97 98.5947 198.861 98.6089 198.773 98.6207C198.567 98.6468 198.379 98.6906 198.209 98.7521C198.041 98.8137 197.906 98.9025 197.804 99.0185C197.705 99.1321 197.655 99.2836 197.655 99.473C197.655 99.7358 197.752 99.9347 197.946 100.07C198.14 100.202 198.388 100.268 198.688 100.268ZM205.11 95.5455V96.3977H202.13V95.5455H205.11ZM202.929 94.2386H203.991V99.3984C203.991 99.6044 204.022 99.7595 204.083 99.8636C204.145 99.9654 204.224 100.035 204.321 100.073C204.421 100.109 204.528 100.126 204.644 100.126C204.73 100.126 204.804 100.121 204.868 100.109C204.932 100.097 204.982 100.087 205.017 100.08L205.209 100.957C205.147 100.981 205.06 101.005 204.946 101.028C204.833 101.054 204.691 101.069 204.52 101.071C204.241 101.076 203.98 101.026 203.739 100.922C203.497 100.818 203.302 100.657 203.153 100.439C203.004 100.221 202.929 99.9477 202.929 99.6186V94.2386ZM206.284 101V95.5455H207.346V101H206.284ZM206.82 94.7038C206.636 94.7038 206.477 94.6423 206.344 94.5192C206.214 94.3937 206.149 94.2446 206.149 94.0717C206.149 93.8965 206.214 93.7474 206.344 93.6243C206.477 93.4988 206.636 93.4361 206.82 93.4361C207.005 93.4361 207.162 93.4988 207.293 93.6243C207.425 93.7474 207.491 93.8965 207.491 94.0717C207.491 94.2446 207.425 94.3937 207.293 94.5192C207.162 94.6423 207.005 94.7038 206.82 94.7038ZM211.072 101.11C210.561 101.11 210.114 100.993 209.733 100.759C209.352 100.524 209.056 100.196 208.845 99.7749C208.635 99.3535 208.529 98.861 208.529 98.2976C208.529 97.7318 208.635 97.237 208.845 96.8132C209.056 96.3894 209.352 96.0604 209.733 95.826C210.114 95.5916 210.561 95.4744 211.072 95.4744C211.583 95.4744 212.03 95.5916 212.411 95.826C212.792 96.0604 213.088 96.3894 213.298 96.8132C213.509 97.237 213.615 97.7318 213.615 98.2976C213.615 98.861 213.509 99.3535 213.298 99.7749C213.088 100.196 212.792 100.524 212.411 100.759C212.03 100.993 211.583 101.11 211.072 101.11ZM211.075 100.219C211.407 100.219 211.682 100.131 211.899 99.956C212.117 99.7808 212.278 99.5476 212.382 99.2564C212.489 98.9652 212.542 98.6444 212.542 98.294C212.542 97.946 212.489 97.6264 212.382 97.3352C212.278 97.0417 212.117 96.8061 211.899 96.6286C211.682 96.451 211.407 96.3622 211.075 96.3622C210.742 96.3622 210.465 96.451 210.244 96.6286C210.027 96.8061 209.865 97.0417 209.758 97.3352C209.654 97.6264 209.602 97.946 209.602 98.294C209.602 98.6444 209.654 98.9652 209.758 99.2564C209.865 99.5476 210.027 99.7808 210.244 99.956C210.465 100.131 210.742 100.219 211.075 100.219ZM215.862 97.7614V101H214.8V95.5455H215.819V96.4332H215.886C216.012 96.1444 216.208 95.9124 216.476 95.7372C216.746 95.562 217.085 95.4744 217.495 95.4744C217.867 95.4744 218.192 95.5526 218.472 95.7088C218.751 95.8627 218.968 96.0923 219.121 96.3977C219.275 96.7031 219.352 97.0807 219.352 97.5305V101H218.29V97.6584C218.29 97.263 218.188 96.9541 217.982 96.7315C217.776 96.5066 217.493 96.3942 217.133 96.3942C216.887 96.3942 216.668 96.4474 216.476 96.554C216.286 96.6605 216.136 96.8168 216.025 97.0227C215.916 97.2263 215.862 97.4725 215.862 97.7614ZM227.51 96.8771L226.548 97.0476C226.508 96.9245 226.444 96.8073 226.356 96.696C226.271 96.5848 226.155 96.4936 226.008 96.4226C225.861 96.3516 225.678 96.3161 225.458 96.3161C225.157 96.3161 224.906 96.3835 224.705 96.5185C224.503 96.651 224.403 96.8227 224.403 97.0334C224.403 97.2157 224.47 97.3625 224.605 97.4737C224.74 97.585 224.958 97.6761 225.259 97.7472L226.125 97.946C226.627 98.062 227.001 98.2408 227.247 98.4822C227.494 98.7237 227.617 99.0374 227.617 99.4233C227.617 99.75 227.522 100.041 227.333 100.297C227.146 100.55 226.884 100.749 226.548 100.893C226.214 101.038 225.827 101.11 225.387 101.11C224.776 101.11 224.277 100.98 223.892 100.719C223.506 100.457 223.269 100.084 223.181 99.6009L224.208 99.4446C224.271 99.7121 224.403 99.9145 224.602 100.052C224.801 100.187 225.06 100.254 225.379 100.254C225.727 100.254 226.006 100.182 226.214 100.038C226.422 99.8909 226.526 99.7121 226.526 99.5014C226.526 99.331 226.463 99.1877 226.335 99.0717C226.209 98.9557 226.016 98.8681 225.756 98.8089L224.833 98.6065C224.324 98.4905 223.947 98.3059 223.703 98.0526C223.462 97.7992 223.341 97.4785 223.341 97.0902C223.341 96.7682 223.431 96.4865 223.611 96.245C223.791 96.0036 224.039 95.8153 224.357 95.6804C224.674 95.5431 225.037 95.4744 225.447 95.4744C226.036 95.4744 226.5 95.6023 226.839 95.858C227.177 96.1113 227.401 96.451 227.51 96.8771ZM229.455 103.045C229.297 103.045 229.152 103.032 229.022 103.006C228.892 102.983 228.795 102.957 228.731 102.928L228.987 102.058C229.181 102.11 229.353 102.133 229.505 102.126C229.656 102.119 229.79 102.062 229.906 101.955C230.025 101.849 230.129 101.675 230.219 101.433L230.35 101.071L228.354 95.5455H229.491L230.872 99.7784H230.929L232.31 95.5455H233.45L231.202 101.728C231.098 102.012 230.966 102.252 230.805 102.449C230.644 102.648 230.452 102.797 230.229 102.896C230.007 102.996 229.749 103.045 229.455 103.045ZM238.536 96.8771L237.573 97.0476C237.533 96.9245 237.469 96.8073 237.381 96.696C237.296 96.5848 237.18 96.4936 237.033 96.4226C236.887 96.3516 236.703 96.3161 236.483 96.3161C236.182 96.3161 235.931 96.3835 235.73 96.5185C235.529 96.651 235.428 96.8227 235.428 97.0334C235.428 97.2157 235.496 97.3625 235.631 97.4737C235.766 97.585 235.983 97.6761 236.284 97.7472L237.151 97.946C237.652 98.062 238.027 98.2408 238.273 98.4822C238.519 98.7237 238.642 99.0374 238.642 99.4233C238.642 99.75 238.547 100.041 238.358 100.297C238.171 100.55 237.909 100.749 237.573 100.893C237.239 101.038 236.852 101.11 236.412 101.11C235.801 101.11 235.303 100.98 234.917 100.719C234.531 100.457 234.294 100.084 234.207 99.6009L235.233 99.4446C235.297 99.7121 235.428 99.9145 235.627 100.052C235.826 100.187 236.085 100.254 236.405 100.254C236.753 100.254 237.031 100.182 237.239 100.038C237.448 99.8909 237.552 99.7121 237.552 99.5014C237.552 99.331 237.488 99.1877 237.36 99.0717C237.235 98.9557 237.042 98.8681 236.781 98.8089L235.858 98.6065C235.349 98.4905 234.973 98.3059 234.729 98.0526C234.487 97.7992 234.366 97.4785 234.366 97.0902C234.366 96.7682 234.456 96.4865 234.636 96.245C234.816 96.0036 235.065 95.8153 235.382 95.6804C235.699 95.5431 236.063 95.4744 236.472 95.4744C237.062 95.4744 237.526 95.6023 237.864 95.858C238.203 96.1113 238.427 96.451 238.536 96.8771ZM242.356 95.5455V96.3977H239.376V95.5455H242.356ZM240.175 94.2386H241.237V99.3984C241.237 99.6044 241.268 99.7595 241.329 99.8636C241.391 99.9654 241.47 100.035 241.567 100.073C241.667 100.109 241.774 100.126 241.89 100.126C241.976 100.126 242.05 100.121 242.114 100.109C242.178 100.097 242.228 100.087 242.263 100.08L242.455 100.957C242.394 100.981 242.306 101.005 242.192 101.028C242.079 101.054 241.937 101.069 241.766 101.071C241.487 101.076 241.226 101.026 240.985 100.922C240.743 100.818 240.548 100.657 240.399 100.439C240.25 100.221 240.175 99.9477 240.175 99.6186V94.2386ZM245.822 101.11C245.285 101.11 244.822 100.995 244.434 100.766C244.048 100.534 243.75 100.208 243.539 99.7891C243.331 99.3677 243.227 98.8741 243.227 98.3082C243.227 97.7495 243.331 97.2571 243.539 96.831C243.75 96.4048 244.043 96.0722 244.42 95.8331C244.799 95.594 245.241 95.4744 245.748 95.4744C246.056 95.4744 246.354 95.5253 246.643 95.6271C246.932 95.7289 247.191 95.8887 247.42 96.1065C247.65 96.3243 247.831 96.6072 247.964 96.9553C248.096 97.3009 248.163 97.7211 248.163 98.2159V98.5923H243.827V97.7969H247.122C247.122 97.5175 247.065 97.2701 246.952 97.0547C246.838 96.8369 246.678 96.6652 246.472 96.5398C246.269 96.4143 246.03 96.3516 245.755 96.3516C245.457 96.3516 245.196 96.425 244.974 96.5717C244.754 96.7161 244.583 96.9055 244.462 97.1399C244.344 97.3719 244.285 97.6241 244.285 97.8963V98.5178C244.285 98.8823 244.349 99.1925 244.477 99.4482C244.607 99.7038 244.788 99.8991 245.02 100.034C245.252 100.167 245.523 100.233 245.833 100.233C246.034 100.233 246.218 100.205 246.384 100.148C246.549 100.089 246.692 100.001 246.813 99.8849C246.934 99.7689 247.026 99.6257 247.09 99.4553L248.095 99.6364C248.015 99.9323 247.87 100.192 247.662 100.414C247.456 100.634 247.197 100.806 246.884 100.929C246.574 101.05 246.22 101.11 245.822 101.11ZM249.341 101V95.5455H250.36V96.4332H250.427C250.541 96.1326 250.727 95.8982 250.985 95.7301C251.243 95.5597 251.552 95.4744 251.912 95.4744C252.276 95.4744 252.582 95.5597 252.828 95.7301C253.077 95.9006 253.26 96.1349 253.378 96.4332H253.435C253.565 96.142 253.773 95.91 254.057 95.7372C254.341 95.562 254.679 95.4744 255.072 95.4744C255.567 95.4744 255.971 95.6295 256.283 95.9396C256.598 96.2498 256.756 96.7173 256.756 97.3423V101H255.694V97.4418C255.694 97.0724 255.593 96.8049 255.392 96.6392C255.191 96.4735 254.95 96.3906 254.671 96.3906C254.325 96.3906 254.057 96.4972 253.865 96.7102C253.673 96.9209 253.577 97.192 253.577 97.5234V101H252.519V97.3743C252.519 97.0784 252.427 96.8404 252.242 96.6605C252.057 96.4806 251.817 96.3906 251.521 96.3906C251.32 96.3906 251.134 96.4439 250.964 96.5504C250.796 96.6546 250.659 96.8002 250.555 96.9872C250.453 97.1742 250.403 97.3909 250.403 97.6371V101H249.341Z" fill="black"/>
<path d="M139.843 119.636C139.843 120.568 139.672 121.369 139.331 122.04C138.99 122.707 138.523 123.222 137.929 123.582C137.338 123.94 136.666 124.119 135.914 124.119C135.158 124.119 134.483 123.94 133.889 123.582C133.298 123.222 132.833 122.706 132.492 122.036C132.151 121.365 131.98 120.565 131.98 119.636C131.98 118.705 132.151 117.905 132.492 117.237C132.833 116.567 133.298 116.053 133.889 115.695C134.483 115.334 135.158 115.153 135.914 115.153C136.666 115.153 137.338 115.334 137.929 115.695C138.523 116.053 138.99 116.567 139.331 117.237C139.672 117.905 139.843 118.705 139.843 119.636ZM138.539 119.636C138.539 118.926 138.423 118.328 138.193 117.842C137.966 117.354 137.654 116.984 137.256 116.734C136.861 116.482 136.414 116.355 135.914 116.355C135.411 116.355 134.962 116.482 134.567 116.734C134.172 116.984 133.86 117.354 133.629 117.842C133.402 118.328 133.289 118.926 133.289 119.636C133.289 120.347 133.402 120.946 133.629 121.435C133.86 121.92 134.172 122.29 134.567 122.543C134.962 122.793 135.411 122.918 135.914 122.918C136.414 122.918 136.861 122.793 137.256 122.543C137.654 122.29 137.966 121.92 138.193 121.435C138.423 120.946 138.539 120.347 138.539 119.636ZM145.528 121.286V117.455H146.807V124H145.554V122.866H145.486C145.335 123.216 145.094 123.507 144.761 123.74C144.432 123.97 144.021 124.085 143.53 124.085C143.109 124.085 142.737 123.993 142.413 123.808C142.092 123.621 141.839 123.344 141.655 122.977C141.473 122.611 141.382 122.158 141.382 121.618V117.455H142.656V121.464C142.656 121.911 142.78 122.266 143.027 122.53C143.274 122.794 143.595 122.926 143.99 122.926C144.229 122.926 144.466 122.866 144.702 122.747C144.94 122.628 145.138 122.447 145.294 122.206C145.453 121.964 145.531 121.658 145.528 121.286ZM151.574 117.455V118.477H147.999V117.455H151.574ZM148.958 115.886H150.232V122.078C150.232 122.325 150.269 122.511 150.343 122.636C150.416 122.759 150.512 122.842 150.628 122.888C150.747 122.93 150.877 122.952 151.016 122.952C151.118 122.952 151.208 122.945 151.284 122.93C151.361 122.916 151.421 122.905 151.463 122.896L151.693 123.949C151.619 123.977 151.514 124.006 151.378 124.034C151.242 124.065 151.071 124.082 150.867 124.085C150.531 124.091 150.219 124.031 149.929 123.906C149.639 123.781 149.405 123.588 149.226 123.327C149.047 123.065 148.958 122.737 148.958 122.342V115.886ZM155.363 124.128C154.835 124.128 154.363 123.993 153.949 123.723C153.537 123.45 153.213 123.062 152.977 122.56C152.744 122.054 152.628 121.447 152.628 120.74C152.628 120.033 152.746 119.428 152.981 118.925C153.22 118.422 153.547 118.037 153.961 117.77C154.376 117.503 154.846 117.369 155.372 117.369C155.778 117.369 156.105 117.438 156.352 117.574C156.602 117.707 156.795 117.864 156.932 118.043C157.071 118.222 157.179 118.379 157.256 118.516H157.332V115.273H158.606V124H157.362V122.982H157.256C157.179 123.121 157.068 123.28 156.923 123.459C156.781 123.638 156.585 123.794 156.335 123.928C156.085 124.061 155.761 124.128 155.363 124.128ZM155.645 123.041C156.011 123.041 156.321 122.945 156.574 122.751C156.829 122.555 157.023 122.284 157.153 121.938C157.287 121.591 157.354 121.187 157.354 120.727C157.354 120.273 157.288 119.875 157.157 119.534C157.027 119.193 156.835 118.928 156.582 118.737C156.329 118.547 156.017 118.452 155.645 118.452C155.261 118.452 154.942 118.551 154.686 118.75C154.43 118.949 154.237 119.22 154.106 119.564C153.979 119.908 153.915 120.295 153.915 120.727C153.915 121.165 153.98 121.558 154.111 121.908C154.241 122.257 154.434 122.534 154.69 122.739C154.949 122.94 155.267 123.041 155.645 123.041ZM163.182 124.132C162.568 124.132 162.033 123.991 161.575 123.71C161.118 123.429 160.763 123.036 160.51 122.53C160.257 122.024 160.131 121.433 160.131 120.757C160.131 120.078 160.257 119.484 160.51 118.976C160.763 118.467 161.118 118.072 161.575 117.791C162.033 117.51 162.568 117.369 163.182 117.369C163.796 117.369 164.331 117.51 164.789 117.791C165.246 118.072 165.601 118.467 165.854 118.976C166.107 119.484 166.233 120.078 166.233 120.757C166.233 121.433 166.107 122.024 165.854 122.53C165.601 123.036 165.246 123.429 164.789 123.71C164.331 123.991 163.796 124.132 163.182 124.132ZM163.186 123.062C163.584 123.062 163.914 122.957 164.175 122.747C164.436 122.537 164.629 122.257 164.754 121.908C164.882 121.558 164.946 121.173 164.946 120.753C164.946 120.335 164.882 119.952 164.754 119.602C164.629 119.25 164.436 118.967 164.175 118.754C163.914 118.541 163.584 118.435 163.186 118.435C162.786 118.435 162.453 118.541 162.189 118.754C161.928 118.967 161.733 119.25 161.605 119.602C161.48 119.952 161.418 120.335 161.418 120.753C161.418 121.173 161.48 121.558 161.605 121.908C161.733 122.257 161.928 122.537 162.189 122.747C162.453 122.957 162.786 123.062 163.186 123.062ZM170.412 124.132C169.799 124.132 169.263 123.991 168.806 123.71C168.349 123.429 167.993 123.036 167.741 122.53C167.488 122.024 167.361 121.433 167.361 120.757C167.361 120.078 167.488 119.484 167.741 118.976C167.993 118.467 168.349 118.072 168.806 117.791C169.263 117.51 169.799 117.369 170.412 117.369C171.026 117.369 171.562 117.51 172.019 117.791C172.476 118.072 172.831 118.467 173.084 118.976C173.337 119.484 173.464 120.078 173.464 120.757C173.464 121.433 173.337 122.024 173.084 122.53C172.831 123.036 172.476 123.429 172.019 123.71C171.562 123.991 171.026 124.132 170.412 124.132ZM170.417 123.062C170.814 123.062 171.144 122.957 171.405 122.747C171.667 122.537 171.86 122.257 171.985 121.908C172.113 121.558 172.177 121.173 172.177 120.753C172.177 120.335 172.113 119.952 171.985 119.602C171.86 119.25 171.667 118.967 171.405 118.754C171.144 118.541 170.814 118.435 170.417 118.435C170.016 118.435 169.684 118.541 169.42 118.754C169.158 118.967 168.964 119.25 168.836 119.602C168.711 119.952 168.648 120.335 168.648 120.753C168.648 121.173 168.711 121.558 168.836 121.908C168.964 122.257 169.158 122.537 169.42 122.747C169.684 122.957 170.016 123.062 170.417 123.062ZM174.886 124V117.455H176.117V118.494H176.186C176.305 118.142 176.515 117.865 176.816 117.663C177.12 117.459 177.464 117.357 177.847 117.357C177.927 117.357 178.021 117.359 178.129 117.365C178.24 117.371 178.326 117.378 178.389 117.386V118.605C178.338 118.591 178.247 118.575 178.116 118.558C177.985 118.538 177.855 118.528 177.724 118.528C177.423 118.528 177.154 118.592 176.919 118.72C176.686 118.845 176.501 119.02 176.365 119.244C176.228 119.466 176.16 119.719 176.16 120.003V124H174.886ZM185.722 117.455V118.477H182.147V117.455H185.722ZM183.106 115.886H184.38V122.078C184.38 122.325 184.417 122.511 184.491 122.636C184.565 122.759 184.66 122.842 184.776 122.888C184.896 122.93 185.025 122.952 185.164 122.952C185.267 122.952 185.356 122.945 185.433 122.93C185.509 122.916 185.569 122.905 185.612 122.896L185.842 123.949C185.768 123.977 185.663 124.006 185.526 124.034C185.39 124.065 185.22 124.082 185.015 124.085C184.68 124.091 184.367 124.031 184.078 123.906C183.788 123.781 183.553 123.588 183.374 123.327C183.195 123.065 183.106 122.737 183.106 122.342V115.886ZM189.883 124.132C189.238 124.132 188.682 123.994 188.216 123.719C187.753 123.44 187.395 123.05 187.143 122.547C186.893 122.041 186.768 121.449 186.768 120.77C186.768 120.099 186.893 119.509 187.143 118.997C187.395 118.486 187.748 118.087 188.199 117.8C188.654 117.513 189.185 117.369 189.793 117.369C190.162 117.369 190.52 117.43 190.867 117.553C191.214 117.675 191.525 117.866 191.8 118.128C192.076 118.389 192.293 118.729 192.452 119.146C192.611 119.561 192.691 120.065 192.691 120.659V121.111H187.488V120.156H191.442C191.442 119.821 191.374 119.524 191.238 119.266C191.101 119.004 190.91 118.798 190.662 118.648C190.418 118.497 190.131 118.422 189.802 118.422C189.444 118.422 189.131 118.51 188.864 118.686C188.6 118.859 188.395 119.087 188.251 119.368C188.108 119.646 188.037 119.949 188.037 120.276V121.021C188.037 121.459 188.114 121.831 188.268 122.138C188.424 122.445 188.641 122.679 188.92 122.841C189.198 123 189.523 123.08 189.895 123.08C190.137 123.08 190.357 123.045 190.556 122.977C190.755 122.906 190.927 122.801 191.072 122.662C191.216 122.523 191.327 122.351 191.404 122.146L192.61 122.364C192.513 122.719 192.34 123.03 192.09 123.297C191.843 123.561 191.532 123.767 191.157 123.915C190.785 124.06 190.36 124.132 189.883 124.132ZM194.105 124V117.455H195.328V118.52H195.409C195.545 118.159 195.768 117.878 196.078 117.676C196.387 117.472 196.758 117.369 197.19 117.369C197.627 117.369 197.994 117.472 198.289 117.676C198.588 117.881 198.808 118.162 198.95 118.52H199.018C199.174 118.17 199.423 117.892 199.764 117.685C200.105 117.474 200.511 117.369 200.982 117.369C201.576 117.369 202.061 117.555 202.436 117.928C202.813 118.3 203.002 118.861 203.002 119.611V124H201.728V119.73C201.728 119.287 201.607 118.966 201.366 118.767C201.124 118.568 200.836 118.469 200.501 118.469C200.086 118.469 199.764 118.597 199.534 118.852C199.303 119.105 199.188 119.43 199.188 119.828V124H197.919V119.649C197.919 119.294 197.808 119.009 197.586 118.793C197.365 118.577 197.076 118.469 196.721 118.469C196.48 118.469 196.257 118.533 196.052 118.661C195.85 118.786 195.687 118.96 195.562 119.185C195.44 119.409 195.379 119.669 195.379 119.964V124H194.105ZM204.71 126.455V117.455H205.954V118.516H206.061C206.135 118.379 206.241 118.222 206.381 118.043C206.52 117.864 206.713 117.707 206.96 117.574C207.207 117.438 207.534 117.369 207.94 117.369C208.469 117.369 208.94 117.503 209.355 117.77C209.77 118.037 210.095 118.422 210.331 118.925C210.569 119.428 210.689 120.033 210.689 120.74C210.689 121.447 210.571 122.054 210.335 122.56C210.099 123.062 209.775 123.45 209.363 123.723C208.952 123.993 208.481 124.128 207.953 124.128C207.555 124.128 207.23 124.061 206.977 123.928C206.727 123.794 206.531 123.638 206.389 123.459C206.247 123.28 206.138 123.121 206.061 122.982H205.984V126.455H204.71ZM205.959 120.727C205.959 121.187 206.025 121.591 206.159 121.938C206.292 122.284 206.486 122.555 206.738 122.751C206.991 122.945 207.301 123.041 207.667 123.041C208.048 123.041 208.366 122.94 208.622 122.739C208.878 122.534 209.071 122.257 209.202 121.908C209.335 121.558 209.402 121.165 209.402 120.727C209.402 120.295 209.336 119.908 209.206 119.564C209.078 119.22 208.885 118.949 208.626 118.75C208.371 118.551 208.051 118.452 207.667 118.452C207.298 118.452 206.986 118.547 206.73 118.737C206.477 118.928 206.285 119.193 206.155 119.534C206.024 119.875 205.959 120.273 205.959 120.727ZM214.937 124.132C214.292 124.132 213.737 123.994 213.271 123.719C212.808 123.44 212.45 123.05 212.197 122.547C211.947 122.041 211.822 121.449 211.822 120.77C211.822 120.099 211.947 119.509 212.197 118.997C212.45 118.486 212.802 118.087 213.254 117.8C213.709 117.513 214.24 117.369 214.848 117.369C215.217 117.369 215.575 117.43 215.922 117.553C216.268 117.675 216.579 117.866 216.855 118.128C217.131 118.389 217.348 118.729 217.507 119.146C217.666 119.561 217.746 120.065 217.746 120.659V121.111H212.542V120.156H216.497C216.497 119.821 216.429 119.524 216.292 119.266C216.156 119.004 215.964 118.798 215.717 118.648C215.473 118.497 215.186 118.422 214.856 118.422C214.498 118.422 214.186 118.51 213.919 118.686C213.655 118.859 213.45 119.087 213.305 119.368C213.163 119.646 213.092 119.949 213.092 120.276V121.021C213.092 121.459 213.169 121.831 213.322 122.138C213.479 122.445 213.696 122.679 213.974 122.841C214.253 123 214.578 123.08 214.95 123.08C215.192 123.08 215.412 123.045 215.611 122.977C215.809 122.906 215.981 122.801 216.126 122.662C216.271 122.523 216.382 122.351 216.459 122.146L217.665 122.364C217.568 122.719 217.395 123.03 217.145 123.297C216.898 123.561 216.586 123.767 216.211 123.915C215.839 124.06 215.415 124.132 214.937 124.132ZM219.159 124V117.455H220.391V118.494H220.459C220.578 118.142 220.789 117.865 221.09 117.663C221.394 117.459 221.737 117.357 222.121 117.357C222.2 117.357 222.294 117.359 222.402 117.365C222.513 117.371 222.6 117.378 222.662 117.386V118.605C222.611 118.591 222.52 118.575 222.389 118.558C222.259 118.538 222.128 118.528 221.997 118.528C221.696 118.528 221.428 118.592 221.192 118.72C220.959 118.845 220.774 119.02 220.638 119.244C220.502 119.466 220.433 119.719 220.433 120.003V124H219.159ZM225.611 124.145C225.196 124.145 224.821 124.068 224.486 123.915C224.151 123.759 223.885 123.533 223.689 123.237C223.496 122.942 223.399 122.58 223.399 122.151C223.399 121.781 223.47 121.477 223.612 121.239C223.754 121 223.946 120.811 224.188 120.672C224.429 120.533 224.699 120.428 224.997 120.357C225.296 120.286 225.6 120.232 225.909 120.195C226.301 120.149 226.619 120.112 226.864 120.084C227.108 120.053 227.286 120.003 227.396 119.935C227.507 119.866 227.563 119.756 227.563 119.602V119.572C227.563 119.2 227.458 118.912 227.247 118.707C227.04 118.503 226.73 118.401 226.318 118.401C225.889 118.401 225.551 118.496 225.304 118.686C225.06 118.874 224.891 119.082 224.797 119.312L223.6 119.04C223.742 118.642 223.949 118.321 224.222 118.077C224.497 117.83 224.814 117.651 225.172 117.54C225.53 117.426 225.906 117.369 226.301 117.369C226.563 117.369 226.84 117.401 227.132 117.463C227.428 117.523 227.703 117.634 227.959 117.795C228.218 117.957 228.429 118.189 228.594 118.49C228.759 118.788 228.841 119.176 228.841 119.653V124H227.597V123.105H227.546C227.463 123.27 227.34 123.432 227.175 123.591C227.01 123.75 226.798 123.882 226.54 123.987C226.281 124.092 225.972 124.145 225.611 124.145ZM225.888 123.122C226.24 123.122 226.541 123.053 226.791 122.913C227.044 122.774 227.236 122.592 227.367 122.368C227.5 122.141 227.567 121.898 227.567 121.639V120.795C227.521 120.841 227.433 120.884 227.303 120.923C227.175 120.96 227.029 120.993 226.864 121.021C226.699 121.047 226.539 121.071 226.382 121.094C226.226 121.114 226.095 121.131 225.99 121.145C225.743 121.176 225.517 121.229 225.313 121.303C225.111 121.376 224.949 121.483 224.827 121.622C224.708 121.759 224.648 121.94 224.648 122.168C224.648 122.483 224.764 122.722 224.997 122.884C225.23 123.043 225.527 123.122 225.888 123.122ZM233.594 117.455V118.477H230.018V117.455H233.594ZM230.977 115.886H232.251V122.078C232.251 122.325 232.288 122.511 232.362 122.636C232.436 122.759 232.531 122.842 232.648 122.888C232.767 122.93 232.896 122.952 233.035 122.952C233.138 122.952 233.227 122.945 233.304 122.93C233.381 122.916 233.44 122.905 233.483 122.896L233.713 123.949C233.639 123.977 233.534 124.006 233.398 124.034C233.261 124.065 233.091 124.082 232.886 124.085C232.551 124.091 232.238 124.031 231.949 123.906C231.659 123.781 231.425 123.588 231.246 123.327C231.067 123.065 230.977 122.737 230.977 122.342V115.886ZM239.149 121.286V117.455H240.428V124H239.175V122.866H239.107C238.956 123.216 238.715 123.507 238.382 123.74C238.053 123.97 237.642 124.085 237.151 124.085C236.73 124.085 236.358 123.993 236.034 123.808C235.713 123.621 235.46 123.344 235.276 122.977C235.094 122.611 235.003 122.158 235.003 121.618V117.455H236.277V121.464C236.277 121.911 236.401 122.266 236.648 122.53C236.895 122.794 237.216 122.926 237.611 122.926C237.85 122.926 238.087 122.866 238.323 122.747C238.561 122.628 238.759 122.447 238.915 122.206C239.074 121.964 239.152 121.658 239.149 121.286ZM242.14 124V117.455H243.371V118.494H243.439C243.559 118.142 243.769 117.865 244.07 117.663C244.374 117.459 244.718 117.357 245.101 117.357C245.181 117.357 245.275 117.359 245.383 117.365C245.493 117.371 245.58 117.378 245.643 117.386V118.605C245.591 118.591 245.501 118.575 245.37 118.558C245.239 118.538 245.108 118.528 244.978 118.528C244.677 118.528 244.408 118.592 244.172 118.72C243.939 118.845 243.755 119.02 243.618 119.244C243.482 119.466 243.414 119.719 243.414 120.003V124H242.14ZM249.332 124.132C248.687 124.132 248.132 123.994 247.666 123.719C247.203 123.44 246.845 123.05 246.592 122.547C246.342 122.041 246.217 121.449 246.217 120.77C246.217 120.099 246.342 119.509 246.592 118.997C246.845 118.486 247.197 118.087 247.649 117.8C248.103 117.513 248.634 117.369 249.242 117.369C249.612 117.369 249.97 117.43 250.316 117.553C250.663 117.675 250.974 117.866 251.249 118.128C251.525 118.389 251.742 118.729 251.901 119.146C252.061 119.561 252.14 120.065 252.14 120.659V121.111H246.937V120.156H250.892C250.892 119.821 250.823 119.524 250.687 119.266C250.551 119.004 250.359 118.798 250.112 118.648C249.867 118.497 249.58 118.422 249.251 118.422C248.893 118.422 248.58 118.51 248.313 118.686C248.049 118.859 247.845 119.087 247.7 119.368C247.558 119.646 247.487 119.949 247.487 120.276V121.021C247.487 121.459 247.563 121.831 247.717 122.138C247.873 122.445 248.09 122.679 248.369 122.841C248.647 123 248.972 123.08 249.345 123.08C249.586 123.08 249.806 123.045 250.005 122.977C250.204 122.906 250.376 122.801 250.521 122.662C250.666 122.523 250.776 122.351 250.853 122.146L252.059 122.364C251.963 122.719 251.789 123.03 251.539 123.297C251.292 123.561 250.981 123.767 250.606 123.915C250.234 124.06 249.809 124.132 249.332 124.132ZM157.255 139V132.455H158.487V133.494H158.555C158.674 133.142 158.884 132.865 159.185 132.663C159.489 132.459 159.833 132.357 160.217 132.357C160.296 132.357 160.39 132.359 160.498 132.365C160.609 132.371 160.695 132.378 160.758 132.386V133.605C160.707 133.591 160.616 133.575 160.485 133.558C160.354 133.538 160.224 133.528 160.093 133.528C159.792 133.528 159.523 133.592 159.288 133.72C159.055 133.845 158.87 134.02 158.734 134.244C158.597 134.466 158.529 134.719 158.529 135.003V139H157.255ZM163.707 139.145C163.292 139.145 162.917 139.068 162.582 138.915C162.246 138.759 161.981 138.533 161.785 138.237C161.592 137.942 161.495 137.58 161.495 137.151C161.495 136.781 161.566 136.477 161.708 136.239C161.85 136 162.042 135.811 162.283 135.672C162.525 135.533 162.795 135.428 163.093 135.357C163.391 135.286 163.695 135.232 164.005 135.195C164.397 135.149 164.715 135.112 164.96 135.084C165.204 135.053 165.381 135.003 165.492 134.935C165.603 134.866 165.658 134.756 165.658 134.602V134.572C165.658 134.2 165.553 133.912 165.343 133.707C165.136 133.503 164.826 133.401 164.414 133.401C163.985 133.401 163.647 133.496 163.4 133.686C163.156 133.874 162.987 134.082 162.893 134.312L161.695 134.04C161.837 133.642 162.045 133.321 162.317 133.077C162.593 132.83 162.91 132.651 163.268 132.54C163.626 132.426 164.002 132.369 164.397 132.369C164.658 132.369 164.935 132.401 165.228 132.463C165.523 132.523 165.799 132.634 166.055 132.795C166.313 132.957 166.525 133.189 166.69 133.49C166.854 133.788 166.937 134.176 166.937 134.653V139H165.692V138.105H165.641C165.559 138.27 165.435 138.432 165.271 138.591C165.106 138.75 164.894 138.882 164.636 138.987C164.377 139.092 164.067 139.145 163.707 139.145ZM163.984 138.122C164.336 138.122 164.637 138.053 164.887 137.913C165.14 137.774 165.332 137.592 165.462 137.368C165.596 137.141 165.663 136.898 165.663 136.639V135.795C165.617 135.841 165.529 135.884 165.398 135.923C165.271 135.96 165.124 135.993 164.96 136.021C164.795 136.047 164.634 136.071 164.478 136.094C164.322 136.114 164.191 136.131 164.086 136.145C163.839 136.176 163.613 136.229 163.408 136.303C163.207 136.376 163.045 136.483 162.923 136.622C162.803 136.759 162.744 136.94 162.744 137.168C162.744 137.483 162.86 137.722 163.093 137.884C163.326 138.043 163.623 138.122 163.984 138.122ZM171.084 139.128C170.556 139.128 170.084 138.993 169.669 138.723C169.257 138.45 168.934 138.062 168.698 137.56C168.465 137.054 168.348 136.447 168.348 135.74C168.348 135.033 168.466 134.428 168.702 133.925C168.941 133.422 169.267 133.037 169.682 132.77C170.097 132.503 170.567 132.369 171.093 132.369C171.499 132.369 171.826 132.438 172.073 132.574C172.323 132.707 172.516 132.864 172.652 133.043C172.792 133.222 172.9 133.379 172.976 133.516H173.053V130.273H174.327V139H173.083V137.982H172.976C172.9 138.121 172.789 138.28 172.644 138.459C172.502 138.638 172.306 138.794 172.056 138.928C171.806 139.061 171.482 139.128 171.084 139.128ZM171.365 138.041C171.732 138.041 172.042 137.945 172.294 137.751C172.55 137.555 172.743 137.284 172.874 136.938C173.007 136.591 173.074 136.187 173.074 135.727C173.074 135.273 173.009 134.875 172.878 134.534C172.748 134.193 172.556 133.928 172.303 133.737C172.05 133.547 171.738 133.452 171.365 133.452C170.982 133.452 170.662 133.551 170.407 133.75C170.151 133.949 169.958 134.22 169.827 134.564C169.699 134.908 169.635 135.295 169.635 135.727C169.635 136.165 169.701 136.558 169.831 136.908C169.962 137.257 170.155 137.534 170.411 137.739C170.669 137.94 170.988 138.041 171.365 138.041ZM176.146 139V132.455H177.42V139H176.146ZM176.789 131.445C176.567 131.445 176.377 131.371 176.218 131.223C176.062 131.072 175.984 130.893 175.984 130.686C175.984 130.476 176.062 130.297 176.218 130.149C176.377 129.999 176.567 129.923 176.789 129.923C177.011 129.923 177.2 129.999 177.356 130.149C177.515 130.297 177.594 130.476 177.594 130.686C177.594 130.893 177.515 131.072 177.356 131.223C177.2 131.371 177.011 131.445 176.789 131.445ZM181.891 139.132C181.277 139.132 180.742 138.991 180.284 138.71C179.827 138.429 179.472 138.036 179.219 137.53C178.966 137.024 178.84 136.433 178.84 135.757C178.84 135.078 178.966 134.484 179.219 133.976C179.472 133.467 179.827 133.072 180.284 132.791C180.742 132.51 181.277 132.369 181.891 132.369C182.505 132.369 183.04 132.51 183.498 132.791C183.955 133.072 184.31 133.467 184.563 133.976C184.816 134.484 184.942 135.078 184.942 135.757C184.942 136.433 184.816 137.024 184.563 137.53C184.31 138.036 183.955 138.429 183.498 138.71C183.04 138.991 182.505 139.132 181.891 139.132ZM181.895 138.062C182.293 138.062 182.623 137.957 182.884 137.747C183.145 137.537 183.338 137.257 183.463 136.908C183.591 136.558 183.655 136.173 183.655 135.753C183.655 135.335 183.591 134.952 183.463 134.602C183.338 134.25 183.145 133.967 182.884 133.754C182.623 133.541 182.293 133.435 181.895 133.435C181.495 133.435 181.162 133.541 180.898 133.754C180.637 133.967 180.442 134.25 180.314 134.602C180.189 134.952 180.127 135.335 180.127 135.753C180.127 136.173 180.189 136.558 180.314 136.908C180.442 137.257 180.637 137.537 180.898 137.747C181.162 137.957 181.495 138.062 181.895 138.062ZM194.445 134.053L193.29 134.257C193.242 134.109 193.165 133.969 193.06 133.835C192.958 133.702 192.819 133.592 192.642 133.507C192.466 133.422 192.246 133.379 191.982 133.379C191.621 133.379 191.32 133.46 191.078 133.622C190.837 133.781 190.716 133.987 190.716 134.24C190.716 134.459 190.797 134.635 190.959 134.768C191.121 134.902 191.382 135.011 191.743 135.097L192.783 135.335C193.385 135.474 193.834 135.689 194.13 135.979C194.425 136.268 194.573 136.645 194.573 137.108C194.573 137.5 194.459 137.849 194.232 138.156C194.007 138.46 193.694 138.699 193.29 138.872C192.89 139.045 192.425 139.132 191.897 139.132C191.164 139.132 190.566 138.976 190.103 138.663C189.64 138.348 189.355 137.901 189.25 137.321L190.482 137.134C190.559 137.455 190.716 137.697 190.955 137.862C191.194 138.024 191.505 138.105 191.888 138.105C192.306 138.105 192.64 138.018 192.89 137.845C193.14 137.669 193.265 137.455 193.265 137.202C193.265 136.997 193.188 136.825 193.034 136.686C192.884 136.547 192.652 136.442 192.34 136.371L191.232 136.128C190.621 135.989 190.169 135.767 189.877 135.463C189.587 135.159 189.442 134.774 189.442 134.308C189.442 133.922 189.55 133.584 189.766 133.294C189.982 133.004 190.28 132.778 190.661 132.616C191.042 132.452 191.478 132.369 191.969 132.369C192.676 132.369 193.233 132.523 193.64 132.83C194.046 133.134 194.314 133.541 194.445 134.053ZM198.795 139.132C198.15 139.132 197.594 138.994 197.129 138.719C196.665 138.44 196.308 138.05 196.055 137.547C195.805 137.041 195.68 136.449 195.68 135.77C195.68 135.099 195.805 134.509 196.055 133.997C196.308 133.486 196.66 133.087 197.112 132.8C197.566 132.513 198.097 132.369 198.705 132.369C199.075 132.369 199.433 132.43 199.779 132.553C200.126 132.675 200.437 132.866 200.712 133.128C200.988 133.389 201.205 133.729 201.364 134.146C201.523 134.561 201.603 135.065 201.603 135.659V136.111H196.4V135.156H200.354C200.354 134.821 200.286 134.524 200.15 134.266C200.013 134.004 199.822 133.798 199.575 133.648C199.33 133.497 199.043 133.422 198.714 133.422C198.356 133.422 198.043 133.51 197.776 133.686C197.512 133.859 197.308 134.087 197.163 134.368C197.021 134.646 196.95 134.949 196.95 135.276V136.021C196.95 136.459 197.026 136.831 197.18 137.138C197.336 137.445 197.553 137.679 197.832 137.841C198.11 138 198.435 138.08 198.808 138.08C199.049 138.08 199.269 138.045 199.468 137.977C199.667 137.906 199.839 137.801 199.984 137.662C200.129 137.523 200.239 137.351 200.316 137.146L201.522 137.364C201.425 137.719 201.252 138.03 201.002 138.297C200.755 138.561 200.444 138.767 200.069 138.915C199.697 139.06 199.272 139.132 198.795 139.132ZM204.291 135.114V139H203.017V132.455H204.24V133.52H204.321C204.471 133.173 204.707 132.895 205.028 132.685C205.352 132.474 205.76 132.369 206.251 132.369C206.697 132.369 207.088 132.463 207.423 132.651C207.758 132.835 208.018 133.111 208.203 133.477C208.387 133.844 208.48 134.297 208.48 134.837V139H207.206V134.99C207.206 134.516 207.082 134.145 206.835 133.878C206.588 133.608 206.248 133.473 205.816 133.473C205.521 133.473 205.258 133.537 205.028 133.665C204.801 133.793 204.62 133.98 204.487 134.227C204.356 134.472 204.291 134.767 204.291 135.114ZM215.093 134.053L213.939 134.257C213.89 134.109 213.814 133.969 213.708 133.835C213.606 133.702 213.467 133.592 213.291 133.507C213.115 133.422 212.895 133.379 212.63 133.379C212.27 133.379 211.968 133.46 211.727 133.622C211.485 133.781 211.365 133.987 211.365 134.24C211.365 134.459 211.446 134.635 211.608 134.768C211.77 134.902 212.031 135.011 212.392 135.097L213.431 135.335C214.034 135.474 214.483 135.689 214.778 135.979C215.074 136.268 215.221 136.645 215.221 137.108C215.221 137.5 215.108 137.849 214.88 138.156C214.656 138.46 214.342 138.699 213.939 138.872C213.538 139.045 213.074 139.132 212.545 139.132C211.812 139.132 211.214 138.976 210.751 138.663C210.288 138.348 210.004 137.901 209.899 137.321L211.13 137.134C211.207 137.455 211.365 137.697 211.603 137.862C211.842 138.024 212.153 138.105 212.537 138.105C212.954 138.105 213.288 138.018 213.538 137.845C213.788 137.669 213.913 137.455 213.913 137.202C213.913 136.997 213.836 136.825 213.683 136.686C213.532 136.547 213.301 136.442 212.988 136.371L211.88 136.128C211.27 135.989 210.818 135.767 210.525 135.463C210.235 135.159 210.091 134.774 210.091 134.308C210.091 133.922 210.199 133.584 210.414 133.294C210.63 133.004 210.929 132.778 211.309 132.616C211.69 132.452 212.126 132.369 212.618 132.369C213.325 132.369 213.882 132.523 214.288 132.83C214.694 133.134 214.963 133.541 215.093 134.053ZM219.379 139.132C218.766 139.132 218.23 138.991 217.773 138.71C217.315 138.429 216.96 138.036 216.707 137.53C216.455 137.024 216.328 136.433 216.328 135.757C216.328 135.078 216.455 134.484 216.707 133.976C216.96 133.467 217.315 133.072 217.773 132.791C218.23 132.51 218.766 132.369 219.379 132.369C219.993 132.369 220.528 132.51 220.986 132.791C221.443 133.072 221.798 133.467 222.051 133.976C222.304 134.484 222.43 135.078 222.43 135.757C222.43 136.433 222.304 137.024 222.051 137.53C221.798 138.036 221.443 138.429 220.986 138.71C220.528 138.991 219.993 139.132 219.379 139.132ZM219.384 138.062C219.781 138.062 220.111 137.957 220.372 137.747C220.634 137.537 220.827 137.257 220.952 136.908C221.08 136.558 221.143 136.173 221.143 135.753C221.143 135.335 221.08 134.952 220.952 134.602C220.827 134.25 220.634 133.967 220.372 133.754C220.111 133.541 219.781 133.435 219.384 133.435C218.983 133.435 218.651 133.541 218.386 133.754C218.125 133.967 217.93 134.25 217.803 134.602C217.678 134.952 217.615 135.335 217.615 135.753C217.615 136.173 217.678 136.558 217.803 136.908C217.93 137.257 218.125 137.537 218.386 137.747C218.651 137.957 218.983 138.062 219.384 138.062ZM223.853 139V132.455H225.084V133.494H225.152C225.272 133.142 225.482 132.865 225.783 132.663C226.087 132.459 226.431 132.357 226.814 132.357C226.894 132.357 226.988 132.359 227.096 132.365C227.206 132.371 227.293 132.378 227.355 132.386V133.605C227.304 133.591 227.213 133.575 227.083 133.558C226.952 133.538 226.821 133.528 226.691 133.528C226.39 133.528 226.121 133.592 225.885 133.72C225.652 133.845 225.468 134.02 225.331 134.244C225.195 134.466 225.127 134.719 225.127 135.003V139H223.853Z" fill="black"/>
<line x1="127" y1="104.25" x2="256" y2="104.25" stroke="black" stroke-width="1.5"/>
<rect x="367.5" y="96.5" width="11" height="11" rx="5.5" fill="#EBEBEB" stroke="#B1B1B1"/>
<rect x="13.5" y="96.5" width="11" height="11" rx="5.5" fill="#EBEBEB" stroke="#B1B1B1"/>
</svg>
