<svg width="75" height="84" viewBox="0 0 75 84" fill="none" xmlns="http://www.w3.org/2000/svg">
<path d="M1.62638e-05 81.2091C1.62638e-05 80.06 0.950977 79.1251 2.11177 79.1251C3.27256 79.1251 4.21012 80.0643 4.21012 81.2135C4.21012 82.3802 3.26363 83.3114 2.07605 83.2975C0.91079 83.2887 -0.00444827 82.3356 1.62638e-05 81.2091ZM0.241102 81.2047C0.241102 82.22 1.07151 83.0576 2.09391 83.062C3.1297 83.062 3.96903 82.2376 3.9735 81.2091C3.9735 80.2114 3.13862 79.3702 2.13855 79.3658C1.08491 79.3658 0.241103 80.1763 0.236637 81.2047H0.241102Z" fill="black"/>
<path d="M1.98213 81.3474C1.98213 81.3071 1.98213 81.2757 1.98213 81.2406C1.98213 80.7636 1.98213 80.2831 1.98213 79.8061C1.98213 79.7754 1.9732 79.7396 1.98213 79.7176C2.00892 79.6774 2.04464 79.6284 2.08928 79.6152C2.15179 79.5969 2.19644 79.6416 2.21429 79.7037C2.22322 79.7308 2.21429 79.7622 2.21429 79.793C2.21429 80.2743 2.21429 80.7549 2.21429 81.2362C2.21429 81.2669 2.21429 81.3027 2.21429 81.343C2.25447 81.343 2.28573 81.3474 2.31698 81.3474C2.62057 81.3474 2.92416 81.3474 3.22775 81.3474C3.25901 81.3474 3.30365 81.3386 3.32597 81.3561C3.36169 81.3832 3.4108 81.4271 3.4108 81.4629C3.4108 81.5032 3.36615 81.5478 3.33044 81.5741C3.30812 81.5924 3.26794 81.5836 3.23222 81.5836C2.4911 81.5836 1.74997 81.5836 1.01332 81.5836C0.986531 81.5836 0.959742 81.5836 0.932953 81.5836C0.870451 81.5697 0.82134 81.5251 0.834738 81.4629C0.843663 81.4183 0.892774 81.3832 0.932953 81.3518C0.955276 81.3386 0.990997 81.3474 1.02224 81.343C1.30351 81.343 1.58478 81.343 1.87052 81.343C1.90177 81.343 1.93302 81.343 1.97767 81.3386L1.98213 81.3474Z" fill="black"/>
<path d="M2.10722 82.0467C1.91524 82.0467 1.72327 82.0467 1.53575 82.0467C1.43306 82.0467 1.3661 81.9794 1.39289 81.8953C1.41521 81.8236 1.46878 81.8016 1.54021 81.8016C1.68308 81.8016 1.82595 81.8016 1.96882 81.8016C2.19204 81.8016 2.41081 81.8016 2.63404 81.8016C2.65636 81.8016 2.68315 81.8016 2.70547 81.8016C2.78584 81.8104 2.83495 81.8638 2.83048 81.9304C2.82602 82.0065 2.77244 82.0423 2.70101 82.0467C2.59386 82.0467 2.48224 82.0467 2.37509 82.0467C2.2858 82.0467 2.20097 82.0467 2.11168 82.0467H2.10722Z" fill="black"/>
<path d="M2.09826 82.4915C2.04914 82.4915 2.00003 82.4915 1.95093 82.4915C1.88395 82.4915 1.84377 82.452 1.83485 82.3847C1.82592 82.3182 1.86163 82.2648 1.9286 82.2604C2.04468 82.2516 2.16076 82.2516 2.27238 82.2604C2.33935 82.2648 2.37953 82.3182 2.37059 82.3891C2.36167 82.4564 2.32149 82.4915 2.25451 82.4915C2.20094 82.4915 2.15183 82.4915 2.09826 82.4915Z" fill="black"/>
<path d="M12.2008 72.125L0.5 65.6251" stroke="black" stroke-linecap="round"/>
<path d="M12.2007 72.125L0.700928 78.125" stroke="#CFF400" stroke-linecap="round"/>
<path d="M12.2007 72.125L0.5 72.125" stroke="#FE0000" stroke-linecap="round"/>
<path d="M35.7969 57.1746C36.153 57.1417 36.3612 57.2567 36.5256 57.6072C36.8379 58.2807 37.3804 58.7133 38.1092 58.8941C38.8324 59.0748 39.5612 59.2555 40.2954 59.3869C40.6461 59.4471 40.7174 59.5895 40.7174 59.9126C40.7064 63.1161 40.7119 66.3196 40.7119 69.5286C40.7119 70.5635 40.3776 71.0235 39.3749 71.3138C38.7557 71.4945 38.1366 71.6642 37.5119 71.8121C37.1064 71.9052 36.9585 72.1242 36.9695 72.5294C36.9859 73.1866 36.9695 73.8492 36.9695 74.5063C36.9695 75.366 37.627 76.0177 38.4872 76.0177C41.8132 76.0177 45.1337 76.0177 48.4597 76.0177C50.8433 76.0177 53.2268 75.9958 55.6103 76.0341C56.224 76.0451 56.6898 75.8534 57.0459 75.4153C57.2322 75.1798 57.3747 74.8513 57.3966 74.5556C57.4459 73.8711 57.3966 73.1811 57.4185 72.4911C57.4295 72.1242 57.2706 71.9216 56.9254 71.834C56.2295 71.6533 55.5336 71.489 54.8487 71.2754C54.0049 71.0126 53.6706 70.5197 53.6706 69.6436C53.6706 68.0117 53.6706 66.3798 53.6706 64.748C53.6706 63.3625 54.3117 62.6397 55.6925 62.5137C58.6733 62.2454 61.4514 61.3309 64.0541 59.8743C64.2678 59.7538 64.5198 59.6771 64.7609 59.6169C65.8239 59.3705 66.8979 59.1679 67.9554 58.8995C68.854 58.675 69.4348 58.0726 69.6979 57.191C69.8403 56.7036 69.928 56.1998 70.054 55.7125C70.1855 55.1977 70.2129 54.5953 70.4978 54.1846C72.2896 51.6164 73.5444 48.8345 74.2403 45.7679C74.6183 44.1032 74.7225 42.4385 74.6786 40.7683C74.6403 39.3171 74.3389 37.866 74.0759 36.4313C73.7197 34.4927 72.8649 32.713 72.0485 30.9443C71.6211 30.0188 70.8704 29.2412 70.2951 28.3815C70.0595 28.0255 69.8513 27.6422 69.7033 27.2424C69.4403 26.5251 69.0129 25.9446 68.3006 25.7037C67.6924 25.4956 67.2376 25.1177 66.7664 24.7289C66.5143 24.5208 66.2568 24.3073 65.9883 24.1211C63.9226 22.6864 61.8568 21.2571 59.7911 19.8169C57.9829 18.5574 56.1857 17.287 54.3775 16.0384C53.8953 15.7044 53.6158 15.3156 53.6597 14.6968C53.698 14.1382 53.6706 13.5742 53.6706 13.0156C53.6706 10.9019 53.6706 8.7936 53.6706 6.67984C53.6706 5.55177 54.0268 5.09726 55.1336 4.80703C55.7145 4.6537 56.2843 4.48942 56.8706 4.35252C57.2596 4.2649 57.4514 4.06776 57.424 3.65158C57.4021 3.27921 57.4131 2.90136 57.424 2.52899C57.4405 1.75687 57.5117 0.990217 56.8158 0.393327C56.6186 0.223569 56.4761 0.125 56.2295 0.125C50.2789 0.125 44.3283 0.125 38.3777 0.125C37.7804 0.125 36.9969 0.864268 36.9914 1.45568C36.9804 2.21685 36.9914 2.9835 36.9914 3.74467C36.9914 4.05133 37.1174 4.23204 37.4188 4.30871C38.027 4.46204 38.6297 4.63727 39.2379 4.79608C39.8571 4.95488 40.405 5.19583 40.6516 5.84748C40.8379 6.3458 41.0571 6.83865 41.1721 7.3534C41.4352 8.53075 41.6489 9.72453 41.8735 10.9128C42.1584 12.4078 42.5256 13.8918 42.4488 15.4361C42.4269 15.8468 42.5091 16.2684 42.5804 16.6791C42.9365 18.7381 43.8351 20.5343 45.2488 22.0676C45.6981 22.5549 45.8461 23.1244 45.7584 23.7651C45.7255 24.0116 45.6488 24.1923 45.3365 24.247C43.8351 24.488 42.3338 24.7508 40.8379 25.0192C39.9722 25.1725 39.1119 25.3532 38.2516 25.5339C37.4516 25.6982 36.8653 26.1637 36.5256 26.8974C36.3886 27.1986 36.2078 27.2972 35.901 27.2643C35.7366 27.2479 35.5613 27.2315 35.4078 27.2643C35.1613 27.3246 34.9256 27.4341 34.6791 27.5217C32.0435 27.3958 29.3641 27.2698 26.6682 27.1439C26.6298 26.7605 26.5312 26.4703 26.0874 26.4375C25.3203 26.3827 25.0463 26.5306 24.734 27.226C23.8902 27.2643 23.0408 27.3136 22.1861 27.3465C21.1285 27.3848 20.7998 27.7189 20.7998 28.7757C20.7998 32.5323 20.7998 36.2889 20.7998 40.0509C20.7943 45.4284 20.7833 50.8004 20.7614 56.1779C20.7614 57.0815 21.3203 57.4648 22.0436 57.4703C22.8381 57.4812 23.6271 57.5305 24.4217 57.5798C24.5586 57.5908 24.723 57.6674 24.8216 57.7715C25.0408 57.996 25.2216 58.2479 25.386 58.445C25.2655 58.445 25.0299 58.445 24.7888 58.445C24.4984 58.445 24.3614 58.5929 24.3614 58.8776C24.3614 59.0255 24.3614 59.1788 24.3778 59.3267C24.4874 61.0407 24.6627 62.7601 24.6901 64.4742C24.7066 65.4982 25.0079 66.1772 25.9888 66.566C26.4709 66.7577 26.8929 67.0424 27.4572 67.0205C28.6572 66.9767 29.8572 67.026 31.0517 66.9767C31.9339 66.9384 32.7996 66.9712 33.6435 66.4565C34.4544 65.9582 34.8763 65.4379 34.8654 64.4468C34.8435 62.5466 34.9366 60.6464 34.9859 58.7462C34.9914 58.4286 34.8544 58.2534 34.5202 58.2643C34.2846 58.2698 34.0489 58.2643 33.8188 58.2643C34.8161 58.1274 34.838 58.1055 34.9147 57.191C35.238 57.191 35.5339 57.2129 35.8243 57.191L35.7969 57.1746ZM37.5338 3.87062C37.2379 3.67896 37.216 1.59806 37.5338 1.25307V3.87062ZM56.8487 1.29688C57.1117 1.51592 57.1555 3.49825 56.8487 3.8542V1.29688ZM37.3859 72.283C37.4297 72.283 37.4681 72.283 37.5119 72.283V74.7856C37.4681 74.7856 37.4297 74.7911 37.3859 74.7965V72.283ZM56.8377 72.2666C57.1172 72.4582 57.1501 74.468 56.8377 74.8951V72.2666ZM26.197 26.8427C26.2299 26.8755 26.2627 26.9686 26.2408 26.996C26.197 27.0563 26.1257 27.111 26.0545 27.1439C26.0052 27.1658 25.9394 27.1493 25.8792 27.1493C25.649 27.1493 25.4134 27.1493 25.1778 27.1493C25.271 26.8646 26.0107 26.6565 26.197 26.8427Z" fill="#1D1D1B" stroke="#1D1D1B" stroke-width="0.25" stroke-miterlimit="10"/>
<path d="M32.5962 58.5784V65.0291H31.5606C31.5222 63.797 31.4674 62.5649 31.462 61.3273C31.462 60.9166 31.6373 60.5114 31.6702 60.0952C31.7085 59.6243 31.6811 59.1479 31.6811 58.6276C31.9661 58.6112 32.2565 58.5948 32.5962 58.5729V58.5784Z" fill="#3C3C3B"/>
<path d="M34.5808 58.6356V60.1361H32.8493V58.6356H34.5808Z" fill="#3C3C3B"/>
<path d="M34.5034 60.64C34.5034 61.3574 34.5034 62.124 34.5034 62.8962C34.5034 63.4657 34.4925 64.0297 34.4815 64.5992C34.476 64.8347 34.487 65.0701 34.1801 65.1742C33.7911 65.3111 33.424 65.5958 33.0075 65.3001C32.9034 65.229 32.8103 65.0592 32.8158 64.9387C32.8377 63.5642 32.8815 62.1952 32.9199 60.8207C32.9199 60.7933 32.9473 60.766 32.9308 60.7933C33.4897 60.7386 34.0158 60.6893 34.5034 60.64Z" fill="#3C3C3B"/>
<path d="M32.8933 65.6285C33.1234 65.7983 33.5015 65.7545 33.8083 65.8092C33.2385 66.1487 32.6906 66.6142 31.8906 66.5978C30.5317 66.5759 29.1673 66.5759 27.8084 66.658C26.992 66.7073 26.3947 66.3294 25.8468 66.0064C26.203 65.853 26.5591 65.6559 26.9427 65.5573C27.2605 65.4752 27.644 65.404 27.9454 65.4971C29.1563 65.8914 30.3399 65.8914 31.5399 65.4478C31.9892 65.2835 32.4495 65.2945 32.8988 65.623L32.8933 65.6285Z" fill="#3C3C3B"/>
<path d="M31.4072 58.6649V60.1654H27.9552V58.6649H31.4072Z" fill="#3C3C3B"/>
<path d="M27.906 60.6134C27.9389 60.6408 27.9279 60.7284 27.9279 60.7887C27.9279 62.207 27.9279 63.6307 27.9279 65.0819H26.9252C26.8485 62.9791 26.7663 60.8708 26.6896 58.7297C27.7252 58.6694 27.6485 58.4449 27.6649 59.5182C27.6649 59.8961 27.5608 60.3013 27.906 60.6134Z" fill="#3C3C3B"/>
<path d="M26.6848 65.0501C26.6848 65.2034 26.4382 65.5101 26.3232 65.5046C25.9177 65.4772 25.5232 65.3403 25.1287 65.2363C25.0958 65.2253 25.0739 65.1377 25.0684 65.083C24.9752 63.6373 24.8876 62.1971 24.7999 60.8116C25.3588 60.839 25.8903 60.8719 26.4656 60.8993C26.5423 62.2792 26.6355 63.6647 26.6848 65.0501Z" fill="#3C3C3B"/>
<path d="M26.459 58.9822C26.4864 59.3984 26.47 59.8146 26.47 60.28H24.7659C24.7385 59.8146 24.7111 59.3382 24.6782 58.8015C25.2042 58.7686 25.7028 58.7248 26.207 58.7194C26.2946 58.7194 26.4535 58.8836 26.459 58.9767V58.9822Z" fill="#3C3C3B"/>
<path d="M31.2814 64.5055C31.3308 65.1626 31.3253 65.1736 30.7006 65.3269C29.9554 65.5131 29.2157 65.5076 28.4924 65.2502C28.3829 65.2119 28.2239 65.0695 28.2239 64.971C28.2075 63.5527 28.213 62.1344 28.213 60.7161H31.1883C31.2102 61.7565 31.2376 62.8572 31.2595 63.9579C31.2595 64.1386 31.2595 64.3193 31.276 64.4945L31.2814 64.5055Z" fill="#3C3C3B"/>
<path d="M28.213 60.7211C28.213 62.1394 28.2075 63.5577 28.2239 64.976C28.2239 65.0745 28.3829 65.2114 28.4924 65.2552C29.2157 65.5071 29.9554 65.5126 30.7006 65.3319C31.3253 65.1786 31.3308 65.1676 31.2814 64.5105C31.265 64.3298 31.2705 64.1546 31.265 63.9738C31.2376 62.8732 31.2157 61.767 31.1938 60.732H28.2185L28.213 60.7211Z" stroke="#1D1D1B" stroke-width="0.25" stroke-miterlimit="10"/>
<path d="M56.0212 0.467896C56.35 0.467896 56.5089 0.566523 56.4212 0.961033H37.9557C37.8571 0.572002 38.0215 0.467896 38.3502 0.467896C44.2406 0.467896 50.1309 0.467896 56.0212 0.467896Z" fill="#646363"/>
<path d="M56.4333 1.3175V3.9022H37.9568V1.3175H56.4333Z" fill="#646363"/>
<path d="M56.4333 1.3175H37.9568V3.9022H56.4333V1.3175Z" stroke="#1D1D1B" stroke-width="0.25" stroke-miterlimit="10"/>
<path d="M56.4165 75.1904C56.5315 75.6452 56.263 75.6671 55.9452 75.6671C53.5672 75.6671 51.1891 75.6671 48.8111 75.6671H47.3864V75.1904H56.4165Z" fill="#646363"/>
<path d="M46.9858 75.1904V75.6343C46.8708 75.6452 46.7557 75.6671 46.6406 75.6671C43.9009 75.6671 41.1667 75.6671 38.427 75.6671C38.1147 75.6671 37.8353 75.6452 37.9558 75.1904H46.9858Z" fill="#646363"/>
<path d="M56.4333 72.2405V74.7814H37.9459V72.2405H56.4333Z" fill="#646363"/>
<path d="M56.4333 72.2405H37.9459V74.7814H56.4333V72.2405Z" stroke="#1D1D1B" stroke-width="0.25" stroke-miterlimit="10"/>
<path d="M53.2869 7.26001V15.1729C52.5143 14.3351 52.1252 13.4315 52.2677 12.4294C52.5198 10.6935 52.8978 8.97402 53.2869 7.26001Z" fill="#D5D5D5"/>
<path d="M70.186 39.7012C71.3202 46.8968 67.4627 54.3552 60.9313 57.6353C58.4382 58.8893 55.8135 59.5355 53.0245 59.541C51.2437 59.541 49.5068 59.2781 47.8081 58.736C45.0685 57.8598 42.6849 56.4032 40.6466 54.3661C40.4329 54.1526 40.3562 53.9499 40.5151 53.698C40.9589 52.9916 40.7178 52.4659 40.2356 51.8362C38.1425 49.1255 37.074 46.0206 36.9973 42.6035C36.9096 38.6553 38.1425 35.1342 40.6301 32.0676C40.8658 31.7774 40.8219 31.5364 40.7123 31.2407C40.3671 30.3098 40.3726 30.3207 41.1069 29.6362C43.8575 27.0625 47.1068 25.4799 50.8437 25.0364C56.1149 24.4121 60.7779 25.8851 64.723 29.4501C67.7641 32.199 69.5504 35.6544 70.1915 39.6958L70.186 39.7012Z" fill="#D5D5D5"/>
<path d="M41.0888 59.594C42.5463 59.5611 42.749 60.3771 42.5682 61.4449C42.2504 63.356 41.8394 65.2562 41.4669 67.1619C41.3573 67.715 41.2477 68.2626 41.1381 68.8157H41.0888V59.594Z" fill="#D5D5D5"/>
<path d="M53.298 65.3123C53.3199 66.5061 53.3034 67.6944 53.3034 68.8881C53.2815 68.8881 53.2541 68.8881 53.2322 68.8936C52.9582 67.4808 52.6514 66.0734 52.4267 64.6497C52.2733 63.6804 53.0788 62.7659 54.2185 62.6235C53.2815 63.3683 53.2815 64.3321 53.298 65.3123Z" fill="#D5D5D5"/>
<path d="M63.0678 59.887C62.0541 60.911 57.0076 62.2198 54.1144 62.2471C50.9583 62.2745 47.9446 61.6776 45.1063 60.2539C51.1117 60.9438 57.0952 60.8562 63.0732 59.8924L63.0678 59.887Z" fill="#D5D5D5"/>
<path d="M68.7993 55.0377C69.0733 55.2184 69.3527 55.3937 69.665 55.5963C69.3472 58.0934 68.75 58.5205 66.4322 58.8545C66.1582 58.4657 65.9774 58.1043 65.7034 57.836C64.9199 57.0748 65.024 56.007 65.4349 55.328C65.9281 54.512 66.9089 54.1068 67.8404 54.408C68.1911 54.523 68.476 54.8242 68.7993 55.0377Z" fill="#D5D5D5"/>
<path d="M66.2737 25.5599C68.7668 26.009 69.249 26.1842 69.6819 28.7963C69.26 29.1029 68.86 29.3603 68.4983 29.667C67.7203 30.3186 66.5203 30.2639 65.7696 29.5301C64.9915 28.7744 64.9093 27.3999 65.5888 26.7373C65.9066 26.4252 66.3066 26.1294 66.2737 25.5599Z" fill="#D5D5D5"/>
<path d="M64.8975 57.1089C65.0509 57.651 65.4893 58.111 65.8345 58.6586C57.2866 60.7833 48.7497 60.86 40.1909 58.6038C40.3772 58.3684 40.569 58.1384 40.7553 57.9084C40.969 57.6455 41.1772 57.3827 41.3909 57.1253C41.3416 57.076 41.2868 57.0322 41.2375 56.9829L41.2156 56.8789C41.2704 56.8679 41.3306 56.857 41.3854 56.846C41.358 56.4025 41.3361 55.9589 41.3087 55.4989C44.7279 58.4067 48.673 59.929 53.1771 59.8962C57.6757 59.8633 61.5825 58.2698 64.8646 55.3839C64.8646 55.937 64.7441 56.5667 64.8975 57.1198V57.1089Z" fill="#D5D5D5"/>
<path d="M41.2156 56.8668L41.2375 56.9709C40.8595 57.053 40.7334 57.4309 40.5088 57.6992C40.4759 57.7375 40.443 57.7759 40.4047 57.8032C40.0978 58.0661 39.8896 58.4385 39.5718 58.8546C38.5198 58.6575 37.2047 58.5808 36.717 57.1516C36.591 56.7792 36.7116 56.2864 36.8157 55.8757C37.0294 55.0433 37.8129 54.534 38.6568 54.3917C39.654 54.2219 40.2841 54.7202 40.7828 55.4211C40.9855 55.7114 40.9636 56.1549 41.0512 56.5328C41.0786 56.6533 41.128 56.7628 41.1718 56.8778C41.1882 56.8778 41.1992 56.8723 41.2156 56.8668Z" fill="#D5D5D5"/>
<path d="M71.0786 42.613C71.1005 42.8046 71.0951 43.0018 71.0896 43.1934C70.9855 47.0869 70.4978 50.9311 69.5444 54.7151C69.517 54.8136 69.4786 54.9067 69.4019 55.1367C68.4759 54.0415 67.4129 53.6472 66.065 54.2441C66.6294 53.4994 67.1773 52.8477 67.6485 52.1468C69.5389 49.3595 70.569 46.2819 70.6786 42.9087C70.6786 42.8046 70.6731 42.6896 70.717 42.602C70.7499 42.5308 70.8485 42.4596 70.9252 42.4487C70.969 42.4432 71.0731 42.5473 71.0786 42.613Z" fill="#D5D5D5"/>
<path d="M71.0886 42.0169C70.6831 42.1921 70.7105 41.9074 70.6886 41.6993C70.59 40.8067 70.5571 39.9086 70.4037 39.0325C69.8503 35.8509 68.475 33.0581 66.3599 30.6212C66.2613 30.5117 66.1791 30.3912 65.9928 30.1612C67.4229 30.8403 68.475 30.3693 69.4229 29.296C70.5352 33.5509 71.0557 37.7565 71.0886 42.0169Z" fill="#D5D5D5"/>
<path d="M65.9934 25.8286C64.8373 26.7595 64.4921 27.8273 64.9797 29.1306C61.5715 26.1626 57.6428 24.58 53.1387 24.5527C48.6511 24.5253 44.706 26.0421 41.2704 28.9883C41.4348 27.8383 41.4567 27.6466 41.1937 27.6466L41.2539 27.3947C41.2539 27.3947 41.2813 27.3947 41.2923 27.3947C41.1991 26.6883 40.5197 26.4036 40.1471 25.7957C48.7443 23.6382 57.2812 23.6217 65.9934 25.8231V25.8286Z" fill="#D5D5D5"/>
<path d="M41.2544 27.3956L41.1941 27.6475C41.1448 27.6475 41.09 27.6529 41.0243 27.6639C41.1338 28.447 40.8928 29.0931 40.2517 29.586C40.0708 29.7284 39.9558 29.9529 39.7969 30.1281C39.7476 30.1829 39.6599 30.2322 39.5887 30.2431C39.3366 30.2815 39.0955 30.2979 38.8763 30.2924C37.8133 30.2595 37.0901 29.7119 36.575 28.5893C36.5312 28.4963 36.3942 28.447 36.2462 28.3429C36.2462 29.2684 37.0353 30.2486 37.9996 30.4731C38.2791 30.5388 38.575 30.5662 38.8654 30.5772C39.1394 30.5881 39.4188 30.5881 39.6928 30.5881C39.9722 30.5881 40.0873 30.6757 40.2188 30.9386C40.4708 31.4424 40.4051 31.7928 40.0489 32.2528C37.8188 35.1551 36.6736 38.4408 36.6572 42.1152C36.6407 46.0032 37.8572 49.4531 40.2681 52.4869C40.4434 52.7059 40.4818 52.8866 40.3558 53.1385C40.175 53.4945 40.0215 53.8559 39.8352 54.2611C39.7585 54.1735 39.7311 54.1078 39.6873 54.1023C38.1476 53.8833 36.575 54.398 36.3832 56.3037C36.3394 56.7089 36.164 56.8622 35.7914 56.8568C35.5997 56.8568 35.4079 56.8568 35.1777 56.8568V27.6529C35.6983 27.5379 36.1805 27.5982 36.6298 27.9706C36.5257 27.3353 36.8325 26.9137 37.1777 26.5139C37.5394 26.0977 38.0161 25.9061 38.5476 25.8075C38.9366 25.7363 39.3256 25.6268 39.7147 25.5392C39.7914 26.032 40.8708 27.3244 41.2544 27.4065V27.3956Z" fill="#D5D5D5"/>
<path d="M55.5675 71.9101H55.0579C52.7785 71.9101 50.4991 71.9155 48.2251 71.8991C47.9512 71.8991 47.6827 71.7731 47.4087 71.7184C47.2717 71.691 47.1293 71.6746 46.9977 71.6965C46.669 71.7512 46.3402 71.8936 46.0115 71.8991C43.617 71.9155 41.217 71.9101 38.8006 71.8498C39.0198 71.7841 39.2389 71.702 39.4636 71.6527C40.5266 71.4282 41.1293 70.7491 41.3321 69.7196C41.8745 66.9816 42.417 64.2436 42.9156 61.4946C43.0088 60.9853 42.8772 60.4432 42.8444 59.8408C43.1841 59.9339 43.6224 60.0106 44.017 60.1749C44.9539 60.5637 45.8635 61.0346 46.8114 61.3905C48.7457 62.1243 50.7676 62.4748 52.8278 62.5734C52.8717 62.5734 52.91 62.5898 53.058 62.6117C52.0004 63.4331 51.973 64.4626 52.2196 65.5797C52.51 66.894 52.773 68.2137 53.0032 69.5334C53.2059 70.7163 53.8415 71.4501 55.0305 71.6855C55.2168 71.7239 55.3977 71.7841 55.573 71.9101H55.5675Z" fill="#D5D5D5"/>
<path d="M74.3337 40.9656C74.4543 45.456 73.1337 49.5575 70.5968 53.2703C71.9557 45.0726 71.8187 36.9133 70.0982 28.7814C72.8159 32.3901 74.2132 36.4807 74.3337 40.9656Z" fill="#D5D5D5"/>
<path d="M66.3127 24.8072C66.477 24.9222 66.625 25.0701 66.762 25.2289C59.9127 23.7449 53.0197 23.378 46.017 24.1227C46.2471 23.137 46.006 22.3813 45.3869 21.6859C43.6609 19.7638 42.7348 17.4967 42.7568 14.9065C42.7677 13.417 42.3787 12.0097 42.1321 10.5695C41.9074 9.24426 41.5896 7.93548 41.365 6.61028C41.1623 5.41102 40.5157 4.66627 39.3102 4.4308C39.1568 4.40342 39.0034 4.34866 38.8609 4.23367H39.9623C42.0609 4.23367 44.1595 4.18986 46.2581 4.25557C46.8608 4.272 47.4471 4.2939 48.0553 4.272C50.4498 4.18438 52.8498 4.23367 55.2443 4.23367C55.3265 4.23367 55.4087 4.24462 55.5018 4.30485C55.2607 4.37057 55.0251 4.44176 54.784 4.50199C53.9018 4.71556 53.2991 5.26316 53.1073 6.12838C52.6799 8.09429 52.2745 10.0711 51.9512 12.059C51.6717 13.762 52.3895 15.0817 53.7922 16.0565C57.1347 18.3838 60.4716 20.7166 63.8086 23.0439C64.6414 23.6244 65.4743 24.2103 66.3072 24.7963L66.3127 24.8072Z" fill="#D5D5D5"/>
<path d="M23.9611 30.3244C23.9665 30.2697 23.8898 30.1547 23.8624 30.1602C23.5391 30.204 23.4898 29.9356 23.3528 29.7549C23.1337 29.4647 22.7446 29.4592 22.5748 29.7933C22.3118 30.3244 22.0488 30.872 21.9227 31.447C21.709 32.4053 21.5994 33.391 21.4405 34.3603C21.4131 34.5191 21.331 34.667 21.2762 34.8258C21.2268 34.8148 21.183 34.7984 21.1337 34.7874C21.1227 34.6451 21.1118 34.5082 21.1118 34.3658C21.1118 32.493 21.1118 30.6201 21.1118 28.7528C21.1118 27.9369 21.3255 27.7397 22.1474 27.7069C23.3748 27.6576 24.6021 27.6083 25.8241 27.5152C26.3008 27.4769 26.3939 27.7014 26.4049 28.0738C26.4213 28.5666 26.4377 29.0595 26.4377 29.5578C26.4377 33.5279 26.4377 37.4926 26.4377 41.4627C26.4377 45.9257 26.4377 50.3832 26.4377 54.8462C26.4377 55.476 26.4377 56.1057 26.3994 56.73C26.372 57.1462 26.2679 57.5624 26.1912 57.9895C25.9336 57.9895 25.6651 58.0169 25.4076 57.9731C25.309 57.9566 25.2049 57.7978 25.161 57.6774C25.035 57.3488 24.9473 57.179 24.4706 57.2119C23.5391 57.2721 22.5912 57.1517 21.6542 57.0531C21.4734 57.0312 21.2926 56.7738 21.1721 56.5876C21.0953 56.4617 21.1118 56.27 21.1118 56.1057C21.1118 51.1335 21.1118 46.1612 21.1118 41.1889V40.9644C21.1118 40.9644 21.1556 40.9535 21.1775 40.948C21.2214 41.0958 21.2871 41.2328 21.309 41.3861C21.3693 41.7968 21.4131 42.1911 21.72 42.5306C21.9118 42.7441 22.0762 43.0234 22.3501 42.8865C22.5803 42.7715 22.8487 42.4977 22.8816 42.2623C23.0734 40.7235 23.2104 39.1738 23.3638 37.6295C23.3638 37.6021 23.3857 37.5802 23.4131 37.5309C23.5885 37.5145 23.7802 37.5036 23.9775 37.4871C24.0706 36.9231 23.583 37.2571 23.4131 37.0819C23.2652 36.5452 23.7254 36.7533 23.9446 36.6767C23.9665 36.4686 23.8095 36.3426 23.4734 36.2988C23.5227 34.4205 23.572 32.5477 23.6268 30.6201C23.6761 30.6037 23.7802 30.5928 23.857 30.538C23.9172 30.4997 23.9665 30.4121 23.972 30.3354L23.9611 30.3244Z" fill="#575756"/>
<path d="M34.7523 28.9568C34.7523 37.9102 34.7578 46.8635 34.7413 55.8169C34.7413 56.4138 34.5934 57.0161 34.4728 57.6076C34.4509 57.7061 34.2318 57.8157 34.0948 57.8211C33.2893 57.8704 32.4783 57.8978 31.6729 57.9197C30.1441 57.958 28.6209 57.9854 27.0921 58.0128C27.0044 58.0128 26.9168 58.0018 26.7414 57.9854V27.5276C26.999 27.5276 27.3058 27.5166 27.6181 27.5276C29.7551 27.6152 31.8975 27.7138 34.0345 27.8014C34.4728 27.8178 34.692 28.0423 34.7304 28.4585C34.7468 28.6228 34.7523 28.7871 34.7523 28.9513V28.9568Z" fill="#464646"/>
<path d="M26.7456 57.9843C26.9154 58.0008 27.0031 58.0117 27.0963 58.0117C28.625 57.9843 30.1483 57.9569 31.677 57.9186C32.4825 57.8967 33.2934 57.8693 34.0989 57.82C34.2359 57.8091 34.4551 57.6996 34.477 57.6065C34.5975 57.0151 34.7455 56.4127 34.7455 55.8158C34.7619 46.8625 34.7564 37.9091 34.7564 28.9557C34.7564 28.7915 34.7564 28.6272 34.7345 28.4629C34.6962 28.0467 34.477 27.8222 34.0386 27.8058C31.9017 27.7182 29.7647 27.6196 27.6223 27.532C27.31 27.521 27.0031 27.532 26.7456 27.532V57.9898V57.9843Z" stroke="#1D1D1B" stroke-width="0.25" stroke-miterlimit="10"/>
<path d="M37.3757 27.9495C37.3647 28.7326 37.9729 29.3569 38.751 29.3678C39.5126 29.3733 40.1647 28.7326 40.1702 27.9769C40.1702 27.2322 39.5565 26.6079 38.8058 26.597C38.0058 26.586 37.3866 27.1665 37.3757 27.9495Z" fill="#575756"/>
<path d="M38.7934 26.9241C39.3303 26.9405 39.8125 27.4553 39.8016 27.9974C39.7906 28.5395 39.2975 29.0269 38.755 29.0214C38.2125 29.016 37.7249 28.5231 37.7249 27.981C37.7249 27.4115 38.2399 26.9077 38.7934 26.9241Z" fill="#1D1D1B"/>
<path d="M38.7673 57.8577C39.5289 57.8577 40.181 57.2006 40.17 56.4558C40.1591 55.7001 39.5509 55.0978 38.7892 55.0868C37.9947 55.0759 37.381 55.6728 37.3755 56.4558C37.3755 57.2334 37.9892 57.8577 38.7673 57.8577Z" fill="#404041"/>
<path d="M38.7394 55.4176C39.2928 55.3956 39.8079 55.9049 39.8079 56.4744C39.8079 57.0166 39.3092 57.5094 38.7723 57.5094C38.2298 57.5094 37.7367 57.022 37.7257 56.4799C37.7202 55.9378 38.1969 55.4395 38.7449 55.4176H38.7394Z" fill="#1D1D1B"/>
<path d="M65.8891 56.4791C65.8945 57.2348 66.5082 57.8536 67.2589 57.8536C68.026 57.8536 68.6781 57.2238 68.6836 56.4681C68.689 55.707 68.0534 55.0772 67.2754 55.0827C66.4918 55.0827 65.8836 55.696 65.8891 56.4791Z" fill="#404041"/>
<path d="M67.3252 55.418C67.8567 55.4454 68.3334 55.9602 68.317 56.4913C68.306 57.028 67.8074 57.5154 67.2759 57.5154C66.7225 57.5154 66.2293 56.9951 66.2403 56.4421C66.2567 55.8835 66.7827 55.3852 67.3252 55.418Z" fill="#1D1D1B"/>
<path d="M53.3423 56.7803C45.2049 56.7803 38.6082 50.1877 38.6082 42.0552C38.6082 33.9227 45.2049 27.3301 53.3423 27.3301C61.4797 27.3301 68.0764 33.9227 68.0764 42.0552C68.0764 50.1877 61.4797 56.7803 53.3423 56.7803Z" fill="#878787" stroke="#1D1D1B" stroke-width="0.25" stroke-miterlimit="10"/>
<path d="M68.6793 27.9659C68.6903 28.7216 68.0437 29.3677 67.2766 29.3677C66.5095 29.3677 65.8848 28.738 65.8848 27.9659C65.8848 27.1828 66.4985 26.5914 67.293 26.5968C68.0547 26.6078 68.6683 27.2156 68.6738 27.9659H68.6793ZM67.3095 29.0337C67.8355 29.0118 68.3286 28.497 68.3231 27.9713C68.3177 27.4128 67.7916 26.9035 67.2492 26.9254C66.7177 26.9473 66.23 27.4566 66.2355 27.9878C66.241 28.5408 66.7725 29.0556 67.3095 29.0337Z" fill="#404041"/>
<path d="M68.3171 27.9703C68.3171 28.496 67.835 29.0108 67.3035 29.0327C66.7665 29.0546 66.2404 28.5398 66.2295 27.9867C66.224 27.4556 66.7062 26.9463 67.2432 26.9244C67.7856 26.9025 68.3117 27.4118 68.3171 27.9703Z" fill="#1D1D1B"/>
<path d="M53.1167 38.1135C50.7715 38.1135 48.8976 39.9535 48.8921 42.2644C48.8921 44.5753 50.8044 46.4919 53.0838 46.4755C55.3852 46.4536 57.2537 44.5862 57.2537 42.2972C57.2537 39.9754 55.4126 38.119 53.1112 38.1135H53.1167Z" fill="#1D1D1B"/>
<path d="M50.4921 39.4649C52.0976 38.0083 54.4373 38.1397 55.9934 39.8154C53.9606 41.3378 51.9441 42.8437 49.9332 44.3496C48.8209 43.101 49.1003 40.7244 50.4921 39.4649Z" fill="#DADADA"/>
<path d="M58.7555 42.2801C58.7665 39.0218 56.2679 36.6397 53.0734 36.6069C50.0871 36.574 47.457 39.0821 47.457 41.853C47.457 45.4288 49.7638 47.9314 53.0734 47.9369C55.7912 47.9916 58.7445 45.9162 58.761 42.2801H58.7555ZM58.4103 42.3787C58.3226 45.5055 55.7802 47.6138 53.0405 47.5973C50.3337 47.5754 47.9118 45.4781 47.7748 42.6032C47.6104 39.1204 50.3885 36.9574 53.0953 36.9628C56.0268 36.9683 58.4925 39.4161 58.4103 42.3787Z" fill="#C6C6C6"/>
<path d="M56.2124 40.1442C57.3905 41.7267 57.0343 44.0048 55.4453 45.2807C53.8343 46.5731 51.544 46.3431 50.1303 44.7002C52.1522 43.1889 54.1741 41.6775 56.2124 40.1496V40.1442Z" fill="#DADADA"/>
<path d="M21.9115 44.4743L21.106 40.9532V34.5736L22.432 29.0209H24.5745L24.0046 44.3155L21.9115 44.4743Z" fill="#575756"/>
<path d="M20.0759 70.8259H10.8815V73.7392H17.1609" fill="#EBEBEB"/>
<path d="M20.0759 70.8259H10.8815V73.7392H17.1609" stroke="black" stroke-width="0.25"/>
<path d="M18.4338 73.7412H25.4749C28.6913 73.7412 31.3049 71.1346 31.3049 67.9202V67.0221H28.3899V67.9202C28.3899 69.5301 27.0858 70.8334 25.4749 70.8334H21.3489" fill="#EBEBEB"/>
<path d="M18.4448 73.7412H25.4749C28.6913 73.7412 31.3049 71.1346 31.3049 67.9202V67.0221H28.3899V67.9202C28.3899 69.5301 27.0858 70.8334 25.4749 70.8334H21.3489" stroke="black" stroke-width="0.26" stroke-miterlimit="3.86"/>
<path d="M15.0453 77.1249L24.585 67.5911M13.7796 77.1249L23.3192 67.5911" stroke="black" stroke-width="0.13" stroke-linecap="round" stroke-linejoin="round"/>
<path d="M2.96042 61.1251V64.849H2.52292L0.488539 61.9251H0.452078V64.849H0V61.1251H0.437499L2.47917 64.0562H2.51563V61.1251H2.96042Z" fill="black"/>
<rect class="RELAY-IN B" y="71.6251" width="1" height="1" rx="0.5" fill="transparent"/>
<rect class="RELAY-IN-GND" y="65.1251" width="1" height="1" rx="0.5" fill="transparent"/>
<rect class="RELAY-IN A" x="0.199951" y="77.6251" width="1" height="1" rx="0.5" fill="transparent"/>
</svg>
