<svg width="71" height="75" viewBox="0 0 71 75" fill="none" xmlns="http://www.w3.org/2000/svg">
<path d="M32.6178 55.0649C32.9608 55.0332 33.1613 55.144 33.3196 55.4815C33.6203 56.1301 34.1427 56.5468 34.8446 56.7208C35.5411 56.8948 36.2429 57.0688 36.95 57.1954C37.2877 57.2534 37.3563 57.3905 37.3563 57.7017C37.3457 60.7867 37.351 63.8717 37.351 66.962C37.351 67.9587 37.0291 68.4017 36.0635 68.6812C35.4672 68.8552 34.8709 69.0187 34.2694 69.1611C33.8789 69.2507 33.7364 69.4617 33.747 69.8519C33.7628 70.4848 33.747 71.1229 33.747 71.7557C33.747 72.5836 34.3802 73.2112 35.2086 73.2112C38.4116 73.2112 41.6094 73.2112 44.8124 73.2112C47.1077 73.2112 49.4031 73.1901 51.6985 73.227C52.2895 73.2375 52.7381 73.053 53.081 72.6311C53.2605 72.4043 53.3976 72.0879 53.4188 71.8031C53.4662 71.1439 53.4188 70.4795 53.4399 69.815C53.4504 69.4617 53.2974 69.2666 52.965 69.1822C52.2948 69.0082 51.6247 68.8499 50.9651 68.6443C50.1524 68.3912 49.8306 67.9165 49.8306 67.0728C49.8306 65.5012 49.8306 63.9297 49.8306 62.3582C49.8306 61.024 50.4479 60.3279 51.7777 60.2066C54.6482 59.9482 57.3236 59.0675 59.83 57.6647C60.0358 57.5487 60.2785 57.4749 60.5107 57.4169C61.5344 57.1796 62.5687 56.9845 63.5871 56.726C64.4525 56.5098 65.0118 55.9297 65.2651 55.0807C65.4023 54.6114 65.4867 54.1262 65.6081 53.6568C65.7347 53.1611 65.7611 52.581 66.0355 52.1855C67.761 49.7122 68.9694 47.0333 69.6395 44.0801C70.0036 42.4769 70.1039 40.8737 70.0617 39.2653C70.0247 37.8678 69.7345 36.4703 69.4812 35.0887C69.1382 33.2218 68.3151 31.5079 67.5288 29.8046C67.1172 28.9133 66.3943 28.1645 65.8403 27.3365C65.6133 26.9938 65.4128 26.6246 65.2704 26.2396C65.0171 25.5488 64.6055 24.9898 63.9195 24.7578C63.3338 24.5574 62.8958 24.1935 62.442 23.8191C62.1993 23.6187 61.9513 23.413 61.6927 23.2337C59.7034 21.852 57.714 20.4756 55.7247 19.0887C53.9834 17.8758 52.2526 16.6523 50.5113 15.4499C50.0469 15.1283 49.7778 14.7538 49.82 14.1579C49.8569 13.62 49.8306 13.0768 49.8306 12.5389C49.8306 10.5034 49.8306 8.47304 49.8306 6.43744C49.8306 5.35109 50.1735 4.91339 51.2395 4.63389C51.7988 4.48623 52.3476 4.32802 52.9122 4.19618C53.2868 4.11181 53.4715 3.92196 53.4451 3.52117C53.424 3.16257 53.4346 2.79869 53.4451 2.44009C53.461 1.69652 53.5296 0.958221 52.8594 0.383404C52.6695 0.219924 52.5323 0.125 52.2948 0.125C46.5642 0.125 40.8337 0.125 35.1031 0.125C34.5279 0.125 33.7734 0.83693 33.7681 1.40647C33.7575 2.1395 33.7681 2.8778 33.7681 3.61082C33.7681 3.90614 33.8895 4.08017 34.1797 4.154C34.7654 4.30165 35.3458 4.47041 35.9316 4.62334C36.5278 4.77627 37.0555 5.00831 37.293 5.63586C37.4724 6.11576 37.6834 6.59038 37.7943 7.08609C38.0475 8.2199 38.2533 9.36954 38.4697 10.5139C38.7441 11.9536 39.0976 13.3827 39.0237 14.8699C39.0026 15.2654 39.0818 15.6714 39.1504 16.067C39.4934 18.0498 40.3588 19.7795 41.7202 21.2561C42.1529 21.7255 42.2953 22.2739 42.2109 22.8909C42.1793 23.1282 42.1054 23.3023 41.8046 23.355C40.3588 23.587 38.9129 23.8402 37.4724 24.0986C36.6387 24.2462 35.8102 24.4203 34.9817 24.5943C34.2113 24.7525 33.6467 25.2007 33.3196 25.9074C33.1876 26.1974 33.0135 26.2924 32.718 26.2607C32.5597 26.2449 32.3909 26.2291 32.2431 26.2607C32.0057 26.3187 31.7788 26.4242 31.5413 26.5086C29.0032 26.3873 26.4228 26.266 23.8267 26.1447C23.7897 25.7756 23.6948 25.4961 23.2673 25.4644C22.5286 25.4117 22.2648 25.5541 21.964 26.2238C21.1514 26.2607 20.3335 26.3082 19.5103 26.3398C18.4919 26.3767 18.1753 26.6984 18.1753 27.7162C18.1753 31.3339 18.1753 34.9515 18.1753 38.5745C18.17 43.7531 18.1594 48.9265 18.1383 54.1051C18.1383 54.9752 18.6766 55.3444 19.3731 55.3497C20.1382 55.3602 20.8981 55.4077 21.6632 55.4551C21.7951 55.4657 21.9534 55.5395 22.0484 55.6397C22.2595 55.8559 22.4336 56.0985 22.5919 56.2883C22.4758 56.2883 22.2489 56.2883 22.0167 56.2883C21.7371 56.2883 21.6052 56.4307 21.6052 56.705C21.6052 56.8473 21.6052 56.995 21.621 57.1374C21.7265 58.788 21.8954 60.4439 21.9218 62.0945C21.9376 63.0807 22.2278 63.7346 23.1724 64.109C23.6367 64.2936 24.043 64.5678 24.5865 64.5467C25.7421 64.5045 26.8978 64.552 28.0481 64.5045C28.8976 64.4676 29.7314 64.4993 30.544 64.0036C31.325 63.5237 31.7313 63.0227 31.7207 62.0682C31.6996 60.2382 31.7893 58.4083 31.8368 56.5784C31.8421 56.2725 31.7102 56.1038 31.3883 56.1143C31.1614 56.1196 30.9345 56.1143 30.7128 56.1143C31.6732 55.9825 31.6943 55.9614 31.7682 55.0807C32.0795 55.0807 32.3645 55.1018 32.6441 55.0807L32.6178 55.0649ZM34.2905 3.73211C34.0055 3.54754 33.9844 1.54359 34.2905 1.21135V3.73211ZM52.8911 1.25354C53.1444 1.46448 53.1866 3.37351 52.8911 3.71629V1.25354ZM34.148 69.6146C34.1902 69.6146 34.2272 69.6146 34.2694 69.6146V72.0246C34.2272 72.0246 34.1902 72.0299 34.148 72.0352V69.6146ZM52.8805 69.5988C53.1496 69.7834 53.1813 71.7188 52.8805 72.1301V69.5988ZM23.3729 25.8547C23.4045 25.8863 23.4362 25.976 23.4151 26.0023C23.3729 26.0603 23.3043 26.1131 23.2357 26.1447C23.1882 26.1658 23.1249 26.15 23.0668 26.15C22.8452 26.15 22.6183 26.15 22.3914 26.15C22.4811 25.8758 23.1935 25.6754 23.3729 25.8547Z" fill="#1D1D1B" stroke="#1D1D1B" stroke-width="0.25" stroke-miterlimit="10"/>
<path d="M29.5355 56.4167V62.6289H28.5382C28.5013 61.4423 28.4485 60.2558 28.4432 59.064C28.4432 58.6685 28.6121 58.2782 28.6437 57.8774C28.6807 57.4239 28.6543 56.9651 28.6543 56.4641C28.9287 56.4483 29.2084 56.4325 29.5355 56.4114V56.4167Z" fill="#3C3C3B"/>
<path d="M31.4465 56.4719V57.9169H29.7791V56.4719H31.4465Z" fill="#3C3C3B"/>
<path d="M31.3719 58.4021C31.3719 59.0929 31.3719 59.8312 31.3719 60.5748C31.3719 61.1233 31.3614 61.6664 31.3508 62.2149C31.3456 62.4416 31.3561 62.6684 31.0606 62.7686C30.686 62.9004 30.3324 63.1747 29.9314 62.8899C29.8311 62.8213 29.7414 62.6579 29.7467 62.5418C29.7678 61.2182 29.81 59.8998 29.847 58.5761C29.847 58.5498 29.8733 58.5234 29.8575 58.5498C30.3957 58.497 30.9023 58.4496 31.3719 58.4021Z" fill="#3C3C3B"/>
<path d="M29.8215 63.2062C30.0432 63.3697 30.4073 63.3275 30.7028 63.3803C30.154 63.7072 29.6263 64.1555 28.8559 64.1397C27.5473 64.1186 26.2333 64.1186 24.9247 64.1977C24.1385 64.2451 23.5633 63.8812 23.0356 63.5701C23.3786 63.4225 23.7216 63.2326 24.091 63.1377C24.397 63.0586 24.7664 62.99 25.0566 63.0797C26.2228 63.4594 27.3626 63.4594 28.5182 63.0322C28.9509 62.874 29.3941 62.8845 29.8268 63.201L29.8215 63.2062Z" fill="#3C3C3B"/>
<path d="M28.3904 56.5V57.945H25.066V56.5H28.3904Z" fill="#3C3C3B"/>
<path d="M25.0183 58.3765C25.05 58.4028 25.0394 58.4872 25.0394 58.5452C25.0394 59.9111 25.0394 61.2822 25.0394 62.6797H24.0738C23.9999 60.6547 23.9208 58.6243 23.8469 56.5624C24.8442 56.5044 24.7703 56.2882 24.7862 57.3218C24.7862 57.6856 24.6859 58.0759 25.0183 58.3765Z" fill="#3C3C3B"/>
<path d="M23.8424 62.6494C23.8424 62.797 23.605 63.0923 23.4941 63.0871C23.1037 63.0607 22.7237 62.9289 22.3438 62.8287C22.3121 62.8181 22.291 62.7337 22.2858 62.681C22.1961 61.2888 22.1116 59.9018 22.0272 58.5676C22.5654 58.594 23.0773 58.6256 23.6313 58.652C23.7052 59.9809 23.7949 61.3151 23.8424 62.6494Z" fill="#3C3C3B"/>
<path d="M23.6251 56.8056C23.6515 57.2064 23.6357 57.6072 23.6357 58.0555H21.9946C21.9682 57.6072 21.9418 57.1484 21.9102 56.6316C22.4167 56.5999 22.8969 56.5578 23.3824 56.5525C23.4668 56.5525 23.6198 56.7107 23.6251 56.8003V56.8056Z" fill="#3C3C3B"/>
<path d="M28.2693 62.1249C28.3168 62.7577 28.3115 62.7683 27.71 62.9159C26.9923 63.0952 26.28 63.0899 25.5834 62.8421C25.4779 62.8052 25.3249 62.6681 25.3249 62.5731C25.3091 61.2073 25.3143 59.8414 25.3143 58.4756H28.1796C28.2007 59.4776 28.2271 60.5375 28.2482 61.5975C28.2482 61.7716 28.2482 61.9456 28.264 62.1143L28.2693 62.1249Z" fill="#3C3C3B"/>
<path d="M25.3143 58.4805C25.3143 59.8463 25.3091 61.2122 25.3249 62.578C25.3249 62.6729 25.4779 62.8048 25.5834 62.847C26.28 63.0896 26.9923 63.0948 27.71 62.9208C28.3115 62.7731 28.3168 62.7626 28.2693 62.1298C28.2535 61.9557 28.2588 61.787 28.2535 61.613C28.2271 60.553 28.206 59.4877 28.1849 58.491H25.3196L25.3143 58.4805Z" stroke="#1D1D1B" stroke-width="0.25" stroke-miterlimit="10"/>
<path d="M52.0943 0.455322C52.4109 0.455322 52.5639 0.550302 52.4795 0.930223H34.6968C34.6018 0.555579 34.7601 0.455322 35.0767 0.455322C40.7493 0.455322 46.4218 0.455322 52.0943 0.455322Z" fill="#646363"/>
<path d="M52.491 1.27344V3.76255H34.6977V1.27344H52.491Z" fill="#646363"/>
<path d="M52.491 1.27344H34.6977V3.76255H52.491V1.27344Z" stroke="#1D1D1B" stroke-width="0.25" stroke-miterlimit="10"/>
<path d="M52.4747 72.4146C52.5855 72.8525 52.327 72.8736 52.0209 72.8736C49.7308 72.8736 47.4407 72.8736 45.1506 72.8736H43.7786V72.4146H52.4747Z" fill="#646363"/>
<path d="M43.3929 72.4146V72.842C43.2821 72.8525 43.1713 72.8736 43.0605 72.8736C40.4221 72.8736 37.789 72.8736 35.1506 72.8736C34.8499 72.8736 34.5807 72.8525 34.6968 72.4146H43.3929Z" fill="#646363"/>
<path d="M52.491 69.5737V72.0207H34.6872V69.5737H52.491Z" fill="#646363"/>
<path d="M52.491 69.5737H34.6872V72.0207H52.491V69.5737Z" stroke="#1D1D1B" stroke-width="0.25" stroke-miterlimit="10"/>
<path d="M49.4609 6.99609V14.6164C48.7169 13.8095 48.3423 12.9394 48.4795 11.9743C48.7222 10.3026 49.0863 8.64672 49.4609 6.99609Z" fill="#D5D5D5"/>
<path d="M65.7352 38.2378C66.8275 45.1672 63.1127 52.3498 56.8228 55.5086C54.4219 56.7163 51.8943 57.3386 49.2084 57.3438C47.4935 57.3438 45.8208 57.0907 44.185 56.5686C41.5466 55.7249 39.2512 54.3221 37.2882 52.3603C37.0824 52.1547 37.0086 51.9595 37.1616 51.717C37.589 51.0367 37.3568 50.5304 36.8925 49.924C34.8767 47.3135 33.8478 44.3234 33.7739 41.0327C33.6895 37.2305 34.8767 33.8396 37.2724 30.8864C37.4993 30.6069 37.4571 30.3749 37.3516 30.0901C37.0191 29.1936 37.0244 29.2042 37.7315 28.545C40.3804 26.0664 43.5095 24.5423 47.1083 24.1152C52.1845 23.514 56.6751 24.9326 60.4743 28.3657C63.4029 31.013 65.1231 34.3406 65.7405 38.2325L65.7352 38.2378Z" fill="#D5D5D5"/>
<path d="M37.714 57.3947C39.1176 57.3631 39.3129 58.1488 39.1387 59.1772C38.8327 61.0177 38.4369 62.8476 38.0781 64.6828C37.9726 65.2154 37.867 65.7428 37.7615 66.2754H37.714V57.3947Z" fill="#D5D5D5"/>
<path d="M49.4715 62.9018C49.4926 64.0514 49.4768 65.1958 49.4768 66.3454C49.4557 66.3454 49.4293 66.3454 49.4082 66.3507C49.1444 64.9901 48.8489 63.6348 48.6325 62.2637C48.4848 61.3303 49.2605 60.4496 50.358 60.3125C49.4557 61.0297 49.4557 61.9578 49.4715 62.9018Z" fill="#D5D5D5"/>
<path d="M58.8802 57.677C57.904 58.6632 53.0441 59.9235 50.258 59.9499C47.2186 59.9763 44.3163 59.4015 41.583 58.0303C47.3663 58.6948 53.1285 58.6104 58.8855 57.6823L58.8802 57.677Z" fill="#D5D5D5"/>
<path d="M64.3999 53.0071C64.6638 53.1811 64.9329 53.3499 65.2336 53.545C64.9276 55.9497 64.3524 56.3611 62.1204 56.6828C61.8565 56.3083 61.6824 55.9603 61.4185 55.7019C60.664 54.9689 60.7642 53.9405 61.16 53.2866C61.6349 52.5008 62.5794 52.1106 63.4765 52.4006C63.8142 52.5114 64.0886 52.8014 64.3999 53.0071Z" fill="#D5D5D5"/>
<path d="M61.9676 24.6194C64.3685 25.0518 64.8329 25.2206 65.2498 27.7361C64.8434 28.0314 64.4582 28.2792 64.11 28.5746C63.3607 29.2021 62.2051 29.1494 61.4821 28.4427C60.7328 27.715 60.6537 26.3913 61.308 25.7532C61.6141 25.4526 61.9993 25.1678 61.9676 24.6194Z" fill="#D5D5D5"/>
<path d="M60.6421 55.0015C60.7899 55.5236 61.212 55.9666 61.5444 56.4939C53.3127 58.5401 45.0915 58.6139 36.8492 56.4412C37.0286 56.2144 37.2133 55.9929 37.3927 55.7714C37.5985 55.5183 37.799 55.2652 38.0048 55.0173C37.9573 54.9699 37.9045 54.9277 37.857 54.8802L37.8359 54.78C37.8887 54.7695 37.9468 54.7589 37.9995 54.7484C37.9731 54.3212 37.952 53.8941 37.9256 53.4511C41.2183 56.2513 45.0176 57.7174 49.3551 57.6857C53.6873 57.6541 57.4497 56.1195 60.6104 53.3403C60.6104 53.873 60.4944 54.4794 60.6421 55.012V55.0015Z" fill="#D5D5D5"/>
<path d="M37.8362 54.7686L37.8573 54.8688C37.4932 54.9479 37.3718 55.3117 37.1555 55.5702C37.1238 55.6071 37.0922 55.644 37.0552 55.6703C36.7597 55.9235 36.5592 56.2821 36.2532 56.6829C35.24 56.493 33.9736 56.4192 33.504 55.0428C33.3826 54.6842 33.4987 54.2096 33.5989 53.8141C33.8047 53.0125 34.5593 52.522 35.3719 52.3849C36.3323 52.2214 36.9391 52.7013 37.4193 53.3764C37.6146 53.6558 37.5935 54.083 37.6779 54.4469C37.7043 54.5629 37.7518 54.6684 37.794 54.7791C37.8098 54.7791 37.8204 54.7738 37.8362 54.7686Z" fill="#D5D5D5"/>
<path d="M66.5948 41.0417C66.6159 41.2263 66.6107 41.4161 66.6054 41.6007C66.5051 45.3502 66.0355 49.0522 65.1173 52.6963C65.091 52.7912 65.054 52.8808 64.9801 53.1023C64.0884 52.0476 63.0647 51.6679 61.7666 52.2427C62.3101 51.5255 62.8378 50.898 63.2916 50.223C65.1121 47.5387 66.1041 44.575 66.2096 41.3265C66.2096 41.2263 66.2044 41.1155 66.2466 41.0312C66.2782 40.9626 66.3732 40.894 66.4471 40.8835C66.4893 40.8782 66.5896 40.9784 66.5948 41.0417Z" fill="#D5D5D5"/>
<path d="M66.6044 40.4678C66.2139 40.6365 66.2403 40.3623 66.2192 40.1619C66.1242 39.3023 66.0925 38.4374 65.9448 37.5937C65.4118 34.5297 64.0874 31.8402 62.0505 29.4935C61.9555 29.388 61.8764 29.272 61.697 29.0505C63.0742 29.7044 64.0874 29.2509 65.0002 28.2173C66.0714 32.3148 66.5727 36.3649 66.6044 40.4678Z" fill="#D5D5D5"/>
<path d="M61.6978 24.878C60.5844 25.7745 60.2519 26.8029 60.7216 28.058C57.4394 25.1997 53.656 23.6756 49.3185 23.6493C44.9968 23.6229 41.1975 25.0837 37.889 27.9209C38.0473 26.8134 38.0684 26.6288 37.8151 26.6288L37.8732 26.3863C37.8732 26.3863 37.8995 26.3863 37.9101 26.3863C37.8204 25.706 37.1661 25.4317 36.8072 24.8464C45.0865 22.7686 53.3077 22.7528 61.6978 24.8727V24.878Z" fill="#D5D5D5"/>
<path d="M37.8734 26.3871L37.8154 26.6297C37.7679 26.6297 37.7151 26.635 37.6518 26.6455C37.7573 27.3996 37.5251 28.0219 36.9078 28.4965C36.7336 28.6336 36.6228 28.8499 36.4698 29.0186C36.4223 29.0713 36.3379 29.1188 36.2693 29.1293C36.0265 29.1663 35.7944 29.1821 35.5833 29.1768C34.5596 29.1452 33.8631 28.6178 33.3671 27.5367C33.3248 27.4471 33.1929 27.3996 33.0505 27.2994C33.0505 28.1907 33.8103 29.1346 34.739 29.3508C35.0081 29.4141 35.2931 29.4405 35.5727 29.451C35.8366 29.4616 36.1057 29.4616 36.3695 29.4616C36.6387 29.4616 36.7495 29.546 36.8761 29.7991C37.1188 30.2843 37.0555 30.6218 36.7125 31.0647C34.5649 33.8597 33.462 37.0239 33.4462 40.5624C33.4304 44.3066 34.6018 47.629 36.9236 50.5505C37.0925 50.7615 37.1294 50.9355 37.008 51.1781C36.8339 51.5209 36.6861 51.8689 36.5067 52.2592C36.4329 52.1748 36.4065 52.1115 36.3643 52.1062C34.8815 51.8953 33.3671 52.391 33.1824 54.2262C33.1402 54.6164 32.9713 54.7641 32.6125 54.7588C32.4278 54.7588 32.2431 54.7588 32.0215 54.7588V26.635C32.5228 26.5242 32.9871 26.5822 33.4198 26.9408C33.3196 26.3291 33.6151 25.923 33.9475 25.5381C34.2958 25.1373 34.7548 24.9527 35.2667 24.8578C35.6413 24.7892 36.016 24.6837 36.3906 24.5994C36.4645 25.074 37.504 26.3185 37.8734 26.3976V26.3871Z" fill="#D5D5D5"/>
<path d="M51.6572 69.2555H51.1665C48.9713 69.2555 46.7762 69.2608 44.5863 69.2449C44.3225 69.2449 44.0639 69.1236 43.8001 69.0709C43.6682 69.0445 43.531 69.0287 43.4043 69.0498C43.0877 69.1025 42.7711 69.2397 42.4545 69.2449C40.1486 69.2608 37.8374 69.2555 35.5103 69.1975C35.7214 69.1342 35.9324 69.0551 36.1488 69.0076C37.1725 68.7914 37.7529 68.1375 37.9482 67.1461C38.4706 64.5093 38.993 61.8725 39.4732 59.2252C39.5629 58.7347 39.4362 58.2127 39.4046 57.6326C39.7317 57.7222 40.1539 57.796 40.5338 57.9543C41.4361 58.3287 42.3121 58.7822 43.2249 59.125C45.0876 59.8316 47.0348 60.1691 49.0188 60.2641C49.061 60.2641 49.098 60.2799 49.2404 60.301C48.222 61.092 48.1956 62.0834 48.4331 63.1593C48.7128 64.4249 48.9661 65.6958 49.1877 66.9668C49.3829 68.1058 49.995 68.8125 51.1401 69.0393C51.3195 69.0762 51.4936 69.1342 51.6625 69.2555H51.6572Z" fill="#D5D5D5"/>
<path d="M69.7294 39.4553C69.8455 43.7796 68.5738 47.7295 66.1306 51.305C67.4393 43.4105 67.3074 35.5529 65.6505 27.7217C68.2677 31.197 69.6133 35.1363 69.7294 39.4553Z" fill="#D5D5D5"/>
<path d="M62.0049 23.8946C62.1632 24.0054 62.3057 24.1478 62.4376 24.3007C55.8417 22.8716 49.2035 22.5182 42.4598 23.2354C42.6814 22.2862 42.4492 21.5585 41.853 20.8887C40.1908 19.0377 39.299 16.8544 39.3201 14.3601C39.3307 12.9256 38.956 11.5703 38.7186 10.1834C38.5022 8.90719 38.1962 7.64681 37.9798 6.37061C37.7846 5.21571 37.1619 4.4985 36.001 4.27174C35.8533 4.24537 35.7055 4.19264 35.5684 4.08189H36.629C38.65 4.08189 40.671 4.0397 42.692 4.10299C43.2724 4.11881 43.837 4.1399 44.4228 4.11881C46.7287 4.03443 49.0399 4.08189 51.3459 4.08189C51.425 4.08189 51.5042 4.09244 51.5939 4.15045C51.3617 4.21373 51.1348 4.28229 50.9026 4.3403C50.0531 4.54596 49.4726 5.07332 49.2879 5.90654C48.8763 7.79975 48.4859 9.7035 48.1745 11.6178C47.9054 13.2579 48.5967 14.5288 49.9475 15.4675C53.1664 17.7088 56.3799 19.9553 59.5934 22.1966C60.3955 22.7555 61.1976 23.3198 61.9997 23.8841L62.0049 23.8946Z" fill="#D5D5D5"/>
<path d="M21.2195 29.2077C21.2248 29.155 21.1509 29.0442 21.1245 29.0495C20.8132 29.0917 20.7657 28.8333 20.6338 28.6593C20.4227 28.3798 20.0481 28.3745 19.8845 28.6962C19.6312 29.2077 19.3779 29.7351 19.2566 30.2888C19.0508 31.2117 18.9452 32.1609 18.7922 33.0943C18.7658 33.2472 18.6867 33.3896 18.6339 33.5426C18.5864 33.532 18.5442 33.5162 18.4967 33.5057C18.4862 33.3685 18.4756 33.2367 18.4756 33.0996C18.4756 31.296 18.4756 29.4925 18.4756 27.6942C18.4756 26.9084 18.6814 26.7186 19.4729 26.6869C20.6549 26.6395 21.8369 26.592 23.0136 26.5024C23.4727 26.4655 23.5624 26.6817 23.573 27.0403C23.5888 27.5149 23.6046 27.9895 23.6046 28.4694C23.6046 32.2927 23.6046 36.1108 23.6046 39.9341C23.6046 44.2321 23.6046 48.5247 23.6046 52.8227C23.6046 53.4291 23.6046 54.0356 23.5677 54.6368C23.5413 55.0376 23.441 55.4384 23.3672 55.8497C23.1191 55.8497 22.8606 55.8761 22.6126 55.8339C22.5176 55.8181 22.4173 55.6651 22.3751 55.5491C22.2538 55.2327 22.1693 55.0692 21.7103 55.1009C20.8132 55.1589 19.9003 55.0429 18.998 54.9479C18.8239 54.9268 18.6497 54.679 18.5336 54.4997C18.4598 54.3784 18.4756 54.1938 18.4756 54.0356C18.4756 49.2472 18.4756 44.4588 18.4756 39.6704V39.4542C18.4756 39.4542 18.5178 39.4437 18.5389 39.4384C18.5811 39.5808 18.6445 39.7126 18.6656 39.8603C18.7236 40.2558 18.7658 40.6355 19.0613 40.9625C19.246 41.1681 19.4043 41.4371 19.6682 41.3052C19.8898 41.1945 20.1483 40.9308 20.18 40.7041C20.3647 39.2222 20.4966 37.7298 20.6444 36.2426C20.6444 36.2163 20.6655 36.1952 20.6918 36.1477C20.8607 36.1319 21.0454 36.1213 21.2353 36.1055C21.3251 35.5623 20.8554 35.884 20.6918 35.7153C20.5494 35.1985 20.9926 35.3989 21.2037 35.325C21.2248 35.1246 21.0735 35.0033 20.7499 34.9612C20.7974 33.1523 20.8449 31.3488 20.8976 29.4925C20.9451 29.4767 21.0454 29.4661 21.1193 29.4134C21.1773 29.3765 21.2248 29.2921 21.2301 29.2183L21.2195 29.2077Z" fill="#575756"/>
<path d="M31.6119 27.8904C31.6119 36.5126 31.6172 45.1349 31.6014 53.7571C31.6014 54.332 31.4589 54.9121 31.3428 55.4816C31.3217 55.5765 31.1107 55.682 30.9787 55.6873C30.2031 55.7347 29.4221 55.7611 28.6464 55.7822C27.1742 55.8191 25.7073 55.8455 24.235 55.8718C24.1506 55.8718 24.0662 55.8613 23.8973 55.8455V26.514C24.1453 26.514 24.4408 26.5034 24.7416 26.514C26.7995 26.5983 28.8628 26.6933 30.9207 26.7776C31.3428 26.7935 31.5539 27.0097 31.5908 27.4105C31.6067 27.5687 31.6119 27.7269 31.6119 27.8851V27.8904Z" fill="#464646"/>
<path d="M23.9011 55.8444C24.0647 55.8602 24.1491 55.8707 24.2388 55.8707C25.711 55.8444 27.178 55.818 28.6502 55.7811C29.4259 55.76 30.2068 55.7336 30.9825 55.6861C31.1144 55.6756 31.3255 55.5701 31.3466 55.4805C31.4627 54.9109 31.6052 54.3308 31.6052 53.756C31.621 45.1338 31.6157 36.5115 31.6157 27.8892C31.6157 27.731 31.6157 27.5728 31.5946 27.4146C31.5577 27.0138 31.3466 26.7976 30.9245 26.7818C28.8665 26.6974 26.8086 26.6025 24.7454 26.5181C24.4446 26.5076 24.1491 26.5181 23.9011 26.5181V55.8496V55.8444Z" stroke="#1D1D1B" stroke-width="0.25" stroke-miterlimit="10"/>
<path d="M34.1381 26.9206C34.1275 27.6748 34.7132 28.2759 35.4625 28.2865C36.196 28.2918 36.8239 27.6748 36.8292 26.947C36.8292 26.2298 36.2382 25.6286 35.5153 25.6181C34.7449 25.6075 34.1486 26.1665 34.1381 26.9206Z" fill="#575756"/>
<path d="M35.5033 25.9332C36.0204 25.9491 36.4847 26.4448 36.4742 26.9669C36.4636 27.4889 35.9887 27.9583 35.4663 27.953C34.9439 27.9477 34.4743 27.4731 34.4743 26.951C34.4743 26.4026 34.9703 25.9174 35.5033 25.9332Z" fill="#1D1D1B"/>
<path d="M35.4784 55.7228C36.2118 55.7228 36.8398 55.0899 36.8292 54.3727C36.8187 53.645 36.2329 53.0649 35.4995 53.0543C34.7343 53.0438 34.1433 53.6186 34.1381 54.3727C34.1381 55.1216 34.7291 55.7228 35.4784 55.7228Z" fill="#404041"/>
<path d="M35.4514 53.373C35.9843 53.3519 36.4803 53.8423 36.4803 54.3908C36.4803 54.9128 36.0002 55.3875 35.483 55.3875C34.9606 55.3875 34.4857 54.9181 34.4752 54.396C34.4699 53.874 34.929 53.3941 35.4567 53.373H35.4514Z" fill="#1D1D1B"/>
<path d="M61.5969 54.3951C61.6022 55.1228 62.1932 55.7187 62.9161 55.7187C63.6548 55.7187 64.2828 55.1123 64.2881 54.3845C64.2933 53.6515 63.6812 53.0451 62.9319 53.0503C62.1773 53.0503 61.5916 53.641 61.5969 54.3951Z" fill="#404041"/>
<path d="M62.9802 53.3733C63.492 53.3997 63.9511 53.8954 63.9353 54.4069C63.9247 54.9237 63.4445 55.3931 62.9327 55.3931C62.3997 55.3931 61.9248 54.8921 61.9354 54.3595C61.9512 53.8216 62.4578 53.3417 62.9802 53.3733Z" fill="#1D1D1B"/>
<path d="M49.5143 54.6854C41.6778 54.6854 35.3251 48.3365 35.3251 40.5048C35.3251 32.6731 41.6778 26.3242 49.5143 26.3242C57.3508 26.3242 63.7035 32.6731 63.7035 40.5048C63.7035 48.3365 57.3508 54.6854 49.5143 54.6854Z" fill="#878787" stroke="#1D1D1B" stroke-width="0.25" stroke-miterlimit="10"/>
<path d="M64.2842 26.9363C64.2947 27.6641 63.6721 28.2864 62.9333 28.2864C62.1946 28.2864 61.593 27.6799 61.593 26.9363C61.593 26.1822 62.184 25.6127 62.9491 25.618C63.6826 25.6285 64.2736 26.2139 64.2789 26.9363H64.2842ZM62.965 27.9647C63.4715 27.9436 63.9465 27.4479 63.9412 26.9416C63.9359 26.4037 63.4293 25.9133 62.9069 25.9344C62.3951 25.9555 61.9255 26.4459 61.9307 26.9574C61.936 27.4901 62.4479 27.9858 62.965 27.9647Z" fill="#404041"/>
<path d="M63.9353 26.9408C63.9353 27.447 63.4709 27.9427 62.9591 27.9638C62.442 27.9849 61.9354 27.4892 61.9249 26.9566C61.9196 26.4451 62.3839 25.9546 62.9011 25.9335C63.4235 25.9124 63.93 26.4029 63.9353 26.9408Z" fill="#1D1D1B"/>
<path d="M49.2972 36.7087C47.0387 36.7087 45.2341 38.4807 45.2288 40.7061C45.2288 42.9315 47.0704 44.7773 49.2655 44.7615C51.4818 44.7404 53.2811 42.9421 53.2811 40.7377C53.2811 38.5017 51.5081 36.714 49.2919 36.7087H49.2972Z" fill="#1D1D1B"/>
<path d="M46.7698 38.0101C48.3158 36.6074 50.569 36.7339 52.0676 38.3476C50.1099 39.8137 48.1681 41.2639 46.2315 42.7141C45.1603 41.5118 45.4295 39.223 46.7698 38.0101Z" fill="#DADADA"/>
<path d="M54.7274 40.721C54.7379 37.5833 52.3317 35.2893 49.2554 35.2576C46.3795 35.226 43.8467 37.6413 43.8467 40.3097C43.8467 43.7533 46.0682 46.1633 49.2554 46.1686C51.8727 46.2214 54.7168 44.2227 54.7327 40.721H54.7274ZM54.395 40.816C54.3105 43.8272 51.8621 45.8575 49.2237 45.8417C46.617 45.8206 44.2847 43.8008 44.1528 41.0322C43.9945 37.6782 46.6698 35.5951 49.2765 35.6004C52.0996 35.6057 54.4741 37.963 54.395 40.816Z" fill="#C6C6C6"/>
<path d="M52.2782 38.6643C53.4127 40.1884 53.0697 42.3822 51.5394 43.6109C49.9881 44.8555 47.7824 44.634 46.421 43.0519C48.3681 41.5964 50.3152 40.1409 52.2782 38.6696V38.6643Z" fill="#DADADA"/>
<path d="M19.2459 42.8341L18.4702 39.4432V33.2995L19.7472 27.9521H21.8104L21.2616 42.6812L19.2459 42.8341Z" fill="#575756"/>
<path d="M17.4781 68.2114H8.62374V71.017H14.6709" fill="#EBEBEB"/>
<path d="M15.8966 71.0187H22.6773C25.7747 71.0187 28.2917 68.5085 28.2917 65.413V64.5481H25.4845V65.413C25.4845 66.9634 24.2286 68.2185 22.6773 68.2185H18.7039" fill="#EBEBEB"/>
<path d="M15.9072 71.0187H22.6773C25.7747 71.0187 28.2917 68.5085 28.2917 65.413V64.5481H25.4845V65.413C25.4845 66.9634 24.2286 68.2185 22.6773 68.2185H18.7039" stroke="black" stroke-width="0.26" stroke-miterlimit="3.86"/>
<path d="M12.6336 74.2774L21.8204 65.0962M11.4147 74.2774L20.6015 65.0962" stroke="black" stroke-width="0.13" stroke-linecap="round" stroke-linejoin="round"/>
<path d="M8.61825 68.5529C7.67453 68.5529 6.81032 67.7331 6.34906 66.4094L3.93142 59.4753C3.32171 57.793 2.19772 56.7427 0.988903 56.7427H0.130005V57.9297H0.994205C1.94323 57.9297 2.81804 58.7409 3.2952 60.056L5.32581 65.88M5.71815 68.2113L1.72586 64.8979C1.35473 64.5905 0.946488 64.4368 0.532945 64.4368H0.130005V65.6238H0.357984C0.771528 65.6238 1.17977 65.786 1.5509 66.0849L6.4604 70.1583C6.94287 70.5597 7.47306 70.8073 8.01384 70.9012H8.71899M8.71899 70.9012L14.868 71.0187M8.71899 70.9012L8.72429 68.2113H17.63M8.71899 68.5529H8.10928C7.41474 68.5529 6.7414 68.1259 6.23773 67.3573L2.48932 61.67C2.02806 60.9271 1.45016 60.5855 0.792735 60.5855H0.130005V61.7725H0.792735C1.254 61.7725 1.69405 62.0628 2.02276 62.5923L5.72345 68.2027C6.36497 69.1762 7.22917 69.7399 8.11458 69.7399H8.72429V69.1464V68.5529H8.71899Z" stroke="black" stroke-width="0.26" stroke-miterlimit="3.86"/>
<rect class="RELAY-IN-GND" x="0.189575" y="56.8953" width="1.18644" height="0.883884" fill="#000"/>
<rect class="RELAY-IN A" x="0.0706787" y="60.634" width="1.18644" height="1.06185" fill="#000"/>
<rect class="RELAY-IN B" x="0.0706787" y="64.4873" width="1.18644" height="1.06185" fill="#000"/>
</svg>
