<svg width="77" height="85" viewBox="0 0 77 85" fill="none" xmlns="http://www.w3.org/2000/svg">
<path d="M63.826 74.125L75.3259 67.125" stroke="black" stroke-linecap="round"/>
<rect class="RELAY-IN-GND" x="74.925" y="66.6251" width="1" height="1" rx="0.5" fill="transparent"/>
<path d="M63.8262 74.125L75.3259 80.125" stroke="#CFF400" stroke-linecap="round"/>
<path d="M63.8262 74.125L75.3259 74.125" stroke="#FE0000" stroke-linecap="round"/>
<rect class="RELAY-IN A" x="74.8259" y="73.625" width="1" height="1" rx="0.5" fill="transparent"/>
<rect class="RELAY-IN B" x="74.825" y="79.6251" width="1" height="1" rx="0.5" fill="transparent"/>
<path d="M40.0263 58.6564C39.6609 58.6227 39.4472 58.7407 39.2786 59.1002C38.9582 59.7913 38.4016 60.2351 37.6539 60.4205C36.9118 60.6059 36.1642 60.7913 35.4108 60.9262C35.0511 60.988 34.978 61.134 34.978 61.4655C34.9892 64.7522 34.9836 68.0389 34.9836 71.3312C34.9836 72.3931 35.3265 72.865 36.3553 73.1628C36.9905 73.3482 37.6258 73.5224 38.2667 73.6741C38.6827 73.7696 38.8345 73.9943 38.8232 74.4101C38.8064 75.0843 38.8232 75.7641 38.8232 76.4383C38.8232 77.3204 38.1486 77.9889 37.266 77.9889C33.8536 77.9889 30.4469 77.9889 27.0345 77.9889C24.5891 77.9889 22.1436 77.9665 19.6982 78.0058C19.0685 78.017 18.5907 77.8204 18.2253 77.3709C18.0341 77.1293 17.888 76.7922 17.8655 76.4888C17.8149 75.7866 17.8655 75.0786 17.843 74.3707C17.8318 73.9943 17.9948 73.7864 18.349 73.6965C19.0629 73.5111 19.7769 73.3426 20.4796 73.1235C21.3453 72.8538 21.6883 72.3482 21.6883 71.4492C21.6883 69.775 21.6883 68.1007 21.6883 66.4265C21.6883 65.005 21.0305 64.2634 19.6138 64.1342C16.5556 63.8589 13.7054 62.9207 11.0351 61.4262C10.8159 61.3026 10.5573 61.2239 10.3099 61.1621C9.21929 60.9093 8.11744 60.7014 7.03245 60.4261C6.11049 60.1958 5.51459 59.5778 5.24474 58.6732C5.09858 58.1732 5.00863 57.6563 4.87933 57.1563C4.74441 56.6282 4.7163 56.0102 4.42398 55.5888C2.58568 52.9538 1.2983 50.0997 0.584346 46.9535C0.196448 45.2455 0.0896354 43.5375 0.134609 41.824C0.173961 40.3351 0.483155 38.8463 0.752997 37.3743C1.11841 35.3854 1.9954 33.5595 2.83303 31.7448C3.27152 30.7953 4.0417 29.9975 4.63198 29.1154C4.87371 28.7502 5.08734 28.3569 5.23912 27.9468C5.50897 27.2108 5.94746 26.6153 6.67828 26.368C7.30229 26.1546 7.76889 25.7669 8.25236 25.368C8.51096 25.1545 8.77518 24.9354 9.05064 24.7444C11.17 23.2724 13.2894 21.806 15.4088 20.3284C17.264 19.0362 19.1079 17.7327 20.9631 16.4518C21.4578 16.109 21.7445 15.7101 21.6995 15.0753C21.6601 14.5022 21.6883 13.9235 21.6883 13.3505C21.6883 11.1818 21.6883 9.01876 21.6883 6.8501C21.6883 5.69273 21.3228 5.22641 20.1873 4.92864C19.5914 4.77133 19.0067 4.60278 18.4052 4.46232C18.006 4.37243 17.8093 4.17017 17.8374 3.74318C17.8599 3.36114 17.8486 2.97347 17.8374 2.59143C17.8205 1.79925 17.7474 1.01269 18.4614 0.400296C18.6638 0.226129 18.8099 0.125 19.0629 0.125C25.1681 0.125 31.2733 0.125 37.3784 0.125C37.9912 0.125 38.7951 0.883469 38.8007 1.49025C38.812 2.27119 38.8007 3.05775 38.8007 3.83869C38.8007 4.15332 38.6714 4.33872 38.3622 4.41738C37.7382 4.57469 37.1198 4.75447 36.4958 4.9174C35.8606 5.08033 35.2984 5.32754 35.0454 5.99612C34.8543 6.50738 34.6294 7.01303 34.5114 7.54115C34.2415 8.74908 34.0223 9.97387 33.7918 11.193C33.4995 12.7268 33.1228 14.2494 33.2015 15.8337C33.224 16.2551 33.1397 16.6877 33.0666 17.1091C32.7012 19.2216 31.7792 21.0644 30.3288 22.6375C29.8678 23.1375 29.7161 23.7218 29.806 24.3792C29.8397 24.632 29.9184 24.8174 30.2389 24.8736C31.7792 25.1208 33.3196 25.3905 34.8543 25.6658C35.7425 25.8231 36.6251 26.0085 37.5077 26.1939C38.3285 26.3624 38.93 26.84 39.2786 27.5928C39.4191 27.9018 39.6046 28.003 39.9195 27.9693C40.0881 27.9524 40.268 27.9356 40.4254 27.9693C40.6784 28.0311 40.9201 28.1434 41.1731 28.2333C43.8771 28.1041 46.6262 27.9749 49.392 27.8457C49.4314 27.4524 49.5326 27.1546 49.9879 27.1209C50.775 27.0647 51.0561 27.2164 51.3765 27.9299C52.2423 27.9693 53.1136 28.0198 53.9906 28.0535C55.0756 28.0929 55.4129 28.4356 55.4129 29.5199C55.4129 33.3741 55.4129 37.2282 55.4129 41.088C55.4185 46.6051 55.4298 52.1167 55.4523 57.6338C55.4523 58.5609 54.8788 58.9541 54.1368 58.9598C53.3216 58.971 52.5121 59.0216 51.6969 59.0721C51.5564 59.0834 51.3878 59.162 51.2866 59.2688C51.0617 59.4991 50.8762 59.7576 50.7075 59.9598C50.8312 59.9598 51.0729 59.9598 51.3203 59.9598C51.6182 59.9598 51.7588 60.1115 51.7588 60.4037C51.7588 60.5554 51.7588 60.7127 51.7419 60.8644C51.6295 62.6229 51.4496 64.387 51.4215 66.1456C51.4046 67.1962 51.0954 67.8929 50.0891 68.2917C49.5944 68.4884 49.1616 68.7805 48.5825 68.7581C47.3514 68.7131 46.1202 68.7637 44.8947 68.7131C43.9896 68.6738 43.1013 68.7075 42.2356 68.1794C41.4036 67.6681 40.9707 67.1344 40.982 66.1175C41.0045 64.1679 40.9089 62.2184 40.8583 60.2688C40.8527 59.943 40.9932 59.7632 41.3361 59.7744C41.5779 59.78 41.8196 59.7744 42.0557 59.7744C41.0326 59.634 41.0101 59.6115 40.9314 58.6732C40.5997 58.6732 40.2961 58.6957 39.9982 58.6732L40.0263 58.6564ZM38.2442 3.96791C38.5478 3.77127 38.5703 1.63632 38.2442 1.28237V3.96791ZM18.4277 1.32731C18.1578 1.55205 18.1128 3.58587 18.4277 3.95106V1.32731ZM38.396 74.1572C38.351 74.1572 38.3117 74.1572 38.2667 74.1572V76.7248C38.3117 76.7248 38.351 76.7304 38.396 76.736V74.1572ZM18.4389 74.1404C18.1522 74.337 18.1185 76.3989 18.4389 76.8372V74.1404ZM49.8755 27.5367C49.8418 27.5704 49.8081 27.6659 49.8305 27.694C49.8755 27.7558 49.9486 27.8119 50.0217 27.8457C50.0723 27.8681 50.1397 27.8513 50.2016 27.8513C50.4377 27.8513 50.6794 27.8513 50.9212 27.8513C50.8256 27.5591 50.0667 27.3456 49.8755 27.5367Z" fill="#1D1D1B" stroke="#1D1D1B" stroke-width="0.25" stroke-miterlimit="10"/>
<path d="M43.3101 60.0967V66.715H44.3726C44.4119 65.4509 44.4681 64.1868 44.4738 62.9171C44.4738 62.4957 44.2939 62.0799 44.2601 61.6529C44.2208 61.1698 44.2489 60.681 44.2489 60.1472C43.9566 60.1304 43.6586 60.1135 43.3101 60.0911V60.0967Z" fill="#3C3C3B"/>
<path d="M41.2739 60.1554V61.6948H43.0504V60.1554H41.2739Z" fill="#3C3C3B"/>
<path d="M41.3533 62.2119C41.3533 62.9479 41.3533 63.7345 41.3533 64.5267C41.3533 65.111 41.3645 65.6896 41.3758 66.2739C41.3814 66.5155 41.3701 66.7571 41.685 66.8639C42.0841 67.0043 42.4608 67.2965 42.888 66.9931C42.9948 66.92 43.0904 66.7459 43.0848 66.6223C43.0623 65.2121 43.0173 63.8075 42.9779 62.3973C42.9779 62.3692 42.9498 62.3411 42.9667 62.3692C42.3933 62.313 41.8536 62.2625 41.3533 62.2119Z" fill="#3C3C3B"/>
<path d="M43.0052 67.33C42.7691 67.5042 42.3812 67.4592 42.0664 67.5154C42.6511 67.8637 43.2132 68.3413 44.034 68.3244C45.4282 68.302 46.828 68.302 48.2222 68.3862C49.0598 68.4368 49.6726 68.0491 50.2348 67.7177C49.8693 67.5603 49.5039 67.3581 49.1104 67.257C48.7844 67.1727 48.3908 67.0996 48.0816 67.1951C46.8392 67.5997 45.6249 67.5997 44.3938 67.1446C43.9328 66.976 43.4606 66.9873 42.9996 67.3244L43.0052 67.33Z" fill="#3C3C3B"/>
<path d="M44.5298 60.1854V61.7248H48.0715V60.1854H44.5298Z" fill="#3C3C3B"/>
<path d="M48.1222 62.1846C48.0885 62.2127 48.0997 62.3026 48.0997 62.3644C48.0997 63.8195 48.0997 65.2803 48.0997 66.7691H49.1285C49.2072 64.6117 49.2915 62.4486 49.3702 60.2519C48.3077 60.1901 48.3864 59.9597 48.3695 61.0609C48.3695 61.4486 48.4764 61.8643 48.1222 62.1846Z" fill="#3C3C3B"/>
<path d="M49.375 66.7365C49.375 66.8938 49.628 67.2084 49.746 67.2028C50.162 67.1747 50.5668 67.0343 50.9716 66.9275C51.0053 66.9163 51.0278 66.8264 51.0334 66.7702C51.129 65.287 51.2189 63.8094 51.3089 62.3879C50.7355 62.416 50.1901 62.4497 49.5999 62.4778C49.5212 63.8936 49.4256 65.3151 49.375 66.7365Z" fill="#3C3C3B"/>
<path d="M49.6066 60.5109C49.5785 60.9379 49.5954 61.3649 49.5954 61.8424H51.3437C51.3718 61.3649 51.3999 60.8761 51.4336 60.3255C50.894 60.2918 50.3824 60.2468 49.8652 60.2412C49.7752 60.2412 49.6122 60.4098 49.6066 60.5053V60.5109Z" fill="#3C3C3B"/>
<path d="M44.659 66.1778C44.6084 66.852 44.614 66.8632 45.2549 67.0205C46.0194 67.2115 46.7784 67.2059 47.5204 66.9419C47.6329 66.9025 47.7959 66.7565 47.7959 66.6553C47.8128 65.2002 47.8071 63.7451 47.8071 62.2899H44.7545C44.7321 63.3574 44.704 64.4867 44.6815 65.6159C44.6815 65.8014 44.6815 65.9868 44.6646 66.1665L44.659 66.1778Z" fill="#3C3C3B"/>
<path d="M47.8071 62.2949C47.8071 63.7501 47.8128 65.2052 47.7959 66.6603C47.7959 66.7615 47.6329 66.9019 47.5204 66.9469C46.7784 67.2053 46.0194 67.2109 45.2549 67.0255C44.614 66.8682 44.6084 66.857 44.659 66.1828C44.6758 65.9974 44.6702 65.8176 44.6758 65.6322C44.7039 64.5029 44.7264 63.368 44.7489 62.3062H47.8015L47.8071 62.2949Z" stroke="#1D1D1B" stroke-width="0.25" stroke-miterlimit="10"/>
<path d="M19.2766 0.476807C18.9393 0.476807 18.7763 0.577996 18.8662 0.982752H37.8114C37.9126 0.583617 37.7439 0.476807 37.4066 0.476807C31.3633 0.476807 25.32 0.476807 19.2766 0.476807Z" fill="#646363"/>
<path d="M18.8538 1.34851V4.00034H37.8102V1.34851H18.8538Z" fill="#646363"/>
<path d="M18.8538 1.34851H37.8102V4.00034H18.8538V1.34851Z" stroke="#1D1D1B" stroke-width="0.25" stroke-miterlimit="10"/>
<path d="M18.8714 77.1403C18.7533 77.6069 19.0288 77.6293 19.3548 77.6293C21.7946 77.6293 24.2345 77.6293 26.6743 77.6293H28.1359V77.1403H18.8714Z" fill="#646363"/>
<path d="M28.5466 77.1403V77.5956C28.6647 77.6069 28.7827 77.6293 28.9008 77.6293C31.7117 77.6293 34.5169 77.6293 37.3277 77.6293C37.6482 77.6293 37.9349 77.6069 37.8112 77.1403H28.5466Z" fill="#646363"/>
<path d="M18.8538 74.1135V76.7204H37.8214V74.1135H18.8538Z" fill="#646363"/>
<path d="M18.8538 74.1135H37.8214V76.7204H18.8538V74.1135Z" stroke="#1D1D1B" stroke-width="0.25" stroke-miterlimit="10"/>
<path d="M22.0818 7.44543V15.5639C22.8744 14.7043 23.2736 13.7773 23.1274 12.7491C22.8688 10.9681 22.4809 9.20396 22.0818 7.44543Z" fill="#D5D5D5"/>
<path d="M4.74394 40.7292C3.58024 48.1116 7.53793 55.7637 14.239 59.1291C16.7969 60.4157 19.4897 61.0787 22.3511 61.0843C24.1782 61.0843 25.9603 60.8146 27.703 60.2584C30.5139 59.3595 32.9593 57.865 35.0506 55.775C35.2698 55.5559 35.3485 55.348 35.1855 55.0896C34.7301 54.3648 34.9775 53.8254 35.4722 53.1793C37.6197 50.3983 38.7159 47.2127 38.7946 43.7069C38.8846 39.6561 37.6197 36.0435 35.0674 32.8973C34.8257 32.5995 34.8707 32.3523 34.9831 32.0489C35.3373 31.0938 35.3317 31.1051 34.5784 30.4028C31.7563 27.7622 28.4226 26.1385 24.5886 25.6834C19.1805 25.0429 14.3964 26.5542 10.3488 30.2117C7.22873 33.0321 5.39606 36.5773 4.73832 40.7236L4.74394 40.7292Z" fill="#D5D5D5"/>
<path d="M34.5968 61.1387C33.1015 61.105 32.8935 61.9421 33.079 63.0377C33.405 64.9984 33.8267 66.948 34.209 68.9032C34.3214 69.4706 34.4338 70.0324 34.5463 70.5999H34.5968V61.1387Z" fill="#D5D5D5"/>
<path d="M22.0707 67.0055C22.0482 68.2303 22.065 69.4495 22.065 70.6743C22.0875 70.6743 22.1156 70.6743 22.1381 70.6799C22.4192 69.2304 22.734 67.7865 22.9645 66.3257C23.1219 65.3313 22.2955 64.393 21.1262 64.2469C22.0875 65.011 22.0875 65.9999 22.0707 67.0055Z" fill="#D5D5D5"/>
<path d="M12.0471 61.4392C13.0871 62.4898 18.2647 63.8326 21.233 63.8607C24.4711 63.8888 27.5631 63.2764 30.4751 61.8156C24.3137 62.5235 18.1748 62.4336 12.0415 61.4448L12.0471 61.4392Z" fill="#D5D5D5"/>
<path d="M6.16655 56.464C5.88547 56.6494 5.59876 56.8292 5.27832 57.0371C5.60438 59.599 6.21715 60.0372 8.59513 60.38C8.87622 59.9811 9.06174 59.6103 9.34282 59.335C10.1467 58.554 10.0399 57.4584 9.61829 56.7618C9.11233 55.9247 8.10604 55.5089 7.15035 55.8179C6.79056 55.9359 6.49823 56.2449 6.16655 56.464Z" fill="#D5D5D5"/>
<path d="M8.75794 26.2206C6.20006 26.6813 5.70535 26.8611 5.26123 29.541C5.6941 29.8556 6.10449 30.1197 6.47552 30.4343C7.2738 31.1029 8.50496 31.0467 9.27513 30.2938C10.0734 29.5185 10.1577 28.1083 9.46065 27.4285C9.13459 27.1083 8.72421 26.8049 8.75794 26.2206Z" fill="#D5D5D5"/>
<path d="M10.1698 58.589C10.0124 59.1452 9.56266 59.6171 9.2085 60.179C17.9784 62.3589 26.737 62.4375 35.5181 60.1228C35.327 59.8812 35.1302 59.6452 34.9391 59.4092C34.7198 59.1396 34.5062 58.8699 34.2869 58.6058C34.3375 58.5553 34.3938 58.5103 34.4444 58.4598L34.4668 58.353C34.4106 58.3418 34.3488 58.3305 34.2926 58.3193C34.3207 57.8642 34.3432 57.4091 34.3713 56.9372C30.8633 59.9205 26.8157 61.4824 22.1946 61.4487C17.5792 61.415 13.5709 59.7801 10.2035 56.8192C10.2035 57.3867 10.3272 58.0328 10.1698 58.6002V58.589Z" fill="#D5D5D5"/>
<path d="M34.4668 58.3407L34.4443 58.4474C34.8322 58.5317 34.9615 58.9194 35.192 59.1947C35.2258 59.234 35.2595 59.2733 35.2988 59.3014C35.6137 59.5711 35.8273 59.9531 36.1533 60.3801C37.2327 60.1779 38.5819 60.0992 39.0823 58.6328C39.2116 58.2508 39.0879 57.7451 38.9811 57.3238C38.7618 56.4698 37.9579 55.9473 37.0922 55.8012C36.069 55.627 35.4225 56.1383 34.9109 56.8574C34.7029 57.1552 34.7254 57.6103 34.6355 57.998C34.6074 58.1216 34.5568 58.2339 34.5118 58.3519C34.4949 58.3519 34.4837 58.3463 34.4668 58.3407Z" fill="#D5D5D5"/>
<path d="M3.82828 43.7166C3.8058 43.9133 3.81142 44.1155 3.81704 44.3122C3.92385 48.3068 4.42418 52.2508 5.40236 56.133C5.43047 56.2342 5.46982 56.3297 5.54853 56.5657C6.4986 55.442 7.58921 55.0375 8.97215 55.6499C8.39311 54.8858 7.83094 54.2172 7.34747 53.4981C5.40798 50.6384 4.3511 47.4809 4.23867 44.02C4.23867 43.9133 4.24429 43.7953 4.19932 43.7054C4.16559 43.6323 4.0644 43.5593 3.98569 43.5481C3.94072 43.5424 3.83391 43.6492 3.82828 43.7166Z" fill="#D5D5D5"/>
<path d="M3.81787 43.105C4.23388 43.2848 4.20577 42.9926 4.22826 42.7791C4.32945 41.8634 4.36318 40.942 4.52059 40.043C5.08838 36.7788 6.49943 33.9135 8.66941 31.4133C8.7706 31.301 8.85493 31.1774 9.04606 30.9414C7.5788 31.6381 6.49943 31.1549 5.52687 30.0537C4.38566 34.4191 3.8516 38.734 3.81787 43.105Z" fill="#D5D5D5"/>
<path d="M9.04541 26.4962C10.2316 27.4513 10.5858 28.5468 10.0854 29.884C13.5821 26.8389 17.6129 25.2152 22.234 25.1871C26.8381 25.159 30.8858 26.7153 34.4106 29.7379C34.2419 28.5581 34.2195 28.3614 34.4893 28.3614L34.4275 28.103C34.4275 28.103 34.3993 28.103 34.3881 28.103C34.4837 27.3782 35.1808 27.0861 35.563 26.4625C26.7426 24.2488 17.9839 24.232 9.04541 26.4905V26.4962Z" fill="#D5D5D5"/>
<path d="M34.427 28.1039L34.4888 28.3624C34.5394 28.3624 34.5957 28.368 34.6631 28.3792C34.5507 29.1827 34.798 29.8456 35.4558 30.3513C35.6413 30.4973 35.7593 30.7277 35.9224 30.9075C35.973 30.9637 36.0629 31.0142 36.136 31.0255C36.3946 31.0648 36.642 31.0816 36.8668 31.076C37.9574 31.0423 38.6995 30.4805 39.2279 29.3287C39.2729 29.2332 39.4135 29.1827 39.5652 29.0759C39.5652 30.0254 38.7557 31.0311 37.7663 31.2614C37.4796 31.3288 37.176 31.3569 36.8781 31.3682C36.597 31.3794 36.3103 31.3794 36.0292 31.3794C35.7425 31.3794 35.6244 31.4693 35.4895 31.739C35.2309 32.2559 35.2984 32.6154 35.6638 33.0874C37.9518 36.0651 39.1268 39.436 39.1436 43.2059C39.1605 47.1949 37.9125 50.7344 35.4389 53.847C35.259 54.0717 35.2197 54.2571 35.349 54.5155C35.5345 54.8807 35.6919 55.2515 35.883 55.6673C35.9617 55.5774 35.9898 55.51 36.0348 55.5044C37.6145 55.2796 39.2279 55.8078 39.4247 57.7629C39.4697 58.1787 39.6496 58.336 40.0318 58.3304C40.2286 58.3304 40.4254 58.3304 40.6615 58.3304V28.368C40.1274 28.25 39.6327 28.3118 39.1717 28.6939C39.2785 28.0421 38.9637 27.6095 38.6096 27.1994C38.2385 26.7724 37.7494 26.5758 37.2041 26.4746C36.805 26.4016 36.4058 26.2892 36.0067 26.1993C35.928 26.705 34.8205 28.0309 34.427 28.1152V28.1039Z" fill="#D5D5D5"/>
<path d="M19.7422 73.7747H20.265C22.6036 73.7747 24.9423 73.7803 27.2753 73.7634C27.5564 73.7634 27.8318 73.6342 28.1129 73.578C28.2535 73.55 28.3996 73.5331 28.5346 73.5556C28.8719 73.6118 29.2092 73.7578 29.5465 73.7634C32.0031 73.7803 34.4655 73.7747 36.9446 73.7129C36.7198 73.6455 36.4949 73.5612 36.2644 73.5106C35.1738 73.2803 34.5554 72.5836 34.3474 71.5274C33.7909 68.7182 33.2343 65.9091 32.7227 63.0887C32.6272 62.5662 32.7621 62.01 32.7958 61.392C32.4473 61.4875 31.9975 61.5661 31.5928 61.7347C30.6315 62.1336 29.6982 62.6168 28.7257 62.9819C26.7412 63.7348 24.6668 64.0944 22.553 64.1955C22.5081 64.1955 22.4687 64.2123 22.3169 64.2348C23.4019 65.0776 23.43 66.1338 23.1771 67.2799C22.8791 68.6283 22.6093 69.9823 22.3732 71.3364C22.1652 72.5499 21.513 73.3027 20.2931 73.5443C20.102 73.5837 19.9165 73.6455 19.7366 73.7747H19.7422Z" fill="#D5D5D5"/>
<path d="M0.488489 42.0265C0.364811 46.6335 1.71964 50.8416 4.3225 54.6508C2.92831 46.2402 3.06886 37.8689 4.83407 29.5258C2.0457 33.2282 0.612167 37.4251 0.488489 42.0265Z" fill="#D5D5D5"/>
<path d="M8.71806 25.4483C8.54941 25.5663 8.39762 25.718 8.25708 25.8809C15.2842 24.3583 22.3563 23.9819 29.5409 24.746C29.3048 23.7347 29.5521 22.9594 30.1874 22.2459C31.9582 20.2738 32.9083 17.9479 32.8858 15.2904C32.8746 13.7622 33.2737 12.3183 33.5267 10.8407C33.7572 9.4811 34.0832 8.13833 34.3137 6.7787C34.5217 5.54829 35.1851 4.78421 36.4219 4.54262C36.5793 4.51453 36.7367 4.45834 36.8828 4.34036H35.7529C33.5998 4.34036 31.4466 4.29541 29.2935 4.36283C28.6751 4.37969 28.0736 4.40216 27.4496 4.37969C24.9929 4.2898 22.5306 4.34036 20.0739 4.34036C19.9896 4.34036 19.9053 4.3516 19.8097 4.4134C20.0571 4.48082 20.2988 4.55386 20.5461 4.61566C21.4512 4.83477 22.0696 5.3966 22.2664 6.28429C22.7049 8.30126 23.1209 10.3295 23.4526 12.3689C23.7393 14.1162 23.0028 15.4702 21.5637 16.4703C18.1344 18.858 14.7108 21.2514 11.2872 23.6392C10.4327 24.2347 9.57818 24.8359 8.72368 25.4371L8.71806 25.4483Z" fill="#D5D5D5"/>
<path d="M52.1697 31.1088C52.1641 31.0526 52.2428 30.9347 52.2709 30.9403C52.6025 30.9852 52.6531 30.7099 52.7937 30.5245C53.0186 30.2268 53.4177 30.2211 53.592 30.5638C53.8618 31.1088 54.1317 31.6707 54.261 32.2606C54.4802 33.2438 54.5926 34.2551 54.7557 35.2495C54.7838 35.4124 54.8681 35.5641 54.9243 35.7271C54.9749 35.7158 55.0199 35.699 55.0705 35.6877C55.0817 35.5417 55.093 35.4012 55.093 35.2551C55.093 33.3337 55.093 31.4122 55.093 29.4964C55.093 28.6592 54.8737 28.457 54.0305 28.4233C52.7712 28.3727 51.5119 28.3221 50.2583 28.2266C49.7692 28.1873 49.6736 28.4177 49.6624 28.7997C49.6455 29.3054 49.6287 29.811 49.6287 30.3223C49.6287 34.3955 49.6287 38.4632 49.6287 42.5364C49.6287 47.1153 49.6287 51.6886 49.6287 56.2675C49.6287 56.9136 49.6287 57.5598 49.668 58.2002C49.6961 58.6272 49.8029 59.0542 49.8816 59.4924C50.1459 59.4924 50.4213 59.5205 50.6855 59.4756C50.7867 59.4587 50.8935 59.2958 50.9385 59.1722C51.0678 58.8351 51.1578 58.6609 51.6469 58.6946C52.6025 58.7564 53.5751 58.6328 54.5364 58.5317C54.7219 58.5092 54.9074 58.2452 55.0311 58.0542C55.1098 57.9249 55.093 57.7283 55.093 57.5598C55.093 52.4583 55.093 47.3569 55.093 42.2555V42.0252C55.093 42.0252 55.048 42.0139 55.0255 42.0083C54.9805 42.16 54.9131 42.3005 54.8906 42.4578C54.8287 42.8792 54.7838 43.2837 54.469 43.632C54.2722 43.8511 54.1035 44.1376 53.8225 43.9972C53.5863 43.8792 53.3109 43.5983 53.2772 43.3567C53.0804 41.778 52.9398 40.188 52.7824 38.6036C52.7824 38.5755 52.76 38.5531 52.7318 38.5025C52.552 38.4856 52.3552 38.4744 52.1528 38.4576C52.0572 37.8789 52.5576 38.2216 52.7318 38.0418C52.8836 37.4912 52.4114 37.7047 52.1865 37.626C52.1641 37.4126 52.3252 37.2833 52.67 37.2384C52.6194 35.3113 52.5688 33.3898 52.5126 31.4122C52.462 31.3954 52.3552 31.3841 52.2765 31.3279C52.2146 31.2886 52.1641 31.1987 52.1584 31.1201L52.1697 31.1088Z" fill="#575756"/>
<path d="M41.0981 29.7056C41.0981 38.8915 41.0924 48.0774 41.1093 57.2634C41.1093 57.8757 41.2611 58.4938 41.3848 59.1005C41.4073 59.2017 41.6321 59.314 41.7727 59.3196C42.5991 59.3702 43.4311 59.3983 44.2575 59.4208C45.8259 59.4601 47.3888 59.4882 48.9572 59.5163C49.0472 59.5163 49.1371 59.5051 49.317 59.4882V28.2392C49.0528 28.2392 48.738 28.228 48.4175 28.2392C46.2251 28.3291 44.027 28.4303 41.8345 28.5202C41.3848 28.537 41.1599 28.7674 41.1206 29.1944C41.1037 29.3629 41.0981 29.5315 41.0981 29.7V29.7056Z" fill="#464646"/>
<path d="M49.3129 59.487C49.1386 59.5038 49.0486 59.5151 48.9531 59.5151C47.3846 59.487 45.8218 59.4589 44.2533 59.4196C43.4269 59.3971 42.5949 59.369 41.7685 59.3184C41.628 59.3072 41.4031 59.1948 41.3806 59.0993C41.2569 58.4925 41.1052 57.8745 41.1052 57.2621C41.0883 48.0762 41.0939 38.8903 41.0939 29.7044C41.0939 29.5359 41.0939 29.3673 41.1164 29.1988C41.1558 28.7718 41.3806 28.5414 41.8304 28.5246C44.0228 28.4347 46.2153 28.3335 48.4134 28.2436C48.7338 28.2324 49.0486 28.2436 49.3129 28.2436V59.4926V59.487Z" stroke="#1D1D1B" stroke-width="0.25" stroke-miterlimit="10"/>
<path d="M38.4066 28.6723C38.4179 29.4757 37.7939 30.1162 36.9956 30.1274C36.2142 30.1331 35.5452 29.4757 35.5396 28.7004C35.5396 27.9363 36.1692 27.2958 36.9394 27.2846C37.7601 27.2733 38.3954 27.8689 38.4066 28.6723Z" fill="#575756"/>
<path d="M36.9521 27.6203C36.4011 27.6371 35.9064 28.1653 35.9177 28.7215C35.9289 29.2777 36.4349 29.7777 36.9914 29.7721C37.548 29.7665 38.0483 29.2608 38.0483 28.7046C38.0483 28.1203 37.5199 27.6034 36.9521 27.6203Z" fill="#1D1D1B"/>
<path d="M36.9788 59.3573C36.1974 59.3573 35.5284 58.6831 35.5397 57.919C35.5509 57.1437 36.1749 56.5257 36.9564 56.5144C37.7715 56.5032 38.4011 57.1156 38.4068 57.919C38.4068 58.7168 37.7771 59.3573 36.9788 59.3573Z" fill="#404041"/>
<path d="M37.0074 56.8537C36.4396 56.8313 35.9111 57.3538 35.9111 57.9381C35.9111 58.4943 36.4227 58.9999 36.9736 58.9999C37.5302 58.9999 38.0361 58.4999 38.0474 57.9437C38.053 57.3875 37.5639 56.8762 37.0017 56.8537H37.0074Z" fill="#1D1D1B"/>
<path d="M9.15251 57.9428C9.14689 58.7182 8.51726 59.353 7.74708 59.353C6.96004 59.353 6.29106 58.7069 6.28544 57.9316C6.27981 57.1507 6.93193 56.5045 7.73022 56.5102C8.53412 56.5102 9.15813 57.1394 9.15251 57.9428Z" fill="#404041"/>
<path d="M7.67909 56.8542C7.13378 56.8823 6.64469 57.4104 6.66156 57.9554C6.6728 58.506 7.18438 59.006 7.72968 59.006C8.29748 59.006 8.80343 58.4723 8.79219 57.9049C8.77532 57.3318 8.23564 56.8205 7.67909 56.8542Z" fill="#1D1D1B"/>
<path d="M22.0252 58.2519C30.374 58.2519 37.142 51.488 37.142 43.1443C37.142 34.8006 30.374 28.0367 22.0252 28.0367C13.6765 28.0367 6.90845 34.8006 6.90845 43.1443C6.90845 51.488 13.6765 58.2519 22.0252 58.2519Z" fill="#878787" stroke="#1D1D1B" stroke-width="0.25" stroke-miterlimit="10"/>
<path d="M6.28969 28.689C6.27845 29.4644 6.94181 30.1273 7.72885 30.1273C8.51589 30.1273 9.15677 29.4812 9.15677 28.689C9.15677 27.8856 8.52713 27.2788 7.71198 27.2845C6.93057 27.2957 6.30094 27.9193 6.29531 28.689H6.28969ZM7.69512 29.7846C7.15544 29.7621 6.64948 29.234 6.6551 28.6947C6.66072 28.1216 7.20041 27.5991 7.75696 27.6216C8.30226 27.644 8.8026 28.1665 8.79698 28.7115C8.79135 29.279 8.24605 29.8071 7.69512 29.7846Z" fill="#404041"/>
<path d="M6.66138 28.6937C6.66138 29.233 7.15609 29.7611 7.70139 29.7836C8.25232 29.8061 8.79201 29.278 8.80325 28.7105C8.80887 28.1655 8.31416 27.643 7.76323 27.6206C7.20668 27.5981 6.667 28.1206 6.66138 28.6937Z" fill="#1D1D1B"/>
<path d="M22.2566 39.1002C24.6627 39.1002 26.5853 40.988 26.5909 43.3589C26.5909 45.7298 24.629 47.6962 22.2903 47.6794C19.9292 47.6569 18.0122 45.741 18.0122 43.3926C18.0122 41.0104 19.9011 39.1058 22.2622 39.1002H22.2566Z" fill="#1D1D1B"/>
<path d="M24.9494 40.4867C23.3022 38.9922 20.9017 39.1271 19.3052 40.8463C21.3908 42.4081 23.4596 43.9532 25.5228 45.4982C26.664 44.2172 26.3773 41.7789 24.9494 40.4867Z" fill="#DADADA"/>
<path d="M16.4714 43.375C16.4602 40.0321 19.0237 37.5881 22.3012 37.5544C25.365 37.5207 28.0634 40.0939 28.0634 42.9367C28.0634 46.6055 25.6967 49.173 22.3012 49.1787C19.5128 49.2348 16.4827 47.1055 16.4658 43.375H16.4714ZM16.8256 43.4761C16.9156 46.6841 19.524 48.8472 22.3349 48.8303C25.112 48.8078 27.5968 46.656 27.7374 43.7064C27.906 40.1332 25.0558 37.914 22.2787 37.9196C19.2711 37.9252 16.7413 40.4366 16.8256 43.4761Z" fill="#C6C6C6"/>
<path d="M19.0804 41.1837C17.8717 42.8074 18.2371 45.1446 19.8674 46.4537C21.5202 47.7796 23.8701 47.5436 25.3205 45.8581C23.246 44.3075 21.1716 42.7568 19.0804 41.1893V41.1837Z" fill="#DADADA"/>
<path d="M54.2722 45.6262L55.0986 42.0136V35.4683L53.7381 29.7714H51.54L52.1247 45.4633L54.2722 45.6262Z" fill="#575756"/>
<path d="M56.1555 72.6624H65.5888V75.6513H59.1463" fill="#EBEBEB"/>
<path d="M56.1555 72.6624H65.5888V75.6513H59.1463" stroke="black" stroke-width="0.25"/>
<path d="M57.8404 75.6533H50.6165C47.3166 75.6533 44.635 72.979 44.635 69.681V68.7596H47.6258V69.681C47.6258 71.3328 48.9637 72.67 50.6165 72.67H54.8497" fill="#EBEBEB"/>
<path d="M57.8292 75.6533H50.6165C47.3166 75.6533 44.635 72.979 44.635 69.681V68.7596H47.6258V69.681C47.6258 71.3328 48.9637 72.67 50.6165 72.67H54.8497" stroke="black" stroke-width="0.26" stroke-miterlimit="3.86"/>
<path d="M61.3169 79.1248L51.5295 69.3434M62.6156 79.1248L52.8282 69.3434" stroke="black" stroke-width="0.13" stroke-linecap="round" stroke-linejoin="round"/>
<path d="M75.0854 62.1251V65.849H74.6479L72.6135 62.9251H72.5771V65.849H72.125V62.1251H72.5625L74.6042 65.0562H74.6406V62.1251H75.0854Z" fill="black"/>
<path d="M71.125 82.2091C71.125 81.06 72.076 80.1251 73.2368 80.1251C74.3976 80.1251 75.3351 81.0643 75.3351 82.2135C75.3351 83.3802 74.3886 84.3114 73.201 84.2975C72.0358 84.2887 71.1206 83.3356 71.125 82.2091ZM71.3661 82.2047C71.3661 83.22 72.1965 84.0576 73.2189 84.062C74.2547 84.062 75.094 83.2376 75.0985 82.2091C75.0985 81.2114 74.2636 80.3702 73.2636 80.3658C72.2099 80.3658 71.3661 81.1763 71.3616 82.2047H71.3661Z" fill="black"/>
<path d="M73.1071 82.3474C73.1071 82.3071 73.1071 82.2757 73.1071 82.2406C73.1071 81.7636 73.1071 81.2831 73.1071 80.8061C73.1071 80.7754 73.0982 80.7396 73.1071 80.7176C73.1339 80.6774 73.1696 80.6284 73.2143 80.6152C73.2768 80.5969 73.3214 80.6416 73.3393 80.7037C73.3482 80.7308 73.3393 80.7622 73.3393 80.793C73.3393 81.2743 73.3393 81.7549 73.3393 82.2362C73.3393 82.2669 73.3393 82.3027 73.3393 82.343C73.3795 82.343 73.4107 82.3474 73.442 82.3474C73.7456 82.3474 74.0492 82.3474 74.3528 82.3474C74.384 82.3474 74.4287 82.3386 74.451 82.3561C74.4867 82.3832 74.5358 82.4271 74.5358 82.4629C74.5358 82.5032 74.4912 82.5478 74.4554 82.5741C74.4331 82.5924 74.3929 82.5836 74.3572 82.5836C73.6161 82.5836 72.875 82.5836 72.1383 82.5836C72.1115 82.5836 72.0847 82.5836 72.058 82.5836C71.9955 82.5697 71.9463 82.5251 71.9597 82.4629C71.9687 82.4183 72.0178 82.3832 72.058 82.3518C72.0803 82.3386 72.116 82.3474 72.1472 82.343C72.4285 82.343 72.7098 82.343 72.9955 82.343C73.0268 82.343 73.058 82.343 73.1027 82.3386L73.1071 82.3474Z" fill="black"/>
<path d="M73.2322 83.0467C73.0402 83.0467 72.8483 83.0467 72.6608 83.0467C72.5581 83.0467 72.4911 82.9794 72.5179 82.8953C72.5402 82.8236 72.5938 82.8016 72.6652 82.8016C72.8081 82.8016 72.9509 82.8016 73.0938 82.8016C73.317 82.8016 73.5358 82.8016 73.759 82.8016C73.7814 82.8016 73.8081 82.8016 73.8305 82.8016C73.9108 82.8104 73.9599 82.8638 73.9555 82.9304C73.951 83.0065 73.8974 83.0423 73.826 83.0467C73.7189 83.0467 73.6072 83.0467 73.5001 83.0467C73.4108 83.0467 73.326 83.0467 73.2367 83.0467H73.2322Z" fill="black"/>
<path d="M73.2233 83.4915C73.1741 83.4915 73.125 83.4915 73.0759 83.4915C73.009 83.4915 72.9688 83.452 72.9599 83.3847C72.9509 83.3182 72.9866 83.2648 73.0536 83.2604C73.1697 83.2516 73.2858 83.2516 73.3974 83.2604C73.4643 83.2648 73.5045 83.3182 73.4956 83.3891C73.4867 83.4564 73.4465 83.4915 73.3795 83.4915C73.3259 83.4915 73.2768 83.4915 73.2233 83.4915Z" fill="black"/>
</svg>
