<svg width="71" height="75" viewBox="0 0 71 75" fill="none" xmlns="http://www.w3.org/2000/svg">
<path d="M37.5779 55.0649C37.2349 55.0332 37.0344 55.144 36.8761 55.4815C36.5753 56.1301 36.0529 56.5468 35.3511 56.7208C34.6546 56.8948 33.9528 57.0688 33.2457 57.1954C32.908 57.2534 32.8394 57.3905 32.8394 57.7017C32.8499 60.7867 32.8447 63.8717 32.8447 66.962C32.8447 67.9587 33.1665 68.4017 34.1322 68.6812C34.7285 68.8552 35.3247 69.0187 35.9263 69.1611C36.3168 69.2507 36.4592 69.4617 36.4487 69.8519C36.4329 70.4848 36.4487 71.1229 36.4487 71.7557C36.4487 72.5836 35.8155 73.2112 34.987 73.2112C31.784 73.2112 28.5863 73.2112 25.3833 73.2112C23.0879 73.2112 20.7925 73.1901 18.4972 73.227C17.9062 73.2375 17.4576 73.053 17.1146 72.6311C16.9352 72.4043 16.798 72.0879 16.7769 71.8031C16.7294 71.1439 16.7769 70.4795 16.7558 69.815C16.7453 69.4617 16.8983 69.2666 17.2307 69.1822C17.9009 69.0082 18.571 68.8499 19.2306 68.6443C20.0432 68.3911 20.3651 67.9165 20.3651 67.0728C20.3651 65.5012 20.3651 63.9297 20.3651 62.3582C20.3651 61.024 19.7477 60.3279 18.418 60.2066C15.5474 59.9482 12.8721 59.0675 10.3657 57.6647C10.1599 57.5487 9.91714 57.4749 9.68496 57.4169C8.66127 57.1796 7.62702 56.9845 6.60861 56.726C5.74322 56.5098 5.18388 55.9297 4.9306 55.0807C4.7934 54.6114 4.70897 54.1262 4.58761 53.6568C4.46096 53.1611 4.43458 52.581 4.16019 52.1855C2.43469 49.7122 1.22631 47.0333 0.55616 44.0801C0.192064 42.4769 0.0918054 40.8737 0.13402 39.2653C0.170957 37.8678 0.461179 36.4703 0.714463 35.0887C1.05745 33.2218 1.88063 31.5079 2.66687 29.8046C3.07845 28.9133 3.80137 28.1645 4.35543 27.3365C4.58233 26.9938 4.78285 26.6246 4.92532 26.2396C5.1786 25.5488 5.59019 24.9898 6.27617 24.7578C6.86189 24.5574 7.29986 24.1935 7.75366 23.8191C7.99639 23.6187 8.2444 23.413 8.50296 23.2337C10.4923 21.852 12.4816 20.4756 14.471 19.0887C16.2123 17.8758 17.9431 16.6523 19.6844 15.4499C20.1488 15.1283 20.4179 14.7538 20.3757 14.1579C20.3387 13.62 20.3651 13.0768 20.3651 12.5389C20.3651 10.5034 20.3651 8.47304 20.3651 6.43744C20.3651 5.35109 20.0221 4.91339 18.9562 4.63389C18.3969 4.48623 17.8481 4.32802 17.2835 4.19618C16.9088 4.11181 16.7242 3.92196 16.7505 3.52117C16.7716 3.16257 16.7611 2.79869 16.7505 2.44009C16.7347 1.69652 16.6661 0.958221 17.3363 0.383404C17.5262 0.219924 17.6634 0.125 17.9009 0.125C23.6314 0.125 29.362 0.125 35.0926 0.125C35.6677 0.125 36.4223 0.83693 36.4276 1.40647C36.4381 2.1395 36.4276 2.8778 36.4276 3.61082C36.4276 3.90614 36.3062 4.08017 36.016 4.154C35.4303 4.30165 34.8498 4.47041 34.2641 4.62334C33.6678 4.77627 33.1402 5.00831 32.9027 5.63586C32.7233 6.11576 32.5122 6.59038 32.4014 7.08609C32.1481 8.2199 31.9423 9.36954 31.726 10.5139C31.4516 11.9536 31.0981 13.3827 31.1719 14.8699C31.193 15.2654 31.1139 15.6714 31.0453 16.067C30.7023 18.0498 29.8369 19.7795 28.4755 21.2561C28.0428 21.7255 27.9003 22.2739 27.9848 22.8909C28.0164 23.1282 28.0903 23.3023 28.3911 23.355C29.8369 23.587 31.2827 23.8402 32.7233 24.0986C33.557 24.2462 34.3855 24.4203 35.2139 24.5943C35.9843 24.7525 36.549 25.2007 36.8761 25.9074C37.008 26.1974 37.1822 26.2924 37.4777 26.2607C37.636 26.2449 37.8048 26.2291 37.9526 26.2607C38.19 26.3187 38.4169 26.4242 38.6544 26.5086C41.1925 26.3873 43.7728 26.266 46.369 26.1447C46.4059 25.7756 46.5009 25.4961 46.9283 25.4644C47.6671 25.4117 47.9309 25.5541 48.2317 26.2238C49.0443 26.2607 49.8622 26.3082 50.6854 26.3398C51.7038 26.3767 52.0204 26.6984 52.0204 27.7162C52.0204 31.3339 52.0204 34.9515 52.0204 38.5745C52.0257 43.7531 52.0362 48.9265 52.0574 54.1051C52.0574 54.9752 51.5191 55.3444 50.8226 55.3497C50.0575 55.3602 49.2976 55.4077 48.5325 55.4551C48.4006 55.4657 48.2423 55.5395 48.1473 55.6397C47.9362 55.8559 47.7621 56.0985 47.6038 56.2883C47.7199 56.2883 47.9468 56.2883 48.1789 56.2883C48.4586 56.2883 48.5905 56.4307 48.5905 56.705C48.5905 56.8473 48.5905 56.995 48.5747 57.1374C48.4692 58.788 48.3003 60.4439 48.2739 62.0945C48.2581 63.0807 47.9679 63.7346 47.0233 64.109C46.559 64.2936 46.1527 64.5678 45.6091 64.5467C44.4535 64.5045 43.2979 64.552 42.1476 64.5045C41.298 64.4676 40.4643 64.4993 39.6517 64.0036C38.8707 63.5237 38.4644 63.0227 38.475 62.0682C38.4961 60.2382 38.4064 58.4083 38.3589 56.5784C38.3536 56.2725 38.4855 56.1038 38.8074 56.1143C39.0343 56.1196 39.2612 56.1143 39.4828 56.1143C38.5225 55.9825 38.5014 55.9614 38.4275 55.0807C38.1161 55.0807 37.8312 55.1018 37.5515 55.0807L37.5779 55.0649ZM35.9052 3.73211C36.1901 3.54754 36.2112 1.54359 35.9052 1.21135V3.73211ZM17.3046 1.25354C17.0513 1.46448 17.0091 3.37351 17.3046 3.71629V1.25354ZM36.0477 69.6146C36.0054 69.6146 35.9685 69.6146 35.9263 69.6146V72.0246C35.9685 72.0246 36.0054 72.0299 36.0477 72.0352V69.6146ZM17.3152 69.5988C17.046 69.7834 17.0144 71.7188 17.3152 72.1301V69.5988ZM46.8228 25.8547C46.7911 25.8863 46.7595 25.976 46.7806 26.0023C46.8228 26.0603 46.8914 26.1131 46.96 26.1447C47.0075 26.1658 47.0708 26.15 47.1289 26.15C47.3505 26.15 47.5774 26.15 47.8043 26.15C47.7146 25.8758 47.0022 25.6754 46.8228 25.8547Z" fill="#1D1D1B" stroke="#1D1D1B" stroke-width="0.25" stroke-miterlimit="10"/>
<path d="M40.6602 56.4167V62.6289H41.6575C41.6944 61.4423 41.7472 60.2558 41.7524 59.064C41.7524 58.6685 41.5836 58.2782 41.5519 57.8774C41.515 57.4239 41.5414 56.9651 41.5414 56.4641C41.267 56.4483 40.9873 56.4325 40.6602 56.4114V56.4167Z" fill="#3C3C3B"/>
<path d="M38.7491 56.4719V57.9169H40.4166V56.4719H38.7491Z" fill="#3C3C3B"/>
<path d="M38.8237 58.4021C38.8237 59.0929 38.8237 59.8312 38.8237 60.5748C38.8237 61.1233 38.8343 61.6664 38.8448 62.2149C38.8501 62.4416 38.8396 62.6684 39.1351 62.7686C39.5097 62.9004 39.8633 63.1747 40.2643 62.8899C40.3645 62.8213 40.4543 62.6579 40.449 62.5418C40.4279 61.2182 40.3857 59.8998 40.3487 58.5761C40.3487 58.5498 40.3223 58.5234 40.3382 58.5498C39.7999 58.497 39.2934 58.4496 38.8237 58.4021Z" fill="#3C3C3B"/>
<path d="M40.3741 63.2062C40.1525 63.3697 39.7884 63.3275 39.4929 63.3803C40.0417 63.7072 40.5694 64.1555 41.3398 64.1397C42.6484 64.1186 43.9623 64.1186 45.271 64.1977C46.0572 64.2451 46.6324 63.8812 47.1601 63.5701C46.8171 63.4225 46.4741 63.2326 46.1047 63.1377C45.7987 63.0586 45.4293 62.99 45.1391 63.0797C43.9729 63.4594 42.8331 63.4594 41.6775 63.0322C41.2448 62.874 40.8016 62.8845 40.3689 63.201L40.3741 63.2062Z" fill="#3C3C3B"/>
<path d="M41.8053 56.5V57.945H45.1297V56.5H41.8053Z" fill="#3C3C3B"/>
<path d="M45.1773 58.3765C45.1457 58.4028 45.1562 58.4872 45.1562 58.5452C45.1562 59.9111 45.1562 61.2822 45.1562 62.6797H46.1219C46.1958 60.6547 46.2749 58.6243 46.3488 56.5624C45.3515 56.5044 45.4253 56.2882 45.4095 57.3218C45.4095 57.6856 45.5098 58.0759 45.1773 58.3765Z" fill="#3C3C3B"/>
<path d="M46.3533 62.6494C46.3533 62.797 46.5907 63.0923 46.7015 63.0871C47.092 63.0607 47.4719 62.9289 47.8519 62.8287C47.8835 62.8181 47.9046 62.7337 47.9099 62.681C47.9996 61.2888 48.0841 59.9018 48.1685 58.5676C47.6302 58.594 47.1184 58.6256 46.5643 58.652C46.4905 59.9809 46.4008 61.3151 46.3533 62.6494Z" fill="#3C3C3B"/>
<path d="M46.5706 56.8056C46.5442 57.2064 46.56 57.6072 46.56 58.0555H48.2011C48.2275 57.6072 48.2538 57.1484 48.2855 56.6316C47.7789 56.5999 47.2988 56.5578 46.8133 56.5525C46.7289 56.5525 46.5758 56.7107 46.5706 56.8003V56.8056Z" fill="#3C3C3B"/>
<path d="M41.9264 62.1249C41.8789 62.7577 41.8841 62.7683 42.4857 62.9159C43.2033 63.0952 43.9157 63.0899 44.6122 62.8421C44.7178 62.8052 44.8708 62.6681 44.8708 62.5731C44.8866 61.2073 44.8813 59.8414 44.8813 58.4756H42.0161C41.995 59.4776 41.9686 60.5375 41.9475 61.5975C41.9475 61.7716 41.9475 61.9456 41.9316 62.1143L41.9264 62.1249Z" fill="#3C3C3B"/>
<path d="M44.8813 58.4805C44.8813 59.8463 44.8866 61.2122 44.8708 62.578C44.8708 62.6729 44.7178 62.8048 44.6122 62.847C43.9157 63.0896 43.2033 63.0948 42.4857 62.9208C41.8841 62.7731 41.8789 62.7626 41.9264 62.1298C41.9422 61.9557 41.9369 61.787 41.9422 61.613C41.9686 60.553 41.9897 59.4877 42.0108 58.491H44.8761L44.8813 58.4805Z" stroke="#1D1D1B" stroke-width="0.25" stroke-miterlimit="10"/>
<path d="M18.1014 0.455322C17.7848 0.455322 17.6318 0.550302 17.7162 0.930223H35.4989C35.5938 0.555579 35.4355 0.455322 35.1189 0.455322C29.4464 0.455322 23.7739 0.455322 18.1014 0.455322Z" fill="#646363"/>
<path d="M17.7047 1.27344V3.76255H35.4979V1.27344H17.7047Z" fill="#646363"/>
<path d="M17.7047 1.27344H35.4979V3.76255H17.7047V1.27344Z" stroke="#1D1D1B" stroke-width="0.25" stroke-miterlimit="10"/>
<path d="M17.721 72.4146C17.6102 72.8525 17.8687 72.8736 18.1748 72.8736C20.4649 72.8736 22.755 72.8736 25.0451 72.8736H26.4171V72.4146H17.721Z" fill="#646363"/>
<path d="M26.8027 72.4146V72.842C26.9135 72.8525 27.0244 72.8736 27.1352 72.8736C29.7736 72.8736 32.4067 72.8736 35.045 72.8736C35.3458 72.8736 35.6149 72.8525 35.4988 72.4146H26.8027Z" fill="#646363"/>
<path d="M17.7047 69.5737V72.0207H35.5085V69.5737H17.7047Z" fill="#646363"/>
<path d="M17.7047 69.5737H35.5085V72.0207H17.7047V69.5737Z" stroke="#1D1D1B" stroke-width="0.25" stroke-miterlimit="10"/>
<path d="M20.7347 6.99609V14.6164C21.4788 13.8095 21.8534 12.9394 21.7162 11.9743C21.4735 10.3026 21.1094 8.64672 20.7347 6.99609Z" fill="#D5D5D5"/>
<path d="M4.46043 38.2378C3.36814 45.1672 7.08298 52.3498 13.3729 55.5086C15.7738 56.7163 18.3014 57.3386 20.9872 57.3438C22.7022 57.3438 24.3749 57.0907 26.0107 56.5686C28.6491 55.7249 30.9445 54.3221 32.9075 52.3603C33.1132 52.1547 33.1871 51.9595 33.0341 51.717C32.6067 51.0367 32.8389 50.5304 33.3032 49.924C35.3189 47.3135 36.3479 44.3234 36.4218 41.0327C36.5062 37.2305 35.3189 33.8396 32.9233 30.8864C32.6964 30.6069 32.7386 30.3749 32.8441 30.0901C33.1766 29.1936 33.1713 29.2042 32.4642 28.545C29.8153 26.0664 26.6861 24.5423 23.0874 24.1152C18.0112 23.514 13.5206 24.9326 9.72136 28.3657C6.79276 31.013 5.07253 34.3406 4.45515 38.2325L4.46043 38.2378Z" fill="#D5D5D5"/>
<path d="M32.4817 57.3947C31.078 57.3631 30.8828 58.1488 31.0569 59.1772C31.363 61.0177 31.7587 62.8476 32.1176 64.6828C32.2231 65.2154 32.3286 65.7428 32.4342 66.2754H32.4817V57.3947Z" fill="#D5D5D5"/>
<path d="M20.7241 62.9018C20.703 64.0514 20.7189 65.1958 20.7189 66.3454C20.74 66.3454 20.7664 66.3454 20.7875 66.3507C21.0513 64.9901 21.3468 63.6348 21.5631 62.2637C21.7109 61.3303 20.9352 60.4496 19.8376 60.3125C20.74 61.0297 20.74 61.9578 20.7241 62.9018Z" fill="#D5D5D5"/>
<path d="M11.3155 57.677C12.2917 58.6632 17.1516 59.9235 19.9377 59.9499C22.9771 59.9763 25.8793 59.4015 28.6127 58.0303C22.8294 58.6948 17.0671 58.6104 11.3102 57.6823L11.3155 57.677Z" fill="#D5D5D5"/>
<path d="M5.79577 53.0071C5.53193 53.1811 5.26281 53.3499 4.96204 53.545C5.26809 55.9497 5.84326 56.3611 8.07533 56.6828C8.33917 56.3083 8.5133 55.9603 8.77714 55.7019C9.53172 54.9689 9.43146 53.9405 9.0357 53.2866C8.56079 52.5008 7.61625 52.1106 6.7192 52.4006C6.38149 52.5114 6.10709 52.8014 5.79577 53.0071Z" fill="#D5D5D5"/>
<path d="M8.22807 24.6194C5.82714 25.0518 5.36279 25.2206 4.94592 27.7361C5.35223 28.0314 5.73744 28.2792 6.0857 28.5746C6.835 29.2021 7.99062 29.1494 8.71353 28.4427C9.46283 27.715 9.54198 26.3913 8.88767 25.7532C8.58161 25.4526 8.19641 25.1678 8.22807 24.6194Z" fill="#D5D5D5"/>
<path d="M9.55357 55.0015C9.40582 55.5236 8.98368 55.9666 8.65125 56.4939C16.883 58.5401 25.1042 58.6139 33.3465 56.4412C33.1671 56.2144 32.9824 55.9929 32.803 55.7714C32.5972 55.5183 32.3967 55.2652 32.1909 55.0173C32.2384 54.9699 32.2911 54.9277 32.3386 54.8802L32.3597 54.78C32.307 54.7695 32.2489 54.7589 32.1962 54.7484C32.2225 54.3212 32.2436 53.8941 32.27 53.4511C28.9773 56.2513 25.1781 57.7174 20.8406 57.6857C16.5083 57.6541 12.746 56.1195 9.58523 53.3403C9.58523 53.873 9.70132 54.4794 9.55357 55.012V55.0015Z" fill="#D5D5D5"/>
<path d="M32.3595 54.7686L32.3384 54.8688C32.7025 54.9479 32.8238 55.3117 33.0402 55.5702C33.0719 55.6071 33.1035 55.644 33.1404 55.6703C33.4359 55.9235 33.6365 56.2821 33.9425 56.6829C34.9557 56.493 36.2221 56.4192 36.6917 55.0428C36.8131 54.6842 36.697 54.2096 36.5967 53.8141C36.3909 53.0125 35.6364 52.522 34.8237 52.3849C33.8634 52.2214 33.2565 52.7013 32.7764 53.3764C32.5811 53.6558 32.6022 54.083 32.5178 54.4469C32.4914 54.5629 32.4439 54.6684 32.4017 54.7791C32.3859 54.7791 32.3753 54.7738 32.3595 54.7686Z" fill="#D5D5D5"/>
<path d="M3.60084 41.0417C3.57974 41.2263 3.58501 41.4161 3.59029 41.6007C3.69055 45.3502 4.16018 49.0522 5.07834 52.6963C5.10472 52.7912 5.14166 52.8808 5.21553 53.1023C6.10731 52.0476 7.131 51.6679 8.42908 52.2427C7.88557 51.5255 7.3579 50.898 6.9041 50.223C5.08361 47.5387 4.09158 44.575 3.98605 41.3265C3.98605 41.2263 3.99132 41.1155 3.94911 41.0312C3.91745 40.9626 3.82247 40.894 3.74859 40.8835C3.70638 40.8782 3.60612 40.9784 3.60084 41.0417Z" fill="#D5D5D5"/>
<path d="M3.59131 40.4678C3.98179 40.6365 3.95541 40.3623 3.97651 40.1619C4.07149 39.3023 4.10315 38.4374 4.2509 37.5937C4.78386 34.5297 6.10833 31.8402 8.14516 29.4935C8.24014 29.388 8.31929 29.272 8.4987 29.0505C7.12146 29.7044 6.10832 29.2509 5.19544 28.2173C4.12426 32.3148 3.62297 36.3649 3.59131 40.4678Z" fill="#D5D5D5"/>
<path d="M8.49792 24.878C9.61132 25.7745 9.94376 26.8029 9.47413 28.058C12.7563 25.1997 16.5397 23.6756 20.8772 23.6493C25.1989 23.6229 28.9982 25.0837 32.3067 27.9209C32.1484 26.8134 32.1273 26.6288 32.3806 26.6288L32.3225 26.3863C32.3225 26.3863 32.2961 26.3863 32.2856 26.3863C32.3753 25.706 33.0296 25.4317 33.3884 24.8464C25.1092 22.7686 16.888 22.7528 8.49792 24.8727V24.878Z" fill="#D5D5D5"/>
<path d="M32.3223 26.3871L32.3803 26.6297C32.4278 26.6297 32.4806 26.635 32.5439 26.6455C32.4384 27.3996 32.6705 28.0219 33.2879 28.4965C33.462 28.6336 33.5729 28.8499 33.7259 29.0186C33.7734 29.0713 33.8578 29.1188 33.9264 29.1293C34.1691 29.1663 34.4013 29.1821 34.6124 29.1768C35.6361 29.1452 36.3326 28.6178 36.8286 27.5367C36.8708 27.4471 37.0028 27.3996 37.1452 27.2994C37.1452 28.1907 36.3854 29.1346 35.4567 29.3508C35.1875 29.4141 34.9026 29.4405 34.6229 29.451C34.3591 29.4616 34.09 29.4616 33.8261 29.4616C33.557 29.4616 33.4462 29.546 33.3196 29.7991C33.0768 30.2843 33.1402 30.6218 33.4832 31.0647C35.6308 33.8597 36.7336 37.0239 36.7495 40.5624C36.7653 44.3066 35.5939 47.629 33.2721 50.5505C33.1032 50.7615 33.0663 50.9355 33.1877 51.1781C33.3618 51.5209 33.5095 51.8689 33.6889 52.2592C33.7628 52.1748 33.7892 52.1115 33.8314 52.1062C35.3142 51.8953 36.8286 52.391 37.0133 54.2262C37.0555 54.6164 37.2244 54.7641 37.5832 54.7588C37.7679 54.7588 37.9526 54.7588 38.1742 54.7588V26.635C37.6729 26.5242 37.2085 26.5822 36.7759 26.9408C36.8761 26.3291 36.5806 25.923 36.2482 25.5381C35.8999 25.1373 35.4408 24.9527 34.929 24.8578C34.5543 24.7892 34.1797 24.6837 33.805 24.5994C33.7312 25.074 32.6916 26.3185 32.3223 26.3976V26.3871Z" fill="#D5D5D5"/>
<path d="M18.5385 69.2555H19.0292C21.2244 69.2555 23.4195 69.2608 25.6093 69.2449C25.8732 69.2449 26.1317 69.1236 26.3956 69.0709C26.5275 69.0445 26.6647 69.0287 26.7913 69.0498C27.1079 69.1025 27.4245 69.2397 27.7412 69.2449C30.0471 69.2608 32.3583 69.2555 34.6854 69.1975C34.4743 69.1342 34.2632 69.0551 34.0469 69.0076C33.0232 68.7914 32.4428 68.1375 32.2475 67.1461C31.7251 64.5093 31.2027 61.8725 30.7225 59.2252C30.6328 58.7347 30.7595 58.2127 30.7911 57.6326C30.464 57.7222 30.0418 57.796 29.6619 57.9543C28.7596 58.3287 27.8836 58.7822 26.9707 59.125C25.1081 59.8316 23.1609 60.1691 21.1769 60.2641C21.1346 60.2641 21.0977 60.2799 20.9552 60.301C21.9737 61.092 22 62.0834 21.7626 63.1593C21.4829 64.4249 21.2296 65.6958 21.008 66.9668C20.8128 68.1058 20.2007 68.8125 19.0556 69.0393C18.8762 69.0762 18.7021 69.1342 18.5332 69.2555H18.5385Z" fill="#D5D5D5"/>
<path d="M0.466283 39.4553C0.350195 43.7797 1.62189 47.7295 4.06504 51.305C2.7564 43.4105 2.88832 35.5529 4.54522 27.7217C1.92795 31.197 0.582372 35.1363 0.466283 39.4553Z" fill="#D5D5D5"/>
<path d="M8.19075 23.8946C8.03245 24.0054 7.88998 24.1478 7.75806 24.3007C14.354 22.8716 20.9922 22.5182 27.7359 23.2354C27.5143 22.2862 27.7464 21.5585 28.3427 20.8887C30.0049 19.0377 30.8967 16.8544 30.8755 14.36C30.865 12.9256 31.2396 11.5703 31.4771 10.1834C31.6934 8.90719 31.9995 7.64681 32.2158 6.37061C32.4111 5.21571 33.0337 4.4985 34.1946 4.27174C34.3424 4.24537 34.4901 4.19264 34.6273 4.08189H33.5667C31.5457 4.08189 29.5247 4.0397 27.5037 4.10299C26.9233 4.11881 26.3586 4.1399 25.7729 4.11881C23.467 4.03443 21.1558 4.08189 18.8498 4.08189C18.7707 4.08189 18.6915 4.09244 18.6018 4.15045C18.834 4.21373 19.0609 4.28229 19.2931 4.3403C20.1426 4.54596 20.7231 5.07332 20.9077 5.90654C21.3193 7.79975 21.7098 9.7035 22.0211 11.6178C22.2903 13.2579 21.599 14.5288 20.2482 15.4675C17.0293 17.7088 13.8158 19.9553 10.6022 22.1966C9.80016 22.7555 8.9981 23.3198 8.19603 23.8841L8.19075 23.8946Z" fill="#D5D5D5"/>
<path d="M48.9762 29.2077C48.9709 29.155 49.0448 29.0442 49.0711 29.0495C49.3825 29.0917 49.43 28.8333 49.5619 28.6593C49.773 28.3798 50.1476 28.3745 50.3112 28.6962C50.5645 29.2077 50.8178 29.7351 50.9391 30.2888C51.1449 31.2117 51.2504 32.1609 51.4035 33.0943C51.4299 33.2472 51.509 33.3896 51.5618 33.5426C51.6093 33.532 51.6515 33.5162 51.699 33.5057C51.7095 33.3685 51.7201 33.2367 51.7201 33.0996C51.7201 31.296 51.7201 29.4925 51.7201 27.6942C51.7201 26.9084 51.5143 26.7186 50.7228 26.6869C49.5408 26.6395 48.3588 26.592 47.1821 26.5024C46.723 26.4655 46.6333 26.6817 46.6227 27.0403C46.6069 27.5149 46.5911 27.9895 46.5911 28.4694C46.5911 32.2927 46.5911 36.1108 46.5911 39.9341C46.5911 44.2321 46.5911 48.5247 46.5911 52.8227C46.5911 53.4291 46.5911 54.0356 46.628 54.6368C46.6544 55.0376 46.7546 55.4384 46.8285 55.8497C47.0765 55.8497 47.3351 55.8761 47.5831 55.8339C47.6781 55.8181 47.7783 55.6651 47.8206 55.5491C47.9419 55.2327 48.0263 55.0692 48.4854 55.1009C49.3825 55.1589 50.2954 55.0429 51.1977 54.9479C51.3718 54.9268 51.5459 54.679 51.662 54.4997C51.7359 54.3784 51.7201 54.1938 51.7201 54.0356C51.7201 49.2472 51.7201 44.4588 51.7201 39.6704V39.4542C51.7201 39.4542 51.6779 39.4437 51.6568 39.4384C51.6145 39.5808 51.5512 39.7126 51.5301 39.8603C51.4721 40.2558 51.4299 40.6355 51.1344 40.9625C50.9497 41.1681 50.7914 41.4371 50.5275 41.3052C50.3059 41.1945 50.0473 40.9308 50.0157 40.7041C49.831 39.2222 49.6991 37.7298 49.5513 36.2426C49.5513 36.2163 49.5302 36.1952 49.5038 36.1477C49.335 36.1319 49.1503 36.1213 48.9603 36.1055C48.8706 35.5623 49.3403 35.884 49.5038 35.7153C49.6463 35.1985 49.2031 35.3989 48.992 35.325C48.9709 35.1246 49.1222 35.0033 49.4458 34.9612C49.3983 33.1523 49.3508 31.3488 49.298 29.4925C49.2506 29.4767 49.1503 29.4661 49.0764 29.4134C49.0184 29.3765 48.9709 29.2921 48.9656 29.2183L48.9762 29.2077Z" fill="#575756"/>
<path d="M38.5837 27.8904C38.5837 36.5126 38.5785 45.1349 38.5943 53.7571C38.5943 54.332 38.7368 54.912 38.8528 55.4816C38.874 55.5765 39.085 55.682 39.2169 55.6873C39.9926 55.7347 40.7736 55.7611 41.5493 55.7822C43.0215 55.8191 44.4884 55.8455 45.9606 55.8718C46.0451 55.8718 46.1295 55.8613 46.2984 55.8455V26.514C46.0503 26.514 45.7548 26.5034 45.4541 26.514C43.3961 26.5983 41.3329 26.6933 39.275 26.7776C38.8528 26.7935 38.6418 27.0097 38.6048 27.4105C38.589 27.5687 38.5837 27.7269 38.5837 27.8851V27.8904Z" fill="#464646"/>
<path d="M46.2946 55.8444C46.131 55.8602 46.0466 55.8707 45.9569 55.8707C44.4846 55.8444 43.0177 55.818 41.5455 55.7811C40.7698 55.76 39.9888 55.7336 39.2132 55.6861C39.0812 55.6756 38.8702 55.5701 38.8491 55.4805C38.733 54.9109 38.5905 54.3308 38.5905 53.756C38.5747 45.1338 38.5799 36.5115 38.5799 27.8892C38.5799 27.731 38.5799 27.5728 38.6011 27.4146C38.638 27.0138 38.8491 26.7976 39.2712 26.7818C41.3291 26.6974 43.3871 26.6025 45.4503 26.5181C45.7511 26.5076 46.0466 26.5181 46.2946 26.5181V55.8496V55.8444Z" stroke="#1D1D1B" stroke-width="0.25" stroke-miterlimit="10"/>
<path d="M36.0576 26.9206C36.0682 27.6748 35.4824 28.2759 34.7331 28.2865C33.9997 28.2918 33.3717 27.6748 33.3665 26.947C33.3665 26.2298 33.9575 25.6286 34.6804 25.6181C35.4508 25.6075 36.047 26.1665 36.0576 26.9206Z" fill="#575756"/>
<path d="M34.6924 25.9332C34.1753 25.9491 33.7109 26.4448 33.7215 26.9669C33.732 27.4889 34.207 27.9583 34.7294 27.953C35.2518 27.9477 35.7214 27.4731 35.7214 26.951C35.7214 26.4026 35.2254 25.9174 34.6924 25.9332Z" fill="#1D1D1B"/>
<path d="M34.7173 55.7228C33.9838 55.7228 33.3559 55.0899 33.3665 54.3727C33.377 53.645 33.9627 53.0649 34.6962 53.0543C35.4613 53.0438 36.0523 53.6186 36.0576 54.3727C36.0576 55.1216 35.4666 55.7228 34.7173 55.7228Z" fill="#404041"/>
<path d="M34.7443 53.373C34.2113 53.3519 33.7153 53.8423 33.7153 54.3908C33.7153 54.9128 34.1955 55.3875 34.7126 55.3875C35.235 55.3875 35.7099 54.9181 35.7205 54.396C35.7258 53.874 35.2667 53.3941 34.739 53.373H34.7443Z" fill="#1D1D1B"/>
<path d="M8.59878 54.3951C8.5935 55.1228 8.0025 55.7187 7.27959 55.7187C6.54084 55.7187 5.9129 55.1123 5.90763 54.3845C5.90235 53.6515 6.51445 53.0451 7.26375 53.0503C8.01833 53.0503 8.60405 53.641 8.59878 54.3951Z" fill="#404041"/>
<path d="M7.2155 53.3733C6.70366 53.3997 6.24458 53.8954 6.26041 54.4069C6.27096 54.9237 6.75115 55.3931 7.26299 55.3931C7.79595 55.3931 8.27085 54.8921 8.2603 54.3595C8.24447 53.8216 7.7379 53.3417 7.2155 53.3733Z" fill="#1D1D1B"/>
<path d="M20.6814 54.6854C28.5179 54.6854 34.8706 48.3365 34.8706 40.5048C34.8706 32.6731 28.5179 26.3242 20.6814 26.3242C12.8449 26.3242 6.49219 32.6731 6.49219 40.5048C6.49219 48.3365 12.8449 54.6854 20.6814 54.6854Z" fill="#878787" stroke="#1D1D1B" stroke-width="0.25" stroke-miterlimit="10"/>
<path d="M5.91151 26.9363C5.90096 27.6641 6.52361 28.2864 7.26236 28.2864C8.00111 28.2864 8.60266 27.6799 8.60266 26.9363C8.60266 26.1822 8.01166 25.6127 7.24653 25.618C6.51306 25.6285 5.92206 26.2139 5.91679 26.9363H5.91151ZM7.2307 27.9647C6.72413 27.9436 6.24922 27.4479 6.2545 26.9416C6.25978 26.4037 6.76634 25.9133 7.28874 25.9344C7.80059 25.9555 8.27022 26.4459 8.26495 26.9574C8.25967 27.4901 7.74782 27.9858 7.2307 27.9647Z" fill="#404041"/>
<path d="M6.26038 26.9408C6.26038 27.447 6.72473 27.9427 7.23658 27.9638C7.7537 27.9849 8.26027 27.4892 8.27082 26.9566C8.2761 26.4451 7.81174 25.9546 7.29462 25.9335C6.77222 25.9124 6.26565 26.4029 6.26038 26.9408Z" fill="#1D1D1B"/>
<path d="M20.8985 36.7087C23.157 36.7087 24.9616 38.4807 24.9669 40.7061C24.9669 42.9315 23.1253 44.7773 20.9302 44.7615C18.7139 44.7404 16.9146 42.9421 16.9146 40.7377C16.9146 38.5017 18.6875 36.714 20.9038 36.7087H20.8985Z" fill="#1D1D1B"/>
<path d="M23.4259 38.0101C21.8798 36.6074 19.6267 36.7339 18.1281 38.3476C20.0857 39.8137 22.0276 41.2639 23.9642 42.7141C25.0353 41.5118 24.7662 39.223 23.4259 38.0101Z" fill="#DADADA"/>
<path d="M15.4683 40.721C15.4577 37.5833 17.8639 35.2893 20.9403 35.2576C23.8161 35.226 26.349 37.6413 26.349 40.3097C26.349 43.7533 24.1275 46.1633 20.9403 46.1686C18.323 46.2214 15.4788 44.2227 15.463 40.721H15.4683ZM15.8007 40.816C15.8852 43.8272 18.3336 45.8575 20.972 45.8417C23.5787 45.8206 25.911 43.8008 26.0429 41.0322C26.2012 37.6782 23.5259 35.5951 20.9192 35.6004C18.0961 35.6057 15.7216 37.963 15.8007 40.816Z" fill="#C6C6C6"/>
<path d="M17.9175 38.6643C16.783 40.1884 17.126 42.3822 18.6562 43.6109C20.2076 44.8555 22.4133 44.634 23.7747 43.0519C21.8276 41.5964 19.8804 40.1409 17.9175 38.6696V38.6643Z" fill="#DADADA"/>
<path d="M50.9498 42.8341L51.7254 39.4432V33.2995L50.4485 27.9521H48.3853L48.934 42.6812L50.9498 42.8341Z" fill="#575756"/>
<path d="M52.7175 68.2114H61.5719V71.017H55.5248" fill="#EBEBEB"/>
<path d="M54.2991 71.0187H47.5184C44.4209 71.0187 41.9039 68.5085 41.9039 65.413V64.5481H44.7112V65.413C44.7112 66.9634 45.967 68.2185 47.5184 68.2185H51.4918" fill="#EBEBEB"/>
<path d="M54.2885 71.0187H47.5184C44.4209 71.0187 41.9039 68.5085 41.9039 65.413V64.5481H44.7112V65.413C44.7112 66.9634 45.967 68.2185 47.5184 68.2185H51.4918" stroke="black" stroke-width="0.26" stroke-miterlimit="3.86"/>
<path d="M57.5621 74.2774L48.3752 65.0962M58.781 74.2774L49.5942 65.0962" stroke="black" stroke-width="0.13" stroke-linecap="round" stroke-linejoin="round"/>
<path d="M61.5774 68.5529C62.5212 68.5529 63.3854 67.7331 63.8466 66.4094L66.2643 59.4753C66.874 57.793 67.998 56.7427 69.2068 56.7427H70.0657V57.9297H69.2015C68.2524 57.9297 67.3776 58.7409 66.9005 60.056L64.8699 65.88M64.4775 68.2113L68.4698 64.8979C68.8409 64.5905 69.2492 64.4368 69.6627 64.4368H70.0657V65.6238H69.8377C69.4242 65.6238 69.0159 65.786 68.6448 66.0849L63.7353 70.1583C63.2528 70.5597 62.7226 70.8073 62.1818 70.9012H61.4767M61.4767 70.9012L55.3277 71.0187M61.4767 70.9012L61.4714 68.2113H52.5657M61.4767 68.5529H62.0864C62.7809 68.5529 63.4543 68.1259 63.958 67.3573L67.7064 61.67C68.1676 60.9271 68.7455 60.5855 69.4029 60.5855H70.0657V61.7725H69.4029C68.9417 61.7725 68.5016 62.0628 68.1729 62.5923L64.4722 68.2027C63.8307 69.1762 62.9665 69.7399 62.0811 69.7399H61.4714V69.1464V68.5529H61.4767Z" stroke="black" stroke-width="0.26" stroke-miterlimit="3.86"/>
<path d="M69.125 56.8953H70.0314V57.7791H69.125V56.8953Z" fill="black"/>
<path class="RELAY-IN" d="M69.125 60.634H70.0314V61.6959H69.125V60.634Z" fill="black"/>
<path d="M69.125 64.4873H70.0314V65.5492H69.125V64.4873Z" fill="black"/>
</svg>
