<svg width="66" height="79" viewBox="0 0 66 79" fill="none" xmlns="http://www.w3.org/2000/svg">
<path d="M47.0002 64L63.0002 73" stroke="#CFF400" stroke-linecap="round"/>
<path d="M47.0002 64L63.0002 55" stroke="black" stroke-linecap="round"/>
<path d="M47.0002 64L63.0002 64" stroke="#D32F2F" stroke-linecap="round"/>
<g clip-path="url(#clip0_1033_490)">
<path d="M65.0138 76.1025C65.0138 74.9534 64.0677 74.0186 62.9128 74.0186C61.758 74.0186 60.8252 74.9578 60.8252 76.1069C60.8252 77.2736 61.7669 78.2048 62.9483 78.1909C64.1077 78.1821 65.0182 77.229 65.0138 76.1025ZM64.7739 76.0982C64.7739 77.1134 63.9477 77.951 62.9306 77.9554C61.9001 77.9554 61.0651 77.131 61.0606 76.1025C61.0606 75.1048 61.8913 74.2636 62.8862 74.2592C63.9345 74.2592 64.7739 75.0697 64.7784 76.0982H64.7739Z" fill="black"/>
<path d="M63.0417 76.2408C63.0417 76.2006 63.0417 76.1691 63.0417 76.134C63.0417 75.6571 63.0417 75.1765 63.0417 74.6996C63.0417 74.6689 63.0506 74.633 63.0417 74.6111C63.015 74.5708 62.9795 74.5218 62.9351 74.5087C62.8729 74.4904 62.8285 74.535 62.8107 74.5972C62.8018 74.6242 62.8107 74.6557 62.8107 74.6864C62.8107 75.1677 62.8107 75.6483 62.8107 76.1296C62.8107 76.1603 62.8107 76.1962 62.8107 76.2364C62.7708 76.2364 62.7397 76.2408 62.7085 76.2408C62.4066 76.2408 62.1045 76.2408 61.8025 76.2408C61.7714 76.2408 61.727 76.232 61.7047 76.2496C61.6692 76.2766 61.6204 76.3205 61.6204 76.3564C61.6204 76.3966 61.6647 76.4412 61.7003 76.4676C61.7225 76.4859 61.7625 76.4771 61.798 76.4771C62.5353 76.4771 63.2726 76.4771 64.0056 76.4771C64.0322 76.4771 64.0588 76.4771 64.0855 76.4771C64.1477 76.4632 64.1965 76.4186 64.1832 76.3564C64.1743 76.3118 64.1255 76.2766 64.0855 76.2452C64.0633 76.232 64.0278 76.2408 63.9967 76.2364C63.7168 76.2364 63.437 76.2364 63.1528 76.2364C63.1216 76.2364 63.0905 76.2364 63.0461 76.232L63.0417 76.2408Z" fill="black"/>
<path d="M62.9174 76.9401C63.1083 76.9401 63.2993 76.9401 63.4859 76.9401C63.5881 76.9401 63.6547 76.8728 63.6281 76.7887C63.6058 76.717 63.5525 76.6951 63.4814 76.6951C63.3393 76.6951 63.1972 76.6951 63.0551 76.6951C62.833 76.6951 62.6153 76.6951 62.3932 76.6951C62.371 76.6951 62.3444 76.6951 62.3222 76.6951C62.2422 76.7038 62.1933 76.7572 62.1978 76.8238C62.2022 76.8999 62.2555 76.9357 62.3266 76.9401C62.4332 76.9401 62.5443 76.9401 62.6509 76.9401C62.7397 76.9401 62.8241 76.9401 62.9129 76.9401H62.9174Z" fill="black"/>
<path d="M62.9263 77.3849C62.9751 77.3849 63.0239 77.3849 63.0728 77.3849C63.1394 77.3849 63.1794 77.3455 63.1883 77.2782C63.1972 77.2116 63.1617 77.1582 63.095 77.1538C62.9796 77.145 62.8641 77.145 62.753 77.1538C62.6864 77.1582 62.6464 77.2116 62.6553 77.2825C62.6642 77.3498 62.7042 77.3849 62.7708 77.3849C62.8241 77.3849 62.8729 77.3849 62.9263 77.3849Z" fill="black"/>
<path d="M29.8351 57.0736C30.4658 56.5303 30.6124 55.8223 30.5769 55.0295C30.5458 54.3349 30.5769 53.6401 30.5635 52.9454C30.5591 52.7049 30.639 52.6381 30.8656 52.6381C31.3276 52.6381 31.8028 52.6737 32.2425 52.5758C33.1042 52.3888 33.6594 51.694 33.7039 50.7544C33.7394 50.0329 33.7039 49.307 33.6505 48.5856C33.6061 47.9933 33.2774 47.5436 32.7578 47.263C32.509 47.1294 32.4291 46.9735 32.438 46.6929C32.4557 45.8958 32.4513 45.0942 32.438 44.2971C32.4335 44.07 32.5135 43.9586 32.7089 43.8695C34.1081 43.2327 35.4095 42.44 36.6132 41.4826C38.3899 40.0709 39.8601 38.3831 41.0372 36.4414C42.0144 34.8338 42.7117 33.1148 43.187 31.2934C43.5867 29.7436 43.7911 28.1716 43.7822 26.5818C43.7644 24.177 43.3514 21.8345 42.4541 19.5945C41.3703 16.8913 39.7757 14.5489 37.6303 12.5717C36.0713 11.1333 34.3257 9.99318 32.3935 9.15154C30.99 8.54141 29.5242 8.11832 28.0051 7.87342C26.4727 7.62406 24.9358 7.56612 23.399 7.68638C21.7867 7.81556 20.2143 8.17625 18.6863 8.72399C18.5575 8.76853 18.3665 8.76853 18.251 8.70621C17.5536 8.31428 16.9807 8.36775 16.39 8.92441C16.0924 9.20493 15.7991 9.48999 15.5282 9.79722C15.3728 9.97094 15.2307 9.96648 15.0663 9.86407C14.8797 9.75274 14.5732 9.7839 14.5955 9.41429C14.6221 8.99566 14.6088 8.57257 14.6044 8.15394C14.5866 7.27667 14.0225 6.67993 13.1519 6.66212C12.1569 6.6443 11.1575 6.64875 10.1626 6.67102C9.45193 6.68884 8.89227 7.22768 8.83894 7.9402C8.8034 8.4123 8.80786 8.88879 8.82566 9.36081C8.83448 9.58794 8.76787 9.72151 8.55024 9.7839C8.31925 9.84622 8.10162 10.0778 7.85291 9.77052C7.60857 9.47214 7.31987 9.20494 7.04006 8.93773C6.36491 8.29651 5.5876 8.26974 4.9391 8.89325C4.22398 9.58794 3.52219 10.3005 2.83816 11.0264C2.32292 11.5697 2.34068 12.3891 2.85149 12.9413C3.16685 13.2797 3.49554 13.6048 3.82423 13.9255C3.9486 14.0457 3.98413 14.1526 3.89974 14.3085C3.842 14.4064 3.80646 14.5178 3.77093 14.6291C3.71319 14.8027 3.61102 14.874 3.42003 14.8696C3.02027 14.8562 2.62052 14.8785 2.2252 14.8562C1.28799 14.8072 0.657269 15.6133 0.683919 16.3971C0.715011 17.3234 0.71057 18.2496 0.683919 19.1759C0.66171 19.9375 1.30577 20.7346 2.18967 20.6811C2.59831 20.6544 3.00695 20.6811 3.41559 20.6722C3.60215 20.6678 3.69986 20.7435 3.76648 20.9127C3.98858 21.4471 3.99302 21.4427 3.57549 21.8657C3.34008 22.1062 3.10023 22.3378 2.86926 22.5872C2.31404 23.1884 2.31403 24.0078 2.88702 24.6001C3.5444 25.277 4.2151 25.945 4.88581 26.613C5.19673 26.9202 5.32998 26.9693 6.24942 27.1518C6.28052 27.6016 6.31605 28.0603 6.35159 28.519C6.36491 28.6971 6.37823 28.8753 6.40488 29.0534C6.47595 29.5433 6.83129 29.8461 7.28436 29.8105C7.73296 29.7748 8.05719 29.4185 8.04836 28.9287C8.04391 28.6036 7.98168 28.2785 7.9684 27.9534C7.9417 27.2809 7.92397 26.6085 7.91952 25.936C7.91952 25.602 8.01721 25.5442 8.33261 25.6867C8.87002 25.9271 8.82121 25.7579 8.82121 26.4348C8.82121 26.7599 8.81231 27.0894 8.82121 27.4146C8.84784 28.323 9.40305 28.8841 10.3047 28.8886C11.2597 28.8975 12.2147 28.8975 13.1697 28.8886C13.9692 28.8797 14.5777 28.2785 14.5999 27.4769C14.6132 27.0271 14.6132 26.5729 14.5955 26.1186C14.5821 25.7535 14.8975 25.7935 15.0841 25.6822C15.2307 25.5931 15.3728 25.5753 15.5238 25.7401C15.8036 26.0563 16.1056 26.3502 16.4077 26.6397C17.034 27.2364 17.7846 27.2899 18.4021 26.7065C19.1705 25.9895 19.9033 25.2369 20.6229 24.4709C21.0671 23.9989 21.0537 23.1884 20.6318 22.6985C20.343 22.3645 20.0366 22.0438 19.7123 21.7499C19.4859 21.5406 19.4459 21.367 19.5702 21.0686C19.6946 20.7702 19.8278 20.6411 20.1609 20.6678C20.5563 20.6989 20.956 20.6856 21.3558 20.6678C22.102 20.6411 22.6927 20.0666 22.7061 19.3184C22.7239 18.2897 22.7239 17.2566 22.7061 16.2278C22.6927 15.4975 22.1243 14.9141 21.3913 14.8785C20.9294 14.8562 20.4674 14.8562 20.0055 14.8785C19.779 14.8874 19.668 14.785 19.6235 14.5979C19.5702 14.3753 19.317 14.1704 19.6013 13.9166C19.9078 13.6449 20.1876 13.3421 20.4719 13.0481C21.0982 12.3935 21.0982 11.5607 20.4719 10.9151C20.2409 10.6746 19.9833 10.4608 19.6635 10.1669C20.1121 10.0288 20.4497 9.90416 20.7961 9.81953C22.755 9.31627 24.7537 9.1827 26.7569 9.38751C28.849 9.59686 30.839 10.1847 32.7133 11.1555C35.1874 12.4381 37.2439 14.206 38.8696 16.4728C40.1888 18.312 41.1038 20.3293 41.6279 22.5337C42.1521 24.7426 42.272 26.9693 41.9211 29.2048C41.2504 33.4533 39.2827 37.0025 36.018 39.8126C34.6411 41.0016 33.0953 41.9145 31.4252 42.6182C30.9677 42.8096 30.7767 43.1436 30.7812 43.629C30.7901 44.7201 30.7812 45.8157 30.7812 46.9379H29.653C29.653 46.7865 29.653 46.6528 29.653 46.5148C29.653 44.7914 29.6618 43.0635 29.653 41.3401C29.653 41.0773 29.7329 41.0016 29.9861 40.9882C30.6524 40.9482 31.2165 40.387 31.2342 39.7191C31.2564 38.9531 31.2609 38.1826 31.2342 37.4167C31.2121 36.6596 30.6479 36.103 29.8839 36.0763C29.1732 36.054 28.4582 36.0584 27.743 36.0763C27.0057 36.094 26.4149 36.6462 26.3794 37.3811C26.3439 38.147 26.3439 38.9175 26.375 39.6834C26.4061 40.396 26.9613 40.9437 27.6631 40.9972C27.8985 41.0149 27.9873 41.0818 27.9873 41.3312C27.9784 43.108 27.9829 44.8849 27.9918 46.6662C27.9918 46.9067 27.9252 46.9735 27.6897 46.9691C26.9658 46.9557 26.2462 46.9646 25.491 46.9646C25.4821 46.8176 25.4733 46.6974 25.4733 46.5727C25.4733 44.4173 25.4733 42.2574 25.4733 40.1021C25.4733 39.6033 25.2512 39.2782 24.8692 39.1846C24.3629 39.0644 23.9143 39.3584 23.8254 39.8705C23.8032 40.0041 23.8076 40.1421 23.8076 40.2802C23.8076 42.3421 23.8076 44.404 23.8076 46.4658C23.8076 46.6128 23.8076 46.7598 23.8076 46.9557C23.2791 46.9557 22.7683 46.9646 22.2619 46.9468C22.2086 46.9468 22.1198 46.7909 22.1198 46.7018C22.1109 45.8824 22.1153 45.063 22.1153 44.2392C22.1153 43.0947 22.0975 41.9458 22.1287 40.8012C22.1331 40.5518 22.2486 40.249 22.4174 40.0754C24.3584 38.0802 26.3217 36.1074 28.276 34.1257C28.4404 33.9609 28.5425 33.9387 28.7424 34.0812C29.3598 34.5265 30.0261 34.4731 30.5902 33.9297C31.0966 33.4399 31.5896 32.9367 32.0693 32.4245C32.5446 31.9124 32.5668 31.1019 32.0915 30.5809C31.5896 30.0287 31.0655 29.4943 30.5191 28.991C29.8973 28.4121 29.1422 28.4388 28.4982 29.0445C28.0184 29.4987 27.552 29.9707 27.099 30.4517C26.5304 31.0618 26.5438 31.8768 27.1123 32.4914C27.1745 32.5581 27.2366 32.6294 27.361 32.7763C27.0235 33.0881 26.6859 33.382 26.3661 33.7026C24.6382 35.435 22.9193 37.1762 21.1959 38.913C20.6806 39.4296 20.4408 40.0486 20.4408 40.7834C20.4497 42.7295 20.4408 44.6756 20.4497 46.6217C20.4497 46.9112 20.3609 46.9869 20.0943 46.9646C19.8278 46.9424 19.5569 46.9601 19.2682 46.9601V37.7106C19.5613 37.6349 19.8501 37.6127 20.0943 37.4924C20.6274 37.2297 20.8894 36.7665 20.8939 36.1653C20.8939 35.5152 20.9116 34.8605 20.8939 34.2103C20.8761 33.284 20.2853 32.7096 19.3615 32.7006C18.744 32.6962 18.1222 32.6962 17.5048 32.7006C16.612 32.714 16.0257 33.2796 16.0079 34.1747C15.9946 34.8382 16.0168 35.5018 15.999 36.1608C15.9813 36.9802 16.6653 37.6394 17.3627 37.6483C17.4338 37.6483 17.567 37.7685 17.567 37.8353C17.5714 39.2336 17.567 40.632 17.5581 42.0303C17.5581 42.0392 17.5492 42.0482 17.527 42.0838C17.4604 42.0571 17.3804 42.0392 17.3094 42.0036C14.2224 40.4271 11.8549 38.1025 10.1315 35.101C9.8872 34.6734 9.69619 34.2103 9.4164 33.8095C9.05664 33.2974 8.24819 33.3953 8.04391 33.9832C7.96395 34.2059 7.98168 34.522 8.08389 34.7358C9.48301 37.675 11.4907 40.111 14.1335 42.017C15.1152 42.7251 16.1545 43.3263 17.2516 43.8295C17.4959 43.9408 17.5892 44.0788 17.5848 44.3505C17.567 45.1699 17.5848 45.9938 17.567 46.8132C17.567 46.9379 17.4649 47.1205 17.3583 47.1783C16.7631 47.5123 16.3766 48.0022 16.3455 48.6747C16.31 49.5208 16.2966 50.3803 16.3988 51.213C16.4966 51.9835 17.2605 52.5624 18.0467 52.6203C18.3709 52.6426 18.6952 52.6426 19.0194 52.647C19.4414 52.647 19.4414 52.647 19.4414 53.0879C19.4414 53.8049 19.4636 54.5174 19.4414 55.2344C19.4147 55.9737 19.6235 56.5971 20.2054 57.0736H29.8351ZM4.19289 23.5535C4.50382 23.2641 4.78809 23.0013 5.06348 22.7297C5.48545 22.3066 5.74751 21.7945 5.60981 21.1977C5.50765 20.7524 5.31222 20.3249 5.11678 19.9108C4.89469 19.4342 4.49049 19.1358 3.97525 19.069C3.52219 19.0112 3.05581 19.0156 2.59831 19.0112C2.40732 19.0112 2.34068 18.9488 2.34513 18.7573C2.35401 18.0938 2.35401 17.4302 2.34957 16.7712C2.34957 16.6064 2.41176 16.544 2.57166 16.5485C2.89591 16.553 3.22015 16.5573 3.54884 16.5485C4.07297 16.5396 4.57045 16.4015 4.88581 15.974C5.1301 15.6445 5.29445 15.2481 5.46323 14.8651C5.82302 14.068 5.63647 13.3733 5.01906 12.781C4.757 12.5271 4.47716 12.2867 4.19734 12.0328C4.83695 11.4138 5.40993 10.8527 6.00957 10.2738C6.28051 10.5498 6.56479 10.8527 6.86683 11.1466C7.36876 11.6409 7.96395 11.7879 8.6302 11.5563C8.96333 11.4405 9.29201 11.2891 9.6074 11.1243C10.0827 10.875 10.3847 10.4786 10.438 9.93978C10.4824 9.48999 10.4868 9.04021 10.4913 8.58596C10.4913 8.40784 10.5446 8.34098 10.7223 8.34098C11.3841 8.34544 12.0459 8.34544 12.7033 8.34098C12.8854 8.34098 12.9387 8.4123 12.9342 8.59042C12.9254 8.93773 12.9387 9.28511 12.9342 9.63249C12.9298 10.1847 13.1297 10.6612 13.5649 10.9774C13.8714 11.2001 14.2535 11.3203 14.6044 11.4806C15.3683 11.828 16.0301 11.6632 16.612 11.0798C16.8829 10.8081 17.1539 10.5321 17.3893 10.296L19.1882 12.064C18.895 12.3312 18.5753 12.594 18.291 12.8834C17.798 13.3821 17.6425 13.9833 17.8646 14.6513C17.9845 15.0076 18.1356 15.3594 18.3132 15.689C18.5442 16.1299 18.9173 16.4238 19.4192 16.4816C19.8767 16.5351 20.3387 16.5351 20.7961 16.544C20.9871 16.544 21.0493 16.6064 21.0493 16.7979C21.0405 17.4792 21.0493 18.165 21.0493 18.8464C21.0493 18.8954 21.0271 18.9399 21.0049 19.0112C20.6051 19.0112 20.2187 19.0023 19.8323 19.0112C19.1305 19.029 18.5753 19.314 18.2555 19.9686C18.1356 20.2135 18.0378 20.4674 17.9312 20.7168C17.607 21.4961 17.7757 22.1775 18.3709 22.7564C18.6419 23.0191 18.9262 23.2641 19.206 23.5224L17.4071 25.277C17.1362 25.0008 16.843 24.7025 16.541 24.413C16.0479 23.9365 15.466 23.7717 14.8087 23.9989C14.5022 24.1057 14.2046 24.2304 13.9114 24.3729C13.2541 24.6936 12.9342 25.2324 12.9298 25.9628C12.9298 26.3012 12.9209 26.6353 12.9298 26.9736C12.9342 27.1474 12.8854 27.2231 12.7033 27.2231C12.0414 27.2186 11.3796 27.2186 10.7223 27.2231C10.5402 27.2231 10.4868 27.1518 10.4913 26.9781C10.5002 26.6397 10.4957 26.3057 10.4913 25.9672C10.4691 25.1923 10.1182 24.6312 9.39415 24.3195C9.21204 24.2394 9.02549 24.1725 8.84339 24.088C8.04391 23.7272 7.3554 23.892 6.76023 24.5199C6.5026 24.7916 6.24942 25.0632 6.01845 25.3081C5.40105 24.7159 4.83695 24.1681 4.19734 23.558L4.19289 23.5535ZM25.0247 50.9726V50.9637C22.8216 50.9637 20.6185 50.9637 18.4153 50.9637C18.0378 50.9637 17.9578 50.879 17.9535 50.4961C17.949 50.0329 17.9446 49.5698 17.949 49.1067C17.949 48.7281 18.0556 48.6257 18.4421 48.6257C22.826 48.6257 27.21 48.6257 31.594 48.6257C31.9449 48.6257 32.0471 48.7237 32.0515 49.0755C32.0604 49.4941 32.0515 49.9171 32.0515 50.3358C32.0515 50.9459 32.0293 50.9726 31.4074 50.9726C29.2799 50.9726 27.1479 50.9726 25.0203 50.9726H25.0247ZM25.0247 54.9361C26.2106 54.9361 27.3921 54.9361 28.5781 54.9316C28.809 54.9316 28.9467 54.9672 28.9068 55.2389C28.8757 55.4571 29.0045 55.7376 28.587 55.7332C26.2062 55.7198 23.8299 55.7198 21.4491 55.7332C21.0405 55.7332 21.147 55.4704 21.116 55.2433C21.0804 54.9672 21.2181 54.9316 21.4446 54.9361C22.6395 54.9449 23.8343 54.9361 25.0292 54.9361H25.0247ZM25.0247 52.6426V52.6515C26.2195 52.6515 27.4144 52.656 28.6092 52.647C28.8535 52.647 28.9068 52.7361 28.9068 52.9588C28.9068 53.1859 28.849 53.2705 28.6048 53.266C27.5565 53.2527 26.5082 53.2616 25.46 53.2616C24.1186 53.2616 22.7772 53.2616 21.4357 53.2572C21.3292 53.2572 21.1648 53.2082 21.1337 53.1369C21.0005 52.8162 21.1337 52.647 21.4713 52.647C22.6572 52.647 23.8388 52.647 25.0247 52.647V52.6426ZM28.0317 38.5345C28.0317 38.5033 28.0317 38.4722 28.0317 38.4409C28.0317 37.9748 28.2701 37.7418 28.7469 37.7418C29.3065 37.7418 29.5863 38.0283 29.5863 38.6013C29.5863 39.0911 29.3376 39.336 28.8401 39.336C28.3427 39.336 28.0732 39.0704 28.0317 38.539V38.5345ZM17.6647 35.19C17.6647 35.1499 17.6647 35.1055 17.6647 35.0654C17.6825 34.2593 17.5536 34.3795 18.3709 34.3706C19.2149 34.3618 19.2149 34.3706 19.2149 35.2034C19.2149 35.72 18.9587 35.9783 18.4464 35.9783C17.9253 35.9783 17.6647 35.714 17.6647 35.1856V35.19ZM30.6169 31.4181L29.5464 32.5181L28.4315 31.3736C28.738 31.093 29.0578 30.7901 29.3953 30.5096C29.4531 30.4606 29.6174 30.4562 29.6707 30.5052C30.0039 30.808 30.3193 31.1286 30.6169 31.4181Z" fill="black"/>
<path d="M25.4734 30.5899C25.4734 29.8106 25.4778 29.0356 25.4734 28.2563C25.4734 28.0381 25.5267 27.9446 25.7621 27.9179C26.5971 27.8199 27.0857 27.2543 27.0946 26.4082C27.0991 25.7669 27.0991 25.1256 27.0946 24.4844C27.0813 23.5803 26.4816 22.988 25.5888 22.988C24.9492 22.988 24.3097 22.988 23.67 22.988C22.8528 22.9925 22.2531 23.5492 22.2176 24.3686C22.1909 25.0722 22.1909 25.7759 22.2087 26.4795C22.2265 27.281 22.7106 27.8154 23.5057 27.9179C23.7544 27.949 23.8122 28.0292 23.8077 28.2652C23.7988 29.8194 23.8033 31.3781 23.8077 32.9323C23.8077 33.4088 24.0432 33.7696 24.4029 33.8675C24.9981 34.0278 25.4645 33.6538 25.4734 32.9858C25.4823 32.1886 25.4734 31.387 25.4734 30.5899ZM23.8699 24.6803H25.4201C25.4201 25.1568 25.429 25.6066 25.4112 26.0564C25.4112 26.1276 25.2824 26.2523 25.2068 26.2523C24.8337 26.2746 24.4562 26.2746 24.0787 26.2523C24.0032 26.2523 23.8788 26.1276 23.8743 26.0564C23.8566 25.6066 23.8655 25.1568 23.8655 24.6803H23.8699Z" fill="black"/>
<path d="M32.2693 21.1043C31.9228 21.1043 31.5763 21.0998 31.2299 21.1043C30.5281 21.1177 29.8929 21.6253 29.8485 22.32C29.7952 23.1662 29.8086 24.0212 29.8574 24.8718C29.8929 25.4641 30.4215 25.9896 31.0122 26.0207C31.8251 26.0697 32.6468 26.0786 33.4597 26.0296C34.1392 25.9896 34.6589 25.4151 34.6856 24.7293C34.7167 23.9722 34.7211 23.2151 34.6856 22.4581C34.6501 21.6565 34.0415 21.1132 33.2376 21.1043C32.9133 21.1043 32.5891 21.1043 32.2604 21.1043H32.2693ZM33.0377 23.5714C33.0377 24.1147 32.7712 24.3849 32.2381 24.3819C31.7052 24.379 31.4535 24.1102 31.4831 23.5759C31.5127 23.0415 31.7703 22.7742 32.2559 22.7742C32.7416 22.7742 33.0007 23.04 33.0332 23.5714H33.0377Z" fill="black"/>
<path d="M28.4806 19.6704C28.8049 19.6704 29.1335 19.6525 29.4534 19.6704C30.2129 19.7282 30.9414 18.9979 30.9147 18.2275C30.8925 17.5328 30.9191 16.838 30.9058 16.1478C30.888 15.3373 30.3328 14.7628 29.5244 14.7361C28.8227 14.7093 28.1209 14.7138 27.419 14.7361C26.6373 14.7628 26.0599 15.3462 26.0376 16.1299C26.0155 16.8559 26.0155 17.5817 26.0376 18.3076C26.0599 19.078 26.6817 19.6615 27.4457 19.6704C27.7921 19.6704 28.1386 19.6704 28.4851 19.6704H28.4806ZM27.6944 17.1988C27.6944 17.1988 27.6944 17.1587 27.6944 17.1364C27.6944 16.6465 27.9343 16.4016 28.414 16.4016C28.9707 16.4016 29.249 16.6822 29.249 17.2433C29.249 17.751 28.9989 18.0033 28.4984 18.0003C27.9979 17.9974 27.7314 17.7302 27.6989 17.1988H27.6944Z" fill="black"/>
<path d="M32.8423 2.60069C32.7934 2.17317 32.5447 1.84808 32.1493 1.75901C31.7673 1.66995 31.372 1.84808 31.2255 2.23107C31.0478 2.68976 30.9145 3.16626 30.7769 3.63831C30.6747 3.98122 30.5726 4.31967 30.5059 4.67148C30.4348 5.06337 30.6747 5.43745 31.0345 5.56659C31.3987 5.69574 31.8696 5.56659 32.0028 5.20142C32.3137 4.34639 32.5624 3.47354 32.8423 2.60514V2.60069Z" fill="black"/>
<path d="M47.1357 39.7636C47.491 39.7636 47.8064 39.5275 47.913 39.2203C48.0329 38.8685 47.9352 38.4721 47.611 38.2762C47.1001 37.9689 46.5672 37.7106 46.0386 37.4345C45.8342 37.3276 45.63 37.2252 45.4168 37.1361C44.977 36.9624 44.5595 37.1183 44.3507 37.5236C44.1597 37.8887 44.253 38.3519 44.635 38.5701C45.3634 38.9798 46.1186 39.3361 46.8648 39.7102C46.9536 39.7547 47.0691 39.7547 47.1357 39.768V39.7636Z" fill="black"/>
<path d="M47.6909 25.5131C48.4105 25.424 49.17 25.3438 49.9251 25.2325C50.4137 25.1613 50.7157 24.7605 50.6669 24.3374C50.6136 23.8787 50.2005 23.5358 49.7074 23.5892C48.9568 23.6649 48.2106 23.763 47.4689 23.8698C46.998 23.9366 46.6738 24.3463 46.7226 24.7649C46.7759 25.2147 47.1756 25.5398 47.6909 25.5176V25.5131Z" fill="black"/>
<path d="M41.2461 42.5959C40.8107 42.5915 40.562 42.7473 40.411 43.0368C40.2644 43.3174 40.2689 43.6157 40.4732 43.8651C40.6464 44.0833 40.8552 44.2837 41.0551 44.4752C41.4726 44.8716 41.8768 45.2813 42.321 45.6465C42.6852 45.9449 43.0849 45.8914 43.3959 45.5796C43.6846 45.2902 43.7468 44.8137 43.4492 44.5019C42.8628 43.8919 42.2366 43.3174 41.6103 42.7473C41.4993 42.6449 41.3127 42.6227 41.2461 42.5959Z" fill="black"/>
<path d="M45.0482 18.0893C45.0393 18.6995 45.6478 19.0958 46.2519 18.8509C46.927 18.5747 47.5977 18.2808 48.264 17.978C48.7304 17.7643 48.9214 17.3145 48.757 16.8914C48.5838 16.4505 48.1396 16.2457 47.6422 16.4417C46.9315 16.7222 46.2342 17.0295 45.5412 17.3456C45.217 17.4926 45.0482 17.7821 45.0437 18.0893H45.0482Z" fill="black"/>
<path d="M47.4111 30.6432C46.8781 30.6432 46.5183 30.9416 46.4694 31.3557C46.4161 31.8278 46.6915 32.2108 47.1846 32.3043C47.9219 32.4468 48.6637 32.576 49.4054 32.7006C49.8363 32.7719 50.2671 32.469 50.3515 32.0593C50.4403 31.6274 50.205 31.1998 49.7564 31.0885C49.2011 30.9505 48.6281 30.8614 48.064 30.7545C47.8197 30.71 47.571 30.67 47.4067 30.6432H47.4111Z" fill="black"/>
<path d="M38.6255 4.95215C38.3635 4.95215 38.1191 5.09466 37.9459 5.3574C37.5417 5.97196 37.1331 6.58206 36.7422 7.20552C36.4668 7.64637 36.5468 8.09616 36.9243 8.38568C37.2708 8.64843 37.7638 8.59496 38.0614 8.18079C38.5322 7.52619 38.9853 6.85371 39.3806 6.15009C39.6915 5.60233 39.2829 4.96551 38.6211 4.95215H38.6255Z" fill="black"/>
<path d="M41.5126 12.2555C41.597 12.9102 42.2321 13.302 42.7651 13.0037C43.0272 12.8567 43.2493 12.643 43.4802 12.447C43.9067 12.0907 44.342 11.7434 44.7372 11.3559C45.1281 10.9685 45.0348 10.3851 44.5729 10.0912C44.2931 9.91309 43.9111 9.93087 43.6046 10.1758C43.0183 10.6523 42.4364 11.1333 41.8768 11.6409C41.708 11.7968 41.6281 12.0507 41.5037 12.26L41.5126 12.2555Z" fill="black"/>
<path d="M25.4645 2.55173C25.4645 2.16429 25.4645 1.77685 25.4645 1.38496C25.4645 1.17565 25.3889 1.05986 25.1447 1.07768C24.8115 1.09995 24.474 1.1044 24.1408 1.07768C23.8699 1.05542 23.8121 1.21128 23.8077 1.41613C23.7988 1.91935 23.8033 2.42258 23.8033 2.93026C23.8033 3.1841 23.7944 3.43348 23.8033 3.68732C23.8299 4.195 24.203 4.57353 24.6516 4.56462C25.1091 4.55126 25.4423 4.2039 25.4645 3.69178C25.4778 3.31324 25.4645 2.93471 25.4645 2.55618V2.55173Z" fill="black"/>
<path d="M15.7503 17.7777C15.7503 20.3962 13.334 22.3512 10.8067 21.7767C8.54142 21.2602 7.18669 18.9355 7.80856 16.6198C7.9107 16.2323 7.9018 15.885 7.58647 15.6089C7.11118 15.1903 6.40494 15.4441 6.22728 16.0809C5.74313 17.7954 5.93856 19.4254 6.90686 20.9172C8.12388 22.7921 10.3048 23.8653 12.5923 23.4823C14.2357 23.2063 15.5416 22.3646 16.4389 20.993C17.6514 19.1403 17.7847 17.1675 16.7809 15.1591C16.0791 13.7563 14.9598 12.8167 13.5029 12.2956C12.2858 11.8592 11.0466 11.9126 9.8295 12.3179C9.38978 12.4648 9.18995 12.8568 9.28319 13.2887C9.3765 13.7118 9.73626 13.9612 10.1982 13.9078C10.4247 13.881 10.6512 13.8187 10.8733 13.7652C12.4768 13.3866 14.3423 14.2061 15.1596 15.649C15.5682 16.3748 15.746 17.0116 15.746 17.7777H15.7503Z" fill="black"/>
<path d="M11.704 20.6901C13.2897 20.6901 14.6133 19.3586 14.6044 17.7732C14.5956 16.1655 13.2542 14.8251 11.6773 14.8518C10.0783 14.8785 8.78132 16.1967 8.8035 17.7865C8.8213 19.4031 10.1138 20.6945 11.7084 20.6901H11.704ZM11.7129 19.0112C11.0243 19.0156 10.4825 18.4724 10.478 17.7732C10.478 17.0962 11.0066 16.544 11.6862 16.5396C12.3836 16.5352 12.9166 17.0428 12.921 17.7776C12.921 18.4857 12.4102 18.9979 11.7129 19.0112Z" fill="black"/>
<path d="M25.4867 1.26031C25.3179 0.863967 24.9848 0.623492 24.5851 0.650211C24.1942 0.676932 23.8655 0.957487 23.8344 1.3672C23.7944 1.85706 23.8033 2.35138 23.8033 2.8457C23.8033 3.20196 23.8033 3.55823 23.8389 3.91004C23.8788 4.30638 24.2164 4.59585 24.6028 4.61366C24.9893 4.63148 25.4024 4.36873 25.4245 3.99019C25.4779 3.08172 25.469 2.17325 25.4867 1.26031Z" fill="black"/>
<path d="M48.7038 65.8913H30.7415C26.5307 65.8913 23.1194 62.4711 23.1194 58.2494V57.0737H26.9304V58.2494C26.9304 60.3603 28.636 62.0703 30.7415 62.0703H44.9061" stroke="black" stroke-miterlimit="3.86"/>
<path d="M44.5774 62.0297L48.5901 65.8992" stroke="black" stroke-miterlimit="10" stroke-linecap="round"/>
<path d="M64.6799 47.4799V51.2038H64.2446L62.2207 48.2799H62.1844V51.2038H61.7346V47.4799H62.1699L64.2011 50.411H64.2374V47.4799H64.6799Z" fill="black"/>
<rect class="RELAY-IN" x="62.5" y="63.5" width="1" height="1" rx="0.5" fill="transparent"/>
</g>
<defs>
<clipPath id="clip0_1033_490">
<rect width="65.6623" height="79" fill="white"/>
</clipPath>
</defs>
</svg>
