<svg width="90" height="108" viewBox="0 0 90 108" fill="none" xmlns="http://www.w3.org/2000/svg">
<path d="M27 87H1" stroke="#E30613" stroke-width="3" stroke-miterlimit="10"/>
<rect class="RELAY-IN" x="1" y="86" width="5.47927" height="1.82642" fill="#CC1B26"/>
<path d="M25.6978 89.5982L1.01672 98.0667" stroke="#DEDC00" stroke-width="3" stroke-miterlimit="10"/>
<path d="M28.3035 84.8191L0.888916 73.7327" stroke="#312783" stroke-width="3" stroke-miterlimit="10"/>
<path d="M0.888816 104.039C0.888816 102.468 2.18558 101.19 3.76848 101.19C5.35137 101.19 6.62987 102.474 6.62987 104.045C6.62987 105.64 5.3392 106.913 3.71977 106.894C2.13078 106.882 0.882728 105.579 0.888816 104.039ZM1.21757 104.033C1.21757 105.421 2.34995 106.566 3.74412 106.572C5.15656 106.572 6.30111 105.445 6.3072 104.039C6.3072 102.675 5.16873 101.525 3.805 101.519C2.36822 101.519 1.21757 102.627 1.21148 104.033H1.21757Z" fill="black"/>
<path d="M3.59195 104.228C3.59195 104.173 3.59195 104.13 3.59195 104.082C3.59195 103.43 3.59195 102.773 3.59195 102.121C3.59195 102.079 3.57977 102.03 3.59195 102C3.62848 101.945 3.67718 101.878 3.73806 101.86C3.8233 101.835 3.88418 101.896 3.90853 101.981C3.92071 102.018 3.90853 102.061 3.90853 102.103C3.90853 102.761 3.90853 103.418 3.90853 104.076C3.90853 104.118 3.90853 104.167 3.90853 104.222C3.96332 104.222 4.00594 104.228 4.04856 104.228C4.46254 104.228 4.87653 104.228 5.29052 104.228C5.33314 104.228 5.39402 104.216 5.42446 104.24C5.47317 104.277 5.54013 104.337 5.54013 104.386C5.54013 104.441 5.47925 104.502 5.43055 104.538C5.40011 104.563 5.34532 104.551 5.29661 104.551C4.28599 104.551 3.27537 104.551 2.27084 104.551C2.23431 104.551 2.19778 104.551 2.16125 104.551C2.07602 104.532 2.00905 104.471 2.02732 104.386C2.03949 104.325 2.10646 104.277 2.16125 104.234C2.19169 104.216 2.2404 104.228 2.28301 104.222C2.66656 104.222 3.05011 104.222 3.43975 104.222C3.48237 104.222 3.52498 104.222 3.58586 104.216L3.59195 104.228Z" fill="black"/>
<path d="M3.76244 105.184C3.50065 105.184 3.23887 105.184 2.98317 105.184C2.84314 105.184 2.75182 105.092 2.78835 104.977C2.81879 104.879 2.89185 104.849 2.98925 104.849C3.18407 104.849 3.37889 104.849 3.57371 104.849C3.87811 104.849 4.17643 104.849 4.48083 104.849C4.51127 104.849 4.5478 104.849 4.57824 104.849C4.68783 104.861 4.7548 104.934 4.74871 105.025C4.74262 105.129 4.66956 105.178 4.57215 105.184C4.42604 105.184 4.27384 105.184 4.12772 105.184C4.00596 105.184 3.89029 105.184 3.76853 105.184H3.76244Z" fill="black"/>
<path d="M3.7502 105.792C3.68323 105.792 3.61626 105.792 3.5493 105.792C3.45797 105.792 3.40318 105.738 3.39101 105.646C3.37883 105.555 3.42753 105.482 3.51885 105.476C3.67714 105.464 3.83543 105.464 3.98764 105.476C4.07896 105.482 4.13375 105.555 4.12157 105.652C4.1094 105.744 4.05461 105.792 3.96328 105.792C3.89023 105.792 3.82326 105.792 3.7502 105.792Z" fill="black"/>
<path d="M49.1064 78.0247C48.2419 77.282 48.041 76.314 48.0897 75.2303C48.1323 74.2806 48.0897 73.3308 48.108 72.3811C48.1141 72.0523 48.0045 71.961 47.694 71.961C47.0608 71.961 46.4094 72.0097 45.8067 71.8758C44.6256 71.6201 43.8646 70.6703 43.8037 69.3858C43.755 68.3995 43.8037 67.4071 43.8768 66.4209C43.9377 65.6112 44.3882 64.9963 45.1005 64.6127C45.4414 64.4301 45.551 64.217 45.5388 63.8334C45.5145 62.7437 45.5206 61.6478 45.5388 60.5581C45.5449 60.2476 45.4353 60.0954 45.1675 59.9736C43.2497 59.103 41.4659 58.0193 39.816 56.7104C37.3808 54.7805 35.3657 52.4731 33.7523 49.8187C32.4129 47.6209 31.4571 45.2709 30.8057 42.7809C30.2578 40.6622 29.9777 38.5131 29.9899 36.3397C30.0142 33.0521 30.5804 29.8498 31.8102 26.7875C33.2957 23.092 35.4813 19.8897 38.4219 17.1866C40.5588 15.2202 42.9514 13.6616 45.5997 12.511C47.5235 11.6769 49.5326 11.0985 51.6147 10.7637C53.7151 10.4228 55.8216 10.3436 57.9281 10.508C60.138 10.6846 62.2932 11.1777 64.3875 11.9265C64.5641 11.9874 64.8258 11.9874 64.9841 11.9022C65.94 11.3664 66.7253 11.4395 67.535 12.2005C67.9429 12.584 68.3448 12.9737 68.7161 13.3937C68.9292 13.6312 69.124 13.6251 69.3493 13.4851C69.605 13.3329 70.0251 13.3755 69.9946 12.8702C69.9581 12.2979 69.9764 11.7195 69.9824 11.1472C70.0068 9.94789 70.78 9.13209 71.9732 9.10774C73.337 9.08339 74.7068 9.08947 76.0705 9.11991C77.0446 9.14427 77.8117 9.88092 77.8848 10.855C77.9335 11.5004 77.9274 12.1518 77.903 12.7971C77.8909 13.1076 77.9822 13.2902 78.2805 13.3755C78.5971 13.4607 78.8954 13.7773 79.2363 13.3572C79.5712 12.9493 79.9669 12.584 80.3504 12.2187C81.2758 11.3421 82.3412 11.3055 83.2301 12.1579C84.2103 13.1076 85.1722 14.0817 86.1098 15.0741C86.816 15.8168 86.7916 16.937 86.0915 17.6919C85.6592 18.1546 85.2087 18.599 84.7582 19.0374C84.5877 19.2018 84.539 19.3479 84.6547 19.561C84.7338 19.6949 84.7825 19.8471 84.8313 19.9993C84.9104 20.2367 85.0504 20.3341 85.3122 20.3281C85.8601 20.3098 86.4081 20.3402 86.9499 20.3098C88.2345 20.2428 89.099 21.3448 89.0625 22.4163C89.0198 23.6826 89.0259 24.9489 89.0625 26.2152C89.0929 27.2563 88.2101 28.3461 86.9986 28.273C86.4385 28.2365 85.8784 28.273 85.3183 28.2608C85.0626 28.2547 84.9287 28.3582 84.8373 28.5896C84.5329 29.3201 84.5269 29.3141 85.0991 29.8924C85.4218 30.2212 85.7506 30.5378 86.0671 30.8787C86.8281 31.7006 86.8281 32.8208 86.0428 33.6305C85.1417 34.5559 84.2224 35.4691 83.3032 36.3823C82.877 36.8024 82.6943 36.8694 81.4341 37.119C81.3915 37.7339 81.3428 38.3609 81.2941 38.988C81.2758 39.2315 81.2576 39.4751 81.221 39.7186C81.1236 40.3883 80.6366 40.8023 80.0156 40.7536C79.4007 40.7048 78.9563 40.2178 78.9684 39.5481C78.9745 39.1037 79.0598 38.6593 79.078 38.2148C79.1146 37.2955 79.1389 36.3762 79.145 35.4569C79.145 35.0003 79.0111 34.9212 78.5788 35.116C77.8422 35.4447 77.9091 35.2134 77.9091 36.1388C77.9091 36.5832 77.9213 37.0337 77.9091 37.4782C77.8726 38.7201 77.1116 39.4872 75.8757 39.4933C74.5668 39.5055 73.2578 39.5055 71.9489 39.4933C70.853 39.4811 70.019 38.6593 69.9885 37.5634C69.9703 36.9485 69.9703 36.3275 69.9946 35.7065C70.0129 35.2073 69.5806 35.2621 69.3249 35.1099C69.124 34.9881 68.9292 34.9638 68.7222 35.189C68.3387 35.6213 67.9247 36.0231 67.5107 36.4188C66.6523 37.2346 65.6234 37.3077 64.7771 36.5102C63.7239 35.53 62.7194 34.5011 61.7331 33.4539C61.1243 32.8086 61.1426 31.7006 61.7209 31.0309C62.1167 30.5743 62.5367 30.1359 62.9812 29.7341C63.2916 29.448 63.3464 29.2106 63.176 28.8027C63.0055 28.3948 62.8229 28.2182 62.3663 28.2547C61.8244 28.2973 61.2765 28.2791 60.7286 28.2547C59.7058 28.2182 58.8961 27.4328 58.8778 26.41C58.8534 25.0037 58.8534 23.5913 58.8778 22.1849C58.8961 21.1865 59.6753 20.3889 60.6799 20.3402C61.313 20.3098 61.9462 20.3098 62.5793 20.3402C62.8898 20.3524 63.042 20.2124 63.1029 19.9567C63.176 19.6523 63.523 19.3722 63.1334 19.0252C62.7133 18.6538 62.3297 18.2399 61.9401 17.838C61.0817 16.9431 61.0817 15.8046 61.9401 14.9219C62.2567 14.5931 62.6098 14.3009 63.0481 13.8991C62.4332 13.7103 61.9705 13.5399 61.4957 13.4242C58.8108 12.7362 56.0712 12.5536 53.3255 12.8336C50.458 13.1198 47.7305 13.9234 45.1614 15.2506C41.7703 17.004 38.9515 19.4209 36.7233 22.5198C34.9151 25.0341 33.661 27.792 32.9426 30.8056C32.2242 33.8253 32.0598 36.8694 32.5408 39.9256C33.4601 45.7336 36.1571 50.5858 40.6318 54.4274C42.5191 56.0529 44.6378 57.3009 46.9269 58.2629C47.554 58.5246 47.8158 58.9812 47.8097 59.6448C47.7975 61.1364 47.8097 62.6341 47.8097 64.1683H49.356C49.356 63.9613 49.356 63.7786 49.356 63.5899C49.356 61.2338 49.3439 58.8717 49.356 56.5156C49.356 56.1564 49.2465 56.0529 48.8994 56.0346C47.9862 55.9798 47.213 55.2127 47.1887 54.2995C47.1583 53.2524 47.1522 52.1991 47.1887 51.152C47.2191 50.117 47.9923 49.356 49.0395 49.3195C50.0136 49.289 50.9937 49.2951 51.9739 49.3195C52.9845 49.3438 53.7943 50.0987 53.843 51.1033C53.8917 52.1504 53.8917 53.2037 53.849 54.2508C53.8064 55.2249 53.0454 55.9737 52.0835 56.0468C51.7608 56.0711 51.6391 56.1625 51.6391 56.5034C51.6513 58.9325 51.6452 61.3617 51.633 63.7969C51.633 64.1257 51.7243 64.217 52.047 64.2109C53.0393 64.1926 54.0256 64.2048 55.0606 64.2048C55.0728 64.0039 55.0849 63.8395 55.0849 63.6691C55.0849 60.7224 55.0849 57.7697 55.0849 54.8231C55.0849 54.1412 55.3893 53.6968 55.9129 53.5689C56.6069 53.4046 57.2218 53.8064 57.3436 54.5065C57.374 54.6892 57.368 54.8779 57.368 55.0666C57.368 57.8854 57.368 60.7042 57.368 63.5229C57.368 63.7239 57.368 63.9248 57.368 64.1926C58.0924 64.1926 58.7926 64.2048 59.4866 64.1805C59.5597 64.1805 59.6814 63.9674 59.6814 63.8456C59.6936 62.7254 59.6875 61.6052 59.6875 60.4789C59.6875 58.9143 59.7119 57.3436 59.6692 55.7789C59.6632 55.438 59.5049 55.024 59.2735 54.7866C56.613 52.0591 53.9221 49.3621 51.2434 46.6529C51.0181 46.4276 50.8781 46.3972 50.6041 46.592C49.7579 47.2008 48.8446 47.1278 48.0715 46.385C47.3774 45.7153 46.7016 45.0274 46.0441 44.3272C45.3927 43.6271 45.3623 42.5191 46.0137 41.8068C46.7016 41.0519 47.42 40.3213 48.1689 39.6333C49.0212 38.8419 50.0562 38.8784 50.9389 39.7064C51.5965 40.3274 52.2357 40.9727 52.8567 41.6302C53.636 42.4643 53.6177 43.5784 52.8384 44.4186C52.7532 44.5099 52.668 44.6073 52.4975 44.8082C52.9602 45.2344 53.4229 45.6362 53.8612 46.0745C56.2295 48.4428 58.5856 50.8232 60.9477 53.1976C61.654 53.9038 61.9827 54.75 61.9827 55.7546C61.9705 58.4151 61.9827 61.0755 61.9705 63.736C61.9705 64.1318 62.0923 64.2353 62.4576 64.2048C62.8229 64.1744 63.1942 64.1987 63.59 64.1987V51.5538C63.1882 51.4503 62.7924 51.4199 62.4576 51.2555C61.727 50.8963 61.3678 50.2631 61.3617 49.4412C61.3617 48.5524 61.3374 47.6574 61.3617 46.7686C61.3861 45.5022 62.1958 44.7169 63.4621 44.7047C64.3084 44.6986 65.1607 44.6986 66.0069 44.7047C67.2306 44.723 68.0343 45.4962 68.0586 46.7199C68.0769 47.627 68.0464 48.5341 68.0708 49.4351C68.0951 50.5553 67.1576 51.4564 66.2017 51.4686C66.1043 51.4686 65.9217 51.6329 65.9217 51.7243C65.9156 53.6359 65.9217 55.5476 65.9339 57.4592C65.9339 57.4714 65.9461 57.4836 65.9765 57.5323C66.0678 57.4958 66.1774 57.4714 66.2748 57.4227C70.506 55.2675 73.751 52.0895 76.1131 47.9862C76.448 47.4017 76.7098 46.7686 77.0933 46.2206C77.5864 45.5205 78.6945 45.6544 78.9745 46.4581C79.0841 46.7625 79.0598 47.1947 78.9197 47.487C77.002 51.5051 74.2502 54.8353 70.6278 57.441C69.2823 58.409 67.8577 59.2309 66.354 59.9188C66.0191 60.071 65.8913 60.2597 65.8973 60.6311C65.9217 61.7513 65.8973 62.8776 65.9217 63.9978C65.9217 64.1683 66.0617 64.4179 66.2078 64.497C67.0236 64.9536 67.5533 65.6233 67.5959 66.5426C67.6446 67.6994 67.6629 68.8744 67.5229 70.0128C67.3889 71.0661 66.3418 71.8575 65.2642 71.9367C64.8198 71.9671 64.3753 71.9671 63.9309 71.9732C63.3525 71.9732 63.3525 71.9732 63.3525 72.5759C63.3525 73.5561 63.3221 74.5302 63.3525 75.5104C63.3891 76.521 63.1029 77.3733 62.3054 78.0247H49.1064ZM84.2529 32.1998C83.8267 31.8041 83.4371 31.4449 83.0596 31.0735C82.4813 30.4951 82.1221 29.795 82.3108 28.9792C82.4508 28.3704 82.7187 27.786 82.9866 27.2198C83.291 26.5683 83.845 26.1604 84.5512 26.0691C85.1722 25.99 85.8114 25.9961 86.4385 25.99C86.7003 25.99 86.7916 25.9047 86.7855 25.6429C86.7734 24.7358 86.7733 23.8287 86.7794 22.9277C86.7794 22.7024 86.6942 22.6172 86.475 22.6233C86.0306 22.6294 85.5862 22.6354 85.1357 22.6233C84.4173 22.6111 83.7354 22.4224 83.3032 21.8379C82.9683 21.3874 82.743 20.8455 82.5117 20.322C82.0186 19.2322 82.2743 18.2825 83.1205 17.4728C83.4797 17.1257 83.8633 16.797 84.2468 16.45C83.3701 15.6037 82.5848 14.8366 81.7629 14.0452C81.3915 14.4226 81.0019 14.8366 80.5879 15.2384C79.8999 15.9142 79.0841 16.1151 78.1709 15.7985C77.7143 15.6402 77.2638 15.4332 76.8315 15.208C76.1801 14.8671 75.7661 14.3252 75.6931 13.5886C75.6322 12.9737 75.6261 12.3588 75.62 11.7378C75.62 11.4943 75.5469 11.4029 75.3034 11.4029C74.3963 11.409 73.4892 11.409 72.5881 11.4029C72.3385 11.4029 72.2655 11.5004 72.2716 11.7439C72.2837 12.2187 72.2655 12.6936 72.2716 13.1685C72.2776 13.9234 72.0037 14.5748 71.4071 15.0071C70.987 15.3115 70.4634 15.4759 69.9824 15.695C68.9353 16.1699 68.0282 15.9446 67.2306 15.1471C66.8593 14.7757 66.4879 14.3983 66.1652 14.0756L63.6996 16.4926C64.1014 16.8579 64.5397 17.2171 64.9293 17.6128C65.6051 18.2946 65.8182 19.1165 65.5138 20.0297C65.3494 20.5168 65.1424 20.9977 64.8989 21.4483C64.5823 22.051 64.0709 22.4528 63.383 22.5319C62.7559 22.605 62.1227 22.605 61.4957 22.6172C61.2339 22.6172 61.1487 22.7024 61.1487 22.9642C61.1608 23.8957 61.1487 24.8332 61.1487 25.7647C61.1487 25.8317 61.1791 25.8926 61.2095 25.99C61.7575 25.99 62.2871 25.9778 62.8168 25.99C63.7787 26.0143 64.5397 26.404 64.978 27.2989C65.1424 27.6337 65.2764 27.9808 65.4225 28.3217C65.8669 29.3871 65.6356 30.3186 64.8198 31.11C64.4484 31.4692 64.0587 31.8041 63.6752 32.1572L66.1409 34.5559C66.5122 34.1784 66.9141 33.7705 67.328 33.3748C68.0038 32.7234 68.8014 32.4981 69.7024 32.8086C70.1225 32.9547 70.5304 33.1252 70.9322 33.32C71.8332 33.7584 72.2716 34.495 72.2776 35.4935C72.2776 35.9561 72.2898 36.4128 72.2776 36.8754C72.2716 37.1129 72.3385 37.2164 72.5881 37.2164C73.4953 37.2103 74.4024 37.2103 75.3034 37.2164C75.553 37.2164 75.6261 37.119 75.62 36.8815C75.6078 36.4188 75.6139 35.9622 75.62 35.4995C75.6504 34.4402 76.1314 33.6731 77.1238 33.247C77.3734 33.1374 77.6291 33.046 77.8787 32.9304C78.9745 32.4372 79.9182 32.6625 80.734 33.5209C81.0871 33.8923 81.4341 34.2637 81.7507 34.5985C82.5969 33.7888 83.3701 33.04 84.2468 32.2059L84.2529 32.1998ZM55.6998 69.6841V69.6719C58.7195 69.6719 61.7392 69.6719 64.7589 69.6719C65.2764 69.6719 65.386 69.5562 65.392 69.0327C65.3981 68.3995 65.4042 67.7663 65.3981 67.1332C65.3981 66.6157 65.252 66.4757 64.7223 66.4757C58.7134 66.4757 52.7045 66.4757 46.6956 66.4757C46.2146 66.4757 46.0746 66.6096 46.0685 67.0906C46.0563 67.6628 46.0685 68.2412 46.0685 68.8135C46.0685 69.6476 46.0989 69.6841 46.9513 69.6841C49.8674 69.6841 52.7897 69.6841 55.7059 69.6841H55.6998ZM55.6998 75.1025C54.0743 75.1025 52.4549 75.1025 50.8294 75.0964C50.5128 75.0964 50.3241 75.1451 50.3788 75.5165C50.4215 75.8148 50.2449 76.1983 50.8172 76.1922C54.0804 76.174 57.3375 76.174 60.6007 76.1922C61.1608 76.1922 61.0147 75.833 61.0573 75.5225C61.106 75.1451 60.9173 75.0964 60.6068 75.1025C58.9691 75.1146 57.3314 75.1025 55.6937 75.1025H55.6998ZM55.6998 71.9671V71.9793C54.0621 71.9793 52.4244 71.9854 50.7867 71.9732C50.4519 71.9732 50.3788 72.095 50.3788 72.3994C50.3788 72.7099 50.458 72.8255 50.7928 72.8194C52.2296 72.8012 53.6664 72.8133 55.1032 72.8133C56.9418 72.8133 58.7804 72.8133 60.619 72.8073C60.7651 72.8073 60.9904 72.7403 61.033 72.6429C61.2156 72.2045 61.033 71.9732 60.5703 71.9732C58.9448 71.9732 57.3253 71.9732 55.6998 71.9732V71.9671ZM51.5782 52.6801C51.5782 52.6375 51.5782 52.5949 51.5782 52.5522C51.5782 51.915 51.2515 51.5964 50.598 51.5964C49.8309 51.5964 49.4474 51.9881 49.4474 52.7714C49.4474 53.4411 49.7883 53.7759 50.4702 53.7759C51.152 53.7759 51.5214 53.4127 51.5782 52.6862V52.6801ZM65.7878 48.1079C65.7878 48.0531 65.7878 47.9923 65.7878 47.9375C65.7634 46.8355 65.94 46.9999 64.8198 46.9877C63.663 46.9756 63.663 46.9877 63.663 48.1262C63.663 48.8324 64.0141 49.1855 64.7163 49.1855C65.4306 49.1855 65.7878 48.8243 65.7878 48.1019V48.1079ZM48.0349 42.9513L49.5022 44.4551L51.0303 42.8905C50.6102 42.5069 50.1719 42.0929 49.7092 41.7094C49.63 41.6424 49.4048 41.6363 49.3317 41.7033C48.8751 42.1173 48.4428 42.5556 48.0349 42.9513Z" fill="black"/>
<path d="M55.0849 41.819C55.0849 40.7536 55.0788 39.6942 55.0849 38.6288C55.0849 38.3305 55.0118 38.2027 54.6891 38.1661C53.5446 38.0322 52.8749 37.259 52.8627 36.1023C52.8566 35.2256 52.8566 34.3489 52.8627 33.4722C52.881 32.2363 53.7029 31.4266 54.9266 31.4266C55.8033 31.4266 56.6799 31.4266 57.5566 31.4266C58.6768 31.4327 59.4987 32.1937 59.5474 33.3139C59.584 34.2759 59.584 35.2378 59.5596 36.1997C59.5352 37.2955 58.8717 38.0261 57.7819 38.1661C57.441 38.2087 57.3618 38.3183 57.3679 38.641C57.3801 40.7657 57.374 42.8966 57.3679 45.0213C57.3679 45.6727 57.0452 46.1659 56.5521 46.2998C55.7363 46.519 55.097 46.0076 55.0849 45.0944C55.0727 44.0046 55.0849 42.9087 55.0849 41.819ZM57.2827 33.7401H55.1579C55.1579 34.3915 55.1457 35.0064 55.1701 35.6213C55.1701 35.7187 55.3467 35.8892 55.4502 35.8892C55.9616 35.9196 56.479 35.9196 56.9965 35.8892C57.1 35.8892 57.2705 35.7187 57.2766 35.6213C57.3009 35.0064 57.2887 34.3915 57.2887 33.7401H57.2827Z" fill="black"/>
<path d="M45.7701 28.8514C46.245 28.8514 46.7199 28.8453 47.1948 28.8514C48.1567 28.8697 49.0273 29.5637 49.0881 30.5134C49.1612 31.6702 49.1429 32.8391 49.076 34.0019C49.0273 34.8116 48.3028 35.53 47.4931 35.5726C46.379 35.6396 45.2527 35.6518 44.1385 35.5848C43.2071 35.53 42.4948 34.7447 42.4582 33.8071C42.4156 32.7721 42.4095 31.7371 42.4582 30.7022C42.5069 29.6063 43.341 28.8636 44.4429 28.8514C44.8874 28.8514 45.3318 28.8514 45.7823 28.8514H45.7701ZM44.7169 32.2242C44.7169 32.9669 45.0822 33.3363 45.8128 33.3322C46.5433 33.3282 46.8883 32.9608 46.8477 32.2303C46.8071 31.4997 46.454 31.1344 45.7884 31.1344C45.1228 31.1344 44.7676 31.4977 44.723 32.2242H44.7169Z" fill="black"/>
<path d="M50.9632 26.8911C50.5188 26.8911 50.0683 26.8667 49.6299 26.8911C48.5889 26.9702 47.5904 25.9718 47.6269 24.9185C47.6574 23.9688 47.6209 23.019 47.6391 22.0754C47.6635 20.9674 48.4245 20.182 49.5325 20.1455C50.4944 20.1089 51.4563 20.115 52.4183 20.1455C53.4898 20.182 54.2812 20.9795 54.3117 22.051C54.3421 23.0434 54.3421 24.0357 54.3117 25.0281C54.2812 26.0813 53.4289 26.8789 52.3817 26.8911C51.9069 26.8911 51.432 26.8911 50.9571 26.8911H50.9632ZM52.0408 23.5122C52.0408 23.5122 52.0408 23.4574 52.0408 23.4269C52.0408 22.7572 51.712 22.4224 51.0545 22.4224C50.2915 22.4224 49.91 22.806 49.91 23.5731C49.91 24.2671 50.2529 24.6121 50.9389 24.608C51.6248 24.604 51.9901 24.2387 52.0347 23.5122H52.0408Z" fill="black"/>
<path d="M44.9847 3.55546C45.0517 2.971 45.3926 2.52657 45.9345 2.40481C46.4581 2.28305 46.9999 2.52657 47.2008 3.05015C47.4443 3.67722 47.627 4.32864 47.8157 4.97398C47.9557 5.44276 48.0957 5.90545 48.1871 6.38641C48.2845 6.92216 47.9557 7.43356 47.4626 7.61011C46.9634 7.78667 46.318 7.61011 46.1354 7.11089C45.7092 5.94198 45.3683 4.74872 44.9847 3.56154V3.55546Z" fill="black"/>
<path d="M25.3933 54.3604C24.9063 54.3604 24.474 54.0377 24.3279 53.6177C24.1636 53.1367 24.2975 52.5949 24.7419 52.327C25.4421 51.9069 26.1726 51.5538 26.8971 51.1763C27.1772 51.0302 27.4572 50.8902 27.7494 50.7684C28.3522 50.531 28.9244 50.7441 29.2106 51.2981C29.4724 51.7973 29.3445 52.4305 28.8209 52.7288C27.8225 53.2889 26.7875 53.776 25.7647 54.2874C25.643 54.3482 25.4847 54.3482 25.3933 54.3665V54.3604Z" fill="black"/>
<path d="M24.6323 34.8786C23.6461 34.7568 22.605 34.6472 21.57 34.495C20.9004 34.3976 20.4864 33.8497 20.5533 33.2713C20.6264 32.6443 21.1926 32.1755 21.8684 32.2485C22.8972 32.352 23.92 32.486 24.9367 32.6321C25.5821 32.7234 26.0265 33.2835 25.9595 33.8558C25.8865 34.4707 25.3386 34.9151 24.6323 34.8847V34.8786Z" fill="black"/>
<path d="M33.4661 58.2324C34.0628 58.2263 34.4037 58.4394 34.6107 58.8351C34.8116 59.2187 34.8055 59.6266 34.5255 59.9675C34.288 60.2658 34.0019 60.5398 33.7279 60.8016C33.1556 61.3434 32.6016 61.9035 31.9928 62.4028C31.4936 62.8107 30.9457 62.7376 30.5195 62.3114C30.1238 61.9157 30.0385 61.2643 30.4464 60.8381C31.2501 60.0041 32.1085 59.2187 32.9669 58.4394C33.1191 58.2994 33.3748 58.269 33.4661 58.2324Z" fill="black"/>
<path d="M28.2548 24.7297C28.2669 25.5638 27.4329 26.1056 26.6049 25.7708C25.6795 25.3933 24.7602 24.9915 23.847 24.5775C23.2077 24.2853 22.946 23.6704 23.1712 23.0921C23.4087 22.4893 24.0175 22.2093 24.6993 22.4772C25.6734 22.8607 26.6292 23.2808 27.579 23.713C28.0234 23.9139 28.2548 24.3097 28.2609 24.7297H28.2548Z" fill="black"/>
<path d="M25.0159 41.892C25.7465 41.892 26.2396 42.2999 26.3066 42.8661C26.3797 43.5115 26.0022 44.035 25.3264 44.1629C24.3158 44.3577 23.2991 44.5343 22.2824 44.7047C21.6918 44.8021 21.1013 44.3881 20.9856 43.828C20.8639 43.2375 21.1865 42.653 21.8014 42.5008C22.5624 42.3121 23.3478 42.1903 24.121 42.0442C24.4558 41.9833 24.7968 41.9286 25.022 41.892H25.0159Z" fill="black"/>
<path d="M37.0581 6.76996C37.4173 6.76996 37.7522 6.96478 37.9896 7.32397C38.5436 8.16413 39.1037 8.99819 39.6395 9.85052C40.0169 10.4532 39.9073 11.0681 39.3899 11.4639C38.915 11.8231 38.2392 11.75 37.8313 11.1838C37.186 10.2889 36.565 9.36957 36.0232 8.40765C35.597 7.65882 36.1571 6.78822 37.0642 6.76996H37.0581Z" fill="black"/>
<path d="M33.1008 16.7544C32.9851 17.6494 32.1145 18.1851 31.384 17.7772C31.0248 17.5763 30.7204 17.2841 30.4038 17.0162C29.8193 16.5291 29.2227 16.0543 28.6809 15.5246C28.1451 14.995 28.273 14.1974 28.9061 13.7956C29.2897 13.5521 29.8132 13.5764 30.2333 13.9113C31.0369 14.5627 31.8345 15.2202 32.6016 15.9142C32.8329 16.1273 32.9425 16.4744 33.113 16.7605L33.1008 16.7544Z" fill="black"/>
<path d="M55.0971 3.48845C55.0971 2.95879 55.0971 2.42912 55.0971 1.89337C55.0971 1.60723 55.2006 1.44894 55.5354 1.4733C55.9921 1.50374 56.4547 1.50982 56.9114 1.4733C57.2827 1.44286 57.3619 1.65594 57.368 1.93599C57.3801 2.62394 57.374 3.31189 57.374 4.00594C57.374 4.35296 57.3862 4.69389 57.374 5.04091C57.3375 5.73495 56.8261 6.25243 56.2112 6.24026C55.5842 6.22199 55.1275 5.74712 55.0971 5.047C55.0788 4.52951 55.0971 4.01202 55.0971 3.49454V3.48845Z" fill="black"/>
<path d="M68.4117 24.3036C68.4117 27.8834 71.7236 30.556 75.1877 29.7707C78.2926 29.0645 80.1495 25.8865 79.2971 22.7207C79.1571 22.191 79.1693 21.7162 79.6015 21.3387C80.253 20.7664 81.221 21.1134 81.4645 21.984C82.1281 24.3279 81.8602 26.5562 80.533 28.5957C78.8649 31.1588 75.8756 32.626 72.7403 32.1024C70.4877 31.725 68.6978 30.5743 67.468 28.6992C65.806 26.1665 65.6233 23.4695 66.9992 20.7238C67.9611 18.8061 69.4953 17.5215 71.4922 16.8092C73.1604 16.2125 74.8589 16.2856 76.5271 16.8396C77.1298 17.0405 77.4037 17.5763 77.2759 18.1668C77.148 18.7452 76.6549 19.0861 76.0217 19.0131C75.7113 18.9765 75.4008 18.8913 75.0964 18.8182C72.8986 18.3007 70.3416 19.421 69.2214 21.3935C68.6613 22.3858 68.4177 23.2564 68.4177 24.3036H68.4117Z" fill="black"/>
<path d="M73.9579 28.2852C71.7844 28.2852 69.9702 26.4649 69.9824 24.2975C69.9945 22.0997 71.8331 20.2672 73.9944 20.3038C76.1861 20.3403 77.9638 22.1424 77.9334 24.3158C77.909 26.5258 76.1374 28.2913 73.9518 28.2852H73.9579ZM73.9457 25.99C74.8894 25.9961 75.6321 25.2534 75.6382 24.2975C75.6382 23.3721 74.9137 22.6172 73.9822 22.6111C73.0264 22.6051 72.2958 23.2991 72.2897 24.3036C72.2897 25.2716 72.9899 25.9718 73.9457 25.99Z" fill="black"/>
<path d="M55.0667 1.72293C55.298 1.18109 55.7546 0.852339 56.3025 0.888867C56.8383 0.925396 57.2888 1.30894 57.3314 1.86905C57.3862 2.53874 57.374 3.21451 57.374 3.89029C57.374 4.37733 57.374 4.86438 57.3253 5.34534C57.2705 5.88718 56.8078 6.2829 56.2782 6.30725C55.7485 6.33161 55.1823 5.97241 55.1519 5.45492C55.0788 4.21296 55.091 2.97099 55.0667 1.72293Z" fill="black"/>
<path d="M23.2443 90.0792H47.8644C53.6359 90.0792 58.3116 85.4035 58.3116 79.632V78.0248H53.088V79.632C53.088 82.5178 50.7502 84.8556 47.8644 84.8556H28.4496" stroke="black" stroke-width="3" stroke-miterlimit="3.86"/>
<path d="M28.9 84.8L23.4 90.09" stroke="black" stroke-width="3" stroke-miterlimit="10" stroke-linecap="round"/>
<path d="M5.65341 65.9091V71H5.05682L2.28267 67.0028H2.23295V71H1.61648V65.9091H2.21307L4.99716 69.9162H5.04688V65.9091H5.65341Z" fill="black"/>
</svg>
