<svg width="90" height="108" viewBox="0 0 90 108" fill="none" xmlns="http://www.w3.org/2000/svg">
<path d="M63 87H89" stroke="#E30613" stroke-width="3" stroke-miterlimit="10"/>
<path d="M64.3022 89.5982L88.9833 98.0667" stroke="#DEDC00" stroke-width="3" stroke-miterlimit="10"/>
<path d="M61.6965 84.8191L89.1111 73.7327" stroke="#312783" stroke-width="3" stroke-miterlimit="10"/>
<path d="M89.1112 104.039C89.1112 102.468 87.8144 101.19 86.2315 101.19C84.6486 101.19 83.3701 102.474 83.3701 104.045C83.3701 105.64 84.6608 106.913 86.2802 106.894C87.8692 106.882 89.1173 105.579 89.1112 104.039ZM88.7824 104.033C88.7824 105.421 87.65 106.566 86.2559 106.572C84.8434 106.572 83.6989 105.445 83.6928 104.039C83.6928 102.675 84.8313 101.525 86.195 101.519C87.6318 101.519 88.7824 102.627 88.7885 104.033H88.7824Z" fill="black"/>
<path d="M86.408 104.228C86.408 104.173 86.408 104.13 86.408 104.082C86.408 103.43 86.408 102.773 86.408 102.121C86.408 102.079 86.4202 102.03 86.408 102C86.3715 101.945 86.3228 101.878 86.2619 101.86C86.1767 101.835 86.1158 101.896 86.0915 101.981C86.0793 102.018 86.0915 102.061 86.0915 102.103C86.0915 102.761 86.0915 103.418 86.0915 104.076C86.0915 104.118 86.0915 104.167 86.0915 104.222C86.0367 104.222 85.9941 104.228 85.9514 104.228C85.5375 104.228 85.1235 104.228 84.7095 104.228C84.6669 104.228 84.606 104.216 84.5755 104.24C84.5268 104.277 84.4599 104.337 84.4599 104.386C84.4599 104.441 84.5207 104.502 84.5695 104.538C84.5999 104.563 84.6547 104.551 84.7034 104.551C85.714 104.551 86.7246 104.551 87.7292 104.551C87.7657 104.551 87.8022 104.551 87.8387 104.551C87.924 104.532 87.9909 104.471 87.9727 104.386C87.9605 104.325 87.8935 104.277 87.8387 104.234C87.8083 104.216 87.7596 104.228 87.717 104.222C87.3334 104.222 86.9499 104.222 86.5603 104.222C86.5176 104.222 86.475 104.222 86.4141 104.216L86.408 104.228Z" fill="black"/>
<path d="M86.2376 105.184C86.4993 105.184 86.7611 105.184 87.0168 105.184C87.1569 105.184 87.2482 105.092 87.2117 104.977C87.1812 104.879 87.1082 104.849 87.0107 104.849C86.8159 104.849 86.6211 104.849 86.4263 104.849C86.1219 104.849 85.8236 104.849 85.5192 104.849C85.4887 104.849 85.4522 104.849 85.4218 104.849C85.3122 104.861 85.2452 104.934 85.2513 105.025C85.2574 105.129 85.3304 105.178 85.4278 105.184C85.574 105.184 85.7262 105.184 85.8723 105.184C85.994 105.184 86.1097 105.184 86.2315 105.184H86.2376Z" fill="black"/>
<path d="M86.2498 105.792C86.3168 105.792 86.3837 105.792 86.4507 105.792C86.542 105.792 86.5968 105.738 86.609 105.646C86.6212 105.555 86.5725 105.482 86.4811 105.476C86.3229 105.464 86.1646 105.464 86.0124 105.476C85.921 105.482 85.8662 105.555 85.8784 105.652C85.8906 105.744 85.9454 105.792 86.0367 105.792C86.1098 105.792 86.1767 105.792 86.2498 105.792Z" fill="black"/>
<path d="M40.8936 78.0247C41.7581 77.282 41.959 76.314 41.9103 75.2303C41.8677 74.2806 41.9103 73.3308 41.892 72.3811C41.8859 72.0523 41.9955 71.961 42.306 71.961C42.9392 71.961 43.5906 72.0097 44.1933 71.8758C45.3744 71.6201 46.1354 70.6703 46.1963 69.3858C46.245 68.3995 46.1963 67.4071 46.1232 66.4209C46.0623 65.6112 45.6118 64.9963 44.8995 64.6127C44.5586 64.4301 44.449 64.217 44.4612 63.8334C44.4855 62.7437 44.4794 61.6478 44.4612 60.5581C44.4551 60.2476 44.5647 60.0954 44.8325 59.9736C46.7503 59.103 48.5341 58.0193 50.184 56.7104C52.6192 54.7805 54.6343 52.4731 56.2477 49.8187C57.5871 47.6209 58.5429 45.2709 59.1943 42.7809C59.7422 40.6622 60.0223 38.5131 60.0101 36.3397C59.9858 33.0521 59.4196 29.8498 58.1898 26.7875C56.7043 23.092 54.5187 19.8897 51.5781 17.1866C49.4412 15.2202 47.0486 13.6616 44.4003 12.511C42.4765 11.6769 40.4674 11.0985 38.3853 10.7637C36.2849 10.4228 34.1784 10.3436 32.0719 10.508C29.862 10.6846 27.7068 11.1777 25.6125 11.9265C25.4359 11.9874 25.1742 11.9874 25.0159 11.9022C24.06 11.3664 23.2747 11.4395 22.465 12.2005C22.0571 12.584 21.6552 12.9737 21.2839 13.3937C21.0708 13.6312 20.876 13.6251 20.6507 13.4851C20.395 13.3329 19.9749 13.3755 20.0054 12.8702C20.0419 12.2979 20.0236 11.7195 20.0176 11.1472C19.9932 9.94789 19.22 9.13209 18.0268 9.10774C16.663 9.08339 15.2932 9.08947 13.9295 9.11991C12.9554 9.14427 12.1883 9.88092 12.1152 10.855C12.0665 11.5004 12.0726 12.1518 12.097 12.7971C12.1091 13.1076 12.0178 13.2902 11.7195 13.3755C11.4029 13.4607 11.1046 13.7773 10.7637 13.3572C10.4288 12.9493 10.0331 12.584 9.64957 12.2187C8.72418 11.3421 7.65876 11.3055 6.7699 12.1579C5.78972 13.1076 4.82781 14.0817 3.89025 15.0741C3.18403 15.8168 3.20838 16.937 3.90851 17.6919C4.34076 18.1546 4.79128 18.599 5.2418 19.0374C5.41227 19.2018 5.46097 19.3479 5.3453 19.561C5.26615 19.6949 5.21745 19.8471 5.16875 19.9993C5.0896 20.2367 4.94957 20.3341 4.68778 20.3281C4.13986 20.3098 3.59193 20.3402 3.05009 20.3098C1.76551 20.2428 0.901008 21.3448 0.937536 22.4163C0.980153 23.6826 0.974065 24.9489 0.937536 26.2152C0.907096 27.2563 1.78987 28.3461 3.00139 28.273C3.5615 28.2365 4.1216 28.273 4.6817 28.2608C4.9374 28.2547 5.07133 28.3582 5.16265 28.5896C5.46706 29.3201 5.47315 29.3141 4.90087 29.8924C4.5782 30.2212 4.24945 30.5378 3.93287 30.8787C3.17186 31.7006 3.17185 32.8208 3.95722 33.6305C4.85825 34.5559 5.77755 35.4691 6.69685 36.3823C7.12301 36.8024 7.30566 36.8694 8.56589 37.119C8.60851 37.7339 8.65721 38.3609 8.70592 38.988C8.72418 39.2315 8.74244 39.4751 8.77897 39.7186C8.87638 40.3883 9.36343 40.8023 9.98442 40.7536C10.5993 40.7048 11.0437 40.2178 11.0316 39.5481C11.0255 39.1037 10.9402 38.6593 10.922 38.2148C10.8854 37.2955 10.8611 36.3762 10.855 35.4569C10.855 35.0003 10.9889 34.9212 11.4212 35.116C12.1578 35.4447 12.0909 35.2134 12.0909 36.1388C12.0909 36.5832 12.0787 37.0337 12.0909 37.4782C12.1274 38.7201 12.8884 39.4872 14.1243 39.4933C15.4332 39.5055 16.7422 39.5055 18.0511 39.4933C19.147 39.4811 19.981 38.6593 20.0115 37.5634C20.0297 36.9485 20.0297 36.3275 20.0054 35.7065C19.9871 35.2073 20.4194 35.2621 20.6751 35.1099C20.876 34.9881 21.0708 34.9638 21.2778 35.189C21.6613 35.6213 22.0753 36.0231 22.4893 36.4188C23.3477 37.2346 24.3766 37.3077 25.2229 36.5102C26.2761 35.53 27.2806 34.5011 28.2669 33.4539C28.8757 32.8086 28.8574 31.7006 28.2791 31.0309C27.8833 30.5743 27.4633 30.1359 27.0188 29.7341C26.7084 29.448 26.6536 29.2106 26.824 28.8027C26.9945 28.3948 27.1771 28.2182 27.6337 28.2547C28.1756 28.2973 28.7235 28.2791 29.2714 28.2547C30.2942 28.2182 31.1039 27.4328 31.1222 26.41C31.1466 25.0037 31.1466 23.5913 31.1222 22.1849C31.1039 21.1865 30.3247 20.3889 29.3201 20.3402C28.687 20.3098 28.0538 20.3098 27.4207 20.3402C27.1102 20.3524 26.958 20.2124 26.8971 19.9567C26.824 19.6523 26.477 19.3722 26.8666 19.0252C27.2867 18.6538 27.6703 18.2399 28.0599 17.838C28.9183 16.9431 28.9183 15.8046 28.0599 14.9219C27.7433 14.5931 27.3902 14.3009 26.9519 13.8991C27.5668 13.7103 28.0295 13.5399 28.5043 13.4242C31.1892 12.7362 33.9288 12.5536 36.6745 12.8336C39.542 13.1198 42.2695 13.9234 44.8386 15.2506C48.2297 17.004 51.0485 19.4209 53.2767 22.5198C55.0849 25.0341 56.339 27.792 57.0574 30.8056C57.7758 33.8253 57.9402 36.8694 57.4592 39.9256C56.5399 45.7336 53.8429 50.5858 49.3682 54.4274C47.4809 56.0529 45.3622 57.3009 43.0731 58.2629C42.446 58.5246 42.1842 58.9812 42.1903 59.6448C42.2025 61.1364 42.1903 62.6341 42.1903 64.1683H40.644C40.644 63.9613 40.644 63.7786 40.644 63.5899C40.644 61.2338 40.6561 58.8717 40.644 56.5156C40.644 56.1564 40.7535 56.0529 41.1006 56.0346C42.0138 55.9798 42.787 55.2127 42.8113 54.2995C42.8417 53.2524 42.8478 52.1991 42.8113 51.152C42.7809 50.117 42.0077 49.356 40.9605 49.3195C39.9864 49.289 39.0063 49.2951 38.0261 49.3195C37.0155 49.3438 36.2057 50.0987 36.157 51.1033C36.1083 52.1504 36.1083 53.2037 36.151 54.2508C36.1936 55.2249 36.9546 55.9737 37.9165 56.0468C38.2392 56.0711 38.3609 56.1625 38.3609 56.5034C38.3487 58.9325 38.3548 61.3617 38.367 63.7969C38.367 64.1257 38.2757 64.217 37.953 64.2109C36.9607 64.1926 35.9744 64.2048 34.9394 64.2048C34.9272 64.0039 34.9151 63.8395 34.9151 63.6691C34.9151 60.7224 34.9151 57.7697 34.9151 54.8231C34.9151 54.1412 34.6107 53.6968 34.0871 53.5689C33.3931 53.4046 32.7782 53.8064 32.6564 54.5065C32.626 54.6892 32.632 54.8779 32.632 55.0666C32.632 57.8854 32.632 60.7042 32.632 63.5229C32.632 63.7239 32.632 63.9248 32.632 64.1926C31.9076 64.1926 31.2074 64.2048 30.5134 64.1805C30.4403 64.1805 30.3186 63.9674 30.3186 63.8456C30.3064 62.7254 30.3125 61.6052 30.3125 60.4789C30.3125 58.9143 30.2881 57.3436 30.3308 55.7789C30.3368 55.438 30.4951 55.024 30.7265 54.7866C33.387 52.0591 36.0779 49.3621 38.7566 46.6529C38.9819 46.4276 39.1219 46.3972 39.3959 46.592C40.2421 47.2008 41.1554 47.1278 41.9285 46.385C42.6226 45.7153 43.2984 45.0274 43.9559 44.3272C44.6073 43.6271 44.6377 42.5191 43.9863 41.8068C43.2984 41.0519 42.58 40.3213 41.8311 39.6333C40.9788 38.8419 39.9438 38.8784 39.0611 39.7064C38.4035 40.3274 37.7643 40.9727 37.1433 41.6302C36.364 42.4643 36.3823 43.5784 37.1616 44.4186C37.2468 44.5099 37.332 44.6073 37.5025 44.8082C37.0398 45.2344 36.5771 45.6362 36.1388 46.0745C33.7705 48.4428 31.4144 50.8232 29.0523 53.1976C28.346 53.9038 28.0173 54.75 28.0173 55.7546C28.0295 58.4151 28.0173 61.0755 28.0295 63.736C28.0295 64.1318 27.9077 64.2353 27.5424 64.2048C27.1771 64.1744 26.8058 64.1987 26.41 64.1987V51.5538C26.8118 51.4503 27.2076 51.4199 27.5424 51.2555C28.273 50.8963 28.6322 50.2631 28.6383 49.4412C28.6383 48.5524 28.6626 47.6574 28.6383 46.7686C28.6139 45.5022 27.8042 44.7169 26.5379 44.7047C25.6916 44.6986 24.8393 44.6986 23.9931 44.7047C22.7694 44.723 21.9657 45.4962 21.9414 46.7199C21.9231 47.627 21.9536 48.5341 21.9292 49.4351C21.9049 50.5553 22.8424 51.4564 23.7983 51.4686C23.8957 51.4686 24.0783 51.6329 24.0783 51.7243C24.0844 53.6359 24.0783 55.5476 24.0661 57.4592C24.0661 57.4714 24.0539 57.4836 24.0235 57.5323C23.9322 57.4958 23.8226 57.4714 23.7252 57.4227C19.494 55.2675 16.249 52.0895 13.8869 47.9862C13.552 47.4017 13.2902 46.7686 12.9067 46.2206C12.4136 45.5205 11.3055 45.6544 11.0255 46.4581C10.9159 46.7625 10.9402 47.1947 11.0803 47.487C12.998 51.5051 15.7498 54.8353 19.3722 57.441C20.7177 58.409 22.1423 59.2309 23.646 59.9188C23.9809 60.071 24.1087 60.2597 24.1027 60.6311C24.0783 61.7513 24.1027 62.8776 24.0783 63.9978C24.0783 64.1683 23.9383 64.4179 23.7922 64.497C22.9764 64.9536 22.4467 65.6233 22.4041 66.5426C22.3554 67.6994 22.3371 68.8744 22.4771 70.0128C22.6111 71.0661 23.6582 71.8575 24.7358 71.9367C25.1802 71.9671 25.6247 71.9671 26.0691 71.9732C26.6475 71.9732 26.6475 71.9732 26.6475 72.5759C26.6475 73.5561 26.6779 74.5302 26.6475 75.5104C26.6109 76.521 26.8971 77.3733 27.6946 78.0247H40.8936ZM5.74711 32.1998C6.17328 31.8041 6.56292 31.4449 6.94038 31.0735C7.51875 30.4951 7.87794 29.795 7.68921 28.9792C7.54918 28.3704 7.28131 27.786 7.01343 27.2198C6.70903 26.5683 6.15501 26.1604 5.44879 26.0691C4.82781 25.99 4.18857 25.9961 3.56149 25.99C3.29971 25.99 3.20838 25.9047 3.21447 25.6429C3.22665 24.7358 3.22665 23.8287 3.22056 22.9277C3.22056 22.7024 3.3058 22.6172 3.52497 22.6233C3.9694 22.6294 4.41382 22.6354 4.86434 22.6233C5.58274 22.6111 6.2646 22.4224 6.69685 21.8379C7.03169 21.3874 7.25695 20.8455 7.4883 20.322C7.98144 19.2322 7.72574 18.2825 6.87949 17.4728C6.5203 17.1257 6.13674 16.797 5.7532 16.45C6.62988 15.6037 7.41524 14.8366 8.23713 14.0452C8.6085 14.4226 8.99815 14.8366 9.41213 15.2384C10.1001 15.9142 10.9159 16.1151 11.8291 15.7985C12.2857 15.6402 12.7362 15.4332 13.1685 15.208C13.8199 14.8671 14.2339 14.3252 14.3069 13.5886C14.3678 12.9737 14.3739 12.3588 14.38 11.7378C14.38 11.4943 14.4531 11.4029 14.6966 11.4029C15.6037 11.409 16.5108 11.409 17.4119 11.4029C17.6615 11.4029 17.7345 11.5004 17.7284 11.7439C17.7163 12.2187 17.7345 12.6936 17.7284 13.1685C17.7224 13.9234 17.9963 14.5748 18.5929 15.0071C19.013 15.3115 19.5366 15.4759 20.0176 15.695C21.0647 16.1699 21.9718 15.9446 22.7694 15.1471C23.1407 14.7757 23.5121 14.3983 23.8348 14.0756L26.3004 16.4926C25.8986 16.8579 25.4603 17.2171 25.0707 17.6128C24.3949 18.2946 24.1818 19.1165 24.4862 20.0297C24.6506 20.5168 24.8576 20.9977 25.1011 21.4483C25.4177 22.051 25.9291 22.4528 26.617 22.5319C27.2441 22.605 27.8773 22.605 28.5043 22.6172C28.7661 22.6172 28.8513 22.7024 28.8513 22.9642C28.8392 23.8957 28.8513 24.8332 28.8513 25.7647C28.8513 25.8317 28.8209 25.8926 28.7905 25.99C28.2425 25.99 27.7129 25.9778 27.1832 25.99C26.2213 26.0143 25.4603 26.404 25.022 27.2989C24.8576 27.6337 24.7236 27.9808 24.5775 28.3217C24.1331 29.3871 24.3644 30.3186 25.1802 31.11C25.5516 31.4692 25.9413 31.8041 26.3248 32.1572L23.8591 34.5559C23.4878 34.1784 23.0859 33.7705 22.672 33.3748C21.9962 32.7234 21.1986 32.4981 20.2976 32.8086C19.8775 32.9547 19.4696 33.1252 19.0678 33.32C18.1668 33.7584 17.7284 34.495 17.7224 35.4935C17.7224 35.9561 17.7102 36.4128 17.7224 36.8754C17.7284 37.1129 17.6615 37.2164 17.4119 37.2164C16.5047 37.2103 15.5976 37.2103 14.6966 37.2164C14.447 37.2164 14.3739 37.119 14.38 36.8815C14.3922 36.4188 14.3861 35.9622 14.38 35.4995C14.3496 34.4402 13.8686 33.6731 12.8762 33.247C12.6266 33.1374 12.3709 33.046 12.1213 32.9304C11.0255 32.4372 10.0818 32.6625 9.26602 33.5209C8.91291 33.8923 8.56589 34.2637 8.24931 34.5985C7.40307 33.7888 6.62988 33.04 5.7532 32.2059L5.74711 32.1998ZM34.3002 69.6841V69.6719C31.2805 69.6719 28.2608 69.6719 25.2411 69.6719C24.7236 69.6719 24.614 69.5562 24.608 69.0327C24.6019 68.3995 24.5958 67.7663 24.6019 67.1332C24.6019 66.6157 24.748 66.4757 25.2777 66.4757C31.2866 66.4757 37.2955 66.4757 43.3044 66.4757C43.7854 66.4757 43.9254 66.6096 43.9315 67.0906C43.9437 67.6628 43.9315 68.2412 43.9315 68.8135C43.9315 69.6476 43.9011 69.6841 43.0487 69.6841C40.1326 69.6841 37.2103 69.6841 34.2941 69.6841H34.3002ZM34.3002 75.1025C35.9257 75.1025 37.5451 75.1025 39.1706 75.0964C39.4872 75.0964 39.6759 75.1451 39.6212 75.5165C39.5785 75.8148 39.7551 76.1983 39.1828 76.1922C35.9196 76.174 32.6625 76.174 29.3993 76.1922C28.8392 76.1922 28.9853 75.833 28.9427 75.5225C28.894 75.1451 29.0827 75.0964 29.3932 75.1025C31.0309 75.1146 32.6686 75.1025 34.3063 75.1025H34.3002ZM34.3002 71.9671V71.9793C35.9379 71.9793 37.5756 71.9854 39.2133 71.9732C39.5481 71.9732 39.6212 72.095 39.6212 72.3994C39.6212 72.7099 39.542 72.8255 39.2072 72.8194C37.7704 72.8012 36.3336 72.8133 34.8968 72.8133C33.0582 72.8133 31.2196 72.8133 29.381 72.8073C29.2349 72.8073 29.0096 72.7403 28.967 72.6429C28.7844 72.2045 28.967 71.9732 29.4297 71.9732C31.0552 71.9732 32.6747 71.9732 34.3002 71.9732V71.9671ZM38.4218 52.6801C38.4218 52.6375 38.4218 52.5949 38.4218 52.5522C38.4218 51.915 38.7485 51.5964 39.402 51.5964C40.1691 51.5964 40.5526 51.9881 40.5526 52.7714C40.5526 53.4411 40.2117 53.7759 39.5298 53.7759C38.848 53.7759 38.4786 53.4127 38.4218 52.6862V52.6801ZM24.2122 48.1079C24.2122 48.0531 24.2122 47.9923 24.2122 47.9375C24.2366 46.8355 24.06 46.9999 25.1802 46.9877C26.337 46.9756 26.337 46.9877 26.337 48.1262C26.337 48.8324 25.9859 49.1855 25.2837 49.1855C24.5694 49.1855 24.2122 48.8243 24.2122 48.1019V48.1079ZM41.9651 42.9513L40.4978 44.4551L38.9697 42.8905C39.3898 42.5069 39.8281 42.0929 40.2908 41.7094C40.37 41.6424 40.5952 41.6363 40.6683 41.7033C41.1249 42.1173 41.5572 42.5556 41.9651 42.9513Z" fill="black"/>
<path d="M34.9151 41.819C34.9151 40.7536 34.9212 39.6942 34.9151 38.6288C34.9151 38.3305 34.9882 38.2027 35.3109 38.1661C36.4554 38.0322 37.1251 37.259 37.1373 36.1023C37.1434 35.2256 37.1434 34.3489 37.1373 33.4722C37.119 32.2363 36.2971 31.4266 35.0734 31.4266C34.1967 31.4266 33.3201 31.4266 32.4434 31.4266C31.3232 31.4327 30.5013 32.1937 30.4526 33.3139C30.416 34.2759 30.416 35.2378 30.4404 36.1997C30.4648 37.2955 31.1283 38.0261 32.2181 38.1661C32.559 38.2087 32.6382 38.3183 32.6321 38.641C32.6199 40.7657 32.626 42.8966 32.6321 45.0213C32.6321 45.6727 32.9548 46.1659 33.4479 46.2998C34.2637 46.519 34.903 46.0076 34.9151 45.0944C34.9273 44.0046 34.9151 42.9087 34.9151 41.819ZM32.7173 33.7401H34.8421C34.8421 34.3915 34.8543 35.0064 34.8299 35.6213C34.8299 35.7187 34.6533 35.8892 34.5498 35.8892C34.0384 35.9196 33.521 35.9196 33.0035 35.8892C32.9 35.8892 32.7295 35.7187 32.7234 35.6213C32.6991 35.0064 32.7113 34.3915 32.7113 33.7401H32.7173Z" fill="black"/>
<path d="M44.2299 28.8514C43.755 28.8514 43.2801 28.8453 42.8052 28.8514C41.8433 28.8697 40.9727 29.5637 40.9119 30.5134C40.8388 31.6702 40.8571 32.8391 40.924 34.0019C40.9727 34.8116 41.6972 35.53 42.5069 35.5726C43.621 35.6396 44.7473 35.6518 45.8615 35.5848C46.7929 35.53 47.5052 34.7447 47.5418 33.8071C47.5844 32.7721 47.5905 31.7371 47.5418 30.7022C47.4931 29.6063 46.659 28.8636 45.5571 28.8514C45.1126 28.8514 44.6682 28.8514 44.2177 28.8514H44.2299ZM45.2831 32.2242C45.2831 32.9669 44.9178 33.3363 44.1872 33.3322C43.4567 33.3282 43.1117 32.9608 43.1523 32.2303C43.1929 31.4997 43.546 31.1344 44.2116 31.1344C44.8772 31.1344 45.2324 31.4977 45.277 32.2242H45.2831Z" fill="black"/>
<path d="M39.0368 26.8911C39.4812 26.8911 39.9317 26.8667 40.3701 26.8911C41.4111 26.9702 42.4096 25.9718 42.3731 24.9185C42.3426 23.9688 42.3791 23.019 42.3609 22.0754C42.3365 20.9674 41.5755 20.182 40.4675 20.1455C39.5056 20.1089 38.5437 20.115 37.5817 20.1455C36.5102 20.182 35.7188 20.9795 35.6883 22.051C35.6579 23.0434 35.6579 24.0357 35.6883 25.0281C35.7188 26.0813 36.5711 26.8789 37.6183 26.8911C38.0931 26.8911 38.568 26.8911 39.0429 26.8911H39.0368ZM37.9592 23.5122C37.9592 23.5122 37.9592 23.4574 37.9592 23.4269C37.9592 22.7572 38.288 22.4224 38.9455 22.4224C39.7085 22.4224 40.09 22.806 40.09 23.5731C40.09 24.2671 39.7471 24.6121 39.0611 24.608C38.3752 24.604 38.0099 24.2387 37.9653 23.5122H37.9592Z" fill="black"/>
<path d="M45.0153 3.55546C44.9483 2.971 44.6074 2.52657 44.0655 2.40481C43.5419 2.28305 43.0001 2.52657 42.7992 3.05015C42.5557 3.67722 42.373 4.32864 42.1843 4.97398C42.0443 5.44276 41.9043 5.90545 41.8129 6.38641C41.7155 6.92216 42.0443 7.43356 42.5374 7.61011C43.0366 7.78667 43.682 7.61011 43.8646 7.11089C44.2908 5.94198 44.6317 4.74872 45.0153 3.56154V3.55546Z" fill="black"/>
<path d="M64.6067 54.3604C65.0937 54.3604 65.526 54.0377 65.6721 53.6177C65.8364 53.1367 65.7025 52.5949 65.2581 52.327C64.5579 51.9069 63.8274 51.5538 63.1029 51.1763C62.8228 51.0302 62.5428 50.8902 62.2506 50.7684C61.6478 50.531 61.0756 50.7441 60.7894 51.2981C60.5276 51.7973 60.6555 52.4305 61.1791 52.7288C62.1775 53.2889 63.2125 53.776 64.2353 54.2874C64.357 54.3482 64.5153 54.3482 64.6067 54.3665V54.3604Z" fill="black"/>
<path d="M65.3677 34.8786C66.3539 34.7568 67.395 34.6472 68.43 34.495C69.0996 34.3976 69.5136 33.8497 69.4467 33.2713C69.3736 32.6443 68.8074 32.1755 68.1316 32.2485C67.1028 32.352 66.08 32.486 65.0633 32.6321C64.4179 32.7234 63.9735 33.2835 64.0405 33.8558C64.1135 34.4707 64.6614 34.9151 65.3677 34.8847V34.8786Z" fill="black"/>
<path d="M56.5339 58.2324C55.9372 58.2263 55.5963 58.4394 55.3893 58.8351C55.1884 59.2187 55.1945 59.6266 55.4745 59.9675C55.712 60.2658 55.9981 60.5398 56.2721 60.8016C56.8444 61.3434 57.3984 61.9035 58.0072 62.4028C58.5064 62.8107 59.0543 62.7376 59.4805 62.3114C59.8762 61.9157 59.9615 61.2643 59.5536 60.8381C58.7499 60.0041 57.8915 59.2187 57.0331 58.4394C56.8809 58.2994 56.6252 58.269 56.5339 58.2324Z" fill="black"/>
<path d="M61.7452 24.7297C61.7331 25.5638 62.5671 26.1056 63.3951 25.7708C64.3205 25.3933 65.2398 24.9915 66.153 24.5775C66.7923 24.2853 67.054 23.6704 66.8288 23.0921C66.5913 22.4893 65.9825 22.2093 65.3007 22.4772C64.3266 22.8607 63.3708 23.2808 62.421 23.713C61.9766 23.9139 61.7452 24.3097 61.7391 24.7297H61.7452Z" fill="black"/>
<path d="M64.9841 41.892C64.2535 41.892 63.7604 42.2999 63.6934 42.8661C63.6203 43.5115 63.9978 44.035 64.6736 44.1629C65.6842 44.3577 66.7009 44.5343 67.7176 44.7047C68.3082 44.8021 68.8987 44.3881 69.0144 43.828C69.1361 43.2375 68.8135 42.653 68.1986 42.5008C67.4376 42.3121 66.6522 42.1903 65.879 42.0442C65.5442 41.9833 65.2032 41.9286 64.978 41.892H64.9841Z" fill="black"/>
<path d="M52.9419 6.76996C52.5827 6.76996 52.2478 6.96478 52.0104 7.32397C51.4564 8.16413 50.8963 8.99819 50.3605 9.85052C49.9831 10.4532 50.0927 11.0681 50.6101 11.4639C51.085 11.8231 51.7608 11.75 52.1687 11.1838C52.814 10.2889 53.435 9.36957 53.9768 8.40765C54.403 7.65882 53.8429 6.78822 52.9358 6.76996H52.9419Z" fill="black"/>
<path d="M56.8992 16.7544C57.0149 17.6494 57.8855 18.1851 58.616 17.7772C58.9752 17.5763 59.2796 17.2841 59.5962 17.0162C60.1807 16.5291 60.7773 16.0543 61.3191 15.5246C61.8549 14.995 61.727 14.1974 61.0939 13.7956C60.7103 13.5521 60.1868 13.5764 59.7667 13.9113C58.9631 14.5627 58.1655 15.2202 57.3984 15.9142C57.1671 16.1273 57.0575 16.4744 56.887 16.7605L56.8992 16.7544Z" fill="black"/>
<path d="M34.9029 3.48845C34.9029 2.95879 34.9029 2.42912 34.9029 1.89337C34.9029 1.60723 34.7994 1.44894 34.4646 1.4733C34.0079 1.50374 33.5453 1.50982 33.0886 1.4733C32.7173 1.44286 32.6381 1.65594 32.632 1.93599C32.6199 2.62394 32.626 3.31189 32.626 4.00594C32.626 4.35296 32.6138 4.69389 32.626 5.04091C32.6625 5.73495 33.1739 6.25243 33.7888 6.24026C34.4158 6.22199 34.8725 5.74712 34.9029 5.047C34.9212 4.52951 34.9029 4.01202 34.9029 3.49454V3.48845Z" fill="black"/>
<path d="M21.5883 24.3036C21.5883 27.8834 18.2764 30.556 14.8123 29.7707C11.7074 29.0645 9.85054 25.8865 10.7029 22.7207C10.8429 22.191 10.8307 21.7162 10.3985 21.3387C9.74704 20.7664 8.77904 21.1134 8.53552 21.984C7.87192 24.3279 8.13979 26.5562 9.46699 28.5957C11.1351 31.1588 14.1244 32.626 17.2597 32.1024C19.5123 31.725 21.3022 30.5743 22.532 28.6992C24.194 26.1665 24.3767 23.4695 23.0008 20.7238C22.0389 18.8061 20.5047 17.5215 18.5078 16.8092C16.8396 16.2125 15.1411 16.2856 13.4729 16.8396C12.8702 17.0405 12.5963 17.5763 12.7241 18.1668C12.852 18.7452 13.3451 19.0861 13.9783 19.0131C14.2887 18.9765 14.5992 18.8913 14.9036 18.8182C17.1014 18.3007 19.6584 19.421 20.7786 21.3935C21.3387 22.3858 21.5823 23.2564 21.5823 24.3036H21.5883Z" fill="black"/>
<path d="M16.0421 28.2852C18.2156 28.2852 20.0298 26.4649 20.0176 24.2975C20.0055 22.0997 18.1669 20.2672 16.0056 20.3038C13.8139 20.3403 12.0362 22.1424 12.0666 24.3158C12.091 26.5258 13.8626 28.2913 16.0482 28.2852H16.0421ZM16.0543 25.99C15.1106 25.9961 14.3679 25.2534 14.3618 24.2975C14.3618 23.3721 15.0863 22.6172 16.0178 22.6111C16.9736 22.6051 17.7042 23.2991 17.7103 24.3036C17.7103 25.2716 17.0101 25.9718 16.0543 25.99Z" fill="black"/>
<path d="M34.9333 1.72293C34.702 1.18109 34.2454 0.852339 33.6975 0.888867C33.1617 0.925396 32.7112 1.30894 32.6686 1.86905C32.6138 2.53874 32.626 3.21451 32.626 3.89029C32.626 4.37733 32.626 4.86438 32.6747 5.34534C32.7295 5.88718 33.1922 6.2829 33.7218 6.30725C34.2515 6.33161 34.8177 5.97241 34.8481 5.45492C34.9212 4.21296 34.909 2.97099 34.9333 1.72293Z" fill="black"/>
<path d="M66.7557 90.0792H42.1356C36.3641 90.0792 31.6884 85.4035 31.6884 79.632V78.0248H36.912V79.632C36.912 82.5178 39.2498 84.8556 42.1356 84.8556H61.5504" stroke="black" stroke-width="3" stroke-miterlimit="3.86"/>
<path d="M61.1 84.8L66.6 90.09" stroke="black" stroke-width="3" stroke-miterlimit="10" stroke-linecap="round"/>
<path d="M88.6534 64.9091V70H88.0568L85.2827 66.0028H85.233V70H84.6165V64.9091H85.2131L87.9972 68.9162H88.0469V64.9091H88.6534Z" fill="black"/>
<rect class="RELAY-IN" x="86" y="86" width="2" height="2" fill="#DF4444"/>
</svg>
