<svg width="66" height="79" viewBox="0 0 66 79" fill="none" xmlns="http://www.w3.org/2000/svg">
<g clip-path="url(#clip0_1033_487)">
<path d="M19 64L3 55" stroke="black" stroke-linecap="round"/>
<path d="M19 64L3 73" stroke="#CFF400" stroke-linecap="round"/>
<path d="M19 64H3" stroke="#D32F2F" stroke-linecap="round"/>
<path d="M0.651872 76.1025C0.651872 74.9534 1.60283 74.0186 2.76363 74.0186C3.92441 74.0186 4.86198 74.9578 4.86198 76.1069C4.86198 77.2736 3.91549 78.2048 2.7279 78.1909C1.56265 78.1821 0.647407 77.229 0.651872 76.1025ZM0.892958 76.0982C0.892958 77.1134 1.72337 77.951 2.74576 77.9554C3.78155 77.9554 4.62089 77.131 4.62535 76.1025C4.62535 75.1048 3.79048 74.2636 2.79041 74.2592C1.73677 74.2592 0.892958 75.0697 0.888492 76.0982H0.892958Z" fill="black"/>
<path d="M2.63399 76.2408C2.63399 76.2006 2.63399 76.1691 2.63399 76.134C2.63399 75.6571 2.63399 75.1765 2.63399 74.6996C2.63399 74.6689 2.62506 74.633 2.63399 74.6111C2.66078 74.5708 2.69649 74.5218 2.74114 74.5087C2.80365 74.4904 2.84829 74.535 2.86615 74.5972C2.87508 74.6242 2.86615 74.6557 2.86615 74.6864C2.86615 75.1677 2.86615 75.6483 2.86615 76.1296C2.86615 76.1603 2.86615 76.1962 2.86615 76.2364C2.90633 76.2364 2.93758 76.2408 2.96884 76.2408C3.27242 76.2408 3.57601 76.2408 3.87961 76.2408C3.91086 76.2408 3.95551 76.232 3.97783 76.2496C4.01355 76.2766 4.06265 76.3205 4.06265 76.3564C4.06265 76.3966 4.01801 76.4412 3.9823 76.4676C3.95997 76.4859 3.91979 76.4771 3.88407 76.4771C3.14295 76.4771 2.40183 76.4771 1.66517 76.4771C1.63839 76.4771 1.6116 76.4771 1.58481 76.4771C1.52231 76.4632 1.4732 76.4186 1.48659 76.3564C1.49552 76.3118 1.54463 76.2766 1.58481 76.2452C1.60713 76.232 1.64285 76.2408 1.6741 76.2364C1.95537 76.2364 2.23664 76.2364 2.52238 76.2364C2.55363 76.2364 2.58488 76.2364 2.62952 76.232L2.63399 76.2408Z" fill="black"/>
<path d="M2.75907 76.9401C2.56709 76.9401 2.37512 76.9401 2.18761 76.9401C2.08492 76.9401 2.01795 76.8728 2.04474 76.7887C2.06706 76.717 2.12064 76.6951 2.19207 76.6951C2.33494 76.6951 2.4778 76.6951 2.62067 76.6951C2.8439 76.6951 3.06267 76.6951 3.28589 76.6951C3.30822 76.6951 3.335 76.6951 3.35733 76.6951C3.43769 76.7038 3.4868 76.7572 3.48234 76.8238C3.47787 76.8999 3.42429 76.9357 3.35286 76.9401C3.24571 76.9401 3.1341 76.9401 3.02695 76.9401C2.93765 76.9401 2.85283 76.9401 2.76354 76.9401H2.75907Z" fill="black"/>
<path d="M2.75011 77.3849C2.701 77.3849 2.65189 77.3849 2.60278 77.3849C2.53581 77.3849 2.49563 77.3455 2.48671 77.2782C2.47777 77.2116 2.51349 77.1582 2.58045 77.1538C2.69653 77.145 2.81261 77.145 2.92423 77.1538C2.9912 77.1582 3.03138 77.2116 3.02245 77.2825C3.01352 77.3498 2.97335 77.3849 2.90637 77.3849C2.8528 77.3849 2.80369 77.3849 2.75011 77.3849Z" fill="black"/>
<path d="M36.0115 57.0736C35.3775 56.5303 35.2302 55.8223 35.2659 55.0295C35.2971 54.3349 35.2659 53.6401 35.2793 52.9454C35.2838 52.7049 35.2034 52.6381 34.9757 52.6381C34.5114 52.6381 34.0337 52.6737 33.5917 52.5758C32.7256 52.3888 32.1675 51.694 32.1228 50.7544C32.0871 50.0329 32.1228 49.307 32.1764 48.5856C32.2211 47.9933 32.5515 47.5436 33.0738 47.263C33.3238 47.1294 33.4042 46.9735 33.3952 46.6929C33.3774 45.8958 33.3819 45.0942 33.3952 44.2971C33.3997 44.07 33.3193 43.9586 33.123 43.8695C31.7166 43.2327 30.4084 42.44 29.1985 41.4826C27.4127 40.0709 25.935 38.3831 24.7518 36.4414C23.7696 34.8338 23.0687 33.1148 22.591 31.2934C22.1892 29.7436 21.9838 28.1716 21.9927 26.5818C22.0105 24.177 22.4257 21.8345 23.3276 19.5945C24.417 16.8913 26.0197 14.5489 28.1762 12.5717C29.7432 11.1333 31.4978 9.99318 33.4399 9.15154C34.8507 8.54141 36.324 8.11832 37.8509 7.87342C39.3912 7.62406 40.936 7.56612 42.4807 7.68638C44.1013 7.81556 45.6818 8.17625 47.2176 8.72399C47.3471 8.76853 47.539 8.76853 47.6551 8.70621C48.3561 8.31428 48.932 8.36775 49.5258 8.92441C49.8249 9.20493 50.1196 9.48999 50.3919 9.79722C50.5482 9.97094 50.6911 9.96648 50.8563 9.86407C51.0438 9.75274 51.3519 9.7839 51.3295 9.41429C51.3027 8.99566 51.3161 8.57257 51.3205 8.15394C51.3384 7.27667 51.9055 6.67993 52.7805 6.66212C53.7806 6.6443 54.7851 6.64875 55.7852 6.67102C56.4995 6.68884 57.062 7.22768 57.1156 7.9402C57.1514 8.4123 57.1469 8.88879 57.129 9.36081C57.1201 9.58794 57.1871 9.72151 57.4058 9.7839C57.638 9.84622 57.8567 10.0778 58.1067 9.77052C58.3523 9.47214 58.6425 9.20494 58.9237 8.93773C59.6024 8.29651 60.3837 8.26974 61.0355 8.89325C61.7543 9.58794 62.4597 10.3005 63.1473 11.0264C63.6652 11.5697 63.6473 12.3891 63.1339 12.9413C62.8169 13.2797 62.4865 13.6048 62.1561 13.9255C62.0311 14.0457 61.9954 14.1526 62.0802 14.3085C62.1382 14.4064 62.174 14.5178 62.2097 14.6291C62.2677 14.8027 62.3704 14.874 62.5624 14.8696C62.9642 14.8562 63.3661 14.8785 63.7634 14.8562C64.7054 14.8072 65.3394 15.6133 65.3126 16.3971C65.2813 17.3234 65.2858 18.2496 65.3126 19.1759C65.3349 19.9375 64.6875 20.7346 63.7991 20.6811C63.3884 20.6544 62.9776 20.6811 62.5669 20.6722C62.3794 20.6678 62.2812 20.7435 62.2141 20.9127C61.9909 21.4471 61.9865 21.4427 62.4061 21.8657C62.6428 22.1062 62.8839 22.3378 63.116 22.5872C63.6741 23.1884 63.6741 24.0078 63.0982 24.6001C62.4374 25.277 61.7632 25.945 61.0891 26.613C60.7766 26.9202 60.6426 26.9693 59.7185 27.1518C59.6872 27.6016 59.6515 28.0603 59.6158 28.519C59.6024 28.6971 59.589 28.8753 59.5622 29.0534C59.4908 29.5433 59.1336 29.8461 58.6782 29.8105C58.2273 29.7748 57.9014 29.4185 57.9103 28.9287C57.9148 28.6036 57.9773 28.2785 57.9907 27.9534C58.0175 27.2809 58.0353 26.6085 58.0398 25.936C58.0398 25.602 57.9416 25.5442 57.6246 25.6867C57.0844 25.9271 57.1335 25.7579 57.1335 26.4348C57.1335 26.7599 57.1424 27.0894 57.1335 27.4146C57.1067 28.323 56.5486 28.8841 55.6423 28.8886C54.6824 28.8975 53.7225 28.8975 52.7626 28.8886C51.959 28.8797 51.3474 28.2785 51.325 27.4769C51.3117 27.0271 51.3117 26.5729 51.3295 26.1186C51.3429 25.7535 51.0259 25.7935 50.8384 25.6822C50.6911 25.5931 50.5482 25.5753 50.3964 25.7401C50.1152 26.0563 49.8116 26.3502 49.508 26.6397C48.8785 27.2364 48.1239 27.2899 47.5033 26.7065C46.731 25.9895 45.9943 25.2369 45.2711 24.4709C44.8246 23.9989 44.838 23.1884 45.2621 22.6985C45.5524 22.3645 45.8604 22.0438 46.1863 21.7499C46.414 21.5406 46.4541 21.367 46.3292 21.0686C46.2042 20.7702 46.0702 20.6411 45.7354 20.6678C45.338 20.6989 44.9362 20.6856 44.5344 20.6678C43.7844 20.6411 43.1906 20.0666 43.1772 19.3184C43.1593 18.2897 43.1593 17.2566 43.1772 16.2278C43.1906 15.4975 43.762 14.9141 44.4987 14.8785C44.963 14.8562 45.4273 14.8562 45.8916 14.8785C46.1193 14.8874 46.2309 14.785 46.2756 14.5979C46.3292 14.3753 46.5837 14.1704 46.2979 13.9166C45.9899 13.6449 45.7086 13.3421 45.4229 13.0481C44.7934 12.3935 44.7934 11.5607 45.4229 10.9151C45.655 10.6746 45.914 10.4608 46.2354 10.1669C45.7845 10.0288 45.4452 9.90416 45.097 9.81953C43.128 9.31627 41.119 9.1827 39.1055 9.38751C37.0027 9.59686 35.0025 10.1847 33.1185 11.1555C30.6317 12.4381 28.5646 14.206 26.9305 16.4728C25.6045 18.312 24.6849 20.3293 24.158 22.5337C23.6312 24.7426 23.5106 26.9693 23.8634 29.2048C24.5375 33.4533 26.5153 37.0025 29.7968 39.8126C31.1808 41.0016 32.7345 41.9145 34.4132 42.6182C34.8731 42.8096 35.065 43.1436 35.0606 43.629C35.0516 44.7201 35.0606 45.8157 35.0606 46.9379H36.1945C36.1945 46.7865 36.1945 46.6528 36.1945 46.5148C36.1945 44.7914 36.1856 43.0635 36.1945 41.3401C36.1945 41.0773 36.1142 41.0016 35.8597 40.9882C35.19 40.9482 34.623 40.387 34.6052 39.7191C34.5829 38.9531 34.5784 38.1826 34.6052 37.4167C34.6275 36.6596 35.1945 36.103 35.9624 36.0763C36.6768 36.054 37.3955 36.0584 38.1143 36.0763C38.8554 36.094 39.4493 36.6462 39.485 37.3811C39.5207 38.147 39.5207 38.9175 39.4894 39.6834C39.4581 40.396 38.9001 40.9437 38.1947 40.9972C37.958 41.0149 37.8688 41.0818 37.8688 41.3312C37.8777 43.108 37.8733 44.8849 37.8643 46.6662C37.8643 46.9067 37.9313 46.9735 38.1679 46.9691C38.8956 46.9557 39.6189 46.9646 40.3779 46.9646C40.3868 46.8176 40.3957 46.6974 40.3957 46.5727C40.3957 44.4173 40.3957 42.2574 40.3957 40.1021C40.3957 39.6033 40.6189 39.2782 41.0029 39.1846C41.5118 39.0644 41.9628 39.3584 42.0521 39.8705C42.0744 40.0041 42.07 40.1421 42.07 40.2802C42.07 42.3421 42.07 44.404 42.07 46.4658C42.07 46.6128 42.07 46.7598 42.07 46.9557C42.6012 46.9557 43.1147 46.9646 43.6236 46.9468C43.6772 46.9468 43.7665 46.7909 43.7665 46.7018C43.7754 45.8824 43.771 45.063 43.771 44.2392C43.771 43.0947 43.7888 41.9458 43.7575 40.8012C43.7531 40.5518 43.637 40.249 43.4674 40.0754C41.5163 38.0802 39.543 36.1074 37.5786 34.1257C37.4134 33.9609 37.3107 33.9387 37.1098 34.0812C36.4892 34.5265 35.8195 34.4731 35.2526 33.9297C34.7435 33.4399 34.248 32.9367 33.7658 32.4245C33.2881 31.9124 33.2658 31.1019 33.7435 30.5809C34.248 30.0287 34.7748 29.4943 35.324 28.991C35.949 28.4121 36.708 28.4388 37.3553 29.0445C37.8376 29.4987 38.3063 29.9707 38.7617 30.4517C39.3332 31.0618 39.3198 31.8768 38.7483 32.4914C38.6858 32.5581 38.6233 32.6294 38.4983 32.7763C38.8376 33.0881 39.1769 33.382 39.4983 33.7026C41.2351 35.435 42.9629 37.1762 44.6951 38.913C45.2131 39.4296 45.4541 40.0486 45.4541 40.7834C45.4452 42.7295 45.4541 44.6756 45.4452 46.6217C45.4452 46.9112 45.5345 46.9869 45.8024 46.9646C46.0702 46.9424 46.3425 46.9601 46.6328 46.9601V37.7106C46.3381 37.6349 46.0479 37.6127 45.8024 37.4924C45.2666 37.2297 45.0032 36.7665 44.9987 36.1653C44.9987 35.5152 44.9809 34.8605 44.9987 34.2103C45.0166 33.284 45.6104 32.7096 46.539 32.7006C47.1596 32.6962 47.7846 32.6962 48.4052 32.7006C49.3026 32.714 49.8919 33.2796 49.9098 34.1747C49.9232 34.8382 49.9008 35.5018 49.9187 36.1608C49.9365 36.9802 49.249 37.6394 48.548 37.6483C48.4766 37.6483 48.3427 37.7685 48.3427 37.8353C48.3382 39.2336 48.3427 40.632 48.3516 42.0303C48.3516 42.0392 48.3606 42.0482 48.3829 42.0838C48.4498 42.0571 48.5302 42.0392 48.6016 42.0036C51.7045 40.4271 54.0842 38.1025 55.8164 35.101C56.062 34.6734 56.254 34.2103 56.5352 33.8095C56.8968 33.2974 57.7094 33.3953 57.9148 33.9832C57.9951 34.2059 57.9773 34.522 57.8746 34.7358C56.4683 37.675 54.4503 40.111 51.7938 42.017C50.8071 42.7251 49.7624 43.3263 48.6597 43.8295C48.4141 43.9408 48.3204 44.0788 48.3248 44.3505C48.3427 45.1699 48.3248 45.9938 48.3427 46.8132C48.3427 46.9379 48.4454 47.1205 48.5525 47.1783C49.1508 47.5123 49.5392 48.0022 49.5704 48.6747C49.6062 49.5208 49.6196 50.3803 49.5169 51.213C49.4186 51.9835 48.6508 52.5624 47.8605 52.6203C47.5346 52.6426 47.2087 52.6426 46.8828 52.647C46.4586 52.647 46.4586 52.647 46.4586 53.0879C46.4586 53.8049 46.4363 54.5174 46.4586 55.2344C46.4855 55.9737 46.2756 56.5971 45.6907 57.0736H36.0115ZM61.7856 23.5535C61.473 23.2641 61.1873 23.0013 60.9105 22.7297C60.4864 22.3066 60.223 21.7945 60.3614 21.1977C60.464 20.7524 60.6605 20.3249 60.857 19.9108C61.0802 19.4342 61.4865 19.1358 62.0043 19.069C62.4597 19.0112 62.9285 19.0156 63.3884 19.0112C63.5803 19.0112 63.6473 18.9488 63.6428 18.7573C63.6339 18.0938 63.6339 17.4302 63.6383 16.7712C63.6383 16.6064 63.5759 16.544 63.4151 16.5485C63.0892 16.553 62.7633 16.5573 62.433 16.5485C61.9061 16.5396 61.4061 16.4015 61.0891 15.974C60.8435 15.6445 60.6783 15.2481 60.5087 14.8651C60.1471 14.068 60.3346 13.3733 60.9552 12.781C61.2186 12.5271 61.4999 12.2867 61.7811 12.0328C61.1382 11.4138 60.5623 10.8527 59.9596 10.2738C59.6872 10.5498 59.4015 10.8527 59.0979 11.1466C58.5934 11.6409 57.9951 11.7879 57.3254 11.5563C56.9906 11.4405 56.6602 11.2891 56.3432 11.1243C55.8655 10.875 55.5619 10.4786 55.5084 9.93978C55.4637 9.48999 55.4593 9.04021 55.4548 8.58596C55.4548 8.40784 55.4012 8.34098 55.2226 8.34098C54.5574 8.34544 53.8922 8.34544 53.2314 8.34098C53.0484 8.34098 52.9948 8.4123 52.9993 8.59042C53.0082 8.93773 52.9948 9.28511 52.9993 9.63249C53.0037 10.1847 52.8028 10.6612 52.3653 10.9774C52.0573 11.2001 51.6733 11.3203 51.3205 11.4806C50.5527 11.828 49.8875 11.6632 49.3026 11.0798C49.0303 10.8081 48.7579 10.5321 48.5213 10.296L46.7132 12.064C47.0078 12.3312 47.3292 12.594 47.6149 12.8834C48.1105 13.3821 48.2668 13.9833 48.0436 14.6513C47.923 15.0076 47.7712 15.3594 47.5926 15.689C47.3605 16.1299 46.9854 16.4238 46.481 16.4816C46.0211 16.5351 45.5568 16.5351 45.097 16.544C44.905 16.544 44.8425 16.6064 44.8425 16.7979C44.8514 17.4792 44.8425 18.165 44.8425 18.8464C44.8425 18.8954 44.8648 18.9399 44.8871 19.0112C45.289 19.0112 45.6773 19.0023 46.0658 19.0112C46.7712 19.029 47.3292 19.314 47.6507 19.9686C47.7712 20.2135 47.8695 20.4674 47.9766 20.7168C48.3025 21.4961 48.1329 22.1775 47.5346 22.7564C47.2623 23.0191 46.9765 23.2641 46.6953 23.5224L48.5034 25.277C48.7757 25.0008 49.0705 24.7025 49.374 24.413C49.8696 23.9365 50.4545 23.7717 51.1152 23.9989C51.4233 24.1057 51.7224 24.2304 52.0171 24.3729C52.6778 24.6936 52.9993 25.2324 53.0037 25.9628C53.0037 26.3012 53.0126 26.6353 53.0037 26.9736C52.9993 27.1474 53.0484 27.2231 53.2314 27.2231C53.8967 27.2186 54.5619 27.2186 55.2226 27.2231C55.4057 27.2231 55.4593 27.1518 55.4548 26.9781C55.4458 26.6397 55.4503 26.3057 55.4548 25.9672C55.4771 25.1923 55.8298 24.6312 56.5576 24.3195C56.7406 24.2394 56.9281 24.1725 57.1112 24.088C57.9148 23.7272 58.6068 23.892 59.2051 24.5199C59.464 24.7916 59.7185 25.0632 59.9506 25.3081C60.5712 24.7159 61.1382 24.1681 61.7811 23.558L61.7856 23.5535ZM40.8466 50.9726V50.9637C43.0611 50.9637 45.2755 50.9637 47.49 50.9637C47.8695 50.9637 47.9499 50.879 47.9543 50.4961C47.9587 50.0329 47.9632 49.5698 47.9587 49.1067C47.9587 48.7281 47.8516 48.6257 47.4631 48.6257C43.0566 48.6257 38.6501 48.6257 34.2436 48.6257C33.8908 48.6257 33.7882 48.7237 33.7837 49.0755C33.7747 49.4941 33.7837 49.9171 33.7837 50.3358C33.7837 50.9459 33.806 50.9726 34.4311 50.9726C36.5695 50.9726 38.7126 50.9726 40.8511 50.9726H40.8466ZM40.8466 54.9361C39.6546 54.9361 38.467 54.9361 37.275 54.9316C37.0428 54.9316 36.9045 54.9672 36.9446 55.2389C36.9759 55.4571 36.8464 55.7376 37.2661 55.7332C39.6591 55.7198 42.0476 55.7198 44.4406 55.7332C44.8514 55.7332 44.7442 55.4704 44.7755 55.2433C44.8112 54.9672 44.6728 54.9316 44.4451 54.9361C43.2441 54.9449 42.0431 54.9361 40.8422 54.9361H40.8466ZM40.8466 52.6426V52.6515C39.6457 52.6515 38.4447 52.656 37.2437 52.647C36.9982 52.647 36.9446 52.7361 36.9446 52.9588C36.9446 53.1859 37.0027 53.2705 37.2482 53.266C38.3018 53.2527 39.3555 53.2616 40.4091 53.2616C41.7574 53.2616 43.1057 53.2616 44.4541 53.2572C44.5612 53.2572 44.7264 53.2082 44.7577 53.1369C44.8916 52.8162 44.7577 52.647 44.4183 52.647C43.2263 52.647 42.0387 52.647 40.8466 52.647V52.6426ZM37.8241 38.5345C37.8241 38.5033 37.8241 38.4722 37.8241 38.4409C37.8241 37.9748 37.5846 37.7418 37.1053 37.7418C36.5428 37.7418 36.2615 38.0283 36.2615 38.6013C36.2615 39.0911 36.5115 39.336 37.0116 39.336C37.5116 39.336 37.7825 39.0704 37.8241 38.539V38.5345ZM48.2445 35.19C48.2445 35.1499 48.2445 35.1055 48.2445 35.0654C48.2266 34.2593 48.3561 34.3795 47.5346 34.3706C46.6863 34.3618 46.6863 34.3706 46.6863 35.2034C46.6863 35.72 46.9438 35.9783 47.4587 35.9783C47.9826 35.9783 48.2445 35.714 48.2445 35.1856V35.19ZM35.2257 31.4181L36.3017 32.5181L37.4223 31.3736C37.1143 31.093 36.7928 30.7901 36.4535 30.5096C36.3955 30.4606 36.2303 30.4562 36.1767 30.5052C35.8419 30.808 35.5248 31.1286 35.2257 31.4181Z" fill="black"/>
<path d="M40.3957 30.5899C40.3957 29.8106 40.3912 29.0356 40.3957 28.2563C40.3957 28.0381 40.3421 27.9446 40.1054 27.9179C39.2661 27.8199 38.775 27.2543 38.7661 26.4082C38.7616 25.7669 38.7616 25.1256 38.7661 24.4844C38.7795 23.5803 39.3822 22.988 40.2796 22.988C40.9225 22.988 41.5653 22.988 42.2082 22.988C43.0297 22.9925 43.6325 23.5492 43.6682 24.3686C43.695 25.0722 43.695 25.7759 43.6771 26.4795C43.6592 27.281 43.1726 27.8154 42.3735 27.9179C42.1235 27.949 42.0654 28.0292 42.0699 28.2652C42.0788 29.8194 42.0743 31.3781 42.0699 32.9323C42.0699 33.4088 41.8332 33.7696 41.4716 33.8675C40.8734 34.0278 40.4045 33.6538 40.3957 32.9858C40.3867 32.1886 40.3957 31.387 40.3957 30.5899ZM42.0074 24.6803H40.4492C40.4492 25.1568 40.4403 25.6066 40.4581 26.0564C40.4581 26.1276 40.5876 26.2523 40.6635 26.2523C41.0386 26.2746 41.418 26.2746 41.7975 26.2523C41.8734 26.2523 41.9984 26.1276 42.0029 26.0564C42.0207 25.6066 42.0118 25.1568 42.0118 24.6803H42.0074Z" fill="black"/>
<path d="M33.5647 21.1043C33.913 21.1043 34.2612 21.0998 34.6095 21.1043C35.3149 21.1177 35.9533 21.6253 35.9979 22.32C36.0515 23.1662 36.0381 24.0212 35.989 24.8718C35.9533 25.4641 35.422 25.9896 34.8282 26.0207C34.0112 26.0697 33.1853 26.0786 32.3682 26.0296C31.6852 25.9896 31.1628 25.4151 31.136 24.7293C31.1047 23.9722 31.1003 23.2151 31.136 22.4581C31.1717 21.6565 31.7834 21.1132 32.5914 21.1043C32.9174 21.1043 33.2433 21.1043 33.5736 21.1043H33.5647ZM32.7924 23.5714C32.7924 24.1147 33.0602 24.3849 33.596 24.3819C34.1317 24.379 34.3847 24.1102 34.3549 23.5759C34.3252 23.0415 34.0662 22.7742 33.5781 22.7742C33.09 22.7742 32.8295 23.04 32.7968 23.5714H32.7924Z" fill="black"/>
<path d="M37.3731 19.6704C37.0472 19.6704 36.7169 19.6525 36.3954 19.6704C35.632 19.7282 34.8997 18.9979 34.9265 18.2275C34.9489 17.5328 34.9221 16.838 34.9354 16.1478C34.9533 15.3373 35.5114 14.7628 36.3239 14.7361C37.0293 14.7093 37.7347 14.7138 38.4402 14.7361C39.226 14.7628 39.8063 15.3462 39.8287 16.1299C39.851 16.8559 39.851 17.5817 39.8287 18.3076C39.8063 19.078 39.1813 19.6615 38.4133 19.6704C38.0652 19.6704 37.7169 19.6704 37.3686 19.6704H37.3731ZM38.1634 17.1988C38.1634 17.1988 38.1634 17.1587 38.1634 17.1364C38.1634 16.6465 37.9222 16.4016 37.4401 16.4016C36.8805 16.4016 36.6008 16.6822 36.6008 17.2433C36.6008 17.751 36.8522 18.0033 37.3553 18.0003C37.8583 17.9974 38.1262 17.7302 38.1589 17.1988H38.1634Z" fill="black"/>
<path d="M32.9888 2.60069C33.0379 2.17317 33.2879 1.84808 33.6853 1.75901C34.0693 1.66995 34.4666 1.84808 34.6139 2.23107C34.7925 2.68976 34.9265 3.16626 35.0648 3.63831C35.1675 3.98122 35.2702 4.31967 35.3372 4.67148C35.4086 5.06337 35.1675 5.43745 34.8059 5.56659C34.4398 5.69574 33.9665 5.56659 33.8326 5.20142C33.5201 4.34639 33.2701 3.47354 32.9888 2.60514V2.60069Z" fill="black"/>
<path d="M18.6217 39.7636C18.2645 39.7636 17.9475 39.5275 17.8404 39.2203C17.7199 38.8685 17.8181 38.4721 18.144 38.2762C18.6575 37.9689 19.1932 37.7106 19.7245 37.4345C19.9299 37.3276 20.1352 37.2252 20.3495 37.1361C20.7915 36.9624 21.2111 37.1183 21.421 37.5236C21.613 37.8887 21.5192 38.3519 21.1352 38.5701C20.4031 38.9798 19.6441 39.3361 18.894 39.7102C18.8048 39.7547 18.6887 39.7547 18.6217 39.768V39.7636Z" fill="black"/>
<path d="M18.0636 25.5131C17.3404 25.424 16.5769 25.3438 15.8179 25.2325C15.3269 25.1613 15.0233 24.7605 15.0723 24.3374C15.1259 23.8787 15.5411 23.5358 16.0367 23.5892C16.7912 23.6649 17.5412 23.763 18.2868 23.8698C18.7601 23.9366 19.086 24.3463 19.0369 24.7649C18.9833 25.2147 18.5815 25.5398 18.0636 25.5176V25.5131Z" fill="black"/>
<path d="M24.5419 42.5959C24.9794 42.5915 25.2294 42.7473 25.3812 43.0368C25.5286 43.3174 25.5241 43.6157 25.3188 43.8651C25.1446 44.0833 24.9348 44.2837 24.7339 44.4752C24.3142 44.8716 23.9079 45.2813 23.4614 45.6465C23.0954 45.9449 22.6936 45.8914 22.381 45.5796C22.0908 45.2902 22.0283 44.8137 22.3274 44.5019C22.9168 43.8919 23.5463 43.3174 24.1758 42.7473C24.2874 42.6449 24.4749 42.6227 24.5419 42.5959Z" fill="black"/>
<path d="M20.7201 18.0893C20.729 18.6995 20.1174 19.0958 19.5102 18.8509C18.8316 18.5747 18.1574 18.2808 17.4877 17.978C17.0189 17.7643 16.827 17.3145 16.9922 16.8914C17.1663 16.4505 17.6128 16.2457 18.1128 16.4417C18.8271 16.7222 19.528 17.0295 20.2245 17.3456C20.5504 17.4926 20.7201 17.7821 20.7246 18.0893H20.7201Z" fill="black"/>
<path d="M18.345 30.6432C18.8808 30.6432 19.2424 30.9416 19.2915 31.3557C19.3452 31.8278 19.0683 32.2108 18.5727 32.3043C17.8316 32.4468 17.086 32.576 16.3405 32.7006C15.9074 32.7719 15.4743 32.469 15.3895 32.0593C15.3002 31.6274 15.5368 31.1998 15.9877 31.0885C16.5458 30.9505 17.1218 30.8614 17.6888 30.7545C17.9343 30.71 18.1844 30.67 18.3495 30.6432H18.345Z" fill="black"/>
<path d="M27.1758 4.95215C27.4392 4.95215 27.6848 5.09466 27.8589 5.3574C28.2652 5.97196 28.6759 6.58206 29.0689 7.20552C29.3456 7.64637 29.2652 8.09616 28.8858 8.38568C28.5376 8.64843 28.042 8.59496 27.7428 8.18079C27.2696 7.52619 26.8142 6.85371 26.4169 6.15009C26.1044 5.60233 26.5151 4.96551 27.1803 4.95215H27.1758Z" fill="black"/>
<path d="M24.274 12.2555C24.1892 12.9102 23.5508 13.302 23.0151 13.0037C22.7516 12.8567 22.5284 12.643 22.2962 12.447C21.8676 12.0907 21.4301 11.7434 21.0328 11.3559C20.6399 10.9685 20.7337 10.3851 21.1979 10.0912C21.4792 9.91309 21.8631 9.93087 22.1712 10.1758C22.7605 10.6523 23.3454 11.1333 23.908 11.6409C24.0776 11.7968 24.158 12.0507 24.283 12.26L24.274 12.2555Z" fill="black"/>
<path d="M40.4046 2.55173C40.4046 2.16429 40.4046 1.77685 40.4046 1.38496C40.4046 1.17565 40.4805 1.05986 40.7261 1.07768C41.061 1.09995 41.4002 1.1044 41.7351 1.07768C42.0074 1.05542 42.0655 1.21128 42.07 1.41613C42.0788 1.91935 42.0744 2.42258 42.0744 2.93026C42.0744 3.1841 42.0833 3.43348 42.0744 3.68732C42.0476 4.195 41.6726 4.57353 41.2217 4.56462C40.7619 4.55126 40.4269 4.2039 40.4046 3.69178C40.3912 3.31324 40.4046 2.93471 40.4046 2.55618V2.55173Z" fill="black"/>
<path d="M50.1687 17.7777C50.1687 20.3962 52.5974 22.3512 55.1377 21.7767C57.4147 21.2602 58.7764 18.9355 58.1513 16.6198C58.0486 16.2323 58.0576 15.885 58.3745 15.6089C58.8523 15.1903 59.5622 15.4441 59.7407 16.0809C60.2274 17.7954 60.0309 19.4254 59.0576 20.9172C57.8344 22.7921 55.6422 23.8653 53.343 23.4823C51.6911 23.2063 50.3785 22.3646 49.4766 20.993C48.2578 19.1403 48.1238 17.1675 49.1328 15.1591C49.8382 13.7563 50.9633 12.8167 52.4277 12.2956C53.6511 11.8592 54.8966 11.9126 56.12 12.3179C56.5619 12.4648 56.7628 12.8568 56.6691 13.2887C56.5753 13.7118 56.2137 13.9612 55.7493 13.9078C55.5217 13.881 55.294 13.8187 55.0708 13.7652C53.4591 13.3866 51.5839 14.2061 50.7625 15.649C50.3517 16.3748 50.1731 17.0116 50.1731 17.7777H50.1687Z" fill="black"/>
<path d="M54.2357 20.6901C52.6418 20.6901 51.3114 19.3586 51.3204 17.7732C51.3292 16.1655 52.6775 14.8251 54.2625 14.8518C55.8697 14.8785 57.1734 16.1967 57.1511 17.7865C57.1332 19.4031 55.834 20.6945 54.2312 20.6901H54.2357ZM54.2268 19.0112C54.9188 19.0156 55.4635 18.4724 55.4679 17.7732C55.4679 17.0962 54.9366 16.544 54.2535 16.5396C53.5526 16.5352 53.0169 17.0428 53.0124 17.7776C53.0124 18.4857 53.5259 18.9979 54.2268 19.0112Z" fill="black"/>
<path d="M40.3823 1.26031C40.5519 0.863967 40.8868 0.623492 41.2886 0.650211C41.6815 0.676932 42.0119 0.957487 42.0431 1.3672C42.0833 1.85706 42.0743 2.35138 42.0743 2.8457C42.0743 3.20196 42.0743 3.55823 42.0386 3.91004C41.9984 4.30638 41.6591 4.59585 41.2708 4.61366C40.8823 4.63148 40.4671 4.36873 40.4448 3.99019C40.3912 3.08172 40.4001 2.17325 40.3823 1.26031Z" fill="black"/>
<path d="M17.0459 65.8913H35.1006C39.3331 65.8913 42.7619 62.4711 42.7619 58.2494V57.0737H38.9313V58.2494C38.9313 60.3603 37.2169 62.0703 35.1006 62.0703H20.8631" stroke="black" stroke-miterlimit="3.86"/>
<path d="M21.1932 62.0297L17.1599 65.8992" stroke="black" stroke-miterlimit="10" stroke-linecap="round"/>
<path d="M4.14572 48.2113V51.9352H3.70822L1.67384 49.0113H1.63738V51.9352H1.1853V48.2113H1.6228L3.66447 51.1424H3.70093V48.2113H4.14572Z" fill="black"/>
<rect class="RELAY-IN" x="2.5" y="63.5" width="1" height="1" rx="0.5" fill="transparent"/>
</g>
<defs>
<clipPath id="clip0_1033_487">
<rect width="66" height="79" fill="white"/>
</clipPath>
</defs>
</svg>
