<svg width="47" height="83" viewBox="0 0 47 83" fill="none" xmlns="http://www.w3.org/2000/svg">
<g clip-path="url(#clip0_313_195)">
<path d="M47 0H0V82.7465H47V0Z" fill="#C7C8CB" stroke="#1D1D1B" stroke-width="0.5" stroke-miterlimit="10"/>
<path d="M0 75.6936H47" stroke="#1D1D1B" stroke-width="0.5" stroke-miterlimit="10"/>
<path d="M39.7643 81.3908C40.7785 81.3908 41.6007 80.5698 41.6007 79.557C41.6007 78.5443 40.7785 77.7233 39.7643 77.7233C38.7501 77.7233 37.928 78.5443 37.928 79.557C37.928 80.5698 38.7501 81.3908 39.7643 81.3908Z" fill="#939498" stroke="#1D1D1B" stroke-width="0.5" stroke-miterlimit="10"/>
<path d="M33.6432 77.927H28.9346C28.8132 77.927 28.7148 78.0252 28.7148 78.1464V81.1635C28.7148 81.2847 28.8132 81.3829 28.9346 81.3829H33.6432C33.7646 81.3829 33.8629 81.2847 33.8629 81.1635V78.1464C33.8629 78.0252 33.7646 77.927 33.6432 77.927Z" fill="#AED5A9" stroke="#1D1D1B" stroke-width="0.5" stroke-miterlimit="10"/>
<path d="M25.0107 43.642H21.9972C21.5768 43.642 21.236 43.9823 21.236 44.4021V44.41C21.236 44.8298 21.5768 45.1701 21.9972 45.1701H25.0107C25.4311 45.1701 25.7719 44.8298 25.7719 44.41V44.4021C25.7719 43.9823 25.4311 43.642 25.0107 43.642Z" fill="#939498" stroke="#1D1D1B" stroke-width="0.5" stroke-miterlimit="10"/>
<path d="M11.0339 81.3907C12.0481 81.3907 12.8702 80.5697 12.8702 79.5569C12.8702 78.5441 12.0481 77.7231 11.0339 77.7231C10.0197 77.7231 9.19751 78.5441 9.19751 79.5569C9.19751 80.5697 10.0197 81.3907 11.0339 81.3907Z" fill="#939498" stroke="#1D1D1B" stroke-width="0.5" stroke-miterlimit="10"/>
<path d="M9.47229 80.5052L11.9679 78.021" stroke="#1D1D1B" stroke-width="0.5" stroke-miterlimit="10"/>
<path d="M9.95093 81.0304L12.4936 78.4991" stroke="#1D1D1B" stroke-width="0.5" stroke-miterlimit="10"/>
<path d="M18.1203 81.3907C19.1345 81.3907 19.9567 80.5697 19.9567 79.5569C19.9567 78.5441 19.1345 77.7231 18.1203 77.7231C17.1061 77.7231 16.2839 78.5441 16.2839 79.5569C16.2839 80.5697 17.1061 81.3907 18.1203 81.3907Z" fill="#939498" stroke="#1D1D1B" stroke-width="0.5" stroke-miterlimit="10"/>
<path d="M18.1204 81.3828L17.1552 77.9974" stroke="#1D1D1B" stroke-width="0.5" stroke-miterlimit="10"/>
<path d="M19.117 81.0929L18.1204 77.7231" stroke="#1D1D1B" stroke-width="0.5" stroke-miterlimit="10"/>
</g>
<path class="BUS-B" d="M21.0365 81.6849L16.3379 76.9337M15.3438 79.3093L15.4029 79.9593L15.616 80.5976L15.8763 81.1294L16.3024 81.6613L16.8468 82.0868L17.3794 82.3586L18.0185 82.5713L18.6576 82.6304L19.2966 82.5713L19.9475 82.3586L20.4802 82.0868L21.0128 81.6613L21.4389 81.1294L21.7111 80.5976L21.9241 79.9593L21.9715 79.3093L21.9241 78.6711L21.7111 78.0329L21.4389 77.501L21.0128 76.9692L20.4802 76.5437L19.9475 76.2718L19.2966 76.0591L18.6576 76L18.0185 76.0591L17.3794 76.2718L16.8468 76.5437L16.3024 76.9692L15.8763 77.501L15.616 78.0329L15.4029 78.6711L15.3438 79.3093Z" stroke="#212830" stroke-opacity="0.01" stroke-width="0.25" stroke-miterlimit="10"/>
<path class="BUS-A" d="M12.6927 81.6849L7.9941 76.9337M7 79.3093L7.0591 79.9593L7.2722 80.5976L7.5325 81.1294L7.9586 81.6613L8.503 82.0868L9.0356 82.3586L9.6747 82.5713L10.3138 82.6304L10.9529 82.5713L11.6038 82.3586L12.1364 82.0868L12.669 81.6613L13.0951 81.1294L13.3673 80.5976L13.5803 79.9593L13.6277 79.3093L13.5803 78.6711L13.3673 78.0329L13.0951 77.501L12.669 76.9692L12.1364 76.5437L11.6038 76.2718L10.9529 76.0591L10.3138 76L9.6747 76.0591L9.0356 76.2718L8.503 76.5437L7.9586 76.9692L7.5325 77.501L7.2722 78.0329L7.0591 78.6711L7 79.3093Z" stroke="#212830" stroke-opacity="0.01" stroke-width="0.25" stroke-miterlimit="10"/>
<defs>
<clipPath id="clip0_313_195">
<rect width="47" height="82.7465" fill="white"/>
</clipPath>
</defs>
</svg>
